<svg xmlns="http://www.w3.org/2000/svg" xmlns:xlink="http://www.w3.org/1999/xlink" contentStyleType="text/css" data-diagram-type="DESCRIPTION" height="1092px" preserveAspectRatio="none" style="width:1025px;height:1092px;background:#FFFFFF;" version="1.1" viewBox="0 0 1025 1092" width="1025px" zoomAndPan="magnify"><defs/><g><!--entity ProjectManager--><g class="entity" data-entity="ProjectManager" data-source-line="13" data-uid="ent0002" id="entity_ProjectManager"><rect fill="#FFFFFF" height="35.1328" rx="2.5" ry="2.5" style="stroke:#000000;stroke-width:0.5;" width="121.9751" x="44.3" y="7"/><text fill="#000000" font-family="sans-serif" font-size="13" lengthAdjust="spacing" textLength="101.9751" x="54.3" y="29.0669">ProjectManager</text></g><!--entity DocumentoDDS--><g class="entity" data-entity="DocumentoDDS" data-source-line="14" data-uid="ent0003" id="entity_DocumentoDDS"><rect fill="#FFFFFF" height="35.1328" rx="2.5" ry="2.5" style="stroke:#000000;stroke-width:0.5;" width="123.5747" x="190.3" y="119"/><text fill="#000000" font-family="sans-serif" font-size="13" lengthAdjust="spacing" textLength="103.5747" x="200.3" y="141.0669">DocumentoDDS</text></g><!--entity DocumentoDRF--><g class="entity" data-entity="DocumentoDRF" data-source-line="15" data-uid="ent0004" id="entity_DocumentoDRF"><rect fill="#FFFFFF" height="35.1328" rx="2.5" ry="2.5" style="stroke:#000000;stroke-width:0.5;" width="121.8228" x="28.3" y="231"/><text fill="#000000" font-family="sans-serif" font-size="13" lengthAdjust="spacing" textLength="101.8228" x="38.3" y="253.0669">DocumentoDRF</text></g><!--entity Casos--><g class="entity" data-entity="Casos" data-source-line="16" data-uid="ent0005" id="entity_Casos"><rect fill="#FFFFFF" height="35.1328" rx="2.5" ry="2.5" style="stroke:#000000;stroke-width:0.5;" width="132.8042" x="185.8" y="231"/><text fill="#000000" font-family="sans-serif" font-size="13" lengthAdjust="spacing" textLength="112.8042" x="195.8" y="253.0669">CasosUso/Prueba</text></g><!--entity Cliente--><g class="entity" data-entity="Cliente" data-source-line="17" data-uid="ent0006" id="entity_Cliente"><rect fill="#FFFFFF" height="35.1328" rx="2.5" ry="2.5" style="stroke:#000000;stroke-width:0.5;" width="65.6333" x="80.3" y="119"/><text fill="#000000" font-family="sans-serif" font-size="13" lengthAdjust="spacing" textLength="45.6333" x="90.3" y="141.0669">Cliente</text></g><!--entity IngenieroQA--><g class="entity" data-entity="IngenieroQA" data-source-line="21" data-uid="ent0007" id="entity_IngenieroQA"><rect fill="#FFFFFF" height="35.1328" rx="2.5" ry="2.5" style="stroke:#000000;stroke-width:0.5;" width="100.5962" x="483.8" y="7"/><text fill="#000000" font-family="sans-serif" font-size="13" lengthAdjust="spacing" textLength="80.5962" x="493.8" y="29.0669">IngenieroQA</text></g><!--entity PlanPruebas--><g class="entity" data-entity="PlanPruebas" data-source-line="22" data-uid="ent0008" id="entity_PlanPruebas"><rect fill="#FFFFFF" height="35.1328" rx="2.5" ry="2.5" style="stroke:#000000;stroke-width:0.5;" width="100.0693" x="345.3" y="343"/><text fill="#000000" font-family="sans-serif" font-size="13" lengthAdjust="spacing" textLength="80.0693" x="355.3" y="365.0669">PlanPruebas</text></g><!--entity KiwiTCMS--><g class="entity" data-entity="KiwiTCMS" data-source-line="23" data-uid="ent0009" id="entity_KiwiTCMS"><rect fill="#FFFFFF" height="35.1328" rx="2.5" ry="2.5" style="stroke:#000000;stroke-width:0.5;" width="82.8672" x="353.8" y="231"/><text fill="#000000" font-family="sans-serif" font-size="13" lengthAdjust="spacing" textLength="62.8672" x="363.8" y="253.0669">KiwiTCMS</text></g><!--entity JMeter--><g class="entity" data-entity="JMeter" data-source-line="24" data-uid="ent0010" id="entity_JMeter"><rect fill="#FFFFFF" height="35.1328" rx="2.5" ry="2.5" style="stroke:#000000;stroke-width:0.5;" width="61.4883" x="626.8" y="762"/><text fill="#000000" font-family="sans-serif" font-size="13" lengthAdjust="spacing" textLength="41.4883" x="636.8" y="784.0669">JMeter</text></g><!--entity Test--><g class="entity" data-entity="Test" data-source-line="25" data-uid="ent0011" id="entity_Test"><rect fill="#FFFFFF" height="35.1328" rx="2.5" ry="2.5" style="stroke:#000000;stroke-width:0.5;" width="47.8091" x="449.3" y="455"/><text fill="#000000" font-family="sans-serif" font-size="13" lengthAdjust="spacing" textLength="27.8091" x="459.3" y="477.0669">Test</text></g><!--entity Manual--><g class="entity" data-entity="Manual" data-source-line="26" data-uid="ent0012" id="entity_Manual"><rect fill="#FFFFFF" height="35.1328" rx="2.5" ry="2.5" style="stroke:#000000;stroke-width:0.5;" width="67.2393" x="431.8" y="632"/><text fill="#000000" font-family="sans-serif" font-size="13" lengthAdjust="spacing" textLength="47.2393" x="441.8" y="654.0669">Manual</text></g><!--entity Automatico--><g class="entity" data-entity="Automatico" data-source-line="27" data-uid="ent0013" id="entity_Automatico"><rect fill="#FFFFFF" height="35.1328" rx="2.5" ry="2.5" style="stroke:#000000;stroke-width:0.5;" width="94.623" x="647.8" y="567"/><text fill="#000000" font-family="sans-serif" font-size="13" lengthAdjust="spacing" textLength="74.623" x="657.8" y="589.0669">Automatico</text></g><!--entity Iteracion--><g class="entity" data-entity="Iteracion" data-source-line="28" data-uid="ent0014" id="entity_Iteracion"><rect fill="#FFFFFF" height="35.1328" rx="2.5" ry="2.5" style="stroke:#000000;stroke-width:0.5;" width="77.1924" x="423.8" y="1051"/><text fill="#000000" font-family="sans-serif" font-size="13" lengthAdjust="spacing" textLength="57.1924" x="433.8" y="1073.0669">Iteracion</text></g><!--entity Docker--><g class="entity" data-entity="Docker" data-source-line="29" data-uid="ent0015" id="entity_Docker"><rect fill="#FFFFFF" height="35.1328" rx="2.5" ry="2.5" style="stroke:#000000;stroke-width:0.5;" width="65.9824" x="833.3" y="827"/><text fill="#000000" font-family="sans-serif" font-size="13" lengthAdjust="spacing" textLength="45.9824" x="843.3" y="849.0669">Docker</text></g><!--entity Jenkins--><g class="entity" data-entity="Jenkins" data-source-line="32" data-uid="ent0016" id="entity_Jenkins"><rect fill="#FFFFFF" height="35.1328" rx="2.5" ry="2.5" style="stroke:#000000;stroke-width:0.5;" width="66.2236" x="771.3" y="455"/><text fill="#000000" font-family="sans-serif" font-size="13" lengthAdjust="spacing" textLength="46.2236" x="781.3" y="477.0669">Jenkins</text></g><!--entity Job--><g class="entity" data-entity="Job" data-source-line="33" data-uid="ent0017" id="entity_Job"><rect fill="#FFFFFF" height="35.1328" rx="2.5" ry="2.5" style="stroke:#000000;stroke-width:0.5;" width="40.0396" x="881.3" y="567"/><text fill="#000000" font-family="sans-serif" font-size="13" lengthAdjust="spacing" textLength="20.0396" x="891.3" y="589.0669">Job</text></g><!--entity ReportePruebas--><g class="entity" data-entity="ReportePruebas" data-source-line="37" data-uid="ent0018" id="entity_ReportePruebas"><rect fill="#FFFFFF" height="35.1328" rx="2.5" ry="2.5" style="stroke:#000000;stroke-width:0.5;" width="71.6763" x="684.3" y="939"/><text fill="#000000" font-family="sans-serif" font-size="13" lengthAdjust="spacing" textLength="51.6763" x="694.3" y="961.0669">Reporte</text></g><!--entity Servidor--><g class="entity" data-entity="Servidor" data-source-line="38" data-uid="ent0019" id="entity_Servidor"><rect fill="#FFFFFF" height="35.1328" rx="2.5" ry="2.5" style="stroke:#000000;stroke-width:0.5;" width="74.4502" x="849.3" y="1051"/><text fill="#000000" font-family="sans-serif" font-size="13" lengthAdjust="spacing" textLength="54.4502" x="859.3" y="1073.0669">Servidor</text></g><!--entity Cypress--><g class="entity" data-entity="Cypress" data-source-line="42" data-uid="ent0020" id="entity_Cypress"><rect fill="#FFFFFF" height="35.1328" rx="2.5" ry="2.5" style="stroke:#000000;stroke-width:0.5;" width="71.9111" x="865.3" y="697"/><text fill="#000000" font-family="sans-serif" font-size="13" lengthAdjust="spacing" textLength="51.9111" x="875.3" y="719.0669">Cypress</text></g><!--link ProjectManager to Cliente--><g class="link" data-entity-1="ProjectManager" data-entity-2="Cliente" data-source-line="47" data-uid="lnk21" id="link_ProjectManager_Cliente"><path d="M111.11,42.06 C113.89,50.83 116.91,61.87 118.3,72 C120.48,87.89 118.58,106.15 116.53,119" fill="none" id="ProjectManager-Cliente" style="stroke:#000000;stroke-width:1.5;"/><text fill="#000000" font-family="sans-serif" font-size="13" lengthAdjust="spacing" textLength="53.5488" x="120.3" y="85.0669">reunirse</text></g><!--link Cliente to ProjectManager--><g class="link" data-entity-1="Cliente" data-entity-2="ProjectManager" data-source-line="48" data-uid="lnk22" id="link_Cliente_ProjectManager"><path d="M80.05,121.36 C66.72,113.84 52.77,103.17 45.3,89 C35.67,70.76 48.1388,57.1867 66.6888,45.4567" fill="none" id="Cliente-to-ProjectManager" style="stroke:#000000;stroke-width:1.5;"/><polygon fill="#000000" points="71.76,42.25,62.0154,43.6793,67.534,44.9223,66.2911,50.4409,71.76,42.25" style="stroke:#000000;stroke-width:1.5;"/><text fill="#000000" font-family="sans-serif" font-size="13" lengthAdjust="spacing" textLength="63.6543" x="46.3" y="85.0669">requisitos</text></g><!--link Cliente to DocumentoDRF--><g class="link" data-entity-1="Cliente" data-entity-2="DocumentoDRF" data-source-line="49" data-uid="lnk23" id="link_Cliente_DocumentoDRF"><path d="M109.65,154.21 C105.12,175 98.7,204.4381 94.18,225.1381" fill="none" id="Cliente-to-DocumentoDRF" style="stroke:#000000;stroke-width:1.5;"/><polygon fill="#000000" points="92.9,231,98.7279,223.0605,93.9667,226.1151,90.9121,221.3539,92.9,231" style="stroke:#000000;stroke-width:1.5;"/><text fill="#000000" font-family="sans-serif" font-size="13" lengthAdjust="spacing" textLength="63.6543" x="104.3" y="197.0669">requisitos</text></g><!--link ProjectManager to DocumentoDDS--><g class="link" data-entity-1="ProjectManager" data-entity-2="DocumentoDDS" data-source-line="50" data-uid="lnk24" id="link_ProjectManager_DocumentoDDS"><path d="M135.79,42.09 C150.3,50.44 167.64,61.09 182.3,72 C201.78,86.5 217.8407,101.2645 231.5507,114.6745" fill="none" id="ProjectManager-to-DocumentoDDS" style="stroke:#000000;stroke-width:1.5;"/><polygon fill="#000000" points="235.84,118.87,232.203,109.7173,232.2656,115.3738,226.6091,115.4364,235.84,118.87" style="stroke:#000000;stroke-width:1.5;"/><text fill="#000000" font-family="sans-serif" font-size="13" lengthAdjust="spacing" textLength="45.7983" x="204.3" y="85.0669">genera</text></g><!--reverse link DocumentoDDS to Casos--><g class="link" data-entity-1="DocumentoDDS" data-entity-2="Casos" data-source-line="51" data-uid="lnk25" id="link_DocumentoDDS_Casos"><path d="M252.3,166.21 C252.3,187 252.3,210.3 252.3,231" fill="none" id="DocumentoDDS-backto-Casos" style="stroke:#000000;stroke-width:1.5;"/><polygon fill="#000000" points="252.3,154.21,248.3,160.21,252.3,166.21,256.3,160.21,252.3,154.21" style="stroke:#000000;stroke-width:1.5;"/></g><!--link DocumentoDDS to DocumentoDRF--><g class="link" data-entity-1="DocumentoDDS" data-entity-2="DocumentoDRF" data-source-line="52" data-uid="lnk26" id="link_DocumentoDDS_DocumentoDRF"><path d="M234.4,154.27 C219.5,167.77 197.4,186.77 176.3,201 C159.83,212.11 140.42,222.7 124.12,230.96" fill="none" id="DocumentoDDS-DocumentoDRF" style="stroke:#000000;stroke-width:1.5;stroke-dasharray:7,7;"/></g><!--link ProjectManager to DocumentoDRF--><g class="link" data-entity-1="ProjectManager" data-entity-2="DocumentoDRF" data-source-line="53" data-uid="lnk27" id="link_ProjectManager_DocumentoDRF"><path d="M73.03,42.15 C60.15,49.94 45.88,60.13 35.3,72 C19.69,89.5 16.78,96.2 11.3,119 C7.66,134.12 6,139.37 11.3,154 C22.68,185.4 45.2479,209.66 64.2879,226.69" fill="none" id="ProjectManager-to-DocumentoDRF" style="stroke:#000000;stroke-width:1.5;"/><polygon fill="#000000" points="68.76,230.69,64.7185,221.7086,65.0332,227.3567,59.3851,227.6714,68.76,230.69" style="stroke:#000000;stroke-width:1.5;"/><text fill="#000000" font-family="sans-serif" font-size="13" lengthAdjust="spacing" textLength="49.0928" x="12.3" y="141.0669">elabora</text></g><!--link IngenieroQA to DocumentoDDS--><g class="link" data-entity-1="IngenieroQA" data-entity-2="DocumentoDDS" data-source-line="55" data-uid="lnk28" id="link_IngenieroQA_DocumentoDDS"><path d="M483.45,32.77 C444.21,39.59 389.22,51.83 344.3,72 C317.21,84.16 294.3085,100.7011 276.5085,115.0711" fill="none" id="IngenieroQA-to-DocumentoDDS" style="stroke:#000000;stroke-width:1.5;"/><polygon fill="#000000" points="271.84,118.84,281.3554,116.299,275.7304,115.6992,276.3302,110.0743,271.84,118.84" style="stroke:#000000;stroke-width:1.5;"/><text fill="#000000" font-family="sans-serif" font-size="13" lengthAdjust="spacing" textLength="44.7319" x="345.3" y="85.0669">revisar</text></g><!--link IngenieroQA to PlanPruebas--><g class="link" data-entity-1="IngenieroQA" data-entity-2="PlanPruebas" data-source-line="56" data-uid="lnk29" id="link_IngenieroQA_PlanPruebas"><path d="M528.42,42.41 C518.61,71.17 498.87,131.59 487.3,184 C474.81,240.59 499.81,264.37 468.3,313 C460.13,325.61 452.3986,332.4643 439.6786,339.7943" fill="none" id="IngenieroQA-to-PlanPruebas" style="stroke:#000000;stroke-width:1.5;"/><polygon fill="#000000" points="434.48,342.79,444.2751,341.7621,438.8122,340.2936,440.2808,334.8307,434.48,342.79" style="stroke:#000000;stroke-width:1.5;"/><text fill="#000000" font-family="sans-serif" font-size="13" lengthAdjust="spacing" textLength="63.7749" x="488.3" y="197.0669">actualizar</text></g><!--link IngenieroQA to Jenkins--><g class="link" data-entity-1="IngenieroQA" data-entity-2="Jenkins" data-source-line="57" data-uid="lnk30" id="link_IngenieroQA_Jenkins"><path d="M584.82,25.17 C660.95,27.61 796.3,44.73 796.3,135.5 C796.3,135.5 796.3,135.5 796.3,361.5 C796.3,394.63 799.2941,427.246 801.6641,448.796" fill="none" id="IngenieroQA-to-Jenkins" style="stroke:#000000;stroke-width:1.5;"/><polygon fill="#000000" points="802.32,454.76,805.3122,445.3767,801.7734,449.79,797.3601,446.2512,802.32,454.76" style="stroke:#000000;stroke-width:1.5;"/><text fill="#000000" font-family="sans-serif" font-size="13" lengthAdjust="spacing" textLength="47.0107" x="797.3" y="253.0669">remoto</text></g><!--link IngenieroQA to Casos--><g class="link" data-entity-1="IngenieroQA" data-entity-2="Casos" data-source-line="58" data-uid="lnk31" id="link_IngenieroQA_Casos"><path d="M507.92,42.09 C494.61,50.69 478.35,61.56 464.3,72 C390.27,126.99 307.37,198.82 271.05,230.84" fill="none" id="IngenieroQA-Casos" style="stroke:#000000;stroke-width:1.5;stroke-dasharray:7,7;"/></g><!--reverse link KiwiTCMS to PlanPruebas--><g class="link" data-entity-1="KiwiTCMS" data-entity-2="PlanPruebas" data-source-line="59" data-uid="lnk32" id="link_KiwiTCMS_PlanPruebas"><path d="M395.3,278.21 C395.3,299 395.3,322.3 395.3,343" fill="none" id="KiwiTCMS-backto-PlanPruebas" style="stroke:#000000;stroke-width:1.5;"/><polygon fill="#000000" points="395.3,266.21,391.3,272.21,395.3,278.21,399.3,272.21,395.3,266.21" style="stroke:#000000;stroke-width:1.5;"/><text fill="#000000" font-family="sans-serif" font-size="13" lengthAdjust="spacing" textLength="64.873" x="396.3" y="309.0669">detalla en</text></g><!--link PlanPruebas to Test--><g class="link" data-entity-1="PlanPruebas" data-entity-2="Test" data-source-line="60" data-uid="lnk33" id="link_PlanPruebas_Test"><path d="M407.15,378.21 C421.89,399 443.4491,429.4058 458.1291,450.1058" fill="none" id="PlanPruebas-to-Test" style="stroke:#000000;stroke-width:1.5;"/><polygon fill="#000000" points="461.6,455,459.6565,445.3448,458.7076,450.9215,453.1309,449.9726,461.6,455" style="stroke:#000000;stroke-width:1.5;"/><text fill="#000000" font-family="sans-serif" font-size="13" lengthAdjust="spacing" textLength="65.0825" x="439.3" y="421.0669">especifica</text></g><!--link IngenieroQA to Test--><g class="link" data-entity-1="IngenieroQA" data-entity-2="Test" data-source-line="61" data-uid="lnk34" id="link_IngenieroQA_Test"><path d="M580.47,42.09 C618.53,59.09 666.3,89.56 666.3,135.5 C666.3,135.5 666.3,135.5 666.3,361.5 C666.3,399.97 554.7524,443.2959 503.0124,461.4259" fill="none" id="IngenieroQA-to-Test" style="stroke:#000000;stroke-width:1.5;"/><polygon fill="#000000" points="497.35,463.41,507.1664,464.2087,502.0687,461.7565,504.5209,456.6588,497.35,463.41" style="stroke:#000000;stroke-width:1.5;"/><text fill="#000000" font-family="sans-serif" font-size="13" lengthAdjust="spacing" textLength="43.3228" x="667.3" y="253.0669">realiza</text></g><!--link Test to Manual--><g class="link" data-entity-1="Test" data-entity-2="Manual" data-source-line="62" data-uid="lnk35" id="link_Test_Manual"><path d="M472.53,490.28 C471,523.73 467.8645,592.3663 466.3345,625.7763" fill="none" id="Test-to-Manual" style="stroke:#000000;stroke-width:1.5;"/><polygon fill="#000000" points="466.06,631.77,470.4675,622.9624,466.2887,626.7752,462.4759,622.5964,466.06,631.77" style="stroke:#000000;stroke-width:1.5;"/></g><!--link Test to Automatico--><g class="link" data-entity-1="Test" data-entity-2="Automatico" data-source-line="63" data-uid="lnk36" id="link_Test_Automatico"><path d="M497.48,485.48 C537.26,505.19 611.224,541.8358 656.404,564.2258" fill="none" id="Test-to-Automatico" style="stroke:#000000;stroke-width:1.5;"/><polygon fill="#000000" points="661.78,566.89,655.4921,559.3096,657.3,564.6698,651.9398,566.4777,661.78,566.89" style="stroke:#000000;stroke-width:1.5;"/></g><!--link Automatico to Cypress--><g class="link" data-entity-1="Automatico" data-entity-2="Cypress" data-source-line="64" data-uid="lnk37" id="link_Automatico_Cypress"><path d="M722.23,602.23 C761.82,626.83 830.1832,669.3141 869.5932,693.7941" fill="none" id="Automatico-to-Cypress" style="stroke:#000000;stroke-width:1.5;"/><polygon fill="#000000" points="874.69,696.96,869.1555,688.8133,870.4427,694.3217,864.9342,695.609,874.69,696.96" style="stroke:#000000;stroke-width:1.5;"/><text fill="#000000" font-family="sans-serif" font-size="13" lengthAdjust="spacing" textLength="24.2671" x="823.3" y="654.0669">e2e</text></g><!--link Automatico to JMeter--><g class="link" data-entity-1="Automatico" data-entity-2="JMeter" data-source-line="65" data-uid="lnk38" id="link_Automatico_JMeter"><path d="M691.12,602.24 C688.98,611.07 686.38,622.1 684.3,632 C674.45,678.82 665.7443,728.5647 661.1143,755.8347" fill="none" id="Automatico-to-JMeter" style="stroke:#000000;stroke-width:1.5;"/><polygon fill="#000000" points="660.11,761.75,665.5601,753.5465,660.9469,756.8205,657.6729,752.2074,660.11,761.75" style="stroke:#000000;stroke-width:1.5;"/><text fill="#000000" font-family="sans-serif" font-size="13" lengthAdjust="spacing" textLength="79.0093" x="685.3" y="654.0669">rendimiento</text></g><!--link JMeter to ReportePruebas--><g class="link" data-entity-1="JMeter" data-entity-2="ReportePruebas" data-source-line="66" data-uid="lnk39" id="link_JMeter_ReportePruebas"><path d="M663.34,797.28 C675.38,830.73 700.2173,899.7148 712.2473,933.1248" fill="none" id="JMeter-to-ReportePruebas" style="stroke:#000000;stroke-width:1.5;"/><polygon fill="#000000" points="714.28,938.77,714.9944,928.9471,712.5861,934.0657,707.4675,931.6573,714.28,938.77" style="stroke:#000000;stroke-width:1.5;"/><text fill="#000000" font-family="sans-serif" font-size="13" lengthAdjust="spacing" textLength="53.187" x="686.3" y="849.0669">produce</text></g><!--link PlanPruebas to Iteracion--><g class="link" data-entity-1="PlanPruebas" data-entity-2="Iteracion" data-source-line="67" data-uid="lnk40" id="link_PlanPruebas_Iteracion"><path d="M386.97,378.18 C377.2,399.34 362.3,437.21 362.3,471.5 C362.3,471.5 362.3,471.5 362.3,957.5 C362.3,999.44 397.5118,1029.2644 426.9418,1047.7844" fill="none" id="PlanPruebas-to-Iteracion" style="stroke:#000000;stroke-width:1.5;"/><polygon fill="#000000" points="432.02,1050.98,426.5332,1042.8011,427.7882,1048.317,422.2723,1049.572,432.02,1050.98" style="stroke:#000000;stroke-width:1.5;"/><text fill="#000000" font-family="sans-serif" font-size="13" lengthAdjust="spacing" textLength="45.7983" x="363.3" y="719.0669">genera</text></g><!--link Manual to Iteracion--><g class="link" data-entity-1="Manual" data-entity-2="Iteracion" data-source-line="68" data-uid="lnk41" id="link_Manual_Iteracion"><path d="M464.66,667.07 C463.78,691.46 462.3,738.49 462.3,778.5 C462.3,778.5 462.3,778.5 462.3,957.5 C462.3,990.54 462.3,1023.16 462.3,1044.73" fill="none" id="Manual-to-Iteracion" style="stroke:#000000;stroke-width:1.5;"/><polygon fill="#000000" points="462.3,1050.73,466.3,1041.73,462.3,1045.73,458.3,1041.73,462.3,1050.73" style="stroke:#000000;stroke-width:1.5;"/><text fill="#000000" font-family="sans-serif" font-size="13" lengthAdjust="spacing" textLength="61.2358" x="463.3" y="849.0669">resultado</text></g><!--link Casos to PlanPruebas--><g class="link" data-entity-1="Casos" data-entity-2="PlanPruebas" data-source-line="69" data-uid="lnk42" id="link_Casos_PlanPruebas"><path d="M274.02,266.21 C301.05,287 346.93,322.3 373.84,343" fill="none" id="Casos-PlanPruebas" style="stroke:#000000;stroke-width:1.5;stroke-dasharray:7,7;"/></g><!--link Jenkins to Automatico--><g class="link" data-entity-1="Jenkins" data-entity-2="Automatico" data-source-line="72" data-uid="lnk43" id="link_Jenkins_Automatico"><path d="M787.74,490.21 C767.14,511 732.16,546.3 711.65,567" fill="none" id="Jenkins-Automatico" style="stroke:#000000;stroke-width:1.5;"/></g><!--link Jenkins to Job--><g class="link" data-entity-1="Jenkins" data-entity-2="Job" data-source-line="73" data-uid="lnk44" id="link_Jenkins_Job"><path d="M826.9685,499.2089 C845.3085,519.9989 864.5208,541.8005 882.7808,562.5005" fill="none" id="Jenkins-Job" style="stroke:#000000;stroke-width:1.5;"/><polygon fill="#000000" points="819.03,490.21,819.9996,497.3556,826.9685,499.2089,825.9989,492.0633,819.03,490.21" style="stroke:#000000;stroke-width:1.5;"/><polygon fill="#000000" points="886.75,567,883.796,557.6046,883.4424,563.2504,877.7966,562.8968,886.75,567" style="stroke:#000000;stroke-width:1.5;"/><text fill="#000000" font-family="sans-serif" font-size="13" lengthAdjust="spacing" textLength="48.0581" x="859.3" y="533.0669">ejecuta</text></g><!--link Job to Cypress--><g class="link" data-entity-1="Job" data-entity-2="Cypress" data-source-line="74" data-uid="lnk45" id="link_Job_Cypress"><path d="M901.3,602.23 C901.3,626.76 901.3,666.23 901.3,690.76" fill="none" id="Job-to-Cypress" style="stroke:#000000;stroke-width:1.5;"/><polygon fill="#000000" points="901.3,696.76,905.3,687.76,901.3,691.76,897.3,687.76,901.3,696.76" style="stroke:#000000;stroke-width:1.5;"/><text fill="#000000" font-family="sans-serif" font-size="13" lengthAdjust="spacing" textLength="49.1499" x="902.3" y="654.0669">obtiene</text></g><!--link Cypress to Docker--><g class="link" data-entity-1="Cypress" data-entity-2="Docker" data-source-line="75" data-uid="lnk46" id="link_Cypress_Docker"><path d="M891.45,732.19 C886.78,740.82 881.52,751.68 878.3,762 C871.48,783.84 868.9447,804.2373 867.6747,820.9473" fill="none" id="Cypress-to-Docker" style="stroke:#000000;stroke-width:1.5;"/><polygon fill="#000000" points="867.22,826.93,871.8906,818.259,867.5989,821.9444,863.9136,817.6527,867.22,826.93" style="stroke:#000000;stroke-width:1.5;"/><text fill="#000000" font-family="sans-serif" font-size="13" lengthAdjust="spacing" textLength="84.6333" x="879.3" y="784.0669">ejecutado en</text></g><!--link Docker to ReportePruebas--><g class="link" data-entity-1="Docker" data-entity-2="ReportePruebas" data-source-line="76" data-uid="lnk47" id="link_Docker_ReportePruebas"><path d="M851.26,862.03 C838.47,875.56 819.21,894.73 800.3,909 C785.55,920.13 773.17,927.7533 758.21,935.9633" fill="none" id="Docker-to-ReportePruebas" style="stroke:#000000;stroke-width:1.5;"/><polygon fill="#000000" points="752.95,938.85,762.7644,938.0267,757.3333,936.4445,758.9155,931.0134,752.95,938.85" style="stroke:#000000;stroke-width:1.5;"/><text fill="#000000" font-family="sans-serif" font-size="13" lengthAdjust="spacing" textLength="53.187" x="820.3" y="905.0669">produce</text></g><!--link Job to Servidor--><g class="link" data-entity-1="Job" data-entity-2="Servidor" data-source-line="78" data-uid="lnk48" id="link_Job_Servidor"><path d="M921.45,597.3 C934.11,605.6 949.95,617.75 960.3,632 C982.98,663.23 990.3,674.9 990.3,713.5 C990.3,713.5 990.3,713.5 990.3,957.5 C990.3,999.94 954.0547,1029.5225 923.4947,1047.8625" fill="none" id="Job-to-Servidor" style="stroke:#000000;stroke-width:1.5;"/><polygon fill="#000000" points="918.35,1050.95,928.1253,1049.7486,922.6372,1048.3771,924.0087,1042.889,918.35,1050.95" style="stroke:#000000;stroke-width:1.5;"/><text fill="#000000" font-family="sans-serif" font-size="13" lengthAdjust="spacing" textLength="26.2793" x="991.3" y="849.0669">SSH</text></g><!--link ReportePruebas to Servidor--><g class="link" data-entity-1="ReportePruebas" data-entity-2="Servidor" data-source-line="79" data-uid="lnk49" id="link_ReportePruebas_Servidor"><path d="M745.51,974.21 C776.89,995 825.1588,1026.9851 856.3888,1047.6851" fill="none" id="ReportePruebas-to-Servidor" style="stroke:#000000;stroke-width:1.5;"/><polygon fill="#000000" points="861.39,1051,856.0982,1042.6936,857.2224,1048.2376,851.6783,1049.3618,861.39,1051" style="stroke:#000000;stroke-width:1.5;"/><text fill="#000000" font-family="sans-serif" font-size="13" lengthAdjust="spacing" textLength="18.6875" x="813.3" y="1017.0669">zip</text></g><!--link Jenkins to ReportePruebas--><g class="link" data-entity-1="Jenkins" data-entity-2="ReportePruebas" data-source-line="80" data-uid="lnk50" id="link_Jenkins_ReportePruebas"><path d="M803.88,490.15 C802.86,523.74 799.61,601.98 790.3,667 C777.74,754.76 770.37,776.14 748.3,862 C741.34,889.08 733.5482,914.3753 727.5882,933.0053" fill="none" id="Jenkins-to-ReportePruebas" style="stroke:#000000;stroke-width:1.5;"/><polygon fill="#000000" points="725.76,938.72,732.3121,931.3668,727.2835,933.9578,724.6925,928.9292,725.76,938.72" style="stroke:#000000;stroke-width:1.5;"/><text fill="#000000" font-family="sans-serif" font-size="13" lengthAdjust="spacing" textLength="54.082" x="786.3" y="719.0669">muestra</text></g><!--link ReportePruebas to Iteracion--><g class="link" data-entity-1="ReportePruebas" data-entity-2="Iteracion" data-source-line="81" data-uid="lnk51" id="link_ReportePruebas_Iteracion"><path d="M684.15,972.91 C635.89,993.49 556.2692,1027.4366 506.6692,1048.5866" fill="none" id="ReportePruebas-to-Iteracion" style="stroke:#000000;stroke-width:1.5;"/><polygon fill="#000000" points="501.15,1050.94,510.9977,1051.0893,505.7493,1048.9788,507.8598,1043.7304,501.15,1050.94" style="stroke:#000000;stroke-width:1.5;"/><text fill="#000000" font-family="sans-serif" font-size="13" lengthAdjust="spacing" textLength="62.5181" x="607.3" y="1017.0669">evidencia</text></g><!--link IngenieroQA to ReportePruebas--><g class="link" data-entity-1="IngenieroQA" data-entity-2="ReportePruebas" data-source-line="84" data-uid="lnk52" id="link_IngenieroQA_ReportePruebas"><path d="M545.63,42.2 C558.67,63.06 578.3,100.33 578.3,135.5 C578.3,135.5 578.3,135.5 578.3,845.5 C578.3,898.98 636.3688,928.1824 678.4388,942.9524" fill="none" id="IngenieroQA-to-ReportePruebas" style="stroke:#000000;stroke-width:1.5;"/><polygon fill="#000000" points="684.1,944.94,676.9332,938.1845,679.3823,943.2837,674.2831,945.7328,684.1,944.94" style="stroke:#000000;stroke-width:1.5;"/><text fill="#000000" font-family="sans-serif" font-size="13" lengthAdjust="spacing" textLength="60.3726" x="579.3" y="477.0669">consultar</text></g><!--SRC=[VLLDKjim5Dxx51gww0mpeGNA9ZDbnZWE3IM9iPr5krDi4KGSoPLi6EZq53rAZy35-YJPYUGuU2Mzz-dzVE_7SarPYGNU846o2hDLGT1l3w4hdArNWjSi3tZ11Vemrf_IS94JqKW_wm-aOyugL_R7arlR9LZ3Av9KBs1-wyW2o0USysVALkWU5zBMO27uiskveqmVQBPcH4fqUd9XANDoZ-kYKf4bz9MWqtFF-uY-xZvq7I-YEJeTekimIITlVsTeD0yMqt2M-hSs4FBRiNCK2Vu8jobca98uGbWYL-J2HpohDuHLV3HADDWM78B6umuq7hlG04ik5v9_YaHDbbYZjQm3AoWy9qPjpbu_2sSs2o6AuaLuvIU7MPYm5M6K27xdQ-lMlKDNWPa9KXgkTdSN-9q-qpIO6fBQYmkvcPAgeTmSNNLAPAMLwk2ge3GrBhJI75srNrTyWokQSGtPNJj9WqkSKSvCokrjhuhh9aXpx2VyV8Z2cp1O19foVv7Eftuw-UcF_CEatn06xMruRCuT05yQ9LyUgFEN8Oh3Q1wdOO9-GAMJw7OINY_2mqvZKdBHz51pxgrVGiGJpRd9lBtq1t4nr2LoV7OQzwKKCDAcSSsvQoeER_rWCfz18b4ycGMJoByDtOw55uF108sB-f73Fa1vCqzGjRT_JEayTtH1rCu96a8yDQC2rb4h6WmkExEkGBzgAca5esV3xD553chFuwMp4W0CamITvJdIOnMP7d17V7BYBebtZUj8I86N7ApRrDpvw0MLC9ZqdcOMETPGzyKfo1ELMEp1h157GvnLC6xqjGVNjB2sjE4LTm2GcSuNUUqkq1mujg6c5IuAZ0ZpR8KohXeCifKboNHMUzvr1ohNEZfFNvMysG_RkxKCTaUjQHfJaNf6kagpeBG3bjEDwWpkDKAbTqS9SANWUPsHlKIsQsRR62R2hX92WTyT_4SzmniGQE_QxYmGw9DwL-gs5W2n4cwbnpeZlbIfgdSLzjJD9O4lAyWIfgMHD1sprYmqptAkQjL8twMX4svPBmkdDrl_xQQ1fqdopUlOwo1UQMbbskDzKqFPWU8UCnRLqFSvOHd5BQinJ9LI4QbYbLm_xXqXr_0GPPpfied_]--></g></svg>