<svg xmlns="http://www.w3.org/2000/svg" xmlns:xlink="http://www.w3.org/1999/xlink" contentStyleType="text/css" data-diagram-type="STATE" height="726px" preserveAspectRatio="none" style="width:474px;height:726px;background:#FFFFFF;" version="1.1" viewBox="0 0 474 726" width="474px" zoomAndPan="magnify"><defs/><g><path d="M59,7 L357,7 A12.5,12.5 0 0 1 369.5,19.5 L369.5,33.2969 L46.5,33.2969 L46.5,19.5 A12.5,12.5 0 0 1 59,7" fill="#F1F1F1"/><rect fill="none" height="568.2969" rx="12.5" ry="12.5" style="stroke:#181818;stroke-width:0.5;" width="323" x="46.5" y="7"/><line style="stroke:#181818;stroke-width:0.5;" x1="46.5" x2="369.5" y1="33.2969" y2="33.2969"/><text fill="#000000" font-family="sans-serif" font-size="14" lengthAdjust="spacing" textLength="129.6299" x="143.1851" y="24.9951">extraerCasosUso()</text><g id="extraerCasosUso.ProcesandoDocumentacion"><rect fill="#F1F1F1" height="50" rx="12.5" ry="12.5" style="stroke:#181818;stroke-width:0.5;" width="50" x="58.5" y="135.2969"/><line style="stroke:#181818;stroke-width:0.5;" x1="58.5" x2="108.5" y1="161.5938" y2="161.5938"/><text fill="#000000" font-family="sans-serif" font-size="14" lengthAdjust="spacing" textLength="4.4502" x="81.2749" y="153.292">&#160;</text></g><g id="extraerCasosUso.IdentificandoCasosUso"><rect fill="#F1F1F1" height="50" rx="12.5" ry="12.5" style="stroke:#181818;stroke-width:0.5;" width="50" x="58.5" y="271.2969"/><line style="stroke:#181818;stroke-width:0.5;" x1="58.5" x2="108.5" y1="297.5938" y2="297.5938"/><text fill="#000000" font-family="sans-serif" font-size="14" lengthAdjust="spacing" textLength="4.4502" x="81.2749" y="289.292">&#160;</text></g><g id="extraerCasosUso.RegistrandoCasosUso"><rect fill="#F1F1F1" height="50" rx="12.5" ry="12.5" style="stroke:#181818;stroke-width:0.5;" width="50" x="58.5" y="407.2969"/><line style="stroke:#181818;stroke-width:0.5;" x1="58.5" x2="108.5" y1="433.5938" y2="433.5938"/><text fill="#000000" font-family="sans-serif" font-size="14" lengthAdjust="spacing" textLength="4.4502" x="81.2749" y="425.292">&#160;</text></g><ellipse cx="83.5" cy="54.2969" fill="#222222" rx="10" ry="10" style="stroke:#222222;stroke-width:1;"/><ellipse cx="83.5" cy="554.2969" fill="none" rx="11" ry="11" style="stroke:#222222;stroke-width:1;"/><ellipse cx="83.5" cy="554.2969" fill="#222222" rx="6" ry="6" style="stroke:#222222;stroke-width:1;"/><!--link *start*extraerCasosUso to ProcesandoDocumentacion--><g class="link" data-entity-1=".start.extraerCasosUso" data-entity-2="ProcesandoDocumentacion" data-source-line="9" data-uid="lnk3" id="link_.start.extraerCasosUso_ProcesandoDocumentacion"><path d="M83.5,64.5269 C83.5,80.2369 83.5,106.6569 83.5,129.1669" fill="none" id="*start*extraerCasosUso-to-ProcesandoDocumentacion" style="stroke:#008000;stroke-width:1;"/><polygon fill="#008000" points="83.5,135.1669,87.5,126.1669,83.5,130.1669,79.5,126.1669,83.5,135.1669" style="stroke:#008000;stroke-width:1;"/><path d="M88.5,87.2969 L88.5,112.2969 L360.5,112.2969 L360.5,97.2969 L350.5,87.2969 L88.5,87.2969" fill="#FEFFDD" style="stroke:#181818;stroke-width:0.5;"/><path d="M350.5,87.2969 L350.5,97.2969 L360.5,97.2969 L350.5,87.2969" fill="#FEFFDD" style="stroke:#181818;stroke-width:0.5;"/><text fill="#000000" font-family="sans-serif" font-size="13" lengthAdjust="spacing" textLength="251.2212" x="94.5" y="104.3638">Se inicia la extraccion de casos de uso</text></g><!--link ProcesandoDocumentacion to IdentificandoCasosUso--><g class="link" data-entity-1="ProcesandoDocumentacion" data-entity-2="IdentificandoCasosUso" data-source-line="14" data-uid="lnk4" id="link_ProcesandoDocumentacion_IdentificandoCasosUso"><path d="M83.5,185.5669 C83.5,209.8469 83.5,240.9869 83.5,265.2069" fill="none" id="ProcesandoDocumentacion-to-IdentificandoCasosUso" style="stroke:#008000;stroke-width:1;"/><polygon fill="#008000" points="83.5,271.2069,87.5,262.2069,83.5,266.2069,79.5,262.2069,83.5,271.2069" style="stroke:#008000;stroke-width:1;"/><path d="M88.5,208.2969 L88.5,248.2969 L343.5,248.2969 L343.5,218.2969 L333.5,208.2969 L88.5,208.2969" fill="#FEFFDD" style="stroke:#181818;stroke-width:0.5;"/><path d="M333.5,208.2969 L333.5,218.2969 L343.5,218.2969 L333.5,208.2969" fill="#FEFFDD" style="stroke:#181818;stroke-width:0.5;"/><text fill="#000000" font-family="sans-serif" font-size="13" font-weight="bold" lengthAdjust="spacing" textLength="58.9063" x="94.5" y="225.3638">Sistema</text><text fill="#000000" font-family="sans-serif" font-size="13" lengthAdjust="spacing" textLength="171.7866" x="157.5386" y="225.3638">procesa la documentacion</text><text fill="#000000" font-family="sans-serif" font-size="13" lengthAdjust="spacing" textLength="182.9395" x="94.5" y="240.4966">e identifica los casos de uso</text></g><!--link IdentificandoCasosUso to RegistrandoCasosUso--><g class="link" data-entity-1="IdentificandoCasosUso" data-entity-2="RegistrandoCasosUso" data-source-line="20" data-uid="lnk5" id="link_IdentificandoCasosUso_RegistrandoCasosUso"><path d="M83.5,321.5669 C83.5,345.8469 83.5,376.9869 83.5,401.2069" fill="none" id="IdentificandoCasosUso-to-RegistrandoCasosUso" style="stroke:#008000;stroke-width:1;"/><polygon fill="#008000" points="83.5,407.2069,87.5,398.2069,83.5,402.2069,79.5,398.2069,83.5,407.2069" style="stroke:#008000;stroke-width:1;"/><path d="M88.5,344.2969 L88.5,384.2969 L312.5,384.2969 L312.5,354.2969 L302.5,344.2969 L88.5,344.2969" fill="#FEFFDD" style="stroke:#181818;stroke-width:0.5;"/><path d="M302.5,344.2969 L302.5,354.2969 L312.5,354.2969 L302.5,344.2969" fill="#FEFFDD" style="stroke:#181818;stroke-width:0.5;"/><text fill="#000000" font-family="sans-serif" font-size="13" font-weight="bold" lengthAdjust="spacing" textLength="58.9063" x="94.5" y="361.3638">Sistema</text><text fill="#000000" font-family="sans-serif" font-size="13" lengthAdjust="spacing" textLength="121.3735" x="157.5386" y="361.3638">prepara el registro</text><text fill="#000000" font-family="sans-serif" font-size="13" lengthAdjust="spacing" textLength="203.6138" x="94.5" y="376.4966">de los casos de uso detectados</text></g><!--link RegistrandoCasosUso to *end*extraerCasosUso--><g class="link" data-entity-1="RegistrandoCasosUso" data-entity-2=".end.extraerCasosUso" data-source-line="26" data-uid="lnk7" id="link_RegistrandoCasosUso_.end.extraerCasosUso"><path d="M83.5,457.5769 C83.5,483.8769 83.5,518.5669 83.5,537.2769" fill="none" id="RegistrandoCasosUso-to-*end*extraerCasosUso" style="stroke:#008000;stroke-width:1;"/><polygon fill="#008000" points="83.5,543.2769,87.5,534.2769,83.5,538.2769,79.5,534.2769,83.5,543.2769" style="stroke:#008000;stroke-width:1;"/><path d="M88.5,480.2969 L88.5,520.2969 L328.5,520.2969 L328.5,490.2969 L318.5,480.2969 L88.5,480.2969" fill="#FEFFDD" style="stroke:#181818;stroke-width:0.5;"/><path d="M318.5,480.2969 L318.5,490.2969 L328.5,490.2969 L318.5,480.2969" fill="#FEFFDD" style="stroke:#181818;stroke-width:0.5;"/><text fill="#000000" font-family="sans-serif" font-size="13" font-weight="bold" lengthAdjust="spacing" textLength="58.9063" x="94.5" y="497.3638">Sistema</text><text fill="#000000" font-family="sans-serif" font-size="13" lengthAdjust="spacing" textLength="156.7173" x="157.5386" y="497.3638">guarda los casos de uso</text><text fill="#000000" font-family="sans-serif" font-size="13" lengthAdjust="spacing" textLength="121.418" x="94.5" y="512.4966">en el sistema local</text></g><g id="CASOS_USO_ABIERTO"><rect fill="#F1F1F1" height="50" rx="12.5" ry="12.5" style="stroke:#181818;stroke-width:0.5;" width="173.7539" x="7" y="670"/><line style="stroke:#181818;stroke-width:0.5;" x1="7" x2="180.7539" y1="696.2969" y2="696.2969"/><text fill="#000000" font-family="sans-serif" font-size="14" lengthAdjust="spacing" textLength="153.7539" x="17" y="687.9951">CASOS_USO_ABIERTO</text></g><g id="DOCUMENTACION_ABIERTA"><rect fill="#F1F1F1" height="50" rx="12.5" ry="12.5" style="stroke:#181818;stroke-width:0.5;" width="213.7578" x="216" y="670"/><line style="stroke:#181818;stroke-width:0.5;" x1="216" x2="429.7578" y1="696.2969" y2="696.2969"/><text fill="#000000" font-family="sans-serif" font-size="14" lengthAdjust="spacing" textLength="193.7578" x="226" y="687.9951">DOCUMENTACION_ABIERTA</text></g><!--link extraerCasosUso to CASOS_USO_ABIERTO--><g class="link" data-entity-1="extraerCasosUso" data-entity-2="CASOS_USO_ABIERTO" data-source-line="33" data-uid="lnk9" id="link_extraerCasosUso_CASOS_USO_ABIERTO"><path d="M114.78,575.27 C108.74,593.65 105,605 105,605 C105,605 100.9945,637.3751 97.7445,663.7251" fill="none" id="extraerCasosUso-to-CASOS_USO_ABIERTO" style="stroke:#008000;stroke-width:1;"/><polygon fill="#008000" points="97.01,669.68,102.0816,661.2373,97.6221,664.7176,94.1418,660.258,97.01,669.68" style="stroke:#008000;stroke-width:1;"/><path d="M110,610 L110,635 L275,635 L275,620 L265,610 L110,610" fill="#FEFFDD" style="stroke:#181818;stroke-width:0.5;"/><path d="M265,610 L265,620 L275,620 L265,610" fill="#FEFFDD" style="stroke:#181818;stroke-width:0.5;"/><text fill="#000000" font-family="sans-serif" font-size="13" lengthAdjust="spacing" textLength="144.5933" x="116" y="627.0669">completarExtraccion()</text></g><!--link extraerCasosUso to DOCUMENTACION_ABIERTA--><g class="link" data-entity-1="extraerCasosUso" data-entity-2="DOCUMENTACION_ABIERTA" data-source-line="38" data-uid="lnk11" id="link_extraerCasosUso_DOCUMENTACION_ABIERTA"><path d="M288.96,575.02 C300.16,614.15 308.271,642.5011 314.431,664.0511" fill="none" id="extraerCasosUso-to-DOCUMENTACION_ABIERTA" style="stroke:#FF0000;stroke-width:1;"/><polygon fill="#FF0000" points="316.08,669.82,317.4524,660.0672,314.7058,665.0125,309.7605,662.2659,316.08,669.82" style="stroke:#FF0000;stroke-width:1;"/><path d="M311,610 L311,635 L467,635 L467,620 L457,610 L311,610" fill="#FEFFDD" style="stroke:#181818;stroke-width:0.5;"/><path d="M457,610 L457,620 L467,620 L457,610" fill="#FEFFDD" style="stroke:#181818;stroke-width:0.5;"/><text fill="#000000" font-family="sans-serif" font-size="13" lengthAdjust="spacing" textLength="135.3892" x="317" y="627.0669">rechazarExtraccion()</text></g><!--SRC=[ZP91Ri8m44NtFiM8Rg0IwWKGKXfOi2Yf2AmGGeCzfHQ97Tb6Agrwzzg4Ka8IIho8xNp_UTyPkvEgG8CvP5AHEnG4XSuEOS6OTUW8wCCP91EZrNPXDQ25pjLUjzU1ByR0F-MPZXzUzseq9ujAw97c-voKGowrgWidmd-JRv87xQzhNJQZhRI-ygNeg5e-hg2_VDWQ8hNg3syMLjeRQXK2xuuRAO5Kaak43CkqF8X14F1G9Kps9nnIucXGbcqfKq5fZrO36Mo6gSz7EGwUDaCeIlT09MefFFFP638F-Gzg8qO5jEboxyEaq4506PZIeZpdKQwv_CiHToYqRK1i0AW0-fzy5z1sZqQqNahWjANQIpXcLP9lnguR_f8XZj8aNI_IP1qzJyQpUS8gD5pdHKOEpVZSHjqU-ulPO6r81EDH4YzUnjDv54-IwSaygfeRuk_usUBz0m00]--></g></svg>