<svg xmlns="http://www.w3.org/2000/svg" xmlns:xlink="http://www.w3.org/1999/xlink" contentStyleType="text/css" data-diagram-type="STATE" height="726px" preserveAspectRatio="none" style="width:508px;height:726px;background:#FFFFFF;" version="1.1" viewBox="0 0 508 726" width="508px" zoomAndPan="magnify"><defs/><g><path d="M48,7 L405,7 A12.5,12.5 0 0 1 417.5,19.5 L417.5,33.2969 L35.5,33.2969 L35.5,19.5 A12.5,12.5 0 0 1 48,7" fill="#F1F1F1"/><rect fill="none" height="568.2969" rx="12.5" ry="12.5" style="stroke:#181818;stroke-width:0.5;" width="382" x="35.5" y="7"/><line style="stroke:#181818;stroke-width:0.5;" x1="35.5" x2="417.5" y1="33.2969" y2="33.2969"/><text fill="#000000" font-family="sans-serif" font-size="14" lengthAdjust="spacing" textLength="192.1582" x="130.4209" y="24.9951">crearBorradorCasoPrueba()</text><g id="crearBorradorCasoPrueba.RecuperandoEscenarios"><rect fill="#F1F1F1" height="50" rx="12.5" ry="12.5" style="stroke:#181818;stroke-width:0.5;" width="50" x="47.5" y="135.2969"/><line style="stroke:#181818;stroke-width:0.5;" x1="47.5" x2="97.5" y1="161.5938" y2="161.5938"/><text fill="#000000" font-family="sans-serif" font-size="14" lengthAdjust="spacing" textLength="4.4502" x="70.2749" y="153.292">&#160;</text></g><g id="crearBorradorCasoPrueba.GenerandoBorrador"><rect fill="#F1F1F1" height="50" rx="12.5" ry="12.5" style="stroke:#181818;stroke-width:0.5;" width="50" x="47.5" y="271.2969"/><line style="stroke:#181818;stroke-width:0.5;" x1="47.5" x2="97.5" y1="297.5938" y2="297.5938"/><text fill="#000000" font-family="sans-serif" font-size="14" lengthAdjust="spacing" textLength="4.4502" x="70.2749" y="289.292">&#160;</text></g><g id="crearBorradorCasoPrueba.RegistrandoBorrador"><rect fill="#F1F1F1" height="50" rx="12.5" ry="12.5" style="stroke:#181818;stroke-width:0.5;" width="50" x="47.5" y="407.2969"/><line style="stroke:#181818;stroke-width:0.5;" x1="47.5" x2="97.5" y1="433.5938" y2="433.5938"/><text fill="#000000" font-family="sans-serif" font-size="14" lengthAdjust="spacing" textLength="4.4502" x="70.2749" y="425.292">&#160;</text></g><ellipse cx="72.5" cy="54.2969" fill="#222222" rx="10" ry="10" style="stroke:#222222;stroke-width:1;"/><ellipse cx="72.5" cy="554.2969" fill="none" rx="11" ry="11" style="stroke:#222222;stroke-width:1;"/><ellipse cx="72.5" cy="554.2969" fill="#222222" rx="6" ry="6" style="stroke:#222222;stroke-width:1;"/><!--link *start*crearBorradorCasoPrueba to RecuperandoEscenarios--><g class="link" data-entity-1=".start.crearBorradorCasoPrueba" data-entity-2="RecuperandoEscenarios" data-source-line="9" data-uid="lnk3" id="link_.start.crearBorradorCasoPrueba_RecuperandoEscenarios"><path d="M72.5,64.5269 C72.5,80.2369 72.5,106.6569 72.5,129.1669" fill="none" id="*start*crearBorradorCasoPrueba-to-RecuperandoEscenarios" style="stroke:#008000;stroke-width:1;"/><polygon fill="#008000" points="72.5,135.1669,76.5,126.1669,72.5,130.1669,68.5,126.1669,72.5,135.1669" style="stroke:#008000;stroke-width:1;"/><path d="M77.5,87.2969 L77.5,112.2969 L408.5,112.2969 L408.5,97.2969 L398.5,87.2969 L77.5,87.2969" fill="#FEFFDD" style="stroke:#181818;stroke-width:0.5;"/><path d="M398.5,87.2969 L398.5,97.2969 L408.5,97.2969 L398.5,87.2969" fill="#FEFFDD" style="stroke:#181818;stroke-width:0.5;"/><text fill="#000000" font-family="sans-serif" font-size="13" lengthAdjust="spacing" textLength="310.1655" x="83.5" y="104.3638">Se solicita crear un borrador de caso de prueba</text></g><!--link RecuperandoEscenarios to GenerandoBorrador--><g class="link" data-entity-1="RecuperandoEscenarios" data-entity-2="GenerandoBorrador" data-source-line="14" data-uid="lnk4" id="link_RecuperandoEscenarios_GenerandoBorrador"><path d="M72.5,185.5669 C72.5,209.8469 72.5,240.9869 72.5,265.2069" fill="none" id="RecuperandoEscenarios-to-GenerandoBorrador" style="stroke:#008000;stroke-width:1;"/><polygon fill="#008000" points="72.5,271.2069,76.5,262.2069,72.5,266.2069,68.5,262.2069,72.5,271.2069" style="stroke:#008000;stroke-width:1;"/><path d="M77.5,208.2969 L77.5,248.2969 L370.5,248.2969 L370.5,218.2969 L360.5,208.2969 L77.5,208.2969" fill="#FEFFDD" style="stroke:#181818;stroke-width:0.5;"/><path d="M360.5,208.2969 L360.5,218.2969 L370.5,218.2969 L360.5,208.2969" fill="#FEFFDD" style="stroke:#181818;stroke-width:0.5;"/><text fill="#000000" font-family="sans-serif" font-size="13" font-weight="bold" lengthAdjust="spacing" textLength="58.9063" x="83.5" y="225.3638">Sistema</text><text fill="#000000" font-family="sans-serif" font-size="13" lengthAdjust="spacing" textLength="209.8662" x="146.5386" y="225.3638">recupera los escenarios Gherkin</text><text fill="#000000" font-family="sans-serif" font-size="13" lengthAdjust="spacing" textLength="259.1304" x="83.5" y="240.4966">disponibles y prepara la transformacion</text></g><!--link GenerandoBorrador to RegistrandoBorrador--><g class="link" data-entity-1="GenerandoBorrador" data-entity-2="RegistrandoBorrador" data-source-line="20" data-uid="lnk5" id="link_GenerandoBorrador_RegistrandoBorrador"><path d="M72.5,321.5669 C72.5,345.8469 72.5,376.9869 72.5,401.2069" fill="none" id="GenerandoBorrador-to-RegistrandoBorrador" style="stroke:#008000;stroke-width:1;"/><polygon fill="#008000" points="72.5,407.2069,76.5,398.2069,72.5,402.2069,68.5,398.2069,72.5,407.2069" style="stroke:#008000;stroke-width:1;"/><path d="M77.5,344.2969 L77.5,384.2969 L334.5,384.2969 L334.5,354.2969 L324.5,344.2969 L77.5,344.2969" fill="#FEFFDD" style="stroke:#181818;stroke-width:0.5;"/><path d="M324.5,344.2969 L324.5,354.2969 L334.5,354.2969 L324.5,344.2969" fill="#FEFFDD" style="stroke:#181818;stroke-width:0.5;"/><text fill="#000000" font-family="sans-serif" font-size="13" font-weight="bold" lengthAdjust="spacing" textLength="58.9063" x="83.5" y="361.3638">Sistema</text><text fill="#000000" font-family="sans-serif" font-size="13" lengthAdjust="spacing" textLength="173.9321" x="146.5386" y="361.3638">genera el borrador a partir</text><text fill="#000000" font-family="sans-serif" font-size="13" lengthAdjust="spacing" textLength="208.2158" x="83.5" y="376.4966">de los escenarios seleccionados</text></g><!--link RegistrandoBorrador to *end*crearBorradorCasoPrueba--><g class="link" data-entity-1="RegistrandoBorrador" data-entity-2=".end.crearBorradorCasoPrueba" data-source-line="26" data-uid="lnk7" id="link_RegistrandoBorrador_.end.crearBorradorCasoPrueba"><path d="M72.5,457.5769 C72.5,483.8769 72.5,518.5669 72.5,537.2769" fill="none" id="RegistrandoBorrador-to-*end*crearBorradorCasoPrueba" style="stroke:#008000;stroke-width:1;"/><polygon fill="#008000" points="72.5,543.2769,76.5,534.2769,72.5,538.2769,68.5,534.2769,72.5,543.2769" style="stroke:#008000;stroke-width:1;"/><path d="M77.5,480.2969 L77.5,520.2969 L313.5,520.2969 L313.5,490.2969 L303.5,480.2969 L77.5,480.2969" fill="#FEFFDD" style="stroke:#181818;stroke-width:0.5;"/><path d="M303.5,480.2969 L303.5,490.2969 L313.5,490.2969 L303.5,480.2969" fill="#FEFFDD" style="stroke:#181818;stroke-width:0.5;"/><text fill="#000000" font-family="sans-serif" font-size="13" font-weight="bold" lengthAdjust="spacing" textLength="58.9063" x="83.5" y="497.3638">Sistema</text><text fill="#000000" font-family="sans-serif" font-size="13" lengthAdjust="spacing" textLength="126.6738" x="146.5386" y="497.3638">registra el borrador</text><text fill="#000000" font-family="sans-serif" font-size="13" lengthAdjust="spacing" textLength="215.0586" x="83.5" y="512.4966">y lo deja disponible para revision</text></g><g id="BORRADORES_ABIERTO"><rect fill="#F1F1F1" height="50" rx="12.5" ry="12.5" style="stroke:#181818;stroke-width:0.5;" width="187.3711" x="7" y="670"/><line style="stroke:#181818;stroke-width:0.5;" x1="7" x2="194.3711" y1="696.2969" y2="696.2969"/><text fill="#000000" font-family="sans-serif" font-size="14" lengthAdjust="spacing" textLength="167.3711" x="17" y="687.9951">BORRADORES_ABIERTO</text></g><g id="ESCENARIOS_GHERKIN_ABIERTO"><rect fill="#F1F1F1" height="50" rx="12.5" ry="12.5" style="stroke:#181818;stroke-width:0.5;" width="249.3525" x="229" y="670"/><line style="stroke:#181818;stroke-width:0.5;" x1="229" x2="478.3525" y1="696.2969" y2="696.2969"/><text fill="#000000" font-family="sans-serif" font-size="14" lengthAdjust="spacing" textLength="229.3525" x="239" y="687.9951">ESCENARIOS_GHERKIN_ABIERTO</text></g><!--link crearBorradorCasoPrueba to BORRADORES_ABIERTO--><g class="link" data-entity-1="crearBorradorCasoPrueba" data-entity-2="BORRADORES_ABIERTO" data-source-line="33" data-uid="lnk9" id="link_crearBorradorCasoPrueba_BORRADORES_ABIERTO"><path d="M137.79,575.02 C125.53,614.15 116.6234,642.5443 109.8734,664.0943" fill="none" id="crearBorradorCasoPrueba-to-BORRADORES_ABIERTO" style="stroke:#008000;stroke-width:1;"/><polygon fill="#008000" points="108.08,669.82,114.5873,662.4271,109.5745,665.0486,106.953,660.0358,108.08,669.82" style="stroke:#008000;stroke-width:1;"/><path d="M133.5,610 L133.5,635 L304.5,635 L304.5,620 L294.5,610 L133.5,610" fill="#FEFFDD" style="stroke:#181818;stroke-width:0.5;"/><path d="M294.5,610 L294.5,620 L304.5,620 L294.5,610" fill="#FEFFDD" style="stroke:#181818;stroke-width:0.5;"/><text fill="#000000" font-family="sans-serif" font-size="13" lengthAdjust="spacing" textLength="150.7505" x="139.5" y="627.0669">completarGeneracion()</text></g><!--link crearBorradorCasoPrueba to ESCENARIOS_GHERKIN_ABIERTO--><g class="link" data-entity-1="crearBorradorCasoPrueba" data-entity-2="ESCENARIOS_GHERKIN_ABIERTO" data-source-line="38" data-uid="lnk11" id="link_crearBorradorCasoPrueba_ESCENARIOS_GHERKIN_ABIERTO"><path d="M315.91,575.02 C328.27,614.15 337.2421,642.5489 344.0521,664.0989" fill="none" id="crearBorradorCasoPrueba-to-ESCENARIOS_GHERKIN_ABIERTO" style="stroke:#FF0000;stroke-width:1;"/><polygon fill="#FF0000" points="345.86,669.82,346.9622,660.033,344.3534,665.0524,339.334,662.4436,345.86,669.82" style="stroke:#FF0000;stroke-width:1;"/><path d="M339.5,610 L339.5,635 L501.5,635 L501.5,620 L491.5,610 L339.5,610" fill="#FEFFDD" style="stroke:#181818;stroke-width:0.5;"/><path d="M491.5,610 L491.5,620 L501.5,620 L491.5,610" fill="#FEFFDD" style="stroke:#181818;stroke-width:0.5;"/><text fill="#000000" font-family="sans-serif" font-size="13" lengthAdjust="spacing" textLength="141.5464" x="345.5" y="627.0669">rechazarGeneracion()</text></g><!--SRC=[ZPFHRe9044NV-Og9VT4cfZzWJDGIQvf80tqpnWmmrQtBBjd59hJfltTOR1H18pmGOEREkNV0xeNAqM06KYWgofmWrxAiRZpF5bWG98RGJBKnc6epGwlVp85Y1BJGk_AkF-Z1Z-S17xL6Zq-k3oavv6HGfTgt2IaqGjjssPnKNVIltAMq5RPe5hcgrUCQXgk7hI5Iw-7unaYbMKwholZUFOW8h9OY4GNMfk6W83wgGyf9iC7gcZkJheTKweJguPt36ZZTrbeeetWSiJ_ASFGKZy4STK6o79sKvpiol43NaWgRQoLYIHPAHgHghI0HgfJiXpOP9aAh3keMqqM0xQJlOTuwLI1vYX21cGfHztEE5suiIKegHYwsdUcsI1galFexqwnrpjbSNSb4pFM9Ps62Yz7Gbx2jz7uzxzhFSSur3S9myXo4VhIPJ1T- -1vu3SH4Pxca0aszY2g1_i0xURynmr1QJV2ZcR-SX8iWsinV_F1riUoUnD_H3h-l3Fe3]--></g></svg>