<svg xmlns="http://www.w3.org/2000/svg" xmlns:xlink="http://www.w3.org/1999/xlink" contentStyleType="text/css" data-diagram-type="STATE" height="726px" preserveAspectRatio="none" style="width:435px;height:726px;background:#FFFFFF;" version="1.1" viewBox="0 0 435 726" width="435px" zoomAndPan="magnify"><defs/><g><path d="M50.5,7 L332.5,7 A12.5,12.5 0 0 1 345,19.5 L345,33.2969 L38,33.2969 L38,19.5 A12.5,12.5 0 0 1 50.5,7" fill="#F1F1F1"/><rect fill="none" height="568.2969" rx="12.5" ry="12.5" style="stroke:#181818;stroke-width:0.5;" width="307" x="38" y="7"/><line style="stroke:#181818;stroke-width:0.5;" x1="38" x2="345" y1="33.2969" y2="33.2969"/><text fill="#000000" font-family="sans-serif" font-size="14" lengthAdjust="spacing" textLength="136.2607" x="123.3696" y="24.9951">consultarCasoUso()</text><g id="consultarCasoUso.SeleccionandoCasoUso"><rect fill="#F1F1F1" height="50" rx="12.5" ry="12.5" style="stroke:#181818;stroke-width:0.5;" width="50" x="50" y="135.2969"/><line style="stroke:#181818;stroke-width:0.5;" x1="50" x2="100" y1="161.5938" y2="161.5938"/><text fill="#000000" font-family="sans-serif" font-size="14" lengthAdjust="spacing" textLength="4.4502" x="72.7749" y="153.292">&#160;</text></g><g id="consultarCasoUso.RecuperandoDetalle"><rect fill="#F1F1F1" height="50" rx="12.5" ry="12.5" style="stroke:#181818;stroke-width:0.5;" width="50" x="50" y="271.2969"/><line style="stroke:#181818;stroke-width:0.5;" x1="50" x2="100" y1="297.5938" y2="297.5938"/><text fill="#000000" font-family="sans-serif" font-size="14" lengthAdjust="spacing" textLength="4.4502" x="72.7749" y="289.292">&#160;</text></g><g id="consultarCasoUso.MostrandoDetalle"><rect fill="#F1F1F1" height="50" rx="12.5" ry="12.5" style="stroke:#181818;stroke-width:0.5;" width="50" x="50" y="407.2969"/><line style="stroke:#181818;stroke-width:0.5;" x1="50" x2="100" y1="433.5938" y2="433.5938"/><text fill="#000000" font-family="sans-serif" font-size="14" lengthAdjust="spacing" textLength="4.4502" x="72.7749" y="425.292">&#160;</text></g><ellipse cx="75" cy="54.2969" fill="#222222" rx="10" ry="10" style="stroke:#222222;stroke-width:1;"/><ellipse cx="75" cy="554.2969" fill="none" rx="11" ry="11" style="stroke:#222222;stroke-width:1;"/><ellipse cx="75" cy="554.2969" fill="#222222" rx="6" ry="6" style="stroke:#222222;stroke-width:1;"/><!--link *start*consultarCasoUso to SeleccionandoCasoUso--><g class="link" data-entity-1=".start.consultarCasoUso" data-entity-2="SeleccionandoCasoUso" data-source-line="9" data-uid="lnk3" id="link_.start.consultarCasoUso_SeleccionandoCasoUso"><path d="M75,64.5269 C75,80.2369 75,106.6569 75,129.1669" fill="none" id="*start*consultarCasoUso-to-SeleccionandoCasoUso" style="stroke:#008000;stroke-width:1;"/><polygon fill="#008000" points="75,135.1669,79,126.1669,75,130.1669,71,126.1669,75,135.1669" style="stroke:#008000;stroke-width:1;"/><path d="M80,87.2969 L80,112.2969 L333,112.2969 L333,97.2969 L323,87.2969 L80,87.2969" fill="#FEFFDD" style="stroke:#181818;stroke-width:0.5;"/><path d="M323,87.2969 L323,97.2969 L333,97.2969 L323,87.2969" fill="#FEFFDD" style="stroke:#181818;stroke-width:0.5;"/><text fill="#000000" font-family="sans-serif" font-size="13" lengthAdjust="spacing" textLength="232.7241" x="86" y="104.3638">Se solicita consultar un caso de uso</text></g><!--link SeleccionandoCasoUso to RecuperandoDetalle--><g class="link" data-entity-1="SeleccionandoCasoUso" data-entity-2="RecuperandoDetalle" data-source-line="14" data-uid="lnk4" id="link_SeleccionandoCasoUso_RecuperandoDetalle"><path d="M75,185.5669 C75,209.8469 75,240.9869 75,265.2069" fill="none" id="SeleccionandoCasoUso-to-RecuperandoDetalle" style="stroke:#008000;stroke-width:1;"/><polygon fill="#008000" points="75,271.2069,79,262.2069,75,266.2069,71,262.2069,75,271.2069" style="stroke:#008000;stroke-width:1;"/><path d="M80,208.2969 L80,248.2969 L336,248.2969 L336,218.2969 L326,208.2969 L80,208.2969" fill="#FEFFDD" style="stroke:#181818;stroke-width:0.5;"/><path d="M326,208.2969 L326,218.2969 L336,218.2969 L326,208.2969" fill="#FEFFDD" style="stroke:#181818;stroke-width:0.5;"/><text fill="#000000" font-family="sans-serif" font-size="13" font-weight="bold" lengthAdjust="spacing" textLength="58.9063" x="86" y="225.3638">Sistema</text><text fill="#000000" font-family="sans-serif" font-size="13" lengthAdjust="spacing" textLength="172.1802" x="149.0386" y="225.3638">toma el caso seleccionado</text><text fill="#000000" font-family="sans-serif" font-size="13" lengthAdjust="spacing" textLength="137.9282" x="86" y="240.4966">y recupera su detalle</text></g><!--link RecuperandoDetalle to MostrandoDetalle--><g class="link" data-entity-1="RecuperandoDetalle" data-entity-2="MostrandoDetalle" data-source-line="20" data-uid="lnk5" id="link_RecuperandoDetalle_MostrandoDetalle"><path d="M75,321.5669 C75,345.8469 75,376.9869 75,401.2069" fill="none" id="RecuperandoDetalle-to-MostrandoDetalle" style="stroke:#008000;stroke-width:1;"/><polygon fill="#008000" points="75,407.2069,79,398.2069,75,402.2069,71,398.2069,75,407.2069" style="stroke:#008000;stroke-width:1;"/><path d="M80,344.2969 L80,384.2969 L312,384.2969 L312,354.2969 L302,344.2969 L80,344.2969" fill="#FEFFDD" style="stroke:#181818;stroke-width:0.5;"/><path d="M302,344.2969 L302,354.2969 L312,354.2969 L302,344.2969" fill="#FEFFDD" style="stroke:#181818;stroke-width:0.5;"/><text fill="#000000" font-family="sans-serif" font-size="13" font-weight="bold" lengthAdjust="spacing" textLength="58.9063" x="86" y="361.3638">Sistema</text><text fill="#000000" font-family="sans-serif" font-size="13" lengthAdjust="spacing" textLength="148.2749" x="149.0386" y="361.3638">prepara la informacion</text><text fill="#000000" font-family="sans-serif" font-size="13" lengthAdjust="spacing" textLength="136.0557" x="86" y="376.4966">para su visualizacion</text></g><!--link MostrandoDetalle to *end*consultarCasoUso--><g class="link" data-entity-1="MostrandoDetalle" data-entity-2=".end.consultarCasoUso" data-source-line="26" data-uid="lnk7" id="link_MostrandoDetalle_.end.consultarCasoUso"><path d="M75,457.5769 C75,483.8769 75,518.5669 75,537.2769" fill="none" id="MostrandoDetalle-to-*end*consultarCasoUso" style="stroke:#008000;stroke-width:1;"/><polygon fill="#008000" points="75,543.2769,79,534.2769,75,538.2769,71,534.2769,75,543.2769" style="stroke:#008000;stroke-width:1;"/><path d="M80,480.2969 L80,520.2969 L282,520.2969 L282,490.2969 L272,480.2969 L80,480.2969" fill="#FEFFDD" style="stroke:#181818;stroke-width:0.5;"/><path d="M272,480.2969 L272,490.2969 L282,490.2969 L272,480.2969" fill="#FEFFDD" style="stroke:#181818;stroke-width:0.5;"/><text fill="#000000" font-family="sans-serif" font-size="13" font-weight="bold" lengthAdjust="spacing" textLength="58.9063" x="86" y="497.3638">Sistema</text><text fill="#000000" font-family="sans-serif" font-size="13" lengthAdjust="spacing" textLength="118.4917" x="149.0386" y="497.3638">muestra el detalle</text><text fill="#000000" font-family="sans-serif" font-size="13" lengthAdjust="spacing" textLength="101.3149" x="86" y="512.4966">del caso de uso</text></g><g id="CASO_USO_ABIERTO"><rect fill="#F1F1F1" height="50" rx="12.5" ry="12.5" style="stroke:#181818;stroke-width:0.5;" width="164.8672" x="7" y="670"/><line style="stroke:#181818;stroke-width:0.5;" x1="7" x2="171.8672" y1="696.2969" y2="696.2969"/><text fill="#000000" font-family="sans-serif" font-size="14" lengthAdjust="spacing" textLength="144.8672" x="17" y="687.9951">CASO_USO_ABIERTO</text></g><g id="CASOS_USO_ABIERTO"><rect fill="#F1F1F1" height="50" rx="12.5" ry="12.5" style="stroke:#181818;stroke-width:0.5;" width="173.7539" x="207.5" y="670"/><line style="stroke:#181818;stroke-width:0.5;" x1="207.5" x2="381.2539" y1="696.2969" y2="696.2969"/><text fill="#000000" font-family="sans-serif" font-size="14" lengthAdjust="spacing" textLength="153.7539" x="217.5" y="687.9951">CASOS_USO_ABIERTO</text></g><!--link consultarCasoUso to CASO_USO_ABIERTO--><g class="link" data-entity-1="consultarCasoUso" data-entity-2="CASO_USO_ABIERTO" data-source-line="33" data-uid="lnk9" id="link_consultarCasoUso_CASO_USO_ABIERTO"><path d="M97.38,575.27 C91.27,593.65 87.5,605 87.5,605 C87.5,605 87.5,640 87.5,640 C87.5,640 87.8447,649.4742 88.3847,663.8442" fill="none" id="consultarCasoUso-to-CASO_USO_ABIERTO" style="stroke:#008000;stroke-width:1;"/><polygon fill="#008000" points="88.61,669.84,92.2692,660.6961,88.4222,664.8435,84.2749,660.9966,88.61,669.84" style="stroke:#008000;stroke-width:1;"/><path d="M92.5,610 L92.5,635 L246.5,635 L246.5,620 L236.5,610 L92.5,610" fill="#FEFFDD" style="stroke:#181818;stroke-width:0.5;"/><path d="M236.5,610 L236.5,620 L246.5,620 L236.5,610" fill="#FEFFDD" style="stroke:#181818;stroke-width:0.5;"/><text fill="#000000" font-family="sans-serif" font-size="13" lengthAdjust="spacing" textLength="133.1357" x="98.5" y="627.0669">completarConsulta()</text></g><!--link consultarCasoUso to CASOS_USO_ABIERTO--><g class="link" data-entity-1="consultarCasoUso" data-entity-2="CASOS_USO_ABIERTO" data-source-line="38" data-uid="lnk11" id="link_consultarCasoUso_CASOS_USO_ABIERTO"><path d="M264.01,575.02 C274.04,614.15 281.2886,642.4583 286.8186,664.0083" fill="none" id="consultarCasoUso-to-CASOS_USO_ABIERTO" style="stroke:#FF0000;stroke-width:1;"/><polygon fill="#FF0000" points="288.31,669.82,289.9474,660.1082,287.0672,664.9769,282.1985,662.0967,288.31,669.82" style="stroke:#FF0000;stroke-width:1;"/><path d="M284.5,610 L284.5,635 L428.5,635 L428.5,620 L418.5,610 L284.5,610" fill="#FEFFDD" style="stroke:#181818;stroke-width:0.5;"/><path d="M418.5,610 L418.5,620 L428.5,620 L418.5,610" fill="#FEFFDD" style="stroke:#181818;stroke-width:0.5;"/><text fill="#000000" font-family="sans-serif" font-size="13" lengthAdjust="spacing" textLength="123.9316" x="290.5" y="627.0669">rechazarConsulta()</text></g><!--SRC=[ZLBDQW8n4BxdAGPxqOBq1KImjeSUYk3MaqWPizCsc4sM_1IqzDsRh6lNc1NSPG-P_Vvc9dOdL8q6Av12aTlN1BMM-tXWp3fq15mhwwL3CqUhLrO3MXXS5eUZ0Vmm1k4viWRX3S22974kj49LwXQRevR4VKqcOfx8ePIKOrwrTGcYWQplDp1UttqQ8hKPJw_xAHsaj8fjxff2GM2r55mux5e4hu075fG4lcMIAXisQscvGPBWIY-P_sGxBOHrLE7aOJi5foi4aaTt-szI7ZFimRIoO7q8r-ccwNBp95ismrkIrORY3G698DI7DXN6P0sogOT0ty9wbEBG_KbZNVeceS8ARyfHUOegSKZd0oXFG-jRsIzZsVKzzvxFYiNxAdopnvVdvTk29I6uhcf9aTfg34UiQwnFs51vaYskwuPTVk6XL_OF]--></g></svg>