<svg xmlns="http://www.w3.org/2000/svg" xmlns:xlink="http://www.w3.org/1999/xlink" contentStyleType="text/css" data-diagram-type="STATE" height="726px" preserveAspectRatio="none" style="width:420px;height:726px;background:#FFFFFF;" version="1.1" viewBox="0 0 420 726" width="420px" zoomAndPan="magnify"><defs/><g><path d="M19.5,7 L383.5,7 A12.5,12.5 0 0 1 396,19.5 L396,33.2969 L7,33.2969 L7,19.5 A12.5,12.5 0 0 1 19.5,7" fill="#F1F1F1"/><rect fill="none" height="568.2969" rx="12.5" ry="12.5" style="stroke:#181818;stroke-width:0.5;" width="389" x="7" y="7"/><line style="stroke:#181818;stroke-width:0.5;" x1="7" x2="396" y1="33.2969" y2="33.2969"/><text fill="#000000" font-family="sans-serif" font-size="14" lengthAdjust="spacing" textLength="247.4883" x="77.7559" y="24.9951">consultarDocumentacionProyecto()</text><g id="consultarDocumentacionProyecto.SolicitandoProyecto"><rect fill="#F1F1F1" height="50" rx="12.5" ry="12.5" style="stroke:#181818;stroke-width:0.5;" width="50" x="19" y="135.2969"/><line style="stroke:#181818;stroke-width:0.5;" x1="19" x2="69" y1="161.5938" y2="161.5938"/><text fill="#000000" font-family="sans-serif" font-size="14" lengthAdjust="spacing" textLength="4.4502" x="41.7749" y="153.292">&#160;</text></g><g id="consultarDocumentacionProyecto.RecuperandoDocumentacion"><rect fill="#F1F1F1" height="50" rx="12.5" ry="12.5" style="stroke:#181818;stroke-width:0.5;" width="50" x="19" y="271.2969"/><line style="stroke:#181818;stroke-width:0.5;" x1="19" x2="69" y1="297.5938" y2="297.5938"/><text fill="#000000" font-family="sans-serif" font-size="14" lengthAdjust="spacing" textLength="4.4502" x="41.7749" y="289.292">&#160;</text></g><g id="consultarDocumentacionProyecto.MostrandoDocumentacion"><rect fill="#F1F1F1" height="50" rx="12.5" ry="12.5" style="stroke:#181818;stroke-width:0.5;" width="50" x="19" y="407.2969"/><line style="stroke:#181818;stroke-width:0.5;" x1="19" x2="69" y1="433.5938" y2="433.5938"/><text fill="#000000" font-family="sans-serif" font-size="14" lengthAdjust="spacing" textLength="4.4502" x="41.7749" y="425.292">&#160;</text></g><ellipse cx="44" cy="54.2969" fill="#222222" rx="10" ry="10" style="stroke:#222222;stroke-width:1;"/><ellipse cx="44" cy="554.2969" fill="none" rx="11" ry="11" style="stroke:#222222;stroke-width:1;"/><ellipse cx="44" cy="554.2969" fill="#222222" rx="6" ry="6" style="stroke:#222222;stroke-width:1;"/><!--link *start*consultarDocumentacionProyecto to SolicitandoProyecto--><g class="link" data-entity-1=".start.consultarDocumentacionProyecto" data-entity-2="SolicitandoProyecto" data-source-line="9" data-uid="lnk3" id="link_.start.consultarDocumentacionProyecto_SolicitandoProyecto"><path d="M44,64.5269 C44,80.2369 44,106.6569 44,129.1669" fill="none" id="*start*consultarDocumentacionProyecto-to-SolicitandoProyecto" style="stroke:#008000;stroke-width:1;"/><polygon fill="#008000" points="44,135.1669,48,126.1669,44,130.1669,40,126.1669,44,135.1669" style="stroke:#008000;stroke-width:1;"/><path d="M49,87.2969 L49,112.2969 L387,112.2969 L387,97.2969 L377,87.2969 L49,87.2969" fill="#FEFFDD" style="stroke:#181818;stroke-width:0.5;"/><path d="M377,87.2969 L377,97.2969 L387,97.2969 L377,87.2969" fill="#FEFFDD" style="stroke:#181818;stroke-width:0.5;"/><text fill="#000000" font-family="sans-serif" font-size="13" lengthAdjust="spacing" textLength="317.2559" x="55" y="104.3638">Se solicita consultar documentacion de proyecto</text></g><!--link SolicitandoProyecto to RecuperandoDocumentacion--><g class="link" data-entity-1="SolicitandoProyecto" data-entity-2="RecuperandoDocumentacion" data-source-line="14" data-uid="lnk4" id="link_SolicitandoProyecto_RecuperandoDocumentacion"><path d="M44,185.5669 C44,209.8469 44,240.9869 44,265.2069" fill="none" id="SolicitandoProyecto-to-RecuperandoDocumentacion" style="stroke:#008000;stroke-width:1;"/><polygon fill="#008000" points="44,271.2069,48,262.2069,44,266.2069,40,262.2069,44,271.2069" style="stroke:#008000;stroke-width:1;"/><path d="M49,208.2969 L49,248.2969 L310,248.2969 L310,218.2969 L300,208.2969 L49,208.2969" fill="#FEFFDD" style="stroke:#181818;stroke-width:0.5;"/><path d="M300,208.2969 L300,218.2969 L310,218.2969 L300,208.2969" fill="#FEFFDD" style="stroke:#181818;stroke-width:0.5;"/><text fill="#000000" font-family="sans-serif" font-size="13" font-weight="bold" lengthAdjust="spacing" textLength="58.9063" x="55" y="225.3638">Sistema</text><text fill="#000000" font-family="sans-serif" font-size="13" lengthAdjust="spacing" textLength="129.4922" x="118.0386" y="225.3638">recibe el proyecto y</text><text fill="#000000" font-family="sans-serif" font-size="13" lengthAdjust="spacing" textLength="240.4111" x="55" y="240.4966">recupera la documentacion asociada</text></g><!--link RecuperandoDocumentacion to MostrandoDocumentacion--><g class="link" data-entity-1="RecuperandoDocumentacion" data-entity-2="MostrandoDocumentacion" data-source-line="20" data-uid="lnk5" id="link_RecuperandoDocumentacion_MostrandoDocumentacion"><path d="M44,321.5669 C44,345.8469 44,376.9869 44,401.2069" fill="none" id="RecuperandoDocumentacion-to-MostrandoDocumentacion" style="stroke:#008000;stroke-width:1;"/><polygon fill="#008000" points="44,407.2069,48,398.2069,44,402.2069,40,398.2069,44,407.2069" style="stroke:#008000;stroke-width:1;"/><path d="M49,344.2969 L49,384.2969 L281,384.2969 L281,354.2969 L271,344.2969 L49,344.2969" fill="#FEFFDD" style="stroke:#181818;stroke-width:0.5;"/><path d="M271,344.2969 L271,354.2969 L281,354.2969 L271,344.2969" fill="#FEFFDD" style="stroke:#181818;stroke-width:0.5;"/><text fill="#000000" font-family="sans-serif" font-size="13" font-weight="bold" lengthAdjust="spacing" textLength="58.9063" x="55" y="361.3638">Sistema</text><text fill="#000000" font-family="sans-serif" font-size="13" lengthAdjust="spacing" textLength="148.2749" x="118.0386" y="361.3638">prepara la informacion</text><text fill="#000000" font-family="sans-serif" font-size="13" lengthAdjust="spacing" textLength="136.0557" x="55" y="376.4966">para su visualizacion</text></g><!--link MostrandoDocumentacion to *end*consultarDocumentacionProyecto--><g class="link" data-entity-1="MostrandoDocumentacion" data-entity-2=".end.consultarDocumentacionProyecto" data-source-line="26" data-uid="lnk7" id="link_MostrandoDocumentacion_.end.consultarDocumentacionProyecto"><path d="M44,457.5769 C44,483.8769 44,518.5669 44,537.2769" fill="none" id="MostrandoDocumentacion-to-*end*consultarDocumentacionProyecto" style="stroke:#008000;stroke-width:1;"/><polygon fill="#008000" points="44,543.2769,48,534.2769,44,538.2769,40,534.2769,44,543.2769" style="stroke:#008000;stroke-width:1;"/><path d="M49,480.2969 L49,520.2969 L307,520.2969 L307,490.2969 L297,480.2969 L49,480.2969" fill="#FEFFDD" style="stroke:#181818;stroke-width:0.5;"/><path d="M297,480.2969 L297,490.2969 L307,490.2969 L297,480.2969" fill="#FEFFDD" style="stroke:#181818;stroke-width:0.5;"/><text fill="#000000" font-family="sans-serif" font-size="13" font-weight="bold" lengthAdjust="spacing" textLength="58.9063" x="55" y="497.3638">Sistema</text><text fill="#000000" font-family="sans-serif" font-size="13" lengthAdjust="spacing" textLength="174.4336" x="118.0386" y="497.3638">muestra la documentacion</text><text fill="#000000" font-family="sans-serif" font-size="13" lengthAdjust="spacing" textLength="177.582" x="55" y="512.4966">registrada para el proyecto</text></g><g id="DOCUMENTACION_ABIERTA"><rect fill="#F1F1F1" height="50" rx="12.5" ry="12.5" style="stroke:#181818;stroke-width:0.5;" width="213.7578" x="94.5" y="670"/><line style="stroke:#181818;stroke-width:0.5;" x1="94.5" x2="308.2578" y1="696.2969" y2="696.2969"/><text fill="#000000" font-family="sans-serif" font-size="14" lengthAdjust="spacing" textLength="193.7578" x="104.5" y="687.9951">DOCUMENTACION_ABIERTA</text></g><!--link consultarDocumentacionProyecto to DOCUMENTACION_ABIERTA--><g class="link" data-entity-1="consultarDocumentacionProyecto" data-entity-2="DOCUMENTACION_ABIERTA" data-source-line="33" data-uid="lnk9" id="link_consultarDocumentacionProyecto_DOCUMENTACION_ABIERTA"><path d="M106.47,575.27 C100.31,593.65 96.5,605 96.5,605 C96.5,605 96.5,640 96.5,640 C96.5,640 121.2335,652.7273 149.1935,667.0973" fill="none" id="consultarDocumentacionProyecto-to-DOCUMENTACION_ABIERTA" style="stroke:#008000;stroke-width:1;"/><polygon fill="#008000" points="154.53,669.84,148.3538,662.1684,150.083,667.5544,144.6969,669.2836,154.53,669.84" style="stroke:#008000;stroke-width:1;"/><path d="M101.5,610 L101.5,635 L255.5,635 L255.5,620 L245.5,610 L101.5,610" fill="#FEFFDD" style="stroke:#181818;stroke-width:0.5;"/><path d="M245.5,610 L245.5,620 L255.5,620 L245.5,610" fill="#FEFFDD" style="stroke:#181818;stroke-width:0.5;"/><text fill="#000000" font-family="sans-serif" font-size="13" lengthAdjust="spacing" textLength="133.1357" x="107.5" y="627.0669">completarConsulta()</text></g><!--link consultarDocumentacionProyecto to DOCUMENTACION_ABIERTA--><g class="link" data-entity-1="consultarDocumentacionProyecto" data-entity-2="DOCUMENTACION_ABIERTA" data-source-line="38" data-uid="lnk10" id="link_consultarDocumentacionProyecto_DOCUMENTACION_ABIERTA"><path d="M258.52,575.27 C262.22,593.65 264.5,605 264.5,605 C264.5,605 264.5,640 264.5,640 C264.5,640 251.0173,651.5673 234.2373,665.9373" fill="none" id="consultarDocumentacionProyecto-to-DOCUMENTACION_ABIERTA-1" style="stroke:#FF0000;stroke-width:1;"/><polygon fill="#FF0000" points="229.68,669.84,239.1177,667.0241,233.4777,666.5877,233.9141,660.9477,229.68,669.84" style="stroke:#FF0000;stroke-width:1;"/><path d="M269.5,610 L269.5,635 L413.5,635 L413.5,620 L403.5,610 L269.5,610" fill="#FEFFDD" style="stroke:#181818;stroke-width:0.5;"/><path d="M403.5,610 L403.5,620 L413.5,620 L403.5,610" fill="#FEFFDD" style="stroke:#181818;stroke-width:0.5;"/><text fill="#000000" font-family="sans-serif" font-size="13" lengthAdjust="spacing" textLength="123.9316" x="275.5" y="627.0669">rechazarConsulta()</text></g><!--SRC=[ZPFDRi8m48JlVeeLlK0br1T0I1GuS00ge2U4giNPKWl7ZcodKgZwxhL3sYHD-4bEiSSpNyQsFGgLeC4Of53aieGWqJ8B7unPXuw0QsLJwT1CD4zZKWwvqEh5w8ouqu0MEjSbtLu7lXW3_vmTE_xrozPQ2YuSgaZ_IfkY5V4q8HD4DVEcSgwjQz7bmktZ3lhRXuCXKhl-y6AqqjvFgr36CHzO4zX2MnO1KJK18jzPrOHKb1kTerkYQYXNVx31CzWFry8wYd7mj1-28Ixs12J_223BTQPm1Od_QD5gBZ325jHBA3NU2pNVGviO2cSjC0drharSBit7RGgVmgOenQcSgIEsfzS0_LxVHHEd5BmQ3HNz7KIOZV2CLccuJlNDs8qBKcMRBCUly-bYCnhFbektqVDikjgCM8sKwpYHvDt6XMstnyeERcSPYkvCycVa0q-jGJy0]--></g></svg>