<svg xmlns="http://www.w3.org/2000/svg" xmlns:xlink="http://www.w3.org/1999/xlink" contentStyleType="text/css" data-diagram-type="STATE" height="590px" preserveAspectRatio="none" style="width:386px;height:590px;background:#FFFFFF;" version="1.1" viewBox="0 0 386 590" width="386px" zoomAndPan="magnify"><defs/><g><path d="M19.5,7 L314.5,7 A12.5,12.5 0 0 1 327,19.5 L327,33.2969 L7,33.2969 L7,19.5 A12.5,12.5 0 0 1 19.5,7" fill="#F1F1F1"/><rect fill="none" height="432.2969" rx="12.5" ry="12.5" style="stroke:#181818;stroke-width:0.5;" width="320" x="7" y="7"/><line style="stroke:#181818;stroke-width:0.5;" x1="7" x2="327" y1="33.2969" y2="33.2969"/><text fill="#000000" font-family="sans-serif" font-size="14" lengthAdjust="spacing" textLength="201.5439" x="66.228" y="24.9951">listarRequisitosFuncionales()</text><g id="listarRequisitosFuncionales.RecuperandoRequisitos"><rect fill="#F1F1F1" height="50" rx="12.5" ry="12.5" style="stroke:#181818;stroke-width:0.5;" width="50" x="19" y="135.2969"/><line style="stroke:#181818;stroke-width:0.5;" x1="19" x2="69" y1="161.5938" y2="161.5938"/><text fill="#000000" font-family="sans-serif" font-size="14" lengthAdjust="spacing" textLength="4.4502" x="41.7749" y="153.292">&#160;</text></g><g id="listarRequisitosFuncionales.MostrandoRequisitos"><rect fill="#F1F1F1" height="50" rx="12.5" ry="12.5" style="stroke:#181818;stroke-width:0.5;" width="50" x="19" y="271.2969"/><line style="stroke:#181818;stroke-width:0.5;" x1="19" x2="69" y1="297.5938" y2="297.5938"/><text fill="#000000" font-family="sans-serif" font-size="14" lengthAdjust="spacing" textLength="4.4502" x="41.7749" y="289.292">&#160;</text></g><ellipse cx="44" cy="54.2969" fill="#222222" rx="10" ry="10" style="stroke:#222222;stroke-width:1;"/><ellipse cx="44" cy="418.2969" fill="none" rx="11" ry="11" style="stroke:#222222;stroke-width:1;"/><ellipse cx="44" cy="418.2969" fill="#222222" rx="6" ry="6" style="stroke:#222222;stroke-width:1;"/><!--link *start*listarRequisitosFuncionales to RecuperandoRequisitos--><g class="link" data-entity-1=".start.listarRequisitosFuncionales" data-entity-2="RecuperandoRequisitos" data-source-line="8" data-uid="lnk3" id="link_.start.listarRequisitosFuncionales_RecuperandoRequisitos"><path d="M44,64.5269 C44,80.2369 44,106.6569 44,129.1669" fill="none" id="*start*listarRequisitosFuncionales-to-RecuperandoRequisitos" style="stroke:#008000;stroke-width:1;"/><polygon fill="#008000" points="44,135.1669,48,126.1669,44,130.1669,40,126.1669,44,135.1669" style="stroke:#008000;stroke-width:1;"/><path d="M49,87.2969 L49,112.2969 L318,112.2969 L318,97.2969 L308,87.2969 L49,87.2969" fill="#FEFFDD" style="stroke:#181818;stroke-width:0.5;"/><path d="M308,87.2969 L308,97.2969 L318,97.2969 L308,87.2969" fill="#FEFFDD" style="stroke:#181818;stroke-width:0.5;"/><text fill="#000000" font-family="sans-serif" font-size="13" lengthAdjust="spacing" textLength="248.9678" x="55" y="104.3638">Se solicita listar requisitos funcionales</text></g><!--link RecuperandoRequisitos to MostrandoRequisitos--><g class="link" data-entity-1="RecuperandoRequisitos" data-entity-2="MostrandoRequisitos" data-source-line="13" data-uid="lnk4" id="link_RecuperandoRequisitos_MostrandoRequisitos"><path d="M44,185.5669 C44,209.8469 44,240.9869 44,265.2069" fill="none" id="RecuperandoRequisitos-to-MostrandoRequisitos" style="stroke:#008000;stroke-width:1;"/><polygon fill="#008000" points="44,271.2069,48,262.2069,44,266.2069,40,262.2069,44,271.2069" style="stroke:#008000;stroke-width:1;"/><path d="M49,208.2969 L49,248.2969 L281,248.2969 L281,218.2969 L271,208.2969 L49,208.2969" fill="#FEFFDD" style="stroke:#181818;stroke-width:0.5;"/><path d="M271,208.2969 L271,218.2969 L281,218.2969 L271,208.2969" fill="#FEFFDD" style="stroke:#181818;stroke-width:0.5;"/><text fill="#000000" font-family="sans-serif" font-size="13" font-weight="bold" lengthAdjust="spacing" textLength="58.9063" x="55" y="225.3638">Sistema</text><text fill="#000000" font-family="sans-serif" font-size="13" lengthAdjust="spacing" textLength="148.5479" x="118.0386" y="225.3638">recupera los requisitos</text><text fill="#000000" font-family="sans-serif" font-size="13" lengthAdjust="spacing" textLength="151.855" x="55" y="240.4966">funcionales registrados</text></g><!--link MostrandoRequisitos to *end*listarRequisitosFuncionales--><g class="link" data-entity-1="MostrandoRequisitos" data-entity-2=".end.listarRequisitosFuncionales" data-source-line="19" data-uid="lnk6" id="link_MostrandoRequisitos_.end.listarRequisitosFuncionales"><path d="M44,321.5769 C44,347.8769 44,382.5669 44,401.2769" fill="none" id="MostrandoRequisitos-to-*end*listarRequisitosFuncionales" style="stroke:#008000;stroke-width:1;"/><polygon fill="#008000" points="44,407.2769,48,398.2769,44,402.2769,40,398.2769,44,407.2769" style="stroke:#008000;stroke-width:1;"/><path d="M49,344.2969 L49,384.2969 L234,384.2969 L234,354.2969 L224,344.2969 L49,344.2969" fill="#FEFFDD" style="stroke:#181818;stroke-width:0.5;"/><path d="M224,344.2969 L224,354.2969 L234,354.2969 L224,344.2969" fill="#FEFFDD" style="stroke:#181818;stroke-width:0.5;"/><text fill="#000000" font-family="sans-serif" font-size="13" font-weight="bold" lengthAdjust="spacing" textLength="58.9063" x="55" y="361.3638">Sistema</text><text fill="#000000" font-family="sans-serif" font-size="13" lengthAdjust="spacing" textLength="100.9849" x="118.0386" y="361.3638">muestra la lista</text><text fill="#000000" font-family="sans-serif" font-size="13" lengthAdjust="spacing" textLength="162.5254" x="55" y="376.4966">de requisitos funcionales</text></g><g id="REQUISITOS_FUNCIONALES_ABIERTO"><rect fill="#F1F1F1" height="50" rx="12.5" ry="12.5" style="stroke:#181818;stroke-width:0.5;" width="280.1758" x="27" y="534"/><line style="stroke:#181818;stroke-width:0.5;" x1="27" x2="307.1758" y1="560.2969" y2="560.2969"/><text fill="#000000" font-family="sans-serif" font-size="14" lengthAdjust="spacing" textLength="260.1758" x="37" y="551.9951">REQUISITOS_FUNCIONALES_ABIERTO</text></g><!--link listarRequisitosFuncionales to REQUISITOS_FUNCIONALES_ABIERTO--><g class="link" data-entity-1="listarRequisitosFuncionales" data-entity-2="REQUISITOS_FUNCIONALES_ABIERTO" data-source-line="26" data-uid="lnk8" id="link_listarRequisitosFuncionales_REQUISITOS_FUNCIONALES_ABIERTO"><path d="M74.67,439.45 C66.94,457.48 62,469 62,469 C62,469 62,504 62,504 C62,504 86.7335,516.7273 114.6935,531.0973" fill="none" id="listarRequisitosFuncionales-to-REQUISITOS_FUNCIONALES_ABIERTO" style="stroke:#008000;stroke-width:1;"/><polygon fill="#008000" points="120.03,533.84,113.8538,526.1684,115.583,531.5544,110.1969,533.2836,120.03,533.84" style="stroke:#008000;stroke-width:1;"/><path d="M67,474 L67,499 L221,499 L221,484 L211,474 L67,474" fill="#FEFFDD" style="stroke:#181818;stroke-width:0.5;"/><path d="M211,474 L211,484 L221,484 L211,474" fill="#FEFFDD" style="stroke:#181818;stroke-width:0.5;"/><text fill="#000000" font-family="sans-serif" font-size="13" lengthAdjust="spacing" textLength="133.1357" x="73" y="491.0669">completarConsulta()</text></g><!--link listarRequisitosFuncionales to REQUISITOS_FUNCIONALES_ABIERTO--><g class="link" data-entity-1="listarRequisitosFuncionales" data-entity-2="REQUISITOS_FUNCIONALES_ABIERTO" data-source-line="31" data-uid="lnk9" id="link_listarRequisitosFuncionales_REQUISITOS_FUNCIONALES_ABIERTO"><path d="M222.4,439.45 C227.04,457.48 230,469 230,469 C230,469 230,504 230,504 C230,504 216.5173,515.5673 199.7373,529.9373" fill="none" id="listarRequisitosFuncionales-to-REQUISITOS_FUNCIONALES_ABIERTO-1" style="stroke:#FF0000;stroke-width:1;"/><polygon fill="#FF0000" points="195.18,533.84,204.6177,531.0241,198.9777,530.5877,199.4141,524.9477,195.18,533.84" style="stroke:#FF0000;stroke-width:1;"/><path d="M235,474 L235,499 L379,499 L379,484 L369,474 L235,474" fill="#FEFFDD" style="stroke:#181818;stroke-width:0.5;"/><path d="M369,474 L369,484 L379,484 L369,474" fill="#FEFFDD" style="stroke:#181818;stroke-width:0.5;"/><text fill="#000000" font-family="sans-serif" font-size="13" lengthAdjust="spacing" textLength="123.9316" x="241" y="491.0669">rechazarConsulta()</text></g><!--SRC=[bPB1QeD048Rl-nI3lII5q1S8GXeI4Df8DJc543OwJPUiktPtFQIbxzvHGwtjObCzYCu____DhFOaLCaDBq0AXUvS8fHQdkiNngpZ3gb0JvFWQoMiSDekAvK9hRX42zn2C50VZGDuPmpeQhq2kgadmQmgqN2Lwwxlj-nHM_TJrAYsjpkOR6-E1b7j9k60dz9afrKztQdva29OBKKc7BzC1kQh1PuxzaQDAcyisbXlJ0_4H-p5c1x2bDAnuDExGqW8hJD8CZJztczCL3gAEY7NFZvFUe-ErdOLJL5XRGJoig96a-DLY_fWREY7wPtQucaJfT4wJlVBpMeUnQlPmoBTp-wZHRAEMOyoqqKfaMpdMjbAEZuQisxuFn8Dvl_DemDvuM_Uk4y0]--></g></svg>