<svg xmlns="http://www.w3.org/2000/svg" xmlns:xlink="http://www.w3.org/1999/xlink" contentStyleType="text/css" data-diagram-type="STATE" height="726px" preserveAspectRatio="none" style="width:472px;height:726px;background:#FFFFFF;" version="1.1" viewBox="0 0 472 726" width="472px" zoomAndPan="magnify"><defs/><g><path d="M37.5,7 L368.5,7 A12.5,12.5 0 0 1 381,19.5 L381,33.2969 L25,33.2969 L25,19.5 A12.5,12.5 0 0 1 37.5,7" fill="#F1F1F1"/><rect fill="none" height="568.2969" rx="12.5" ry="12.5" style="stroke:#181818;stroke-width:0.5;" width="356" x="25" y="7"/><line style="stroke:#181818;stroke-width:0.5;" x1="25" x2="381" y1="33.2969" y2="33.2969"/><text fill="#000000" font-family="sans-serif" font-size="14" lengthAdjust="spacing" textLength="179.1563" x="113.4219" y="24.9951">publicarCasoPruebaKiwi()</text><g id="publicarCasoPruebaKiwi.RecuperandoCaso"><rect fill="#F1F1F1" height="50" rx="12.5" ry="12.5" style="stroke:#181818;stroke-width:0.5;" width="50" x="37" y="135.2969"/><line style="stroke:#181818;stroke-width:0.5;" x1="37" x2="87" y1="161.5938" y2="161.5938"/><text fill="#000000" font-family="sans-serif" font-size="14" lengthAdjust="spacing" textLength="4.4502" x="59.7749" y="153.292">&#160;</text></g><g id="publicarCasoPruebaKiwi.PreparandoPublicacion"><rect fill="#F1F1F1" height="50" rx="12.5" ry="12.5" style="stroke:#181818;stroke-width:0.5;" width="50" x="37" y="271.2969"/><line style="stroke:#181818;stroke-width:0.5;" x1="37" x2="87" y1="297.5938" y2="297.5938"/><text fill="#000000" font-family="sans-serif" font-size="14" lengthAdjust="spacing" textLength="4.4502" x="59.7749" y="289.292">&#160;</text></g><g id="publicarCasoPruebaKiwi.EnviandoAKiwi"><rect fill="#F1F1F1" height="50" rx="12.5" ry="12.5" style="stroke:#181818;stroke-width:0.5;" width="50" x="37" y="407.2969"/><line style="stroke:#181818;stroke-width:0.5;" x1="37" x2="87" y1="433.5938" y2="433.5938"/><text fill="#000000" font-family="sans-serif" font-size="14" lengthAdjust="spacing" textLength="4.4502" x="59.7749" y="425.292">&#160;</text></g><ellipse cx="62" cy="54.2969" fill="#222222" rx="10" ry="10" style="stroke:#222222;stroke-width:1;"/><ellipse cx="62" cy="554.2969" fill="none" rx="11" ry="11" style="stroke:#222222;stroke-width:1;"/><ellipse cx="62" cy="554.2969" fill="#222222" rx="6" ry="6" style="stroke:#222222;stroke-width:1;"/><!--link *start*publicarCasoPruebaKiwi to RecuperandoCaso--><g class="link" data-entity-1=".start.publicarCasoPruebaKiwi" data-entity-2="RecuperandoCaso" data-source-line="9" data-uid="lnk3" id="link_.start.publicarCasoPruebaKiwi_RecuperandoCaso"><path d="M62,64.5269 C62,80.2369 62,106.6569 62,129.1669" fill="none" id="*start*publicarCasoPruebaKiwi-to-RecuperandoCaso" style="stroke:#008000;stroke-width:1;"/><polygon fill="#008000" points="62,135.1669,66,126.1669,62,130.1669,58,126.1669,62,135.1669" style="stroke:#008000;stroke-width:1;"/><path d="M67,87.2969 L67,112.2969 L335,112.2969 L335,97.2969 L325,87.2969 L67,87.2969" fill="#FEFFDD" style="stroke:#181818;stroke-width:0.5;"/><path d="M325,87.2969 L325,97.2969 L335,97.2969 L325,87.2969" fill="#FEFFDD" style="stroke:#181818;stroke-width:0.5;"/><text fill="#000000" font-family="sans-serif" font-size="13" lengthAdjust="spacing" textLength="247.8633" x="73" y="104.3638">Se solicita publicar un caso de prueba</text></g><!--link RecuperandoCaso to PreparandoPublicacion--><g class="link" data-entity-1="RecuperandoCaso" data-entity-2="PreparandoPublicacion" data-source-line="14" data-uid="lnk4" id="link_RecuperandoCaso_PreparandoPublicacion"><path d="M62,185.5669 C62,209.8469 62,240.9869 62,265.2069" fill="none" id="RecuperandoCaso-to-PreparandoPublicacion" style="stroke:#008000;stroke-width:1;"/><polygon fill="#008000" points="62,271.2069,66,262.2069,62,266.2069,58,262.2069,62,271.2069" style="stroke:#008000;stroke-width:1;"/><path d="M67,208.2969 L67,248.2969 L372,248.2969 L372,218.2969 L362,208.2969 L67,208.2969" fill="#FEFFDD" style="stroke:#181818;stroke-width:0.5;"/><path d="M362,208.2969 L362,218.2969 L372,218.2969 L362,208.2969" fill="#FEFFDD" style="stroke:#181818;stroke-width:0.5;"/><text fill="#000000" font-family="sans-serif" font-size="13" lengthAdjust="spacing" textLength="260.1587" x="73" y="225.3638">Se recupera el caso de prueba derivado</text><text fill="#000000" font-family="sans-serif" font-size="13" lengthAdjust="spacing" textLength="284.6289" x="73" y="240.4966">de un borrador aprobado y valida sus datos</text></g><!--link PreparandoPublicacion to EnviandoAKiwi--><g class="link" data-entity-1="PreparandoPublicacion" data-entity-2="EnviandoAKiwi" data-source-line="20" data-uid="lnk5" id="link_PreparandoPublicacion_EnviandoAKiwi"><path d="M62,321.5669 C62,345.8469 62,376.9869 62,401.2069" fill="none" id="PreparandoPublicacion-to-EnviandoAKiwi" style="stroke:#008000;stroke-width:1;"/><polygon fill="#008000" points="62,407.2069,66,398.2069,62,402.2069,58,398.2069,62,407.2069" style="stroke:#008000;stroke-width:1;"/><path d="M67,344.2969 L67,384.2969 L323,384.2969 L323,354.2969 L313,344.2969 L67,344.2969" fill="#FEFFDD" style="stroke:#181818;stroke-width:0.5;"/><path d="M313,344.2969 L313,354.2969 L323,354.2969 L313,344.2969" fill="#FEFFDD" style="stroke:#181818;stroke-width:0.5;"/><text fill="#000000" font-family="sans-serif" font-size="13" lengthAdjust="spacing" textLength="235.8345" x="73" y="361.3638">Se prepara la informacion necesaria</text><text fill="#000000" font-family="sans-serif" font-size="13" lengthAdjust="spacing" textLength="214.9063" x="73" y="376.4966">para la publicacion en Kiwi TCMS</text></g><!--link EnviandoAKiwi to *end*publicarCasoPruebaKiwi--><g class="link" data-entity-1="EnviandoAKiwi" data-entity-2=".end.publicarCasoPruebaKiwi" data-source-line="26" data-uid="lnk7" id="link_EnviandoAKiwi_.end.publicarCasoPruebaKiwi"><path d="M62,457.5769 C62,483.8769 62,518.5669 62,537.2769" fill="none" id="EnviandoAKiwi-to-*end*publicarCasoPruebaKiwi" style="stroke:#008000;stroke-width:1;"/><polygon fill="#008000" points="62,543.2769,66,534.2769,62,538.2769,58,534.2769,62,543.2769" style="stroke:#008000;stroke-width:1;"/><path d="M67,480.2969 L67,520.2969 L301,520.2969 L301,490.2969 L291,480.2969 L67,480.2969" fill="#FEFFDD" style="stroke:#181818;stroke-width:0.5;"/><path d="M291,480.2969 L291,490.2969 L301,490.2969 L291,480.2969" fill="#FEFFDD" style="stroke:#181818;stroke-width:0.5;"/><text fill="#000000" font-family="sans-serif" font-size="13" lengthAdjust="spacing" textLength="213.2622" x="73" y="497.3638">Se envia la solicitud a Kiwi TCMS</text><text fill="#000000" font-family="sans-serif" font-size="13" lengthAdjust="spacing" textLength="143.3237" x="73" y="512.4966">y registra el resultado</text></g><g id="KIWI_TCMS_ABIERTO"><rect fill="#F1F1F1" height="50" rx="12.5" ry="12.5" style="stroke:#181818;stroke-width:0.5;" width="166.0293" x="7" y="670"/><line style="stroke:#181818;stroke-width:0.5;" x1="7" x2="173.0293" y1="696.2969" y2="696.2969"/><text fill="#000000" font-family="sans-serif" font-size="14" lengthAdjust="spacing" textLength="146.0293" x="17" y="687.9951">KIWI_TCMS_ABIERTO</text></g><g id="CASO_PRUEBA_PREPARADO"><rect fill="#F1F1F1" height="50" rx="12.5" ry="12.5" style="stroke:#181818;stroke-width:0.5;" width="215.8428" x="208" y="670"/><line style="stroke:#181818;stroke-width:0.5;" x1="208" x2="423.8428" y1="696.2969" y2="696.2969"/><text fill="#000000" font-family="sans-serif" font-size="14" lengthAdjust="spacing" textLength="195.8428" x="218" y="687.9951">CASO_PRUEBA_PREPARADO</text></g><!--link publicarCasoPruebaKiwi to KIWI_TCMS_ABIERTO--><g class="link" data-entity-1="publicarCasoPruebaKiwi" data-entity-2="KIWI_TCMS_ABIERTO" data-source-line="33" data-uid="lnk9" id="link_publicarCasoPruebaKiwi_KIWI_TCMS_ABIERTO"><path d="M103.45,575.27 C96.99,593.65 93,605 93,605 C93,605 91.9125,637.3334 91.0225,663.6834" fill="none" id="publicarCasoPruebaKiwi-to-KIWI_TCMS_ABIERTO" style="stroke:#008000;stroke-width:1;"/><polygon fill="#008000" points="90.82,669.68,95.1215,660.8202,90.9888,664.6828,87.1261,660.5501,90.82,669.68" style="stroke:#008000;stroke-width:1;"/><path d="M98,610 L98,635 L268,635 L268,620 L258,610 L98,610" fill="#FEFFDD" style="stroke:#181818;stroke-width:0.5;"/><path d="M258,610 L258,620 L268,620 L258,610" fill="#FEFFDD" style="stroke:#181818;stroke-width:0.5;"/><text fill="#000000" font-family="sans-serif" font-size="13" lengthAdjust="spacing" textLength="149.7983" x="104" y="627.0669">completarPublicacion()</text></g><!--link publicarCasoPruebaKiwi to CASO_PRUEBA_PREPARADO--><g class="link" data-entity-1="publicarCasoPruebaKiwi" data-entity-2="CASO_PRUEBA_PREPARADO" data-source-line="38" data-uid="lnk11" id="link_publicarCasoPruebaKiwi_CASO_PRUEBA_PREPARADO"><path d="M282.55,575.02 C293.55,614.15 301.5282,642.4933 307.5782,664.0433" fill="none" id="publicarCasoPruebaKiwi-to-CASO_PRUEBA_PREPARADO" style="stroke:#FF0000;stroke-width:1;"/><polygon fill="#FF0000" points="309.2,669.82,310.6185,660.0738,307.8485,665.0061,302.9163,662.2362,309.2,669.82" style="stroke:#FF0000;stroke-width:1;"/><path d="M304,610 L304,635 L465,635 L465,620 L455,610 L304,610" fill="#FEFFDD" style="stroke:#181818;stroke-width:0.5;"/><path d="M455,610 L455,620 L465,620 L455,610" fill="#FEFFDD" style="stroke:#181818;stroke-width:0.5;"/><text fill="#000000" font-family="sans-serif" font-size="13" lengthAdjust="spacing" textLength="140.5942" x="310" y="627.0669">rechazarPublicacion()</text></g><!--SRC=[TPBFRi8m3CRlVGgBNM0Ihp2fi1uGcgWAqmu88RVrM4H9AgTbOjFUVKu36uMsEJH_xE_tsOdTArqYum4AfQawbGIbAKvk4GIsmahMTLge37cAriHSKufpzQa0BGowZuQZ0Nm70SZd5GOo93oXh2w9KUV69Tm7n4pEYvp7NZXJHj-7HVgeN53eO9wpVjp0UFsmOoAz6JzrehGH2QDTeVjcOqbWZM1KXNz5GgqXamp8fV2ceYQKTDxaUzgDUelSNqCNdyzAGCKDLcQiZfXxxx8jnbB3B3iCMB99PGOdE6AXSWHRMyYnChR3RgUbbkbsH_lCbbu72WIbtmqVl92cZ2ooyfswH9HNADBGF9dLz6NPuQz5R_cIQ-rrGoxBaSvtMEU0DvYJz7UdRENxosJhehfqzC_2Jn3qlF1h9_FPssphXBVXP1ObgqNGyfIPGrbGXNpLuU4e-A-p7y6KEy0qN2wsSV8QJKBvHN6OXCyt47ai7_ZLn_W5]--></g></svg>