<svg xmlns="http://www.w3.org/2000/svg" xmlns:xlink="http://www.w3.org/1999/xlink" contentStyleType="text/css" data-diagram-type="STATE" height="726px" preserveAspectRatio="none" style="width:491px;height:726px;background:#FFFFFF;" version="1.1" viewBox="0 0 491 726" width="491px" zoomAndPan="magnify"><defs/><g><path d="M64,7 L347,7 A12.5,12.5 0 0 1 359.5,19.5 L359.5,33.2969 L51.5,33.2969 L51.5,19.5 A12.5,12.5 0 0 1 64,7" fill="#F1F1F1"/><rect fill="none" height="568.2969" rx="12.5" ry="12.5" style="stroke:#181818;stroke-width:0.5;" width="308" x="51.5" y="7"/><line style="stroke:#181818;stroke-width:0.5;" x1="51.5" x2="359.5" y1="33.2969" y2="33.2969"/><text fill="#000000" font-family="sans-serif" font-size="14" lengthAdjust="spacing" textLength="139.9248" x="135.5376" y="24.9951">actualizarCasoUso()</text><g id="actualizarCasoUso.RecuperandoCasoUso"><rect fill="#F1F1F1" height="50" rx="12.5" ry="12.5" style="stroke:#181818;stroke-width:0.5;" width="50" x="63.5" y="135.2969"/><line style="stroke:#181818;stroke-width:0.5;" x1="63.5" x2="113.5" y1="161.5938" y2="161.5938"/><text fill="#000000" font-family="sans-serif" font-size="14" lengthAdjust="spacing" textLength="4.4502" x="86.2749" y="153.292">&#160;</text></g><g id="actualizarCasoUso.EditandoCasoUso"><rect fill="#F1F1F1" height="50" rx="12.5" ry="12.5" style="stroke:#181818;stroke-width:0.5;" width="50" x="63.5" y="271.2969"/><line style="stroke:#181818;stroke-width:0.5;" x1="63.5" x2="113.5" y1="297.5938" y2="297.5938"/><text fill="#000000" font-family="sans-serif" font-size="14" lengthAdjust="spacing" textLength="4.4502" x="86.2749" y="289.292">&#160;</text></g><g id="actualizarCasoUso.GuardandoCambios"><rect fill="#F1F1F1" height="50" rx="12.5" ry="12.5" style="stroke:#181818;stroke-width:0.5;" width="50" x="63.5" y="407.2969"/><line style="stroke:#181818;stroke-width:0.5;" x1="63.5" x2="113.5" y1="433.5938" y2="433.5938"/><text fill="#000000" font-family="sans-serif" font-size="14" lengthAdjust="spacing" textLength="4.4502" x="86.2749" y="425.292">&#160;</text></g><ellipse cx="88.5" cy="54.2969" fill="#222222" rx="10" ry="10" style="stroke:#222222;stroke-width:1;"/><ellipse cx="88.5" cy="554.2969" fill="none" rx="11" ry="11" style="stroke:#222222;stroke-width:1;"/><ellipse cx="88.5" cy="554.2969" fill="#222222" rx="6" ry="6" style="stroke:#222222;stroke-width:1;"/><!--link *start*actualizarCasoUso to RecuperandoCasoUso--><g class="link" data-entity-1=".start.actualizarCasoUso" data-entity-2="RecuperandoCasoUso" data-source-line="9" data-uid="lnk3" id="link_.start.actualizarCasoUso_RecuperandoCasoUso"><path d="M88.5,64.5269 C88.5,80.2369 88.5,106.6569 88.5,129.1669" fill="none" id="*start*actualizarCasoUso-to-RecuperandoCasoUso" style="stroke:#008000;stroke-width:1;"/><polygon fill="#008000" points="88.5,135.1669,92.5,126.1669,88.5,130.1669,84.5,126.1669,88.5,135.1669" style="stroke:#008000;stroke-width:1;"/><path d="M93.5,87.2969 L93.5,112.2969 L350.5,112.2969 L350.5,97.2969 L340.5,87.2969 L93.5,87.2969" fill="#FEFFDD" style="stroke:#181818;stroke-width:0.5;"/><path d="M340.5,87.2969 L340.5,97.2969 L350.5,97.2969 L340.5,87.2969" fill="#FEFFDD" style="stroke:#181818;stroke-width:0.5;"/><text fill="#000000" font-family="sans-serif" font-size="13" lengthAdjust="spacing" textLength="236.1265" x="99.5" y="104.3638">Se solicita actualizar un caso de uso</text></g><!--link RecuperandoCasoUso to EditandoCasoUso--><g class="link" data-entity-1="RecuperandoCasoUso" data-entity-2="EditandoCasoUso" data-source-line="14" data-uid="lnk4" id="link_RecuperandoCasoUso_EditandoCasoUso"><path d="M88.5,185.5669 C88.5,209.8469 88.5,240.9869 88.5,265.2069" fill="none" id="RecuperandoCasoUso-to-EditandoCasoUso" style="stroke:#008000;stroke-width:1;"/><polygon fill="#008000" points="88.5,271.2069,92.5,262.2069,88.5,266.2069,84.5,262.2069,88.5,271.2069" style="stroke:#008000;stroke-width:1;"/><path d="M93.5,208.2969 L93.5,248.2969 L332.5,248.2969 L332.5,218.2969 L322.5,208.2969 L93.5,208.2969" fill="#FEFFDD" style="stroke:#181818;stroke-width:0.5;"/><path d="M322.5,208.2969 L322.5,218.2969 L332.5,218.2969 L322.5,208.2969" fill="#FEFFDD" style="stroke:#181818;stroke-width:0.5;"/><text fill="#000000" font-family="sans-serif" font-size="13" font-weight="bold" lengthAdjust="spacing" textLength="58.9063" x="99.5" y="225.3638">Sistema</text><text fill="#000000" font-family="sans-serif" font-size="13" lengthAdjust="spacing" textLength="155.4858" x="162.5386" y="225.3638">recupera el caso de uso</text><text fill="#000000" font-family="sans-serif" font-size="13" lengthAdjust="spacing" textLength="132.8818" x="99.5" y="240.4966">y permite su edicion</text></g><!--link EditandoCasoUso to GuardandoCambios--><g class="link" data-entity-1="EditandoCasoUso" data-entity-2="GuardandoCambios" data-source-line="20" data-uid="lnk5" id="link_EditandoCasoUso_GuardandoCambios"><path d="M88.5,321.5669 C88.5,345.8469 88.5,376.9869 88.5,401.2069" fill="none" id="EditandoCasoUso-to-GuardandoCambios" style="stroke:#008000;stroke-width:1;"/><polygon fill="#008000" points="88.5,407.2069,92.5,398.2069,88.5,402.2069,84.5,398.2069,88.5,407.2069" style="stroke:#008000;stroke-width:1;"/><path d="M93.5,344.2969 L93.5,384.2969 L297.5,384.2969 L297.5,354.2969 L287.5,344.2969 L93.5,344.2969" fill="#FEFFDD" style="stroke:#181818;stroke-width:0.5;"/><path d="M287.5,344.2969 L287.5,354.2969 L297.5,354.2969 L287.5,344.2969" fill="#FEFFDD" style="stroke:#181818;stroke-width:0.5;"/><text fill="#000000" font-family="sans-serif" font-size="13" font-weight="bold" lengthAdjust="spacing" textLength="58.9063" x="99.5" y="361.3638">Sistema</text><text fill="#000000" font-family="sans-serif" font-size="13" lengthAdjust="spacing" textLength="120.0723" x="162.5386" y="361.3638">valida los cambios</text><text fill="#000000" font-family="sans-serif" font-size="13" lengthAdjust="spacing" textLength="80.4756" x="99.5" y="376.4966">introducidos</text></g><!--link GuardandoCambios to *end*actualizarCasoUso--><g class="link" data-entity-1="GuardandoCambios" data-entity-2=".end.actualizarCasoUso" data-source-line="26" data-uid="lnk7" id="link_GuardandoCambios_.end.actualizarCasoUso"><path d="M88.5,457.5769 C88.5,483.8769 88.5,518.5669 88.5,537.2769" fill="none" id="GuardandoCambios-to-*end*actualizarCasoUso" style="stroke:#008000;stroke-width:1;"/><polygon fill="#008000" points="88.5,543.2769,92.5,534.2769,88.5,538.2769,84.5,534.2769,88.5,543.2769" style="stroke:#008000;stroke-width:1;"/><path d="M93.5,480.2969 L93.5,520.2969 L334.5,520.2969 L334.5,490.2969 L324.5,480.2969 L93.5,480.2969" fill="#FEFFDD" style="stroke:#181818;stroke-width:0.5;"/><path d="M324.5,480.2969 L324.5,490.2969 L334.5,490.2969 L324.5,480.2969" fill="#FEFFDD" style="stroke:#181818;stroke-width:0.5;"/><text fill="#000000" font-family="sans-serif" font-size="13" font-weight="bold" lengthAdjust="spacing" textLength="58.9063" x="99.5" y="497.3638">Sistema</text><text fill="#000000" font-family="sans-serif" font-size="13" lengthAdjust="spacing" textLength="157.7456" x="162.5386" y="497.3638">guarda la nueva version</text><text fill="#000000" font-family="sans-serif" font-size="13" lengthAdjust="spacing" textLength="101.3149" x="99.5" y="512.4966">del caso de uso</text></g><g id="CASO_USO_ABIERTO"><rect fill="#F1F1F1" height="50" rx="12.5" ry="12.5" style="stroke:#181818;stroke-width:0.5;" width="164.8672" x="7" y="670"/><line style="stroke:#181818;stroke-width:0.5;" x1="7" x2="171.8672" y1="696.2969" y2="696.2969"/><text fill="#000000" font-family="sans-serif" font-size="14" lengthAdjust="spacing" textLength="144.8672" x="17" y="687.9951">CASO_USO_ABIERTO</text></g><g id="CASOS_USO_ABIERTO"><rect fill="#F1F1F1" height="50" rx="12.5" ry="12.5" style="stroke:#181818;stroke-width:0.5;" width="173.7539" x="235.5" y="670"/><line style="stroke:#181818;stroke-width:0.5;" x1="235.5" x2="409.2539" y1="696.2969" y2="696.2969"/><text fill="#000000" font-family="sans-serif" font-size="14" lengthAdjust="spacing" textLength="153.7539" x="245.5" y="687.9951">CASOS_USO_ABIERTO</text></g><!--link actualizarCasoUso to CASO_USO_ABIERTO--><g class="link" data-entity-1="actualizarCasoUso" data-entity-2="CASO_USO_ABIERTO" data-source-line="33" data-uid="lnk9" id="link_actualizarCasoUso_CASO_USO_ABIERTO"><path d="M97.8,575.27 C90.82,593.65 86.5,605 86.5,605 C86.5,605 86.5,640 86.5,640 C86.5,640 87.0265,649.4793 87.8265,663.8493" fill="none" id="actualizarCasoUso-to-CASO_USO_ABIERTO" style="stroke:#008000;stroke-width:1;"/><polygon fill="#008000" points="88.16,669.84,91.6535,660.6316,87.8821,664.8477,83.6659,661.0763,88.16,669.84" style="stroke:#008000;stroke-width:1;"/><path d="M91.5,610 L91.5,635 L274.5,635 L274.5,620 L264.5,610 L91.5,610" fill="#FEFFDD" style="stroke:#181818;stroke-width:0.5;"/><path d="M264.5,610 L264.5,620 L274.5,620 L264.5,610" fill="#FEFFDD" style="stroke:#181818;stroke-width:0.5;"/><text fill="#000000" font-family="sans-serif" font-size="13" lengthAdjust="spacing" textLength="162.4873" x="97.5" y="627.0669">completarActualizacion()</text></g><!--link actualizarCasoUso to CASOS_USO_ABIERTO--><g class="link" data-entity-1="actualizarCasoUso" data-entity-2="CASOS_USO_ABIERTO" data-source-line="38" data-uid="lnk11" id="link_actualizarCasoUso_CASOS_USO_ABIERTO"><path d="M287.87,575.02 C299.26,614.15 307.5138,642.5089 313.7838,664.0589" fill="none" id="actualizarCasoUso-to-CASOS_USO_ABIERTO" style="stroke:#FF0000;stroke-width:1;"/><polygon fill="#FF0000" points="315.46,669.82,316.7864,660.0609,314.0632,665.0191,309.105,662.2958,315.46,669.82" style="stroke:#FF0000;stroke-width:1;"/><path d="M310.5,610 L310.5,635 L484.5,635 L484.5,620 L474.5,610 L310.5,610" fill="#FEFFDD" style="stroke:#181818;stroke-width:0.5;"/><path d="M474.5,610 L474.5,620 L484.5,620 L474.5,610" fill="#FEFFDD" style="stroke:#181818;stroke-width:0.5;"/><text fill="#000000" font-family="sans-serif" font-size="13" lengthAdjust="spacing" textLength="153.2832" x="316.5" y="627.0669">rechazarActualizacion()</text></g><!--SRC=[ZLBDQi904BxlKmpseWNf2uXWHKfFWgadaJ9c1xkusGtx8sZfktTYOZLkB2RaaCdtEnk_KwP4XmLePIWSIeBIwaFr8eGF60Wm3n6rEgARehTBRm4zz99fVz23Ro60hvhNuvkH2yfZIGwDj0qonSoa2ly2tY8wMIEAZRA-zbazhs6uUjew8hCUZkzP6Sj2rbGDTwT1Hk2jLZcRNhM3Q21d6aY2s539o1EzzalrM_PTBHBlqMQSAH-emD7BPWokaGJIYVa1-4kXMC178CbvhUb8TMFRYfJixP5CUzw7HD3MSwGBJPdWh8ovaisW7UFMgfM3J-eXw-r913I2YRH7s9FpvzQoOqL_4Nw4IF_JwmJJIJR_NF8pUNsVBJxceXKbjqMfAQ2Rd4MgPVS7ujAnKzwHF8jdzzNvaB_mU5_y5m00]--></g></svg>