<svg xmlns="http://www.w3.org/2000/svg" xmlns:xlink="http://www.w3.org/1999/xlink" contentStyleType="text/css" data-diagram-type="DESCRIPTION" height="322px" preserveAspectRatio="none" style="width:354px;height:322px;background:#FFFFFF;" version="1.1" viewBox="0 0 354 322" width="354px" zoomAndPan="magnify"><title>Casos de uso - Kiwi TCMS</title><defs/><g><g class="title" data-source-line="2"><text fill="#000000" font-family="sans-serif" font-size="14" font-weight="bold" lengthAdjust="spacing" textLength="200.8398" x="69.5801" y="22.9951">Casos de uso - Kiwi TCMS</text></g><!--cluster Sistema--><g class="cluster" data-entity="Sistema" data-source-line="6" data-uid="ent0003" id="cluster_Sistema"><rect fill="none" height="272" rx="2.5" ry="2.5" style="stroke:#181818;stroke-width:1;" width="226" x="122" y="44.2969"/><text fill="#000000" font-family="sans-serif" font-size="14" font-weight="bold" lengthAdjust="spacing" textLength="63.4375" x="203.2813" y="59.292">Sistema</text></g><!--entity CU01--><g class="entity" data-entity="CU01" data-source-line="7" data-uid="ent0004" id="entity_CU01"><ellipse cx="235.1177" cy="104.2229" fill="#F1F1F1" rx="65.1177" ry="24.9261" style="stroke:#181818;stroke-width:0.5;"/><text fill="#000000" font-family="sans-serif" font-size="14" lengthAdjust="spacing" textLength="92.3398" x="188.9478" y="102.3513">Recibir casos</text><text fill="#000000" font-family="sans-serif" font-size="14" lengthAdjust="spacing" textLength="71.5449" x="199.3453" y="118.6482">de prueba</text></g><!--entity CU02--><g class="entity" data-entity="CU02" data-source-line="8" data-uid="ent0005" id="entity_CU02"><ellipse cx="234.769" cy="189.0829" fill="#F1F1F1" rx="80.769" ry="24.286" style="stroke:#181818;stroke-width:0.5;"/><text fill="#000000" font-family="sans-serif" font-size="14" lengthAdjust="spacing" textLength="119.082" x="175.228" y="188.1865">Almacenar casos</text><text fill="#000000" font-family="sans-serif" font-size="14" lengthAdjust="spacing" textLength="71.5449" x="198.9965" y="204.4833">de prueba</text></g><!--entity CU03--><g class="entity" data-entity="CU03" data-source-line="9" data-uid="ent0006" id="entity_CU03"><ellipse cx="235.1839" cy="274.1431" fill="#F1F1F1" rx="97.1839" ry="25.3462" style="stroke:#181818;stroke-width:0.5;"/><text fill="#000000" font-family="sans-serif" font-size="14" lengthAdjust="spacing" textLength="119.1846" x="175.5916" y="269.6355">Permitir consulta</text><text fill="#000000" font-family="sans-serif" font-size="14" lengthAdjust="spacing" textLength="137.375" x="166.4964" y="285.9324">de casos de prueba</text></g><!--entity Kiwi--><g class="entity" data-entity="Kiwi" data-source-line="4" data-uid="ent0002" id="entity_Kiwi"><ellipse cx="42.0767" cy="159.7969" fill="#F1F1F1" rx="8" ry="8" style="stroke:#181818;stroke-width:0.5;"/><path d="M42.0767,167.7969 L42.0767,194.7969 M29.0767,175.7969 L55.0767,175.7969 M42.0767,194.7969 L29.0767,209.7969 M42.0767,194.7969 L55.0767,209.7969" fill="none" style="stroke:#181818;stroke-width:0.5;"/><text fill="#000000" font-family="sans-serif" font-size="14" lengthAdjust="spacing" textLength="72.1533" x="6" y="224.292">Kiwi TCMS</text></g><!--link Kiwi to CU01--><g class="link" data-entity-1="Kiwi" data-entity-2="CU01" data-source-line="12" data-uid="lnk7" id="link_Kiwi_CU01"><path d="M78.04,166.7869 C89.28,160.0469 101.94,152.9569 114,147.2969 C136.33,136.8069 156.2968,129.2208 178.1268,121.8308" fill="none" id="Kiwi-to-CU01" style="stroke:#181818;stroke-width:1;"/><polygon fill="#181818" points="183.81,119.9069,174.0026,119.0039,179.074,121.5101,176.5678,126.5815,183.81,119.9069" style="stroke:#181818;stroke-width:1;"/></g><!--link Kiwi to CU02--><g class="link" data-entity-1="Kiwi" data-entity-2="CU02" data-source-line="13" data-uid="lnk8" id="link_Kiwi_CU02"><path d="M78.03,189.2969 C99.25,189.2969 121.23,189.2969 147.63,189.2969" fill="none" id="Kiwi-to-CU02" style="stroke:#181818;stroke-width:1;"/><polygon fill="#181818" points="153.63,189.2969,144.63,185.2969,148.63,189.2969,144.63,193.2969,153.63,189.2969" style="stroke:#181818;stroke-width:1;"/></g><!--link Kiwi to CU03--><g class="link" data-entity-1="Kiwi" data-entity-2="CU03" data-source-line="14" data-uid="lnk9" id="link_Kiwi_CU03"><path d="M78.04,211.8069 C89.28,218.5469 101.94,225.6369 114,231.2969 C132.53,239.9969 147.6718,246.0307 166.6918,252.7407" fill="none" id="Kiwi-to-CU03" style="stroke:#181818;stroke-width:1;"/><polygon fill="#181818" points="172.35,254.7369,165.1934,247.9705,167.6348,253.0734,162.5319,255.5148,172.35,254.7369" style="stroke:#181818;stroke-width:1;"/></g><!--SRC=[TO-n2i9044Jx_Ohb-e0clI0fHH2ZdStciiQ5ovtSRR0G_zqaeYI5vSpEl6KSNnKrO9JsfjX8PAiIFAYeOomfXOGDOvy2PhYJX-2ft5S0P3L4D3_78ANf3Z0YoBT3tLIIb3io-0GS66mf3UwHhTGIqOxqYn_mzzXpJHEZFA_My_3MTMJPq_zuFeyVE7QY8ppur3kbgM2_EvRD0bu0quGistm-prM-KCKR]--></g></svg>