<svg xmlns="http://www.w3.org/2000/svg" xmlns:xlink="http://www.w3.org/1999/xlink" contentStyleType="text/css" data-diagram-type="DESCRIPTION" height="581px" preserveAspectRatio="none" style="width:810px;height:581px;background:#FFFFFF;" version="1.1" viewBox="0 0 810 581" width="810px" zoomAndPan="magnify"><defs/><g><!--cluster Contexto organizativo--><g class="cluster" data-entity="Contexto organizativo" data-source-line="1" data-uid="ent0002" id="cluster_Contexto organizativo"><rect fill="none" height="87" rx="2.5" ry="2.5" style="stroke:#181818;stroke-width:1;" width="190" x="614" y="141"/><text fill="#000000" font-family="sans-serif" font-size="14" font-weight="bold" lengthAdjust="spacing" textLength="174.8496" x="621.5752" y="155.9951">Contexto organizativo</text></g><!--cluster Modelo de Dominio--><g class="cluster" data-entity="Modelo de Dominio" data-source-line="5" data-uid="ent0004" id="cluster_Modelo de Dominio"><rect fill="none" height="568.5" rx="2.5" ry="2.5" style="stroke:#181818;stroke-width:1;" width="341" x="7" y="7"/><text fill="#000000" font-family="sans-serif" font-size="14" font-weight="bold" lengthAdjust="spacing" textLength="151.7578" x="101.6211" y="21.9951">Modelo de Dominio</text></g><!--entity Proyecto--><g class="entity" data-entity="Proyecto" data-source-line="2" data-uid="ent0003" id="entity_Proyecto"><rect fill="#F1F1F1" height="36.2969" rx="2.5" ry="2.5" style="stroke:#181818;stroke-width:0.5;" width="81.4141" x="631.5" y="176"/><text fill="#000000" font-family="sans-serif" font-size="14" lengthAdjust="spacing" textLength="61.4141" x="641.5" y="198.9951">Proyecto</text></g><!--entity Documentacion--><g class="entity" data-entity="Documentacion" data-source-line="6" data-uid="ent0005" id="entity_Documentacion"><rect fill="#F1F1F1" height="36.2969" rx="2.5" ry="2.5" style="stroke:#181818;stroke-width:0.5;" width="130.1338" x="202" y="297.5"/><text fill="#000000" font-family="sans-serif" font-size="14" lengthAdjust="spacing" textLength="110.1338" x="212" y="320.4951">Documentacion</text></g><!--entity CasoDeUso--><g class="entity" data-entity="CasoDeUso" data-source-line="7" data-uid="ent0006" id="entity_CasoDeUso"><rect fill="#F1F1F1" height="36.2969" rx="2.5" ry="2.5" style="stroke:#181818;stroke-width:0.5;" width="99.7139" x="186" y="410.5"/><text fill="#000000" font-family="sans-serif" font-size="14" lengthAdjust="spacing" textLength="79.7139" x="196" y="433.4951">CasoDeUso</text></g><!--entity RequisitoFuncional--><g class="entity" data-entity="RequisitoFuncional" data-source-line="8" data-uid="ent0007" id="entity_RequisitoFuncional"><rect fill="#F1F1F1" height="36.2969" rx="2.5" ry="2.5" style="stroke:#181818;stroke-width:0.5;" width="152.5215" x="159.5" y="523.5"/><text fill="#000000" font-family="sans-serif" font-size="14" lengthAdjust="spacing" textLength="132.5215" x="169.5" y="546.4951">RequisitoFuncional</text></g><!--entity EscenarioGherkin--><g class="entity" data-entity="EscenarioGherkin" data-source-line="9" data-uid="ent0008" id="entity_EscenarioGherkin"><rect fill="#F1F1F1" height="36.2969" rx="2.5" ry="2.5" style="stroke:#181818;stroke-width:0.5;" width="143.0742" x="23.5" y="297.5"/><text fill="#000000" font-family="sans-serif" font-size="14" lengthAdjust="spacing" textLength="123.0742" x="33.5" y="320.4951">EscenarioGherkin</text></g><!--entity Borrador--><g class="entity" data-entity="Borrador" data-source-line="10" data-uid="ent0009" id="entity_Borrador"><rect fill="#F1F1F1" height="36.2969" rx="2.5" ry="2.5" style="stroke:#181818;stroke-width:0.5;" width="81.4688" x="140.5" y="176"/><text fill="#000000" font-family="sans-serif" font-size="14" lengthAdjust="spacing" textLength="61.4688" x="150.5" y="198.9951">Borrador</text></g><!--entity CasoPrueba--><g class="entity" data-entity="CasoPrueba" data-source-line="11" data-uid="ent0010" id="entity_CasoPrueba"><rect fill="#F1F1F1" height="36.2969" rx="2.5" ry="2.5" style="stroke:#181818;stroke-width:0.5;" width="103.3643" x="210.5" y="42"/><text fill="#000000" font-family="sans-serif" font-size="14" lengthAdjust="spacing" textLength="83.3643" x="220.5" y="64.9951">CasoPrueba</text></g><!--entity KiwiTCMS--><g class="entity" data-entity="KiwiTCMS" data-source-line="28" data-uid="ent0019" id="entity_KiwiTCMS"><rect fill="#F1F1F1" height="52.5938" rx="2.5" ry="2.5" style="stroke:#181818;stroke-width:0.5;" width="233.4453" x="363.5" y="167.5"/><text fill="#000000" font-family="sans-serif" font-size="14" lengthAdjust="spacing" textLength="67.7031" x="373.5" y="190.4951">KiwiTCMS</text><text fill="#000000" font-family="sans-serif" font-size="14" lengthAdjust="spacing" textLength="213.4453" x="373.5" y="206.792">[sistema externo participante]</text></g><!--reverse link Proyecto to Documentacion--><g class="link" data-entity-1="Proyecto" data-entity-2="Documentacion" data-source-line="13" data-uid="lnk11" id="link_Proyecto_Documentacion"><path d="M642.5369,219.4989 C631.8669,227.8189 627.63,229.93 614,236 C520.9,277.45 403.66,298.08 332.07,307.51" fill="none" id="Proyecto-backto-Documentacion" style="stroke:#181818;stroke-width:1;"/><polygon fill="none" points="652,212.12,644.8088,212.6551,642.5369,219.4989,649.7281,218.9639,652,212.12" style="stroke:#181818;stroke-width:1;"/></g><!--reverse link Documentacion to CasoDeUso--><g class="link" data-entity-1="Documentacion" data-entity-2="CasoDeUso" data-source-line="15" data-uid="lnk12" id="link_Documentacion_CasoDeUso"><path d="M258.93,345.3971 C253.1,366.2571 246.62,389.48 240.81,410.28" fill="none" id="Documentacion-backto-CasoDeUso" style="stroke:#181818;stroke-width:1;"/><polygon fill="none" points="262.16,333.84,256.6926,338.5419,258.93,345.3971,264.3974,340.6952,262.16,333.84" style="stroke:#181818;stroke-width:1;"/></g><!--reverse link Documentacion to RequisitoFuncional--><g class="link" data-entity-1="Documentacion" data-entity-2="RequisitoFuncional" data-source-line="16" data-uid="lnk13" id="link_Documentacion_RequisitoFuncional"><path d="M283.769,344.0544 C298.009,368.8344 314.16,405.74 304,446.5 C296.3,477.38 272.2,505.95 254.88,523.3" fill="none" id="Documentacion-backto-RequisitoFuncional" style="stroke:#181818;stroke-width:1;"/><polygon fill="none" points="277.79,333.65,277.3113,340.8452,283.769,344.0544,284.2476,336.8592,277.79,333.65" style="stroke:#181818;stroke-width:1;"/></g><!--link CasoDeUso to RequisitoFuncional--><g class="link" data-entity-1="CasoDeUso" data-entity-2="RequisitoFuncional" data-source-line="18" data-uid="lnk14" id="link_CasoDeUso_RequisitoFuncional"><path d="M236,446.84 C236,467.7 236,502.48 236,523.28" fill="none" id="CasoDeUso-RequisitoFuncional" style="stroke:#181818;stroke-width:1;"/><text fill="#000000" font-family="sans-serif" font-size="13" lengthAdjust="spacing" textLength="33.1982" x="237" y="489.5669">traza</text></g><!--link EscenarioGherkin to CasoDeUso--><g class="link" data-entity-1="EscenarioGherkin" data-entity-2="CasoDeUso" data-source-line="20" data-uid="lnk15" id="link_EscenarioGherkin_CasoDeUso"><path d="M112.17,333.6 C125.94,346.97 146.05,365.71 165,380.5 C178.63,391.14 189.5822,398.6421 202.9322,407.1621" fill="none" id="EscenarioGherkin-to-CasoDeUso" style="stroke:#181818;stroke-width:1;"/><polygon fill="#181818" points="207.99,410.39,202.5553,402.1764,203.7752,407.7001,198.2515,408.92,207.99,410.39" style="stroke:#181818;stroke-width:1;"/><text fill="#000000" font-family="sans-serif" font-size="13" lengthAdjust="spacing" textLength="74.5596" x="166" y="376.5669">cubre/traza</text></g><!--link EscenarioGherkin to RequisitoFuncional--><g class="link" data-entity-1="EscenarioGherkin" data-entity-2="RequisitoFuncional" data-source-line="21" data-uid="lnk16" id="link_EscenarioGherkin_RequisitoFuncional"><path d="M87.96,333.78 C78.49,359.97 65,410.48 85,446.5 C105.99,484.29 143.6412,506.5532 178.4812,521.0632" fill="none" id="EscenarioGherkin-to-RequisitoFuncional" style="stroke:#181818;stroke-width:1;"/><polygon fill="#181818" points="184.02,523.37,177.2496,516.2173,179.4043,521.4477,174.1739,523.6024,184.02,523.37" style="stroke:#181818;stroke-width:1;"/><text fill="#000000" font-family="sans-serif" font-size="13" lengthAdjust="spacing" textLength="82.8242" x="86" y="433.0669">cubre / traza</text></g><!--reverse link Borrador to EscenarioGherkin--><g class="link" data-entity-1="Borrador" data-entity-2="EscenarioGherkin" data-source-line="23" data-uid="lnk17" id="link_Borrador_EscenarioGherkin"><path d="M161.6707,221.8601 C145.3207,244.5801 123.64,274.71 107.3,297.41" fill="none" id="Borrador-backto-EscenarioGherkin" style="stroke:#181818;stroke-width:1;"/><polygon fill="none" points="168.68,212.12,161.9287,214.6536,161.6707,221.8601,168.4221,219.3265,168.68,212.12" style="stroke:#181818;stroke-width:1;"/><text fill="#000000" font-family="sans-serif" font-size="13" lengthAdjust="spacing" textLength="56.2847" x="141" y="263.5669">contiene</text></g><!--link CasoPrueba to Borrador--><g class="link" data-entity-1="CasoPrueba" data-entity-2="Borrador" data-source-line="25" data-uid="lnk18" id="link_CasoPrueba_Borrador"><path d="M251.41,78.26 C235.89,103.55 210.2588,145.3265 194.7288,170.6265" fill="none" id="CasoPrueba-to-Borrador" style="stroke:#181818;stroke-width:1;"/><polygon fill="#181818" points="191.59,175.74,199.7072,170.1623,194.2057,171.4788,192.8893,165.9772,191.59,175.74" style="stroke:#181818;stroke-width:1;"/><text fill="#000000" font-family="sans-serif" font-size="13" lengthAdjust="spacing" textLength="61.2485" x="232" y="121.0669">deriva de</text></g><!--link CasoPrueba to KiwiTCMS--><g class="link" data-entity-1="CasoPrueba" data-entity-2="KiwiTCMS" data-source-line="29" data-uid="lnk20" id="link_CasoPrueba_KiwiTCMS"><path d="M290.5,78.26 C328.01,100.97 389.1174,137.9725 432.5074,164.2425" fill="none" id="CasoPrueba-to-KiwiTCMS" style="stroke:#181818;stroke-width:1;"/><polygon fill="#181818" points="437.64,167.35,432.0128,159.2671,433.3628,164.7604,427.8694,166.1105,437.64,167.35" style="stroke:#181818;stroke-width:1;"/><text fill="#000000" font-family="sans-serif" font-size="13" lengthAdjust="spacing" textLength="55.7324" x="365" y="121.0669">registrar</text></g><!--SRC=[TL8zJyD03DtlLrZPg-uP64Y00LMg-9Y0mKsiO96SY-zIe8Z_ZacLj4dATBhdz_oUxwnKHFHLJP1auYDzHW7H2ZtlCV9E4lXs03gmrYfVTX7tuzmHJLPIKYrG4kJIiEUPBfUYRSX7B5Zyg99Xa9mUWupGEtflEN2KwzR_IR0UbQz2GHwLvUQLz8t77Iz55KlHcSrQMzgWCxmV0sInc6IpwWZeAASXvzKpOOqtQE0i1LA8YlikpdGSKroSw5CesetIyi3_XtxMeTF1ykZKlqsNUzR71BO4J9xw0GvFrXaCqjJ-MNc7TapMu9O_-25RtJ_xfy0XKeDW6qNg1RQeaGlUeYtPIm8Oe2UxYK-FcuzIPMqKzHS0]--></g></svg>