<svg xmlns="http://www.w3.org/2000/svg" xmlns:xlink="http://www.w3.org/1999/xlink" contentStyleType="text/css" data-diagram-type="DESCRIPTION" height="458px" preserveAspectRatio="none" style="width:813px;height:458px;background:#FFFFFF;" version="1.1" viewBox="0 0 813 458" width="813px" zoomAndPan="magnify"><defs/><g><!--cluster Contexto organizativo--><g class="cluster" data-entity="Contexto organizativo" data-source-line="1" data-uid="ent0002" id="cluster_Contexto organizativo"><rect fill="none" height="87" rx="2.5" ry="2.5" style="stroke:#181818;stroke-width:1;" width="190" x="617.5" y="7"/><text fill="#000000" font-family="sans-serif" font-size="14" font-weight="bold" lengthAdjust="spacing" textLength="174.8496" x="625.0752" y="21.9951">Contexto organizativo</text></g><!--cluster Modelo de Dominio--><g class="cluster" data-entity="Modelo de Dominio" data-source-line="5" data-uid="ent0004" id="cluster_Modelo de Dominio"><rect fill="none" height="445" rx="2.5" ry="2.5" style="stroke:#181818;stroke-width:1;" width="335" x="258.5" y="7"/><text fill="#000000" font-family="sans-serif" font-size="14" font-weight="bold" lengthAdjust="spacing" textLength="151.7578" x="350.1211" y="21.9951">Modelo de Dominio</text></g><!--entity Proyecto--><g class="entity" data-entity="Proyecto" data-source-line="2" data-uid="ent0003" id="entity_Proyecto"><rect fill="#F1F1F1" height="36.2969" rx="2.5" ry="2.5" style="stroke:#181818;stroke-width:0.5;" width="81.4141" x="634" y="42"/><text fill="#000000" font-family="sans-serif" font-size="14" lengthAdjust="spacing" textLength="61.4141" x="644" y="64.9951">Proyecto</text></g><!--entity Documentacion--><g class="entity" data-entity="Documentacion" data-source-line="6" data-uid="ent0005" id="entity_Documentacion"><rect fill="#F1F1F1" height="36.2969" rx="2.5" ry="2.5" style="stroke:#181818;stroke-width:0.5;" width="130.1338" x="447.5" y="165.5"/><text fill="#000000" font-family="sans-serif" font-size="14" lengthAdjust="spacing" textLength="110.1338" x="457.5" y="188.4951">Documentacion</text></g><!--entity CasoDeUso--><g class="entity" data-entity="CasoDeUso" data-source-line="7" data-uid="ent0006" id="entity_CasoDeUso"><rect fill="#F1F1F1" height="36.2969" rx="2.5" ry="2.5" style="stroke:#181818;stroke-width:0.5;" width="99.7139" x="399.5" y="287"/><text fill="#000000" font-family="sans-serif" font-size="14" lengthAdjust="spacing" textLength="79.7139" x="409.5" y="309.9951">CasoDeUso</text></g><!--entity RequisitoFuncional--><g class="entity" data-entity="RequisitoFuncional" data-source-line="8" data-uid="ent0007" id="entity_RequisitoFuncional"><rect fill="#F1F1F1" height="36.2969" rx="2.5" ry="2.5" style="stroke:#181818;stroke-width:0.5;" width="152.5215" x="373" y="400"/><text fill="#000000" font-family="sans-serif" font-size="14" lengthAdjust="spacing" textLength="132.5215" x="383" y="422.9951">RequisitoFuncional</text></g><!--entity EscenarioPrueba--><g class="entity" data-entity="EscenarioPrueba" data-source-line="9" data-uid="ent0008" id="entity_EscenarioPrueba"><rect fill="#F1F1F1" height="36.2969" rx="2.5" ry="2.5" style="stroke:#181818;stroke-width:0.5;" width="137.2637" x="275" y="165.5"/><text fill="#000000" font-family="sans-serif" font-size="14" lengthAdjust="spacing" textLength="117.2637" x="285" y="188.4951">EscenarioPrueba</text></g><!--entity CasoPrueba--><g class="entity" data-entity="CasoPrueba" data-source-line="10" data-uid="ent0009" id="entity_CasoPrueba"><rect fill="#F1F1F1" height="36.2969" rx="2.5" ry="2.5" style="stroke:#181818;stroke-width:0.5;" width="103.3643" x="283" y="42"/><text fill="#000000" font-family="sans-serif" font-size="14" lengthAdjust="spacing" textLength="83.3643" x="293" y="64.9951">CasoPrueba</text></g><!--entity KiwiTCMS--><g class="entity" data-entity="KiwiTCMS" data-source-line="25" data-uid="ent0017" id="entity_KiwiTCMS"><rect fill="#F1F1F1" height="52.5938" rx="2.5" ry="2.5" style="stroke:#181818;stroke-width:0.5;" width="233.4453" x="7" y="157"/><text fill="#000000" font-family="sans-serif" font-size="14" lengthAdjust="spacing" textLength="67.7031" x="17" y="179.9951">KiwiTCMS</text><text fill="#000000" font-family="sans-serif" font-size="14" lengthAdjust="spacing" textLength="213.4453" x="17" y="196.292">[sistema externo participante]</text></g><!--reverse link Documentacion to CasoDeUso--><g class="link" data-entity-1="Documentacion" data-entity-2="CasoDeUso" data-source-line="12" data-uid="lnk10" id="link_Documentacion_CasoDeUso"><path d="M497.8766,212.2367 C485.9066,234.9567 470.48,264.21 458.51,286.91" fill="none" id="Documentacion-backto-CasoDeUso" style="stroke:#181818;stroke-width:1;"/><polygon fill="none" points="503.47,201.62,497.1344,205.0639,497.8766,212.2367,504.2122,208.7928,503.47,201.62" style="stroke:#181818;stroke-width:1;"/></g><!--reverse link Documentacion to RequisitoFuncional--><g class="link" data-entity-1="Documentacion" data-entity-2="RequisitoFuncional" data-source-line="13" data-uid="lnk11" id="link_Documentacion_RequisitoFuncional"><path d="M517.1808,213.5886 C521.1108,239.9286 525.06,279.87 517.5,323 C513.66,344.88 512.8,351.5 500.5,370 C492.97,381.33 482.15,391.82 472.41,399.99" fill="none" id="Documentacion-backto-RequisitoFuncional" style="stroke:#181818;stroke-width:1;"/><polygon fill="none" points="515.41,201.72,512.3392,208.2446,517.1808,213.5886,520.2516,207.064,515.41,201.72" style="stroke:#181818;stroke-width:1;"/></g><!--link CasoDeUso to RequisitoFuncional--><g class="link" data-entity-1="CasoDeUso" data-entity-2="RequisitoFuncional" data-source-line="15" data-uid="lnk12" id="link_CasoDeUso_RequisitoFuncional"><path d="M449.5,323.34 C449.5,344.2 449.5,378.98 449.5,399.78" fill="none" id="CasoDeUso-RequisitoFuncional" style="stroke:#181818;stroke-width:1;"/><text fill="#000000" font-family="sans-serif" font-size="13" lengthAdjust="spacing" textLength="41.4185" x="450.5" y="366.0669">asocia</text></g><!--link EscenarioPrueba to CasoDeUso--><g class="link" data-entity-1="EscenarioPrueba" data-entity-2="CasoDeUso" data-source-line="17" data-uid="lnk13" id="link_EscenarioPrueba_CasoDeUso"><path d="M358.69,201.62 C378.84,224.34 410.218,259.7218 430.358,282.4218" fill="none" id="EscenarioPrueba-to-CasoDeUso" style="stroke:#181818;stroke-width:1;"/><polygon fill="#181818" points="434.34,286.91,431.3591,277.5231,431.0217,283.1699,425.3749,282.8324,434.34,286.91" style="stroke:#181818;stroke-width:1;"/><text fill="#000000" font-family="sans-serif" font-size="13" lengthAdjust="spacing" textLength="47.9502" x="406.5" y="253.0669">verifica</text></g><!--link EscenarioPrueba to RequisitoFuncional--><g class="link" data-entity-1="EscenarioPrueba" data-entity-2="RequisitoFuncional" data-source-line="18" data-uid="lnk14" id="link_EscenarioPrueba_RequisitoFuncional"><path d="M339.37,201.63 C333.75,228.77 326.3,282.67 344.5,323 C359.8,356.9 388.899,380.4415 414.119,396.6115" fill="none" id="EscenarioPrueba-to-RequisitoFuncional" style="stroke:#181818;stroke-width:1;"/><polygon fill="#181818" points="419.17,399.85,413.7525,391.625,414.9609,397.1513,409.4346,398.3596,419.17,399.85" style="stroke:#181818;stroke-width:1;"/><text fill="#000000" font-family="sans-serif" font-size="13" lengthAdjust="spacing" textLength="36.9814" x="345.5" y="309.5669">cubre</text></g><!--reverse link CasoPrueba to EscenarioPrueba--><g class="link" data-entity-1="CasoPrueba" data-entity-2="EscenarioPrueba" data-source-line="20" data-uid="lnk15" id="link_CasoPrueba_EscenarioPrueba"><path d="M336.6587,90.117 C338.3787,113.277 340.52,142.33 342.24,165.44" fill="none" id="CasoPrueba-backto-EscenarioPrueba" style="stroke:#181818;stroke-width:1;"/><polygon fill="none" points="335.77,78.15,332.2254,84.4298,336.6587,90.117,340.2034,83.8373,335.77,78.15" style="stroke:#181818;stroke-width:1;"/></g><!--reverse link Proyecto to Documentacion--><g class="link" data-entity-1="Proyecto" data-entity-2="Documentacion" data-source-line="23" data-uid="lnk16" id="link_Proyecto_Documentacion"><path d="M642.0311,85.3515 C611.1611,108.5115 566.07,142.33 535.25,165.44" fill="none" id="Proyecto-backto-Documentacion" style="stroke:#181818;stroke-width:1;"/><polygon fill="none" points="651.63,78.15,644.4301,78.5511,642.0311,85.3515,649.2311,84.9504,651.63,78.15" style="stroke:#181818;stroke-width:1;"/></g><!--link CasoPrueba to KiwiTCMS--><g class="link" data-entity-1="CasoPrueba" data-entity-2="KiwiTCMS" data-source-line="26" data-uid="lnk18" id="link_CasoPrueba_KiwiTCMS"><path d="M282.65,67.27 C248.39,73.52 204,85.86 171.5,110 C155.38,121.97 145.8329,135.7492 137.7029,151.3492" fill="none" id="CasoPrueba-to-KiwiTCMS" style="stroke:#181818;stroke-width:1;"/><polygon fill="#181818" points="134.93,156.67,142.6366,150.5375,137.2408,152.236,135.5422,146.8402,134.93,156.67" style="stroke:#181818;stroke-width:1;"/><text fill="#000000" font-family="sans-serif" font-size="13" lengthAdjust="spacing" textLength="156.4951" x="172.5" y="123.0669">publicar / sincronizar en</text></g><!--SRC=[TLBBJiD03BpdAwpSA-uzS4dWWYfL54x0mTcQob9Y1-zkUOb_PrCrfTk4uuvdF6FD6hc0ici9oaebq4TGKDkXy1S6tci9tmM0dLXhqy_qqEAdAFxGSgLRQXMs1BLsB3pHrUfYHnBGiKesgT1hJOzUC_IUtY9x3deRPP1Wcurll2D1OrrRf0Od2uzmmZDZqCKYCvnEPumJxwI1MGei8H4S7nmliYN5zPb-2NioVcM7_r1djxlO68r1ZkGXxUM2ePQneWCXFp3hx8xV-Q5QRPxboRCFr26a-ib4eKSBxBZ7z2DUodGRZEJYBC2GTiHJnZusRJhBu0eyYpCT_f01oIy0]--></g></svg>