<svg xmlns="http://www.w3.org/2000/svg" xmlns:xlink="http://www.w3.org/1999/xlink" contentStyleType="text/css" data-diagram-type="STATE" height="756px" preserveAspectRatio="none" style="width:515px;height:756px;background:#FFFFFF;" version="1.1" viewBox="0 0 515 756" width="515px" zoomAndPan="magnify"><defs/><g><path d="M37,7 L420,7 A12.5,12.5 0 0 1 432.5,19.5 L432.5,33.2969 L24.5,33.2969 L24.5,19.5 A12.5,12.5 0 0 1 37,7" fill="#F1F1F1"/><rect fill="none" height="598.2969" rx="12.5" ry="12.5" style="stroke:#181818;stroke-width:0.5;" width="408" x="24.5" y="7"/><line style="stroke:#181818;stroke-width:0.5;" x1="24.5" x2="432.5" y1="33.2969" y2="33.2969"/><text fill="#000000" font-family="sans-serif" font-size="14" lengthAdjust="spacing" textLength="190.5586" x="133.2207" y="24.9951">generarEscenariosPrueba()</text><g id="generarEscenariosPrueba.MostrandoInformacionFuncional"><rect fill="#F1F1F1" height="50" rx="12.5" ry="12.5" style="stroke:#181818;stroke-width:0.5;" width="50" x="36.5" y="135.2969"/><line style="stroke:#181818;stroke-width:0.5;" x1="36.5" x2="86.5" y1="161.5938" y2="161.5938"/><text fill="#000000" font-family="sans-serif" font-size="14" lengthAdjust="spacing" textLength="4.4502" x="59.2749" y="153.292">&#160;</text></g><g id="generarEscenariosPrueba.SeleccionandoArtefactos"><rect fill="#F1F1F1" height="50" rx="12.5" ry="12.5" style="stroke:#181818;stroke-width:0.5;" width="50" x="36.5" y="301.2969"/><line style="stroke:#181818;stroke-width:0.5;" x1="36.5" x2="86.5" y1="327.5938" y2="327.5938"/><text fill="#000000" font-family="sans-serif" font-size="14" lengthAdjust="spacing" textLength="4.4502" x="59.2749" y="319.292">&#160;</text></g><g id="generarEscenariosPrueba.GenerandoEscenarios"><rect fill="#F1F1F1" height="50" rx="12.5" ry="12.5" style="stroke:#181818;stroke-width:0.5;" width="50" x="36.5" y="437.2969"/><line style="stroke:#181818;stroke-width:0.5;" x1="36.5" x2="86.5" y1="463.5938" y2="463.5938"/><text fill="#000000" font-family="sans-serif" font-size="14" lengthAdjust="spacing" textLength="4.4502" x="59.2749" y="455.292">&#160;</text></g><ellipse cx="61.5" cy="54.2969" fill="#222222" rx="10" ry="10" style="stroke:#222222;stroke-width:1;"/><ellipse cx="61.5" cy="584.2969" fill="none" rx="11" ry="11" style="stroke:#222222;stroke-width:1;"/><ellipse cx="61.5" cy="584.2969" fill="#222222" rx="6" ry="6" style="stroke:#222222;stroke-width:1;"/><!--link *start*generarEscenariosPrueba to MostrandoInformacionFuncional--><g class="link" data-entity-1=".start.generarEscenariosPrueba" data-entity-2="MostrandoInformacionFuncional" data-source-line="9" data-uid="lnk3" id="link_.start.generarEscenariosPrueba_MostrandoInformacionFuncional"><path d="M61.5,64.5269 C61.5,80.2369 61.5,106.6569 61.5,129.1669" fill="none" id="*start*generarEscenariosPrueba-to-MostrandoInformacionFuncional" style="stroke:#008000;stroke-width:1;"/><polygon fill="#008000" points="61.5,135.1669,65.5,126.1669,61.5,130.1669,57.5,126.1669,61.5,135.1669" style="stroke:#008000;stroke-width:1;"/><path d="M66.5,87.2969 L66.5,112.2969 L352.5,112.2969 L352.5,97.2969 L342.5,87.2969 L66.5,87.2969" fill="#FEFFDD" style="stroke:#181818;stroke-width:0.5;"/><path d="M342.5,87.2969 L342.5,97.2969 L352.5,97.2969 L342.5,87.2969" fill="#FEFFDD" style="stroke:#181818;stroke-width:0.5;"/><text fill="#000000" font-family="sans-serif" font-size="13" lengthAdjust="spacing" textLength="265.9351" x="72.5" y="104.3638">Se solicita generar escenarios de prueba</text></g><!--link MostrandoInformacionFuncional to SeleccionandoArtefactos--><g class="link" data-entity-1="MostrandoInformacionFuncional" data-entity-2="SeleccionandoArtefactos" data-source-line="14" data-uid="lnk4" id="link_MostrandoInformacionFuncional_SeleccionandoArtefactos"><path d="M61.5,185.4969 C61.5,216.5869 61.5,264.2469 61.5,295.2669" fill="none" id="MostrandoInformacionFuncional-to-SeleccionandoArtefactos" style="stroke:#008000;stroke-width:1;"/><polygon fill="#008000" points="61.5,301.2669,65.5,292.2669,61.5,296.2669,57.5,292.2669,61.5,301.2669" style="stroke:#008000;stroke-width:1;"/><path d="M66.5,208.2969 L66.5,278.2969 L423.5,278.2969 L423.5,218.2969 L413.5,208.2969 L66.5,208.2969" fill="#FEFFDD" style="stroke:#181818;stroke-width:0.5;"/><path d="M413.5,208.2969 L413.5,218.2969 L423.5,218.2969 L413.5,208.2969" fill="#FEFFDD" style="stroke:#181818;stroke-width:0.5;"/><text fill="#000000" font-family="sans-serif" font-size="13" font-weight="bold" lengthAdjust="spacing" textLength="58.9063" x="72.5" y="225.3638">Sistema</text><text fill="#000000" font-family="sans-serif" font-size="13" lengthAdjust="spacing" textLength="273.5142" x="135.5386" y="225.3638">presenta informaci&#243;n funcional disponible</text><text fill="#000000" font-family="sans-serif" font-size="13" lengthAdjust="spacing" textLength="97.8237" x="72.5" y="240.4966">&#8226; Casos de uso</text><text fill="#000000" font-family="sans-serif" font-size="13" lengthAdjust="spacing" textLength="157.6313" x="72.5" y="255.6294">&#8226; Requisitos funcionales</text><text fill="#000000" font-family="sans-serif" font-size="13" lengthAdjust="spacing" textLength="252.3574" x="72.5" y="270.7622">Se selecciona los artefactos de partida</text></g><!--link SeleccionandoArtefactos to GenerandoEscenarios--><g class="link" data-entity-1="SeleccionandoArtefactos" data-entity-2="GenerandoEscenarios" data-source-line="22" data-uid="lnk5" id="link_SeleccionandoArtefactos_GenerandoEscenarios"><path d="M61.5,351.5669 C61.5,375.8469 61.5,406.9869 61.5,431.2069" fill="none" id="SeleccionandoArtefactos-to-GenerandoEscenarios" style="stroke:#008000;stroke-width:1;"/><polygon fill="#008000" points="61.5,437.2069,65.5,428.2069,61.5,432.2069,57.5,428.2069,61.5,437.2069" style="stroke:#008000;stroke-width:1;"/><path d="M66.5,374.2969 L66.5,414.2969 L345.5,414.2969 L345.5,384.2969 L335.5,374.2969 L66.5,374.2969" fill="#FEFFDD" style="stroke:#181818;stroke-width:0.5;"/><path d="M335.5,374.2969 L335.5,384.2969 L345.5,384.2969 L335.5,374.2969" fill="#FEFFDD" style="stroke:#181818;stroke-width:0.5;"/><text fill="#000000" font-family="sans-serif" font-size="13" font-weight="bold" lengthAdjust="spacing" textLength="58.9063" x="72.5" y="391.3638">Sistema</text><text fill="#000000" font-family="sans-serif" font-size="13" lengthAdjust="spacing" textLength="195.4316" x="135.5386" y="391.3638">procesa la selecci&#243;n realizada</text><text fill="#000000" font-family="sans-serif" font-size="13" lengthAdjust="spacing" textLength="155.543" x="72.5" y="406.4966">y prepara la generaci&#243;n</text></g><!--link GenerandoEscenarios to *end*generarEscenariosPrueba--><g class="link" data-entity-1="GenerandoEscenarios" data-entity-2=".end.generarEscenariosPrueba" data-source-line="28" data-uid="lnk7" id="link_GenerandoEscenarios_.end.generarEscenariosPrueba"><path d="M61.5,487.5769 C61.5,513.8769 61.5,548.5669 61.5,567.2769" fill="none" id="GenerandoEscenarios-to-*end*generarEscenariosPrueba" style="stroke:#008000;stroke-width:1;"/><polygon fill="#008000" points="61.5,573.2769,65.5,564.2769,61.5,568.2769,57.5,564.2769,61.5,573.2769" style="stroke:#008000;stroke-width:1;"/><path d="M66.5,510.2969 L66.5,550.2969 L400.5,550.2969 L400.5,520.2969 L390.5,510.2969 L66.5,510.2969" fill="#FEFFDD" style="stroke:#181818;stroke-width:0.5;"/><path d="M390.5,510.2969 L390.5,520.2969 L400.5,520.2969 L390.5,510.2969" fill="#FEFFDD" style="stroke:#181818;stroke-width:0.5;"/><text fill="#000000" font-family="sans-serif" font-size="13" font-weight="bold" lengthAdjust="spacing" textLength="58.9063" x="72.5" y="527.3638">Sistema</text><text fill="#000000" font-family="sans-serif" font-size="13" lengthAdjust="spacing" textLength="250.9609" x="135.5386" y="527.3638">genera escenarios en formato Gherkin</text><text fill="#000000" font-family="sans-serif" font-size="13" lengthAdjust="spacing" textLength="206.0195" x="72.5" y="542.4966">y los almacena para su revisi&#243;n</text></g><g id="ESCENARIOS_ABIERTO"><rect fill="#F1F1F1" height="50" rx="12.5" ry="12.5" style="stroke:#181818;stroke-width:0.5;" width="178.6211" x="7" y="700"/><line style="stroke:#181818;stroke-width:0.5;" x1="7" x2="185.6211" y1="726.2969" y2="726.2969"/><text fill="#000000" font-family="sans-serif" font-size="14" lengthAdjust="spacing" textLength="158.6211" x="17" y="717.9951">ESCENARIOS_ABIERTO</text></g><g id="REQUISITOS_FUNCIONALES_ABIERTO"><rect fill="#F1F1F1" height="50" rx="12.5" ry="12.5" style="stroke:#181818;stroke-width:0.5;" width="280.1758" x="221.5" y="700"/><line style="stroke:#181818;stroke-width:0.5;" x1="221.5" x2="501.6758" y1="726.2969" y2="726.2969"/><text fill="#000000" font-family="sans-serif" font-size="14" lengthAdjust="spacing" textLength="260.1758" x="231.5" y="717.9951">REQUISITOS_FUNCIONALES_ABIERTO</text></g><!--link generarEscenariosPrueba to ESCENARIOS_ABIERTO--><g class="link" data-entity-1="generarEscenariosPrueba" data-entity-2="ESCENARIOS_ABIERTO" data-source-line="35" data-uid="lnk9" id="link_generarEscenariosPrueba_ESCENARIOS_ABIERTO"><path d="M134.15,605.06 C121.7,644.39 112.7309,672.7398 105.9309,694.2198" fill="none" id="generarEscenariosPrueba-to-ESCENARIOS_ABIERTO" style="stroke:#008000;stroke-width:1;"/><polygon fill="#008000" points="104.12,699.94,110.6498,692.5669,105.6291,695.1732,103.0228,690.1524,104.12,699.94" style="stroke:#008000;stroke-width:1;"/><path d="M127.5,640 L127.5,665 L298.5,665 L298.5,650 L288.5,640 L127.5,640" fill="#FEFFDD" style="stroke:#181818;stroke-width:0.5;"/><path d="M288.5,640 L288.5,650 L298.5,650 L288.5,640" fill="#FEFFDD" style="stroke:#181818;stroke-width:0.5;"/><text fill="#000000" font-family="sans-serif" font-size="13" lengthAdjust="spacing" textLength="150.7505" x="133.5" y="657.0669">completarGeneracion()</text></g><!--link generarEscenariosPrueba to REQUISITOS_FUNCIONALES_ABIERTO--><g class="link" data-entity-1="generarEscenariosPrueba" data-entity-2="REQUISITOS_FUNCIONALES_ABIERTO" data-source-line="40" data-uid="lnk11" id="link_generarEscenariosPrueba_REQUISITOS_FUNCIONALES_ABIERTO"><path d="M323.57,605.06 C336.11,644.39 345.157,672.7436 352.007,694.2236" fill="none" id="generarEscenariosPrueba-to-REQUISITOS_FUNCIONALES_ABIERTO" style="stroke:#FF0000;stroke-width:1;"/><polygon fill="#FF0000" points="353.83,699.94,354.9065,690.1501,352.3109,695.1764,347.2847,692.5808,353.83,699.94" style="stroke:#FF0000;stroke-width:1;"/><path d="M346.5,640 L346.5,665 L508.5,665 L508.5,650 L498.5,640 L346.5,640" fill="#FEFFDD" style="stroke:#181818;stroke-width:0.5;"/><path d="M498.5,640 L498.5,650 L508.5,650 L498.5,640" fill="#FEFFDD" style="stroke:#181818;stroke-width:0.5;"/><text fill="#000000" font-family="sans-serif" font-size="13" lengthAdjust="spacing" textLength="141.5464" x="352.5" y="657.0669">rechazarGeneracion()</text></g><!--SRC=[ZPFHIiCm58Rl-nHXtgWWle0CvkX6GJTTzKf4pjgpBPWbDISLfWW-Yw_W8_WcFeadwTOvjewr5oNfd_pV-Kz2pr8NO64kbDJe5WMAmgY57qGHEN0efgZHWeqfGmrM6hgn9Ov108bMmx_ZavPuZoB1JxL7Yr_MNnjo5dHk4ZqnTWwPDBfNQly1jIrFKM4MVlAIZdKuWSmPsXRs0mQBrY2L-yFfepXxE9fQHFrurZu0G1lUrcWVntEOI56GKJAJ3bPH2AnjHCw1XPg367KUTgZSzxfjSEshT8leOjnE9JcSmyNvkCtsIAYPJgvSVhwrcDG-kQJ2Q3bM65R_Vdw9Bb25NfAf9qVuKagIRBjUZ5HdK1CAnGge6KC2F9JvhWWQ2jieVbVt3YlSP4ZC0oiwNxX5KF8DbZGB7uy_u5vLjI_8Tg3kmDZ0vBDq45Rbyl-C8BV3TyOPqP-XvIktP0j9AcuPAqMWf98BUEKsR35-H57JJVnF6QVTUD0P9SFqgNEPnAExORG1d9bveT21xI_3CFhu95ediSV3OkuTHl7jVP8cT-pGknzqa-6WSnKtk5dCPl3MOFO7]--></g></svg>