<svg xmlns="http://www.w3.org/2000/svg" xmlns:xlink="http://www.w3.org/1999/xlink" contentStyleType="text/css" data-diagram-type="STATE" height="771px" preserveAspectRatio="none" style="width:489px;height:771px;background:#FFFFFF;" version="1.1" viewBox="0 0 489 771" width="489px" zoomAndPan="magnify"><defs/><g><path d="M36.5,7 L401.5,7 A12.5,12.5 0 0 1 414,19.5 L414,33.2969 L24,33.2969 L24,19.5 A12.5,12.5 0 0 1 36.5,7" fill="#F1F1F1"/><rect fill="none" height="613.2969" rx="12.5" ry="12.5" style="stroke:#181818;stroke-width:0.5;" width="390" x="24" y="7"/><line style="stroke:#181818;stroke-width:0.5;" x1="24" x2="414" y1="33.2969" y2="33.2969"/><text fill="#000000" font-family="sans-serif" font-size="14" lengthAdjust="spacing" textLength="156.6592" x="140.6704" y="24.9951">generarCasosPrueba()</text><g id="generarCasosPrueba.MostrandoEscenarios"><rect fill="#F1F1F1" height="50" rx="12.5" ry="12.5" style="stroke:#181818;stroke-width:0.5;" width="50" x="36" y="135.2969"/><line style="stroke:#181818;stroke-width:0.5;" x1="36" x2="86" y1="161.5938" y2="161.5938"/><text fill="#000000" font-family="sans-serif" font-size="14" lengthAdjust="spacing" textLength="4.4502" x="58.7749" y="153.292">&#160;</text></g><g id="generarCasosPrueba.SeleccionandoEscenarios"><rect fill="#F1F1F1" height="50" rx="12.5" ry="12.5" style="stroke:#181818;stroke-width:0.5;" width="50" x="36" y="316.2969"/><line style="stroke:#181818;stroke-width:0.5;" x1="36" x2="86" y1="342.5938" y2="342.5938"/><text fill="#000000" font-family="sans-serif" font-size="14" lengthAdjust="spacing" textLength="4.4502" x="58.7749" y="334.292">&#160;</text></g><g id="generarCasosPrueba.GenerandoCasos"><rect fill="#F1F1F1" height="50" rx="12.5" ry="12.5" style="stroke:#181818;stroke-width:0.5;" width="50" x="36" y="452.2969"/><line style="stroke:#181818;stroke-width:0.5;" x1="36" x2="86" y1="478.5938" y2="478.5938"/><text fill="#000000" font-family="sans-serif" font-size="14" lengthAdjust="spacing" textLength="4.4502" x="58.7749" y="470.292">&#160;</text></g><ellipse cx="61" cy="54.2969" fill="#222222" rx="10" ry="10" style="stroke:#222222;stroke-width:1;"/><ellipse cx="61" cy="599.2969" fill="none" rx="11" ry="11" style="stroke:#222222;stroke-width:1;"/><ellipse cx="61" cy="599.2969" fill="#222222" rx="6" ry="6" style="stroke:#222222;stroke-width:1;"/><!--link *start*generarCasosPrueba to MostrandoEscenarios--><g class="link" data-entity-1=".start.generarCasosPrueba" data-entity-2="MostrandoEscenarios" data-source-line="9" data-uid="lnk3" id="link_.start.generarCasosPrueba_MostrandoEscenarios"><path d="M61,64.5269 C61,80.2369 61,106.6569 61,129.1669" fill="none" id="*start*generarCasosPrueba-to-MostrandoEscenarios" style="stroke:#008000;stroke-width:1;"/><polygon fill="#008000" points="61,135.1669,65,126.1669,61,130.1669,57,126.1669,61,135.1669" style="stroke:#008000;stroke-width:1;"/><path d="M66,87.2969 L66,112.2969 L319,112.2969 L319,97.2969 L309,87.2969 L66,87.2969" fill="#FEFFDD" style="stroke:#181818;stroke-width:0.5;"/><path d="M309,87.2969 L309,97.2969 L319,97.2969 L309,87.2969" fill="#FEFFDD" style="stroke:#181818;stroke-width:0.5;"/><text fill="#000000" font-family="sans-serif" font-size="13" lengthAdjust="spacing" textLength="232.7432" x="72" y="104.3638">Se solicita generar casos de prueba</text></g><!--link MostrandoEscenarios to SeleccionandoEscenarios--><g class="link" data-entity-1="MostrandoEscenarios" data-entity-2="SeleccionandoEscenarios" data-source-line="14" data-uid="lnk4" id="link_MostrandoEscenarios_SeleccionandoEscenarios"><path d="M61,185.4369 C61,219.6969 61,276.0469 61,310.2569" fill="none" id="MostrandoEscenarios-to-SeleccionandoEscenarios" style="stroke:#008000;stroke-width:1;"/><polygon fill="#008000" points="61,316.2569,65,307.2569,61,311.2569,57,307.2569,61,316.2569" style="stroke:#008000;stroke-width:1;"/><path d="M66,208.2969 L66,293.2969 L401,293.2969 L401,218.2969 L391,208.2969 L66,208.2969" fill="#FEFFDD" style="stroke:#181818;stroke-width:0.5;"/><path d="M391,208.2969 L391,218.2969 L401,218.2969 L391,208.2969" fill="#FEFFDD" style="stroke:#181818;stroke-width:0.5;"/><text fill="#000000" font-family="sans-serif" font-size="13" font-weight="bold" lengthAdjust="spacing" textLength="58.9063" x="72" y="225.3638">Sistema</text><text fill="#000000" font-family="sans-serif" font-size="13" lengthAdjust="spacing" textLength="209.0664" x="135.0386" y="225.3638">presenta escenarios disponibles</text><text fill="#000000" font-family="sans-serif" font-size="13" lengthAdjust="spacing" textLength="93.6851" x="72" y="240.4966">&#8226; Identificador</text><text fill="#000000" font-family="sans-serif" font-size="13" lengthAdjust="spacing" textLength="63.7368" x="72" y="255.6294">&#8226; Nombre</text><text fill="#000000" font-family="sans-serif" font-size="13" lengthAdjust="spacing" textLength="56.0562" x="72" y="270.7622">&#8226; Estado</text><text fill="#000000" font-family="sans-serif" font-size="13" lengthAdjust="spacing" textLength="314.7041" x="72" y="285.895">Se muestra/selecciona los escenarios de partida</text></g><!--link SeleccionandoEscenarios to GenerandoCasos--><g class="link" data-entity-1="SeleccionandoEscenarios" data-entity-2="GenerandoCasos" data-source-line="23" data-uid="lnk5" id="link_SeleccionandoEscenarios_GenerandoCasos"><path d="M61,366.5669 C61,390.8469 61,421.9869 61,446.2069" fill="none" id="SeleccionandoEscenarios-to-GenerandoCasos" style="stroke:#008000;stroke-width:1;"/><polygon fill="#008000" points="61,452.2069,65,443.2069,61,447.2069,57,443.2069,61,452.2069" style="stroke:#008000;stroke-width:1;"/><path d="M66,389.2969 L66,429.2969 L297,429.2969 L297,399.2969 L287,389.2969 L66,389.2969" fill="#FEFFDD" style="stroke:#181818;stroke-width:0.5;"/><path d="M287,389.2969 L287,399.2969 L297,399.2969 L287,389.2969" fill="#FEFFDD" style="stroke:#181818;stroke-width:0.5;"/><text fill="#000000" font-family="sans-serif" font-size="13" font-weight="bold" lengthAdjust="spacing" textLength="58.9063" x="72" y="406.3638">Sistema</text><text fill="#000000" font-family="sans-serif" font-size="13" lengthAdjust="spacing" textLength="147.8433" x="135.0386" y="406.3638">procesa los escenarios</text><text fill="#000000" font-family="sans-serif" font-size="13" lengthAdjust="spacing" textLength="181.6699" x="72" y="421.4966">y prepara la transformaci&#243;n</text></g><!--link GenerandoCasos to *end*generarCasosPrueba--><g class="link" data-entity-1="GenerandoCasos" data-entity-2=".end.generarCasosPrueba" data-source-line="29" data-uid="lnk7" id="link_GenerandoCasos_.end.generarCasosPrueba"><path d="M61,502.5769 C61,528.8769 61,563.5669 61,582.2769" fill="none" id="GenerandoCasos-to-*end*generarCasosPrueba" style="stroke:#008000;stroke-width:1;"/><polygon fill="#008000" points="61,588.2769,65,579.2769,61,583.2769,57,579.2769,61,588.2769" style="stroke:#008000;stroke-width:1;"/><path d="M66,525.2969 L66,565.2969 L405,565.2969 L405,535.2969 L395,525.2969 L66,525.2969" fill="#FEFFDD" style="stroke:#181818;stroke-width:0.5;"/><path d="M395,525.2969 L395,535.2969 L405,535.2969 L395,525.2969" fill="#FEFFDD" style="stroke:#181818;stroke-width:0.5;"/><text fill="#000000" font-family="sans-serif" font-size="13" font-weight="bold" lengthAdjust="spacing" textLength="58.9063" x="72" y="542.3638">Sistema</text><text fill="#000000" font-family="sans-serif" font-size="13" lengthAdjust="spacing" textLength="179.5815" x="135.0386" y="542.3638">genera los casos de prueba</text><text fill="#000000" font-family="sans-serif" font-size="13" lengthAdjust="spacing" textLength="318.8555" x="72" y="557.4966">y los deja disponibles para revisi&#243;n o publicaci&#243;n</text></g><g id="CASOS_PRUEBA_ABIERTO"><rect fill="#F1F1F1" height="50" rx="12.5" ry="12.5" style="stroke:#181818;stroke-width:0.5;" width="200.0449" x="7" y="715"/><line style="stroke:#181818;stroke-width:0.5;" x1="7" x2="207.0449" y1="741.2969" y2="741.2969"/><text fill="#000000" font-family="sans-serif" font-size="14" lengthAdjust="spacing" textLength="180.0449" x="17" y="732.9951">CASOS_PRUEBA_ABIERTO</text></g><g id="ESCENARIOS_ABIERTO"><rect fill="#F1F1F1" height="50" rx="12.5" ry="12.5" style="stroke:#181818;stroke-width:0.5;" width="178.6211" x="242.5" y="715"/><line style="stroke:#181818;stroke-width:0.5;" x1="242.5" x2="421.1211" y1="741.2969" y2="741.2969"/><text fill="#000000" font-family="sans-serif" font-size="14" lengthAdjust="spacing" textLength="158.6211" x="252.5" y="732.9951">ESCENARIOS_ABIERTO</text></g><!--link generarCasosPrueba to CASOS_PRUEBA_ABIERTO--><g class="link" data-entity-1="generarCasosPrueba" data-entity-2="CASOS_PRUEBA_ABIERTO" data-source-line="36" data-uid="lnk9" id="link_generarCasosPrueba_CASOS_PRUEBA_ABIERTO"><path d="M117.85,620.23 C111.74,638.69 108,650 108,650 C108,650 107.6383,682.3304 107.3383,708.6804" fill="none" id="generarCasosPrueba-to-CASOS_PRUEBA_ABIERTO" style="stroke:#008000;stroke-width:1;"/><polygon fill="#008000" points="107.27,714.68,111.3722,705.7261,107.3269,709.6803,103.3727,705.635,107.27,714.68" style="stroke:#008000;stroke-width:1;"/><path d="M113,655 L113,680 L284,680 L284,665 L274,655 L113,655" fill="#FEFFDD" style="stroke:#181818;stroke-width:0.5;"/><path d="M274,655 L274,665 L284,665 L274,655" fill="#FEFFDD" style="stroke:#181818;stroke-width:0.5;"/><text fill="#000000" font-family="sans-serif" font-size="13" lengthAdjust="spacing" textLength="150.7505" x="119" y="672.0669">completarGeneracion()</text></g><!--link generarCasosPrueba to ESCENARIOS_ABIERTO--><g class="link" data-entity-1="generarCasosPrueba" data-entity-2="ESCENARIOS_ABIERTO" data-source-line="41" data-uid="lnk11" id="link_generarCasosPrueba_ESCENARIOS_ABIERTO"><path d="M300.37,620.19 C310.79,659.31 318.2465,687.3419 323.9565,708.7919" fill="none" id="generarCasosPrueba-to-ESCENARIOS_ABIERTO" style="stroke:#FF0000;stroke-width:1;"/><polygon fill="#FF0000" points="325.5,714.59,327.0502,704.8639,324.2138,709.7583,319.3194,706.9218,325.5,714.59" style="stroke:#FF0000;stroke-width:1;"/><path d="M320,655 L320,680 L482,680 L482,665 L472,655 L320,655" fill="#FEFFDD" style="stroke:#181818;stroke-width:0.5;"/><path d="M472,655 L472,665 L482,665 L472,655" fill="#FEFFDD" style="stroke:#181818;stroke-width:0.5;"/><text fill="#000000" font-family="sans-serif" font-size="13" lengthAdjust="spacing" textLength="141.5464" x="326" y="672.0669">rechazarGeneracion()</text></g><!--SRC=[ZPDDJiCm48NtESMeR2XIrGkWIgMAK1UqLGChLA69FIscYIUoKwI2a3WBL-08t8IJO3lgJsWAJLPsnkzzRponIwKBD9X3fZILwuAWu6pj5r5aIom95gJ9e1cWPJinAqeHq4BhSFkytOBNA0BtL2TRxdMbDsnBWrfoR0LfD8hjOL526GcXMFzNU1ryNL5mhkpkBsRGkJzR628zw_IEEcfsEgnzrcNOI0WiPqge4ZSvGNXTaAuH8LMe8ot3uSgkGRvc_rUM0uJBj9SeMrAEbzsqvqp9adOujDEMoXQiLPfHfV7z_W53wQhKN0cKRBQx8yvJGzjbx3edUPCqNv7dxjej7cHEVT_8XKPJAjcK-aYgMl9VbtDQO1PaVwE4ohNlXfzEo11yn-sSJOv2VNtg1i2wUOtB3SX9CDKC19QcCLY7BvAUSFzE820QUbRMam53iKhTK3M1laLHm_-qZphe9-FaOJAzYw_w3_shOJoz7KSrRi5vaL69fWhih-Iy7UrwqMnWI7hvE1d4e_vqw3mQnGs9Htmvelq3]--></g></svg>