<svg xmlns="http://www.w3.org/2000/svg" xmlns:xlink="http://www.w3.org/1999/xlink" contentStyleType="text/css" data-diagram-type="STATE" height="786px" preserveAspectRatio="none" style="width:442px;height:786px;background:#FFFFFF;" version="1.1" viewBox="0 0 442 786" width="442px" zoomAndPan="magnify"><defs/><g><path d="M19.5,7 L371.5,7 A12.5,12.5 0 0 1 384,19.5 L384,33.2969 L7,33.2969 L7,19.5 A12.5,12.5 0 0 1 19.5,7" fill="#F1F1F1"/><rect fill="none" height="628.2969" rx="12.5" ry="12.5" style="stroke:#181818;stroke-width:0.5;" width="377" x="7" y="7"/><line style="stroke:#181818;stroke-width:0.5;" x1="7" x2="384" y1="33.2969" y2="33.2969"/><text fill="#000000" font-family="sans-serif" font-size="14" lengthAdjust="spacing" textLength="193.3818" x="98.8091" y="24.9951">incorporarDocumentacion()</text><g id="incorporarDocumentacion.MostrandoFormulario"><rect fill="#F1F1F1" height="50" rx="12.5" ry="12.5" style="stroke:#181818;stroke-width:0.5;" width="50" x="19" y="135.2969"/><line style="stroke:#181818;stroke-width:0.5;" x1="19" x2="69" y1="161.5938" y2="161.5938"/><text fill="#000000" font-family="sans-serif" font-size="14" lengthAdjust="spacing" textLength="4.4502" x="41.7749" y="153.292">&#160;</text></g><g id="incorporarDocumentacion.ValidandoDocumentacion"><rect fill="#F1F1F1" height="50" rx="12.5" ry="12.5" style="stroke:#181818;stroke-width:0.5;" width="50" x="19" y="316.2969"/><line style="stroke:#181818;stroke-width:0.5;" x1="19" x2="69" y1="342.5938" y2="342.5938"/><text fill="#000000" font-family="sans-serif" font-size="14" lengthAdjust="spacing" textLength="4.4502" x="41.7749" y="334.292">&#160;</text></g><g id="incorporarDocumentacion.RegistrandoDocumentacion"><rect fill="#F1F1F1" height="50" rx="12.5" ry="12.5" style="stroke:#181818;stroke-width:0.5;" width="50" x="19" y="467.2969"/><line style="stroke:#181818;stroke-width:0.5;" x1="19" x2="69" y1="493.5938" y2="493.5938"/><text fill="#000000" font-family="sans-serif" font-size="14" lengthAdjust="spacing" textLength="4.4502" x="41.7749" y="485.292">&#160;</text></g><ellipse cx="44" cy="54.2969" fill="#222222" rx="10" ry="10" style="stroke:#222222;stroke-width:1;"/><ellipse cx="44" cy="614.2969" fill="none" rx="11" ry="11" style="stroke:#222222;stroke-width:1;"/><ellipse cx="44" cy="614.2969" fill="#222222" rx="6" ry="6" style="stroke:#222222;stroke-width:1;"/><!--link *start*incorporarDocumentacion to MostrandoFormulario--><g class="link" data-entity-1=".start.incorporarDocumentacion" data-entity-2="MostrandoFormulario" data-source-line="9" data-uid="lnk3" id="link_.start.incorporarDocumentacion_MostrandoFormulario"><path d="M44,64.5269 C44,80.2369 44,106.6569 44,129.1669" fill="none" id="*start*incorporarDocumentacion-to-MostrandoFormulario" style="stroke:#008000;stroke-width:1;"/><polygon fill="#008000" points="44,135.1669,48,126.1669,44,130.1669,40,126.1669,44,135.1669" style="stroke:#008000;stroke-width:1;"/><path d="M49,87.2969 L49,112.2969 L312,112.2969 L312,97.2969 L302,87.2969 L49,87.2969" fill="#FEFFDD" style="stroke:#181818;stroke-width:0.5;"/><path d="M302,87.2969 L302,97.2969 L312,97.2969 L302,87.2969" fill="#FEFFDD" style="stroke:#181818;stroke-width:0.5;"/><text fill="#000000" font-family="sans-serif" font-size="13" lengthAdjust="spacing" textLength="242.0869" x="55" y="104.3638">Se solicita incorporar documentaci&#243;n</text></g><!--link MostrandoFormulario to ValidandoDocumentacion--><g class="link" data-entity-1="MostrandoFormulario" data-entity-2="ValidandoDocumentacion" data-source-line="14" data-uid="lnk4" id="link_MostrandoFormulario_ValidandoDocumentacion"><path d="M44,185.4369 C44,219.6969 44,276.0469 44,310.2569" fill="none" id="MostrandoFormulario-to-ValidandoDocumentacion" style="stroke:#008000;stroke-width:1;"/><polygon fill="#008000" points="44,316.2569,48,307.2569,44,311.2569,40,307.2569,44,316.2569" style="stroke:#008000;stroke-width:1;"/><path d="M49,208.2969 L49,293.2969 L375,293.2969 L375,218.2969 L365,208.2969 L49,208.2969" fill="#FEFFDD" style="stroke:#181818;stroke-width:0.5;"/><path d="M365,208.2969 L365,218.2969 L375,218.2969 L365,208.2969" fill="#FEFFDD" style="stroke:#181818;stroke-width:0.5;"/><text fill="#000000" font-family="sans-serif" font-size="13" font-weight="bold" lengthAdjust="spacing" textLength="58.9063" x="55" y="225.3638">Sistema</text><text fill="#000000" font-family="sans-serif" font-size="13" lengthAdjust="spacing" textLength="242.3472" x="118.0386" y="225.3638">presenta formulario de incorporaci&#243;n</text><text fill="#000000" font-family="sans-serif" font-size="13" lengthAdjust="spacing" textLength="68.8276" x="55" y="240.4966">&#8226; Proyecto</text><text fill="#000000" font-family="sans-serif" font-size="13" lengthAdjust="spacing" textLength="164.582" x="55" y="255.6294">&#8226; Tipo de documentaci&#243;n</text><text fill="#000000" font-family="sans-serif" font-size="13" lengthAdjust="spacing" textLength="159.5229" x="55" y="270.7622">&#8226; Contenido documental</text><text fill="#000000" font-family="sans-serif" font-size="13" lengthAdjust="spacing" textLength="246.5557" x="55" y="285.895">Se introduce la informaci&#243;n requerida</text></g><!--link ValidandoDocumentacion to RegistrandoDocumentacion--><g class="link" data-entity-1="ValidandoDocumentacion" data-entity-2="RegistrandoDocumentacion" data-source-line="23" data-uid="lnk5" id="link_ValidandoDocumentacion_RegistrandoDocumentacion"><path d="M44,366.5669 C44,394.2769 44,433.3369 44,461.0369" fill="none" id="ValidandoDocumentacion-to-RegistrandoDocumentacion" style="stroke:#008000;stroke-width:1;"/><polygon fill="#008000" points="44,467.0369,48,458.0369,44,462.0369,40,458.0369,44,467.0369" style="stroke:#008000;stroke-width:1;"/><path d="M49,389.2969 L49,444.2969 L292,444.2969 L292,399.2969 L282,389.2969 L49,389.2969" fill="#FEFFDD" style="stroke:#181818;stroke-width:0.5;"/><path d="M282,389.2969 L282,399.2969 L292,399.2969 L282,389.2969" fill="#FEFFDD" style="stroke:#181818;stroke-width:0.5;"/><text fill="#000000" font-family="sans-serif" font-size="13" font-weight="bold" lengthAdjust="spacing" textLength="58.9063" x="55" y="406.3638">Sistema</text><text fill="#000000" font-family="sans-serif" font-size="13" lengthAdjust="spacing" textLength="159.4531" x="118.0386" y="406.3638">valida la documentaci&#243;n</text><text fill="#000000" font-family="sans-serif" font-size="13" lengthAdjust="spacing" textLength="129.5747" x="55" y="421.4966">&#8226; Verifica contenido</text><text fill="#000000" font-family="sans-serif" font-size="13" lengthAdjust="spacing" textLength="207.124" x="55" y="436.6294">&#8226; Verifica asociaci&#243;n a proyecto</text></g><!--link RegistrandoDocumentacion to *end*incorporarDocumentacion--><g class="link" data-entity-1="RegistrandoDocumentacion" data-entity-2=".end.incorporarDocumentacion" data-source-line="30" data-uid="lnk7" id="link_RegistrandoDocumentacion_.end.incorporarDocumentacion"><path d="M44,517.5769 C44,543.8769 44,578.5669 44,597.2769" fill="none" id="RegistrandoDocumentacion-to-*end*incorporarDocumentacion" style="stroke:#008000;stroke-width:1;"/><polygon fill="#008000" points="44,603.2769,48,594.2769,44,598.2769,40,594.2769,44,603.2769" style="stroke:#008000;stroke-width:1;"/><path d="M49,540.2969 L49,580.2969 L330,580.2969 L330,550.2969 L320,540.2969 L49,540.2969" fill="#FEFFDD" style="stroke:#181818;stroke-width:0.5;"/><path d="M320,540.2969 L320,550.2969 L330,550.2969 L320,540.2969" fill="#FEFFDD" style="stroke:#181818;stroke-width:0.5;"/><text fill="#000000" font-family="sans-serif" font-size="13" font-weight="bold" lengthAdjust="spacing" textLength="58.9063" x="55" y="557.3638">Sistema</text><text fill="#000000" font-family="sans-serif" font-size="13" lengthAdjust="spacing" textLength="170.7393" x="118.0386" y="557.3638">registra la documentaci&#243;n</text><text fill="#000000" font-family="sans-serif" font-size="13" lengthAdjust="spacing" textLength="260.0254" x="55" y="572.4966">y la deja disponible para su tratamiento</text></g><g id="DOCUMENTACION_ABIERTA"><rect fill="#F1F1F1" height="50" rx="12.5" ry="12.5" style="stroke:#181818;stroke-width:0.5;" width="213.7578" x="88.5" y="730"/><line style="stroke:#181818;stroke-width:0.5;" x1="88.5" x2="302.2578" y1="756.2969" y2="756.2969"/><text fill="#000000" font-family="sans-serif" font-size="14" lengthAdjust="spacing" textLength="193.7578" x="98.5" y="747.9951">DOCUMENTACION_ABIERTA</text></g><!--link incorporarDocumentacion to DOCUMENTACION_ABIERTA--><g class="link" data-entity-1="incorporarDocumentacion" data-entity-2="DOCUMENTACION_ABIERTA" data-source-line="37" data-uid="lnk9" id="link_incorporarDocumentacion_DOCUMENTACION_ABIERTA"><path d="M103.29,635.16 C97.83,653.68 94.5,665 94.5,665 C94.5,665 94.5,700 94.5,700 C94.5,700 118.1382,712.6421 145.0282,727.0121" fill="none" id="incorporarDocumentacion-to-DOCUMENTACION_ABIERTA" style="stroke:#008000;stroke-width:1;"/><polygon fill="#008000" points="150.32,729.84,144.2676,722.0703,145.9102,727.4834,140.4971,729.126,150.32,729.84" style="stroke:#008000;stroke-width:1;"/><path d="M99.5,670 L99.5,695 L245.5,695 L245.5,680 L235.5,670 L99.5,670" fill="#FEFFDD" style="stroke:#181818;stroke-width:0.5;"/><path d="M235.5,670 L235.5,680 L245.5,680 L235.5,670" fill="#FEFFDD" style="stroke:#181818;stroke-width:0.5;"/><text fill="#000000" font-family="sans-serif" font-size="13" lengthAdjust="spacing" textLength="125.9248" x="105.5" y="687.0669">completarGestion()</text></g><!--link incorporarDocumentacion to DOCUMENTACION_ABIERTA--><g class="link" data-entity-1="incorporarDocumentacion" data-entity-2="DOCUMENTACION_ABIERTA" data-source-line="42" data-uid="lnk10" id="link_incorporarDocumentacion_DOCUMENTACION_ABIERTA"><path d="M249.37,635.16 C252.55,653.68 254.5,665 254.5,665 C254.5,665 254.5,700 254.5,700 C254.5,700 242.0273,711.4204 226.3173,725.7904" fill="none" id="incorporarDocumentacion-to-DOCUMENTACION_ABIERTA-1" style="stroke:#FF0000;stroke-width:1;"/><polygon fill="#FF0000" points="221.89,729.84,231.2306,726.7171,225.5794,726.4653,225.8311,720.8141,221.89,729.84" style="stroke:#FF0000;stroke-width:1;"/><path d="M259.5,670 L259.5,695 L435.5,695 L435.5,680 L425.5,670 L259.5,670" fill="#FEFFDD" style="stroke:#181818;stroke-width:0.5;"/><path d="M425.5,670 L425.5,680 L435.5,680 L425.5,670" fill="#FEFFDD" style="stroke:#181818;stroke-width:0.5;"/><text fill="#000000" font-family="sans-serif" font-size="13" lengthAdjust="spacing" textLength="155.9619" x="265.5" y="687.0669">rechazarIncorporacion()</text></g><!--SRC=[ZLDTIiD047xFAORwee9u0IdKMgKF_g3L5n6PRaOTtUp4sOrGHV0iNi4ZU1DFuYQjfh6DD850Th-PxsTt_0Ex71KpiEmeJ7A2NEoa_4aI7p0Gi3EYkIZgdfWY8nVGi3X03vsMlVMD3hma2SHdsgCJtuW_51yKNIhxebbXKLaMGHTeEIr1ZPQBk5EwvLcx9hA2NcvUmTRbsgqIkQkjRYkrazWnkecE7wg5Cm8lbWq7dBCEQKtn-J5LGowjogU4ImWQ0lwnjQ1XPzmzYzuemvtjSHTo9LyMm4tTEfqxc5hIrzixdAXCo0JvNHXnNk6NM2Yt- -82EKwb1jYV9DW5bRGm1BPCe-IVLeFIOq4Q7Is9OhdLHXgjXxTA7azL_r9IYwMBgEo63OBvyRQuXLuCpynWZ7WkjAQRDgaDF_6whIHTPyrQn4-gTRgF7_QvE1xRE91nFi4N4Ci2PXmh_iXyJPAs8PtNk7VSFpyS78rw_U7nqNLlTpWu7VMIXc8ZMMufe1wG3zKW9tKO_t0efIioA9axV4OTrfUtGVCD]--></g></svg>