<svg xmlns="http://www.w3.org/2000/svg" xmlns:xlink="http://www.w3.org/1999/xlink" contentStyleType="text/css" data-diagram-type="STATE" height="572px" preserveAspectRatio="none" style="width:457px;height:572px;background:#FFFFFF;" version="1.1" viewBox="0 0 457 572" width="457px" zoomAndPan="magnify"><title>Diagrama de estados - CasoDeUso</title><defs/><g><g class="title" data-source-line="1"><text fill="#000000" font-family="sans-serif" font-size="14" font-weight="bold" lengthAdjust="spacing" textLength="271.1475" x="82.79" y="22.9951">Diagrama de estados - CasoDeUso</text></g><path d="M19.5,44.2969 L431.2274,44.2969 A12.5,12.5 0 0 1 443.7274,56.7969 L443.7274,70.5938 L7,70.5938 L7,56.7969 A12.5,12.5 0 0 1 19.5,44.2969" fill="#F1F1F1"/><rect fill="none" height="522.2969" rx="12.5" ry="12.5" style="stroke:#181818;stroke-width:0.5;" width="436.7274" x="7" y="44.2969"/><line style="stroke:#181818;stroke-width:0.5;" x1="7" x2="443.7274" y1="70.5938" y2="70.5938"/><text fill="#000000" font-family="sans-serif" font-size="14" lengthAdjust="spacing" textLength="79.7139" x="185.5067" y="62.292">CasoDeUso</text><ellipse cx="282.68" cy="91.5938" fill="#222222" rx="10" ry="10" style="stroke:#222222;stroke-width:1;"/><g id="CasoDeUso.Identificado"><rect fill="#F1F1F1" height="50" rx="12.5" ry="12.5" style="stroke:#181818;stroke-width:0.5;" width="102.4277" x="231.68" y="138.5938"/><line style="stroke:#181818;stroke-width:0.5;" x1="231.68" x2="334.1077" y1="164.8906" y2="164.8906"/><text fill="#000000" font-family="sans-serif" font-size="14" lengthAdjust="spacing" textLength="82.4277" x="241.68" y="156.5889">Identificado</text></g><g id="CasoDeUso.Revisado"><rect fill="#F1F1F1" height="50" rx="12.5" ry="12.5" style="stroke:#181818;stroke-width:0.5;" width="83.8408" x="117.68" y="241.5938"/><line style="stroke:#181818;stroke-width:0.5;" x1="117.68" x2="201.5208" y1="267.8906" y2="267.8906"/><text fill="#000000" font-family="sans-serif" font-size="14" lengthAdjust="spacing" textLength="63.8408" x="127.68" y="259.5889">Revisado</text></g><g id="CasoDeUso.Modificado"><rect fill="#F1F1F1" height="50" rx="12.5" ry="12.5" style="stroke:#181818;stroke-width:0.5;" width="95.9678" x="111.68" y="344.5938"/><line style="stroke:#181818;stroke-width:0.5;" x1="111.68" x2="207.6478" y1="370.8906" y2="370.8906"/><text fill="#000000" font-family="sans-serif" font-size="14" lengthAdjust="spacing" textLength="75.9678" x="121.68" y="362.5889">Modificado</text></g><g id="CasoDeUso.Aprobado"><rect fill="#F1F1F1" height="50" rx="12.5" ry="12.5" style="stroke:#181818;stroke-width:0.5;" width="87.7031" x="115.68" y="447.5938"/><line style="stroke:#181818;stroke-width:0.5;" x1="115.68" x2="203.3831" y1="473.8906" y2="473.8906"/><text fill="#000000" font-family="sans-serif" font-size="14" lengthAdjust="spacing" textLength="67.7031" x="125.68" y="465.5889">Aprobado</text></g><g id="CasoDeUso.Eliminado"><rect fill="#F1F1F1" height="50" rx="12.5" ry="12.5" style="stroke:#181818;stroke-width:0.5;" width="89.0566" x="249.18" y="447.5938"/><line style="stroke:#181818;stroke-width:0.5;" x1="249.18" x2="338.2366" y1="473.8906" y2="473.8906"/><text fill="#000000" font-family="sans-serif" font-size="14" lengthAdjust="spacing" textLength="69.0566" x="259.18" y="465.5889">Eliminado</text></g><ellipse cx="211.68" cy="545.5938" fill="none" rx="11" ry="11" style="stroke:#222222;stroke-width:1;"/><ellipse cx="211.68" cy="545.5938" fill="#222222" rx="6" ry="6" style="stroke:#222222;stroke-width:1;"/><!--link *start*CasoDeUso to Identificado--><g class="link" data-entity-1=".start.CasoDeUso" data-entity-2="Identificado" data-source-line="5" data-uid="lnk4" id="link_.start.CasoDeUso_Identificado"><path d="M282.68,101.7437 C282.68,111.0138 282.68,119.7337 282.68,132.3737" fill="none" id="*start*CasoDeUso-to-Identificado" style="stroke:#181818;stroke-width:1;"/><polygon fill="#181818" points="282.68,138.3737,286.68,129.3737,282.68,133.3737,278.68,129.3737,282.68,138.3737" style="stroke:#181818;stroke-width:1;"/></g><!--link Identificado to Revisado--><g class="link" data-entity-1="Identificado" data-entity-2="Revisado" data-source-line="7" data-uid="lnk6" id="link_Identificado_Revisado"><path d="M253.21,188.7838 C233.88,204.6638 213.3265,221.5355 193.9565,237.4455" fill="none" id="Identificado-to-Revisado" style="stroke:#181818;stroke-width:1;"/><polygon fill="#181818" points="189.32,241.2538,198.8136,238.6323,193.1837,238.0802,193.7359,232.4503,189.32,241.2538" style="stroke:#181818;stroke-width:1;"/><text fill="#000000" font-family="sans-serif" font-size="13" lengthAdjust="spacing" textLength="113.0708" x="228.68" y="219.6606">validar contenido</text></g><!--link Revisado to Modificado--><g class="link" data-entity-1="Revisado" data-entity-2="Modificado" data-source-line="8" data-uid="lnk8" id="link_Revisado_Modificado"><path d="M159.68,291.7838 C159.68,307.6638 159.68,322.3438 159.68,338.2537" fill="none" id="Revisado-to-Modificado" style="stroke:#181818;stroke-width:1;"/><polygon fill="#181818" points="159.68,344.2537,163.68,335.2537,159.68,339.2537,155.68,335.2537,159.68,344.2537" style="stroke:#181818;stroke-width:1;"/><text fill="#000000" font-family="sans-serif" font-size="13" lengthAdjust="spacing" textLength="145.228" x="160.68" y="322.6606">actualizar caso de uso</text></g><!--link Modificado to Revisado--><g class="link" data-entity-1="Modificado" data-entity-2="Revisado" data-source-line="9" data-uid="lnk9" id="link_Modificado_Revisado"><path d="M111.53,363.8338 C87.23,358.7238 59.78,348.1938 44.68,326.5938 C23.58,296.4338 70.8061,281.7731 111.7161,274.3631" fill="none" id="Modificado-to-Revisado" style="stroke:#181818;stroke-width:1;"/><polygon fill="#181818" points="117.62,273.2938,108.0512,270.9619,112.7001,274.1849,109.477,278.8338,117.62,273.2938" style="stroke:#181818;stroke-width:1;"/><text fill="#000000" font-family="sans-serif" font-size="13" lengthAdjust="spacing" textLength="109.8652" x="45.68" y="322.6606">guardar cambios</text></g><!--link Revisado to Aprobado--><g class="link" data-entity-1="Revisado" data-entity-2="Aprobado" data-source-line="10" data-uid="lnk11" id="link_Revisado_Aprobado"><path d="M117.49,269.7638 C89.31,273.6738 54.15,283.8238 35.68,309.5938 C22.98,327.3038 18,346.4038 49.68,394.5938 C65.75,419.0438 87.2717,435.0801 110.3617,448.0801" fill="none" id="Revisado-to-Aprobado" style="stroke:#181818;stroke-width:1;"/><polygon fill="#181818" points="115.59,451.0238,109.71,443.1228,111.2331,448.5707,105.7851,450.0939,115.59,451.0238" style="stroke:#181818;stroke-width:1;"/><text fill="#000000" font-family="sans-serif" font-size="13" lengthAdjust="spacing" textLength="51.0796" x="50.68" y="374.1606">aprobar</text></g><!--link Modificado to Aprobado--><g class="link" data-entity-1="Modificado" data-entity-2="Aprobado" data-source-line="11" data-uid="lnk12" id="link_Modificado_Aprobado"><path d="M159.68,394.7838 C159.68,410.6638 159.68,425.3438 159.68,441.2537" fill="none" id="Modificado-to-Aprobado" style="stroke:#181818;stroke-width:1;"/><polygon fill="#181818" points="159.68,447.2537,163.68,438.2537,159.68,442.2537,155.68,438.2537,159.68,447.2537" style="stroke:#181818;stroke-width:1;"/><text fill="#000000" font-family="sans-serif" font-size="13" lengthAdjust="spacing" textLength="51.0796" x="160.68" y="425.6606">aprobar</text></g><!--link Identificado to Eliminado--><g class="link" data-entity-1="Identificado" data-entity-2="Eliminado" data-source-line="13" data-uid="lnk14" id="link_Identificado_Eliminado"><path d="M328.63,188.6137 C335.44,193.7938 341.79,199.7938 346.68,206.5938 C383.64,258.0838 374.61,281.7238 382.68,344.5938 C385.5,366.6337 391.91,374.3837 382.68,394.5938 C372.74,416.3338 358.1592,430.7779 339.9792,443.8679" fill="none" id="Identificado-to-Eliminado" style="stroke:#181818;stroke-width:1;"/><polygon fill="#181818" points="335.11,447.3738,344.751,445.361,339.1676,444.4522,340.0765,438.8688,335.11,447.3738" style="stroke:#181818;stroke-width:1;"/><text fill="#000000" font-family="sans-serif" font-size="13" lengthAdjust="spacing" textLength="53.0474" x="380.68" y="322.6606">eliminar</text></g><!--link Revisado to Eliminado--><g class="link" data-entity-1="Revisado" data-entity-2="Eliminado" data-source-line="14" data-uid="lnk15" id="link_Revisado_Eliminado"><path d="M201.8,273.8138 C240.88,280.5538 294.87,292.6538 307.68,309.5938 C338.14,349.9038 321.45,407.498 307.27,441.838" fill="none" id="Revisado-to-Eliminado" style="stroke:#181818;stroke-width:1;"/><polygon fill="#181818" points="304.98,447.3838,312.1122,440.5917,306.8884,442.7623,304.7178,437.5384,304.98,447.3838" style="stroke:#181818;stroke-width:1;"/><text fill="#000000" font-family="sans-serif" font-size="13" lengthAdjust="spacing" textLength="53.0474" x="324.68" y="374.1606">eliminar</text></g><!--link Modificado to Eliminado--><g class="link" data-entity-1="Modificado" data-entity-2="Eliminado" data-source-line="15" data-uid="lnk16" id="link_Modificado_Eliminado"><path d="M192.61,394.6938 C200.51,400.5238 208.91,406.7637 216.68,412.5938 C231.75,423.9238 243.6234,432.9766 257.5534,443.6866" fill="none" id="Modificado-to-Eliminado" style="stroke:#181818;stroke-width:1;"/><polygon fill="#181818" points="262.31,447.3438,257.6131,438.687,258.3461,444.2962,252.737,445.0292,262.31,447.3438" style="stroke:#181818;stroke-width:1;"/><text fill="#000000" font-family="sans-serif" font-size="13" lengthAdjust="spacing" textLength="53.0474" x="238.68" y="425.6606">eliminar</text></g><!--link Aprobado to *end*CasoDeUso--><g class="link" data-entity-1="Aprobado" data-entity-2=".end.CasoDeUso" data-source-line="17" data-uid="lnk18" id="link_Aprobado_.end.CasoDeUso"><path d="M177.28,497.6338 C187.06,510.9838 195.0752,521.9229 201.9952,531.3729" fill="none" id="Aprobado-to-*end*CasoDeUso" style="stroke:#181818;stroke-width:1;"/><polygon fill="#181818" points="205.54,536.2138,203.45,526.5892,202.586,532.1797,196.9955,531.3157,205.54,536.2138" style="stroke:#181818;stroke-width:1;"/></g><!--link Eliminado to *end*CasoDeUso--><g class="link" data-entity-1="Eliminado" data-entity-2=".end.CasoDeUso" data-source-line="18" data-uid="lnk19" id="link_Eliminado_.end.CasoDeUso"><path d="M265.91,497.6338 C249.74,511.6338 235.0357,524.3659 224.3657,533.6059" fill="none" id="Eliminado-to-*end*CasoDeUso" style="stroke:#181818;stroke-width:1;"/><polygon fill="#181818" points="219.83,537.5338,229.2521,534.6658,223.6097,534.2606,224.015,528.6183,219.83,537.5338" style="stroke:#181818;stroke-width:1;"/></g><!--SRC=[TP0z3i8m38NtdCBgYDGBT412b8611Oa9CRYDgIor2KhI3Y3kJjBI7uMosS_VytFYsDK4EMDbi46G16GTIcqXXJrQdTF5QY6yvWYIIKa0xJo7bn00ryqDqdGBHqdAyPrBloReoxu7pjIn3Kq67TOiqK2fbIF5tW3pEB0dBKTh1bYwrXkUmU2pmxMj3PO55GLKBPe-09k2jOtNxnv65z_bVMb-jwqmQwywrDom6ZWQQXF7_M6Ym5NAOzCX0VA_xQKP7JNn_W00]--></g></svg>