<svg xmlns="http://www.w3.org/2000/svg" xmlns:xlink="http://www.w3.org/1999/xlink" contentStyleType="text/css" data-diagram-type="STATE" height="696px" preserveAspectRatio="none" style="width:441px;height:696px;background:#FFFFFF;" version="1.1" viewBox="0 0 441 696" width="441px" zoomAndPan="magnify"><defs/><g><path d="M19.5,7 L376.5,7 A12.5,12.5 0 0 1 389,19.5 L389,33.2969 L7,33.2969 L7,19.5 A12.5,12.5 0 0 1 19.5,7" fill="#F1F1F1"/><rect fill="none" height="538.2969" rx="12.5" ry="12.5" style="stroke:#181818;stroke-width:0.5;" width="382" x="7" y="7"/><line style="stroke:#181818;stroke-width:0.5;" x1="7" x2="389" y1="33.2969" y2="33.2969"/><text fill="#000000" font-family="sans-serif" font-size="14" lengthAdjust="spacing" textLength="177.0781" x="109.4609" y="24.9951">buscarCasosPruebaKiwi()</text><g id="buscarCasosPruebaKiwi.SolicitandoCriterios"><rect fill="#F1F1F1" height="50" rx="12.5" ry="12.5" style="stroke:#181818;stroke-width:0.5;" width="50" x="19" y="135.2969"/><line style="stroke:#181818;stroke-width:0.5;" x1="19" x2="69" y1="161.5938" y2="161.5938"/><text fill="#000000" font-family="sans-serif" font-size="14" lengthAdjust="spacing" textLength="4.4502" x="41.7749" y="153.292">&#160;</text></g><g id="buscarCasosPruebaKiwi.ConsultandoKiwi"><rect fill="#F1F1F1" height="50" rx="12.5" ry="12.5" style="stroke:#181818;stroke-width:0.5;" width="50" x="19" y="256.2969"/><line style="stroke:#181818;stroke-width:0.5;" x1="19" x2="69" y1="282.5938" y2="282.5938"/><text fill="#000000" font-family="sans-serif" font-size="14" lengthAdjust="spacing" textLength="4.4502" x="41.7749" y="274.292">&#160;</text></g><g id="buscarCasosPruebaKiwi.MostrandoResultados"><rect fill="#F1F1F1" height="50" rx="12.5" ry="12.5" style="stroke:#181818;stroke-width:0.5;" width="50" x="19" y="392.2969"/><line style="stroke:#181818;stroke-width:0.5;" x1="19" x2="69" y1="418.5938" y2="418.5938"/><text fill="#000000" font-family="sans-serif" font-size="14" lengthAdjust="spacing" textLength="4.4502" x="41.7749" y="410.292">&#160;</text></g><ellipse cx="44" cy="54.2969" fill="#222222" rx="10" ry="10" style="stroke:#222222;stroke-width:1;"/><ellipse cx="44" cy="524.2969" fill="none" rx="11" ry="11" style="stroke:#222222;stroke-width:1;"/><ellipse cx="44" cy="524.2969" fill="#222222" rx="6" ry="6" style="stroke:#222222;stroke-width:1;"/><!--link *start*buscarCasosPruebaKiwi to SolicitandoCriterios--><g class="link" data-entity-1=".start.buscarCasosPruebaKiwi" data-entity-2="SolicitandoCriterios" data-source-line="9" data-uid="lnk3" id="link_.start.buscarCasosPruebaKiwi_SolicitandoCriterios"><path d="M44,64.5269 C44,80.2369 44,106.6569 44,129.1669" fill="none" id="*start*buscarCasosPruebaKiwi-to-SolicitandoCriterios" style="stroke:#008000;stroke-width:1;"/><polygon fill="#008000" points="44,135.1669,48,126.1669,44,130.1669,40,126.1669,44,135.1669" style="stroke:#008000;stroke-width:1;"/><path d="M49,87.2969 L49,112.2969 L317,112.2969 L317,97.2969 L307,87.2969 L49,87.2969" fill="#FEFFDD" style="stroke:#181818;stroke-width:0.5;"/><path d="M307,87.2969 L307,97.2969 L317,97.2969 L307,87.2969" fill="#FEFFDD" style="stroke:#181818;stroke-width:0.5;"/><text fill="#000000" font-family="sans-serif" font-size="13" lengthAdjust="spacing" textLength="247.2031" x="55" y="104.3638">Buscar casos de prueba en Kiwi TCMS</text></g><!--link SolicitandoCriterios to ConsultandoKiwi--><g class="link" data-entity-1="SolicitandoCriterios" data-entity-2="ConsultandoKiwi" data-source-line="14" data-uid="lnk4" id="link_SolicitandoCriterios_ConsultandoKiwi"><path d="M44,185.3769 C44,206.0269 44,229.6169 44,250.2469" fill="none" id="SolicitandoCriterios-to-ConsultandoKiwi" style="stroke:#008000;stroke-width:1;"/><polygon fill="#008000" points="44,256.2469,48,247.2469,44,251.2469,40,247.2469,44,256.2469" style="stroke:#008000;stroke-width:1;"/><path d="M49,208.2969 L49,233.2969 L292,233.2969 L292,218.2969 L282,208.2969 L49,208.2969" fill="#FEFFDD" style="stroke:#181818;stroke-width:0.5;"/><path d="M282,208.2969 L282,218.2969 L292,218.2969 L282,208.2969" fill="#FEFFDD" style="stroke:#181818;stroke-width:0.5;"/><text fill="#000000" font-family="sans-serif" font-size="13" lengthAdjust="spacing" textLength="222.3267" x="55" y="225.3638">Realiza la busqueda en Kiwi TCMS</text></g><!--link ConsultandoKiwi to MostrandoResultados--><g class="link" data-entity-1="ConsultandoKiwi" data-entity-2="MostrandoResultados" data-source-line="19" data-uid="lnk5" id="link_ConsultandoKiwi_MostrandoResultados"><path d="M44,306.5669 C44,330.8469 44,361.9869 44,386.2069" fill="none" id="ConsultandoKiwi-to-MostrandoResultados" style="stroke:#008000;stroke-width:1;"/><polygon fill="#008000" points="44,392.2069,48,383.2069,44,387.2069,40,383.2069,44,392.2069" style="stroke:#008000;stroke-width:1;"/><path d="M49,329.2969 L49,369.2969 L285,369.2969 L285,339.2969 L275,329.2969 L49,329.2969" fill="#FEFFDD" style="stroke:#181818;stroke-width:0.5;"/><path d="M275,329.2969 L275,339.2969 L285,339.2969 L275,329.2969" fill="#FEFFDD" style="stroke:#181818;stroke-width:0.5;"/><text fill="#000000" font-family="sans-serif" font-size="13" font-weight="bold" lengthAdjust="spacing" textLength="58.9063" x="55" y="346.3638">Sistema</text><text fill="#000000" font-family="sans-serif" font-size="13" lengthAdjust="spacing" textLength="152.9023" x="118.0386" y="346.3638">recupera los resultados</text><text fill="#000000" font-family="sans-serif" font-size="13" lengthAdjust="spacing" textLength="172.4658" x="55" y="361.4966">encontrados en Kiwi TCMS</text></g><!--link MostrandoResultados to *end*buscarCasosPruebaKiwi--><g class="link" data-entity-1="MostrandoResultados" data-entity-2=".end.buscarCasosPruebaKiwi" data-source-line="25" data-uid="lnk7" id="link_MostrandoResultados_.end.buscarCasosPruebaKiwi"><path d="M44,442.3869 C44,464.7869 44,491.0669 44,507.2469" fill="none" id="MostrandoResultados-to-*end*buscarCasosPruebaKiwi" style="stroke:#008000;stroke-width:1;"/><polygon fill="#008000" points="44,513.2469,48,504.2469,44,508.2469,40,504.2469,44,513.2469" style="stroke:#008000;stroke-width:1;"/><path d="M49,465.2969 L49,490.2969 L380,490.2969 L380,475.2969 L370,465.2969 L49,465.2969" fill="#FEFFDD" style="stroke:#181818;stroke-width:0.5;"/><path d="M370,465.2969 L370,475.2969 L380,475.2969 L370,465.2969" fill="#FEFFDD" style="stroke:#181818;stroke-width:0.5;"/><text fill="#000000" font-family="sans-serif" font-size="13" font-weight="bold" lengthAdjust="spacing" textLength="58.9063" x="55" y="482.3638">Sistema</text><text fill="#000000" font-family="sans-serif" font-size="13" lengthAdjust="spacing" textLength="247.2095" x="118.0386" y="482.3638">muestra la lista de casos encontrados</text></g><g id="KIWI_TCMS_ABIERTO"><rect fill="#F1F1F1" height="50" rx="12.5" ry="12.5" style="stroke:#181818;stroke-width:0.5;" width="166.0293" x="13" y="640"/><line style="stroke:#181818;stroke-width:0.5;" x1="13" x2="179.0293" y1="666.2969" y2="666.2969"/><text fill="#000000" font-family="sans-serif" font-size="14" lengthAdjust="spacing" textLength="146.0293" x="23" y="657.9951">KIWI_TCMS_ABIERTO</text></g><g id="SISTEMA_ABIERTO"><rect fill="#F1F1F1" height="50" rx="12.5" ry="12.5" style="stroke:#181818;stroke-width:0.5;" width="149.4111" x="225.5" y="640"/><line style="stroke:#181818;stroke-width:0.5;" x1="225.5" x2="374.9111" y1="666.2969" y2="666.2969"/><text fill="#000000" font-family="sans-serif" font-size="14" lengthAdjust="spacing" textLength="129.4111" x="235.5" y="657.9951">SISTEMA_ABIERTO</text></g><!--link buscarCasosPruebaKiwi to KIWI_TCMS_ABIERTO--><g class="link" data-entity-1="buscarCasosPruebaKiwi" data-entity-2="KIWI_TCMS_ABIERTO" data-source-line="31" data-uid="lnk9" id="link_buscarCasosPruebaKiwi_KIWI_TCMS_ABIERTO"><path d="M103.55,545.06 C97.05,563.52 93,575 93,575 C93,575 93,610 93,610 C93,610 93.5265,619.4793 94.3265,633.8493" fill="none" id="buscarCasosPruebaKiwi-to-KIWI_TCMS_ABIERTO" style="stroke:#008000;stroke-width:1;"/><polygon fill="#008000" points="94.66,639.84,98.1535,630.6316,94.3821,634.8477,90.1659,631.0763,94.66,639.84" style="stroke:#008000;stroke-width:1;"/><path d="M98,580 L98,605 L252,605 L252,590 L242,580 L98,580" fill="#FEFFDD" style="stroke:#181818;stroke-width:0.5;"/><path d="M242,580 L242,590 L252,590 L242,580" fill="#FEFFDD" style="stroke:#181818;stroke-width:0.5;"/><text fill="#000000" font-family="sans-serif" font-size="13" lengthAdjust="spacing" textLength="133.1357" x="104" y="597.0669">completarConsulta()</text></g><!--link buscarCasosPruebaKiwi to SISTEMA_ABIERTO--><g class="link" data-entity-1="buscarCasosPruebaKiwi" data-entity-2="SISTEMA_ABIERTO" data-source-line="36" data-uid="lnk11" id="link_buscarCasosPruebaKiwi_SISTEMA_ABIERTO"><path d="M268.7,545.26 C278.94,584.1 286.4021,612.3878 292.0821,633.9578" fill="none" id="buscarCasosPruebaKiwi-to-SISTEMA_ABIERTO" style="stroke:#FF0000;stroke-width:1;"/><polygon fill="#FF0000" points="293.61,639.76,295.1863,630.0381,292.3368,634.9248,287.45,632.0753,293.61,639.76" style="stroke:#FF0000;stroke-width:1;"/><path d="M290,580 L290,605 L434,605 L434,590 L424,580 L290,580" fill="#FEFFDD" style="stroke:#181818;stroke-width:0.5;"/><path d="M424,580 L424,590 L434,590 L424,580" fill="#FEFFDD" style="stroke:#181818;stroke-width:0.5;"/><text fill="#000000" font-family="sans-serif" font-size="13" lengthAdjust="spacing" textLength="123.9316" x="296" y="597.0669">rechazarConsulta()</text></g><!--SRC=[ZLBTQi8m5BxFKnpSZGvaBo22bbqKaGqhx494Jjl35aoJBaaPElRkEuc3sHbnxLMIxtn_YTjBtQB51fJKv0yjGMlK8Io4S1uzGTcv2cs6phXdsr692_aX0HqCaYV3qG0-XG3-JlC3_XbT62KhwL7N9hFIavN6NQ8oersd8YgGNGAMndaRZbSKWJMpHDJcVWlZpTsh9TBRyVIwdZRCPdG8l8yRynW3gf03QYuWPW7I49EkisKHSQJhE7pII_7t3AIYN6Yl29Ky8YWCFRztLDyK_iFRqqorazITbDD2EayDJXxAALYgkfOi- -0GjZzBkZAQMNbzorf2lcUFx-XVTfgE0b5eHV4sXbivNS-PcRx-bn3fXtgklyXVybtmlflDyyVL-adqd5IcQHLvvlYfU3WIlm6lqbkguuFBY_NZSfQcveBVy9Xa_WO0]--></g></svg>