<svg xmlns="http://www.w3.org/2000/svg" xmlns:xlink="http://www.w3.org/1999/xlink" contentStyleType="text/css" data-diagram-type="STATE" height="726px" preserveAspectRatio="none" style="width:476px;height:726px;background:#FFFFFF;" version="1.1" viewBox="0 0 476 726" width="476px" zoomAndPan="magnify"><defs/><g><path d="M66,7 L354,7 A12.5,12.5 0 0 1 366.5,19.5 L366.5,33.2969 L53.5,33.2969 L53.5,19.5 A12.5,12.5 0 0 1 66,7" fill="#F1F1F1"/><rect fill="none" height="568.2969" rx="12.5" ry="12.5" style="stroke:#181818;stroke-width:0.5;" width="313" x="53.5" y="7"/><line style="stroke:#181818;stroke-width:0.5;" x1="53.5" x2="366.5" y1="33.2969" y2="33.2969"/><text fill="#000000" font-family="sans-serif" font-size="14" lengthAdjust="spacing" textLength="125.9932" x="147.0034" y="24.9951">aceptarBorrador()</text><g id="aceptarBorrador.SeleccionandoBorrador"><rect fill="#F1F1F1" height="50" rx="12.5" ry="12.5" style="stroke:#181818;stroke-width:0.5;" width="50" x="65.5" y="135.2969"/><line style="stroke:#181818;stroke-width:0.5;" x1="65.5" x2="115.5" y1="161.5938" y2="161.5938"/><text fill="#000000" font-family="sans-serif" font-size="14" lengthAdjust="spacing" textLength="4.4502" x="88.2749" y="153.292">&#160;</text></g><g id="aceptarBorrador.ValidandoBorrador"><rect fill="#F1F1F1" height="50" rx="12.5" ry="12.5" style="stroke:#181818;stroke-width:0.5;" width="50" x="65.5" y="271.2969"/><line style="stroke:#181818;stroke-width:0.5;" x1="65.5" x2="115.5" y1="297.5938" y2="297.5938"/><text fill="#000000" font-family="sans-serif" font-size="14" lengthAdjust="spacing" textLength="4.4502" x="88.2749" y="289.292">&#160;</text></g><g id="aceptarBorrador.AprobandoBorrador"><rect fill="#F1F1F1" height="50" rx="12.5" ry="12.5" style="stroke:#181818;stroke-width:0.5;" width="50" x="65.5" y="407.2969"/><line style="stroke:#181818;stroke-width:0.5;" x1="65.5" x2="115.5" y1="433.5938" y2="433.5938"/><text fill="#000000" font-family="sans-serif" font-size="14" lengthAdjust="spacing" textLength="4.4502" x="88.2749" y="425.292">&#160;</text></g><ellipse cx="90.5" cy="54.2969" fill="#222222" rx="10" ry="10" style="stroke:#222222;stroke-width:1;"/><ellipse cx="90.5" cy="554.2969" fill="none" rx="11" ry="11" style="stroke:#222222;stroke-width:1;"/><ellipse cx="90.5" cy="554.2969" fill="#222222" rx="6" ry="6" style="stroke:#222222;stroke-width:1;"/><!--link *start*aceptarBorrador to SeleccionandoBorrador--><g class="link" data-entity-1=".start.aceptarBorrador" data-entity-2="SeleccionandoBorrador" data-source-line="9" data-uid="lnk3" id="link_.start.aceptarBorrador_SeleccionandoBorrador"><path d="M90.5,64.5269 C90.5,80.2369 90.5,106.6569 90.5,129.1669" fill="none" id="*start*aceptarBorrador-to-SeleccionandoBorrador" style="stroke:#008000;stroke-width:1;"/><polygon fill="#008000" points="90.5,135.1669,94.5,126.1669,90.5,130.1669,86.5,126.1669,90.5,135.1669" style="stroke:#008000;stroke-width:1;"/><path d="M95.5,87.2969 L95.5,112.2969 L317.5,112.2969 L317.5,97.2969 L307.5,87.2969 L95.5,87.2969" fill="#FEFFDD" style="stroke:#181818;stroke-width:0.5;"/><path d="M307.5,87.2969 L307.5,97.2969 L317.5,97.2969 L307.5,87.2969" fill="#FEFFDD" style="stroke:#181818;stroke-width:0.5;"/><text fill="#000000" font-family="sans-serif" font-size="13" lengthAdjust="spacing" textLength="201.2144" x="101.5" y="104.3638">Se solicita aceptar un borrador</text></g><!--link SeleccionandoBorrador to ValidandoBorrador--><g class="link" data-entity-1="SeleccionandoBorrador" data-entity-2="ValidandoBorrador" data-source-line="14" data-uid="lnk4" id="link_SeleccionandoBorrador_ValidandoBorrador"><path d="M90.5,185.5669 C90.5,209.8469 90.5,240.9869 90.5,265.2069" fill="none" id="SeleccionandoBorrador-to-ValidandoBorrador" style="stroke:#008000;stroke-width:1;"/><polygon fill="#008000" points="90.5,271.2069,94.5,262.2069,90.5,266.2069,86.5,262.2069,90.5,271.2069" style="stroke:#008000;stroke-width:1;"/><path d="M95.5,208.2969 L95.5,248.2969 L313.5,248.2969 L313.5,218.2969 L303.5,208.2969 L95.5,208.2969" fill="#FEFFDD" style="stroke:#181818;stroke-width:0.5;"/><path d="M303.5,208.2969 L303.5,218.2969 L313.5,218.2969 L303.5,208.2969" fill="#FEFFDD" style="stroke:#181818;stroke-width:0.5;"/><text fill="#000000" font-family="sans-serif" font-size="13" font-weight="bold" lengthAdjust="spacing" textLength="58.9063" x="101.5" y="225.3638">Sistema</text><text fill="#000000" font-family="sans-serif" font-size="13" lengthAdjust="spacing" textLength="134.5767" x="164.5386" y="225.3638">recupera el borrador</text><text fill="#000000" font-family="sans-serif" font-size="13" lengthAdjust="spacing" textLength="162.4048" x="101.5" y="240.4966">y valida su estado actual</text></g><!--link ValidandoBorrador to AprobandoBorrador--><g class="link" data-entity-1="ValidandoBorrador" data-entity-2="AprobandoBorrador" data-source-line="20" data-uid="lnk5" id="link_ValidandoBorrador_AprobandoBorrador"><path d="M90.5,321.5669 C90.5,345.8469 90.5,376.9869 90.5,401.2069" fill="none" id="ValidandoBorrador-to-AprobandoBorrador" style="stroke:#008000;stroke-width:1;"/><polygon fill="#008000" points="90.5,407.2069,94.5,398.2069,90.5,402.2069,86.5,398.2069,90.5,407.2069" style="stroke:#008000;stroke-width:1;"/><path d="M95.5,344.2969 L95.5,384.2969 L357.5,384.2969 L357.5,354.2969 L347.5,344.2969 L95.5,344.2969" fill="#FEFFDD" style="stroke:#181818;stroke-width:0.5;"/><path d="M347.5,344.2969 L347.5,354.2969 L357.5,354.2969 L347.5,344.2969" fill="#FEFFDD" style="stroke:#181818;stroke-width:0.5;"/><text fill="#000000" font-family="sans-serif" font-size="13" font-weight="bold" lengthAdjust="spacing" textLength="58.9063" x="101.5" y="361.3638">Sistema</text><text fill="#000000" font-family="sans-serif" font-size="13" lengthAdjust="spacing" textLength="178.7246" x="164.5386" y="361.3638">comprueba que el borrador</text><text fill="#000000" font-family="sans-serif" font-size="13" lengthAdjust="spacing" textLength="83.1924" x="101.5" y="376.4966">es aceptable</text></g><!--link AprobandoBorrador to *end*aceptarBorrador--><g class="link" data-entity-1="AprobandoBorrador" data-entity-2=".end.aceptarBorrador" data-source-line="26" data-uid="lnk7" id="link_AprobandoBorrador_.end.aceptarBorrador"><path d="M90.5,457.5769 C90.5,483.8769 90.5,518.5669 90.5,537.2769" fill="none" id="AprobandoBorrador-to-*end*aceptarBorrador" style="stroke:#008000;stroke-width:1;"/><polygon fill="#008000" points="90.5,543.2769,94.5,534.2769,90.5,538.2769,86.5,534.2769,90.5,543.2769" style="stroke:#008000;stroke-width:1;"/><path d="M95.5,480.2969 L95.5,520.2969 L296.5,520.2969 L296.5,490.2969 L286.5,480.2969 L95.5,480.2969" fill="#FEFFDD" style="stroke:#181818;stroke-width:0.5;"/><path d="M286.5,480.2969 L286.5,490.2969 L296.5,490.2969 L286.5,480.2969" fill="#FEFFDD" style="stroke:#181818;stroke-width:0.5;"/><text fill="#000000" font-family="sans-serif" font-size="13" font-weight="bold" lengthAdjust="spacing" textLength="58.9063" x="101.5" y="497.3638">Sistema</text><text fill="#000000" font-family="sans-serif" font-size="13" lengthAdjust="spacing" textLength="117.3745" x="164.5386" y="497.3638">marca el borrador</text><text fill="#000000" font-family="sans-serif" font-size="13" lengthAdjust="spacing" textLength="101.791" x="101.5" y="512.4966">como aprobado</text></g><g id="BORRADOR_APROBADO"><rect fill="#F1F1F1" height="50" rx="12.5" ry="12.5" style="stroke:#181818;stroke-width:0.5;" width="187.9316" x="7" y="670"/><line style="stroke:#181818;stroke-width:0.5;" x1="7" x2="194.9316" y1="696.2969" y2="696.2969"/><text fill="#000000" font-family="sans-serif" font-size="14" lengthAdjust="spacing" textLength="167.9316" x="17" y="687.9951">BORRADOR_APROBADO</text></g><g id="BORRADOR_ABIERTO"><rect fill="#F1F1F1" height="50" rx="12.5" ry="12.5" style="stroke:#181818;stroke-width:0.5;" width="169.6387" x="235" y="670"/><line style="stroke:#181818;stroke-width:0.5;" x1="235" x2="404.6387" y1="696.2969" y2="696.2969"/><text fill="#000000" font-family="sans-serif" font-size="14" lengthAdjust="spacing" textLength="149.6387" x="245" y="687.9951">BORRADOR_ABIERTO</text></g><!--link aceptarBorrador to BORRADOR_APROBADO--><g class="link" data-entity-1="aceptarBorrador" data-entity-2="BORRADOR_APROBADO" data-source-line="33" data-uid="lnk9" id="link_aceptarBorrador_BORRADOR_APROBADO"><path d="M108.64,575.27 C102.06,593.65 98,605 98,605 C98,605 98,640 98,640 C98,640 98.5265,649.4793 99.3265,663.8493" fill="none" id="aceptarBorrador-to-BORRADOR_APROBADO" style="stroke:#008000;stroke-width:1;"/><polygon fill="#008000" points="99.66,669.84,103.1535,660.6316,99.3821,664.8477,95.1659,661.0763,99.66,669.84" style="stroke:#008000;stroke-width:1;"/><path d="M103,610 L103,635 L272,635 L272,620 L262,610 L103,610" fill="#FEFFDD" style="stroke:#181818;stroke-width:0.5;"/><path d="M262,610 L262,620 L272,620 L262,610" fill="#FEFFDD" style="stroke:#181818;stroke-width:0.5;"/><text fill="#000000" font-family="sans-serif" font-size="13" lengthAdjust="spacing" textLength="148.4844" x="109" y="627.0669">completarAceptacion()</text></g><!--link aceptarBorrador to BORRADOR_ABIERTO--><g class="link" data-entity-1="aceptarBorrador" data-entity-2="BORRADOR_ABIERTO" data-source-line="38" data-uid="lnk11" id="link_aceptarBorrador_BORRADOR_ABIERTO"><path d="M287.44,575.02 C298.15,614.15 305.9081,642.4823 311.7981,664.0323" fill="none" id="aceptarBorrador-to-BORRADOR_ABIERTO" style="stroke:#FF0000;stroke-width:1;"/><polygon fill="#FF0000" points="313.38,669.82,314.8656,660.0838,312.0618,664.9969,307.1487,662.193,313.38,669.82" style="stroke:#FF0000;stroke-width:1;"/><path d="M309,610 L309,635 L469,635 L469,620 L459,610 L309,610" fill="#FEFFDD" style="stroke:#181818;stroke-width:0.5;"/><path d="M459,610 L459,620 L469,620 L459,610" fill="#FEFFDD" style="stroke:#181818;stroke-width:0.5;"/><text fill="#000000" font-family="sans-serif" font-size="13" lengthAdjust="spacing" textLength="139.2803" x="315" y="627.0669">rechazarAceptacion()</text></g><!--SRC=[ZLBTIiCm5BxFKnpcpIOCNs0CMlJ2gqedtemXfyd1XQL9J59XYkzkMZTSbZhMtZJXEz_VgTz9RT5X2qfg2djBO8tQzmV6VC10W9niG5SQvr0O1-XXSdOtdKtWYp68p-_C9BuHjo95d4kZKGjp1EUm5rHIN8OKrfacWGoOzUq6vkkRDqUaD_Fb1K5j8fdHVSpTSB4Yy4P9BWCU8qAdeJaT8Ys6GNQO625FvCU3PDABPhcIFb2BYxjc2OvuPyaXa4hbz_0n48BlW68TmaIdeKCrOYwJJepbzLrZZ9lMkeuQXFUECdVa3xqrYaOCPPA9eRYugooqw7XUJ3GMgnW4X4crlnax_s5FTSkghelxgdujdkggZ5yiST0dLXI7Yu6ZN_Pqnlw2ZL0x4Ybn-VXGFv_nnXLlyVCVsXy0]--></g></svg>