<svg xmlns="http://www.w3.org/2000/svg" xmlns:xlink="http://www.w3.org/1999/xlink" contentStyleType="text/css" data-diagram-type="STATE" height="741px" preserveAspectRatio="none" style="width:508px;height:741px;background:#FFFFFF;" version="1.1" viewBox="0 0 508 741" width="508px" zoomAndPan="magnify"><defs/><g><path d="M78,7 L388,7 A12.5,12.5 0 0 1 400.5,19.5 L400.5,33.2969 L65.5,33.2969 L65.5,19.5 A12.5,12.5 0 0 1 78,7" fill="#F1F1F1"/><rect fill="none" height="583.2969" rx="12.5" ry="12.5" style="stroke:#181818;stroke-width:0.5;" width="335" x="65.5" y="7"/><line style="stroke:#181818;stroke-width:0.5;" x1="65.5" x2="400.5" y1="33.2969" y2="33.2969"/><text fill="#000000" font-family="sans-serif" font-size="14" lengthAdjust="spacing" textLength="293.583" x="86.2085" y="24.9951">generarCasoPruebaDerivadoDeBorrador()</text><g id="generarCasoPruebaDerivadoDeBorrador.RecuperandoBorrador"><rect fill="#F1F1F1" height="50" rx="12.5" ry="12.5" style="stroke:#181818;stroke-width:0.5;" width="50" x="77.5" y="150.2969"/><line style="stroke:#181818;stroke-width:0.5;" x1="77.5" x2="127.5" y1="176.5938" y2="176.5938"/><text fill="#000000" font-family="sans-serif" font-size="14" lengthAdjust="spacing" textLength="4.4502" x="100.2749" y="168.292">&#160;</text></g><g id="generarCasoPruebaDerivadoDeBorrador.TransformandoInformacion"><rect fill="#F1F1F1" height="50" rx="12.5" ry="12.5" style="stroke:#181818;stroke-width:0.5;" width="50" x="77.5" y="286.2969"/><line style="stroke:#181818;stroke-width:0.5;" x1="77.5" x2="127.5" y1="312.5938" y2="312.5938"/><text fill="#000000" font-family="sans-serif" font-size="14" lengthAdjust="spacing" textLength="4.4502" x="100.2749" y="304.292">&#160;</text></g><g id="generarCasoPruebaDerivadoDeBorrador.GenerandoCasoPrueba"><rect fill="#F1F1F1" height="50" rx="12.5" ry="12.5" style="stroke:#181818;stroke-width:0.5;" width="50" x="77.5" y="422.2969"/><line style="stroke:#181818;stroke-width:0.5;" x1="77.5" x2="127.5" y1="448.5938" y2="448.5938"/><text fill="#000000" font-family="sans-serif" font-size="14" lengthAdjust="spacing" textLength="4.4502" x="100.2749" y="440.292">&#160;</text></g><ellipse cx="102.5" cy="54.2969" fill="#222222" rx="10" ry="10" style="stroke:#222222;stroke-width:1;"/><ellipse cx="102.5" cy="569.2969" fill="none" rx="11" ry="11" style="stroke:#222222;stroke-width:1;"/><ellipse cx="102.5" cy="569.2969" fill="#222222" rx="6" ry="6" style="stroke:#222222;stroke-width:1;"/><!--link *start*generarCasoPruebaDerivadoDeBorrador to RecuperandoBorrador--><g class="link" data-entity-1=".start.generarCasoPruebaDerivadoDeBorrador" data-entity-2="RecuperandoBorrador" data-source-line="9" data-uid="lnk3" id="link_.start.generarCasoPruebaDerivadoDeBorrador_RecuperandoBorrador"><path d="M102.5,64.6369 C102.5,82.8269 102.5,117.5369 102.5,143.9069" fill="none" id="*start*generarCasoPruebaDerivadoDeBorrador-to-RecuperandoBorrador" style="stroke:#008000;stroke-width:1;"/><polygon fill="#008000" points="102.5,149.9069,106.5,140.9069,102.5,144.9069,98.5,140.9069,102.5,149.9069" style="stroke:#008000;stroke-width:1;"/><path d="M107.5,87.2969 L107.5,127.2969 L374.5,127.2969 L374.5,97.2969 L364.5,87.2969 L107.5,87.2969" fill="#FEFFDD" style="stroke:#181818;stroke-width:0.5;"/><path d="M364.5,87.2969 L364.5,97.2969 L374.5,97.2969 L364.5,87.2969" fill="#FEFFDD" style="stroke:#181818;stroke-width:0.5;"/><text fill="#000000" font-family="sans-serif" font-size="13" lengthAdjust="spacing" textLength="246.5811" x="113.5" y="104.3638">Se solicita generar un caso de prueba</text><text fill="#000000" font-family="sans-serif" font-size="13" lengthAdjust="spacing" textLength="137.998" x="113.5" y="119.4966">derivado de borrador</text></g><!--link RecuperandoBorrador to TransformandoInformacion--><g class="link" data-entity-1="RecuperandoBorrador" data-entity-2="TransformandoInformacion" data-source-line="15" data-uid="lnk4" id="link_RecuperandoBorrador_TransformandoInformacion"><path d="M102.5,200.5669 C102.5,224.8469 102.5,255.9869 102.5,280.2069" fill="none" id="RecuperandoBorrador-to-TransformandoInformacion" style="stroke:#008000;stroke-width:1;"/><polygon fill="#008000" points="102.5,286.2069,106.5,277.2069,102.5,281.2069,98.5,277.2069,102.5,286.2069" style="stroke:#008000;stroke-width:1;"/><path d="M107.5,223.2969 L107.5,263.2969 L391.5,263.2969 L391.5,233.2969 L381.5,223.2969 L107.5,223.2969" fill="#FEFFDD" style="stroke:#181818;stroke-width:0.5;"/><path d="M381.5,223.2969 L381.5,233.2969 L391.5,233.2969 L381.5,223.2969" fill="#FEFFDD" style="stroke:#181818;stroke-width:0.5;"/><text fill="#000000" font-family="sans-serif" font-size="13" font-weight="bold" lengthAdjust="spacing" textLength="58.9063" x="113.5" y="240.3638">Sistema</text><text fill="#000000" font-family="sans-serif" font-size="13" lengthAdjust="spacing" textLength="200.6494" x="176.5386" y="240.3638">recupera el borrador aprobado</text><text fill="#000000" font-family="sans-serif" font-size="13" lengthAdjust="spacing" textLength="181.6699" x="113.5" y="255.4966">y prepara la transformacion</text></g><!--link TransformandoInformacion to GenerandoCasoPrueba--><g class="link" data-entity-1="TransformandoInformacion" data-entity-2="GenerandoCasoPrueba" data-source-line="21" data-uid="lnk5" id="link_TransformandoInformacion_GenerandoCasoPrueba"><path d="M102.5,336.5669 C102.5,360.8469 102.5,391.9869 102.5,416.2069" fill="none" id="TransformandoInformacion-to-GenerandoCasoPrueba" style="stroke:#008000;stroke-width:1;"/><polygon fill="#008000" points="102.5,422.2069,106.5,413.2069,102.5,417.2069,98.5,413.2069,102.5,422.2069" style="stroke:#008000;stroke-width:1;"/><path d="M107.5,359.2969 L107.5,399.2969 L347.5,399.2969 L347.5,369.2969 L337.5,359.2969 L107.5,359.2969" fill="#FEFFDD" style="stroke:#181818;stroke-width:0.5;"/><path d="M337.5,359.2969 L337.5,369.2969 L347.5,369.2969 L337.5,359.2969" fill="#FEFFDD" style="stroke:#181818;stroke-width:0.5;"/><text fill="#000000" font-family="sans-serif" font-size="13" font-weight="bold" lengthAdjust="spacing" textLength="58.9063" x="113.5" y="376.3638">Sistema</text><text fill="#000000" font-family="sans-serif" font-size="13" lengthAdjust="spacing" textLength="156.292" x="176.5386" y="376.3638">transforma el contenido</text><text fill="#000000" font-family="sans-serif" font-size="13" lengthAdjust="spacing" textLength="205.3149" x="113.5" y="391.4966">del borrador en caso de prueba</text></g><!--link GenerandoCasoPrueba to *end*generarCasoPruebaDerivadoDeBorrador--><g class="link" data-entity-1="GenerandoCasoPrueba" data-entity-2=".end.generarCasoPruebaDerivadoDeBorrador" data-source-line="27" data-uid="lnk7" id="link_GenerandoCasoPrueba_.end.generarCasoPruebaDerivadoDeBorrador"><path d="M102.5,472.5769 C102.5,498.8769 102.5,533.5669 102.5,552.2769" fill="none" id="GenerandoCasoPrueba-to-*end*generarCasoPruebaDerivadoDeBorrador" style="stroke:#008000;stroke-width:1;"/><polygon fill="#008000" points="102.5,558.2769,106.5,549.2769,102.5,553.2769,98.5,549.2769,102.5,558.2769" style="stroke:#008000;stroke-width:1;"/><path d="M107.5,495.2969 L107.5,535.2969 L365.5,535.2969 L365.5,505.2969 L355.5,495.2969 L107.5,495.2969" fill="#FEFFDD" style="stroke:#181818;stroke-width:0.5;"/><path d="M355.5,495.2969 L355.5,505.2969 L365.5,505.2969 L355.5,495.2969" fill="#FEFFDD" style="stroke:#181818;stroke-width:0.5;"/><text fill="#000000" font-family="sans-serif" font-size="13" font-weight="bold" lengthAdjust="spacing" textLength="58.9063" x="113.5" y="512.3638">Sistema</text><text fill="#000000" font-family="sans-serif" font-size="13" lengthAdjust="spacing" textLength="166.0801" x="176.5386" y="512.3638">genera el caso de prueba</text><text fill="#000000" font-family="sans-serif" font-size="13" lengthAdjust="spacing" textLength="237.8657" x="113.5" y="527.4966">y lo deja disponible para publicacion</text></g><g id="CASO_PRUEBA_PREPARADO"><rect fill="#F1F1F1" height="50" rx="12.5" ry="12.5" style="stroke:#181818;stroke-width:0.5;" width="215.8428" x="7" y="685"/><line style="stroke:#181818;stroke-width:0.5;" x1="7" x2="222.8428" y1="711.2969" y2="711.2969"/><text fill="#000000" font-family="sans-serif" font-size="14" lengthAdjust="spacing" textLength="195.8428" x="17" y="702.9951">CASO_PRUEBA_PREPARADO</text></g><g id="BORRADOR_APROBADO"><rect fill="#F1F1F1" height="50" rx="12.5" ry="12.5" style="stroke:#181818;stroke-width:0.5;" width="187.9316" x="258" y="685"/><line style="stroke:#181818;stroke-width:0.5;" x1="258" x2="445.9316" y1="711.2969" y2="711.2969"/><text fill="#000000" font-family="sans-serif" font-size="14" lengthAdjust="spacing" textLength="167.9316" x="268" y="702.9951">BORRADOR_APROBADO</text></g><!--link generarCasoPruebaDerivadoDeBorrador to CASO_PRUEBA_PREPARADO--><g class="link" data-entity-1="generarCasoPruebaDerivadoDeBorrador" data-entity-2="CASO_PRUEBA_PREPARADO" data-source-line="34" data-uid="lnk9" id="link_generarCasoPruebaDerivadoDeBorrador_CASO_PRUEBA_PREPARADO"><path d="M137.78,590.14 C131.73,608.61 128,620 128,620 C128,620 123.2675,652.393 119.4175,678.743" fill="none" id="generarCasoPruebaDerivadoDeBorrador-to-CASO_PRUEBA_PREPARADO" style="stroke:#008000;stroke-width:1;"/><polygon fill="#008000" points="118.55,684.68,123.8092,676.3529,119.2729,679.7325,115.8932,675.1963,118.55,684.68" style="stroke:#008000;stroke-width:1;"/><path d="M133,625 L133,650 L304,650 L304,635 L294,625 L133,625" fill="#FEFFDD" style="stroke:#181818;stroke-width:0.5;"/><path d="M294,625 L294,635 L304,635 L294,625" fill="#FEFFDD" style="stroke:#181818;stroke-width:0.5;"/><text fill="#000000" font-family="sans-serif" font-size="13" lengthAdjust="spacing" textLength="150.7505" x="139" y="642.0669">completarGeneracion()</text></g><!--link generarCasoPruebaDerivadoDeBorrador to BORRADOR_APROBADO--><g class="link" data-entity-1="generarCasoPruebaDerivadoDeBorrador" data-entity-2="BORRADOR_APROBADO" data-source-line="39" data-uid="lnk11" id="link_generarCasoPruebaDerivadoDeBorrador_BORRADOR_APROBADO"><path d="M317.42,590.01 C328.82,629.24 337.0666,657.5881 343.3166,679.1081" fill="none" id="generarCasoPruebaDerivadoDeBorrador-to-BORRADOR_APROBADO" style="stroke:#FF0000;stroke-width:1;"/><polygon fill="#FF0000" points="344.99,684.87,346.3211,675.1115,343.5955,680.0684,338.6386,677.3427,344.99,684.87" style="stroke:#FF0000;stroke-width:1;"/><path d="M339,625 L339,650 L501,650 L501,635 L491,625 L339,625" fill="#FEFFDD" style="stroke:#181818;stroke-width:0.5;"/><path d="M491,625 L491,635 L501,635 L491,625" fill="#FEFFDD" style="stroke:#181818;stroke-width:0.5;"/><text fill="#000000" font-family="sans-serif" font-size="13" lengthAdjust="spacing" textLength="141.5464" x="345" y="642.0669">rechazarGeneracion()</text></g><!--SRC=[ZPFBReCm44NtVCKetIILelv058ayL7K58kqgYYA3fwaROrisLA9L_xrZo0j1Ac21CTTpprmRTnJACCjoa49XKHa4esNbNuB05Qn0EA12o-oIEHtR4bEsGYk-6DShN6XhQM21EHWDq8qd8_W90g2hgJsYczOcc9M65YkkpzAkw9M-ktTjSozxKVKe4rfrbSyr2QckB8tfzd47q-t3mIAgtNH-rrTfAgQLp-HOJsmGd9OY4mKxvm6bWepg0wV86W-lvAUc_NHwMnCLh-is93tEBR9_c-tWpTBvHhW2SpPxIkTWJyK1vOK1cB4wfL6ze29azFiEaa5nyReuj67lmRI8-q8V0djrzxYPLWKgSSBajmrWRzvjqXw85YGTW45GpHxNG5tB2gIV-cJ0XJDQYLJITn-cALCw93qn_WR1aD_e5dKPRg9zdBoj5o4zrd6OXAieQ85dEZSI2sQRjhtjU19S4nbeQP5xmqMKU8ja7yP9jEYOqQ7wODztlFu0]--></g></svg>