<svg xmlns="http://www.w3.org/2000/svg" xmlns:xlink="http://www.w3.org/1999/xlink" contentStyleType="text/css" data-diagram-type="STATE" height="711px" preserveAspectRatio="none" style="width:473px;height:711px;background:#FFFFFF;" version="1.1" viewBox="0 0 473 711" width="473px" zoomAndPan="magnify"><defs/><g><path d="M69,7 L341,7 A12.5,12.5 0 0 1 353.5,19.5 L353.5,33.2969 L56.5,33.2969 L56.5,19.5 A12.5,12.5 0 0 1 69,7" fill="#F1F1F1"/><rect fill="none" height="553.2969" rx="12.5" ry="12.5" style="stroke:#181818;stroke-width:0.5;" width="297" x="56.5" y="7"/><line style="stroke:#181818;stroke-width:0.5;" x1="56.5" x2="353.5" y1="33.2969" y2="33.2969"/><text fill="#000000" font-family="sans-serif" font-size="14" lengthAdjust="spacing" textLength="128.3721" x="140.814" y="24.9951">eliminarCasoUso()</text><g id="eliminarCasoUso.SeleccionandoCasoUso"><rect fill="#F1F1F1" height="50" rx="12.5" ry="12.5" style="stroke:#181818;stroke-width:0.5;" width="50" x="68.5" y="135.2969"/><line style="stroke:#181818;stroke-width:0.5;" x1="68.5" x2="118.5" y1="161.5938" y2="161.5938"/><text fill="#000000" font-family="sans-serif" font-size="14" lengthAdjust="spacing" textLength="4.4502" x="91.2749" y="153.292">&#160;</text></g><g id="eliminarCasoUso.ConfirmandoEliminacion"><rect fill="#F1F1F1" height="50" rx="12.5" ry="12.5" style="stroke:#181818;stroke-width:0.5;" width="50" x="68.5" y="271.2969"/><line style="stroke:#181818;stroke-width:0.5;" x1="68.5" x2="118.5" y1="297.5938" y2="297.5938"/><text fill="#000000" font-family="sans-serif" font-size="14" lengthAdjust="spacing" textLength="4.4502" x="91.2749" y="289.292">&#160;</text></g><g id="eliminarCasoUso.EliminandoCasoUso"><rect fill="#F1F1F1" height="50" rx="12.5" ry="12.5" style="stroke:#181818;stroke-width:0.5;" width="50" x="68.5" y="407.2969"/><line style="stroke:#181818;stroke-width:0.5;" x1="68.5" x2="118.5" y1="433.5938" y2="433.5938"/><text fill="#000000" font-family="sans-serif" font-size="14" lengthAdjust="spacing" textLength="4.4502" x="91.2749" y="425.292">&#160;</text></g><ellipse cx="93.5" cy="54.2969" fill="#222222" rx="10" ry="10" style="stroke:#222222;stroke-width:1;"/><ellipse cx="93.5" cy="539.2969" fill="none" rx="11" ry="11" style="stroke:#222222;stroke-width:1;"/><ellipse cx="93.5" cy="539.2969" fill="#222222" rx="6" ry="6" style="stroke:#222222;stroke-width:1;"/><!--link *start*eliminarCasoUso to SeleccionandoCasoUso--><g class="link" data-entity-1=".start.eliminarCasoUso" data-entity-2="SeleccionandoCasoUso" data-source-line="9" data-uid="lnk3" id="link_.start.eliminarCasoUso_SeleccionandoCasoUso"><path d="M93.5,64.5269 C93.5,80.2369 93.5,106.6569 93.5,129.1669" fill="none" id="*start*eliminarCasoUso-to-SeleccionandoCasoUso" style="stroke:#008000;stroke-width:1;"/><polygon fill="#008000" points="93.5,135.1669,97.5,126.1669,93.5,130.1669,89.5,126.1669,93.5,135.1669" style="stroke:#008000;stroke-width:1;"/><path d="M98.5,87.2969 L98.5,112.2969 L344.5,112.2969 L344.5,97.2969 L334.5,87.2969 L98.5,87.2969" fill="#FEFFDD" style="stroke:#181818;stroke-width:0.5;"/><path d="M334.5,87.2969 L334.5,97.2969 L344.5,97.2969 L334.5,87.2969" fill="#FEFFDD" style="stroke:#181818;stroke-width:0.5;"/><text fill="#000000" font-family="sans-serif" font-size="13" lengthAdjust="spacing" textLength="225.3989" x="104.5" y="104.3638">Se solicita eliminar un caso de uso</text></g><!--link SeleccionandoCasoUso to ConfirmandoEliminacion--><g class="link" data-entity-1="SeleccionandoCasoUso" data-entity-2="ConfirmandoEliminacion" data-source-line="14" data-uid="lnk4" id="link_SeleccionandoCasoUso_ConfirmandoEliminacion"><path d="M93.5,185.5669 C93.5,209.8469 93.5,240.9869 93.5,265.2069" fill="none" id="SeleccionandoCasoUso-to-ConfirmandoEliminacion" style="stroke:#008000;stroke-width:1;"/><polygon fill="#008000" points="93.5,271.2069,97.5,262.2069,93.5,266.2069,89.5,262.2069,93.5,271.2069" style="stroke:#008000;stroke-width:1;"/><path d="M98.5,208.2969 L98.5,248.2969 L316.5,248.2969 L316.5,218.2969 L306.5,208.2969 L98.5,208.2969" fill="#FEFFDD" style="stroke:#181818;stroke-width:0.5;"/><path d="M306.5,208.2969 L306.5,218.2969 L316.5,218.2969 L306.5,208.2969" fill="#FEFFDD" style="stroke:#181818;stroke-width:0.5;"/><text fill="#000000" font-family="sans-serif" font-size="13" font-weight="bold" lengthAdjust="spacing" textLength="58.9063" x="104.5" y="225.3638">Sistema</text><text fill="#000000" font-family="sans-serif" font-size="13" lengthAdjust="spacing" textLength="134.3608" x="167.5386" y="225.3638">solicita confirmacion</text><text fill="#000000" font-family="sans-serif" font-size="13" lengthAdjust="spacing" textLength="100.5596" x="104.5" y="240.4966">de la operacion</text></g><!--link ConfirmandoEliminacion to EliminandoCasoUso--><g class="link" data-entity-1="ConfirmandoEliminacion" data-entity-2="EliminandoCasoUso" data-source-line="20" data-uid="lnk5" id="link_ConfirmandoEliminacion_EliminandoCasoUso"><path d="M93.5,321.5669 C93.5,345.8469 93.5,376.9869 93.5,401.2069" fill="none" id="ConfirmandoEliminacion-to-EliminandoCasoUso" style="stroke:#008000;stroke-width:1;"/><polygon fill="#008000" points="93.5,407.2069,97.5,398.2069,93.5,402.2069,89.5,398.2069,93.5,407.2069" style="stroke:#008000;stroke-width:1;"/><path d="M98.5,344.2969 L98.5,384.2969 L325.5,384.2969 L325.5,354.2969 L315.5,344.2969 L98.5,344.2969" fill="#FEFFDD" style="stroke:#181818;stroke-width:0.5;"/><path d="M315.5,344.2969 L315.5,354.2969 L325.5,354.2969 L315.5,344.2969" fill="#FEFFDD" style="stroke:#181818;stroke-width:0.5;"/><text fill="#000000" font-family="sans-serif" font-size="13" font-weight="bold" lengthAdjust="spacing" textLength="58.9063" x="104.5" y="361.3638">Sistema</text><text fill="#000000" font-family="sans-serif" font-size="13" lengthAdjust="spacing" textLength="143.3999" x="167.5386" y="361.3638">valida la confirmacion</text><text fill="#000000" font-family="sans-serif" font-size="13" lengthAdjust="spacing" textLength="157.4473" x="104.5" y="376.4966">y prepara la eliminacion</text></g><!--link EliminandoCasoUso to *end*eliminarCasoUso--><g class="link" data-entity-1="EliminandoCasoUso" data-entity-2=".end.eliminarCasoUso" data-source-line="26" data-uid="lnk7" id="link_EliminandoCasoUso_.end.eliminarCasoUso"><path d="M93.5,457.3869 C93.5,479.7869 93.5,506.0669 93.5,522.2469" fill="none" id="EliminandoCasoUso-to-*end*eliminarCasoUso" style="stroke:#008000;stroke-width:1;"/><polygon fill="#008000" points="93.5,528.2469,97.5,519.2469,93.5,523.2469,89.5,519.2469,93.5,528.2469" style="stroke:#008000;stroke-width:1;"/><path d="M98.5,480.2969 L98.5,505.2969 L326.5,505.2969 L326.5,490.2969 L316.5,480.2969 L98.5,480.2969" fill="#FEFFDD" style="stroke:#181818;stroke-width:0.5;"/><path d="M316.5,480.2969 L316.5,490.2969 L326.5,490.2969 L316.5,480.2969" fill="#FEFFDD" style="stroke:#181818;stroke-width:0.5;"/><text fill="#000000" font-family="sans-serif" font-size="13" font-weight="bold" lengthAdjust="spacing" textLength="58.9063" x="104.5" y="497.3638">Sistema</text><text fill="#000000" font-family="sans-serif" font-size="13" lengthAdjust="spacing" textLength="144.8979" x="167.5386" y="497.3638">elimina el caso de uso</text></g><g id="CASOS_USO_ABIERTO"><rect fill="#F1F1F1" height="50" rx="12.5" ry="12.5" style="stroke:#181818;stroke-width:0.5;" width="173.7539" x="7" y="655"/><line style="stroke:#181818;stroke-width:0.5;" x1="7" x2="180.7539" y1="681.2969" y2="681.2969"/><text fill="#000000" font-family="sans-serif" font-size="14" lengthAdjust="spacing" textLength="153.7539" x="17" y="672.9951">CASOS_USO_ABIERTO</text></g><g id="CASO_USO_ABIERTO"><rect fill="#F1F1F1" height="50" rx="12.5" ry="12.5" style="stroke:#181818;stroke-width:0.5;" width="164.8672" x="233.5" y="655"/><line style="stroke:#181818;stroke-width:0.5;" x1="233.5" x2="398.3672" y1="681.2969" y2="681.2969"/><text fill="#000000" font-family="sans-serif" font-size="14" lengthAdjust="spacing" textLength="144.8672" x="243.5" y="672.9951">CASO_USO_ABIERTO</text></g><!--link eliminarCasoUso to CASOS_USO_ABIERTO--><g class="link" data-entity-1="eliminarCasoUso" data-entity-2="CASOS_USO_ABIERTO" data-source-line="32" data-uid="lnk9" id="link_eliminarCasoUso_CASOS_USO_ABIERTO"><path d="M102.14,560.15 C95.26,578.58 91,590 91,590 C91,590 91,625 91,625 C91,625 91.5265,634.4793 92.3265,648.8493" fill="none" id="eliminarCasoUso-to-CASOS_USO_ABIERTO" style="stroke:#008000;stroke-width:1;"/><polygon fill="#008000" points="92.66,654.84,96.1535,645.6316,92.3821,649.8477,88.1659,646.0763,92.66,654.84" style="stroke:#008000;stroke-width:1;"/><path d="M96,595 L96,620 L268,620 L268,605 L258,595 L96,595" fill="#FEFFDD" style="stroke:#181818;stroke-width:0.5;"/><path d="M258,595 L258,605 L268,605 L258,595" fill="#FEFFDD" style="stroke:#181818;stroke-width:0.5;"/><text fill="#000000" font-family="sans-serif" font-size="13" lengthAdjust="spacing" textLength="151.0488" x="102" y="612.0669">completarEliminacion()</text></g><!--link eliminarCasoUso to CASO_USO_ABIERTO--><g class="link" data-entity-1="eliminarCasoUso" data-entity-2="CASO_USO_ABIERTO" data-source-line="37" data-uid="lnk11" id="link_eliminarCasoUso_CASO_USO_ABIERTO"><path d="M282.55,560.1 C293.52,599.1 301.494,627.4445 307.564,649.0045" fill="none" id="eliminarCasoUso-to-CASO_USO_ABIERTO" style="stroke:#FF0000;stroke-width:1;"/><polygon fill="#FF0000" points="309.19,654.78,310.6013,645.0328,307.835,649.9671,302.9006,647.2008,309.19,654.78" style="stroke:#FF0000;stroke-width:1;"/><path d="M304,595 L304,620 L466,620 L466,605 L456,595 L304,595" fill="#FEFFDD" style="stroke:#181818;stroke-width:0.5;"/><path d="M456,595 L456,605 L466,605 L456,595" fill="#FEFFDD" style="stroke:#181818;stroke-width:0.5;"/><text fill="#000000" font-family="sans-serif" font-size="13" lengthAdjust="spacing" textLength="141.8447" x="310" y="612.0669">rechazarEliminacion()</text></g><!--SRC=[ZL9FQy8m5B_dKpowYmvaNq0AJZpiL5ZdIKIUwTiMJ9EIr44tzjsNrCwQnehf8VJbz-_bnHw4gj1W2L8egfkAeDAoyJ-CsHfh0fAY50hD4grUMmre8HdK9jC4VXW3jqwSn7qEbvCapeLMg0hTOMFKKgjtOKgFMPrqFIN6TOSNKYrcyxY5sURXmn2fxImTDrNQQMdbEpsqXPp0QYcugF7S9HmLS4U2Wk3O4KaLBPbrh5W_272ZdoZ2V9_cmjPKulnfd_PnUATnPheu4a5NPFfQcEkwRP0ili5xGdsX50Lw-oXL0vKX_txyAGsQ3UD5ta4oDyIxidGURX-VqYzZmpSRZ6UHP_bkdMUxnVFBwlKjOu4frsKbgKPpSOcJAUkRkQ9jgFXN7XSsn3_nUqpt3m00]--></g></svg>