<svg xmlns="http://www.w3.org/2000/svg" xmlns:xlink="http://www.w3.org/1999/xlink" contentStyleType="text/css" data-diagram-type="STATE" height="726px" preserveAspectRatio="none" style="width:600px;height:726px;background:#FFFFFF;" version="1.1" viewBox="0 0 600 726" width="600px" zoomAndPan="magnify"><defs/><g><path d="M122,7 L448,7 A12.5,12.5 0 0 1 460.5,19.5 L460.5,33.2969 L109.5,33.2969 L109.5,19.5 A12.5,12.5 0 0 1 122,7" fill="#F1F1F1"/><rect fill="none" height="568.2969" rx="12.5" ry="12.5" style="stroke:#181818;stroke-width:0.5;" width="351" x="109.5" y="7"/><line style="stroke:#181818;stroke-width:0.5;" x1="109.5" x2="460.5" y1="33.2969" y2="33.2969"/><text fill="#000000" font-family="sans-serif" font-size="14" lengthAdjust="spacing" textLength="212.126" x="178.937" y="24.9951">actualizarRequisitoFuncional()</text><g id="actualizarRequisitoFuncional.RecuperandoRequisito"><rect fill="#F1F1F1" height="50" rx="12.5" ry="12.5" style="stroke:#181818;stroke-width:0.5;" width="50" x="121.5" y="135.2969"/><line style="stroke:#181818;stroke-width:0.5;" x1="121.5" x2="171.5" y1="161.5938" y2="161.5938"/><text fill="#000000" font-family="sans-serif" font-size="14" lengthAdjust="spacing" textLength="4.4502" x="144.2749" y="153.292">&#160;</text></g><g id="actualizarRequisitoFuncional.EditandoRequisito"><rect fill="#F1F1F1" height="50" rx="12.5" ry="12.5" style="stroke:#181818;stroke-width:0.5;" width="50" x="121.5" y="271.2969"/><line style="stroke:#181818;stroke-width:0.5;" x1="121.5" x2="171.5" y1="297.5938" y2="297.5938"/><text fill="#000000" font-family="sans-serif" font-size="14" lengthAdjust="spacing" textLength="4.4502" x="144.2749" y="289.292">&#160;</text></g><g id="actualizarRequisitoFuncional.GuardandoCambios"><rect fill="#F1F1F1" height="50" rx="12.5" ry="12.5" style="stroke:#181818;stroke-width:0.5;" width="50" x="121.5" y="407.2969"/><line style="stroke:#181818;stroke-width:0.5;" x1="121.5" x2="171.5" y1="433.5938" y2="433.5938"/><text fill="#000000" font-family="sans-serif" font-size="14" lengthAdjust="spacing" textLength="4.4502" x="144.2749" y="425.292">&#160;</text></g><ellipse cx="146.5" cy="54.2969" fill="#222222" rx="10" ry="10" style="stroke:#222222;stroke-width:1;"/><ellipse cx="146.5" cy="554.2969" fill="none" rx="11" ry="11" style="stroke:#222222;stroke-width:1;"/><ellipse cx="146.5" cy="554.2969" fill="#222222" rx="6" ry="6" style="stroke:#222222;stroke-width:1;"/><!--link *start*actualizarRequisitoFuncional to RecuperandoRequisito--><g class="link" data-entity-1=".start.actualizarRequisitoFuncional" data-entity-2="RecuperandoRequisito" data-source-line="9" data-uid="lnk3" id="link_.start.actualizarRequisitoFuncional_RecuperandoRequisito"><path d="M146.5,64.5269 C146.5,80.2369 146.5,106.6569 146.5,129.1669" fill="none" id="*start*actualizarRequisitoFuncional-to-RecuperandoRequisito" style="stroke:#008000;stroke-width:1;"/><polygon fill="#008000" points="146.5,135.1669,150.5,126.1669,146.5,130.1669,142.5,126.1669,146.5,135.1669" style="stroke:#008000;stroke-width:1;"/><path d="M151.5,87.2969 L151.5,112.2969 L451.5,112.2969 L451.5,97.2969 L441.5,87.2969 L151.5,87.2969" fill="#FEFFDD" style="stroke:#181818;stroke-width:0.5;"/><path d="M441.5,87.2969 L441.5,97.2969 L451.5,97.2969 L441.5,87.2969" fill="#FEFFDD" style="stroke:#181818;stroke-width:0.5;"/><text fill="#000000" font-family="sans-serif" font-size="13" lengthAdjust="spacing" textLength="279.4048" x="157.5" y="104.3638">Se solicita actualizar un requisito funcional</text></g><!--link RecuperandoRequisito to EditandoRequisito--><g class="link" data-entity-1="RecuperandoRequisito" data-entity-2="EditandoRequisito" data-source-line="14" data-uid="lnk4" id="link_RecuperandoRequisito_EditandoRequisito"><path d="M146.5,185.5669 C146.5,209.8469 146.5,240.9869 146.5,265.2069" fill="none" id="RecuperandoRequisito-to-EditandoRequisito" style="stroke:#008000;stroke-width:1;"/><polygon fill="#008000" points="146.5,271.2069,150.5,262.2069,146.5,266.2069,142.5,262.2069,146.5,271.2069" style="stroke:#008000;stroke-width:1;"/><path d="M151.5,208.2969 L151.5,248.2969 L370.5,248.2969 L370.5,218.2969 L360.5,208.2969 L151.5,208.2969" fill="#FEFFDD" style="stroke:#181818;stroke-width:0.5;"/><path d="M360.5,208.2969 L360.5,218.2969 L370.5,218.2969 L360.5,208.2969" fill="#FEFFDD" style="stroke:#181818;stroke-width:0.5;"/><text fill="#000000" font-family="sans-serif" font-size="13" font-weight="bold" lengthAdjust="spacing" textLength="58.9063" x="157.5" y="225.3638">Sistema</text><text fill="#000000" font-family="sans-serif" font-size="13" lengthAdjust="spacing" textLength="135.0464" x="220.5386" y="225.3638">recupera el requisito</text><text fill="#000000" font-family="sans-serif" font-size="13" lengthAdjust="spacing" textLength="132.8818" x="157.5" y="240.4966">y permite su edicion</text></g><!--link EditandoRequisito to GuardandoCambios--><g class="link" data-entity-1="EditandoRequisito" data-entity-2="GuardandoCambios" data-source-line="20" data-uid="lnk5" id="link_EditandoRequisito_GuardandoCambios"><path d="M146.5,321.5669 C146.5,345.8469 146.5,376.9869 146.5,401.2069" fill="none" id="EditandoRequisito-to-GuardandoCambios" style="stroke:#008000;stroke-width:1;"/><polygon fill="#008000" points="146.5,407.2069,150.5,398.2069,146.5,402.2069,142.5,398.2069,146.5,407.2069" style="stroke:#008000;stroke-width:1;"/><path d="M151.5,344.2969 L151.5,384.2969 L355.5,384.2969 L355.5,354.2969 L345.5,344.2969 L151.5,344.2969" fill="#FEFFDD" style="stroke:#181818;stroke-width:0.5;"/><path d="M345.5,344.2969 L345.5,354.2969 L355.5,354.2969 L345.5,344.2969" fill="#FEFFDD" style="stroke:#181818;stroke-width:0.5;"/><text fill="#000000" font-family="sans-serif" font-size="13" font-weight="bold" lengthAdjust="spacing" textLength="58.9063" x="157.5" y="361.3638">Sistema</text><text fill="#000000" font-family="sans-serif" font-size="13" lengthAdjust="spacing" textLength="120.0723" x="220.5386" y="361.3638">valida los cambios</text><text fill="#000000" font-family="sans-serif" font-size="13" lengthAdjust="spacing" textLength="80.4756" x="157.5" y="376.4966">introducidos</text></g><!--link GuardandoCambios to *end*actualizarRequisitoFuncional--><g class="link" data-entity-1="GuardandoCambios" data-entity-2=".end.actualizarRequisitoFuncional" data-source-line="26" data-uid="lnk7" id="link_GuardandoCambios_.end.actualizarRequisitoFuncional"><path d="M146.5,457.5769 C146.5,483.8769 146.5,518.5669 146.5,537.2769" fill="none" id="GuardandoCambios-to-*end*actualizarRequisitoFuncional" style="stroke:#008000;stroke-width:1;"/><polygon fill="#008000" points="146.5,543.2769,150.5,534.2769,146.5,538.2769,142.5,534.2769,146.5,543.2769" style="stroke:#008000;stroke-width:1;"/><path d="M151.5,480.2969 L151.5,520.2969 L392.5,520.2969 L392.5,490.2969 L382.5,480.2969 L151.5,480.2969" fill="#FEFFDD" style="stroke:#181818;stroke-width:0.5;"/><path d="M382.5,480.2969 L382.5,490.2969 L392.5,490.2969 L382.5,480.2969" fill="#FEFFDD" style="stroke:#181818;stroke-width:0.5;"/><text fill="#000000" font-family="sans-serif" font-size="13" font-weight="bold" lengthAdjust="spacing" textLength="58.9063" x="157.5" y="497.3638">Sistema</text><text fill="#000000" font-family="sans-serif" font-size="13" lengthAdjust="spacing" textLength="157.7456" x="220.5386" y="497.3638">guarda la nueva version</text><text fill="#000000" font-family="sans-serif" font-size="13" lengthAdjust="spacing" textLength="144.5933" x="157.5" y="512.4966">del requisito funcional</text></g><g id="REQUISITO_FUNCIONAL_ABIERTO"><rect fill="#F1F1F1" height="50" rx="12.5" ry="12.5" style="stroke:#181818;stroke-width:0.5;" width="253.5566" x="7" y="670"/><line style="stroke:#181818;stroke-width:0.5;" x1="7" x2="260.5566" y1="696.2969" y2="696.2969"/><text fill="#000000" font-family="sans-serif" font-size="14" lengthAdjust="spacing" textLength="233.5566" x="17" y="687.9951">REQUISITO_FUNCIONAL_ABIERTO</text></g><g id="REQUISITOS_FUNCIONALES_ABIERTO"><rect fill="#F1F1F1" height="50" rx="12.5" ry="12.5" style="stroke:#181818;stroke-width:0.5;" width="280.1758" x="296" y="670"/><line style="stroke:#181818;stroke-width:0.5;" x1="296" x2="576.1758" y1="696.2969" y2="696.2969"/><text fill="#000000" font-family="sans-serif" font-size="14" lengthAdjust="spacing" textLength="260.1758" x="306" y="687.9951">REQUISITOS_FUNCIONALES_ABIERTO</text></g><!--link actualizarRequisitoFuncional to REQUISITO_FUNCIONAL_ABIERTO--><g class="link" data-entity-1="actualizarRequisitoFuncional" data-entity-2="REQUISITO_FUNCIONAL_ABIERTO" data-source-line="33" data-uid="lnk9" id="link_actualizarRequisitoFuncional_REQUISITO_FUNCIONAL_ABIERTO"><path d="M178.69,575.02 C163.99,614.15 153.291,642.6536 145.191,664.2036" fill="none" id="actualizarRequisitoFuncional-to-REQUISITO_FUNCIONAL_ABIERTO" style="stroke:#008000;stroke-width:1;"/><polygon fill="#008000" points="143.08,669.82,149.9908,662.8028,144.8392,665.1397,142.5023,659.9881,143.08,669.82" style="stroke:#008000;stroke-width:1;"/><path d="M172,610 L172,635 L355,635 L355,620 L345,610 L172,610" fill="#FEFFDD" style="stroke:#181818;stroke-width:0.5;"/><path d="M345,610 L345,620 L355,620 L345,610" fill="#FEFFDD" style="stroke:#181818;stroke-width:0.5;"/><text fill="#000000" font-family="sans-serif" font-size="13" lengthAdjust="spacing" textLength="162.4873" x="178" y="627.0669">completarActualizacion()</text></g><!--link actualizarRequisitoFuncional to REQUISITOS_FUNCIONALES_ABIERTO--><g class="link" data-entity-1="actualizarRequisitoFuncional" data-entity-2="REQUISITOS_FUNCIONALES_ABIERTO" data-source-line="38" data-uid="lnk11" id="link_actualizarRequisitoFuncional_REQUISITOS_FUNCIONALES_ABIERTO"><path d="M391.31,575.02 C406.01,614.15 416.709,642.6536 424.809,664.2036" fill="none" id="actualizarRequisitoFuncional-to-REQUISITOS_FUNCIONALES_ABIERTO" style="stroke:#FF0000;stroke-width:1;"/><polygon fill="#FF0000" points="426.92,669.82,427.4977,659.9881,425.1608,665.1397,420.0092,662.8028,426.92,669.82" style="stroke:#FF0000;stroke-width:1;"/><path d="M419,610 L419,635 L593,635 L593,620 L583,610 L419,610" fill="#FEFFDD" style="stroke:#181818;stroke-width:0.5;"/><path d="M583,610 L583,620 L593,620 L583,610" fill="#FEFFDD" style="stroke:#181818;stroke-width:0.5;"/><text fill="#000000" font-family="sans-serif" font-size="13" lengthAdjust="spacing" textLength="153.2832" x="425" y="627.0669">rechazarActualizacion()</text></g><!--SRC=[ZPBTQi9048NlynI3lT62z0L4i19Be2WrUYKYOtPg5pUxwVu8MlhktSIccYR-PAyop3dVcTarMoupr9Y2u9BiFYF8bDZdFq5WB5e2JAn3mG-ef_JfkE5MZPnCk98e00sqhZMqEotu2WBmtz6jvOyNJIbn6McKJFs9wbqXu_P6ouj3pVAU8QPhhioHjNXSGdVniD54SjdjNyP9vQsKpAVV5eMOm2Z14my-cnoS15qAuRsShb2GP8NDaTn4gaHfdgcMexVknznOIh7tjEvx-D4MI9o258rxyFMKUxbnG8pdoHforR2LKBKjtfDfvtV348Goa9p9kBHQCPTmzbke1lcFgkJmztONUbEOW42GZdO8EzAcd9kTh-ZINNq7mTLtNNayuTiyYgFPP3MQZuVHP3nuNGsUet0wcmILe8bACq4MzQ2qpjtQdU2qWLjGJQo2Z4_CC6wc-gVnWOVBq1y0]--></g></svg>