<svg xmlns="http://www.w3.org/2000/svg" xmlns:xlink="http://www.w3.org/1999/xlink" contentStyleType="text/css" data-diagram-type="DESCRIPTION" height="123px" preserveAspectRatio="none" style="width:882px;height:123px;background:#FFFFFF;" version="1.1" viewBox="0 0 882 123" width="882px" zoomAndPan="magnify"><defs/><g><!--entity Actor--><g class="entity" data-entity="Actor" data-source-line="5" data-uid="ent0002" id="entity_Actor"><ellipse cx="24.5425" cy="14" fill="#F1F1F1" rx="8" ry="8" style="stroke:#181818;stroke-width:0.5;"/><path d="M24.5425,22 L24.5425,49 M11.5425,30 L37.5425,30 M24.5425,49 L11.5425,64 M24.5425,49 L37.5425,64" fill="none" style="stroke:#181818;stroke-width:0.5;"/><text fill="#000000" font-family="sans-serif" font-size="14" lengthAdjust="spacing" textLength="37.085" x="6" y="78.4951">Actor</text></g><!--entity MAS--><g class="entity" data-entity="MAS" data-source-line="6" data-uid="ent0003" id="entity_MAS"><rect fill="#F1F1F1" height="52.5938" rx="2.5" ry="2.5" style="stroke:#181818;stroke-width:0.5;" width="265.7178" x="287" y="17"/><text fill="#000000" font-family="sans-serif" font-size="14" lengthAdjust="spacing" textLength="144.1152" x="297" y="39.9951">Sistema Multiagente</text><text fill="#000000" font-family="sans-serif" font-size="14" lengthAdjust="spacing" textLength="245.7178" x="297" y="56.292">de Generaci&#243;n de Casos de Prueba</text></g><!--entity KIWI--><g class="entity" data-entity="KIWI" data-source-line="7" data-uid="ent0004" id="entity_KIWI"><rect fill="#F1F1F1" height="36.2969" rx="2.5" ry="2.5" style="stroke:#181818;stroke-width:0.5;" width="92.1533" x="784" y="25.5"/><text fill="#000000" font-family="sans-serif" font-size="14" lengthAdjust="spacing" textLength="72.1533" x="794" y="48.4951">Kiwi TCMS</text></g><!--link Actor to MAS--><g class="link" data-entity-1="Actor" data-entity-2="MAS" data-source-line="9" data-uid="lnk5" id="link_Actor_MAS"><path d="M43.17,43.5 C85.57,43.5 190.24,43.5 280.58,43.5" fill="none" id="Actor-to-MAS" style="stroke:#181818;stroke-width:1;"/><polygon fill="#181818" points="286.58,43.5,277.58,39.5,281.58,43.5,277.58,47.5,286.58,43.5" style="stroke:#181818;stroke-width:1;"/><text fill="#000000" font-family="sans-serif" font-size="13" lengthAdjust="spacing" textLength="182.2476" x="74" y="24.5669">Proporciona documentaci&#243;n</text><text fill="#000000" font-family="sans-serif" font-size="13" lengthAdjust="spacing" textLength="146.9038" x="91.6719" y="39.6997">solicita procesamiento</text></g><!--link MAS to Actor--><g class="link" data-entity-1="MAS" data-entity-2="Actor" data-source-line="10" data-uid="lnk6" id="link_MAS_Actor"><path d="M348.2,70.04 C276.67,92.67 164.03,116.72 73,83.5 C61.86,79.43 55.8705,75.6019 47.7105,67.8519" fill="none" id="MAS-to-Actor" style="stroke:#181818;stroke-width:1;"/><polygon fill="#181818" points="43.36,63.72,47.1312,72.8183,46.9854,67.1633,52.6404,67.0176,43.36,63.72" style="stroke:#181818;stroke-width:1;"/><text fill="#000000" font-family="sans-serif" font-size="13" lengthAdjust="spacing" textLength="137.5156" x="96.5" y="64.5669">Devuelve resultados,</text><text fill="#000000" font-family="sans-serif" font-size="13" lengthAdjust="spacing" textLength="131.1807" x="99.6675" y="79.6997">borradores y estado</text></g><!--link MAS to KIWI--><g class="link" data-entity-1="MAS" data-entity-2="KIWI" data-source-line="11" data-uid="lnk7" id="link_MAS_KIWI"><path d="M553.18,43.5 C632.55,43.5 722.54,43.5 777.81,43.5" fill="none" id="MAS-to-KIWI" style="stroke:#181818;stroke-width:1;"/><polygon fill="#181818" points="783.81,43.5,774.81,39.5,778.81,43.5,774.81,47.5,783.81,43.5" style="stroke:#181818;stroke-width:1;"/><text fill="#000000" font-family="sans-serif" font-size="13" lengthAdjust="spacing" textLength="122.8525" x="607.4451" y="24.5669">Publica / consulta /</text><text fill="#000000" font-family="sans-serif" font-size="13" lengthAdjust="spacing" textLength="169.7427" x="584" y="39.6997">actualiza casos de prueba</text></g><!--link KIWI to MAS--><g class="link" data-entity-1="KIWI" data-entity-2="MAS" data-source-line="12" data-uid="lnk8" id="link_KIWI_MAS"><path d="M802.88,61.52 C789.03,69.99 771.32,79.16 754,83.5 C670.4,104.4 577.9655,89.2752 509.9555,71.5252" fill="none" id="KIWI-to-MAS" style="stroke:#181818;stroke-width:1;"/><polygon fill="#181818" points="504.15,70.01,511.8482,76.1531,508.9879,71.2727,513.8684,68.4124,504.15,70.01" style="stroke:#181818;stroke-width:1;"/><text fill="#000000" font-family="sans-serif" font-size="13" lengthAdjust="spacing" textLength="166.6768" x="585.5" y="64.5669">Respuesta de publicaci&#243;n</text><text fill="#000000" font-family="sans-serif" font-size="13" lengthAdjust="spacing" textLength="66.8535" x="635.4116" y="79.6997">y consulta</text></g><!--SRC=[JP1DQWCn38NtFeN8kY7xBWfX2YM4GEWKkfcDngDEH3pMu9-4z5ezGYzMsMdJh2nRUj_JiwEF14aWy7X8C70WcrYyYKVsCmQSe4Tx78DaFpJY9C3vm8dk-hFsSQGsNHn1aQCV7Hc3DkdqObsE1M24MfdR12nQZeacX5rsYHNX4tL-87WXJm4jVtzvq6k3KM8fzY5JZvMrMxVtf2sV6TwQNLkRsytxnfXgjrm-bLbuLB7C4gncGnZ4vadjhXwTZ-BOSaAOWrYAEB4snHHX0LII8fxfbCcTIigeA-CWyQ7plOIWfRx11IYMvvkoR5AySwy622kmugiKLftN3yhe-1F1_YMSQq9JPV-hlrASSo7NaIlhT_FBZVW3]--></g></svg>