<svg xmlns="http://www.w3.org/2000/svg" xmlns:xlink="http://www.w3.org/1999/xlink" contentStyleType="text/css" data-diagram-type="SEQUENCE" height="665px" preserveAspectRatio="none" style="width:1525px;height:665px;background:#FFFFFF;" version="1.1" viewBox="0 0 1525 665" width="1525px" zoomAndPan="magnify"><defs/><g><rect fill="none" height="177.6016" style="stroke:#000000;stroke-width:1.5;" width="1308.5103" x="210.1875" y="360.4922"/><g><title>Actor</title><rect fill="#000000" fill-opacity="0.00000" height="502.9297" width="8" x="22.5425" y="81.2969"/><line style="stroke:#181818;stroke-width:0.5;stroke-dasharray:5,5;" x1="26" x2="26" y1="81.2969" y2="584.2266"/></g><g><title>Orchestrator</title><rect fill="#000000" fill-opacity="0.00000" height="502.9297" width="8" x="267.6313" y="81.2969"/><line style="stroke:#181818;stroke-width:0.5;stroke-dasharray:5,5;" x1="271.1875" x2="271.1875" y1="81.2969" y2="584.2266"/></g><g><title>Extract UC.RF Agent</title><rect fill="#000000" fill-opacity="0.00000" height="502.9297" width="8" x="452.6396" y="81.2969"/><line style="stroke:#181818;stroke-width:0.5;stroke-dasharray:5,5;" x1="456.1392" x2="456.1392" y1="81.2969" y2="584.2266"/></g><g><title>Requirements Manager Agent</title><rect fill="#000000" fill-opacity="0.00000" height="502.9297" width="8" x="653.1265" y="81.2969"/><line style="stroke:#181818;stroke-width:0.5;stroke-dasharray:5,5;" x1="656.1401" x2="656.1401" y1="81.2969" y2="584.2266"/></g><g><title>Gherkin Generator Agent</title><rect fill="#000000" fill-opacity="0.00000" height="502.9297" width="8" x="870.3101" y="81.2969"/><line style="stroke:#181818;stroke-width:0.5;stroke-dasharray:5,5;" x1="874.1128" x2="874.1128" y1="81.2969" y2="584.2266"/></g><g><title>Review . Publish Agent</title><rect fill="#000000" fill-opacity="0.00000" height="502.9297" width="8" x="1065.7246" y="81.2969"/><line style="stroke:#181818;stroke-width:0.5;stroke-dasharray:5,5;" x1="1069.5073" x2="1069.5073" y1="81.2969" y2="584.2266"/></g><g><title>Kiwi Case Manager Agent</title><rect fill="#000000" fill-opacity="0.00000" height="502.9297" width="8" x="1262.356" y="81.2969"/><line style="stroke:#181818;stroke-width:0.5;stroke-dasharray:5,5;" x1="1265.9419" x2="1265.9419" y1="81.2969" y2="584.2266"/></g><g><title>Kiwi TCMS</title><rect fill="#000000" fill-opacity="0.00000" height="502.9297" width="8" x="1461.6211" y="81.2969"/><line style="stroke:#181818;stroke-width:0.5;stroke-dasharray:5,5;" x1="1465.5444" x2="1465.5444" y1="81.2969" y2="584.2266"/></g><g class="participant participant-head" data-participant="Actor"><text fill="#000000" font-family="sans-serif" font-size="14" lengthAdjust="spacing" textLength="37.085" x="5" y="77.9951">Actor</text><ellipse cx="26.5425" cy="13.5" fill="#E2E2F0" rx="8" ry="8" style="stroke:#181818;stroke-width:0.5;"/><path d="M26.5425,21.5 L26.5425,48.5 M13.5425,29.5 L39.5425,29.5 M26.5425,48.5 L13.5425,63.5 M26.5425,48.5 L39.5425,63.5" fill="none" style="stroke:#181818;stroke-width:0.5;"/></g><g class="participant participant-tail" data-participant="Actor"><text fill="#000000" font-family="sans-serif" font-size="14" lengthAdjust="spacing" textLength="37.085" x="5" y="596.2217">Actor</text><ellipse cx="26.5425" cy="608.0234" fill="#E2E2F0" rx="8" ry="8" style="stroke:#181818;stroke-width:0.5;"/><path d="M26.5425,616.0234 L26.5425,643.0234 M13.5425,624.0234 L39.5425,624.0234 M26.5425,643.0234 L13.5425,658.0234 M26.5425,643.0234 L39.5425,658.0234" fill="none" style="stroke:#181818;stroke-width:0.5;"/></g><g class="participant participant-head" data-participant="ORCH"><rect fill="#E2E2F0" height="30.2969" rx="2.5" ry="2.5" style="stroke:#181818;stroke-width:0.5;" width="102.8877" x="220.1875" y="50"/><text fill="#000000" font-family="sans-serif" font-size="14" lengthAdjust="spacing" textLength="88.8877" x="227.1875" y="69.9951">Orchestrator</text></g><g class="participant participant-tail" data-participant="ORCH"><rect fill="#E2E2F0" height="30.2969" rx="2.5" ry="2.5" style="stroke:#181818;stroke-width:0.5;" width="102.8877" x="220.1875" y="583.2266"/><text fill="#000000" font-family="sans-serif" font-size="14" lengthAdjust="spacing" textLength="88.8877" x="227.1875" y="603.2217">Orchestrator</text></g><g class="participant participant-head" data-participant="EXTRACT"><rect fill="#E2E2F0" height="30.2969" rx="2.5" ry="2.5" style="stroke:#181818;stroke-width:0.5;" width="157.001" x="378.1392" y="50"/><text fill="#000000" font-family="sans-serif" font-size="14" lengthAdjust="spacing" textLength="143.001" x="385.1392" y="69.9951">Extract UC/RF Agent</text></g><g class="participant participant-tail" data-participant="EXTRACT"><rect fill="#E2E2F0" height="30.2969" rx="2.5" ry="2.5" style="stroke:#181818;stroke-width:0.5;" width="157.001" x="378.1392" y="583.2266"/><text fill="#000000" font-family="sans-serif" font-size="14" lengthAdjust="spacing" textLength="143.001" x="385.1392" y="603.2217">Extract UC/RF Agent</text></g><g class="participant participant-head" data-participant="REQ"><rect fill="#E2E2F0" height="30.2969" rx="2.5" ry="2.5" style="stroke:#181818;stroke-width:0.5;" width="223.9727" x="545.1401" y="50"/><text fill="#000000" font-family="sans-serif" font-size="14" lengthAdjust="spacing" textLength="209.9727" x="552.1401" y="69.9951">Requirements Manager Agent</text></g><g class="participant participant-tail" data-participant="REQ"><rect fill="#E2E2F0" height="30.2969" rx="2.5" ry="2.5" style="stroke:#181818;stroke-width:0.5;" width="223.9727" x="545.1401" y="583.2266"/><text fill="#000000" font-family="sans-serif" font-size="14" lengthAdjust="spacing" textLength="209.9727" x="552.1401" y="603.2217">Requirements Manager Agent</text></g><g class="participant participant-head" data-participant="GHERKIN"><rect fill="#E2E2F0" height="30.2969" rx="2.5" ry="2.5" style="stroke:#181818;stroke-width:0.5;" width="190.3945" x="779.1128" y="50"/><text fill="#000000" font-family="sans-serif" font-size="14" lengthAdjust="spacing" textLength="176.3945" x="786.1128" y="69.9951">Gherkin Generator Agent</text></g><g class="participant participant-tail" data-participant="GHERKIN"><rect fill="#E2E2F0" height="30.2969" rx="2.5" ry="2.5" style="stroke:#181818;stroke-width:0.5;" width="190.3945" x="779.1128" y="583.2266"/><text fill="#000000" font-family="sans-serif" font-size="14" lengthAdjust="spacing" textLength="176.3945" x="786.1128" y="603.2217">Gherkin Generator Agent</text></g><g class="participant participant-head" data-participant="REVIEW"><rect fill="#E2E2F0" height="30.2969" rx="2.5" ry="2.5" style="stroke:#181818;stroke-width:0.5;" width="180.4346" x="979.5073" y="50"/><text fill="#000000" font-family="sans-serif" font-size="14" lengthAdjust="spacing" textLength="166.4346" x="986.5073" y="69.9951">Review &amp; Publish Agent</text></g><g class="participant participant-tail" data-participant="REVIEW"><rect fill="#E2E2F0" height="30.2969" rx="2.5" ry="2.5" style="stroke:#181818;stroke-width:0.5;" width="180.4346" x="979.5073" y="583.2266"/><text fill="#000000" font-family="sans-serif" font-size="14" lengthAdjust="spacing" textLength="166.4346" x="986.5073" y="603.2217">Review &amp; Publish Agent</text></g><g class="participant participant-head" data-participant="KIWI_AGENT"><rect fill="#E2E2F0" height="30.2969" rx="2.5" ry="2.5" style="stroke:#181818;stroke-width:0.5;" width="192.8281" x="1169.9419" y="50"/><text fill="#000000" font-family="sans-serif" font-size="14" lengthAdjust="spacing" textLength="178.8281" x="1176.9419" y="69.9951">Kiwi Case Manager Agent</text></g><g class="participant participant-tail" data-participant="KIWI_AGENT"><rect fill="#E2E2F0" height="30.2969" rx="2.5" ry="2.5" style="stroke:#181818;stroke-width:0.5;" width="192.8281" x="1169.9419" y="583.2266"/><text fill="#000000" font-family="sans-serif" font-size="14" lengthAdjust="spacing" textLength="178.8281" x="1176.9419" y="603.2217">Kiwi Case Manager Agent</text></g><g class="participant participant-head" data-participant="KIWI"><rect fill="#E2E2F0" height="30.2969" rx="2.5" ry="2.5" style="stroke:#181818;stroke-width:0.5;" width="86.1533" x="1422.5444" y="50"/><text fill="#000000" font-family="sans-serif" font-size="14" lengthAdjust="spacing" textLength="72.1533" x="1429.5444" y="69.9951">Kiwi TCMS</text></g><g class="participant participant-tail" data-participant="KIWI"><rect fill="#E2E2F0" height="30.2969" rx="2.5" ry="2.5" style="stroke:#181818;stroke-width:0.5;" width="86.1533" x="1422.5444" y="583.2266"/><text fill="#000000" font-family="sans-serif" font-size="14" lengthAdjust="spacing" textLength="72.1533" x="1429.5444" y="603.2217">Kiwi TCMS</text></g><g class="message" data-participant-1="Actor" data-participant-2="ORCH"><polygon fill="#181818" points="259.6313,108.4297,269.6313,112.4297,259.6313,116.4297,263.6313,112.4297" style="stroke:#181818;stroke-width:1;"/><line style="stroke:#181818;stroke-width:1;" x1="26.5425" x2="265.6313" y1="112.4297" y2="112.4297"/><text fill="#000000" font-family="sans-serif" font-size="13" lengthAdjust="spacing" textLength="221.0889" x="33.5425" y="107.3638">Enviar documentaci&#243;n de entrada</text></g><g class="message" data-participant-1="ORCH" data-participant-2="EXTRACT"><polygon fill="#181818" points="444.6396,137.5625,454.6396,141.5625,444.6396,145.5625,448.6396,141.5625" style="stroke:#181818;stroke-width:1;"/><line style="stroke:#181818;stroke-width:1;" x1="271.6313" x2="450.6396" y1="141.5625" y2="141.5625"/><text fill="#000000" font-family="sans-serif" font-size="13" lengthAdjust="spacing" textLength="161.0083" x="278.6313" y="136.4966">Procesar documentaci&#243;n</text></g><g class="message" data-participant-1="EXTRACT" data-participant-2="ORCH"><polygon fill="#181818" points="282.6313,166.6953,272.6313,170.6953,282.6313,174.6953,278.6313,170.6953" style="stroke:#181818;stroke-width:1;"/><line style="stroke:#181818;stroke-width:1;stroke-dasharray:2,2;" x1="276.6313" x2="455.6396" y1="170.6953" y2="170.6953"/><text fill="#000000" font-family="sans-serif" font-size="13" lengthAdjust="spacing" textLength="119.082" x="288.6313" y="165.6294">UC + RF extra&#237;dos</text></g><g class="message" data-participant-1="ORCH" data-participant-2="REQ"><polygon fill="#181818" points="645.1265,195.8281,655.1265,199.8281,645.1265,203.8281,649.1265,199.8281" style="stroke:#181818;stroke-width:1;"/><line style="stroke:#181818;stroke-width:1;" x1="271.6313" x2="651.1265" y1="199.8281" y2="199.8281"/><text fill="#000000" font-family="sans-serif" font-size="13" lengthAdjust="spacing" textLength="182.2603" x="278.6313" y="194.7622">Guardar / gestionar UC y RF</text></g><g class="message" data-participant-1="REQ" data-participant-2="ORCH"><polygon fill="#181818" points="282.6313,224.9609,272.6313,228.9609,282.6313,232.9609,278.6313,228.9609" style="stroke:#181818;stroke-width:1;"/><line style="stroke:#181818;stroke-width:1;stroke-dasharray:2,2;" x1="276.6313" x2="656.1265" y1="228.9609" y2="228.9609"/><text fill="#000000" font-family="sans-serif" font-size="13" lengthAdjust="spacing" textLength="209.644" x="288.6313" y="223.895">Confirmaci&#243;n / datos persistidos</text></g><g class="message" data-participant-1="ORCH" data-participant-2="GHERKIN"><polygon fill="#181818" points="862.3101,254.0938,872.3101,258.0938,862.3101,262.0938,866.3101,258.0938" style="stroke:#181818;stroke-width:1;"/><line style="stroke:#181818;stroke-width:1;" x1="271.6313" x2="868.3101" y1="258.0938" y2="258.0938"/><text fill="#000000" font-family="sans-serif" font-size="13" lengthAdjust="spacing" textLength="182.0698" x="278.6313" y="253.0278">Generar escenarios Gherkin</text></g><g class="message" data-participant-1="GHERKIN" data-participant-2="ORCH"><polygon fill="#181818" points="282.6313,283.2266,272.6313,287.2266,282.6313,291.2266,278.6313,287.2266" style="stroke:#181818;stroke-width:1;"/><line style="stroke:#181818;stroke-width:1;stroke-dasharray:2,2;" x1="276.6313" x2="873.3101" y1="287.2266" y2="287.2266"/><text fill="#000000" font-family="sans-serif" font-size="13" lengthAdjust="spacing" textLength="154.4004" x="288.6313" y="282.1606">EscenarioPrueba (draft)</text></g><g class="message" data-participant-1="ORCH" data-participant-2="REVIEW"><polygon fill="#181818" points="1057.7246,312.3594,1067.7246,316.3594,1057.7246,320.3594,1061.7246,316.3594" style="stroke:#181818;stroke-width:1;"/><line style="stroke:#181818;stroke-width:1;" x1="271.6313" x2="1063.7246" y1="316.3594" y2="316.3594"/><text fill="#000000" font-family="sans-serif" font-size="13" lengthAdjust="spacing" textLength="235.9805" x="278.6313" y="311.2935">Revisar escenario / aplicar feedback</text></g><g class="message" data-participant-1="REVIEW" data-participant-2="ORCH"><polygon fill="#181818" points="282.6313,341.4922,272.6313,345.4922,282.6313,349.4922,278.6313,345.4922" style="stroke:#181818;stroke-width:1;"/><line style="stroke:#181818;stroke-width:1;stroke-dasharray:2,2;" x1="276.6313" x2="1068.7246" y1="345.4922" y2="345.4922"/><text fill="#000000" font-family="sans-serif" font-size="13" lengthAdjust="spacing" textLength="122.6875" x="288.6313" y="340.4263">Escenario validado</text></g><path d="M210.1875,360.4922 L274.6304,360.4922 L274.6304,367.625 L264.6304,377.625 L210.1875,377.625 L210.1875,360.4922" fill="#EEEEEE" style="stroke:#000000;stroke-width:1.5;"/><rect fill="none" height="177.6016" style="stroke:#000000;stroke-width:1.5;" width="1308.5103" x="210.1875" y="360.4922"/><text fill="#000000" font-family="sans-serif" font-size="13" font-weight="bold" lengthAdjust="spacing" textLength="19.4429" x="225.1875" y="373.5591">alt</text><text fill="#000000" font-family="sans-serif" font-size="11" font-weight="bold" lengthAdjust="spacing" textLength="131.3232" x="289.6304" y="372.7026">[Escenario aceptado]</text><g class="message" data-participant-1="ORCH" data-participant-2="KIWI_AGENT"><polygon fill="#181818" points="1254.356,394.7578,1264.356,398.7578,1254.356,402.7578,1258.356,398.7578" style="stroke:#181818;stroke-width:1;"/><line style="stroke:#181818;stroke-width:1;" x1="271.6313" x2="1260.356" y1="398.7578" y2="398.7578"/><text fill="#000000" font-family="sans-serif" font-size="13" lengthAdjust="spacing" textLength="156.5522" x="278.6313" y="393.6919">Publicar caso de prueba</text></g><g class="message" data-participant-1="KIWI_AGENT" data-participant-2="KIWI"><polygon fill="#181818" points="1453.6211,423.8906,1463.6211,427.8906,1453.6211,431.8906,1457.6211,427.8906" style="stroke:#181818;stroke-width:1;"/><line style="stroke:#181818;stroke-width:1;" x1="1266.356" x2="1459.6211" y1="427.8906" y2="427.8906"/><text fill="#000000" font-family="sans-serif" font-size="13" lengthAdjust="spacing" textLength="175.2651" x="1273.356" y="422.8247">Crear / actualizar test case</text></g><g class="message" data-participant-1="KIWI" data-participant-2="KIWI_AGENT"><polygon fill="#181818" points="1277.356,453.0234,1267.356,457.0234,1277.356,461.0234,1273.356,457.0234" style="stroke:#181818;stroke-width:1;"/><line style="stroke:#181818;stroke-width:1;stroke-dasharray:2,2;" x1="1271.356" x2="1464.6211" y1="457.0234" y2="457.0234"/><text fill="#000000" font-family="sans-serif" font-size="13" lengthAdjust="spacing" textLength="143.0889" x="1283.356" y="451.9575">Resultado publicaci&#243;n</text></g><g class="message" data-participant-1="KIWI_AGENT" data-participant-2="ORCH"><polygon fill="#181818" points="282.6313,482.1563,272.6313,486.1563,282.6313,490.1563,278.6313,486.1563" style="stroke:#181818;stroke-width:1;"/><line style="stroke:#181818;stroke-width:1;stroke-dasharray:2,2;" x1="276.6313" x2="1265.356" y1="486.1563" y2="486.1563"/><text fill="#000000" font-family="sans-serif" font-size="13" lengthAdjust="spacing" textLength="144.8281" x="288.6313" y="481.0903">CasoPrueba publicado</text></g><line style="stroke:#000000;stroke-width:1;stroke-dasharray:2,2;" x1="210.1875" x2="1518.6978" y1="495.1563" y2="495.1563"/><text fill="#000000" font-family="sans-serif" font-size="11" font-weight="bold" lengthAdjust="spacing" textLength="137.8491" x="215.1875" y="505.3667">[Escenario rechazado]</text><g class="message" data-participant-1="REVIEW" data-participant-2="ORCH"><polygon fill="#181818" points="282.6313,526.0938,272.6313,530.0938,282.6313,534.0938,278.6313,530.0938" style="stroke:#181818;stroke-width:1;"/><line style="stroke:#181818;stroke-width:1;stroke-dasharray:2,2;" x1="276.6313" x2="1068.7246" y1="530.0938" y2="530.0938"/><text fill="#000000" font-family="sans-serif" font-size="13" lengthAdjust="spacing" textLength="186.5068" x="288.6313" y="525.0278">Feedback para regeneraci&#243;n</text></g><g class="message" data-participant-1="ORCH" data-participant-2="Actor"><polygon fill="#181818" points="37.5425,562.2266,27.5425,566.2266,37.5425,570.2266,33.5425,566.2266" style="stroke:#181818;stroke-width:1;"/><line style="stroke:#181818;stroke-width:1;stroke-dasharray:2,2;" x1="31.5425" x2="270.6313" y1="566.2266" y2="566.2266"/><text fill="#000000" font-family="sans-serif" font-size="13" lengthAdjust="spacing" textLength="156.9521" x="43.5425" y="561.1606">Respuesta final / estado</text></g><!--SRC=[RP91Rjim44NtFCN0Yw954NZVHG53K1J3IEAgJjDTCIR7DX65KadAQNEdhdg4NAn3YegfnYkBzFipV_uGfMyjp1RXPmRe87w93gtNKdTeFCnkhJoGynP7vhOkhgP8-Ol_bXxkYdbz2Oiz6H_9ylkcNXIRALpJprvRUcJ8mJKQt9FDD7NvPSfN1x8Fsa15XgA93AwkodgrlFc_mL7J4xo3TRzjj3jCYdzRblTJVAMVD1Jew8oPrV9- -MDHbJURCvfDSVtrbH8YHWSNdsC-y0bASzHeGRMo3xEYr2z_3IW2FbXKA2B7V4g99MlRId9lH68aBaxLxmhu21msXUXV_gZMYTU2724JLOzMSQqvx7bzkZNypQhVh1A1o8eLhTbf-vWipa5np0uwiawpSb8x9HxgntrO82U9QsjMf5M94SfQb2ErjZrj4TuhYpl_8JSTLiDaM9_Bwx8Xx1ej-Mv7fBOe7qIYppM08pPQeMg5mCPdzoYfy-4UO6nwscz8FpoNq4MYQyEYkcYLyGnBeX2QfPWkF_oUEpxpmNFGGKr94_rDUjJa-YQOW6xeDYnusY9R33j9WIMUxLF3R_KqbYLvmETXhhUnNAR4WDylChkFMnkwab5Z_YmOtc-qsFKy2C9E6snumd1GxJy0]--></g></svg>