<svg xmlns="http://www.w3.org/2000/svg" xmlns:xlink="http://www.w3.org/1999/xlink" contentStyleType="text/css" data-diagram-type="STATE" height="726px" preserveAspectRatio="none" style="width:583px;height:726px;background:#FFFFFF;" version="1.1" viewBox="0 0 583 726" width="583px" zoomAndPan="magnify"><defs/><g><path d="M123.5,7 L446.5,7 A12.5,12.5 0 0 1 459,19.5 L459,33.2969 L111,33.2969 L111,19.5 A12.5,12.5 0 0 1 123.5,7" fill="#F1F1F1"/><rect fill="none" height="568.2969" rx="12.5" ry="12.5" style="stroke:#181818;stroke-width:0.5;" width="348" x="111" y="7"/><line style="stroke:#181818;stroke-width:0.5;" x1="111" x2="459" y1="33.2969" y2="33.2969"/><text fill="#000000" font-family="sans-serif" font-size="14" lengthAdjust="spacing" textLength="208.4619" x="180.769" y="24.9951">consultarRequisitoFuncional()</text><g id="consultarRequisitoFuncional.SeleccionandoRequisito"><rect fill="#F1F1F1" height="50" rx="12.5" ry="12.5" style="stroke:#181818;stroke-width:0.5;" width="50" x="123" y="135.2969"/><line style="stroke:#181818;stroke-width:0.5;" x1="123" x2="173" y1="161.5938" y2="161.5938"/><text fill="#000000" font-family="sans-serif" font-size="14" lengthAdjust="spacing" textLength="4.4502" x="145.7749" y="153.292">&#160;</text></g><g id="consultarRequisitoFuncional.RecuperandoDetalle"><rect fill="#F1F1F1" height="50" rx="12.5" ry="12.5" style="stroke:#181818;stroke-width:0.5;" width="50" x="123" y="271.2969"/><line style="stroke:#181818;stroke-width:0.5;" x1="123" x2="173" y1="297.5938" y2="297.5938"/><text fill="#000000" font-family="sans-serif" font-size="14" lengthAdjust="spacing" textLength="4.4502" x="145.7749" y="289.292">&#160;</text></g><g id="consultarRequisitoFuncional.MostrandoDetalle"><rect fill="#F1F1F1" height="50" rx="12.5" ry="12.5" style="stroke:#181818;stroke-width:0.5;" width="50" x="123" y="407.2969"/><line style="stroke:#181818;stroke-width:0.5;" x1="123" x2="173" y1="433.5938" y2="433.5938"/><text fill="#000000" font-family="sans-serif" font-size="14" lengthAdjust="spacing" textLength="4.4502" x="145.7749" y="425.292">&#160;</text></g><ellipse cx="148" cy="54.2969" fill="#222222" rx="10" ry="10" style="stroke:#222222;stroke-width:1;"/><ellipse cx="148" cy="554.2969" fill="none" rx="11" ry="11" style="stroke:#222222;stroke-width:1;"/><ellipse cx="148" cy="554.2969" fill="#222222" rx="6" ry="6" style="stroke:#222222;stroke-width:1;"/><!--link *start*consultarRequisitoFuncional to SeleccionandoRequisito--><g class="link" data-entity-1=".start.consultarRequisitoFuncional" data-entity-2="SeleccionandoRequisito" data-source-line="9" data-uid="lnk3" id="link_.start.consultarRequisitoFuncional_SeleccionandoRequisito"><path d="M148,64.5269 C148,80.2369 148,106.6569 148,129.1669" fill="none" id="*start*consultarRequisitoFuncional-to-SeleccionandoRequisito" style="stroke:#008000;stroke-width:1;"/><polygon fill="#008000" points="148,135.1669,152,126.1669,148,130.1669,144,126.1669,148,135.1669" style="stroke:#008000;stroke-width:1;"/><path d="M153,87.2969 L153,112.2969 L450,112.2969 L450,97.2969 L440,87.2969 L153,87.2969" fill="#FEFFDD" style="stroke:#181818;stroke-width:0.5;"/><path d="M440,87.2969 L440,97.2969 L450,97.2969 L440,87.2969" fill="#FEFFDD" style="stroke:#181818;stroke-width:0.5;"/><text fill="#000000" font-family="sans-serif" font-size="13" lengthAdjust="spacing" textLength="276.0024" x="159" y="104.3638">Se solicita consultar un requisito funcional</text></g><!--link SeleccionandoRequisito to RecuperandoDetalle--><g class="link" data-entity-1="SeleccionandoRequisito" data-entity-2="RecuperandoDetalle" data-source-line="14" data-uid="lnk4" id="link_SeleccionandoRequisito_RecuperandoDetalle"><path d="M148,185.5669 C148,209.8469 148,240.9869 148,265.2069" fill="none" id="SeleccionandoRequisito-to-RecuperandoDetalle" style="stroke:#008000;stroke-width:1;"/><polygon fill="#008000" points="148,271.2069,152,262.2069,148,266.2069,144,262.2069,148,271.2069" style="stroke:#008000;stroke-width:1;"/><path d="M153,208.2969 L153,248.2969 L436,248.2969 L436,218.2969 L426,208.2969 L153,208.2969" fill="#FEFFDD" style="stroke:#181818;stroke-width:0.5;"/><path d="M426,208.2969 L426,218.2969 L436,218.2969 L426,208.2969" fill="#FEFFDD" style="stroke:#181818;stroke-width:0.5;"/><text fill="#000000" font-family="sans-serif" font-size="13" font-weight="bold" lengthAdjust="spacing" textLength="58.9063" x="159" y="225.3638">Sistema</text><text fill="#000000" font-family="sans-serif" font-size="13" lengthAdjust="spacing" textLength="199.2212" x="222.0386" y="225.3638">toma el requisito seleccionado</text><text fill="#000000" font-family="sans-serif" font-size="13" lengthAdjust="spacing" textLength="137.9282" x="159" y="240.4966">y recupera su detalle</text></g><!--link RecuperandoDetalle to MostrandoDetalle--><g class="link" data-entity-1="RecuperandoDetalle" data-entity-2="MostrandoDetalle" data-source-line="20" data-uid="lnk5" id="link_RecuperandoDetalle_MostrandoDetalle"><path d="M148,321.5669 C148,345.8469 148,376.9869 148,401.2069" fill="none" id="RecuperandoDetalle-to-MostrandoDetalle" style="stroke:#008000;stroke-width:1;"/><polygon fill="#008000" points="148,407.2069,152,398.2069,148,402.2069,144,398.2069,148,407.2069" style="stroke:#008000;stroke-width:1;"/><path d="M153,344.2969 L153,384.2969 L385,384.2969 L385,354.2969 L375,344.2969 L153,344.2969" fill="#FEFFDD" style="stroke:#181818;stroke-width:0.5;"/><path d="M375,344.2969 L375,354.2969 L385,354.2969 L375,344.2969" fill="#FEFFDD" style="stroke:#181818;stroke-width:0.5;"/><text fill="#000000" font-family="sans-serif" font-size="13" font-weight="bold" lengthAdjust="spacing" textLength="58.9063" x="159" y="361.3638">Sistema</text><text fill="#000000" font-family="sans-serif" font-size="13" lengthAdjust="spacing" textLength="148.2749" x="222.0386" y="361.3638">prepara la informacion</text><text fill="#000000" font-family="sans-serif" font-size="13" lengthAdjust="spacing" textLength="136.0557" x="159" y="376.4966">para su visualizacion</text></g><!--link MostrandoDetalle to *end*consultarRequisitoFuncional--><g class="link" data-entity-1="MostrandoDetalle" data-entity-2=".end.consultarRequisitoFuncional" data-source-line="26" data-uid="lnk7" id="link_MostrandoDetalle_.end.consultarRequisitoFuncional"><path d="M148,457.5769 C148,483.8769 148,518.5669 148,537.2769" fill="none" id="MostrandoDetalle-to-*end*consultarRequisitoFuncional" style="stroke:#008000;stroke-width:1;"/><polygon fill="#008000" points="148,543.2769,152,534.2769,148,538.2769,144,534.2769,148,543.2769" style="stroke:#008000;stroke-width:1;"/><path d="M153,480.2969 L153,520.2969 L355,520.2969 L355,490.2969 L345,480.2969 L153,480.2969" fill="#FEFFDD" style="stroke:#181818;stroke-width:0.5;"/><path d="M345,480.2969 L345,490.2969 L355,490.2969 L345,480.2969" fill="#FEFFDD" style="stroke:#181818;stroke-width:0.5;"/><text fill="#000000" font-family="sans-serif" font-size="13" font-weight="bold" lengthAdjust="spacing" textLength="58.9063" x="159" y="497.3638">Sistema</text><text fill="#000000" font-family="sans-serif" font-size="13" lengthAdjust="spacing" textLength="118.4917" x="222.0386" y="497.3638">muestra el detalle</text><text fill="#000000" font-family="sans-serif" font-size="13" lengthAdjust="spacing" textLength="144.5933" x="159" y="512.4966">del requisito funcional</text></g><g id="REQUISITO_FUNCIONAL_ABIERTO"><rect fill="#F1F1F1" height="50" rx="12.5" ry="12.5" style="stroke:#181818;stroke-width:0.5;" width="253.5566" x="7" y="670"/><line style="stroke:#181818;stroke-width:0.5;" x1="7" x2="260.5566" y1="696.2969" y2="696.2969"/><text fill="#000000" font-family="sans-serif" font-size="14" lengthAdjust="spacing" textLength="233.5566" x="17" y="687.9951">REQUISITO_FUNCIONAL_ABIERTO</text></g><g id="REQUISITOS_FUNCIONALES_ABIERTO"><rect fill="#F1F1F1" height="50" rx="12.5" ry="12.5" style="stroke:#181818;stroke-width:0.5;" width="280.1758" x="296" y="670"/><line style="stroke:#181818;stroke-width:0.5;" x1="296" x2="576.1758" y1="696.2969" y2="696.2969"/><text fill="#000000" font-family="sans-serif" font-size="14" lengthAdjust="spacing" textLength="260.1758" x="306" y="687.9951">REQUISITOS_FUNCIONALES_ABIERTO</text></g><!--link consultarRequisitoFuncional to REQUISITO_FUNCIONAL_ABIERTO--><g class="link" data-entity-1="consultarRequisitoFuncional" data-entity-2="REQUISITO_FUNCIONAL_ABIERTO" data-source-line="33" data-uid="lnk9" id="link_consultarRequisitoFuncional_REQUISITO_FUNCIONAL_ABIERTO"><path d="M178.69,575.02 C163.99,614.15 153.291,642.6536 145.191,664.2036" fill="none" id="consultarRequisitoFuncional-to-REQUISITO_FUNCIONAL_ABIERTO" style="stroke:#008000;stroke-width:1;"/><polygon fill="#008000" points="143.08,669.82,149.9908,662.8028,144.8392,665.1397,142.5023,659.9881,143.08,669.82" style="stroke:#008000;stroke-width:1;"/><path d="M172,610 L172,635 L326,635 L326,620 L316,610 L172,610" fill="#FEFFDD" style="stroke:#181818;stroke-width:0.5;"/><path d="M316,610 L316,620 L326,620 L316,610" fill="#FEFFDD" style="stroke:#181818;stroke-width:0.5;"/><text fill="#000000" font-family="sans-serif" font-size="13" lengthAdjust="spacing" textLength="133.1357" x="178" y="627.0669">completarConsulta()</text></g><!--link consultarRequisitoFuncional to REQUISITOS_FUNCIONALES_ABIERTO--><g class="link" data-entity-1="consultarRequisitoFuncional" data-entity-2="REQUISITOS_FUNCIONALES_ABIERTO" data-source-line="38" data-uid="lnk11" id="link_consultarRequisitoFuncional_REQUISITOS_FUNCIONALES_ABIERTO"><path d="M391.31,575.02 C406.01,614.15 416.709,642.6536 424.809,664.2036" fill="none" id="consultarRequisitoFuncional-to-REQUISITOS_FUNCIONALES_ABIERTO" style="stroke:#FF0000;stroke-width:1;"/><polygon fill="#FF0000" points="426.92,669.82,427.4977,659.9881,425.1608,665.1397,420.0092,662.8028,426.92,669.82" style="stroke:#FF0000;stroke-width:1;"/><path d="M419,610 L419,635 L563,635 L563,620 L553,610 L419,610" fill="#FEFFDD" style="stroke:#181818;stroke-width:0.5;"/><path d="M553,610 L553,620 L563,620 L553,610" fill="#FEFFDD" style="stroke:#181818;stroke-width:0.5;"/><text fill="#000000" font-family="sans-serif" font-size="13" lengthAdjust="spacing" textLength="123.9316" x="425" y="627.0669">rechazarConsulta()</text></g><!--SRC=[ZPBTQW8n48NlynI3lT62z0L4i5PXeLNgwfM8nDsn3MQJRNuAMlhkJUBFcgxQRgusENFEDvFe3HCbLRG0pWIQRObGIhxrFuHeGmr29eMst50rmG_BD3DoQ4N6fA0Sg8R6ZVDcgm5VX83xzbuDjrnDYXop816vF9NLTHFCR8dAgvxGKCwnhdcHsaIA89dVBw0zltjJY6BHxjvA5DAPIU47i0aRAOAMd6NCqAfvi0BKiGxMnmv30Oeyk913-QMeYEPANpMIpggRCcsme9s7LHUCB2WWF-FGfwnytypM7UwzGLl8pynZo3f115WRwd_mIeN-AG6dmCHQge9wig0C-mxeasbBETjL9p7Mxzm8ojtflpWAYzx5J-fy07aqkIit-4t8hVSUNUBWTPQaoNIy7Cv6_MGywZqlUu_9O38TamWnaqN97OZg7voRBLAr_KUSmZmAIwkqGNevpxs0Txgx6FS3]--></g></svg>