<svg xmlns="http://www.w3.org/2000/svg" xmlns:xlink="http://www.w3.org/1999/xlink" contentStyleType="text/css" data-diagram-type="DESCRIPTION" height="2610px" preserveAspectRatio="none" style="width:451px;height:2610px;background:#FFFFFF;" version="1.1" viewBox="0 0 451 2610" width="451px" zoomAndPan="magnify"><title>Casos de uso - Ingeniero de QA</title><defs/><g><g class="title" data-source-line="2"><text fill="#000000" font-family="sans-serif" font-size="14" font-weight="bold" lengthAdjust="spacing" textLength="246.2236" x="95.3882" y="22.9951">Casos de uso - Ingeniero de QA</text></g><!--cluster Sistema--><g class="cluster" data-entity="Sistema" data-source-line="6" data-uid="ent0003" id="cluster_Sistema"><rect fill="none" height="2560" rx="2.5" ry="2.5" style="stroke:#181818;stroke-width:1;" width="282" x="163" y="44.2969"/><text fill="#000000" font-family="sans-serif" font-size="14" font-weight="bold" lengthAdjust="spacing" textLength="63.4375" x="272.2813" y="59.292">Sistema</text></g><!--entity CU01--><g class="entity" data-entity="CU01" data-source-line="7" data-uid="ent0004" id="entity_CU01"><ellipse cx="304.1909" cy="105.1274" fill="#F1F1F1" rx="34.1909" ry="25.8306" style="stroke:#181818;stroke-width:0.5;"/><text fill="#000000" font-family="sans-serif" font-size="14" lengthAdjust="spacing" textLength="42.8135" x="282.7842" y="101.3195">Iniciar</text><text fill="#000000" font-family="sans-serif" font-size="14" lengthAdjust="spacing" textLength="44.5293" x="281.9263" y="117.6164">sesion</text></g><!--entity CU02--><g class="entity" data-entity="CU02" data-source-line="8" data-uid="ent0005" id="entity_CU02"><ellipse cx="303.9352" cy="192.3063" fill="#F1F1F1" rx="34.4352" ry="26.0094" style="stroke:#181818;stroke-width:0.5;"/><text fill="#000000" font-family="sans-serif" font-size="14" lengthAdjust="spacing" textLength="44.2354" x="281.8175" y="188.7526">Cerrar</text><text fill="#000000" font-family="sans-serif" font-size="14" lengthAdjust="spacing" textLength="44.5293" x="281.6706" y="205.0495">sesion</text></g><!--entity CU03--><g class="entity" data-entity="CU03" data-source-line="10" data-uid="ent0006" id="entity_CU03"><ellipse cx="303.9455" cy="278.286" fill="#F1F1F1" rx="110.4455" ry="24.4891" style="stroke:#181818;stroke-width:0.5;"/><text fill="#000000" font-family="sans-serif" font-size="14" lengthAdjust="spacing" textLength="67.915" x="269.9879" y="270.6952">Introducir</text><text fill="#000000" font-family="sans-serif" font-size="14" lengthAdjust="spacing" textLength="176.8594" x="215.5158" y="286.9921">documentacion funcional</text></g><!--entity CU04--><g class="entity" data-entity="CU04" data-source-line="11" data-uid="ent0007" id="entity_CU04"><ellipse cx="304.2461" cy="362.2461" fill="#F1F1F1" rx="107.7461" ry="23.9492" style="stroke:#181818;stroke-width:0.5;"/><text fill="#000000" font-family="sans-serif" font-size="14" lengthAdjust="spacing" textLength="164.0488" x="222.2216" y="362.0142">Asociar documentacion</text><text fill="#000000" font-family="sans-serif" font-size="14" lengthAdjust="spacing" textLength="74.8877" x="266.8022" y="378.311">a proyecto</text></g><!--entity CU05--><g class="entity" data-entity="CU05" data-source-line="12" data-uid="ent0008" id="entity_CU05"><ellipse cx="303.776" cy="449.1521" fill="#F1F1F1" rx="124.776" ry="27.3552" style="stroke:#181818;stroke-width:0.5;"/><text fill="#000000" font-family="sans-serif" font-size="14" lengthAdjust="spacing" textLength="179.7852" x="213.8834" y="445.5188">Consultar documentacion</text><text fill="#000000" font-family="sans-serif" font-size="14" lengthAdjust="spacing" textLength="182.1846" x="212.6837" y="461.8157">registrada de un proyecto</text></g><!--entity CU06--><g class="entity" data-entity="CU06" data-source-line="14" data-uid="ent0009" id="entity_CU06"><ellipse cx="303.855" cy="536.479" fill="#F1F1F1" rx="61.855" ry="24.1821" style="stroke:#181818;stroke-width:0.5;"/><text fill="#000000" font-family="sans-serif" font-size="14" lengthAdjust="spacing" textLength="51.3242" x="278.1929" y="530.2133">Extraer</text><text fill="#000000" font-family="sans-serif" font-size="14" lengthAdjust="spacing" textLength="90.5625" x="258.5737" y="546.5102">casos de uso</text></g><!--entity CU07--><g class="entity" data-entity="CU07" data-source-line="15" data-uid="ent0010" id="entity_CU07"><ellipse cx="303.8727" cy="619.1255" fill="#F1F1F1" rx="60.8727" ry="23.8286" style="stroke:#181818;stroke-width:0.5;"/><text fill="#000000" font-family="sans-serif" font-size="14" lengthAdjust="spacing" textLength="38.8076" x="284.4689" y="612.2994">Listar</text><text fill="#000000" font-family="sans-serif" font-size="14" lengthAdjust="spacing" textLength="90.5625" x="258.5914" y="628.5962">casos de uso</text></g><!--entity CU08--><g class="entity" data-entity="CU08" data-source-line="16" data-uid="ent0011" id="entity_CU08"><ellipse cx="303.8574" cy="703.3568" fill="#F1F1F1" rx="59.3574" ry="25.0599" style="stroke:#181818;stroke-width:0.5;"/><text fill="#000000" font-family="sans-serif" font-size="14" lengthAdjust="spacing" textLength="67.0947" x="270.3101" y="698.4278">Consultar</text><text fill="#000000" font-family="sans-serif" font-size="14" lengthAdjust="spacing" textLength="83.2686" x="262.2232" y="714.7247">caso de uso</text></g><!--entity CU09--><g class="entity" data-entity="CU09" data-source-line="17" data-uid="ent0012" id="entity_CU09"><ellipse cx="303.9061" cy="787.2016" fill="#F1F1F1" rx="56.4061" ry="23.9047" style="stroke:#181818;stroke-width:0.5;"/><text fill="#000000" font-family="sans-serif" font-size="14" lengthAdjust="spacing" textLength="38.4795" x="284.6664" y="780.4974">Crear</text><text fill="#000000" font-family="sans-serif" font-size="14" lengthAdjust="spacing" textLength="83.2686" x="262.2718" y="796.7943">caso de uso</text></g><!--entity CU10--><g class="entity" data-entity="CU10" data-source-line="18" data-uid="ent0013" id="entity_CU10"><ellipse cx="304.2164" cy="871.4973" fill="#F1F1F1" rx="59.7164" ry="25.2004" style="stroke:#181818;stroke-width:0.5;"/><text fill="#000000" font-family="sans-serif" font-size="14" lengthAdjust="spacing" textLength="69.6787" x="269.377" y="866.776">Actualizar</text><text fill="#000000" font-family="sans-serif" font-size="14" lengthAdjust="spacing" textLength="83.2686" x="262.5821" y="883.0728">caso de uso</text></g><!--entity CU11--><g class="entity" data-entity="CU11" data-source-line="19" data-uid="ent0014" id="entity_CU11"><ellipse cx="304.1481" cy="956.3834" fill="#F1F1F1" rx="58.1481" ry="24.5866" style="stroke:#181818;stroke-width:0.5;"/><text fill="#000000" font-family="sans-serif" font-size="14" lengthAdjust="spacing" textLength="57.3604" x="275.4679" y="950.7426">Eliminar</text><text fill="#000000" font-family="sans-serif" font-size="14" lengthAdjust="spacing" textLength="83.2686" x="262.5138" y="967.0394">caso de uso</text></g><!--entity CU12--><g class="entity" data-entity="CU12" data-source-line="21" data-uid="ent0015" id="entity_CU12"><ellipse cx="304.2343" cy="1040.2248" fill="#F1F1F1" rx="84.7343" ry="24.4279" style="stroke:#181818;stroke-width:0.5;"/><text fill="#000000" font-family="sans-serif" font-size="14" lengthAdjust="spacing" textLength="124.3252" x="242.0717" y="1039.1088">Extraer requisitos</text><text fill="#000000" font-family="sans-serif" font-size="14" lengthAdjust="spacing" textLength="80.0762" x="264.1962" y="1055.4057">funcionales</text></g><!--entity CU13--><g class="entity" data-entity="CU13" data-source-line="22" data-uid="ent0016" id="entity_CU13"><ellipse cx="303.903" cy="1124.4864" fill="#F1F1F1" rx="77.403" ry="24.6895" style="stroke:#181818;stroke-width:0.5;"/><text fill="#000000" font-family="sans-serif" font-size="14" lengthAdjust="spacing" textLength="111.8086" x="247.9987" y="1122.9708">Listar requisitos</text><text fill="#000000" font-family="sans-serif" font-size="14" lengthAdjust="spacing" textLength="80.0762" x="263.8649" y="1139.2677">funcionales</text></g><!--entity CU14--><g class="entity" data-entity="CU14" data-source-line="23" data-uid="ent0017" id="entity_CU14"><ellipse cx="303.8829" cy="1208.2525" fill="#F1F1F1" rx="88.3829" ry="23.9557" style="stroke:#181818;stroke-width:0.5;"/><text fill="#000000" font-family="sans-serif" font-size="14" lengthAdjust="spacing" textLength="132.8018" x="237.482" y="1207.8755">Consultar requisito</text><text fill="#000000" font-family="sans-serif" font-size="14" lengthAdjust="spacing" textLength="64.1689" x="271.7984" y="1224.1724">funcional</text></g><!--entity CU15--><g class="entity" data-entity="CU15" data-source-line="24" data-uid="ent0018" id="entity_CU15"><ellipse cx="304.1953" cy="1292.1311" fill="#F1F1F1" rx="71.1953" ry="24.3343" style="stroke:#181818;stroke-width:0.5;"/><text fill="#000000" font-family="sans-serif" font-size="14" lengthAdjust="spacing" textLength="104.1865" x="252.1021" y="1291.1598">Crear requisito</text><text fill="#000000" font-family="sans-serif" font-size="14" lengthAdjust="spacing" textLength="64.1689" x="272.1109" y="1307.4567">funcional</text></g><!--entity CU16--><g class="entity" data-entity="CU16" data-source-line="25" data-uid="ent0019" id="entity_CU16"><ellipse cx="303.9504" cy="1376.2299" fill="#F1F1F1" rx="89.9504" ry="23.9331" style="stroke:#181818;stroke-width:0.5;"/><text fill="#000000" font-family="sans-serif" font-size="14" lengthAdjust="spacing" textLength="135.3857" x="236.2575" y="1375.8889">Actualizar requisito</text><text fill="#000000" font-family="sans-serif" font-size="14" lengthAdjust="spacing" textLength="64.1689" x="271.8659" y="1392.1858">funcional</text></g><!--entity CU17--><g class="entity" data-entity="CU17" data-source-line="26" data-uid="ent0020" id="entity_CU17"><ellipse cx="303.9969" cy="1459.3512" fill="#F1F1F1" rx="82.4969" ry="24.0543" style="stroke:#181818;stroke-width:0.5;"/><text fill="#000000" font-family="sans-serif" font-size="14" lengthAdjust="spacing" textLength="123.0674" x="242.4633" y="1458.8178">Eliminar requisito</text><text fill="#000000" font-family="sans-serif" font-size="14" lengthAdjust="spacing" textLength="64.1689" x="271.9125" y="1475.1147">funcional</text></g><!--entity CU18--><g class="entity" data-entity="CU18" data-source-line="28" data-uid="ent0021" id="entity_CU18"><ellipse cx="304.1008" cy="1542.07" fill="#F1F1F1" rx="90.1008" ry="23.7731" style="stroke:#181818;stroke-width:0.5;"/><text fill="#000000" font-family="sans-serif" font-size="14" lengthAdjust="spacing" textLength="136.6641" x="235.7688" y="1541.9853">Generar escenarios</text><text fill="#000000" font-family="sans-serif" font-size="14" lengthAdjust="spacing" textLength="54.9609" x="276.6204" y="1558.2822">Gherkin</text></g><!--entity CU19--><g class="entity" data-entity="CU19" data-source-line="29" data-uid="ent0022" id="entity_CU19"><ellipse cx="303.9761" cy="1625.2062" fill="#F1F1F1" rx="78.9761" ry="23.9093" style="stroke:#181818;stroke-width:0.5;"/><text fill="#000000" font-family="sans-serif" font-size="14" lengthAdjust="spacing" textLength="118.4326" x="244.7598" y="1624.903">Listar escenarios</text><text fill="#000000" font-family="sans-serif" font-size="14" lengthAdjust="spacing" textLength="54.9609" x="276.4957" y="1641.1999">Gherkin</text></g><!--entity CU20--><g class="entity" data-entity="CU20" data-source-line="31" data-uid="ent0023" id="entity_CU20"><ellipse cx="304.0045" cy="1710.1099" fill="#F1F1F1" rx="89.0045" ry="25.3131" style="stroke:#181818;stroke-width:0.5;"/><text fill="#000000" font-family="sans-serif" font-size="14" lengthAdjust="spacing" textLength="125.6309" x="241.189" y="1707.6659">Crear borrador de</text><text fill="#000000" font-family="sans-serif" font-size="14" lengthAdjust="spacing" textLength="108.1309" x="249.939" y="1723.9628">caso de prueba</text></g><!--entity CU21--><g class="entity" data-entity="CU21" data-source-line="32" data-uid="ent0024" id="entity_CU21"><ellipse cx="303.9239" cy="1795.3111" fill="#F1F1F1" rx="52.4239" ry="24.0142" style="stroke:#181818;stroke-width:0.5;"/><text fill="#000000" font-family="sans-serif" font-size="14" lengthAdjust="spacing" textLength="38.8076" x="284.5201" y="1788.781">Listar</text><text fill="#000000" font-family="sans-serif" font-size="14" lengthAdjust="spacing" textLength="76.6582" x="265.5948" y="1805.0779">borradores</text></g><!--entity CU22--><g class="entity" data-entity="CU22" data-source-line="33" data-uid="ent0025" id="entity_CU22"><ellipse cx="303.887" cy="1880.3311" fill="#F1F1F1" rx="49.387" ry="25.5342" style="stroke:#181818;stroke-width:0.5;"/><text fill="#000000" font-family="sans-serif" font-size="14" lengthAdjust="spacing" textLength="67.0947" x="270.3397" y="1877.5651">Consultar</text><text fill="#000000" font-family="sans-serif" font-size="14" lengthAdjust="spacing" textLength="60.751" x="273.5115" y="1893.862">borrador</text></g><!--entity CU23--><g class="entity" data-entity="CU23" data-source-line="34" data-uid="ent0026" id="entity_CU23"><ellipse cx="304.1747" cy="1965.2291" fill="#F1F1F1" rx="78.1747" ry="24.4322" style="stroke:#181818;stroke-width:0.5;"/><text fill="#000000" font-family="sans-serif" font-size="14" lengthAdjust="spacing" textLength="114.3242" x="247.0126" y="1964.1065">Anadir feedback</text><text fill="#000000" font-family="sans-serif" font-size="14" lengthAdjust="spacing" textLength="73.7803" x="267.2846" y="1980.4033">a borrador</text></g><!--entity CU24--><g class="entity" data-entity="CU24" data-source-line="35" data-uid="ent0027" id="entity_CU24"><ellipse cx="303.9102" cy="2050.4544" fill="#F1F1F1" rx="52.9102" ry="25.1575" style="stroke:#181818;stroke-width:0.5;"/><text fill="#000000" font-family="sans-serif" font-size="14" lengthAdjust="spacing" textLength="73.418" x="267.2013" y="2048.239">Regenerar</text><text fill="#000000" font-family="sans-serif" font-size="14" lengthAdjust="spacing" textLength="60.751" x="273.5348" y="2064.5359">borrador</text></g><!--entity CU25--><g class="entity" data-entity="CU25" data-source-line="36" data-uid="ent0028" id="entity_CU25"><ellipse cx="303.9376" cy="2136.297" fill="#F1F1F1" rx="44.9376" ry="25.5001" style="stroke:#181818;stroke-width:0.5;"/><text fill="#000000" font-family="sans-serif" font-size="14" lengthAdjust="spacing" textLength="54.5986" x="276.6383" y="2132.0136">Aceptar</text><text fill="#000000" font-family="sans-serif" font-size="14" lengthAdjust="spacing" textLength="60.751" x="273.5621" y="2148.3105">borrador</text></g><!--entity CU26--><g class="entity" data-entity="CU26" data-source-line="37" data-uid="ent0029" id="entity_CU26"><ellipse cx="303.8358" cy="2222.4695" fill="#F1F1F1" rx="48.3358" ry="25.6727" style="stroke:#181818;stroke-width:0.5;"/><text fill="#000000" font-family="sans-serif" font-size="14" lengthAdjust="spacing" textLength="65.1738" x="271.2489" y="2219.5037">Rechazar</text><text fill="#000000" font-family="sans-serif" font-size="14" lengthAdjust="spacing" textLength="60.751" x="273.4603" y="2235.8006">borrador</text></g><!--entity CU27--><g class="entity" data-entity="CU27" data-source-line="39" data-uid="ent0030" id="entity_CU27"><ellipse cx="304.1188" cy="2309.1206" fill="#F1F1F1" rx="117.1188" ry="25.8238" style="stroke:#181818;stroke-width:0.5;"/><text fill="#000000" font-family="sans-serif" font-size="14" lengthAdjust="spacing" textLength="169.6201" x="219.3088" y="2306.6462">Generar caso de prueba</text><text fill="#000000" font-family="sans-serif" font-size="14" lengthAdjust="spacing" textLength="148.6133" x="229.8122" y="2322.943">derivado de borrador</text></g><!--entity CU28--><g class="entity" data-entity="CU28" data-source-line="40" data-uid="ent0031" id="entity_CU28"><ellipse cx="303.8531" cy="2395.2675" fill="#F1F1F1" rx="110.3531" ry="24.4706" style="stroke:#181818;stroke-width:0.5;"/><text fill="#000000" font-family="sans-serif" font-size="14" lengthAdjust="spacing" textLength="168.5947" x="219.5557" y="2394.7698">Publicar caso de prueba</text><text fill="#000000" font-family="sans-serif" font-size="14" lengthAdjust="spacing" textLength="94.0898" x="256.8082" y="2411.0667">en Kiwi TCMS</text></g><!--entity CU29--><g class="entity" data-entity="CU29" data-source-line="41" data-uid="ent0032" id="entity_CU29"><ellipse cx="304.1408" cy="2479.225" fill="#F1F1F1" rx="110.1408" ry="24.4282" style="stroke:#181818;stroke-width:0.5;"/><text fill="#000000" font-family="sans-serif" font-size="14" lengthAdjust="spacing" textLength="167.6787" x="220.3014" y="2478.6801">Buscar casos de prueba</text><text fill="#000000" font-family="sans-serif" font-size="14" lengthAdjust="spacing" textLength="94.0898" x="257.0958" y="2494.977">en Kiwi TCMS</text></g><!--entity CU30--><g class="entity" data-entity="CU30" data-source-line="42" data-uid="ent0033" id="entity_CU30"><ellipse cx="303.9256" cy="2563.3846" fill="#F1F1F1" rx="93.4256" ry="24.5877" style="stroke:#181818;stroke-width:0.5;"/><text fill="#000000" font-family="sans-serif" font-size="14" lengthAdjust="spacing" textLength="136.5273" x="235.662" y="2562.0237">Ver caso de prueba</text><text fill="#000000" font-family="sans-serif" font-size="14" lengthAdjust="spacing" textLength="94.0898" x="256.8807" y="2578.3206">en Kiwi TCMS</text></g><!--entity QA--><g class="entity" data-entity="QA" data-source-line="4" data-uid="ent0002" id="entity_QA"><ellipse cx="62.5981" cy="1304.7969" fill="#F1F1F1" rx="8" ry="8" style="stroke:#181818;stroke-width:0.5;"/><path d="M62.5981,1312.7969 L62.5981,1339.7969 M49.5981,1320.7969 L75.5981,1320.7969 M62.5981,1339.7969 L49.5981,1354.7969 M62.5981,1339.7969 L75.5981,1354.7969" fill="none" style="stroke:#181818;stroke-width:0.5;"/><text fill="#000000" font-family="sans-serif" font-size="14" lengthAdjust="spacing" textLength="113.1963" x="6" y="1369.292">Ingeniero de QA</text></g><!--link QA to CU01--><g class="link" data-entity-1="QA" data-entity-2="CU01" data-source-line="45" data-uid="lnk34" id="link_QA_CU01"><path d="M63.9,1296.2269 C66.28,1103.3169 81,239.3369 155,148.2969 C182.59,114.3469 229.3152,106.4772 263.8052,105.0372" fill="none" id="QA-to-CU01" style="stroke:#181818;stroke-width:1;"/><polygon fill="#181818" points="269.8,104.7869,260.641,101.1658,264.8044,104.9954,260.9747,109.1588,269.8,104.7869" style="stroke:#181818;stroke-width:1;"/></g><!--link QA to CU02--><g class="link" data-entity-1="QA" data-entity-2="CU02" data-source-line="46" data-uid="lnk35" id="link_QA_CU02"><path d="M64.17,1296.0469 C67.71,1111.6869 86.83,320.1669 155,236.2969 C182.47,202.4969 228.7081,194.1879 263.1981,192.3979" fill="none" id="QA-to-CU02" style="stroke:#181818;stroke-width:1;"/><polygon fill="#181818" points="269.19,192.0869,259.9948,188.5587,264.1967,192.346,260.4094,196.548,269.19,192.0869" style="stroke:#181818;stroke-width:1;"/></g><!--link QA to CU03--><g class="link" data-entity-1="QA" data-entity-2="CU03" data-source-line="47" data-uid="lnk36" id="link_QA_CU03"><path d="M64.42,1296.0769 C69,1120.5169 91.62,396.7569 155,320.2969 C167.53,305.1869 179.388,297.2435 198.028,290.8135" fill="none" id="QA-to-CU03" style="stroke:#181818;stroke-width:1;"/><polygon fill="#181818" points="203.7,288.8569,193.8876,288.0104,198.9733,290.4874,196.4964,295.5731,203.7,288.8569" style="stroke:#181818;stroke-width:1;"/></g><!--link QA to CU04--><g class="link" data-entity-1="QA" data-entity-2="CU04" data-source-line="48" data-uid="lnk37" id="link_QA_CU04"><path d="M64.75,1296.2169 C70.53,1130.0769 96.9,473.8169 155,404.2969 C168.02,388.7169 180.6547,380.5845 199.9947,374.1745" fill="none" id="QA-to-CU04" style="stroke:#181818;stroke-width:1;"/><polygon fill="#181818" points="205.69,372.2869,195.8886,371.3215,200.9439,373.8599,198.4054,378.9152,205.69,372.2869" style="stroke:#181818;stroke-width:1;"/></g><!--link QA to CU05--><g class="link" data-entity-1="QA" data-entity-2="CU05" data-source-line="49" data-uid="lnk38" id="link_QA_CU05"><path d="M65.21,1296.0469 C72.53,1140.0069 103.16,556.8369 155,494.2969 C166.4,480.5469 176.2996,473.1611 192.9496,466.4111" fill="none" id="QA-to-CU05" style="stroke:#181818;stroke-width:1;"/><polygon fill="#181818" points="198.51,464.1569,188.6665,463.8313,193.8763,466.0354,191.6722,471.2452,198.51,464.1569" style="stroke:#181818;stroke-width:1;"/></g><!--link QA to CU06--><g class="link" data-entity-1="QA" data-entity-2="CU06" data-source-line="50" data-uid="lnk39" id="link_QA_CU06"><path d="M65.66,1295.8769 C74.22,1149.5269 107.63,632.3669 155,577.2969 C176.39,552.4369 205.4439,542.7997 236.0339,538.6697" fill="none" id="QA-to-CU06" style="stroke:#181818;stroke-width:1;"/><polygon fill="#181818" points="241.98,537.8669,232.5257,535.107,237.025,538.5359,233.5961,543.0351,241.98,537.8669" style="stroke:#181818;stroke-width:1;"/></g><!--link QA to CU07--><g class="link" data-entity-1="QA" data-entity-2="CU07" data-source-line="51" data-uid="lnk40" id="link_QA_CU07"><path d="M63.36,1296.2269 C63.68,1168.2369 71.32,756.1469 155,660.2969 C176.74,635.3969 206.2027,625.7904 236.9327,621.6904" fill="none" id="QA-to-CU07" style="stroke:#181818;stroke-width:1;"/><polygon fill="#181818" points="242.88,620.8969,233.4301,618.1222,237.9239,621.5581,234.488,626.052,242.88,620.8969" style="stroke:#181818;stroke-width:1;"/></g><!--link QA to CU08--><g class="link" data-entity-1="QA" data-entity-2="CU08" data-source-line="52" data-uid="lnk41" id="link_QA_CU08"><path d="M64.22,1296.1869 C67.2,1179.1269 82.15,827.6569 155,745.2969 C177.3,720.0869 207.5551,710.3278 238.5651,706.0978" fill="none" id="QA-to-CU08" style="stroke:#181818;stroke-width:1;"/><polygon fill="#181818" points="244.51,705.2869,235.052,702.54,239.5559,705.9627,236.1332,710.4666,244.51,705.2869" style="stroke:#181818;stroke-width:1;"/></g><!--link QA to CU09--><g class="link" data-entity-1="QA" data-entity-2="CU09" data-source-line="53" data-uid="lnk42" id="link_QA_CU09"><path d="M65.28,1295.9769 C70.97,1190.1569 92.19,897.1269 155,828.2969 C178.27,802.7969 209.9141,793.3234 241.3941,789.4834" fill="none" id="QA-to-CU09" style="stroke:#181818;stroke-width:1;"/><polygon fill="#181818" points="247.35,788.7569,237.9319,785.8761,242.3868,789.3623,238.9006,793.8172,247.35,788.7569" style="stroke:#181818;stroke-width:1;"/></g><!--link QA to CU10--><g class="link" data-entity-1="QA" data-entity-2="CU10" data-source-line="54" data-uid="lnk43" id="link_QA_CU10"><path d="M66.86,1296.2369 C75.79,1203.5969 103.04,969.9269 155,914.2969 C177.92,889.7569 208.0074,879.8437 238.7674,875.1937" fill="none" id="QA-to-CU10" style="stroke:#181818;stroke-width:1;"/><polygon fill="#181818" points="244.7,874.2969,235.2032,871.6871,239.7562,875.0442,236.399,879.5972,244.7,874.2969" style="stroke:#181818;stroke-width:1;"/></g><!--link QA to CU11--><g class="link" data-entity-1="QA" data-entity-2="CU11" data-source-line="55" data-uid="lnk44" id="link_QA_CU11"><path d="M69.12,1296.0269 C81.43,1217.2269 113.06,1040.6869 155,998.2969 C178.86,974.1869 209.5323,964.5194 240.3723,960.0394" fill="none" id="QA-to-CU11" style="stroke:#181818;stroke-width:1;"/><polygon fill="#181818" points="246.31,959.1769,236.8285,956.5122,241.3619,959.8957,237.9785,964.4291,246.31,959.1769" style="stroke:#181818;stroke-width:1;"/></g><!--link QA to CU12--><g class="link" data-entity-1="QA" data-entity-2="CU12" data-source-line="56" data-uid="lnk45" id="link_QA_CU12"><path d="M66.69,1295.9469 C73.35,1240.7669 93.67,1139.3769 155,1082.2969 C173.87,1064.7369 193.71,1055.8648 218.38,1049.8648" fill="none" id="QA-to-CU12" style="stroke:#181818;stroke-width:1;"/><polygon fill="#181818" points="224.21,1048.4469,214.5196,1046.6871,219.3516,1049.6285,216.4102,1054.4605,224.21,1048.4469" style="stroke:#181818;stroke-width:1;"/></g><!--link QA to CU13--><g class="link" data-entity-1="QA" data-entity-2="CU13" data-source-line="57" data-uid="lnk46" id="link_QA_CU13"><path d="M74.57,1296.2069 C87.65,1257.8869 113.1,1199.7869 155,1166.2969 C176.59,1149.0369 199.0723,1140.21 225.1523,1134.22" fill="none" id="QA-to-CU13" style="stroke:#181818;stroke-width:1;"/><polygon fill="#181818" points="231,1132.8769,221.333,1130.993,226.1269,1133.9961,223.1238,1138.79,231,1132.8769" style="stroke:#181818;stroke-width:1;"/></g><!--link QA to CU14--><g class="link" data-entity-1="QA" data-entity-2="CU14" data-source-line="58" data-uid="lnk47" id="link_QA_CU14"><path d="M97.34,1296.0769 C113.41,1279.9469 133.73,1262.1869 155,1250.2969 C178.08,1237.3969 199.6414,1229.7004 224.5214,1223.2604" fill="none" id="QA-to-CU14" style="stroke:#181818;stroke-width:1;"/><polygon fill="#181818" points="230.33,1221.7569,220.6148,1220.1398,225.4895,1223.0098,222.6195,1227.8845,230.33,1221.7569" style="stroke:#181818;stroke-width:1;"/></g><!--link QA to CU15--><g class="link" data-entity-1="QA" data-entity-2="CU15" data-source-line="59" data-uid="lnk48" id="link_QA_CU15"><path d="M119.05,1324.5569 C155.25,1318.2069 196.6602,1310.9432 234.2402,1304.3532" fill="none" id="QA-to-CU15" style="stroke:#181818;stroke-width:1;"/><polygon fill="#181818" points="240.15,1303.3169,230.5944,1300.9315,235.2251,1304.1805,231.9762,1308.8113,240.15,1303.3169" style="stroke:#181818;stroke-width:1;"/></g><!--link QA to CU16--><g class="link" data-entity-1="QA" data-entity-2="CU16" data-source-line="60" data-uid="lnk49" id="link_QA_CU16"><path d="M119.05,1344.0369 C151.52,1349.7369 187.0301,1355.9608 222.3401,1362.1508" fill="none" id="QA-to-CU16" style="stroke:#181818;stroke-width:1;"/><polygon fill="#181818" points="228.25,1363.1869,220.0759,1357.6929,223.3251,1362.3235,218.6945,1365.5728,228.25,1363.1869" style="stroke:#181818;stroke-width:1;"/></g><!--link QA to CU17--><g class="link" data-entity-1="QA" data-entity-2="CU17" data-source-line="61" data-uid="lnk50" id="link_QA_CU17"><path d="M97.85,1372.4769 C113.86,1388.2969 134,1405.6369 155,1417.2969 C179.17,1430.7069 202.1707,1438.6853 227.9307,1445.1553" fill="none" id="QA-to-CU17" style="stroke:#181818;stroke-width:1;"/><polygon fill="#181818" points="233.75,1446.6169,225.9955,1440.545,228.9006,1445.3989,224.0467,1448.304,233.75,1446.6169" style="stroke:#181818;stroke-width:1;"/></g><!--link QA to CU18--><g class="link" data-entity-1="QA" data-entity-2="CU18" data-source-line="62" data-uid="lnk51" id="link_QA_CU18"><path d="M74.94,1372.6369 C88.19,1410.5269 113.66,1467.4269 155,1500.2969 C174.44,1515.7569 193.4826,1524.0188 217.2426,1530.1888" fill="none" id="QA-to-CU18" style="stroke:#181818;stroke-width:1;"/><polygon fill="#181818" points="223.05,1531.6969,215.3443,1525.5632,218.2105,1530.4402,213.3335,1533.3064,223.05,1531.6969" style="stroke:#181818;stroke-width:1;"/></g><!--link QA to CU19--><g class="link" data-entity-1="QA" data-entity-2="CU19" data-source-line="63" data-uid="lnk52" id="link_QA_CU19"><path d="M66.89,1372.6569 C73.78,1427.2869 94.38,1527.0969 155,1583.2969 C174.98,1601.8169 196.6772,1610.9259 222.5972,1616.7759" fill="none" id="QA-to-CU19" style="stroke:#181818;stroke-width:1;"/><polygon fill="#181818" points="228.45,1618.0969,220.5514,1612.2136,223.5727,1616.9961,218.7902,1620.0173,228.45,1618.0969" style="stroke:#181818;stroke-width:1;"/></g><!--link QA to CU20--><g class="link" data-entity-1="QA" data-entity-2="CU20" data-source-line="64" data-uid="lnk53" id="link_QA_CU20"><path d="M62.75,1372.4069 C63.54,1440.8269 75.27,1584.9569 155,1666.2969 C172.45,1684.0969 190.9527,1693.2304 214.8327,1699.6004" fill="none" id="QA-to-CU20" style="stroke:#181818;stroke-width:1;"/><polygon fill="#181818" points="220.63,1701.1469,212.965,1694.9624,215.7989,1699.8582,210.9031,1702.6921,220.63,1701.1469" style="stroke:#181818;stroke-width:1;"/></g><!--link QA to CU21--><g class="link" data-entity-1="QA" data-entity-2="CU21" data-source-line="65" data-uid="lnk54" id="link_QA_CU21"><path d="M66.89,1372.6269 C75.83,1465.3269 103.04,1698.0369 155,1753.2969 C179.7,1779.5669 213.552,1789.0981 245.662,1792.9181" fill="none" id="QA-to-CU21" style="stroke:#181818;stroke-width:1;"/><polygon fill="#181818" points="251.62,1793.6269,243.1556,1788.5917,246.655,1793.0362,242.2105,1796.5357,251.62,1793.6269" style="stroke:#181818;stroke-width:1;"/></g><!--link QA to CU22--><g class="link" data-entity-1="QA" data-entity-2="CU22" data-source-line="66" data-uid="lnk55" id="link_QA_CU22"><path d="M65.41,1372.6269 C71.42,1477.7869 93.34,1767.5469 155,1836.2969 C179.97,1864.1369 215.7109,1873.9972 248.5009,1877.8472" fill="none" id="QA-to-CU22" style="stroke:#181818;stroke-width:1;"/><polygon fill="#181818" points="254.46,1878.5469,245.9879,1873.5247,249.4941,1877.9638,245.055,1881.4701,254.46,1878.5469" style="stroke:#181818;stroke-width:1;"/></g><!--link QA to CU23--><g class="link" data-entity-1="QA" data-entity-2="CU23" data-source-line="67" data-uid="lnk56" id="link_QA_CU23"><path d="M64.22,1372.4069 C67.2,1489.4669 82.15,1840.9369 155,1923.2969 C173.32,1944.0069 195.1379,1953.5948 221.6379,1959.1548" fill="none" id="QA-to-CU23" style="stroke:#181818;stroke-width:1;"/><polygon fill="#181818" points="227.51,1960.3869,219.5231,1954.624,222.6165,1959.3602,217.8804,1962.4536,227.51,1960.3869" style="stroke:#181818;stroke-width:1;"/></g><!--link QA to CU24--><g class="link" data-entity-1="QA" data-entity-2="CU24" data-source-line="68" data-uid="lnk57" id="link_QA_CU24"><path d="M63.42,1372.7169 C63.93,1500.9069 72.13,1911.1869 155,2007.2969 C178.59,2034.6569 212.5004,2044.4218 244.9104,2048.2018" fill="none" id="QA-to-CU24" style="stroke:#181818;stroke-width:1;"/><polygon fill="#181818" points="250.87,2048.8969,242.394,2043.8812,245.9037,2048.3176,241.4672,2051.8273,250.87,2048.8969" style="stroke:#181818;stroke-width:1;"/></g><!--link QA to CU25--><g class="link" data-entity-1="QA" data-entity-2="CU25" data-source-line="69" data-uid="lnk58" id="link_QA_CU25"><path d="M65.69,1372.7369 C74.35,1519.1869 108.09,2036.7069 155,2092.2969 C180.33,2122.3069 219.1657,2131.8218 252.8557,2134.9518" fill="none" id="QA-to-CU25" style="stroke:#181818;stroke-width:1;"/><polygon fill="#181818" points="258.83,2135.5069,250.2386,2130.6915,253.8514,2135.0443,249.4986,2138.6572,258.83,2135.5069" style="stroke:#181818;stroke-width:1;"/></g><!--link QA to CU26--><g class="link" data-entity-1="QA" data-entity-2="CU26" data-source-line="70" data-uid="lnk59" id="link_QA_CU26"><path d="M65.16,1372.5269 C72.31,1529.1669 102.46,2116.6569 155,2179.2969 C179.33,2208.3069 216.0077,2217.811 249.2977,2221.021" fill="none" id="QA-to-CU26" style="stroke:#181818;stroke-width:1;"/><polygon fill="#181818" points="255.27,2221.5969,246.6955,2216.7515,250.2931,2221.117,245.9276,2224.7146,255.27,2221.5969" style="stroke:#181818;stroke-width:1;"/></g><!--link QA to CU27--><g class="link" data-entity-1="QA" data-entity-2="CU27" data-source-line="71" data-uid="lnk60" id="link_QA_CU27"><path d="M64.77,1372.3969 C70.62,1538.6369 97.28,2195.3369 155,2265.2969 C167.11,2279.9769 178.2665,2287.8049 196.1965,2294.4749" fill="none" id="QA-to-CU27" style="stroke:#181818;stroke-width:1;"/><polygon fill="#181818" points="201.82,2296.5669,194.7794,2289.6799,197.1338,2294.8236,191.9901,2297.1779,201.82,2296.5669" style="stroke:#181818;stroke-width:1;"/></g><!--link QA to CU28--><g class="link" data-entity-1="QA" data-entity-2="CU28" data-source-line="72" data-uid="lnk61" id="link_QA_CU28"><path d="M64.42,1372.3669 C68.98,1548.0669 91.59,2275.2869 155,2352.2969 C167.76,2367.7869 180.0648,2375.9496 199.1248,2382.4896" fill="none" id="QA-to-CU28" style="stroke:#181818;stroke-width:1;"/><polygon fill="#181818" points="204.8,2384.4369,197.5854,2377.7324,200.0707,2382.8141,194.989,2385.2994,204.8,2384.4369" style="stroke:#181818;stroke-width:1;"/></g><!--link QA to CU29--><g class="link" data-entity-1="QA" data-entity-2="CU29" data-source-line="73" data-uid="lnk62" id="link_QA_CU29"><path d="M64.13,1372.4269 C67.5,1557.1369 85.98,2353.4169 155,2437.2969 C167.56,2452.5569 179.5438,2460.5624 198.3138,2466.9924" fill="none" id="QA-to-CU29" style="stroke:#181818;stroke-width:1;"/><polygon fill="#181818" points="203.99,2468.9369,196.772,2462.236,199.2599,2467.3165,194.1794,2469.8043,203.99,2468.9369" style="stroke:#181818;stroke-width:1;"/></g><!--link QA to CU30--><g class="link" data-entity-1="QA" data-entity-2="CU30" data-source-line="74" data-uid="lnk63" id="link_QA_CU30"><path d="M63.89,1372.4069 C66.2,1565.5269 80.65,2430.4069 155,2521.2969 C169.8,2539.3869 185.9828,2548.4332 208.4928,2554.5932" fill="none" id="QA-to-CU30" style="stroke:#181818;stroke-width:1;"/><polygon fill="#181818" points="214.28,2556.1769,206.655,2549.9432,209.4573,2554.8571,204.5434,2557.6595,214.28,2556.1769" style="stroke:#181818;stroke-width:1;"/></g><!--SRC=[ZPHDZnen38RlyoiixaWam-Ub4aNLQhMjrEssFN496GFH3WbDCltOgl-z6MZ0OGBR4rPuNp-EFKwDQm_UW5MRhOTAMPHU6LruvMk4XN36GONGE0DzkDSRr0gjQOyUvqKXf3SMUXVdFH3ky7URJEXDIDHxKixZJlJWTm4X6qhXi3KggOHTQeSkK0_6nPS1eve5MjkLy2BDuwsf6gc2hZAosQ7sGWOvh1lT_eew6algcplJyY7nBBM0lJM_Gl4ckeP9HKQxflPTdyLDkAOLbJZqJ7VIZ9Agt_qCMWmbIzBcA1rJvVkGLbmHJhAb7RKNqcaYjNX5DajQ97qZQlMIrx91Sg5QxPI-ecIvkuF5RurooXktrATPeOictkt2QvOoFwgJYvYYPTZfoqtvAD-Vcvvnhayt7PEaNtUeCQm1e9COdAgz_DqMxREAAy6ccLxTaC-AxgrN9knQ5LQwmlCCzxR1bVXduuFSTnbzfobmTkMhZCgeImOyroAyGB16h5P2FhUBUAbFfli9DyUsTFCEqndXFaiVfTdaLhpaPEFiADB-X8S7hVeUREtPPOPaIJysgrh9J0RKyA1-AFYy-F0KdSbKtpOk-jnhncIBl-9_qSf1yQSe7kVGxxyvFiJdc9Eu9F6Gn2CIZqay8V6KnBDp75wISqouZ70PuJB2POJB29SHBYDSHhYSS3dXSiBbXCi9bnCk9rnEk9nmEU6MWxy0]--></g></svg>