<svg xmlns="http://www.w3.org/2000/svg" xmlns:xlink="http://www.w3.org/1999/xlink" contentStyleType="text/css" data-diagram-type="DESCRIPTION" height="1076px" preserveAspectRatio="none" style="width:431px;height:1076px;background:#FFFFFF;" version="1.1" viewBox="0 0 431 1076" width="431px" zoomAndPan="magnify"><title>Casos de uso - Ingeniero de QA</title><defs/><g><g class="title" data-source-line="2"><text fill="#000000" font-family="sans-serif" font-size="14" font-weight="bold" lengthAdjust="spacing" textLength="246.2236" x="85.3882" y="22.9951">Casos de uso - Ingeniero de QA</text></g><!--cluster Sistema--><g class="cluster" data-entity="Sistema" data-source-line="6" data-uid="ent0003" id="cluster_Sistema"><rect fill="none" height="1026" rx="2.5" ry="2.5" style="stroke:#181818;stroke-width:1;" width="262" x="163" y="44.2969"/><text fill="#000000" font-family="sans-serif" font-size="14" font-weight="bold" lengthAdjust="spacing" textLength="63.4375" x="262.2813" y="59.292">Sistema</text></g><!--entity CU01--><g class="entity" data-entity="CU01" data-source-line="7" data-uid="ent0004" id="entity_CU01"><ellipse cx="293.9644" cy="104.3165" fill="#F1F1F1" rx="74.4644" ry="24.5196" style="stroke:#181818;stroke-width:0.5;"/><text fill="#000000" font-family="sans-serif" font-size="14" lengthAdjust="spacing" textLength="72.5635" x="257.6826" y="98.5734">Incorporar</text><text fill="#000000" font-family="sans-serif" font-size="14" lengthAdjust="spacing" textLength="108.2402" x="239.8442" y="114.8702">documentaci&#243;n</text></g><!--entity CU02--><g class="entity" data-entity="CU02" data-source-line="8" data-uid="ent0005" id="entity_CU02"><ellipse cx="294.2461" cy="188.2461" fill="#F1F1F1" rx="107.7461" ry="23.9492" style="stroke:#181818;stroke-width:0.5;"/><text fill="#000000" font-family="sans-serif" font-size="14" lengthAdjust="spacing" textLength="164.0488" x="212.2216" y="188.0142">Asociar documentaci&#243;n</text><text fill="#000000" font-family="sans-serif" font-size="14" lengthAdjust="spacing" textLength="74.8877" x="256.8022" y="204.311">a proyecto</text></g><!--entity CU03--><g class="entity" data-entity="CU03" data-source-line="9" data-uid="ent0006" id="entity_CU03"><ellipse cx="293.855" cy="271.479" fill="#F1F1F1" rx="61.855" ry="24.1821" style="stroke:#181818;stroke-width:0.5;"/><text fill="#000000" font-family="sans-serif" font-size="14" lengthAdjust="spacing" textLength="51.3242" x="268.1929" y="265.2133">Extraer</text><text fill="#000000" font-family="sans-serif" font-size="14" lengthAdjust="spacing" textLength="90.5625" x="248.5737" y="281.5102">casos de uso</text></g><!--entity CU04--><g class="entity" data-entity="CU04" data-source-line="10" data-uid="ent0007" id="entity_CU04"><ellipse cx="294.2343" cy="355.2248" fill="#F1F1F1" rx="84.7343" ry="24.4279" style="stroke:#181818;stroke-width:0.5;"/><text fill="#000000" font-family="sans-serif" font-size="14" lengthAdjust="spacing" textLength="124.3252" x="232.0717" y="354.1088">Extraer requisitos</text><text fill="#000000" font-family="sans-serif" font-size="14" lengthAdjust="spacing" textLength="80.0762" x="254.1962" y="370.4057">funcionales</text></g><!--entity CU05--><g class="entity" data-entity="CU05" data-source-line="11" data-uid="ent0008" id="entity_CU05"><ellipse cx="294.1348" cy="440.1196" fill="#F1F1F1" rx="63.6348" ry="24.8227" style="stroke:#181818;stroke-width:0.5;"/><text fill="#000000" font-family="sans-serif" font-size="14" lengthAdjust="spacing" textLength="67.9082" x="260.1807" y="434.8362">Gestionar</text><text fill="#000000" font-family="sans-serif" font-size="14" lengthAdjust="spacing" textLength="90.5625" x="248.8536" y="451.133">casos de uso</text></g><!--entity CU06--><g class="entity" data-entity="CU06" data-source-line="12" data-uid="ent0009" id="entity_CU06"><ellipse cx="294.0943" cy="524.4836" fill="#F1F1F1" rx="94.5943" ry="24.1867" style="stroke:#181818;stroke-width:0.5;"/><text fill="#000000" font-family="sans-serif" font-size="14" lengthAdjust="spacing" textLength="140.9092" x="223.6397" y="523.7421">Gestionar requisitos</text><text fill="#000000" font-family="sans-serif" font-size="14" lengthAdjust="spacing" textLength="80.0762" x="254.0562" y="540.0389">funcionales</text></g><!--entity CU07--><g class="entity" data-entity="CU07" data-source-line="13" data-uid="ent0010" id="entity_CU07"><ellipse cx="293.8036" cy="607.3569" fill="#F1F1F1" rx="91.3036" ry="24.06" style="stroke:#181818;stroke-width:0.5;"/><text fill="#000000" font-family="sans-serif" font-size="14" lengthAdjust="spacing" textLength="136.6641" x="225.4716" y="606.8145">Generar escenarios</text><text fill="#000000" font-family="sans-serif" font-size="14" lengthAdjust="spacing" textLength="71.5449" x="258.0311" y="623.1114">de prueba</text></g><!--entity CU08--><g class="entity" data-entity="CU08" data-source-line="14" data-uid="ent0011" id="entity_CU08"><ellipse cx="293.8738" cy="690.2569" fill="#F1F1F1" rx="97.8738" ry="23.96" style="stroke:#181818;stroke-width:0.5;"/><text fill="#000000" font-family="sans-serif" font-size="14" lengthAdjust="spacing" textLength="147.5332" x="220.1072" y="689.873">Gestionar escenarios</text><text fill="#000000" font-family="sans-serif" font-size="14" lengthAdjust="spacing" textLength="71.5449" x="258.1014" y="706.1698">de prueba</text></g><!--entity CU09--><g class="entity" data-entity="CU09" data-source-line="15" data-uid="ent0012" id="entity_CU09"><ellipse cx="294.1213" cy="774.1579" fill="#F1F1F1" rx="95.6213" ry="24.3611" style="stroke:#181818;stroke-width:0.5;"/><text fill="#000000" font-family="sans-serif" font-size="14" lengthAdjust="spacing" textLength="141.3262" x="223.4582" y="773.1452">Incorporar feedback</text><text fill="#000000" font-family="sans-serif" font-size="14" lengthAdjust="spacing" textLength="88.2041" x="250.0193" y="789.442">a escenarios</text></g><!--entity CU10--><g class="entity" data-entity="CU10" data-source-line="16" data-uid="ent0013" id="entity_CU10"><ellipse cx="293.808" cy="858.28" fill="#F1F1F1" rx="77.308" ry="23.9832" style="stroke:#181818;stroke-width:0.5;"/><text fill="#000000" font-family="sans-serif" font-size="14" lengthAdjust="spacing" textLength="57.0391" x="265.2885" y="851.7007">Generar</text><text fill="#000000" font-family="sans-serif" font-size="14" lengthAdjust="spacing" textLength="115.4248" x="236.0956" y="867.9976">casos de prueba</text></g><!--entity CU11--><g class="entity" data-entity="CU11" data-source-line="17" data-uid="ent0014" id="entity_CU11"><ellipse cx="294.0887" cy="942.1146" fill="#F1F1F1" rx="112.0887" ry="24.8177" style="stroke:#181818;stroke-width:0.5;"/><text fill="#000000" font-family="sans-serif" font-size="14" lengthAdjust="spacing" textLength="175.8887" x="206.1443" y="942.0024">Publicar casos de prueba</text><text fill="#000000" font-family="sans-serif" font-size="14" lengthAdjust="spacing" textLength="94.0898" x="247.0438" y="958.2992">en Kiwi TCMS</text></g><!--entity CU12--><g class="entity" data-entity="CU12" data-source-line="18" data-uid="ent0015" id="entity_CU12"><ellipse cx="293.8791" cy="1028.1727" fill="#F1F1F1" rx="114.8791" ry="25.3758" style="stroke:#181818;stroke-width:0.5;"/><text fill="#000000" font-family="sans-serif" font-size="14" lengthAdjust="spacing" textLength="186.9697" x="200.3943" y="1028.6773">Consultar casos de prueba</text><text fill="#000000" font-family="sans-serif" font-size="14" lengthAdjust="spacing" textLength="94.0898" x="246.8342" y="1044.9741">en Kiwi TCMS</text></g><!--entity QA--><g class="entity" data-entity="QA" data-source-line="4" data-uid="ent0002" id="entity_QA"><ellipse cx="62.5981" cy="536.7969" fill="#F1F1F1" rx="8" ry="8" style="stroke:#181818;stroke-width:0.5;"/><path d="M62.5981,544.7969 L62.5981,571.7969 M49.5981,552.7969 L75.5981,552.7969 M62.5981,571.7969 L49.5981,586.7969 M62.5981,571.7969 L75.5981,586.7969" fill="none" style="stroke:#181818;stroke-width:0.5;"/><text fill="#000000" font-family="sans-serif" font-size="14" lengthAdjust="spacing" textLength="113.1963" x="6" y="601.292">Ingeniero de QA</text></g><!--link QA to CU01--><g class="link" data-entity-1="QA" data-entity-2="CU01" data-source-line="21" data-uid="lnk16" id="link_QA_CU01"><path d="M66.9,528.2769 C75.93,435.7369 103.4,202.2569 155,146.2969 C172.4,127.4269 192.1523,118.3228 216.5823,112.5228" fill="none" id="QA-to-CU01" style="stroke:#181818;stroke-width:1;"/><polygon fill="#181818" points="222.42,111.1369,212.7394,109.324,217.5552,112.2918,214.5874,117.1076,222.42,111.1369" style="stroke:#181818;stroke-width:1;"/></g><!--link QA to CU02--><g class="link" data-entity-1="QA" data-entity-2="CU02" data-source-line="22" data-uid="lnk17" id="link_QA_CU02"><path d="M62.55,528.1769 C62.98,458.9569 74.1,312.1369 155,229.2969 C167.92,216.0669 179.2322,209.0255 196.8522,202.9055" fill="none" id="QA-to-CU02" style="stroke:#181818;stroke-width:1;"/><polygon fill="#181818" points="202.52,200.9369,192.7058,200.1113,197.7968,202.5774,195.3306,207.6684,202.52,200.9369" style="stroke:#181818;stroke-width:1;"/></g><!--link QA to CU03--><g class="link" data-entity-1="QA" data-entity-2="CU03" data-source-line="23" data-uid="lnk18" id="link_QA_CU03"><path d="M66.79,527.9469 C73.57,472.7569 94.04,371.1969 155,313.2969 C176.16,293.2069 200.7609,283.9054 227.6909,278.4154" fill="none" id="QA-to-CU03" style="stroke:#181818;stroke-width:1;"/><polygon fill="#181818" points="233.57,277.2169,223.9524,275.0953,228.6708,278.2156,225.5504,282.934,233.57,277.2169" style="stroke:#181818;stroke-width:1;"/></g><!--link QA to CU04--><g class="link" data-entity-1="QA" data-entity-2="CU04" data-source-line="24" data-uid="lnk19" id="link_QA_CU04"><path d="M74.64,528.1469 C87.78,489.7269 113.27,431.3869 155,397.2969 C173.13,382.4869 190.6505,374.4985 212.9205,368.2885" fill="none" id="QA-to-CU04" style="stroke:#181818;stroke-width:1;"/><polygon fill="#181818" points="218.7,366.6769,208.9563,365.2413,213.8837,368.0199,211.1052,372.9473,218.7,366.6769" style="stroke:#181818;stroke-width:1;"/></g><!--link QA to CU05--><g class="link" data-entity-1="QA" data-entity-2="CU05" data-source-line="25" data-uid="lnk20" id="link_QA_CU05"><path d="M97.45,528.2669 C113.53,512.1669 133.84,494.3869 155,482.2969 C180.22,467.8869 205.1039,459.381 231.1439,452.781" fill="none" id="QA-to-CU05" style="stroke:#181818;stroke-width:1;"/><polygon fill="#181818" points="236.96,451.3069,227.2531,449.6407,232.1133,452.5353,229.2186,457.3955,236.96,451.3069" style="stroke:#181818;stroke-width:1;"/></g><!--link QA to CU06--><g class="link" data-entity-1="QA" data-entity-2="CU06" data-source-line="26" data-uid="lnk21" id="link_QA_CU06"><path d="M119.06,556.1269 C148.37,550.7669 178.888,545.1767 210.808,539.3367" fill="none" id="QA-to-CU06" style="stroke:#181818;stroke-width:1;"/><polygon fill="#181818" points="216.71,538.2569,207.1371,535.9419,211.7916,539.1567,208.5768,543.8113,216.71,538.2569" style="stroke:#181818;stroke-width:1;"/></g><!--link QA to CU07--><g class="link" data-entity-1="QA" data-entity-2="CU07" data-source-line="27" data-uid="lnk22" id="link_QA_CU07"><path d="M119.06,576.2169 C148.77,581.5269 179.8733,587.0931 212.1033,592.8431" fill="none" id="QA-to-CU07" style="stroke:#181818;stroke-width:1;"/><polygon fill="#181818" points="218.01,593.8969,209.8524,588.3784,213.0877,593.0187,208.4474,596.254,218.01,593.8969" style="stroke:#181818;stroke-width:1;"/></g><!--link QA to CU08--><g class="link" data-entity-1="QA" data-entity-2="CU08" data-source-line="28" data-uid="lnk23" id="link_QA_CU08"><path d="M98.89,604.6469 C114.79,620.0169 134.56,636.7769 155,648.2969 C174.96,659.5469 192.5323,666.429 214.2623,672.799" fill="none" id="QA-to-CU08" style="stroke:#181818;stroke-width:1;"/><polygon fill="#181818" points="220.02,674.4869,212.5087,668.1167,215.2219,673.0803,210.2582,675.7936,220.02,674.4869" style="stroke:#181818;stroke-width:1;"/></g><!--link QA to CU09--><g class="link" data-entity-1="QA" data-entity-2="CU09" data-source-line="29" data-uid="lnk24" id="link_QA_CU09"><path d="M75.3,604.5469 C88.77,642.0269 114.36,698.2069 155,731.2969 C171.93,745.0769 187.5531,752.6997 208.3831,759.0797" fill="none" id="QA-to-CU09" style="stroke:#181818;stroke-width:1;"/><polygon fill="#181818" points="214.12,760.8369,206.686,754.3765,209.3392,759.3726,204.3432,762.0258,214.12,760.8369" style="stroke:#181818;stroke-width:1;"/></g><!--link QA to CU10--><g class="link" data-entity-1="QA" data-entity-2="CU10" data-source-line="30" data-uid="lnk25" id="link_QA_CU10"><path d="M66.98,604.6569 C74,659.3069 94.73,759.2769 155,816.2969 C173.1,833.4169 192.1654,842.0968 215.8154,848.1168" fill="none" id="QA-to-CU10" style="stroke:#181818;stroke-width:1;"/><polygon fill="#181818" points="221.63,849.5969,213.8948,843.5004,216.7845,848.3635,211.9214,851.2532,221.63,849.5969" style="stroke:#181818;stroke-width:1;"/></g><!--link QA to CU11--><g class="link" data-entity-1="QA" data-entity-2="CU11" data-source-line="31" data-uid="lnk26" id="link_QA_CU11"><path d="M62.81,604.4169 C63.71,672.8769 75.62,817.1769 155,899.2969 C167.73,912.4669 178.7862,919.5629 196.1462,925.9229" fill="none" id="QA-to-CU11" style="stroke:#181818;stroke-width:1;"/><polygon fill="#181818" points="201.78,927.9869,194.7053,921.135,197.0852,926.2669,191.9533,928.6467,201.78,927.9869" style="stroke:#181818;stroke-width:1;"/></g><!--link QA to CU12--><g class="link" data-entity-1="QA" data-entity-2="CU12" data-source-line="32" data-uid="lnk27" id="link_QA_CU12"><path d="M67.01,604.4369 C76.23,696.6769 104.04,928.3469 155,984.2969 C167.11,997.5869 177.6186,1004.7363 194.5486,1011.2363" fill="none" id="QA-to-CU12" style="stroke:#181818;stroke-width:1;"/><polygon fill="#181818" points="200.15,1013.3869,193.1817,1006.4268,195.4822,1011.5948,190.3143,1013.8953,200.15,1013.3869" style="stroke:#181818;stroke-width:1;"/></g><!--SRC=[ZPBTIiD048Nlzoc6t1VQzFz62454HB1Kxt8ptKphOhfJzmSLyQby15_CJJLaK-BFtM5pldDsPbFHre5ZC6ftxw1KXgHJh8LJhYB8qRA5ai1RXW5SwXrfHORherKc14h71fAJymJG7Z_NOQXt8IXPA-jeZmcy2WXf9D5I3Kes1pPe2bsoz7lI3gNwUDV7ZFnkE8hjcMMfq43NMcY4W-6NKCODbiRO-RCpIA52HkCqpd6F4mmzUcMLOrlehTSoR0GhiWqpYPaBilN6y8VyQQ_thuPPbz8KLWHa9GLMrKmeEHXF6so8UN_FhyoY_orWIrHkK3xKcsq36chPSxTezax5Q1YRR_ocKZ8Kd9WBJHgkr9E2s_nwtQ2TfyzPMr-v_xAfU1DYbS5WSFRr5xKwZVGuqfD8JoCzY_Gyqej8BriT9cvrtVijqqy0]--></g></svg>