<svg xmlns="http://www.w3.org/2000/svg" xmlns:xlink="http://www.w3.org/1999/xlink" contentStyleType="text/css" data-diagram-type="STATE" height="681px" preserveAspectRatio="none" style="width:389px;height:681px;background:#FFFFFF;" version="1.1" viewBox="0 0 389 681" width="389px" zoomAndPan="magnify"><defs/><g><path d="M26.5,7 L324.5,7 A12.5,12.5 0 0 1 337,19.5 L337,33.2969 L14,33.2969 L14,19.5 A12.5,12.5 0 0 1 26.5,7" fill="#F1F1F1"/><rect fill="none" height="523.2969" rx="12.5" ry="12.5" style="stroke:#181818;stroke-width:0.5;" width="323" x="14" y="7"/><line style="stroke:#181818;stroke-width:0.5;" x1="14" x2="337" y1="33.2969" y2="33.2969"/><text fill="#000000" font-family="sans-serif" font-size="14" lengthAdjust="spacing" textLength="99.6201" x="125.6899" y="24.9951">iniciarSesion()</text><g id="iniciarSesion.SolicitandoCredenciales"><rect fill="#F1F1F1" height="50" rx="12.5" ry="12.5" style="stroke:#181818;stroke-width:0.5;" width="50" x="26" y="135.2969"/><line style="stroke:#181818;stroke-width:0.5;" x1="26" x2="76" y1="161.5938" y2="161.5938"/><text fill="#000000" font-family="sans-serif" font-size="14" lengthAdjust="spacing" textLength="4.4502" x="48.7749" y="153.292">&#160;</text></g><g id="iniciarSesion.ValidandoCredenciales"><rect fill="#F1F1F1" height="50" rx="12.5" ry="12.5" style="stroke:#181818;stroke-width:0.5;" width="50" x="26" y="256.2969"/><line style="stroke:#181818;stroke-width:0.5;" x1="26" x2="76" y1="282.5938" y2="282.5938"/><text fill="#000000" font-family="sans-serif" font-size="14" lengthAdjust="spacing" textLength="4.4502" x="48.7749" y="274.292">&#160;</text></g><g id="iniciarSesion.ConcediendoAcceso"><rect fill="#F1F1F1" height="50" rx="12.5" ry="12.5" style="stroke:#181818;stroke-width:0.5;" width="50" x="26" y="377.2969"/><line style="stroke:#181818;stroke-width:0.5;" x1="26" x2="76" y1="403.5938" y2="403.5938"/><text fill="#000000" font-family="sans-serif" font-size="14" lengthAdjust="spacing" textLength="4.4502" x="48.7749" y="395.292">&#160;</text></g><ellipse cx="51" cy="54.2969" fill="#222222" rx="10" ry="10" style="stroke:#222222;stroke-width:1;"/><ellipse cx="51" cy="509.2969" fill="none" rx="11" ry="11" style="stroke:#222222;stroke-width:1;"/><ellipse cx="51" cy="509.2969" fill="#222222" rx="6" ry="6" style="stroke:#222222;stroke-width:1;"/><!--link *start*iniciarSesion to SolicitandoCredenciales--><g class="link" data-entity-1=".start.iniciarSesion" data-entity-2="SolicitandoCredenciales" data-source-line="9" data-uid="lnk3" id="link_.start.iniciarSesion_SolicitandoCredenciales"><path d="M51,64.5269 C51,80.2369 51,106.6569 51,129.1669" fill="none" id="*start*iniciarSesion-to-SolicitandoCredenciales" style="stroke:#008000;stroke-width:1;"/><polygon fill="#008000" points="51,135.1669,55,126.1669,51,130.1669,47,126.1669,51,135.1669" style="stroke:#008000;stroke-width:1;"/><path d="M56,87.2969 L56,112.2969 L232,112.2969 L232,97.2969 L222,87.2969 L56,87.2969" fill="#FEFFDD" style="stroke:#181818;stroke-width:0.5;"/><path d="M222,87.2969 L222,97.2969 L232,97.2969 L222,87.2969" fill="#FEFFDD" style="stroke:#181818;stroke-width:0.5;"/><text fill="#000000" font-family="sans-serif" font-size="13" lengthAdjust="spacing" textLength="155.3018" x="62" y="104.3638">Se solicita iniciar sesion</text></g><!--link SolicitandoCredenciales to ValidandoCredenciales--><g class="link" data-entity-1="SolicitandoCredenciales" data-entity-2="ValidandoCredenciales" data-source-line="14" data-uid="lnk4" id="link_SolicitandoCredenciales_ValidandoCredenciales"><path d="M51,185.3769 C51,206.0269 51,229.6169 51,250.2469" fill="none" id="SolicitandoCredenciales-to-ValidandoCredenciales" style="stroke:#008000;stroke-width:1;"/><polygon fill="#008000" points="51,256.2469,55,247.2469,51,251.2469,47,247.2469,51,256.2469" style="stroke:#008000;stroke-width:1;"/><path d="M56,208.2969 L56,233.2969 L328,233.2969 L328,218.2969 L318,208.2969 L56,208.2969" fill="#FEFFDD" style="stroke:#181818;stroke-width:0.5;"/><path d="M318,208.2969 L318,218.2969 L328,218.2969 L318,208.2969" fill="#FEFFDD" style="stroke:#181818;stroke-width:0.5;"/><text fill="#000000" font-family="sans-serif" font-size="13" font-weight="bold" lengthAdjust="spacing" textLength="58.9063" x="62" y="225.3638">Sistema</text><text fill="#000000" font-family="sans-serif" font-size="13" lengthAdjust="spacing" textLength="188.3032" x="125.0386" y="225.3638">solicita y recibe credenciales</text></g><!--link ValidandoCredenciales to ConcediendoAcceso--><g class="link" data-entity-1="ValidandoCredenciales" data-entity-2="ConcediendoAcceso" data-source-line="19" data-uid="lnk5" id="link_ValidandoCredenciales_ConcediendoAcceso"><path d="M51,306.3769 C51,327.0269 51,350.6169 51,371.2469" fill="none" id="ValidandoCredenciales-to-ConcediendoAcceso" style="stroke:#008000;stroke-width:1;"/><polygon fill="#008000" points="51,377.2469,55,368.2469,51,372.2469,47,368.2469,51,377.2469" style="stroke:#008000;stroke-width:1;"/><path d="M56,329.2969 L56,354.2969 L276,354.2969 L276,339.2969 L266,329.2969 L56,329.2969" fill="#FEFFDD" style="stroke:#181818;stroke-width:0.5;"/><path d="M266,329.2969 L266,339.2969 L276,339.2969 L266,329.2969" fill="#FEFFDD" style="stroke:#181818;stroke-width:0.5;"/><text fill="#000000" font-family="sans-serif" font-size="13" font-weight="bold" lengthAdjust="spacing" textLength="58.9063" x="62" y="346.3638">Sistema</text><text fill="#000000" font-family="sans-serif" font-size="13" lengthAdjust="spacing" textLength="136.2524" x="125.0386" y="346.3638">valida la informacion</text></g><!--link ConcediendoAcceso to *end*iniciarSesion--><g class="link" data-entity-1="ConcediendoAcceso" data-entity-2=".end.iniciarSesion" data-source-line="24" data-uid="lnk7" id="link_ConcediendoAcceso_.end.iniciarSesion"><path d="M51,427.3869 C51,449.7869 51,476.0669 51,492.2469" fill="none" id="ConcediendoAcceso-to-*end*iniciarSesion" style="stroke:#008000;stroke-width:1;"/><polygon fill="#008000" points="51,498.2469,55,489.2469,51,493.2469,47,489.2469,51,498.2469" style="stroke:#008000;stroke-width:1;"/><path d="M56,450.2969 L56,475.2969 L297,475.2969 L297,460.2969 L287,450.2969 L56,450.2969" fill="#FEFFDD" style="stroke:#181818;stroke-width:0.5;"/><path d="M287,450.2969 L287,460.2969 L297,460.2969 L287,450.2969" fill="#FEFFDD" style="stroke:#181818;stroke-width:0.5;"/><text fill="#000000" font-family="sans-serif" font-size="13" font-weight="bold" lengthAdjust="spacing" textLength="58.9063" x="62" y="467.3638">Sistema</text><text fill="#000000" font-family="sans-serif" font-size="13" lengthAdjust="spacing" textLength="157.2061" x="125.0386" y="467.3638">concede acceso al actor</text></g><g id="SISTEMA_ABIERTO"><rect fill="#F1F1F1" height="50" rx="12.5" ry="12.5" style="stroke:#181818;stroke-width:0.5;" width="149.4111" x="7" y="625"/><line style="stroke:#181818;stroke-width:0.5;" x1="7" x2="156.4111" y1="651.2969" y2="651.2969"/><text fill="#000000" font-family="sans-serif" font-size="14" lengthAdjust="spacing" textLength="129.4111" x="17" y="642.9951">SISTEMA_ABIERTO</text></g><g id="SISTEMA_CERRADO"><rect fill="#F1F1F1" height="50" rx="12.5" ry="12.5" style="stroke:#181818;stroke-width:0.5;" width="157.4092" x="191" y="625"/><line style="stroke:#181818;stroke-width:0.5;" x1="191" x2="348.4092" y1="651.2969" y2="651.2969"/><text fill="#000000" font-family="sans-serif" font-size="14" lengthAdjust="spacing" textLength="137.4092" x="201" y="642.9951">SISTEMA_CERRADO</text></g><!--link iniciarSesion to SISTEMA_ABIERTO--><g class="link" data-entity-1="iniciarSesion" data-entity-2="SISTEMA_ABIERTO" data-source-line="30" data-uid="lnk9" id="link_iniciarSesion_SISTEMA_ABIERTO"><path d="M94.79,530.01 C89.07,548.47 85.5,560 85.5,560 C85.5,560 84.0507,592.3361 82.8607,618.6861" fill="none" id="iniciarSesion-to-SISTEMA_ABIERTO" style="stroke:#008000;stroke-width:1;"/><polygon fill="#008000" points="82.59,624.68,86.992,615.8696,82.8156,619.6851,79.0001,615.5087,82.59,624.68" style="stroke:#008000;stroke-width:1;"/><path d="M90.5,565 L90.5,590 L221.5,590 L221.5,575 L211.5,565 L90.5,565" fill="#FEFFDD" style="stroke:#181818;stroke-width:0.5;"/><path d="M211.5,565 L211.5,575 L221.5,575 L211.5,565" fill="#FEFFDD" style="stroke:#181818;stroke-width:0.5;"/><text fill="#000000" font-family="sans-serif" font-size="13" lengthAdjust="spacing" textLength="110.5762" x="96.5" y="582.0669">completarInicio()</text></g><!--link iniciarSesion to SISTEMA_CERRADO--><g class="link" data-entity-1="iniciarSesion" data-entity-2="SISTEMA_CERRADO" data-source-line="35" data-uid="lnk11" id="link_iniciarSesion_SISTEMA_CERRADO"><path d="M240.08,530.23 C249.67,568.96 256.6881,597.2558 262.0381,618.8658" fill="none" id="iniciarSesion-to-SISTEMA_CERRADO" style="stroke:#FF0000;stroke-width:1;"/><polygon fill="#FF0000" points="263.48,624.69,265.1999,614.9925,262.2784,619.8365,257.4344,616.915,263.48,624.69" style="stroke:#FF0000;stroke-width:1;"/><path d="M260.5,565 L260.5,590 L382.5,590 L382.5,575 L372.5,565 L260.5,565" fill="#FEFFDD" style="stroke:#181818;stroke-width:0.5;"/><path d="M372.5,565 L372.5,575 L382.5,575 L372.5,565" fill="#FEFFDD" style="stroke:#181818;stroke-width:0.5;"/><text fill="#000000" font-family="sans-serif" font-size="13" lengthAdjust="spacing" textLength="101.3721" x="266.5" y="582.0669">rechazarInicio()</text></g><!--SRC=[ZPB1IiD048Rl-nH3lRH2yGLA8COSSX2XALvAaSbcrAMRtR2x25LyTwSRfMxJQfDBildd- -UVYTygqwF33hGo57OzGM_rRlyYX0yO29HHKg6hoIjh03rCafFfR08VGW1VWtx2DwjggraLqBIsSDIIuH9DVYnyHAtQ_sM5DP9QHIpCfIHl1y_rzGRcwwiNHsGsy-nFMsCPnnautJOUr0J-M_yJ4tnC5J-pLwmPdCwG4_VpMKRUYoQhbG_KuUAcoGvzxC2HL0s1F4QaxPoqIfePJ-oIHjuY5_H-8i_MTIXFZsD4JxnvBHUvoKWXm061cf-2TQdVfn3fJvWilAfNvNt-bDzMvNBr8197QRjUKq1NxUljT2OE8KP8dkDlO54kb_dT4P1tyuhl9tXV]--></g></svg>