<svg xmlns="http://www.w3.org/2000/svg" xmlns:xlink="http://www.w3.org/1999/xlink" contentStyleType="text/css" data-diagram-type="STATE" height="696px" preserveAspectRatio="none" style="width:395px;height:696px;background:#FFFFFF;" version="1.1" viewBox="0 0 395 696" width="395px" zoomAndPan="magnify"><defs/><g><path d="M19.5,7 L338.5,7 A12.5,12.5 0 0 1 351,19.5 L351,33.2969 L7,33.2969 L7,19.5 A12.5,12.5 0 0 1 19.5,7" fill="#F1F1F1"/><rect fill="none" height="538.2969" rx="12.5" ry="12.5" style="stroke:#181818;stroke-width:0.5;" width="344" x="7" y="7"/><line style="stroke:#181818;stroke-width:0.5;" x1="7" x2="351" y1="33.2969" y2="33.2969"/><text fill="#000000" font-family="sans-serif" font-size="14" lengthAdjust="spacing" textLength="154.3076" x="101.8462" y="24.9951">registrarCasoPrueba()</text><g id="registrarCasoPrueba.RecibiendoCaso"><rect fill="#F1F1F1" height="50" rx="12.5" ry="12.5" style="stroke:#181818;stroke-width:0.5;" width="50" x="19" y="135.2969"/><line style="stroke:#181818;stroke-width:0.5;" x1="19" x2="69" y1="161.5938" y2="161.5938"/><text fill="#000000" font-family="sans-serif" font-size="14" lengthAdjust="spacing" textLength="4.4502" x="41.7749" y="153.292">&#160;</text></g><g id="registrarCasoPrueba.ValidandoCaso"><rect fill="#F1F1F1" height="50" rx="12.5" ry="12.5" style="stroke:#181818;stroke-width:0.5;" width="50" x="19" y="256.2969"/><line style="stroke:#181818;stroke-width:0.5;" x1="19" x2="69" y1="282.5938" y2="282.5938"/><text fill="#000000" font-family="sans-serif" font-size="14" lengthAdjust="spacing" textLength="4.4502" x="41.7749" y="274.292">&#160;</text></g><g id="registrarCasoPrueba.RegistrandoCaso"><rect fill="#F1F1F1" height="50" rx="12.5" ry="12.5" style="stroke:#181818;stroke-width:0.5;" width="50" x="19" y="392.2969"/><line style="stroke:#181818;stroke-width:0.5;" x1="19" x2="69" y1="418.5938" y2="418.5938"/><text fill="#000000" font-family="sans-serif" font-size="14" lengthAdjust="spacing" textLength="4.4502" x="41.7749" y="410.292">&#160;</text></g><ellipse cx="44" cy="54.2969" fill="#222222" rx="10" ry="10" style="stroke:#222222;stroke-width:1;"/><ellipse cx="44" cy="524.2969" fill="none" rx="11" ry="11" style="stroke:#222222;stroke-width:1;"/><ellipse cx="44" cy="524.2969" fill="#222222" rx="6" ry="6" style="stroke:#222222;stroke-width:1;"/><!--link *start*registrarCasoPrueba to RecibiendoCaso--><g class="link" data-entity-1=".start.registrarCasoPrueba" data-entity-2="RecibiendoCaso" data-source-line="9" data-uid="lnk3" id="link_.start.registrarCasoPrueba_RecibiendoCaso"><path d="M44,64.5269 C44,80.2369 44,106.6569 44,129.1669" fill="none" id="*start*registrarCasoPrueba-to-RecibiendoCaso" style="stroke:#008000;stroke-width:1;"/><polygon fill="#008000" points="44,135.1669,48,126.1669,44,130.1669,40,126.1669,44,135.1669" style="stroke:#008000;stroke-width:1;"/><path d="M49,87.2969 L49,112.2969 L301,112.2969 L301,97.2969 L291,87.2969 L49,87.2969" fill="#FEFFDD" style="stroke:#181818;stroke-width:0.5;"/><path d="M291,87.2969 L291,97.2969 L301,97.2969 L291,87.2969" fill="#FEFFDD" style="stroke:#181818;stroke-width:0.5;"/><text fill="#000000" font-family="sans-serif" font-size="13" lengthAdjust="spacing" textLength="231.7656" x="55" y="104.3638">Kiwi TCMS recibe el caso de prueba</text></g><!--link RecibiendoCaso to ValidandoCaso--><g class="link" data-entity-1="RecibiendoCaso" data-entity-2="ValidandoCaso" data-source-line="14" data-uid="lnk4" id="link_RecibiendoCaso_ValidandoCaso"><path d="M44,185.3769 C44,206.0269 44,229.6169 44,250.2469" fill="none" id="RecibiendoCaso-to-ValidandoCaso" style="stroke:#008000;stroke-width:1;"/><polygon fill="#008000" points="44,256.2469,48,247.2469,44,251.2469,40,247.2469,44,256.2469" style="stroke:#008000;stroke-width:1;"/><path d="M49,208.2969 L49,233.2969 L342,233.2969 L342,218.2969 L332,208.2969 L49,208.2969" fill="#FEFFDD" style="stroke:#181818;stroke-width:0.5;"/><path d="M332,208.2969 L332,218.2969 L342,218.2969 L332,208.2969" fill="#FEFFDD" style="stroke:#181818;stroke-width:0.5;"/><text fill="#000000" font-family="sans-serif" font-size="13" font-weight="bold" lengthAdjust="spacing" textLength="76.229" x="55" y="225.3638">Kiwi TCMS</text><text fill="#000000" font-family="sans-serif" font-size="13" lengthAdjust="spacing" textLength="192.5688" x="135.3613" y="225.3638">valida la informacion recibida</text></g><!--link ValidandoCaso to RegistrandoCaso--><g class="link" data-entity-1="ValidandoCaso" data-entity-2="RegistrandoCaso" data-source-line="19" data-uid="lnk5" id="link_ValidandoCaso_RegistrandoCaso"><path d="M44,306.5669 C44,330.8469 44,361.9869 44,386.2069" fill="none" id="ValidandoCaso-to-RegistrandoCaso" style="stroke:#008000;stroke-width:1;"/><polygon fill="#008000" points="44,392.2069,48,383.2069,44,387.2069,40,383.2069,44,392.2069" style="stroke:#008000;stroke-width:1;"/><path d="M49,329.2969 L49,369.2969 L271,369.2969 L271,339.2969 L261,329.2969 L49,329.2969" fill="#FEFFDD" style="stroke:#181818;stroke-width:0.5;"/><path d="M261,329.2969 L261,339.2969 L271,339.2969 L261,329.2969" fill="#FEFFDD" style="stroke:#181818;stroke-width:0.5;"/><text fill="#000000" font-family="sans-serif" font-size="13" font-weight="bold" lengthAdjust="spacing" textLength="76.229" x="55" y="346.3638">Kiwi TCMS</text><text fill="#000000" font-family="sans-serif" font-size="13" lengthAdjust="spacing" textLength="121.3735" x="135.3613" y="346.3638">prepara el registro</text><text fill="#000000" font-family="sans-serif" font-size="13" lengthAdjust="spacing" textLength="124.4014" x="55" y="361.4966">del caso de prueba</text></g><!--link RegistrandoCaso to *end*registrarCasoPrueba--><g class="link" data-entity-1="RegistrandoCaso" data-entity-2=".end.registrarCasoPrueba" data-source-line="25" data-uid="lnk7" id="link_RegistrandoCaso_.end.registrarCasoPrueba"><path d="M44,442.3869 C44,464.7869 44,491.0669 44,507.2469" fill="none" id="RegistrandoCaso-to-*end*registrarCasoPrueba" style="stroke:#008000;stroke-width:1;"/><polygon fill="#008000" points="44,513.2469,48,504.2469,44,508.2469,40,504.2469,44,513.2469" style="stroke:#008000;stroke-width:1;"/><path d="M49,465.2969 L49,490.2969 L321,490.2969 L321,475.2969 L311,465.2969 L49,465.2969" fill="#FEFFDD" style="stroke:#181818;stroke-width:0.5;"/><path d="M311,465.2969 L311,475.2969 L321,475.2969 L311,465.2969" fill="#FEFFDD" style="stroke:#181818;stroke-width:0.5;"/><text fill="#000000" font-family="sans-serif" font-size="13" font-weight="bold" lengthAdjust="spacing" textLength="76.229" x="55" y="482.3638">Kiwi TCMS</text><text fill="#000000" font-family="sans-serif" font-size="13" lengthAdjust="spacing" textLength="170.6694" x="135.3613" y="482.3638">registra el caso de prueba</text></g><g id="KIWI_TCMS_ABIERTO"><rect fill="#F1F1F1" height="50" rx="12.5" ry="12.5" style="stroke:#181818;stroke-width:0.5;" width="166.0293" x="96" y="640"/><line style="stroke:#181818;stroke-width:0.5;" x1="96" x2="262.0293" y1="666.2969" y2="666.2969"/><text fill="#000000" font-family="sans-serif" font-size="14" lengthAdjust="spacing" textLength="146.0293" x="106" y="657.9951">KIWI_TCMS_ABIERTO</text></g><!--link registrarCasoPrueba to KIWI_TCMS_ABIERTO--><g class="link" data-entity-1="registrarCasoPrueba" data-entity-2="KIWI_TCMS_ABIERTO" data-source-line="31" data-uid="lnk9" id="link_registrarCasoPrueba_KIWI_TCMS_ABIERTO"><path d="M86.35,545.06 C79.97,563.52 76,575 76,575 C76,575 76,610 76,610 C76,610 100.1856,622.6849 127.6056,637.0549" fill="none" id="registrarCasoPrueba-to-KIWI_TCMS_ABIERTO" style="stroke:#008000;stroke-width:1;"/><polygon fill="#008000" points="132.92,639.84,126.8051,632.1194,128.4913,637.5191,123.0916,639.2053,132.92,639.84" style="stroke:#008000;stroke-width:1;"/><path d="M81,580 L81,605 L232,605 L232,590 L222,580 L81,580" fill="#FEFFDD" style="stroke:#181818;stroke-width:0.5;"/><path d="M222,580 L222,590 L232,590 L222,580" fill="#FEFFDD" style="stroke:#181818;stroke-width:0.5;"/><text fill="#000000" font-family="sans-serif" font-size="13" lengthAdjust="spacing" textLength="130.2412" x="87" y="597.0669">completarRegistro()</text></g><!--link registrarCasoPrueba to KIWI_TCMS_ABIERTO--><g class="link" data-entity-1="registrarCasoPrueba" data-entity-2="KIWI_TCMS_ABIERTO" data-source-line="36" data-uid="lnk10" id="link_registrarCasoPrueba_KIWI_TCMS_ABIERTO"><path d="M234.77,545.06 C238.61,563.52 241,575 241,575 C241,575 241,610 241,610 C241,610 227.7646,621.5295 211.2646,635.8995" fill="none" id="registrarCasoPrueba-to-KIWI_TCMS_ABIERTO-1" style="stroke:#FF0000;stroke-width:1;"/><polygon fill="#FF0000" points="206.74,639.84,216.154,636.9456,210.5105,636.5562,210.8999,630.9128,206.74,639.84" style="stroke:#FF0000;stroke-width:1;"/><path d="M246,580 L246,605 L388,605 L388,590 L378,580 L246,580" fill="#FEFFDD" style="stroke:#181818;stroke-width:0.5;"/><path d="M378,580 L378,590 L388,590 L378,580" fill="#FEFFDD" style="stroke:#181818;stroke-width:0.5;"/><text fill="#000000" font-family="sans-serif" font-size="13" lengthAdjust="spacing" textLength="121.0371" x="252" y="597.0669">rechazarRegistro()</text></g><!--SRC=[ZL9VIyCm47_FfpZgooOCly0ewF2X357gq8SnnhKzPrYQbBGgK_pkNj9EZUsmpLCll_lzkKkzbxf2YoKegQavL0ILKGVt8qJTO4DWQIVhng9TO6tkx0jb25X3D52VJ2Fu40BuQtiZFenDAPUP95qOX-tVFw2I1PwyJZkb8y0ZrkSRcAtFTfP8RsRna8Osp66qYxRtXQLyax1QtDnpA4OJa8ASqL1mR9_0mvZ4zxP28N6WsVVTavndyRVg_2ABuTNtW4AG-idO4dF9UE-7wmFwWSYVoE5SnXceBBcDk-pT2jlEOjmm0id03czaf8NZq_bl_fz23Bs-twBBv37PEkBjvLLodQvkHI2Vcx9IrA3jZ9l9LFmaEa5kgHX1pIjxnlT1vYy0]--></g></svg>