<svg xmlns="http://www.w3.org/2000/svg" xmlns:xlink="http://www.w3.org/1999/xlink" contentStyleType="text/css" data-diagram-type="STATE" height="590px" preserveAspectRatio="none" style="width:377px;height:590px;background:#FFFFFF;" version="1.1" viewBox="0 0 377 590" width="377px" zoomAndPan="magnify"><defs/><g><path d="M19.5,7 L297.5,7 A12.5,12.5 0 0 1 310,19.5 L310,33.2969 L7,33.2969 L7,19.5 A12.5,12.5 0 0 1 19.5,7" fill="#F1F1F1"/><rect fill="none" height="432.2969" rx="12.5" ry="12.5" style="stroke:#181818;stroke-width:0.5;" width="303" x="7" y="7"/><line style="stroke:#181818;stroke-width:0.5;" x1="7" x2="310" y1="33.2969" y2="33.2969"/><text fill="#000000" font-family="sans-serif" font-size="14" lengthAdjust="spacing" textLength="176.1895" x="70.4053" y="24.9951">listarEscenariosGherkin()</text><g id="listarEscenariosGherkin.RecuperandoEscenarios"><rect fill="#F1F1F1" height="50" rx="12.5" ry="12.5" style="stroke:#181818;stroke-width:0.5;" width="50" x="19" y="135.2969"/><line style="stroke:#181818;stroke-width:0.5;" x1="19" x2="69" y1="161.5938" y2="161.5938"/><text fill="#000000" font-family="sans-serif" font-size="14" lengthAdjust="spacing" textLength="4.4502" x="41.7749" y="153.292">&#160;</text></g><g id="listarEscenariosGherkin.MostrandoEscenarios"><rect fill="#F1F1F1" height="50" rx="12.5" ry="12.5" style="stroke:#181818;stroke-width:0.5;" width="50" x="19" y="271.2969"/><line style="stroke:#181818;stroke-width:0.5;" x1="19" x2="69" y1="297.5938" y2="297.5938"/><text fill="#000000" font-family="sans-serif" font-size="14" lengthAdjust="spacing" textLength="4.4502" x="41.7749" y="289.292">&#160;</text></g><ellipse cx="44" cy="54.2969" fill="#222222" rx="10" ry="10" style="stroke:#222222;stroke-width:1;"/><ellipse cx="44" cy="418.2969" fill="none" rx="11" ry="11" style="stroke:#222222;stroke-width:1;"/><ellipse cx="44" cy="418.2969" fill="#222222" rx="6" ry="6" style="stroke:#222222;stroke-width:1;"/><!--link *start*listarEscenariosGherkin to RecuperandoEscenarios--><g class="link" data-entity-1=".start.listarEscenariosGherkin" data-entity-2="RecuperandoEscenarios" data-source-line="8" data-uid="lnk3" id="link_.start.listarEscenariosGherkin_RecuperandoEscenarios"><path d="M44,64.5269 C44,80.2369 44,106.6569 44,129.1669" fill="none" id="*start*listarEscenariosGherkin-to-RecuperandoEscenarios" style="stroke:#008000;stroke-width:1;"/><polygon fill="#008000" points="44,135.1669,48,126.1669,44,130.1669,40,126.1669,44,135.1669" style="stroke:#008000;stroke-width:1;"/><path d="M49,87.2969 L49,112.2969 L301,112.2969 L301,97.2969 L291,87.2969 L49,87.2969" fill="#FEFFDD" style="stroke:#181818;stroke-width:0.5;"/><path d="M291,87.2969 L291,97.2969 L301,97.2969 L291,87.2969" fill="#FEFFDD" style="stroke:#181818;stroke-width:0.5;"/><text fill="#000000" font-family="sans-serif" font-size="13" lengthAdjust="spacing" textLength="231.7974" x="55" y="104.3638">Se solicita listar escenarios Gherkin</text></g><!--link RecuperandoEscenarios to MostrandoEscenarios--><g class="link" data-entity-1="RecuperandoEscenarios" data-entity-2="MostrandoEscenarios" data-source-line="13" data-uid="lnk4" id="link_RecuperandoEscenarios_MostrandoEscenarios"><path d="M44,185.5669 C44,209.8469 44,240.9869 44,265.2069" fill="none" id="RecuperandoEscenarios-to-MostrandoEscenarios" style="stroke:#008000;stroke-width:1;"/><polygon fill="#008000" points="44,271.2069,48,262.2069,44,266.2069,40,262.2069,44,271.2069" style="stroke:#008000;stroke-width:1;"/><path d="M49,208.2969 L49,248.2969 L287,248.2969 L287,218.2969 L277,208.2969 L49,208.2969" fill="#FEFFDD" style="stroke:#181818;stroke-width:0.5;"/><path d="M277,208.2969 L277,218.2969 L287,218.2969 L277,208.2969" fill="#FEFFDD" style="stroke:#181818;stroke-width:0.5;"/><text fill="#000000" font-family="sans-serif" font-size="13" font-weight="bold" lengthAdjust="spacing" textLength="58.9063" x="55" y="225.3638">Sistema</text><text fill="#000000" font-family="sans-serif" font-size="13" lengthAdjust="spacing" textLength="154.6987" x="118.0386" y="225.3638">recupera los escenarios</text><text fill="#000000" font-family="sans-serif" font-size="13" lengthAdjust="spacing" textLength="73.3662" x="55" y="240.4966">registrados</text></g><!--link MostrandoEscenarios to *end*listarEscenariosGherkin--><g class="link" data-entity-1="MostrandoEscenarios" data-entity-2=".end.listarEscenariosGherkin" data-source-line="19" data-uid="lnk6" id="link_MostrandoEscenarios_.end.listarEscenariosGherkin"><path d="M44,321.5769 C44,347.8769 44,382.5669 44,401.2769" fill="none" id="MostrandoEscenarios-to-*end*listarEscenariosGherkin" style="stroke:#008000;stroke-width:1;"/><polygon fill="#008000" points="44,407.2769,48,398.2769,44,402.2769,40,398.2769,44,407.2769" style="stroke:#008000;stroke-width:1;"/><path d="M49,344.2969 L49,384.2969 L234,384.2969 L234,354.2969 L224,344.2969 L49,344.2969" fill="#FEFFDD" style="stroke:#181818;stroke-width:0.5;"/><path d="M224,344.2969 L224,354.2969 L234,354.2969 L224,344.2969" fill="#FEFFDD" style="stroke:#181818;stroke-width:0.5;"/><text fill="#000000" font-family="sans-serif" font-size="13" font-weight="bold" lengthAdjust="spacing" textLength="58.9063" x="55" y="361.3638">Sistema</text><text fill="#000000" font-family="sans-serif" font-size="13" lengthAdjust="spacing" textLength="100.9849" x="118.0386" y="361.3638">muestra la lista</text><text fill="#000000" font-family="sans-serif" font-size="13" lengthAdjust="spacing" textLength="145.355" x="55" y="376.4966">de escenarios Gherkin</text></g><g id="ESCENARIOS_GHERKIN_ABIERTO"><rect fill="#F1F1F1" height="50" rx="12.5" ry="12.5" style="stroke:#181818;stroke-width:0.5;" width="249.3525" x="34" y="534"/><line style="stroke:#181818;stroke-width:0.5;" x1="34" x2="283.3525" y1="560.2969" y2="560.2969"/><text fill="#000000" font-family="sans-serif" font-size="14" lengthAdjust="spacing" textLength="229.3525" x="44" y="551.9951">ESCENARIOS_GHERKIN_ABIERTO</text></g><!--link listarEscenariosGherkin to ESCENARIOS_GHERKIN_ABIERTO--><g class="link" data-entity-1="listarEscenariosGherkin" data-entity-2="ESCENARIOS_GHERKIN_ABIERTO" data-source-line="26" data-uid="lnk8" id="link_listarEscenariosGherkin_ESCENARIOS_GHERKIN_ABIERTO"><path d="M66.17,439.45 C58.44,457.48 53.5,469 53.5,469 C53.5,469 53.5,504 53.5,504 C53.5,504 78.2335,516.7273 106.1935,531.0973" fill="none" id="listarEscenariosGherkin-to-ESCENARIOS_GHERKIN_ABIERTO" style="stroke:#008000;stroke-width:1;"/><polygon fill="#008000" points="111.53,533.84,105.3538,526.1684,107.083,531.5544,101.6969,533.2836,111.53,533.84" style="stroke:#008000;stroke-width:1;"/><path d="M58.5,474 L58.5,499 L212.5,499 L212.5,484 L202.5,474 L58.5,474" fill="#FEFFDD" style="stroke:#181818;stroke-width:0.5;"/><path d="M202.5,474 L202.5,484 L212.5,484 L202.5,474" fill="#FEFFDD" style="stroke:#181818;stroke-width:0.5;"/><text fill="#000000" font-family="sans-serif" font-size="13" lengthAdjust="spacing" textLength="133.1357" x="64.5" y="491.0669">completarConsulta()</text></g><!--link listarEscenariosGherkin to ESCENARIOS_GHERKIN_ABIERTO--><g class="link" data-entity-1="listarEscenariosGherkin" data-entity-2="ESCENARIOS_GHERKIN_ABIERTO" data-source-line="31" data-uid="lnk9" id="link_listarEscenariosGherkin_ESCENARIOS_GHERKIN_ABIERTO"><path d="M213.9,439.45 C218.54,457.48 221.5,469 221.5,469 C221.5,469 221.5,504 221.5,504 C221.5,504 208.0173,515.5673 191.2373,529.9373" fill="none" id="listarEscenariosGherkin-to-ESCENARIOS_GHERKIN_ABIERTO-1" style="stroke:#FF0000;stroke-width:1;"/><polygon fill="#FF0000" points="186.68,533.84,196.1177,531.0241,190.4777,530.5877,190.9141,524.9477,186.68,533.84" style="stroke:#FF0000;stroke-width:1;"/><path d="M226.5,474 L226.5,499 L370.5,499 L370.5,484 L360.5,474 L226.5,474" fill="#FEFFDD" style="stroke:#181818;stroke-width:0.5;"/><path d="M360.5,474 L360.5,484 L370.5,484 L360.5,474" fill="#FEFFDD" style="stroke:#181818;stroke-width:0.5;"/><text fill="#000000" font-family="sans-serif" font-size="13" lengthAdjust="spacing" textLength="123.9316" x="232.5" y="491.0669">rechazarConsulta()</text></g><!--SRC=[bL9VQy8m47_FfpZgYmx4Bo059yMLCOLsRo8IcqE3QLAIzC6DVVTTQvZhLdLB7i8bltztn1sbhhZb9IYfqPygXCgeKrCmvZptI0zqsiGLgBcLnYqEQ8a5t45qvMquYk2TCQ1rreXe4px3egxGSYtCXVCRzcAS_mbgKUk73OpNWxr5r9jnV4DF6v8pkkdgs5xa2CueMKZFGqU0NnG8kLiaQj7IpvQz5fqGVMbx8qntSKxEMFBfP1U33SgWI12xN8jxsQYAK7SpzJXs4j6O_fIWhB4H0XL6qc84tXtC1sFNFiNt64a-JvQpB5tbsyLJaZsdo-tiCKsornNh92jCMIaakRdHhbQU3qViql0D9ulYFpuqy0D_wxNv1000]--></g></svg>