<svg xmlns="http://www.w3.org/2000/svg" xmlns:xlink="http://www.w3.org/1999/xlink" contentStyleType="text/css" data-diagram-type="STATE" height="726px" preserveAspectRatio="none" style="width:451px;height:726px;background:#FFFFFF;" version="1.1" viewBox="0 0 451 726" width="451px" zoomAndPan="magnify"><defs/><g><path d="M80,7 L335,7 A12.5,12.5 0 0 1 347.5,19.5 L347.5,33.2969 L67.5,33.2969 L67.5,19.5 A12.5,12.5 0 0 1 80,7" fill="#F1F1F1"/><rect fill="none" height="568.2969" rx="12.5" ry="12.5" style="stroke:#181818;stroke-width:0.5;" width="280" x="67.5" y="7"/><line style="stroke:#181818;stroke-width:0.5;" x1="67.5" x2="347.5" y1="33.2969" y2="33.2969"/><text fill="#000000" font-family="sans-serif" font-size="14" lengthAdjust="spacing" textLength="133.5947" x="140.7026" y="24.9951">rechazarBorrador()</text><g id="rechazarBorrador.SeleccionandoBorrador"><rect fill="#F1F1F1" height="50" rx="12.5" ry="12.5" style="stroke:#181818;stroke-width:0.5;" width="50" x="79.5" y="135.2969"/><line style="stroke:#181818;stroke-width:0.5;" x1="79.5" x2="129.5" y1="161.5938" y2="161.5938"/><text fill="#000000" font-family="sans-serif" font-size="14" lengthAdjust="spacing" textLength="4.4502" x="102.2749" y="153.292">&#160;</text></g><g id="rechazarBorrador.ConfirmandoRechazo"><rect fill="#F1F1F1" height="50" rx="12.5" ry="12.5" style="stroke:#181818;stroke-width:0.5;" width="50" x="79.5" y="271.2969"/><line style="stroke:#181818;stroke-width:0.5;" x1="79.5" x2="129.5" y1="297.5938" y2="297.5938"/><text fill="#000000" font-family="sans-serif" font-size="14" lengthAdjust="spacing" textLength="4.4502" x="102.2749" y="289.292">&#160;</text></g><g id="rechazarBorrador.EliminandoBorrador"><rect fill="#F1F1F1" height="50" rx="12.5" ry="12.5" style="stroke:#181818;stroke-width:0.5;" width="50" x="79.5" y="407.2969"/><line style="stroke:#181818;stroke-width:0.5;" x1="79.5" x2="129.5" y1="433.5938" y2="433.5938"/><text fill="#000000" font-family="sans-serif" font-size="14" lengthAdjust="spacing" textLength="4.4502" x="102.2749" y="425.292">&#160;</text></g><ellipse cx="104.5" cy="54.2969" fill="#222222" rx="10" ry="10" style="stroke:#222222;stroke-width:1;"/><ellipse cx="104.5" cy="554.2969" fill="none" rx="11" ry="11" style="stroke:#222222;stroke-width:1;"/><ellipse cx="104.5" cy="554.2969" fill="#222222" rx="6" ry="6" style="stroke:#222222;stroke-width:1;"/><!--link *start*rechazarBorrador to SeleccionandoBorrador--><g class="link" data-entity-1=".start.rechazarBorrador" data-entity-2="SeleccionandoBorrador" data-source-line="9" data-uid="lnk3" id="link_.start.rechazarBorrador_SeleccionandoBorrador"><path d="M104.5,64.5269 C104.5,80.2369 104.5,106.6569 104.5,129.1669" fill="none" id="*start*rechazarBorrador-to-SeleccionandoBorrador" style="stroke:#008000;stroke-width:1;"/><polygon fill="#008000" points="104.5,135.1669,108.5,126.1669,104.5,130.1669,100.5,126.1669,104.5,135.1669" style="stroke:#008000;stroke-width:1;"/><path d="M109.5,87.2969 L109.5,112.2969 L338.5,112.2969 L338.5,97.2969 L328.5,87.2969 L109.5,87.2969" fill="#FEFFDD" style="stroke:#181818;stroke-width:0.5;"/><path d="M328.5,87.2969 L328.5,97.2969 L338.5,97.2969 L328.5,87.2969" fill="#FEFFDD" style="stroke:#181818;stroke-width:0.5;"/><text fill="#000000" font-family="sans-serif" font-size="13" lengthAdjust="spacing" textLength="208.2729" x="115.5" y="104.3638">Se solicita rechazar un borrador</text></g><!--link SeleccionandoBorrador to ConfirmandoRechazo--><g class="link" data-entity-1="SeleccionandoBorrador" data-entity-2="ConfirmandoRechazo" data-source-line="14" data-uid="lnk4" id="link_SeleccionandoBorrador_ConfirmandoRechazo"><path d="M104.5,185.5669 C104.5,209.8469 104.5,240.9869 104.5,265.2069" fill="none" id="SeleccionandoBorrador-to-ConfirmandoRechazo" style="stroke:#008000;stroke-width:1;"/><polygon fill="#008000" points="104.5,271.2069,108.5,262.2069,104.5,266.2069,100.5,262.2069,104.5,271.2069" style="stroke:#008000;stroke-width:1;"/><path d="M109.5,208.2969 L109.5,248.2969 L327.5,248.2969 L327.5,218.2969 L317.5,208.2969 L109.5,208.2969" fill="#FEFFDD" style="stroke:#181818;stroke-width:0.5;"/><path d="M317.5,208.2969 L317.5,218.2969 L327.5,218.2969 L317.5,208.2969" fill="#FEFFDD" style="stroke:#181818;stroke-width:0.5;"/><text fill="#000000" font-family="sans-serif" font-size="13" font-weight="bold" lengthAdjust="spacing" textLength="58.9063" x="115.5" y="225.3638">Sistema</text><text fill="#000000" font-family="sans-serif" font-size="13" lengthAdjust="spacing" textLength="134.3608" x="178.5386" y="225.3638">solicita confirmacion</text><text fill="#000000" font-family="sans-serif" font-size="13" lengthAdjust="spacing" textLength="75.4673" x="115.5" y="240.4966">del rechazo</text></g><!--link ConfirmandoRechazo to EliminandoBorrador--><g class="link" data-entity-1="ConfirmandoRechazo" data-entity-2="EliminandoBorrador" data-source-line="20" data-uid="lnk5" id="link_ConfirmandoRechazo_EliminandoBorrador"><path d="M104.5,321.5669 C104.5,345.8469 104.5,376.9869 104.5,401.2069" fill="none" id="ConfirmandoRechazo-to-EliminandoBorrador" style="stroke:#008000;stroke-width:1;"/><polygon fill="#008000" points="104.5,407.2069,108.5,398.2069,104.5,402.2069,100.5,398.2069,104.5,407.2069" style="stroke:#008000;stroke-width:1;"/><path d="M109.5,344.2969 L109.5,384.2969 L315.5,384.2969 L315.5,354.2969 L305.5,344.2969 L109.5,344.2969" fill="#FEFFDD" style="stroke:#181818;stroke-width:0.5;"/><path d="M305.5,344.2969 L305.5,354.2969 L315.5,354.2969 L305.5,344.2969" fill="#FEFFDD" style="stroke:#181818;stroke-width:0.5;"/><text fill="#000000" font-family="sans-serif" font-size="13" font-weight="bold" lengthAdjust="spacing" textLength="58.9063" x="115.5" y="361.3638">Sistema</text><text fill="#000000" font-family="sans-serif" font-size="13" lengthAdjust="spacing" textLength="122.3447" x="178.5386" y="361.3638">actualiza el estado</text><text fill="#000000" font-family="sans-serif" font-size="13" lengthAdjust="spacing" textLength="80.4058" x="115.5" y="376.4966">del borrador</text></g><!--link EliminandoBorrador to *end*rechazarBorrador--><g class="link" data-entity-1="EliminandoBorrador" data-entity-2=".end.rechazarBorrador" data-source-line="26" data-uid="lnk7" id="link_EliminandoBorrador_.end.rechazarBorrador"><path d="M104.5,457.5769 C104.5,483.8769 104.5,518.5669 104.5,537.2769" fill="none" id="EliminandoBorrador-to-*end*rechazarBorrador" style="stroke:#008000;stroke-width:1;"/><polygon fill="#008000" points="104.5,543.2769,108.5,534.2769,104.5,538.2769,100.5,534.2769,104.5,543.2769" style="stroke:#008000;stroke-width:1;"/><path d="M109.5,480.2969 L109.5,520.2969 L317.5,520.2969 L317.5,490.2969 L307.5,480.2969 L109.5,480.2969" fill="#FEFFDD" style="stroke:#181818;stroke-width:0.5;"/><path d="M307.5,480.2969 L307.5,490.2969 L317.5,490.2969 L307.5,480.2969" fill="#FEFFDD" style="stroke:#181818;stroke-width:0.5;"/><text fill="#000000" font-family="sans-serif" font-size="13" font-weight="bold" lengthAdjust="spacing" textLength="58.9063" x="115.5" y="497.3638">Sistema</text><text fill="#000000" font-family="sans-serif" font-size="13" lengthAdjust="spacing" textLength="123.9888" x="178.5386" y="497.3638">elimina el borrador</text><text fill="#000000" font-family="sans-serif" font-size="13" lengthAdjust="spacing" textLength="151.8931" x="115.5" y="512.4966">del flujo si corresponde</text></g><g id="BORRADORES_ABIERTO"><rect fill="#F1F1F1" height="50" rx="12.5" ry="12.5" style="stroke:#181818;stroke-width:0.5;" width="187.3711" x="7" y="670"/><line style="stroke:#181818;stroke-width:0.5;" x1="7" x2="194.3711" y1="696.2969" y2="696.2969"/><text fill="#000000" font-family="sans-serif" font-size="14" lengthAdjust="spacing" textLength="167.3711" x="17" y="687.9951">BORRADORES_ABIERTO</text></g><g id="BORRADOR_ABIERTO"><rect fill="#F1F1F1" height="50" rx="12.5" ry="12.5" style="stroke:#181818;stroke-width:0.5;" width="169.6387" x="229.5" y="670"/><line style="stroke:#181818;stroke-width:0.5;" x1="229.5" x2="399.1387" y1="696.2969" y2="696.2969"/><text fill="#000000" font-family="sans-serif" font-size="14" lengthAdjust="spacing" textLength="149.6387" x="239.5" y="687.9951">BORRADOR_ABIERTO</text></g><!--link rechazarBorrador to BORRADORES_ABIERTO--><g class="link" data-entity-1="rechazarBorrador" data-entity-2="BORRADORES_ABIERTO" data-source-line="33" data-uid="lnk9" id="link_rechazarBorrador_BORRADORES_ABIERTO"><path d="M118.81,575.27 C113.05,593.65 109.5,605 109.5,605 C109.5,605 106.2226,637.3603 103.5626,663.7103" fill="none" id="rechazarBorrador-to-BORRADORES_ABIERTO" style="stroke:#008000;stroke-width:1;"/><polygon fill="#008000" points="102.96,669.68,107.8437,661.1273,103.4622,664.7053,99.8842,660.3238,102.96,669.68" style="stroke:#008000;stroke-width:1;"/><path d="M114.5,610 L114.5,635 L266.5,635 L266.5,620 L256.5,610 L114.5,610" fill="#FEFFDD" style="stroke:#181818;stroke-width:0.5;"/><path d="M256.5,610 L256.5,620 L266.5,620 L256.5,610" fill="#FEFFDD" style="stroke:#181818;stroke-width:0.5;"/><text fill="#000000" font-family="sans-serif" font-size="13" lengthAdjust="spacing" textLength="131.3394" x="120.5" y="627.0669">completarRechazo()</text></g><!--link rechazarBorrador to BORRADOR_ABIERTO--><g class="link" data-entity-1="rechazarBorrador" data-entity-2="BORRADOR_ABIERTO" data-source-line="38" data-uid="lnk11" id="link_rechazarBorrador_BORRADOR_ABIERTO"><path d="M282.83,575.02 C293.25,614.15 300.7882,642.4715 306.5182,664.0215" fill="none" id="rechazarBorrador-to-BORRADOR_ABIERTO" style="stroke:#FF0000;stroke-width:1;"/><polygon fill="#FF0000" points="308.06,669.82,309.613,660.0944,306.7752,664.9879,301.8816,662.1501,308.06,669.82" style="stroke:#FF0000;stroke-width:1;"/><path d="M303.5,610 L303.5,635 L444.5,635 L444.5,620 L434.5,610 L303.5,610" fill="#FEFFDD" style="stroke:#181818;stroke-width:0.5;"/><path d="M434.5,610 L434.5,620 L444.5,620 L434.5,610" fill="#FEFFDD" style="stroke:#181818;stroke-width:0.5;"/><text fill="#000000" font-family="sans-serif" font-size="13" lengthAdjust="spacing" textLength="120.7261" x="309.5" y="627.0669">cancelarRechazo()</text></g><!--SRC=[ZPB1Ri8m44Jl_eeLlK0br1z0ID1ow2bIqXj2rM8lnSNnHhPpWAh_NYUaG4X09ATOC_Dcr_4xRGjqc8FHbiA-82ZOxAiF8Np0GE18Rl60RixEeM87w65mVJWS3U1728ZFqJM8RnHcP4XApHQjudznL_RATgDTNedIEfcxceNHkMxdrABbymh6owSlHsHNu-aTfEMOnhOQTLSVP0IUZPOwu6bCA2siBrraLUqKZQKdlSM_CKi7FbbFC-q3vJXvMK_FHMJZho2rK95fsd5FeIwkrQPdQu-qGHbADFg04E4Kxq7ngSkTxNHfhJBngXwYqp46hc4LVMFARmQluvwS8r-mLTHkyYj4vv-zR35FqdJsbgIBx7CsVr-a7ube5PAS5uO2kcQVmv4uJzcNx4XTvjv8HIl9z8N-0G00]--></g></svg>