<svg xmlns="http://www.w3.org/2000/svg" xmlns:xlink="http://www.w3.org/1999/xlink" contentStyleType="text/css" data-diagram-type="STATE" height="342px" preserveAspectRatio="none" style="width:162px;height:342px;background:#FFFFFF;" version="1.1" viewBox="0 0 162 342" width="162px" zoomAndPan="magnify"><?plantuml 1.2026.3beta6?><defs/><g><g class="start_entity" data-qualified-name=".start." data-source-line="1" id="ent0002"><ellipse cx="77.29" cy="16" fill="#222222" rx="10" ry="10" style="stroke:#222222;stroke-width:1;"/></g><g class="entity" data-qualified-name="GraficaPendiente" id="ent0003"><rect fill="#F1F1F1" height="50" rx="12.5" ry="12.5" style="stroke:#181818;stroke-width:0.5;" width="140.5723" x="7" y="86"/><line style="stroke:#181818;stroke-width:0.5;" x1="7" x2="147.5723" y1="112.2969" y2="112.2969"/><text fill="#000000" font-family="sans-serif" font-size="14" lengthAdjust="spacing" textLength="120.5723" x="17" y="103.9951">GraficaPendiente</text></g><g class="entity" data-qualified-name="GraficaGenerada" id="ent0005"><rect fill="#F1F1F1" height="50" rx="12.5" ry="12.5" style="stroke:#181818;stroke-width:0.5;" width="139.0273" x="7.77" y="196"/><line style="stroke:#181818;stroke-width:0.5;" x1="7.77" x2="146.7973" y1="222.2969" y2="222.2969"/><text fill="#000000" font-family="sans-serif" font-size="14" lengthAdjust="spacing" textLength="119.0273" x="17.77" y="213.9951">GraficaGenerada</text></g><g class="end_entity" data-qualified-name=".end." data-source-line="5" id="ent0007"><ellipse cx="77.29" cy="317" fill="none" rx="11" ry="11" style="stroke:#222222;stroke-width:1;"/><ellipse cx="77.29" cy="317" fill="#222222" rx="6" ry="6" style="stroke:#222222;stroke-width:1;"/></g><!--link *start* to GraficaPendiente--><g class="link" data-entity-1="ent0002" data-entity-2="ent0003" data-link-type="dependency" data-source-line="1" id="lnk4"><path d="M77.29,26.26 C77.29,39.95 77.29,60.07 77.29,79.52" fill="none" id="*start*-to-GraficaPendiente" style="stroke:#181818;stroke-width:1;"/><polygon fill="#181818" points="77.29,85.52,81.29,76.52,77.29,80.52,73.29,76.52,77.29,85.52" style="stroke:#181818;stroke-width:1;"/></g><!--link GraficaPendiente to GraficaGenerada--><g class="link" data-entity-1="ent0003" data-entity-2="ent0005" data-link-type="dependency" data-source-line="3" id="lnk6"><path d="M77.29,136.24 C77.29,154.02 77.29,172.08 77.29,189.84" fill="none" id="GraficaPendiente-to-GraficaGenerada" style="stroke:#181818;stroke-width:1;"/><polygon fill="#181818" points="77.29,195.84,81.29,186.84,77.29,190.84,73.29,186.84,77.29,195.84" style="stroke:#181818;stroke-width:1;"/></g><!--link GraficaGenerada to *end*--><g class="link" data-entity-1="ent0005" data-entity-2="ent0007" data-link-type="dependency" data-source-line="5" id="lnk8"><path d="M77.29,246.21 C77.29,265.57 77.29,285.75 77.29,299.9" fill="none" id="GraficaGenerada-to-*end*" style="stroke:#181818;stroke-width:1;"/><polygon fill="#181818" points="77.29,305.9,81.29,296.9,77.29,300.9,73.29,296.9,77.29,305.9" style="stroke:#181818;stroke-width:1;"/></g><?plantuml-src YzQALT3LjLDmBqfCoqnE34ZDIybCpIj9vU925q5IvPwQbrgKc988LmGJ0Ac9ree50000?></g></svg>