<svg xmlns="http://www.w3.org/2000/svg" xmlns:xlink="http://www.w3.org/1999/xlink" contentStyleType="text/css" data-diagram-type="STATE" height="997px" preserveAspectRatio="none" style="width:364px;height:997px;background:#FFFFFF;" version="1.1" viewBox="0 0 364 997" width="364px" zoomAndPan="magnify"><?plantuml 1.2026.3beta6?><defs/><g><g class="start_entity" data-qualified-name=".start." data-source-line="1" id="ent0002"><ellipse cx="86.84" cy="16" fill="#222222" rx="10" ry="10" style="stroke:#222222;stroke-width:1;"/></g><g class="entity" data-qualified-name="PeticionRecibida" id="ent0003"><rect fill="#F1F1F1" height="50" rx="12.5" ry="12.5" style="stroke:#181818;stroke-width:0.5;" width="135.6299" x="19.03" y="87"/><line style="stroke:#181818;stroke-width:0.5;" x1="19.03" x2="154.6599" y1="113.2969" y2="113.2969"/><text fill="#000000" font-family="sans-serif" font-size="14" lengthAdjust="spacing" textLength="115.6299" x="29.03" y="104.9951">PeticionRecibida</text></g><g class="entity" data-qualified-name="ComprobandoDatos" id="ent0005"><rect fill="#F1F1F1" height="50" rx="12.5" ry="12.5" style="stroke:#181818;stroke-width:0.5;" width="159.6855" x="7" y="198"/><line style="stroke:#181818;stroke-width:0.5;" x1="7" x2="166.6855" y1="224.2969" y2="224.2969"/><text fill="#000000" font-family="sans-serif" font-size="14" lengthAdjust="spacing" textLength="139.6855" x="17" y="215.9951">ComprobandoDatos</text></g><g class="entity" data-qualified-name="DatosDisponibles" id="ent0007"><rect fill="#F1F1F1" height="50" rx="12.5" ry="12.5" style="stroke:#181818;stroke-width:0.5;" width="141.5703" x="51.06" y="452"/><line style="stroke:#181818;stroke-width:0.5;" x1="51.06" x2="192.6303" y1="478.2969" y2="478.2969"/><text fill="#000000" font-family="sans-serif" font-size="14" lengthAdjust="spacing" textLength="121.5703" x="61.06" y="469.9951">DatosDisponibles</text></g><g class="entity" data-qualified-name="EsperandoDatos" id="ent0009"><rect fill="#F1F1F1" height="50" rx="12.5" ry="12.5" style="stroke:#181818;stroke-width:0.5;" width="135.0078" x="196.34" y="325"/><line style="stroke:#181818;stroke-width:0.5;" x1="196.34" x2="331.3478" y1="351.2969" y2="351.2969"/><text fill="#000000" font-family="sans-serif" font-size="14" lengthAdjust="spacing" textLength="115.0078" x="206.34" y="342.9951">EsperandoDatos</text></g><g class="entity" data-qualified-name="Error" id="ent0012"><rect fill="#F1F1F1" height="50" rx="12.5" ry="12.5" style="stroke:#181818;stroke-width:0.5;" width="54.6787" x="236.5" y="532"/><line style="stroke:#181818;stroke-width:0.5;" x1="236.5" x2="291.1787" y1="558.2969" y2="558.2969"/><text fill="#000000" font-family="sans-serif" font-size="14" lengthAdjust="spacing" textLength="34.6787" x="246.5" y="549.9951">Error</text></g><g class="entity" data-qualified-name="Calculando" id="ent0014"><rect fill="#F1F1F1" height="50" rx="12.5" ry="12.5" style="stroke:#181818;stroke-width:0.5;" width="97.6084" x="75.04" y="612"/><line style="stroke:#181818;stroke-width:0.5;" x1="75.04" x2="172.6484" y1="638.2969" y2="638.2969"/><text fill="#000000" font-family="sans-serif" font-size="14" lengthAdjust="spacing" textLength="77.6084" x="85.04" y="629.9951">Calculando</text></g><g class="entity" data-qualified-name="CalculoCompletado" id="ent0016"><rect fill="#F1F1F1" height="50" rx="12.5" ry="12.5" style="stroke:#181818;stroke-width:0.5;" width="156.1582" x="46.76" y="723"/><line style="stroke:#181818;stroke-width:0.5;" x1="46.76" x2="202.9182" y1="749.2969" y2="749.2969"/><text fill="#000000" font-family="sans-serif" font-size="14" lengthAdjust="spacing" textLength="136.1582" x="56.76" y="740.9951">CalculoCompletado</text></g><g class="entity" data-qualified-name="ResultadosGraficados" id="ent0018"><rect fill="#F1F1F1" height="50" rx="12.5" ry="12.5" style="stroke:#181818;stroke-width:0.5;" width="172.2363" x="38.72" y="850"/><line style="stroke:#181818;stroke-width:0.5;" x1="38.72" x2="210.9563" y1="876.2969" y2="876.2969"/><text fill="#000000" font-family="sans-serif" font-size="14" lengthAdjust="spacing" textLength="152.2363" x="48.72" y="867.9951">ResultadosGraficados</text></g><g class="end_entity" data-qualified-name=".end." data-source-line="18" id="ent0020"><ellipse cx="193.84" cy="972" fill="none" rx="11" ry="11" style="stroke:#222222;stroke-width:1;"/><ellipse cx="193.84" cy="972" fill="#222222" rx="6" ry="6" style="stroke:#222222;stroke-width:1;"/></g><!--link *start* to PeticionRecibida--><g class="link" data-entity-1="ent0002" data-entity-2="ent0003" data-link-type="dependency" data-source-line="1" id="lnk4"><path d="M86.84,26.36 C86.84,40.29 86.84,60.95 86.84,80.65" fill="none" id="*start*-to-PeticionRecibida" style="stroke:#181818;stroke-width:1;"/><polygon fill="#181818" points="86.84,86.65,90.84,77.65,86.84,81.65,82.84,77.65,86.84,86.65" style="stroke:#181818;stroke-width:1;"/></g><!--link PeticionRecibida to ComprobandoDatos--><g class="link" data-entity-1="ent0003" data-entity-2="ent0005" data-link-type="dependency" data-source-line="3" id="lnk6"><path d="M86.84,137.46 C86.84,155.41 86.84,173.69 86.84,191.62" fill="none" id="PeticionRecibida-to-ComprobandoDatos" style="stroke:#181818;stroke-width:1;"/><polygon fill="#181818" points="86.84,197.62,90.84,188.62,86.84,192.62,82.84,188.62,86.84,197.62" style="stroke:#181818;stroke-width:1;"/></g><!--link ComprobandoDatos to DatosDisponibles--><g class="link" data-entity-1="ent0005" data-entity-2="ent0007" data-link-type="dependency" data-source-line="5" id="lnk8"><path d="M80.86,248.36 C74.42,278.46 66.31,331.08 75.84,375 C81.85,402.68 93.2096,426.6287 104.2696,446.4787" fill="none" id="ComprobandoDatos-to-DatosDisponibles" style="stroke:#181818;stroke-width:1;"/><polygon fill="#181818" points="107.19,451.72,106.3037,441.9111,104.7564,447.3522,99.3152,445.8049,107.19,451.72" style="stroke:#181818;stroke-width:1;"/><text fill="#000000" font-family="sans-serif" font-size="13" lengthAdjust="spacing" textLength="101.5879" x="76.84" y="354.5669">Datos cargados</text></g><!--link ComprobandoDatos to EsperandoDatos--><g class="link" data-entity-1="ent0005" data-entity-2="ent0009" data-link-type="dependency" data-source-line="6" id="lnk10"><path d="M121.39,248.4 C152.58,270.42 193.3185,299.1994 224.4785,321.1994" fill="none" id="ComprobandoDatos-to-EsperandoDatos" style="stroke:#181818;stroke-width:1;"/><polygon fill="#181818" points="229.38,324.66,224.3349,316.2015,225.2955,321.7762,219.7208,322.7367,229.38,324.66" style="stroke:#181818;stroke-width:1;"/><text fill="#000000" font-family="sans-serif" font-size="13" lengthAdjust="spacing" textLength="92.771" x="186.84" y="291.0669">Solicitar datos</text></g><!--link EsperandoDatos to DatosDisponibles--><g class="link" data-entity-1="ent0009" data-entity-2="ent0007" data-link-type="dependency" data-source-line="8" id="lnk11"><path d="M195.92,368.24 C162.94,378.12 128.38,391.27 118.84,405 C109.55,418.37 109.3565,430.9689 112.5865,445.7189" fill="none" id="EsperandoDatos-to-DatosDisponibles" style="stroke:#181818;stroke-width:1;"/><polygon fill="#181818" points="113.87,451.58,115.8522,441.9327,112.8004,446.6957,108.0374,443.644,113.87,451.58" style="stroke:#181818;stroke-width:1;"/><text fill="#000000" font-family="sans-serif" font-size="13" lengthAdjust="spacing" textLength="100.877" x="119.84" y="418.0669">Datos recibidos</text></g><!--link EsperandoDatos to Error--><g class="link" data-entity-1="ent0009" data-entity-2="ent0012" data-link-type="dependency" data-source-line="9" id="lnk13"><path d="M263.84,375.32 C263.84,414.78 263.84,486.28 263.84,525.71" fill="none" id="EsperandoDatos-to-Error" style="stroke:#181818;stroke-width:1;"/><polygon fill="#181818" points="263.84,531.71,267.84,522.71,263.84,526.71,259.84,522.71,263.84,531.71" style="stroke:#181818;stroke-width:1;"/><text fill="#000000" font-family="sans-serif" font-size="13" lengthAdjust="spacing" textLength="84.1191" x="264.84" y="418.0669">timeout(45s)</text></g><!--link DatosDisponibles to Calculando--><g class="link" data-entity-1="ent0007" data-entity-2="ent0014" data-link-type="dependency" data-source-line="11" id="lnk15"><path d="M122.15,502.34 C122.53,532.03 123.0853,575.9305 123.4553,605.6305" fill="none" id="DatosDisponibles-to-Calculando" style="stroke:#181818;stroke-width:1;"/><polygon fill="#181818" points="123.53,611.63,127.4176,602.5809,123.4677,606.6304,119.4182,602.6805,123.53,611.63" style="stroke:#181818;stroke-width:1;"/><text fill="#000000" font-family="sans-serif" font-size="13" lengthAdjust="spacing" textLength="89.5654" x="124.84" y="561.5669">Iniciar calculo</text></g><!--link Calculando to CalculoCompletado--><g class="link" data-entity-1="ent0014" data-entity-2="ent0016" data-link-type="dependency" data-source-line="13" id="lnk17"><path d="M124.07,662.46 C124.23,680.41 124.3931,698.6903 124.5631,716.6203" fill="none" id="Calculando-to-CalculoCompletado" style="stroke:#181818;stroke-width:1;"/><polygon fill="#181818" points="124.62,722.62,128.5345,713.5825,124.5726,717.6202,120.5349,713.6583,124.62,722.62" style="stroke:#181818;stroke-width:1;"/></g><!--link CalculoCompletado to ResultadosGraficados--><g class="link" data-entity-1="ent0016" data-entity-2="ent0018" data-link-type="dependency" data-source-line="15" id="lnk19"><path d="M124.84,773.4 C124.84,795.42 124.84,821.66 124.84,843.66" fill="none" id="CalculoCompletado-to-ResultadosGraficados" style="stroke:#181818;stroke-width:1;"/><polygon fill="#181818" points="124.84,849.66,128.84,840.66,124.84,844.66,120.84,840.66,124.84,849.66" style="stroke:#181818;stroke-width:1;"/><text fill="#000000" font-family="sans-serif" font-size="13" lengthAdjust="spacing" textLength="108.6147" x="125.84" y="816.0669">Graficar c&#225;lculos</text></g><!--link ResultadosGraficados to *end*--><g class="link" data-entity-1="ent0018" data-entity-2="ent0020" data-link-type="dependency" data-source-line="18" id="lnk21"><path d="M142.61,900.46 C157.47,920.92 174.2543,944.0251 184.2543,957.7951" fill="none" id="ResultadosGraficados-to-*end*" style="stroke:#181818;stroke-width:1;"/><polygon fill="#181818" points="187.78,962.65,185.7281,953.0173,184.8419,958.6043,179.2549,957.7182,187.78,962.65" style="stroke:#181818;stroke-width:1;"/></g><!--link Error to *end*--><g class="link" data-entity-1="ent0012" data-entity-2="ent0020" data-link-type="dependency" data-source-line="19" id="lnk22"><path d="M263.84,582.21 C263.84,609.04 263.84,653.61 263.84,692 C263.84,692 263.84,692 263.84,876 C263.84,916.77 226.4199,948.0691 207.5899,961.5391" fill="none" id="Error-to-*end*" style="stroke:#181818;stroke-width:1;"/><polygon fill="#181818" points="202.71,965.03,212.3572,963.047,206.7766,962.1209,207.7027,956.5404,202.71,965.03" style="stroke:#181818;stroke-width:1;"/></g><?plantuml-src VO-n3e8m48RtFaL79M7JXS55Y74pE1A6qbRJf7BaMXx8P_75lBOO31Atwz_ll_l_9cjvdX_uHNiZ3VIrbgOpIZ2sL29sXCU0q8bUGIayECQMIiJYL1etG6ywgnqlaiIbmBjGv5krLMxGE4i5luAb35uWL-dQWlXx2rDmigsuAaH0GhrvQ1ZzPhTtMyP-TiNEmihH1Zlnvvu2KHuPHQ3-y-yCGwXdjQUg7-9BYc2jtMZ3ovrGt8mCKy6dcVQ_dj55dTaQ6bOqMSjIZ-dr1W00?></g></svg>