<svg xmlns="http://www.w3.org/2000/svg" xmlns:xlink="http://www.w3.org/1999/xlink" contentStyleType="text/css" data-diagram-type="DESCRIPTION" height="385px" preserveAspectRatio="none" style="width:569px;height:385px;background:#FFFFFF;" version="1.1" viewBox="0 0 569 385" width="569px" zoomAndPan="magnify"><?plantuml 1.2026.3beta6?><defs/><g><!--cluster VT--><g class="cluster" data-qualified-name="VT" data-source-line="5" id="ent0003"><path d="M218.97,6 L240.3548,6 A3.75,3.75 0 0 1 242.8548,8.5 L249.8548,28.2969 L551.81,28.2969 A2.5,2.5 0 0 1 554.31,30.7969 L554.31,367.5 A2.5,2.5 0 0 1 551.81,370 L218.97,370 A2.5,2.5 0 0 1 216.47,367.5 L216.47,8.5 A2.5,2.5 0 0 1 218.97,6" fill="none" style="stroke:#000000;stroke-width:1.5;"/><line style="stroke:#000000;stroke-width:1.5;" x1="216.47" x2="249.8548" y1="28.2969" y2="28.2969"/><text fill="#000000" font-family="sans-serif" font-size="14" font-weight="700" lengthAdjust="spacing" textLength="20.3848" x="220.47" y="20.9951">VT</text></g><!--entity CU04--><g class="entity" data-qualified-name="VT.CU04" data-source-line="6" id="ent0004"><ellipse cx="385.39" cy="329" fill="#F1F1F1" rx="111.95" ry="24.79" style="stroke:#181818;stroke-width:0.5;"/><text fill="#000000" font-family="sans-serif" font-size="14" lengthAdjust="spacing" textLength="202.0908" x="284.3446" y="333.6484">CU-04 Selecci&#243;n de partici&#243;n</text></g><!--entity CU03--><g class="entity" data-qualified-name="VT.CU03" data-source-line="7" id="ent0005"><ellipse cx="385.3933" cy="244.0007" fill="#F1F1F1" rx="112.6033" ry="24.9207" style="stroke:#181818;stroke-width:0.5;"/><text fill="#000000" font-family="sans-serif" font-size="14" lengthAdjust="spacing" textLength="203.499" x="283.6438" y="248.6491">CU-03 Visualizaci&#243;n de datos</text></g><!--entity CU02--><g class="entity" data-qualified-name="VT.CU02" data-source-line="8" id="ent0006"><ellipse cx="385.3936" cy="163.0027" fill="#F1F1F1" rx="91.7136" ry="20.7427" style="stroke:#181818;stroke-width:0.5;"/><text fill="#000000" font-family="sans-serif" font-size="14" lengthAdjust="spacing" textLength="157.6094" x="306.5889" y="167.6512">CU-02 C&#225;lculo del OEE</text></g><!--entity CU01--><g class="entity" data-qualified-name="VT.CU01" data-source-line="9" id="ent0007"><ellipse cx="385.3882" cy="74.0036" fill="#F1F1F1" rx="152.9182" ry="32.9836" style="stroke:#181818;stroke-width:0.5;"/><text fill="#000000" font-family="sans-serif" font-size="14" lengthAdjust="spacing" textLength="288.5518" x="241.1123" y="78.6521">CU-01 Obtenci&#243;n de datos de producci&#243;n</text></g><!--entity ResponsableProducci?n--><g class="entity" data-qualified-name="ResponsableProducci.n" data-source-line="3" id="ent0002"><ellipse cx="89.2344" cy="174.35" fill="#F1F1F1" rx="8" ry="8" style="stroke:#181818;stroke-width:0.5;"/><path d="M89.2344,182.35 L89.2344,209.35 M76.2344,190.35 L102.2344,190.35 M89.2344,209.35 L76.2344,224.35 M89.2344,209.35 L102.2344,224.35" fill="none" style="stroke:#181818;stroke-width:0.5;"/><text fill="#000000" font-family="sans-serif" font-size="14" lengthAdjust="spacing" textLength="166.4688" x="6" y="238.8451">ResponsableProducci&#243;n</text></g><!--link ResponsableProducci?n to CU01--><g class="link" data-entity-1="ent0002" data-entity-2="ent0007" data-link-type="dependency" data-source-line="14" id="lnk8"><path d="M140.59,165.38 C160.85,151.19 184.97,135.94 208.47,125 C231.1,114.47 250.6417,107.3197 274.8417,100.0797" fill="none" id="ResponsableProducci&#243;n-to-CU01" style="stroke:#181818;stroke-width:1;"/><polygon fill="#181818" points="280.59,98.36,270.8211,97.1074,275.7998,99.7931,273.1141,104.7718,280.59,98.36" style="stroke:#181818;stroke-width:1;"/></g><!--link ResponsableProducci?n to CU02--><g class="link" data-entity-1="ent0002" data-entity-2="ent0006" data-link-type="dependency" data-source-line="15" id="lnk9"><path d="M172.96,192.47 C214.76,186.64 259.2574,180.4379 300.3874,174.7079" fill="none" id="ResponsableProducci&#243;n-to-CU02" style="stroke:#181818;stroke-width:1;"/><polygon fill="#181818" points="306.33,173.88,296.8642,171.1601,301.3778,174.5699,297.968,179.0836,306.33,173.88" style="stroke:#181818;stroke-width:1;"/></g><!--link ResponsableProducci?n to CU03--><g class="link" data-entity-1="ent0002" data-entity-2="ent0005" data-link-type="dependency" data-source-line="16" id="lnk10"><path d="M172.96,215.25 C208.89,220.14 245.2747,225.0819 282.5747,230.1519" fill="none" id="ResponsableProducci&#243;n-to-CU03" style="stroke:#181818;stroke-width:1;"/><polygon fill="#181818" points="288.52,230.96,280.1408,225.7843,283.5656,230.2866,279.0633,233.7114,288.52,230.96" style="stroke:#181818;stroke-width:1;"/></g><!--link ResponsableProducci?n to CU04--><g class="link" data-entity-1="ent0002" data-entity-2="ent0004" data-link-type="dependency" data-source-line="17" id="lnk11"><path d="M137.29,242.58 C158.06,257.99 183.41,274.72 208.47,286 C235.7,298.26 261.103,306.0035 289.633,312.5735" fill="none" id="ResponsableProducci&#243;n-to-CU04" style="stroke:#181818;stroke-width:1;"/><polygon fill="#181818" points="295.48,313.92,287.6072,308.0023,290.6075,312.7979,285.8119,315.7983,295.48,313.92" style="stroke:#181818;stroke-width:1;"/></g><?plantuml-src XOzD3e8m48NtFSKBUnB-rcw8QuoA-x6CsjXGqfQDniDu1e_0nIGGD1AZovdtVPDvcWyUti2guycZKfQbLwOMWgGt5cjsZQaTxJMlhAbQALNtwDE6v9cEZ62t3N0LGEjOakiNUHb66JQiUMHHCHgoNWrJ07B8ooYRAobsohMarOLUMaNUkCb8vqQ2lBjhsMhJinh5SZcXoHoDKUmzrv-7XyVUdIOv5k8cXFXU766u6A7VUV8dJ__asHC0?></g></svg>