<svg xmlns="http://www.w3.org/2000/svg" xmlns:xlink="http://www.w3.org/1999/xlink" contentStyleType="text/css" data-diagram-type="ACTIVITY" height="634px" preserveAspectRatio="none" style="width:385px;height:634px;background:#FFFFFF;" version="1.1" viewBox="0 0 385 634" width="385px" zoomAndPan="magnify"><?plantuml 1.2026.3beta6?><defs/><g><ellipse cx="190.5166" cy="25" fill="#222222" rx="10" ry="10" style="stroke:#222222;stroke-width:1;"/><rect fill="#F1F1F1" height="33.9688" rx="12.5" ry="12.5" style="stroke:#181818;stroke-width:0.5;" width="349.0332" x="16" y="55"/><text fill="#000000" font-family="sans-serif" font-size="12" lengthAdjust="spacing" textLength="329.0332" x="26" y="76.1387">Responsable de producci&#243;n abre pesta&#241;a Rendimiento</text><rect fill="#F1F1F1" height="33.9688" rx="12.5" ry="12.5" style="stroke:#181818;stroke-width:0.5;" width="272.7734" x="54.1299" y="108.9688"/><text fill="#000000" font-family="sans-serif" font-size="12" lengthAdjust="spacing" textLength="252.7734" x="64.1299" y="130.1074">VT comprueba si hay datos de fabricaci&#243;n</text><rect fill="#F1F1F1" height="33.9688" rx="12.5" ry="12.5" style="stroke:#181818;stroke-width:0.5;" width="207.7168" x="86.6582" y="211.3398"/><text fill="#000000" font-family="sans-serif" font-size="12" lengthAdjust="spacing" textLength="187.7168" x="96.6582" y="232.4785">VT busca informaci&#243;n en su BD</text><rect fill="#F1F1F1" height="33.9688" rx="12.5" ry="12.5" style="stroke:#181818;stroke-width:0.5;" width="99.2129" x="140.9102" y="313.7109"/><text fill="#000000" font-family="sans-serif" font-size="12" lengthAdjust="spacing" textLength="79.2129" x="150.9102" y="334.8496">Mostrar error</text><ellipse cx="190.5166" cy="387.1953" fill="none" rx="11" ry="11" style="stroke:#222222;stroke-width:1;"/><ellipse cx="190.5166" cy="387.1953" fill="#222222" rx="6" ry="6" style="stroke:#222222;stroke-width:1;"/><polygon fill="#F1F1F1" points="126.4797,265.3086,254.5535,265.3086,266.5535,277.3086,254.5535,289.3086,126.4797,289.3086,114.4797,277.3086,126.4797,265.3086" style="stroke:#181818;stroke-width:0.5;"/><text fill="#000000" font-family="sans-serif" font-size="11" lengthAdjust="spacing" textLength="14.9585" x="194.5166" y="299.519">No</text><text fill="#000000" font-family="sans-serif" font-size="11" lengthAdjust="spacing" textLength="128.0737" x="126.4797" y="281.1167">&#191;La encuentra en 45 s?</text><text fill="#000000" font-family="sans-serif" font-size="11" lengthAdjust="spacing" textLength="10.0386" x="266.5535" y="274.7144">S&#237;</text><polygon fill="#F1F1F1" points="109.679,162.9375,271.3542,162.9375,283.3542,174.9375,271.3542,186.9375,109.679,186.9375,97.679,174.9375,109.679,162.9375" style="stroke:#181818;stroke-width:0.5;"/><text fill="#000000" font-family="sans-serif" font-size="11" lengthAdjust="spacing" textLength="14.9585" x="194.5166" y="197.1479">No</text><text fill="#000000" font-family="sans-serif" font-size="11" lengthAdjust="spacing" textLength="161.6753" x="109.679" y="178.7456">&#191;Hay datos te&#243;ricos y reales?</text><text fill="#000000" font-family="sans-serif" font-size="11" lengthAdjust="spacing" textLength="10.0386" x="283.3542" y="172.3433">S&#237;</text><polygon fill="#F1F1F1" points="190.5166,440.1953,202.5166,452.1953,190.5166,464.1953,178.5166,452.1953,190.5166,440.1953" style="stroke:#181818;stroke-width:0.5;"/><rect fill="#F1F1F1" height="33.9688" rx="12.5" ry="12.5" style="stroke:#181818;stroke-width:0.5;" width="131.5742" x="124.7295" y="484.1953"/><text fill="#000000" font-family="sans-serif" font-size="12" lengthAdjust="spacing" textLength="111.5742" x="134.7295" y="505.334">VT realiza c&#225;lculos</text><rect fill="#F1F1F1" height="33.9688" rx="12.5" ry="12.5" style="stroke:#181818;stroke-width:0.5;" width="147.3594" x="116.8369" y="538.1641"/><text fill="#000000" font-family="sans-serif" font-size="12" lengthAdjust="spacing" textLength="127.3594" x="126.8369" y="559.3027">VT grafica resultados</text><ellipse cx="190.5166" cy="603.1328" fill="none" rx="11" ry="11" style="stroke:#222222;stroke-width:1;"/><ellipse cx="190.5166" cy="603.1328" fill="#222222" rx="6" ry="6" style="stroke:#222222;stroke-width:1;"/><line style="stroke:#181818;stroke-width:1;" x1="190.5166" x2="190.5166" y1="35" y2="55"/><polygon fill="#181818" points="186.5166,45,190.5166,55,194.5166,45,190.5166,49" style="stroke:#181818;stroke-width:1;"/><line style="stroke:#181818;stroke-width:1;" x1="190.5166" x2="190.5166" y1="88.9688" y2="108.9688"/><polygon fill="#181818" points="186.5166,98.9688,190.5166,108.9688,194.5166,98.9688,190.5166,102.9688" style="stroke:#181818;stroke-width:1;"/><line style="stroke:#181818;stroke-width:1;" x1="190.5166" x2="190.5166" y1="347.6797" y2="376.1953"/><polygon fill="#181818" points="186.5166,366.1953,190.5166,376.1953,194.5166,366.1953,190.5166,370.1953" style="stroke:#181818;stroke-width:1;"/><line style="stroke:#181818;stroke-width:1;" x1="190.5166" x2="190.5166" y1="289.3086" y2="313.7109"/><polygon fill="#181818" points="186.5166,303.7109,190.5166,313.7109,194.5166,303.7109,190.5166,307.7109" style="stroke:#181818;stroke-width:1;"/><line style="stroke:#181818;stroke-width:1;" x1="266.5535" x2="278.5535" y1="277.3086" y2="277.3086"/><polygon fill="#181818" points="274.5535,346.1953,278.5535,356.1953,282.5535,346.1953,278.5535,350.1953" style="stroke:#181818;stroke-width:1;"/><line style="stroke:#181818;stroke-width:1;" x1="278.5535" x2="278.5535" y1="277.3086" y2="420.1953"/><line style="stroke:#181818;stroke-width:1;" x1="278.5535" x2="190.5166" y1="420.1953" y2="420.1953"/><line style="stroke:#181818;stroke-width:1;" x1="190.5166" x2="190.5166" y1="420.1953" y2="440.1953"/><polygon fill="#181818" points="186.5166,430.1953,190.5166,440.1953,194.5166,430.1953,190.5166,434.1953" style="stroke:#181818;stroke-width:1;"/><line style="stroke:#181818;stroke-width:1;" x1="190.5166" x2="190.5166" y1="245.3086" y2="265.3086"/><polygon fill="#181818" points="186.5166,255.3086,190.5166,265.3086,194.5166,255.3086,190.5166,259.3086" style="stroke:#181818;stroke-width:1;"/><line style="stroke:#181818;stroke-width:1;" x1="190.5166" x2="190.5166" y1="186.9375" y2="211.3398"/><polygon fill="#181818" points="186.5166,201.3398,190.5166,211.3398,194.5166,201.3398,190.5166,205.3398" style="stroke:#181818;stroke-width:1;"/><line style="stroke:#181818;stroke-width:1;" x1="283.3542" x2="304.375" y1="174.9375" y2="174.9375"/><polygon fill="#181818" points="300.375,305.7109,304.375,315.7109,308.375,305.7109,304.375,309.7109" style="stroke:#181818;stroke-width:1;"/><line style="stroke:#181818;stroke-width:1;" x1="304.375" x2="304.375" y1="174.9375" y2="452.1953"/><line style="stroke:#181818;stroke-width:1;" x1="304.375" x2="202.5166" y1="452.1953" y2="452.1953"/><polygon fill="#181818" points="212.5166,448.1953,202.5166,452.1953,212.5166,456.1953,208.5166,452.1953" style="stroke:#181818;stroke-width:1;"/><line style="stroke:#181818;stroke-width:1;" x1="190.5166" x2="190.5166" y1="142.9375" y2="162.9375"/><polygon fill="#181818" points="186.5166,152.9375,190.5166,162.9375,194.5166,152.9375,190.5166,156.9375" style="stroke:#181818;stroke-width:1;"/><line style="stroke:#181818;stroke-width:1;" x1="190.5166" x2="190.5166" y1="464.1953" y2="484.1953"/><polygon fill="#181818" points="186.5166,474.1953,190.5166,484.1953,194.5166,474.1953,190.5166,478.1953" style="stroke:#181818;stroke-width:1;"/><line style="stroke:#181818;stroke-width:1;" x1="190.5166" x2="190.5166" y1="518.1641" y2="538.1641"/><polygon fill="#181818" points="186.5166,528.1641,190.5166,538.1641,194.5166,528.1641,190.5166,532.1641" style="stroke:#181818;stroke-width:1;"/><line style="stroke:#181818;stroke-width:1;" x1="190.5166" x2="190.5166" y1="572.1328" y2="592.1328"/><polygon fill="#181818" points="186.5166,582.1328,190.5166,592.1328,194.5166,582.1328,190.5166,586.1328" style="stroke:#181818;stroke-width:1;"/><?plantuml-src NP0nJiH034NxESKlanwQJO64A2Y0OXVHEnE77Mas4zapnN8R3a21zW18v69u4WaXcf7r_UVPtvf9idExFUkS9gK-CWR6B6aeteVbCe5wCO4rq_99sFCqX5FWAQVExLwUuTDfbi8zGGEETCP0EMc5ZFOpU5efdNDXHFFzTV_hoBnSh6_L6S8KMMzQv2DFQ0xBH-iSHsKqJwbrG9tK5_M4C8r9JXiLPjQ2spl30zk01pBL5rjGQeMhQ_m70t_H1dzCQcu1YoJfLarpcglHqevkUzUuTTFmHl3BU_Gb9jsky2eqMbPhQucPXggxolW1?></g></svg>