<svg xmlns="http://www.w3.org/2000/svg" xmlns:xlink="http://www.w3.org/1999/xlink" contentStyleType="text/css" data-diagram-type="CLASS" height="341px" preserveAspectRatio="none" style="width:542px;height:341px;background:#FFFFFF;" version="1.1" viewBox="0 0 542 341" width="542px" zoomAndPan="magnify"><?plantuml 1.2026.3beta6?><defs/><g><!--class AssignmentSplit--><g class="entity" data-qualified-name="AssignmentSplit" data-source-line="1" id="ent0002"><rect fill="#F1F1F1" height="113.1875" rx="2.5" ry="2.5" style="stroke:#181818;stroke-width:0.5;" width="145.4697" x="382.32" y="205.33"/><ellipse cx="397.32" cy="221.33" fill="#ADD1B2" rx="11" ry="11" style="stroke:#181818;stroke-width:1;"/><path d="M400.2888,226.9706 Q399.7106,227.2675 399.07,227.4081 Q398.4294,227.5644 397.7263,227.5644 Q395.2263,227.5644 393.8981,225.9238 Q392.5856,224.2675 392.5856,221.1425 Q392.5856,218.0175 393.8981,216.3613 Q395.2263,214.705 397.7263,214.705 Q398.4294,214.705 399.07,214.8613 Q399.7263,215.0175 400.2888,215.3144 L400.2888,218.0331 Q399.6638,217.455 399.07,217.1894 Q398.4763,216.9081 397.8513,216.9081 Q396.5075,216.9081 395.82,217.9863 Q395.1325,219.0488 395.1325,221.1425 Q395.1325,223.2363 395.82,224.3144 Q396.5075,225.3769 397.8513,225.3769 Q398.4763,225.3769 399.07,225.1113 Q399.6638,224.83 400.2888,224.2519 L400.2888,226.9706 Z " fill="#000000"/><text fill="#000000" font-family="sans-serif" font-size="14" lengthAdjust="spacing" textLength="113.4697" x="411.32" y="226.1767">AssignmentSplit</text><line style="stroke:#181818;stroke-width:0.5;" x1="383.32" x2="526.7897" y1="237.33" y2="237.33"/><text fill="#000000" font-family="sans-serif" font-size="14" lengthAdjust="spacing" textLength="42.4648" x="388.32" y="254.3251">splitId</text><text fill="#000000" font-family="sans-serif" font-size="14" lengthAdjust="spacing" textLength="132.2549" x="388.32" y="270.622">idPuestoDeTrabajo</text><text fill="#000000" font-family="sans-serif" font-size="14" lengthAdjust="spacing" textLength="107.5977" x="388.32" y="286.9189">splitInfoTeorica</text><text fill="#000000" font-family="sans-serif" font-size="14" lengthAdjust="spacing" textLength="122.8896" x="388.32" y="303.2157">splitInfoEjecuci&#243;n</text><line style="stroke:#181818;stroke-width:0.5;" x1="383.32" x2="526.7897" y1="310.5175" y2="310.5175"/></g><!--class VisualTracking--><g class="entity" data-qualified-name="VisualTracking" data-source-line="8" id="ent0003"><rect fill="#F1F1F1" height="96.8906" rx="2.5" ry="2.5" style="stroke:#181818;stroke-width:0.5;" width="134.4434" x="201.83" y="15.15"/><ellipse cx="216.83" cy="31.15" fill="#ADD1B2" rx="11" ry="11" style="stroke:#181818;stroke-width:1;"/><path d="M219.7988,36.7906 Q219.2206,37.0875 218.58,37.2281 Q217.9394,37.3844 217.2363,37.3844 Q214.7363,37.3844 213.4081,35.7438 Q212.0956,34.0875 212.0956,30.9625 Q212.0956,27.8375 213.4081,26.1813 Q214.7363,24.525 217.2363,24.525 Q217.9394,24.525 218.58,24.6813 Q219.2363,24.8375 219.7988,25.1344 L219.7988,27.8531 Q219.1738,27.275 218.58,27.0094 Q217.9863,26.7281 217.3613,26.7281 Q216.0175,26.7281 215.33,27.8063 Q214.6425,28.8688 214.6425,30.9625 Q214.6425,33.0563 215.33,34.1344 Q216.0175,35.1969 217.3613,35.1969 Q217.9863,35.1969 218.58,34.9313 Q219.1738,34.65 219.7988,34.0719 L219.7988,36.7906 Z " fill="#000000"/><text fill="#000000" font-family="sans-serif" font-size="14" lengthAdjust="spacing" textLength="102.4434" x="230.83" y="35.9967">VisualTracking</text><line style="stroke:#181818;stroke-width:0.5;" x1="202.83" x2="335.2734" y1="47.15" y2="47.15"/><text fill="#000000" font-family="sans-serif" font-size="14" lengthAdjust="spacing" textLength="42.4648" x="207.83" y="64.1451">splitId</text><text fill="#000000" font-family="sans-serif" font-size="14" lengthAdjust="spacing" textLength="77.9092" x="207.83" y="80.442">infoTe&#243;rica</text><text fill="#000000" font-family="sans-serif" font-size="14" lengthAdjust="spacing" textLength="93.2012" x="207.83" y="96.7389">infoEjecuci&#243;n</text><line style="stroke:#181818;stroke-width:0.5;" x1="202.83" x2="335.2734" y1="104.0406" y2="104.0406"/></g><!--class SplitIndexInfo--><g class="entity" data-qualified-name="SplitIndexInfo" data-source-line="14" id="ent0004"><rect fill="#F1F1F1" height="129.4844" rx="2.5" ry="2.5" style="stroke:#181818;stroke-width:0.5;" width="148.1104" x="7" y="197.19"/><ellipse cx="30.9033" cy="213.19" fill="#ADD1B2" rx="11" ry="11" style="stroke:#181818;stroke-width:1;"/><path d="M33.8721,218.8306 Q33.2939,219.1275 32.6533,219.2681 Q32.0127,219.4244 31.3096,219.4244 Q28.8096,219.4244 27.4814,217.7838 Q26.1689,216.1275 26.1689,213.0025 Q26.1689,209.8775 27.4814,208.2213 Q28.8096,206.565 31.3096,206.565 Q32.0127,206.565 32.6533,206.7213 Q33.3096,206.8775 33.8721,207.1744 L33.8721,209.8931 Q33.2471,209.315 32.6533,209.0494 Q32.0596,208.7681 31.4346,208.7681 Q30.0908,208.7681 29.4033,209.8463 Q28.7158,210.9088 28.7158,213.0025 Q28.7158,215.0963 29.4033,216.1744 Q30.0908,217.2369 31.4346,217.2369 Q32.0596,217.2369 32.6533,216.9713 Q33.2471,216.69 33.8721,216.1119 L33.8721,218.8306 Z " fill="#000000"/><text fill="#000000" font-family="sans-serif" font-size="14" lengthAdjust="spacing" textLength="96.3252" x="46.8818" y="218.0367">SplitIndexInfo</text><line style="stroke:#181818;stroke-width:0.5;" x1="8" x2="154.1104" y1="229.19" y2="229.19"/><text fill="#000000" font-family="sans-serif" font-size="14" lengthAdjust="spacing" textLength="42.4648" x="13" y="246.1851">splitId</text><text fill="#000000" font-family="sans-serif" font-size="14" lengthAdjust="spacing" textLength="70.4238" x="13" y="262.482">infoPiezas</text><text fill="#000000" font-family="sans-serif" font-size="14" lengthAdjust="spacing" textLength="85.6953" x="13" y="278.7789">infoTiempos</text><text fill="#000000" font-family="sans-serif" font-size="14" lengthAdjust="spacing" textLength="107.4268" x="13" y="295.0757">infoIndicadores</text><text fill="#000000" font-family="sans-serif" font-size="14" lengthAdjust="spacing" textLength="136.1104" x="13" y="311.3726">infoCurvaVelocidad</text><line style="stroke:#181818;stroke-width:0.5;" x1="8" x2="154.1104" y1="318.6744" y2="318.6744"/></g><!--class infoIndicadores--><g class="entity" data-qualified-name="infoIndicadores" data-source-line="22" id="ent0005"><rect fill="#F1F1F1" height="113.1875" rx="2.5" ry="2.5" style="stroke:#181818;stroke-width:0.5;" width="139.4268" x="11.34" y="7"/><ellipse cx="26.34" cy="23" fill="#ADD1B2" rx="11" ry="11" style="stroke:#181818;stroke-width:1;"/><path d="M29.3088,28.6406 Q28.7306,28.9375 28.09,29.0781 Q27.4494,29.2344 26.7463,29.2344 Q24.2463,29.2344 22.9181,27.5938 Q21.6056,25.9375 21.6056,22.8125 Q21.6056,19.6875 22.9181,18.0313 Q24.2463,16.375 26.7463,16.375 Q27.4494,16.375 28.09,16.5313 Q28.7463,16.6875 29.3088,16.9844 L29.3088,19.7031 Q28.6838,19.125 28.09,18.8594 Q27.4963,18.5781 26.8713,18.5781 Q25.5275,18.5781 24.84,19.6563 Q24.1525,20.7188 24.1525,22.8125 Q24.1525,24.9063 24.84,25.9844 Q25.5275,27.0469 26.8713,27.0469 Q27.4963,27.0469 28.09,26.7813 Q28.6838,26.5 29.3088,25.9219 L29.3088,28.6406 Z " fill="#000000"/><text fill="#000000" font-family="sans-serif" font-size="14" lengthAdjust="spacing" textLength="107.4268" x="40.34" y="27.8467">infoIndicadores</text><line style="stroke:#181818;stroke-width:0.5;" x1="12.34" x2="149.7668" y1="39" y2="39"/><text fill="#000000" font-family="sans-serif" font-size="14" lengthAdjust="spacing" textLength="97.1934" x="17.34" y="55.9951">disponibilidad</text><text fill="#000000" font-family="sans-serif" font-size="14" lengthAdjust="spacing" textLength="85.0869" x="17.34" y="72.292">rendimiento</text><text fill="#000000" font-family="sans-serif" font-size="14" lengthAdjust="spacing" textLength="50.4082" x="17.34" y="88.5889">calidad</text><text fill="#000000" font-family="sans-serif" font-size="14" lengthAdjust="spacing" textLength="28.7109" x="17.34" y="104.8857">OEE</text><line style="stroke:#181818;stroke-width:0.5;" x1="12.34" x2="149.7668" y1="112.1875" y2="112.1875"/></g><!--class Graficas--><g class="entity" data-qualified-name="Graficas" data-source-line="28" id="ent0006"><rect fill="#F1F1F1" height="96.8906" rx="2.5" ry="2.5" style="stroke:#181818;stroke-width:0.5;" width="157.4141" x="190.35" y="213.48"/><ellipse cx="236.0209" cy="229.48" fill="#ADD1B2" rx="11" ry="11" style="stroke:#181818;stroke-width:1;"/><path d="M238.9896,235.1206 Q238.4115,235.4175 237.7709,235.5581 Q237.1303,235.7144 236.4271,235.7144 Q233.9271,235.7144 232.599,234.0738 Q231.2865,232.4175 231.2865,229.2925 Q231.2865,226.1675 232.599,224.5113 Q233.9271,222.855 236.4271,222.855 Q237.1303,222.855 237.7709,223.0113 Q238.4271,223.1675 238.9896,223.4644 L238.9896,226.1831 Q238.3646,225.605 237.7709,225.3394 Q237.1771,225.0581 236.5521,225.0581 Q235.2084,225.0581 234.5209,226.1363 Q233.8334,227.1988 233.8334,229.2925 Q233.8334,231.3863 234.5209,232.4644 Q235.2084,233.5269 236.5521,233.5269 Q237.1771,233.5269 237.7709,233.2613 Q238.3646,232.98 238.9896,232.4019 L238.9896,235.1206 Z " fill="#000000"/><text fill="#000000" font-family="sans-serif" font-size="14" lengthAdjust="spacing" textLength="57.5723" x="256.5209" y="234.3267">Graficas</text><line style="stroke:#181818;stroke-width:0.5;" x1="191.35" x2="346.7641" y1="245.48" y2="245.48"/><text fill="#000000" font-family="sans-serif" font-size="14" lengthAdjust="spacing" textLength="127.1689" x="196.35" y="262.4751">curvaDeVelocidad</text><text fill="#000000" font-family="sans-serif" font-size="14" lengthAdjust="spacing" textLength="145.4141" x="196.35" y="278.772">barrasDeIndicadores</text><text fill="#000000" font-family="sans-serif" font-size="14" lengthAdjust="spacing" textLength="135.9873" x="196.35" y="295.0689">tablaDeIndicadores</text><line style="stroke:#181818;stroke-width:0.5;" x1="191.35" x2="346.7641" y1="302.3706" y2="302.3706"/></g><!--link VisualTracking to AssignmentSplit--><g class="link" data-entity-1="ent0003" data-entity-2="ent0002" data-link-type="association" data-source-line="34" id="lnk7"><path codeLine="34" d="M314.32,112.37 C340.77,140.29 374.29,175.68 401.99,204.91" fill="none" id="VisualTracking-AssignmentSplit" style="stroke:#181818;stroke-width:1;"/><text fill="#000000" font-family="sans-serif" font-size="13" lengthAdjust="spacing" textLength="98.0459" x="363.06" y="163.2569">obtiene info de</text></g><!--link VisualTracking to SplitIndexInfo--><g class="link" data-entity-1="ent0003" data-entity-2="ent0004" data-link-type="association" data-source-line="35" id="lnk8"><path codeLine="35" d="M223.31,112.37 C198.96,137.8 168.69,169.41 142.34,196.93" fill="none" id="VisualTracking-SplitIndexInfo" style="stroke:#181818;stroke-width:1;"/><text fill="#000000" font-family="sans-serif" font-size="13" lengthAdjust="spacing" textLength="45.6904" x="187.06" y="163.2569">calcula</text></g><!--link VisualTracking to Graficas--><g class="link" data-entity-1="ent0003" data-entity-2="ent0006" data-link-type="association" data-source-line="36" id="lnk9"><path codeLine="36" d="M269.06,112.37 C269.06,143.02 269.06,182.65 269.06,213.28" fill="none" id="VisualTracking-Graficas" style="stroke:#181818;stroke-width:1;"/><text fill="#000000" font-family="sans-serif" font-size="13" lengthAdjust="spacing" textLength="45.7983" x="270.06" y="163.2569">genera</text></g><!--link infoIndicadores to SplitIndexInfo--><g class="link" data-entity-1="ent0005" data-entity-2="ent0004" data-link-type="association" data-source-line="38" id="lnk10"><path codeLine="38" d="M81.06,120.59 C81.06,144.39 81.06,172.28 81.06,196.89" fill="none" id="infoIndicadores-SplitIndexInfo" style="stroke:#181818;stroke-width:1;"/></g><?plantuml-src TP51ReCm44NtFeKla0kmgmggkcgaHDaFzWHDQcpaWQXgb5Fb2BbOnuu2Wj3Ty3r-__jZ733hDsPgV8k-ttME-elIMdEQFcqQoMu7v3wKk8zGmobCv_uOzXWY6PXfrGdDOEX-y-ggbCac1-81d13CD_dcnIEJxhSdYlwXx1uM5d-IpnfbI_WBF389sowCdt9J36o8E4hlGpp30LqmPC5EJelrR6M9k-2f9fTtHOaeAor9TRaL0_b4f_chgeJsW7r4E0g9TSQOP5dYP2fQ3J42bxX8s4FjOAvAmdcNUhDP_i92XxgNL9YVeIskN9bNMQJiPd2milbCN-X6a16KMfJpGli3?></g></svg>