<svg xmlns="http://www.w3.org/2000/svg" xmlns:xlink="http://www.w3.org/1999/xlink" contentStyleType="text/css" data-diagram-type="DESCRIPTION" height="712px" preserveAspectRatio="none" style="width:544px;height:712px;background:#FFFFFF;" version="1.1" viewBox="0 0 544 712" width="544px" zoomAndPan="magnify"><?plantuml 1.2026.3beta6?><defs/><g><!--cluster Backend--><g class="cluster" data-qualified-name="Backend" data-source-line="5" id="ent0003"><path d="M154.94,6 L223.1509,6 A3.75,3.75 0 0 1 225.6509,8.5 L232.6509,28.2969 L527.19,28.2969 A2.5,2.5 0 0 1 529.69,30.7969 L529.69,383.5 A2.5,2.5 0 0 1 527.19,386 L154.94,386 A2.5,2.5 0 0 1 152.44,383.5 L152.44,8.5 A2.5,2.5 0 0 1 154.94,6" fill="none" style="stroke:#000000;stroke-width:1.5;"/><line style="stroke:#000000;stroke-width:1.5;" x1="152.44" x2="232.6509" y1="28.2969" y2="28.2969"/><text fill="#000000" font-family="sans-serif" font-size="14" font-weight="700" lengthAdjust="spacing" textLength="67.2109" x="156.44" y="20.9951">Backend</text></g><!--cluster Frontend--><g class="cluster" data-qualified-name="Frontend" data-source-line="13" id="ent0008"><path d="M154.94,410 L228.1685,410 A3.75,3.75 0 0 1 230.6685,412.5 L237.6685,432.2969 L527.19,432.2969 A2.5,2.5 0 0 1 529.69,434.7969 L529.69,694.5 A2.5,2.5 0 0 1 527.19,697 L154.94,697 A2.5,2.5 0 0 1 152.44,694.5 L152.44,412.5 A2.5,2.5 0 0 1 154.94,410" fill="none" style="stroke:#000000;stroke-width:1.5;"/><line style="stroke:#000000;stroke-width:1.5;" x1="152.44" x2="237.6685" y1="432.2969" y2="432.2969"/><text fill="#000000" font-family="sans-serif" font-size="14" font-weight="700" lengthAdjust="spacing" textLength="72.2285" x="156.44" y="424.9951">Frontend</text></g><!--entity CU05--><g class="entity" data-qualified-name="Backend.CU05" data-source-line="6" id="ent0004"><ellipse cx="341.0688" cy="349.0018" fill="#F1F1F1" rx="95.3088" ry="21.4618" style="stroke:#181818;stroke-width:0.5;"/><text fill="#000000" font-family="sans-serif" font-size="14" lengthAdjust="spacing" textLength="165.6621" x="258.2377" y="353.6502">CU-05 Filtrado de datos</text></g><!--entity CU03--><g class="entity" data-qualified-name="Backend.CU03" data-source-line="7" id="ent0005"><ellipse cx="341.0729" cy="256.0046" fill="#F1F1F1" rx="172.6229" ry="36.9246" style="stroke:#181818;stroke-width:0.5;"/><text fill="#000000" font-family="sans-serif" font-size="14" lengthAdjust="spacing" textLength="329.3145" x="176.4157" y="260.653">CU-03 Comunicaci&#243;n entre backend y frontend</text></g><!--entity CU02--><g class="entity" data-qualified-name="Backend.CU02" data-source-line="8" id="ent0006"><ellipse cx="341.0736" cy="163.0027" fill="#F1F1F1" rx="91.7136" ry="20.7427" style="stroke:#181818;stroke-width:0.5;"/><text fill="#000000" font-family="sans-serif" font-size="14" lengthAdjust="spacing" textLength="157.6094" x="262.2689" y="167.6512">CU-02 C&#225;lculo del OEE</text></g><!--entity CU01--><g class="entity" data-qualified-name="Backend.CU01" data-source-line="9" id="ent0007"><ellipse cx="341.0682" cy="74.0036" fill="#F1F1F1" rx="152.9182" ry="32.9836" style="stroke:#181818;stroke-width:0.5;"/><text fill="#000000" font-family="sans-serif" font-size="14" lengthAdjust="spacing" textLength="288.5518" x="196.7923" y="78.6521">CU-01 Obtenci&#243;n de datos de producci&#243;n</text></g><!--entity CU05_Frontend--><g class="entity" data-qualified-name="Frontend.CU05_Frontend" data-source-line="14" id="ent0009"><ellipse cx="341.0688" cy="660.0018" fill="#F1F1F1" rx="95.3088" ry="21.4618" style="stroke:#181818;stroke-width:0.5;"/><text fill="#000000" font-family="sans-serif" font-size="14" lengthAdjust="spacing" textLength="165.6621" x="258.2377" y="664.6502">CU-05 Filtrado de datos</text></g><!--entity CU04--><g class="entity" data-qualified-name="Frontend.CU04" data-source-line="15" id="ent0010"><ellipse cx="341.0733" cy="579.0007" fill="#F1F1F1" rx="112.6033" ry="24.9207" style="stroke:#181818;stroke-width:0.5;"/><text fill="#000000" font-family="sans-serif" font-size="14" lengthAdjust="spacing" textLength="203.499" x="239.3238" y="583.6491">CU-04 Visualizaci&#243;n de datos</text></g><!--entity CU03_Frontend--><g class="entity" data-qualified-name="Frontend.CU03_Frontend" data-source-line="16" id="ent0011"><ellipse cx="341.0729" cy="482.0046" fill="#F1F1F1" rx="172.6229" ry="36.9246" style="stroke:#181818;stroke-width:0.5;"/><text fill="#000000" font-family="sans-serif" font-size="14" lengthAdjust="spacing" textLength="329.3145" x="176.4157" y="486.653">CU-03 Comunicaci&#243;n entre backend y frontend</text></g><!--entity VisualTracking--><g class="entity" data-qualified-name="VisualTracking" data-source-line="3" id="ent0002"><ellipse cx="57.2217" cy="319.35" fill="#F1F1F1" rx="8" ry="8" style="stroke:#181818;stroke-width:0.5;"/><path d="M57.2217,327.35 L57.2217,354.35 M44.2217,335.35 L70.2217,335.35 M57.2217,354.35 L44.2217,369.35 M57.2217,354.35 L70.2217,369.35" fill="none" style="stroke:#181818;stroke-width:0.5;"/><text fill="#000000" font-family="sans-serif" font-size="14" lengthAdjust="spacing" textLength="102.4434" x="6" y="383.8451">VisualTracking</text></g><!--link VisualTracking to CU01--><g class="link" data-entity-1="ent0002" data-entity-2="ent0007" data-link-type="dependency" data-source-line="19" id="lnk12"><path d="M62.32,310.51 C69.74,260.42 90.06,173.59 144.44,125 C162.24,109.1 178.6994,99.9518 201.6194,92.2918" fill="none" id="VisualTracking-to-CU01" style="stroke:#181818;stroke-width:1;"/><polygon fill="#181818" points="207.31,90.39,197.5062,89.449,202.5678,91.9749,200.042,97.0365,207.31,90.39" style="stroke:#181818;stroke-width:1;"/></g><!--link VisualTracking to CU02--><g class="link" data-entity-1="ent0002" data-entity-2="ent0006" data-link-type="dependency" data-source-line="20" id="lnk13"><path d="M70.57,310.5 C83.51,276.56 107.2,228.51 144.44,202 C174.77,180.41 208.1827,170.8735 243.6327,166.1435" fill="none" id="VisualTracking-to-CU02" style="stroke:#181818;stroke-width:1;"/><polygon fill="#181818" points="249.58,165.35,240.13,162.5754,244.6239,166.0113,241.1881,170.5052,249.58,165.35" style="stroke:#181818;stroke-width:1;"/></g><!--link VisualTracking to CU03--><g class="link" data-entity-1="ent0002" data-entity-2="ent0005" data-link-type="dependency" data-source-line="21" id="lnk14"><path d="M108.74,324.57 C120.33,319.41 132.7,314.25 144.44,310 C170.78,300.47 193.8522,293.2778 221.1022,285.6478" fill="none" id="VisualTracking-to-CU03" style="stroke:#181818;stroke-width:1;"/><polygon fill="#181818" points="226.88,284.03,217.1348,282.6048,222.0652,285.3781,219.2918,290.3085,226.88,284.03" style="stroke:#181818;stroke-width:1;"/></g><!--link VisualTracking to CU03_Frontend--><g class="link" data-entity-1="ent0002" data-entity-2="ent0011" data-link-type="dependency" data-source-line="22" id="lnk15"><path d="M108.94,372.93 C153.39,393.91 213.0838,422.0794 262.8838,445.5794" fill="none" id="VisualTracking-to-CU03_Frontend" style="stroke:#181818;stroke-width:1;"/><polygon fill="#181818" points="268.31,448.14,261.8777,440.6817,263.7882,446.0062,258.4637,447.9166,268.31,448.14" style="stroke:#181818;stroke-width:1;"/></g><!--link VisualTracking to CU04--><g class="link" data-entity-1="ent0002" data-entity-2="ent0010" data-link-type="dependency" data-source-line="23" id="lnk16"><path d="M65.37,387.52 C75.41,430.4 97.93,498.57 144.44,536 C168.96,555.73 194.7084,565.6941 225.3584,571.8741" fill="none" id="VisualTracking-to-CU04" style="stroke:#181818;stroke-width:1;"/><polygon fill="#181818" points="231.24,573.06,223.2082,567.36,226.3386,572.0717,221.6269,575.2022,231.24,573.06" style="stroke:#181818;stroke-width:1;"/></g><!--link VisualTracking to CU05--><g class="link" data-entity-1="ent0002" data-entity-2="ent0004" data-link-type="dependency" data-source-line="24" id="lnk17"><path d="M108.94,349 C146.81,349 193.69,349 239.31,349" fill="none" id="VisualTracking-to-CU05" style="stroke:#181818;stroke-width:1;"/><polygon fill="#181818" points="245.31,349,236.31,345,240.31,349,236.31,353,245.31,349" style="stroke:#181818;stroke-width:1;"/></g><!--link VisualTracking to CU05_Frontend--><g class="link" data-entity-1="ent0002" data-entity-2="ent0009" data-link-type="dependency" data-source-line="25" id="lnk18"><path d="M58.76,387.5 C61.79,446.9 76.72,560.36 144.44,621 C171.79,645.49 204.0749,655.647 239.4949,660.007" fill="none" id="VisualTracking-to-CU05_Frontend" style="stroke:#181818;stroke-width:1;"/><polygon fill="#181818" points="245.45,660.74,237.0061,655.6704,240.4875,660.1291,236.0287,663.6105,245.45,660.74" style="stroke:#181818;stroke-width:1;"/></g><?plantuml-src fL4xJWCn4ErzYgVjLqhsqrAmIjeqX1PDR6UnSEp8dm8GX-4C724NmydYXAoo1Q8RFRtFl1ajjm71mgd-EK0e9tbGrZ16F5Y7H-KZwGT7_4MPdh5z6gYNAExJ88qeyCw0w2Kddz1kNSvQB9KEZeI5a10Kh2z07jrwrewvDJgxYqPnukhmPI1DS1ARmHkls3fhmYbcCAZ71XMwmwVcKH_3D5QBHQPMO-eSgqto6eBoPiTXxwo8_8HdyPonZrzbb-Sr_jJsAUl6ekRdhkgDhjV9qkRVXxfafoBNNqHPtWqbR-FL15vFuPUisuHc0c-dyBFXDm00?></g></svg>