<svg xmlns="http://www.w3.org/2000/svg" xmlns:xlink="http://www.w3.org/1999/xlink" contentStyleType="text/css" data-diagram-type="STATE" height="421px" preserveAspectRatio="none" style="width:833px;height:421px;background:#FFFFFF;" version="1.1" viewBox="0 0 833 421" width="833px" zoomAndPan="magnify"><?plantuml 1.2026.3beta6?><defs/><g><g class="start_entity" data-qualified-name=".start." data-source-line="1" id="ent0002"><ellipse cx="373.17" cy="16" fill="#222222" rx="10" ry="10" style="stroke:#222222;stroke-width:1;"/></g><g class="entity" data-qualified-name="COMUNICACION_ENTRE_BACK_Y_FRONT" id="ent0003"><rect fill="#F1F1F1" height="50" rx="12.5" ry="12.5" style="stroke:#181818;stroke-width:0.5;" width="301.4287" x="222.45" y="103"/><line style="stroke:#181818;stroke-width:0.5;" x1="222.45" x2="523.8787" y1="129.2969" y2="129.2969"/><text fill="#000000" font-family="sans-serif" font-size="14" lengthAdjust="spacing" textLength="281.4287" x="232.45" y="120.9951">COMUNICACION_ENTRE_BACK_Y_FRONT</text></g><g class="entity" data-qualified-name="OBTENCION_DE_DATOS" id="ent0005"><rect fill="#F1F1F1" height="50" rx="12.5" ry="12.5" style="stroke:#181818;stroke-width:0.5;" width="186.332" x="7" y="230"/><line style="stroke:#181818;stroke-width:0.5;" x1="7" x2="193.332" y1="256.2969" y2="256.2969"/><text fill="#000000" font-family="sans-serif" font-size="14" lengthAdjust="spacing" textLength="166.332" x="17" y="247.9951">OBTENCION_DE_DATOS</text></g><g class="entity" data-qualified-name="CALCULO" id="ent0007"><rect fill="#F1F1F1" height="50" rx="12.5" ry="12.5" style="stroke:#181818;stroke-width:0.5;" width="85.9941" x="169.17" y="357"/><line style="stroke:#181818;stroke-width:0.5;" x1="169.17" x2="255.1641" y1="383.2969" y2="383.2969"/><text fill="#000000" font-family="sans-serif" font-size="14" lengthAdjust="spacing" textLength="65.9941" x="179.17" y="374.9951">CALCULO</text></g><g class="entity" data-qualified-name="VISUALIZACION_DE_DATOS" id="ent0010"><rect fill="#F1F1F1" height="50" rx="12.5" ry="12.5" style="stroke:#181818;stroke-width:0.5;" width="211.3516" x="378.49" y="230"/><line style="stroke:#181818;stroke-width:0.5;" x1="378.49" x2="589.8416" y1="256.2969" y2="256.2969"/><text fill="#000000" font-family="sans-serif" font-size="14" lengthAdjust="spacing" textLength="191.3516" x="388.49" y="247.9951">VISUALIZACION_DE_DATOS</text></g><g class="entity" data-qualified-name="FILTRADO_DE_DATOS" id="ent0012"><rect fill="#F1F1F1" height="50" rx="12.5" ry="12.5" style="stroke:#181818;stroke-width:0.5;" width="172.0791" x="525.13" y="357"/><line style="stroke:#181818;stroke-width:0.5;" x1="525.13" x2="697.2091" y1="383.2969" y2="383.2969"/><text fill="#000000" font-family="sans-serif" font-size="14" lengthAdjust="spacing" textLength="152.0791" x="535.13" y="374.9951">FILTRADO_DE_DATOS</text></g><g class="end_entity" data-qualified-name=".end." data-source-line="13" id="ent0015"><ellipse cx="426.17" cy="382" fill="none" rx="11" ry="11" style="stroke:#222222;stroke-width:1;"/><ellipse cx="426.17" cy="382" fill="#222222" rx="6" ry="6" style="stroke:#222222;stroke-width:1;"/></g><!--link *start* to COMUNICACION_ENTRE_BACK_Y_FRONT--><g class="link" data-entity-1="ent0002" data-entity-2="ent0003" data-link-type="dependency" data-source-line="1" id="lnk4"><path d="M373.17,26.38 C373.17,43.11 373.17,72.59 373.17,96.63" fill="none" id="*start*-to-COMUNICACION_ENTRE_BACK_Y_FRONT" style="stroke:#181818;stroke-width:1;"/><polygon fill="#181818" points="373.17,102.63,377.17,93.63,373.17,97.63,369.17,93.63,373.17,102.63" style="stroke:#181818;stroke-width:1;"/><text fill="#000000" font-family="sans-serif" font-size="13" lengthAdjust="spacing" textLength="226.7319" x="374.17" y="69.0669">navegaci&#243;n a pesta&#241;a rendimiento</text></g><!--link COMUNICACION_ENTRE_BACK_Y_FRONT to OBTENCION_DE_DATOS--><g class="link" data-entity-1="ent0003" data-entity-2="ent0005" data-link-type="dependency" data-source-line="2" id="lnk6"><path d="M307.93,153.37 C285.31,162.22 259.93,172.61 237.17,183 C205.73,197.35 176.4658,212.4209 149.9358,226.6709" fill="none" id="COMUNICACION_ENTRE_BACK_Y_FRONT-to-OBTENCION_DE_DATOS" style="stroke:#181818;stroke-width:1;"/><polygon fill="#181818" points="144.65,229.51,154.4714,228.7751,149.0548,227.1441,150.6859,221.7275,144.65,229.51" style="stroke:#181818;stroke-width:1;"/></g><!--link OBTENCION_DE_DATOS to CALCULO--><g class="link" data-entity-1="ent0005" data-entity-2="ent0007" data-link-type="dependency" data-source-line="4" id="lnk8"><path d="M122.03,280.4 C141.76,302.42 166.6352,330.1922 186.3552,352.1922" fill="none" id="OBTENCION_DE_DATOS-to-CALCULO" style="stroke:#181818;stroke-width:1;"/><polygon fill="#181818" points="190.36,356.66,187.3313,347.2884,187.0227,352.9368,181.3742,352.6281,190.36,356.66" style="stroke:#181818;stroke-width:1;"/></g><!--link CALCULO to COMUNICACION_ENTRE_BACK_Y_FRONT--><g class="link" data-entity-1="ent0007" data-entity-2="ent0003" data-link-type="dependency" data-source-line="6" id="lnk9"><path d="M220.65,356.53 C231.96,325.62 253.76,271.49 281.17,230 C300.12,201.3 322.829,176.9037 342.679,157.5037" fill="none" id="CALCULO-to-COMUNICACION_ENTRE_BACK_Y_FRONT" style="stroke:#181818;stroke-width:1;"/><polygon fill="#181818" points="346.97,153.31,337.7377,156.7399,343.3942,156.8048,343.3293,162.4613,346.97,153.31" style="stroke:#181818;stroke-width:1;"/><text fill="#000000" font-family="sans-serif" font-size="13" lengthAdjust="spacing" textLength="78.3999" x="282.17" y="259.5669">pasa a front</text></g><!--link COMUNICACION_ENTRE_BACK_Y_FRONT to VISUALIZACION_DE_DATOS--><g class="link" data-entity-1="ent0003" data-entity-2="ent0010" data-link-type="dependency" data-source-line="8" id="lnk11"><path d="M394.83,153.4 C414.39,175.42 439.0244,203.175 458.5744,225.175" fill="none" id="COMUNICACION_ENTRE_BACK_Y_FRONT-to-VISUALIZACION_DE_DATOS" style="stroke:#181818;stroke-width:1;"/><polygon fill="#181818" points="462.56,229.66,459.5717,220.2754,459.2387,225.9225,453.5917,225.5895,462.56,229.66" style="stroke:#181818;stroke-width:1;"/><text fill="#000000" font-family="sans-serif" font-size="13" lengthAdjust="spacing" textLength="149.5635" x="437.17" y="196.0669">pasa datos desde back</text></g><!--link FILTRADO_DE_DATOS to COMUNICACION_ENTRE_BACK_Y_FRONT--><g class="link" data-entity-1="ent0012" data-entity-2="ent0003" data-link-type="dependency" data-source-line="10" id="lnk13"><path d="M629.29,356.72 C634.88,347.84 640.31,337.4 643.17,327 C661,261.94 645.7,227.69 595.17,183 C582.17,171.5 557.9556,162.9548 524.0256,154.8448" fill="none" id="FILTRADO_DE_DATOS-to-COMUNICACION_ENTRE_BACK_Y_FRONT" style="stroke:#181818;stroke-width:1;"/><polygon fill="#181818" points="518.19,153.45,526.0135,159.4327,523.053,154.6124,527.8733,151.6518,518.19,153.45" style="stroke:#181818;stroke-width:1;"/><text fill="#000000" font-family="sans-serif" font-size="13" lengthAdjust="spacing" textLength="165.9023" x="651.17" y="259.5669">pasa a back nuevo splitId</text></g><!--link VISUALIZACION_DE_DATOS to FILTRADO_DE_DATOS--><g class="link" data-entity-1="ent0010" data-entity-2="ent0012" data-link-type="dependency" data-source-line="11" id="lnk14"><path d="M476.37,280.3 C473.21,295 472.13,313.45 481.17,327 C491.61,342.65 502.0898,351.2609 519.2498,359.1609" fill="none" id="VISUALIZACION_DE_DATOS-to-FILTRADO_DE_DATOS" style="stroke:#181818;stroke-width:1;"/><polygon fill="#181818" points="524.7,361.67,518.1975,354.2729,520.1582,359.5791,514.852,361.5398,524.7,361.67" style="stroke:#181818;stroke-width:1;"/><text fill="#000000" font-family="sans-serif" font-size="13" lengthAdjust="spacing" textLength="156.9141" x="482.17" y="323.0669">cambiar SplitId o fechas</text></g><!--link VISUALIZACION_DE_DATOS to *end*--><g class="link" data-entity-1="ent0010" data-entity-2="ent0015" data-link-type="dependency" data-source-line="13" id="lnk16"><path d="M465.75,280.38 C459.56,289.36 453.01,299.83 448.17,310 C438.29,330.74 432.8455,351.1105 429.6355,365.1705" fill="none" id="VISUALIZACION_DE_DATOS-to-*end*" style="stroke:#181818;stroke-width:1;"/><polygon fill="#181818" points="428.3,371.02,434.2029,363.1361,429.4129,366.1454,426.4036,361.3555,428.3,371.02" style="stroke:#181818;stroke-width:1;"/></g><?plantuml-src ZOx1QW8n443lynLp5lm13uMONI5qcy1kjj2AX74Jsr1Dbatqlqe_mHzhtNffAzNRCCoyzvQJ5KwdTyZLGoi5PrmeQKgfwzBC6RytJsPHAwbd6EZWNgZpnu-0XBrBcOxlX8CBrk-y2pd25SReKNDTol6WA4t1j6eGuC9oR68LRoi5S1vk2-qfqLVXPeWXmxMc4_5HD2shn3FxKN06MSeneNN9EbnJzmQm49MkMQ5-jTwOTM9WsBj3nDHlVHOMBlj7wb_N33lQhJqDs7o_OyIDwrufmN-WvMJr2G00?></g></svg>