<svg xmlns="http://www.w3.org/2000/svg" xmlns:xlink="http://www.w3.org/1999/xlink" contentStyleType="text/css" data-diagram-type="STATE" height="500px" preserveAspectRatio="none" style="width:467px;height:500px;background:#FFFFFF;" version="1.1" viewBox="0 0 467 500" width="467px" zoomAndPan="magnify"><?plantuml 1.2026.3beta6?><defs/><g><g class="start_entity" data-qualified-name=".start." data-source-line="1" id="ent0002"><ellipse cx="223.68" cy="16" fill="#222222" rx="10" ry="10" style="stroke:#222222;stroke-width:1;"/></g><g class="entity" data-qualified-name="OBTENCI.N_DE_DATOS" id="ent0003"><rect fill="#F1F1F1" height="50" rx="12.5" ry="12.5" style="stroke:#181818;stroke-width:0.5;" width="186.332" x="130.51" y="103"/><line style="stroke:#181818;stroke-width:0.5;" x1="130.51" x2="316.842" y1="129.2969" y2="129.2969"/><text fill="#000000" font-family="sans-serif" font-size="14" lengthAdjust="spacing" textLength="166.332" x="140.51" y="120.9951">OBTENCI&#211;N_DE_DATOS</text></g><g class="entity" data-qualified-name="C.LCULO" id="ent0005"><rect fill="#F1F1F1" height="50" rx="12.5" ry="12.5" style="stroke:#181818;stroke-width:0.5;" width="85.9941" x="116.68" y="214"/><line style="stroke:#181818;stroke-width:0.5;" x1="116.68" x2="202.6741" y1="240.2969" y2="240.2969"/><text fill="#000000" font-family="sans-serif" font-size="14" lengthAdjust="spacing" textLength="65.9941" x="126.68" y="231.9951">C&#193;LCULO</text></g><g class="entity" data-qualified-name="VISUALIZACI.N_DE_DATOS" id="ent0007"><rect fill="#F1F1F1" height="50" rx="12.5" ry="12.5" style="stroke:#181818;stroke-width:0.5;" width="211.3516" x="7" y="325"/><line style="stroke:#181818;stroke-width:0.5;" x1="7" x2="218.3516" y1="351.2969" y2="351.2969"/><text fill="#000000" font-family="sans-serif" font-size="14" lengthAdjust="spacing" textLength="191.3516" x="17" y="342.9951">VISUALIZACI&#211;N_DE_DATOS</text></g><g class="entity" data-qualified-name="SELECCI.N_DE_PARTICI.N" id="ent0009"><rect fill="#F1F1F1" height="50" rx="12.5" ry="12.5" style="stroke:#181818;stroke-width:0.5;" width="209" x="163.18" y="436"/><line style="stroke:#181818;stroke-width:0.5;" x1="163.18" x2="372.18" y1="462.2969" y2="462.2969"/><text fill="#000000" font-family="sans-serif" font-size="14" lengthAdjust="spacing" textLength="189" x="173.18" y="453.9951">SELECCI&#211;N_DE_PARTICI&#211;N</text></g><g class="end_entity" data-qualified-name=".end." data-source-line="11" id="ent0012"><ellipse cx="112.68" cy="461" fill="none" rx="11" ry="11" style="stroke:#222222;stroke-width:1;"/><ellipse cx="112.68" cy="461" fill="#222222" rx="6" ry="6" style="stroke:#222222;stroke-width:1;"/></g><!--link *start* to OBTENCI?N_DE_DATOS--><g class="link" data-entity-1="ent0002" data-entity-2="ent0003" data-link-type="dependency" data-source-line="1" id="lnk4"><path d="M223.68,26.38 C223.68,43.11 223.68,72.59 223.68,96.63" fill="none" id="*start*-to-OBTENCI&#211;N_DE_DATOS" style="stroke:#181818;stroke-width:1;"/><polygon fill="#181818" points="223.68,102.63,227.68,93.63,223.68,97.63,219.68,93.63,223.68,102.63" style="stroke:#181818;stroke-width:1;"/><text fill="#000000" font-family="sans-serif" font-size="13" lengthAdjust="spacing" textLength="226.7319" x="224.68" y="69.0669">navegaci&#243;n a pesta&#241;a rendimiento</text></g><!--link OBTENCI?N_DE_DATOS to C?LCULO--><g class="link" data-entity-1="ent0003" data-entity-2="ent0005" data-link-type="dependency" data-source-line="3" id="lnk6"><path d="M209.31,153.46 C198.77,171.41 187.5585,190.5162 177.0285,208.4462" fill="none" id="OBTENCI&#211;N_DE_DATOS-to-C&#193;LCULO" style="stroke:#181818;stroke-width:1;"/><polygon fill="#181818" points="173.99,213.62,181.9969,207.885,176.5221,209.3085,175.0985,203.8337,173.99,213.62" style="stroke:#181818;stroke-width:1;"/></g><!--link C?LCULO to VISUALIZACI?N_DE_DATOS--><g class="link" data-entity-1="ent0005" data-entity-2="ent0007" data-link-type="dependency" data-source-line="5" id="lnk8"><path d="M149.13,264.46 C141.39,282.41 133.2954,301.1802 125.5654,319.1102" fill="none" id="C&#193;LCULO-to-VISUALIZACI&#211;N_DE_DATOS" style="stroke:#181818;stroke-width:1;"/><polygon fill="#181818" points="123.19,324.62,130.4262,317.9389,125.1695,320.0285,123.0799,314.7718,123.19,324.62" style="stroke:#181818;stroke-width:1;"/></g><!--link VISUALIZACI?N_DE_DATOS to SELECCI?N_DE_PARTICI?N--><g class="link" data-entity-1="ent0007" data-entity-2="ent0009" data-link-type="dependency" data-source-line="7" id="lnk10"><path d="M147.46,375.46 C172.99,393.41 202.6019,414.2389 228.1019,432.1689" fill="none" id="VISUALIZACI&#211;N_DE_DATOS-to-SELECCI&#211;N_DE_PARTICI&#211;N" style="stroke:#181818;stroke-width:1;"/><polygon fill="#181818" points="233.01,435.62,227.9485,427.1713,228.9199,432.7441,223.347,433.7154,233.01,435.62" style="stroke:#181818;stroke-width:1;"/></g><!--link SELECCI?N_DE_PARTICI?N to OBTENCI?N_DE_DATOS--><g class="link" data-entity-1="ent0009" data-entity-2="ent0003" data-link-type="dependency" data-source-line="9" id="lnk11"><path d="M264.44,435.63 C256.29,374.37 235.8409,220.4976 227.7009,159.2876" fill="none" id="SELECCI&#211;N_DE_PARTICI&#211;N-to-OBTENCI&#211;N_DE_DATOS" style="stroke:#181818;stroke-width:1;"/><polygon fill="#181818" points="226.91,153.34,224.1313,162.7888,227.5691,158.2964,232.0615,161.7342,226.91,153.34" style="stroke:#181818;stroke-width:1;"/></g><!--link VISUALIZACI?N_DE_DATOS to *end*--><g class="link" data-entity-1="ent0007" data-entity-2="ent0012" data-link-type="dependency" data-source-line="11" id="lnk13"><path d="M112.68,375.46 C112.68,398.81 112.68,426.86 112.68,443.73" fill="none" id="VISUALIZACI&#211;N_DE_DATOS-to-*end*" style="stroke:#181818;stroke-width:1;"/><polygon fill="#181818" points="112.68,449.73,116.68,440.73,112.68,444.73,108.68,440.73,112.68,449.73" style="stroke:#181818;stroke-width:1;"/></g><?plantuml-src YzQALT3LjLFmTmfnzNFsF3pPBzx5DTx5CSG_MC5A8I-nB3KzCJdpyEOyXKI5WjJYaiJ36nCLYbBpKZ9pCrFpIlAvkB3f19deVBZHnpdKnv-B2yO22uTv1eSw-dX6EQ9guUB28G7M5Epgu-eC5mzm30hn1FEuk739uF8JJdj06gArOW40?></g></svg>