<svg xmlns="http://www.w3.org/2000/svg" xmlns:xlink="http://www.w3.org/1999/xlink" contentStyleType="text/css" data-diagram-type="DESCRIPTION" height="199px" preserveAspectRatio="none" style="width:488px;height:199px;background:#FFFFFF;" version="1.1" viewBox="0 0 488 199" width="488px" zoomAndPan="magnify"><?plantuml 1.2026.3beta6?><defs/><g><!--cluster Frontend--><g class="cluster" data-qualified-name="Frontend" data-source-line="5" id="ent0003"><path d="M218.97,6 L292.1985,6 A3.75,3.75 0 0 1 294.6985,8.5 L301.6985,28.2969 L471.18,28.2969 A2.5,2.5 0 0 1 473.68,30.7969 L473.68,181.5 A2.5,2.5 0 0 1 471.18,184 L218.97,184 A2.5,2.5 0 0 1 216.47,181.5 L216.47,8.5 A2.5,2.5 0 0 1 218.97,6" fill="none" style="stroke:#000000;stroke-width:1.5;"/><line style="stroke:#000000;stroke-width:1.5;" x1="216.47" x2="301.6985" y1="28.2969" y2="28.2969"/><text fill="#000000" font-family="sans-serif" font-size="14" font-weight="700" lengthAdjust="spacing" textLength="72.2285" x="220.47" y="20.9951">Frontend</text></g><!--entity CU05--><g class="entity" data-qualified-name="Frontend.CU05" data-source-line="6" id="ent0004"><ellipse cx="345.0688" cy="147.0018" fill="#F1F1F1" rx="95.3088" ry="21.4618" style="stroke:#181818;stroke-width:0.5;"/><text fill="#000000" font-family="sans-serif" font-size="14" lengthAdjust="spacing" textLength="165.6621" x="262.2377" y="151.6502">CU-05 Filtrado de datos</text></g><!--entity CU04--><g class="entity" data-qualified-name="Frontend.CU04" data-source-line="7" id="ent0005"><ellipse cx="345.0733" cy="66.0007" fill="#F1F1F1" rx="112.6033" ry="24.9207" style="stroke:#181818;stroke-width:0.5;"/><text fill="#000000" font-family="sans-serif" font-size="14" lengthAdjust="spacing" textLength="203.499" x="243.3238" y="70.6491">CU-04 Visualizaci&#243;n de datos</text></g><!--entity ResponsableProducci?n--><g class="entity" data-qualified-name="ResponsableProducci.n" data-source-line="3" id="ent0002"><ellipse cx="89.2344" cy="77.35" fill="#F1F1F1" rx="8" ry="8" style="stroke:#181818;stroke-width:0.5;"/><path d="M89.2344,85.35 L89.2344,112.35 M76.2344,93.35 L102.2344,93.35 M89.2344,112.35 L76.2344,127.35 M89.2344,112.35 L102.2344,127.35" fill="none" style="stroke:#181818;stroke-width:0.5;"/><text fill="#000000" font-family="sans-serif" font-size="14" lengthAdjust="spacing" textLength="166.4688" x="6" y="141.8451">ResponsableProducci&#243;n</text></g><!--link ResponsableProducci?n to CU04--><g class="link" data-entity-1="ent0002" data-entity-2="ent0005" data-link-type="dependency" data-source-line="10" id="lnk6"><path d="M172.65,93.69 C198.42,89.53 221.0668,85.8668 247.3768,81.6168" fill="none" id="ResponsableProducci&#243;n-to-CU04" style="stroke:#181818;stroke-width:1;"/><polygon fill="#181818" points="253.3,80.66,243.7773,78.1464,248.364,81.4573,245.053,86.044,253.3,80.66" style="stroke:#181818;stroke-width:1;"/></g><!--link ResponsableProducci?n to CU05--><g class="link" data-entity-1="ent0002" data-entity-2="ent0004" data-link-type="dependency" data-source-line="11" id="lnk7"><path d="M172.65,119.99 C202.61,124.71 230.4431,129.0963 260.0231,133.7563" fill="none" id="ResponsableProducci&#243;n-to-CU05" style="stroke:#181818;stroke-width:1;"/><polygon fill="#181818" points="265.95,134.69,257.6821,129.3382,261.0109,133.9119,256.4372,137.2407,265.95,134.69" style="stroke:#181818;stroke-width:1;"/></g><?plantuml-src ROwn2i9044Jx-ueXVI15qje4KeiG-_LkZOl7hTnj6iMlyXFyCODQQTfvRvY9V3IO8ijqCWJ9x4qqEKVUD6F7vQAfq27oDckOlPVdOw4NycUQ6DMGDHcdKE7cWBcmfxB4_LWt7GQ9bYae0YEGQQb01VtOTBzkYxsKcQ9SwRtmrsZTtRdrDtMz-HZh65_UlG00?></g></svg>