<svg xmlns="http://www.w3.org/2000/svg" xmlns:xlink="http://www.w3.org/1999/xlink" contentStyleType="text/css" data-diagram-type="STATE" height="1025px" preserveAspectRatio="none" style="width:442px;height:1025px;background:#FFFFFF;" version="1.1" viewBox="0 0 442 1025" width="442px" zoomAndPan="magnify"><?plantuml 1.2026.3beta6?><defs/><g><g class="start_entity" data-qualified-name=".start." data-source-line="1" id="ent0002"><ellipse cx="349.34" cy="16" fill="#222222" rx="10" ry="10" style="stroke:#222222;stroke-width:1;"/></g><g class="entity" data-qualified-name="PeticionRecibida" id="ent0003"><rect fill="#F1F1F1" height="50" rx="12.5" ry="12.5" style="stroke:#181818;stroke-width:0.5;" width="135.6299" x="281.52" y="87"/><line style="stroke:#181818;stroke-width:0.5;" x1="281.52" x2="417.1499" y1="113.2969" y2="113.2969"/><text fill="#000000" font-family="sans-serif" font-size="14" lengthAdjust="spacing" textLength="115.6299" x="291.52" y="104.9951">PeticionRecibida</text></g><g class="entity" data-qualified-name="ComprobandoDatos" id="ent0005"><rect fill="#F1F1F1" height="50" rx="12.5" ry="12.5" style="stroke:#181818;stroke-width:0.5;" width="159.6855" x="191.5" y="198"/><line style="stroke:#181818;stroke-width:0.5;" x1="191.5" x2="351.1855" y1="224.2969" y2="224.2969"/><text fill="#000000" font-family="sans-serif" font-size="14" lengthAdjust="spacing" textLength="139.6855" x="201.5" y="215.9951">ComprobandoDatos</text></g><g class="entity" data-qualified-name="DatosDisponibles" id="ent0007"><rect fill="#F1F1F1" height="50" rx="12.5" ry="12.5" style="stroke:#181818;stroke-width:0.5;" width="141.5703" x="144.55" y="452"/><line style="stroke:#181818;stroke-width:0.5;" x1="144.55" x2="286.1203" y1="478.2969" y2="478.2969"/><text fill="#000000" font-family="sans-serif" font-size="14" lengthAdjust="spacing" textLength="121.5703" x="154.55" y="469.9951">DatosDisponibles</text></g><g class="entity" data-qualified-name="EsperandoDatos" id="ent0009"><rect fill="#F1F1F1" height="50" rx="12.5" ry="12.5" style="stroke:#181818;stroke-width:0.5;" width="135.0078" x="65.84" y="325"/><line style="stroke:#181818;stroke-width:0.5;" x1="65.84" x2="200.8478" y1="351.2969" y2="351.2969"/><text fill="#000000" font-family="sans-serif" font-size="14" lengthAdjust="spacing" textLength="115.0078" x="75.84" y="342.9951">EsperandoDatos</text></g><g class="entity" data-qualified-name="Error" id="ent0012"><rect fill="#F1F1F1" height="50" rx="12.5" ry="12.5" style="stroke:#181818;stroke-width:0.5;" width="54.6787" x="7" y="532"/><line style="stroke:#181818;stroke-width:0.5;" x1="7" x2="61.6787" y1="558.2969" y2="558.2969"/><text fill="#000000" font-family="sans-serif" font-size="14" lengthAdjust="spacing" textLength="34.6787" x="17" y="549.9951">Error</text></g><g class="entity" data-qualified-name="Calculando" id="ent0014"><rect fill="#F1F1F1" height="50" rx="12.5" ry="12.5" style="stroke:#181818;stroke-width:0.5;" width="97.6084" x="166.54" y="612"/><line style="stroke:#181818;stroke-width:0.5;" x1="166.54" x2="264.1484" y1="638.2969" y2="638.2969"/><text fill="#000000" font-family="sans-serif" font-size="14" lengthAdjust="spacing" textLength="77.6084" x="176.54" y="629.9951">Calculando</text></g><g class="entity" data-qualified-name="CalculoCompletado" id="ent0016"><rect fill="#F1F1F1" height="50" rx="12.5" ry="12.5" style="stroke:#181818;stroke-width:0.5;" width="156.1582" x="137.26" y="723"/><line style="stroke:#181818;stroke-width:0.5;" x1="137.26" x2="293.4182" y1="749.2969" y2="749.2969"/><text fill="#000000" font-family="sans-serif" font-size="14" lengthAdjust="spacing" textLength="136.1582" x="147.26" y="740.9951">CalculoCompletado</text></g><g class="entity" data-qualified-name="ResultadosGraficados" id="ent0018"><rect fill="#F1F1F1" height="50" rx="12.5" ry="12.5" style="stroke:#181818;stroke-width:0.5;" width="172.2363" x="129.22" y="850"/><line style="stroke:#181818;stroke-width:0.5;" x1="129.22" x2="301.4563" y1="876.2969" y2="876.2969"/><text fill="#000000" font-family="sans-serif" font-size="14" lengthAdjust="spacing" textLength="152.2363" x="139.22" y="867.9951">ResultadosGraficados</text></g><g class="entity" data-qualified-name="FiltroSplitId" id="ent0020"><rect fill="#F1F1F1" height="50" rx="12.5" ry="12.5" style="stroke:#181818;stroke-width:0.5;" width="99.7002" x="233.49" y="961"/><line style="stroke:#181818;stroke-width:0.5;" x1="233.49" x2="333.1902" y1="987.2969" y2="987.2969"/><text fill="#000000" font-family="sans-serif" font-size="14" lengthAdjust="spacing" textLength="79.7002" x="243.49" y="978.9951">FiltroSplitId</text></g><g class="end_entity" data-qualified-name=".end." data-source-line="20" id="ent0023"><ellipse cx="166.34" cy="986" fill="none" rx="11" ry="11" style="stroke:#222222;stroke-width:1;"/><ellipse cx="166.34" cy="986" fill="#222222" rx="6" ry="6" style="stroke:#222222;stroke-width:1;"/></g><!--link *start* to PeticionRecibida--><g class="link" data-entity-1="ent0002" data-entity-2="ent0003" data-link-type="dependency" data-source-line="1" id="lnk4"><path d="M349.34,26.36 C349.34,40.29 349.34,60.95 349.34,80.65" fill="none" id="*start*-to-PeticionRecibida" style="stroke:#181818;stroke-width:1;"/><polygon fill="#181818" points="349.34,86.65,353.34,77.65,349.34,81.65,345.34,77.65,349.34,86.65" style="stroke:#181818;stroke-width:1;"/></g><!--link PeticionRecibida to ComprobandoDatos--><g class="link" data-entity-1="ent0003" data-entity-2="ent0005" data-link-type="dependency" data-source-line="3" id="lnk6"><path d="M331.83,137.46 C318.99,155.41 305.1115,174.8105 292.2815,192.7405" fill="none" id="PeticionRecibida-to-ComprobandoDatos" style="stroke:#181818;stroke-width:1;"/><polygon fill="#181818" points="288.79,197.62,297.2803,192.6285,291.6996,193.5538,290.7743,187.9731,288.79,197.62" style="stroke:#181818;stroke-width:1;"/></g><!--link ComprobandoDatos to DatosDisponibles--><g class="link" data-entity-1="ent0005" data-entity-2="ent0007" data-link-type="dependency" data-source-line="5" id="lnk8"><path d="M272.08,248.23 C272.51,286.33 270.28,362.09 249.34,422 C245.72,432.35 243.1365,437.7799 237.2465,446.6599" fill="none" id="ComprobandoDatos-to-DatosDisponibles" style="stroke:#181818;stroke-width:1;"/><polygon fill="#181818" points="233.93,451.66,242.2381,446.3709,236.6937,447.4933,235.5714,441.9489,233.93,451.66" style="stroke:#181818;stroke-width:1;"/><text fill="#000000" font-family="sans-serif" font-size="13" lengthAdjust="spacing" textLength="101.5879" x="269.34" y="354.5669">Datos cargados</text></g><!--link ComprobandoDatos to EsperandoDatos--><g class="link" data-entity-1="ent0005" data-entity-2="ent0009" data-link-type="dependency" data-source-line="6" id="lnk10"><path d="M191.17,247.9 C176.23,255.48 161.99,265.31 151.34,278 C140.47,290.96 136.728,303.6507 134.978,318.5907" fill="none" id="ComprobandoDatos-to-EsperandoDatos" style="stroke:#181818;stroke-width:1;"/><polygon fill="#181818" points="134.28,324.55,139.2999,316.0765,134.8617,319.584,131.3542,315.1458,134.28,324.55" style="stroke:#181818;stroke-width:1;"/><text fill="#000000" font-family="sans-serif" font-size="13" lengthAdjust="spacing" textLength="92.771" x="152.34" y="291.0669">Solicitar datos</text></g><!--link EsperandoDatos to DatosDisponibles--><g class="link" data-entity-1="ent0009" data-entity-2="ent0007" data-link-type="dependency" data-source-line="8" id="lnk11"><path d="M132.23,375.21 C132.62,389.7 135.04,407.96 143.34,422 C150.25,433.7 155.9615,440.1148 166.8515,448.1948" fill="none" id="EsperandoDatos-to-DatosDisponibles" style="stroke:#181818;stroke-width:1;"/><polygon fill="#181818" points="171.67,451.77,166.8257,443.1949,167.6546,448.7907,162.0588,449.6196,171.67,451.77" style="stroke:#181818;stroke-width:1;"/><text fill="#000000" font-family="sans-serif" font-size="13" lengthAdjust="spacing" textLength="100.877" x="144.34" y="418.0669">Datos recibidos</text></g><!--link EsperandoDatos to Error--><g class="link" data-entity-1="ent0009" data-entity-2="ent0012" data-link-type="dependency" data-source-line="9" id="lnk13"><path d="M74,375.39 C61.94,383.09 50.71,392.85 43.34,405 C19.58,444.19 23.0497,494.1906 28.2897,525.8306" fill="none" id="EsperandoDatos-to-Error" style="stroke:#181818;stroke-width:1;"/><polygon fill="#181818" points="29.27,531.75,31.7458,522.2174,28.4531,526.8172,23.8533,523.5245,29.27,531.75" style="stroke:#181818;stroke-width:1;"/><text fill="#000000" font-family="sans-serif" font-size="13" lengthAdjust="spacing" textLength="84.1191" x="44.34" y="418.0669">timeout(45s)</text></g><!--link DatosDisponibles to Calculando--><g class="link" data-entity-1="ent0007" data-entity-2="ent0014" data-link-type="dependency" data-source-line="11" id="lnk15"><path d="M215.34,502.34 C215.34,532.03 215.34,575.93 215.34,605.63" fill="none" id="DatosDisponibles-to-Calculando" style="stroke:#181818;stroke-width:1;"/><polygon fill="#181818" points="215.34,611.63,219.34,602.63,215.34,606.63,211.34,602.63,215.34,611.63" style="stroke:#181818;stroke-width:1;"/><text fill="#000000" font-family="sans-serif" font-size="13" lengthAdjust="spacing" textLength="89.5654" x="216.34" y="561.5669">Iniciar calculo</text></g><!--link Calculando to CalculoCompletado--><g class="link" data-entity-1="ent0014" data-entity-2="ent0016" data-link-type="dependency" data-source-line="13" id="lnk17"><path d="M215.34,662.46 C215.34,680.41 215.34,698.69 215.34,716.62" fill="none" id="Calculando-to-CalculoCompletado" style="stroke:#181818;stroke-width:1;"/><polygon fill="#181818" points="215.34,722.62,219.34,713.62,215.34,717.62,211.34,713.62,215.34,722.62" style="stroke:#181818;stroke-width:1;"/></g><!--link CalculoCompletado to ResultadosGraficados--><g class="link" data-entity-1="ent0016" data-entity-2="ent0018" data-link-type="dependency" data-source-line="15" id="lnk19"><path d="M215.34,773.4 C215.34,795.42 215.34,821.66 215.34,843.66" fill="none" id="CalculoCompletado-to-ResultadosGraficados" style="stroke:#181818;stroke-width:1;"/><polygon fill="#181818" points="215.34,849.66,219.34,840.66,215.34,844.66,211.34,840.66,215.34,849.66" style="stroke:#181818;stroke-width:1;"/><text fill="#000000" font-family="sans-serif" font-size="13" lengthAdjust="spacing" textLength="108.6147" x="216.34" y="816.0669">Graficar c&#225;lculos</text></g><!--link ResultadosGraficados to FiltroSplitId--><g class="link" data-entity-1="ent0018" data-entity-2="ent0020" data-link-type="dependency" data-source-line="17" id="lnk21"><path d="M230.6,900.46 C241.8,918.41 253.7633,937.5999 264.9533,955.5299" fill="none" id="ResultadosGraficados-to-FiltroSplitId" style="stroke:#181818;stroke-width:1;"/><polygon fill="#181818" points="268.13,960.62,266.7584,950.8671,265.4828,956.3783,259.9716,955.1027,268.13,960.62" style="stroke:#181818;stroke-width:1;"/></g><!--link FiltroSplitId to PeticionRecibida--><g class="link" data-entity-1="ent0020" data-entity-2="ent0003" data-link-type="dependency" data-source-line="18" id="lnk22"><path d="M333.3,970.03 C374.89,954.11 427.34,924.44 427.34,876 C427.34,222 427.34,222 427.34,222 C427.34,188.03 406.3822,161.4161 384.5822,141.3261" fill="none" id="FiltroSplitId-to-PeticionRecibida" style="stroke:#181818;stroke-width:1;"/><polygon fill="#181818" points="380.17,137.26,384.0775,146.3005,383.8468,140.6484,389.4989,140.4177,380.17,137.26" style="stroke:#181818;stroke-width:1;"/></g><!--link ResultadosGraficados to *end*--><g class="link" data-entity-1="ent0018" data-entity-2="ent0023" data-link-type="dependency" data-source-line="20" id="lnk24"><path d="M204.34,900.46 C193.68,924.19 180.5131,953.4889 173.0531,970.0589" fill="none" id="ResultadosGraficados-to-*end*" style="stroke:#181818;stroke-width:1;"/><polygon fill="#181818" points="170.59,975.53,177.9321,968.9655,172.6426,970.9708,170.6373,965.6813,170.59,975.53" style="stroke:#181818;stroke-width:1;"/></g><!--link Error to *end*--><g class="link" data-entity-1="ent0012" data-entity-2="ent0023" data-link-type="dependency" data-source-line="21" id="lnk25"><path d="M42.59,582.38 C50.85,608.99 62.34,653.02 62.34,692 C62.34,692 62.34,692 62.34,876 C62.34,930.14 124.9321,965.391 150.9621,977.901" fill="none" id="Error-to-*end*" style="stroke:#181818;stroke-width:1;"/><polygon fill="#181818" points="156.37,980.5,149.9909,972.9962,151.8634,978.3341,146.5255,980.2067,156.37,980.5" style="stroke:#181818;stroke-width:1;"/></g><?plantuml-src VP4z3i8m38Ntd28Z8B71qe65FtL3C5OTqYGWIw6kdFH0d8MBuQIWGYbizilt7B-ac9LoFb_9WmsW0UkZrL21KK8CbOIjyTeGLgesk541lH139M6fse1li8RAMI-pJf9QqKKPzetQjhwnr4kPFA7Z7O8YQRhR1iJVkwXRd6qZhYqH4gC1hXRRC5ai_LI8hrafitAwTT7EV5xpGhoFJY9o_lwqXp76SpPmr1Vn9YNmQ7thOkVtfCwWOvN9PytpxxVauinZP9om0nS8Jus3a1lnqOtzgFmzgPYLedkGP_S0?></g></svg>