<svg xmlns="http://www.w3.org/2000/svg" xmlns:xlink="http://www.w3.org/1999/xlink" contentStyleType="text/css" data-diagram-type="CLASS" height="417px" preserveAspectRatio="none" style="width:319px;height:417px;background:#FFFFFF;" version="1.1" viewBox="0 0 319 417" width="319px" zoomAndPan="magnify"><?plantuml 1.2026.3beta6?><defs/><g><!--class Particion--><g class="entity" data-qualified-name="Particion" data-source-line="1" id="ent0002"><rect fill="#F1F1F1" height="80.5938" rx="2.5" ry="2.5" style="stroke:#181818;stroke-width:0.5;" width="99.4385" x="97.86" y="7"/><ellipse cx="115.6756" cy="23" fill="#ADD1B2" rx="11" ry="11" style="stroke:#181818;stroke-width:1;"/><path d="M118.6443,28.6406 Q118.0662,28.9375 117.4256,29.0781 Q116.785,29.2344 116.0818,29.2344 Q113.5818,29.2344 112.2537,27.5938 Q110.9412,25.9375 110.9412,22.8125 Q110.9412,19.6875 112.2537,18.0313 Q113.5818,16.375 116.0818,16.375 Q116.785,16.375 117.4256,16.5313 Q118.0818,16.6875 118.6443,16.9844 L118.6443,19.7031 Q118.0193,19.125 117.4256,18.8594 Q116.8318,18.5781 116.2068,18.5781 Q114.8631,18.5781 114.1756,19.6563 Q113.4881,20.7188 113.4881,22.8125 Q113.4881,24.9063 114.1756,25.9844 Q114.8631,27.0469 116.2068,27.0469 Q116.8318,27.0469 117.4256,26.7813 Q118.0193,26.5 118.6443,25.9219 L118.6443,28.6406 Z " fill="#000000"/><text fill="#000000" font-family="sans-serif" font-size="14" lengthAdjust="spacing" textLength="61.1816" x="130.3013" y="27.8467">Particion</text><line style="stroke:#181818;stroke-width:0.5;" x1="98.86" x2="196.2985" y1="39" y2="39"/><text fill="#000000" font-family="sans-serif" font-size="14" lengthAdjust="spacing" textLength="12.7764" x="103.86" y="55.9951">id</text><text fill="#000000" font-family="sans-serif" font-size="14" lengthAdjust="spacing" textLength="87.4385" x="103.86" y="72.292">infoParticion</text><line style="stroke:#181818;stroke-width:0.5;" x1="98.86" x2="196.2985" y1="79.5938" y2="79.5938"/></g><!--class InfoIndicador--><g class="entity" data-qualified-name="InfoIndicador" data-source-line="6" id="ent0003"><rect fill="#F1F1F1" height="96.8906" rx="2.5" ry="2.5" style="stroke:#181818;stroke-width:0.5;" width="123.7588" x="85.7" y="164.59"/><ellipse cx="100.7" cy="180.59" fill="#ADD1B2" rx="11" ry="11" style="stroke:#181818;stroke-width:1;"/><path d="M103.6688,186.2306 Q103.0906,186.5275 102.45,186.6681 Q101.8094,186.8244 101.1063,186.8244 Q98.6063,186.8244 97.2781,185.1837 Q95.9656,183.5275 95.9656,180.4025 Q95.9656,177.2775 97.2781,175.6212 Q98.6063,173.965 101.1063,173.965 Q101.8094,173.965 102.45,174.1212 Q103.1063,174.2775 103.6688,174.5744 L103.6688,177.2931 Q103.0438,176.715 102.45,176.4494 Q101.8563,176.1681 101.2313,176.1681 Q99.8875,176.1681 99.2,177.2462 Q98.5125,178.3087 98.5125,180.4025 Q98.5125,182.4962 99.2,183.5744 Q99.8875,184.6369 101.2313,184.6369 Q101.8563,184.6369 102.45,184.3712 Q103.0438,184.09 103.6688,183.5119 L103.6688,186.2306 Z " fill="#000000"/><text fill="#000000" font-family="sans-serif" font-size="14" lengthAdjust="spacing" textLength="91.7588" x="114.7" y="185.4367">InfoIndicador</text><line style="stroke:#181818;stroke-width:0.5;" x1="86.7" x2="208.4588" y1="196.59" y2="196.59"/><text fill="#000000" font-family="sans-serif" font-size="14" lengthAdjust="spacing" textLength="73.958" x="91.7" y="213.5851">idParticion</text><text fill="#000000" font-family="sans-serif" font-size="14" lengthAdjust="spacing" textLength="92.0938" x="91.7" y="229.882">tipoIndicador</text><text fill="#000000" font-family="sans-serif" font-size="14" lengthAdjust="spacing" textLength="35.0752" x="91.7" y="246.1789">valor</text><line style="stroke:#181818;stroke-width:0.5;" x1="86.7" x2="208.4588" y1="253.4806" y2="253.4806"/></g><!--class TipoIndicador--><g class="entity" data-qualified-name="TipoIndicador" data-source-line="12" id="ent0004"><rect fill="#F1F1F1" height="64.2969" rx="2.5" ry="2.5" style="stroke:#181818;stroke-width:0.5;" width="127.1563" x="7" y="338.48"/><ellipse cx="22" cy="354.48" fill="#ADD1B2" rx="11" ry="11" style="stroke:#181818;stroke-width:1;"/><path d="M24.9688,360.1206 Q24.3906,360.4175 23.75,360.5581 Q23.1094,360.7144 22.4063,360.7144 Q19.9063,360.7144 18.5781,359.0737 Q17.2656,357.4175 17.2656,354.2925 Q17.2656,351.1675 18.5781,349.5112 Q19.9063,347.855 22.4063,347.855 Q23.1094,347.855 23.75,348.0112 Q24.4063,348.1675 24.9688,348.4644 L24.9688,351.1831 Q24.3438,350.605 23.75,350.3394 Q23.1563,350.0581 22.5313,350.0581 Q21.1875,350.0581 20.5,351.1362 Q19.8125,352.1987 19.8125,354.2925 Q19.8125,356.3862 20.5,357.4644 Q21.1875,358.5269 22.5313,358.5269 Q23.1563,358.5269 23.75,358.2612 Q24.3438,357.98 24.9688,357.4019 L24.9688,360.1206 Z " fill="#000000"/><text fill="#000000" font-family="sans-serif" font-size="14" lengthAdjust="spacing" textLength="95.1563" x="36" y="359.3267">TipoIndicador</text><line style="stroke:#181818;stroke-width:0.5;" x1="8" x2="133.1563" y1="370.48" y2="370.48"/><text fill="#000000" font-family="sans-serif" font-size="14" lengthAdjust="spacing" textLength="54.332" x="13" y="387.4751">nombre</text><line style="stroke:#181818;stroke-width:0.5;" x1="8" x2="133.1563" y1="394.7769" y2="394.7769"/></g><!--class TipoGrafica--><g class="entity" data-qualified-name="TipoGrafica" data-source-line="16" id="ent0005"><rect fill="#F1F1F1" height="64.2969" rx="2.5" ry="2.5" style="stroke:#181818;stroke-width:0.5;" width="112.1719" x="169.49" y="338.48"/><ellipse cx="184.49" cy="354.48" fill="#ADD1B2" rx="11" ry="11" style="stroke:#181818;stroke-width:1;"/><path d="M187.4588,360.1206 Q186.8806,360.4175 186.24,360.5581 Q185.5994,360.7144 184.8963,360.7144 Q182.3963,360.7144 181.0681,359.0737 Q179.7556,357.4175 179.7556,354.2925 Q179.7556,351.1675 181.0681,349.5112 Q182.3963,347.855 184.8963,347.855 Q185.5994,347.855 186.24,348.0112 Q186.8963,348.1675 187.4588,348.4644 L187.4588,351.1831 Q186.8338,350.605 186.24,350.3394 Q185.6463,350.0581 185.0213,350.0581 Q183.6775,350.0581 182.99,351.1362 Q182.3025,352.1987 182.3025,354.2925 Q182.3025,356.3862 182.99,357.4644 Q183.6775,358.5269 185.0213,358.5269 Q185.6463,358.5269 186.24,358.2612 Q186.8338,357.98 187.4588,357.4019 L187.4588,360.1206 Z " fill="#000000"/><text fill="#000000" font-family="sans-serif" font-size="14" lengthAdjust="spacing" textLength="80.1719" x="198.49" y="359.3267">TipoGrafica</text><line style="stroke:#181818;stroke-width:0.5;" x1="170.49" x2="280.6619" y1="370.48" y2="370.48"/><text fill="#000000" font-family="sans-serif" font-size="14" lengthAdjust="spacing" textLength="54.332" x="175.49" y="387.4751">nombre</text><line style="stroke:#181818;stroke-width:0.5;" x1="170.49" x2="280.6619" y1="394.7769" y2="394.7769"/></g><!--link InfoIndicador to TipoIndicador--><g class="link" data-entity-1="ent0003" data-entity-2="ent0004" data-link-type="association" data-source-line="21" id="lnk6"><path codeLine="21" d="M124.06,261.57 C111.76,286.41 97.05,316.14 86.17,338.12" fill="none" id="InfoIndicador-TipoIndicador" style="stroke:#181818;stroke-width:1;"/><text fill="#000000" font-family="sans-serif" font-size="13" lengthAdjust="spacing" textLength="61.5024" x="110.58" y="304.5469">tipado en</text></g><!--link Particion to InfoIndicador--><g class="link" data-entity-1="ent0002" data-entity-2="ent0003" data-link-type="association" data-source-line="22" id="lnk7"><path codeLine="22" d="M147.58,87.93 C147.58,110.93 147.58,140.06 147.58,164.31" fill="none" id="Particion-InfoIndicador" style="stroke:#181818;stroke-width:1;"/><text fill="#000000" font-family="sans-serif" font-size="13" lengthAdjust="spacing" textLength="32.9443" x="148.58" y="130.6569">tiene</text></g><!--link InfoIndicador to TipoGrafica--><g class="link" data-entity-1="ent0003" data-entity-2="ent0005" data-link-type="association" data-source-line="23" id="lnk8"><path codeLine="23" d="M171.4,261.57 C183.86,286.41 198.76,316.14 209.78,338.12" fill="none" id="InfoIndicador-TipoGrafica" style="stroke:#181818;stroke-width:1;"/><text fill="#000000" font-family="sans-serif" font-size="13" lengthAdjust="spacing" textLength="110.2842" x="193.58" y="304.5469">se representa en</text></g><?plantuml-src ROzH3i8m243_EGKNs0Ls0RC_Fxm0jYmXcNIXZJ_6kqldNAtnfw7mU41OA6SyanK9aXGVW8WIjrVdT1JW2H0sTlBqf542nMGVld7-BR8seYRkj7Xm62xVzRT1q-rgt2CdezcPNm3w1OQXzurrl0V82kqifxgsIh7oVzS-UCJCQBmQPzP2Bdm1?></g></svg>