<svg xmlns="http://www.w3.org/2000/svg" xmlns:xlink="http://www.w3.org/1999/xlink" contentStyleType="text/css" data-diagram-type="ACTIVITY" height="405px" preserveAspectRatio="none" style="width:267px;height:405px;background:#FFFFFF;" version="1.1" viewBox="0 0 267 405" width="267px" zoomAndPan="magnify"><?plantuml 1.2026.3beta6?><defs/><g><ellipse cx="122.6367" cy="25" fill="#222222" rx="10" ry="10" style="stroke:#222222;stroke-width:1;"/><rect fill="#F1F1F1" height="33.9688" rx="12.5" ry="12.5" style="stroke:#181818;stroke-width:0.5;" width="141.1836" x="52.0449" y="55"/><text fill="#000000" font-family="sans-serif" font-size="12" lengthAdjust="spacing" textLength="121.1836" x="62.0449" y="76.1387">Selecciona partici&#243;n</text><rect fill="#F1F1F1" height="33.9688" rx="12.5" ry="12.5" style="stroke:#181818;stroke-width:0.5;" width="141.2305" x="52.0215" y="157.3711"/><text fill="#000000" font-family="sans-serif" font-size="12" lengthAdjust="spacing" textLength="121.2305" x="62.0215" y="178.5098">Esperar informaci&#243;n</text><polygon fill="#F1F1F1" points="37,108.9688,208.2734,108.9688,220.2734,120.9688,208.2734,132.9688,37,132.9688,25,120.9688,37,108.9688" style="stroke:#181818;stroke-width:0.5;"/><text fill="#000000" font-family="sans-serif" font-size="11" lengthAdjust="spacing" textLength="14.9585" x="126.6367" y="143.1792">No</text><text fill="#000000" font-family="sans-serif" font-size="11" lengthAdjust="spacing" textLength="171.2734" x="37" y="124.7769">&#191;Hay informaci&#243;n de partici&#243;n?</text><text fill="#000000" font-family="sans-serif" font-size="11" lengthAdjust="spacing" textLength="10.0386" x="220.2734" y="118.3745">S&#237;</text><polygon fill="#F1F1F1" points="122.6367,211.3398,134.6367,223.3398,122.6367,235.3398,110.6367,223.3398,122.6367,211.3398" style="stroke:#181818;stroke-width:0.5;"/><rect fill="#F1F1F1" height="33.9688" rx="12.5" ry="12.5" style="stroke:#181818;stroke-width:0.5;" width="120.5586" x="62.3574" y="255.3398"/><text fill="#000000" font-family="sans-serif" font-size="12" lengthAdjust="spacing" textLength="100.5586" x="72.3574" y="276.4785">Realizar c&#225;lculos</text><rect fill="#F1F1F1" height="33.9688" rx="12.5" ry="12.5" style="stroke:#181818;stroke-width:0.5;" width="111.1016" x="67.0859" y="309.3086"/><text fill="#000000" font-family="sans-serif" font-size="12" lengthAdjust="spacing" textLength="91.1016" x="77.0859" y="330.4473">Mostrar gr&#225;fica</text><ellipse cx="122.6367" cy="374.2773" fill="none" rx="11" ry="11" style="stroke:#222222;stroke-width:1;"/><ellipse cx="122.6367" cy="374.2773" fill="#222222" rx="6" ry="6" style="stroke:#222222;stroke-width:1;"/><line style="stroke:#181818;stroke-width:1;" x1="122.6367" x2="122.6367" y1="35" y2="55"/><polygon fill="#181818" points="118.6367,45,122.6367,55,126.6367,45,122.6367,49" style="stroke:#181818;stroke-width:1;"/><line style="stroke:#181818;stroke-width:1;" x1="122.6367" x2="122.6367" y1="132.9688" y2="157.3711"/><polygon fill="#181818" points="118.6367,147.3711,122.6367,157.3711,126.6367,147.3711,122.6367,151.3711" style="stroke:#181818;stroke-width:1;"/><line style="stroke:#181818;stroke-width:1;" x1="220.2734" x2="232.2734" y1="120.9688" y2="120.9688"/><polygon fill="#181818" points="228.2734,164.3555,232.2734,174.3555,236.2734,164.3555,232.2734,168.3555" style="stroke:#181818;stroke-width:1;"/><line style="stroke:#181818;stroke-width:1;" x1="232.2734" x2="232.2734" y1="120.9688" y2="223.3398"/><line style="stroke:#181818;stroke-width:1;" x1="232.2734" x2="134.6367" y1="223.3398" y2="223.3398"/><polygon fill="#181818" points="144.6367,219.3398,134.6367,223.3398,144.6367,227.3398,140.6367,223.3398" style="stroke:#181818;stroke-width:1;"/><line style="stroke:#181818;stroke-width:1;" x1="122.6367" x2="122.6367" y1="191.3398" y2="211.3398"/><polygon fill="#181818" points="118.6367,201.3398,122.6367,211.3398,126.6367,201.3398,122.6367,205.3398" style="stroke:#181818;stroke-width:1;"/><line style="stroke:#181818;stroke-width:1;" x1="122.6367" x2="122.6367" y1="88.9688" y2="108.9688"/><polygon fill="#181818" points="118.6367,98.9688,122.6367,108.9688,126.6367,98.9688,122.6367,102.9688" style="stroke:#181818;stroke-width:1;"/><line style="stroke:#181818;stroke-width:1;" x1="122.6367" x2="122.6367" y1="235.3398" y2="255.3398"/><polygon fill="#181818" points="118.6367,245.3398,122.6367,255.3398,126.6367,245.3398,122.6367,249.3398" style="stroke:#181818;stroke-width:1;"/><line style="stroke:#181818;stroke-width:1;" x1="122.6367" x2="122.6367" y1="289.3086" y2="309.3086"/><polygon fill="#181818" points="118.6367,299.3086,122.6367,309.3086,126.6367,299.3086,122.6367,303.3086" style="stroke:#181818;stroke-width:1;"/><line style="stroke:#181818;stroke-width:1;" x1="122.6367" x2="122.6367" y1="343.2773" y2="363.2773"/><polygon fill="#181818" points="118.6367,353.2773,122.6367,363.2773,126.6367,353.2773,122.6367,357.2773" style="stroke:#181818;stroke-width:1;"/><?plantuml-src LOsn3G8n40Jpg-B2Tml-W0Y910A-WfF_32SPdsMRWE_c2o2Y02JS68O8qfsTtL8fLm0xSM3dH2DXweauQOyu0eZ7uVNSqGqbUiqN-WAS-QUsCLZF776Osjq0S2YCmq4D8DfjIPmf_zbzbkCiljyUcO8idRks1dSDMaQmUotruvnoMxquwlrIDRq1?></g></svg>