<svg xmlns="http://www.w3.org/2000/svg" xmlns:xlink="http://www.w3.org/1999/xlink" contentStyleType="text/css" data-diagram-type="STATE" height="294px" preserveAspectRatio="none" style="width:365px;height:294px;background:#FFFFFF;" version="1.1" viewBox="0 0 365 294" width="365px" zoomAndPan="magnify"><?plantuml 1.2026.3beta6?><defs/><g><g class="start_entity" data-qualified-name=".start." data-source-line="1" id="ent0002"><ellipse cx="122.04" cy="16" fill="#222222" rx="10" ry="10" style="stroke:#222222;stroke-width:1;"/></g><g class="entity" data-qualified-name="VISUALIZACION_DE_DATOS" id="ent0003"><rect fill="#F1F1F1" height="50" rx="12.5" ry="12.5" style="stroke:#181818;stroke-width:0.5;" width="211.3516" x="16.36" y="103"/><line style="stroke:#181818;stroke-width:0.5;" x1="16.36" x2="227.7116" y1="129.2969" y2="129.2969"/><text fill="#000000" font-family="sans-serif" font-size="14" lengthAdjust="spacing" textLength="191.3516" x="26.36" y="120.9951">VISUALIZACION_DE_DATOS</text></g><g class="entity" data-qualified-name="FILTRADO_DE_DATOS" id="ent0005"><rect fill="#F1F1F1" height="50" rx="12.5" ry="12.5" style="stroke:#181818;stroke-width:0.5;" width="172.0791" x="7" y="230"/><line style="stroke:#181818;stroke-width:0.5;" x1="7" x2="179.0791" y1="256.2969" y2="256.2969"/><text fill="#000000" font-family="sans-serif" font-size="14" lengthAdjust="spacing" textLength="152.0791" x="17" y="247.9951">FILTRADO_DE_DATOS</text></g><g class="end_entity" data-qualified-name=".end." data-source-line="6" id="ent0008"><ellipse cx="303.04" cy="255" fill="none" rx="11" ry="11" style="stroke:#222222;stroke-width:1;"/><ellipse cx="303.04" cy="255" fill="#222222" rx="6" ry="6" style="stroke:#222222;stroke-width:1;"/></g><!--link *start* to VISUALIZACION_DE_DATOS--><g class="link" data-entity-1="ent0002" data-entity-2="ent0003" data-link-type="dependency" data-source-line="1" id="lnk4"><path d="M122.04,26.38 C122.04,43.11 122.04,72.59 122.04,96.63" fill="none" id="*start*-to-VISUALIZACION_DE_DATOS" style="stroke:#181818;stroke-width:1;"/><polygon fill="#181818" points="122.04,102.63,126.04,93.63,122.04,97.63,118.04,93.63,122.04,102.63" style="stroke:#181818;stroke-width:1;"/><text fill="#000000" font-family="sans-serif" font-size="13" lengthAdjust="spacing" textLength="226.7319" x="123.04" y="69.0669">navegaci&#243;n a pesta&#241;a rendimiento</text></g><!--link VISUALIZACION_DE_DATOS to FILTRADO_DE_DATOS--><g class="link" data-entity-1="ent0003" data-entity-2="ent0005" data-link-type="dependency" data-source-line="3" id="lnk6"><path d="M101.48,153.24 C95.26,162.04 89.24,172.43 86.04,183 C81.48,198.06 81.9608,209.7731 84.8208,223.6731" fill="none" id="VISUALIZACION_DE_DATOS-to-FILTRADO_DE_DATOS" style="stroke:#181818;stroke-width:1;"/><polygon fill="#181818" points="86.03,229.55,88.1341,219.9285,85.0223,224.6526,80.2983,221.5408,86.03,229.55" style="stroke:#181818;stroke-width:1;"/></g><!--link FILTRADO_DE_DATOS to VISUALIZACION_DE_DATOS--><g class="link" data-entity-1="ent0005" data-entity-2="ent0003" data-link-type="dependency" data-source-line="4" id="lnk7"><path d="M98.69,229.66 C103.79,207.66 109.9137,181.2647 115.0237,159.2447" fill="none" id="FILTRADO_DE_DATOS-to-VISUALIZACION_DE_DATOS" style="stroke:#181818;stroke-width:1;"/><polygon fill="#181818" points="116.38,153.4,110.449,161.2628,115.2497,158.2706,118.242,163.0713,116.38,153.4" style="stroke:#181818;stroke-width:1;"/><text fill="#000000" font-family="sans-serif" font-size="13" lengthAdjust="spacing" textLength="156.9141" x="111.04" y="196.0669">cambiar SplitId o fechas</text></g><!--link VISUALIZACION_DE_DATOS to *end*--><g class="link" data-entity-1="ent0003" data-entity-2="ent0008" data-link-type="dependency" data-source-line="6" id="lnk9"><path d="M228.08,152.35 C245.67,159.89 262.54,169.85 276.04,183 C293.14,199.66 298.6598,222.3164 300.9598,237.6464" fill="none" id="VISUALIZACION_DE_DATOS-to-*end*" style="stroke:#181818;stroke-width:1;"/><polygon fill="#181818" points="301.85,243.58,304.4704,234.0861,301.1081,238.6353,296.5589,235.2731,301.85,243.58" style="stroke:#181818;stroke-width:1;"/></g><?plantuml-src YzQALT3LjLC8ymmETVJnZ79qzlJtYtTnZNTn3F4FLh1Io4iiIqrFJCuyl3bF8L6X8BMu9F7mnaI5ejIybCpSpDIyadmkBXoQGUQwUVg413cw-2D4kJ25yBZ0IY4vCJSfCx588RWW9xF4CqKXNo4jDJaZiHYljT5QiG00?></g></svg>