<svg xmlns="http://www.w3.org/2000/svg" xmlns:xlink="http://www.w3.org/1999/xlink" contentStyleType="text/css" data-diagram-type="STATE" height="342px" preserveAspectRatio="none" style="width:226px;height:342px;background:#FFFFFF;" version="1.1" viewBox="0 0 226 342" width="226px" zoomAndPan="magnify"><?plantuml 1.2026.3beta6?><defs/><g><g class="start_entity" data-qualified-name=".start." data-source-line="1" id="ent0002"><ellipse cx="124.62" cy="16" fill="#222222" rx="10" ry="10" style="stroke:#222222;stroke-width:1;"/></g><g class="entity" data-qualified-name="InfoPendiente" id="ent0003"><rect fill="#F1F1F1" height="50" rx="12.5" ry="12.5" style="stroke:#181818;stroke-width:0.5;" width="116.79" x="66.23" y="86"/><line style="stroke:#181818;stroke-width:0.5;" x1="66.23" x2="183.02" y1="112.2969" y2="112.2969"/><text fill="#000000" font-family="sans-serif" font-size="14" lengthAdjust="spacing" textLength="96.79" x="76.23" y="103.9951">InfoPendiente</text></g><g class="entity" data-qualified-name="InfoGenerada" id="ent0005"><rect fill="#F1F1F1" height="50" rx="12.5" ry="12.5" style="stroke:#181818;stroke-width:0.5;" width="115.2451" x="7" y="196"/><line style="stroke:#181818;stroke-width:0.5;" x1="7" x2="122.2451" y1="222.2969" y2="222.2969"/><text fill="#000000" font-family="sans-serif" font-size="14" lengthAdjust="spacing" textLength="95.2451" x="17" y="213.9951">InfoGenerada</text></g><g class="entity" data-qualified-name="Error" id="ent0007"><rect fill="#F1F1F1" height="50" rx="12.5" ry="12.5" style="stroke:#181818;stroke-width:0.5;" width="54.6787" x="157.28" y="196"/><line style="stroke:#181818;stroke-width:0.5;" x1="157.28" x2="211.9587" y1="222.2969" y2="222.2969"/><text fill="#000000" font-family="sans-serif" font-size="14" lengthAdjust="spacing" textLength="34.6787" x="167.28" y="213.9951">Error</text></g><g class="end_entity" data-qualified-name=".end." data-source-line="6" id="ent0009"><ellipse cx="124.62" cy="317" fill="none" rx="11" ry="11" style="stroke:#222222;stroke-width:1;"/><ellipse cx="124.62" cy="317" fill="#222222" rx="6" ry="6" style="stroke:#222222;stroke-width:1;"/></g><!--link *start* to InfoPendiente--><g class="link" data-entity-1="ent0002" data-entity-2="ent0003" data-link-type="dependency" data-source-line="1" id="lnk4"><path d="M124.62,26.26 C124.62,39.95 124.62,60.07 124.62,79.52" fill="none" id="*start*-to-InfoPendiente" style="stroke:#181818;stroke-width:1;"/><polygon fill="#181818" points="124.62,85.52,128.62,76.52,124.62,80.52,120.62,76.52,124.62,85.52" style="stroke:#181818;stroke-width:1;"/></g><!--link InfoPendiente to InfoGenerada--><g class="link" data-entity-1="ent0003" data-entity-2="ent0005" data-link-type="dependency" data-source-line="3" id="lnk6"><path d="M111.16,136.24 C101.28,154.02 90.8246,172.8355 80.9546,190.5955" fill="none" id="InfoPendiente-to-InfoGenerada" style="stroke:#181818;stroke-width:1;"/><polygon fill="#181818" points="78.04,195.84,85.9083,189.9163,80.4688,191.4696,78.9156,186.0301,78.04,195.84" style="stroke:#181818;stroke-width:1;"/></g><!--link InfoPendiente to Error--><g class="link" data-entity-1="ent0003" data-entity-2="ent0007" data-link-type="dependency" data-source-line="4" id="lnk8"><path d="M138.09,136.24 C147.97,154.02 158.4154,172.8355 168.2854,190.5955" fill="none" id="InfoPendiente-to-Error" style="stroke:#181818;stroke-width:1;"/><polygon fill="#181818" points="171.2,195.84,170.3244,186.0301,168.7712,191.4696,163.3317,189.9163,171.2,195.84" style="stroke:#181818;stroke-width:1;"/></g><!--link InfoGenerada to *end*--><g class="link" data-entity-1="ent0005" data-entity-2="ent0009" data-link-type="dependency" data-source-line="6" id="lnk10"><path d="M80.07,246.21 C92.85,266.23 107.0516,288.4626 115.8416,302.2326" fill="none" id="InfoGenerada-to-*end*" style="stroke:#181818;stroke-width:1;"/><polygon fill="#181818" points="119.07,307.29,117.599,297.5516,116.3797,303.0755,110.8558,301.8561,119.07,307.29" style="stroke:#181818;stroke-width:1;"/></g><!--link Error to *end*--><g class="link" data-entity-1="ent0007" data-entity-2="ent0009" data-link-type="dependency" data-source-line="7" id="lnk11"><path d="M169.17,246.21 C156.39,266.23 142.1984,288.4626 133.4084,302.2326" fill="none" id="Error-to-*end*" style="stroke:#181818;stroke-width:1;"/><polygon fill="#181818" points="130.18,307.29,138.3942,301.8561,132.8703,303.0755,131.651,297.5516,130.18,307.29" style="stroke:#181818;stroke-width:1;"/></g><?plantuml-src YzQALT3LjLFmp4lB3qZDIybCpIj9vU92uSBatLFpKeiIKn8nPLsBYlAB523QOAf0uj5QiLmGEIWF0000?></g></svg>