<svg xmlns="http://www.w3.org/2000/svg" xmlns:xlink="http://www.w3.org/1999/xlink" contentStyleType="text/css" data-diagram-type="STATE" height="740px" preserveAspectRatio="none" style="width:2538px;height:740px;background:#FFFFFF;" version="1.1" viewBox="0 0 2538 740" width="2538px" zoomAndPan="magnify"><defs/><g><ellipse cx="16" cy="175.56" fill="#222222" rx="10" ry="10" style="stroke:#222222;stroke-width:1;"/><g id="SISTEMA_CERRADO"><rect fill="#F1F1F1" height="50" rx="12.5" ry="12.5" style="stroke:#181818;stroke-width:0.5;" width="157.4092" x="87" y="150.56"/><line style="stroke:#181818;stroke-width:0.5;" x1="87" x2="244.4092" y1="176.8569" y2="176.8569"/><text fill="#000000" font-family="sans-serif" font-size="14" lengthAdjust="spacing" textLength="137.4092" x="97" y="168.5551">SISTEMA_CERRADO</text></g><g id="DOCUMENTACION_ABIERTA"><rect fill="#F1F1F1" height="50" rx="12.5" ry="12.5" style="stroke:#181818;stroke-width:0.5;" width="213.7578" x="398" y="150.56"/><line style="stroke:#181818;stroke-width:0.5;" x1="398" x2="611.7578" y1="176.8569" y2="176.8569"/><text fill="#000000" font-family="sans-serif" font-size="14" lengthAdjust="spacing" textLength="193.7578" x="408" y="168.5551">DOCUMENTACION_ABIERTA</text></g><g id="CASOS_USO_ABIERTO"><rect fill="#F1F1F1" height="50" rx="12.5" ry="12.5" style="stroke:#181818;stroke-width:0.5;" width="173.7539" x="1925.5" y="137.56"/><line style="stroke:#181818;stroke-width:0.5;" x1="1925.5" x2="2099.2539" y1="163.8569" y2="163.8569"/><text fill="#000000" font-family="sans-serif" font-size="14" lengthAdjust="spacing" textLength="153.7539" x="1935.5" y="155.5551">CASOS_USO_ABIERTO</text></g><g id="CASO_USO_ABIERTO"><rect fill="#F1F1F1" height="50" rx="12.5" ry="12.5" style="stroke:#181818;stroke-width:0.5;" width="164.8672" x="2353" y="137.56"/><line style="stroke:#181818;stroke-width:0.5;" x1="2353" x2="2517.8672" y1="163.8569" y2="163.8569"/><text fill="#000000" font-family="sans-serif" font-size="14" lengthAdjust="spacing" textLength="144.8672" x="2363" y="155.5551">CASO_USO_ABIERTO</text></g><g id="REQUISITOS_FUNCIONALES_ABIERTO"><rect fill="#F1F1F1" height="50" rx="12.5" ry="12.5" style="stroke:#181818;stroke-width:0.5;" width="280.1758" x="876" y="266.56"/><line style="stroke:#181818;stroke-width:0.5;" x1="876" x2="1156.1758" y1="292.8569" y2="292.8569"/><text fill="#000000" font-family="sans-serif" font-size="14" lengthAdjust="spacing" textLength="260.1758" x="886" y="284.5551">REQUISITOS_FUNCIONALES_ABIERTO</text></g><g id="REQUISITO_FUNCIONAL_ABIERTO"><rect fill="#F1F1F1" height="50" rx="12.5" ry="12.5" style="stroke:#181818;stroke-width:0.5;" width="253.5566" x="1404" y="383.56"/><line style="stroke:#181818;stroke-width:0.5;" x1="1404" x2="1657.5566" y1="409.8569" y2="409.8569"/><text fill="#000000" font-family="sans-serif" font-size="14" lengthAdjust="spacing" textLength="233.5566" x="1414" y="401.5551">REQUISITO_FUNCIONAL_ABIERTO</text></g><g id="ESCENARIOS_ABIERTO"><rect fill="#F1F1F1" height="50" rx="12.5" ry="12.5" style="stroke:#181818;stroke-width:0.5;" width="178.6211" x="1441.5" y="287.56"/><line style="stroke:#181818;stroke-width:0.5;" x1="1441.5" x2="1620.1211" y1="313.8569" y2="313.8569"/><text fill="#000000" font-family="sans-serif" font-size="14" lengthAdjust="spacing" textLength="158.6211" x="1451.5" y="305.5551">ESCENARIOS_ABIERTO</text></g><g id="ESCENARIO_PRUEBA_ABIERTO"><rect fill="#F1F1F1" height="50" rx="12.5" ry="12.5" style="stroke:#181818;stroke-width:0.5;" width="233.1787" x="1896" y="356.56"/><line style="stroke:#181818;stroke-width:0.5;" x1="1896" x2="2129.1787" y1="382.8569" y2="382.8569"/><text fill="#000000" font-family="sans-serif" font-size="14" lengthAdjust="spacing" textLength="213.1787" x="1906" y="374.5551">ESCENARIO_PRUEBA_ABIERTO</text></g><g id="CASOS_PRUEBA_ABIERTO"><rect fill="#F1F1F1" height="50" rx="12.5" ry="12.5" style="stroke:#181818;stroke-width:0.5;" width="200.0449" x="1912.5" y="527.56"/><line style="stroke:#181818;stroke-width:0.5;" x1="1912.5" x2="2112.5449" y1="553.8569" y2="553.8569"/><text fill="#000000" font-family="sans-serif" font-size="14" lengthAdjust="spacing" textLength="180.0449" x="1922.5" y="545.5551">CASOS_PRUEBA_ABIERTO</text></g><g id="CASO_PRUEBA_ABIERTO"><rect fill="#F1F1F1" height="50" rx="12.5" ry="12.5" style="stroke:#181818;stroke-width:0.5;" width="191.1582" x="2340" y="413.56"/><line style="stroke:#181818;stroke-width:0.5;" x1="2340" x2="2531.1582" y1="439.8569" y2="439.8569"/><text fill="#000000" font-family="sans-serif" font-size="14" lengthAdjust="spacing" textLength="171.1582" x="2350" y="431.5551">CASO_PRUEBA_ABIERTO</text></g><g id="KIWI_TCMS_ABIERTO"><rect fill="#F1F1F1" height="50" rx="12.5" ry="12.5" style="stroke:#181818;stroke-width:0.5;" width="166.0293" x="2352.5" y="614.56"/><line style="stroke:#181818;stroke-width:0.5;" x1="2352.5" x2="2518.5293" y1="640.8569" y2="640.8569"/><text fill="#000000" font-family="sans-serif" font-size="14" lengthAdjust="spacing" textLength="146.0293" x="2362.5" y="632.5551">KIWI_TCMS_ABIERTO</text></g><!--link *start* to SISTEMA_CERRADO--><g class="link" data-entity-1=".start." data-entity-2="SISTEMA_CERRADO" data-source-line="3" data-uid="lnk4" id="link_.start._SISTEMA_CERRADO"><path d="M26.23,175.56 C38.78,175.56 56.46,175.56 80.73,175.56" fill="none" id="*start*-to-SISTEMA_CERRADO" style="stroke:#181818;stroke-width:1;"/><polygon fill="#181818" points="86.73,175.56,77.73,171.56,81.73,175.56,77.73,179.56,86.73,175.56" style="stroke:#181818;stroke-width:1;"/></g><!--link SISTEMA_CERRADO to DOCUMENTACION_ABIERTA--><g class="link" data-entity-1="SISTEMA_CERRADO" data-entity-2="DOCUMENTACION_ABIERTA" data-source-line="5" data-uid="lnk6" id="link_SISTEMA_CERRADO_DOCUMENTACION_ABIERTA"><path d="M244.35,175.56 C289.91,175.56 342.06,175.56 391.77,175.56" fill="none" id="SISTEMA_CERRADO-to-DOCUMENTACION_ABIERTA" style="stroke:#181818;stroke-width:1;"/><polygon fill="#181818" points="397.77,175.56,388.77,171.56,392.77,175.56,388.77,179.56,397.77,175.56" style="stroke:#181818;stroke-width:1;"/><text fill="#000000" font-family="sans-serif" font-size="13" lengthAdjust="spacing" textLength="92.5044" x="275" y="171.6269">iniciarSesion()</text></g><!--link DOCUMENTACION_ABIERTA to SISTEMA_CERRADO--><g class="link" data-entity-1="DOCUMENTACION_ABIERTA" data-entity-2="SISTEMA_CERRADO" data-source-line="6" data-uid="lnk7" id="link_DOCUMENTACION_ABIERTA_SISTEMA_CERRADO"><path d="M397.72,197 C387.71,198.44 377.68,199.67 368,200.56 C326.39,204.35 315.51,205.32 274,200.56 C264.29,199.44 260.0682,198.9328 250.1082,196.9828" fill="none" id="DOCUMENTACION_ABIERTA-to-SISTEMA_CERRADO" style="stroke:#181818;stroke-width:1;"/><polygon fill="#181818" points="244.22,195.83,252.2838,201.4847,249.1268,196.7907,253.8209,193.6337,244.22,195.83" style="stroke:#181818;stroke-width:1;"/><text fill="#000000" font-family="sans-serif" font-size="13" lengthAdjust="spacing" textLength="92.1172" x="275" y="196.6269">cerrarSesion()</text></g><!--link DOCUMENTACION_ABIERTA to DOCUMENTACION_ABIERTA--><g class="link" data-entity-1="DOCUMENTACION_ABIERTA" data-entity-2="DOCUMENTACION_ABIERTA" data-source-line="8" data-uid="lnk8" id="link_DOCUMENTACION_ABIERTA_DOCUMENTACION_ABIERTA"><path d="M489.43,150.28 C484.72,132.78 489.91,115.56 505,115.56 C520.09,115.56 526.8394,126.9862 522.1294,144.4862" fill="none" id="DOCUMENTACION_ABIERTA-to-DOCUMENTACION_ABIERTA" style="stroke:#181818;stroke-width:1;"/><polygon fill="#181818" points="520.57,150.28,526.7716,142.6288,521.8695,145.4518,519.0465,140.5497,520.57,150.28" style="stroke:#181818;stroke-width:1;"/><text fill="#000000" font-family="sans-serif" font-size="13" lengthAdjust="spacing" textLength="179.5688" x="415.5" y="106.6269">incorporarDocumentacion()</text></g><!--link DOCUMENTACION_ABIERTA to DOCUMENTACION_ABIERTA--><g class="link" data-entity-1="DOCUMENTACION_ABIERTA" data-entity-2="DOCUMENTACION_ABIERTA" data-source-line="9" data-uid="lnk9" id="link_DOCUMENTACION_ABIERTA_DOCUMENTACION_ABIERTA"><path d="M480.82,150.26 C461.36,118.44 469.42,80.56 505,80.56 C540.58,80.56 551.7704,113.3213 532.3104,145.1413" fill="none" id="DOCUMENTACION_ABIERTA-to-DOCUMENTACION_ABIERTA-1" style="stroke:#181818;stroke-width:1;"/><polygon fill="#181818" points="529.18,150.26,537.288,144.6689,531.7887,145.9945,530.4631,140.4951,529.18,150.26" style="stroke:#181818;stroke-width:1;"/><text fill="#000000" font-family="sans-serif" font-size="13" lengthAdjust="spacing" textLength="225.0942" x="392.5" y="71.6269">asociarDocumentacionAProyecto()</text></g><!--link DOCUMENTACION_ABIERTA to CASOS_USO_ABIERTO--><g class="link" data-entity-1="DOCUMENTACION_ABIERTA" data-entity-2="CASOS_USO_ABIERTO" data-source-line="11" data-uid="lnk11" id="link_DOCUMENTACION_ABIERTA_CASOS_USO_ABIERTO"><path d="M551.03,150.46 C576.81,137.54 610.25,123.15 642,116.56 C1174.65,6 1328.36,33.59 1866,116.56 C1893.1,120.74 1916.3862,127.138 1941.2862,135.558" fill="none" id="DOCUMENTACION_ABIERTA-to-CASOS_USO_ABIERTO" style="stroke:#181818;stroke-width:1;"/><polygon fill="#181818" points="1946.97,137.48,1939.7256,130.8078,1942.2335,135.8783,1937.1629,138.3862,1946.97,137.48" style="stroke:#181818;stroke-width:1;"/><text fill="#000000" font-family="sans-serif" font-size="13" lengthAdjust="spacing" textLength="120.3706" x="1220" y="40.6269">extraerCasosUso()</text></g><!--link CASOS_USO_ABIERTO to DOCUMENTACION_ABIERTA--><g class="link" data-entity-1="CASOS_USO_ABIERTO" data-entity-2="DOCUMENTACION_ABIERTA" data-source-line="12" data-uid="lnk12" id="link_CASOS_USO_ABIERTO_DOCUMENTACION_ABIERTA"><path d="M1925.34,163.02 C1860.16,163.38 1768.45,163.93 1688,164.56 C1291.17,167.63 825.4197,172.2789 618.3497,174.3889" fill="none" id="CASOS_USO_ABIERTO-to-DOCUMENTACION_ABIERTA" style="stroke:#181818;stroke-width:1;"/><polygon fill="#181818" points="612.35,174.45,621.3903,178.3581,617.3497,174.3991,621.3088,170.3585,612.35,174.45" style="stroke:#181818;stroke-width:1;"/><text fill="#000000" font-family="sans-serif" font-size="13" lengthAdjust="spacing" textLength="125.9248" x="1217.5" y="163.6269">completarGestion()</text></g><!--link CASOS_USO_ABIERTO to CASOS_USO_ABIERTO--><g class="link" data-entity-1="CASOS_USO_ABIERTO" data-entity-2="CASOS_USO_ABIERTO" data-source-line="13" data-uid="lnk13" id="link_CASOS_USO_ABIERTO_CASOS_USO_ABIERTO"><path d="M1974.94,137.28 C1963.56,119.78 1976.08,102.56 2012.5,102.56 C2048.92,102.56 2064.7109,114.75 2053.3309,132.25" fill="none" id="CASOS_USO_ABIERTO-to-CASOS_USO_ABIERTO" style="stroke:#181818;stroke-width:1;"/><polygon fill="#181818" points="2050.06,137.28,2058.3197,131.9156,2052.7858,133.0883,2051.6131,127.5544,2050.06,137.28" style="stroke:#181818;stroke-width:1;"/><text fill="#000000" font-family="sans-serif" font-size="13" lengthAdjust="spacing" textLength="97.8809" x="1964" y="93.6269">leerCasosUso()</text></g><!--link CASOS_USO_ABIERTO to CASO_USO_ABIERTO--><g class="link" data-entity-1="CASOS_USO_ABIERTO" data-entity-2="CASO_USO_ABIERTO" data-source-line="15" data-uid="lnk15" id="link_CASOS_USO_ABIERTO_CASO_USO_ABIERTO"><path d="M2076.55,137.44 C2101.76,128.66 2131.34,119.91 2159,115.56 C2225.29,105.11 2243.98,103.51 2310,115.56 C2333.98,119.93 2353.7842,126.4143 2375.3142,135.1943" fill="none" id="CASOS_USO_ABIERTO-to-CASO_USO_ABIERTO" style="stroke:#181818;stroke-width:1;"/><polygon fill="#181818" points="2380.87,137.46,2374.0468,130.3576,2376.2402,135.5719,2371.0259,137.7654,2380.87,137.46" style="stroke:#181818;stroke-width:1;"/><text fill="#000000" font-family="sans-serif" font-size="13" lengthAdjust="spacing" textLength="99.9565" x="2185" y="103.6269">crearCasoUso()</text></g><!--link CASOS_USO_ABIERTO to CASO_USO_ABIERTO--><g class="link" data-entity-1="CASOS_USO_ABIERTO" data-entity-2="CASO_USO_ABIERTO" data-source-line="16" data-uid="lnk16" id="link_CASOS_USO_ABIERTO_CASO_USO_ABIERTO"><path d="M2099.71,162.56 C2173.81,162.56 2273.91,162.56 2346.7,162.56" fill="none" id="CASOS_USO_ABIERTO-to-CASO_USO_ABIERTO-1" style="stroke:#181818;stroke-width:1;"/><polygon fill="#181818" points="2352.7,162.56,2343.7,158.56,2347.7,162.56,2343.7,166.56,2352.7,162.56" style="stroke:#181818;stroke-width:1;"/><text fill="#000000" font-family="sans-serif" font-size="13" lengthAdjust="spacing" textLength="104.4253" x="2182.5" y="158.6269">editarCasoUso()</text></g><!--link CASOS_USO_ABIERTO to CASO_USO_ABIERTO--><g class="link" data-entity-1="CASOS_USO_ABIERTO" data-entity-2="CASO_USO_ABIERTO" data-source-line="17" data-uid="lnk17" id="link_CASOS_USO_ABIERTO_CASO_USO_ABIERTO"><path d="M2099.74,179.86 C2119.16,183.06 2139.72,185.91 2159,187.56 C2225.87,193.26 2243.22,194.19 2310,187.56 C2323.93,186.17 2332.7059,184.9986 2346.9059,182.4286" fill="none" id="CASOS_USO_ABIERTO-to-CASO_USO_ABIERTO-2" style="stroke:#181818;stroke-width:1;"/><polygon fill="#181818" points="2352.81,181.36,2343.2415,179.0268,2347.8899,182.2505,2344.6662,186.8989,2352.81,181.36" style="stroke:#181818;stroke-width:1;"/><text fill="#000000" font-family="sans-serif" font-size="13" lengthAdjust="spacing" textLength="119.2026" x="2175" y="183.6269">eliminarCasoUso()</text></g><!--link CASO_USO_ABIERTO to CASOS_USO_ABIERTO--><g class="link" data-entity-1="CASO_USO_ABIERTO" data-entity-2="CASOS_USO_ABIERTO" data-source-line="18" data-uid="lnk18" id="link_CASO_USO_ABIERTO_CASOS_USO_ABIERTO"><path d="M2388.99,187.65 C2366.04,198.89 2337.34,210.88 2310,216.56 C2244.29,230.19 2225.05,228.42 2159,216.56 C2127.57,210.91 2099.6063,201.2328 2072.6763,189.9828" fill="none" id="CASO_USO_ABIERTO-to-CASOS_USO_ABIERTO" style="stroke:#181818;stroke-width:1;"/><polygon fill="#181818" points="2067.14,187.67,2073.9026,194.8301,2071.7536,189.5973,2076.9864,187.4483,2067.14,187.67" style="stroke:#181818;stroke-width:1;"/><text fill="#000000" font-family="sans-serif" font-size="13" lengthAdjust="spacing" textLength="125.9248" x="2172" y="212.6269">completarGestion()</text></g><!--link DOCUMENTACION_ABIERTA to REQUISITOS_FUNCIONALES_ABIERTO--><g class="link" data-entity-1="DOCUMENTACION_ABIERTA" data-entity-2="REQUISITOS_FUNCIONALES_ABIERTO" data-source-line="20" data-uid="lnk20" id="link_DOCUMENTACION_ABIERTA_REQUISITOS_FUNCIONALES_ABIERTO"><path d="M612.08,199.73 C697.89,219.29 812.4399,245.397 899.2499,265.177" fill="none" id="DOCUMENTACION_ABIERTA-to-REQUISITOS_FUNCIONALES_ABIERTO" style="stroke:#181818;stroke-width:1;"/><polygon fill="#181818" points="905.1,266.51,897.2135,260.6105,900.2249,265.3992,895.4363,268.4106,905.1,266.51" style="stroke:#181818;stroke-width:1;"/><text fill="#000000" font-family="sans-serif" font-size="13" lengthAdjust="spacing" textLength="202.1855" x="643" y="202.6269">extraerRequisitosFuncionales()</text></g><!--link REQUISITOS_FUNCIONALES_ABIERTO to DOCUMENTACION_ABIERTA--><g class="link" data-entity-1="REQUISITOS_FUNCIONALES_ABIERTO" data-entity-2="DOCUMENTACION_ABIERTA" data-source-line="21" data-uid="lnk21" id="link_REQUISITOS_FUNCIONALES_ABIERTO_DOCUMENTACION_ABIERTA"><path d="M875.82,304.6 C804.08,306.63 716.28,301.7 642,275.56 C597.77,259.99 560.0392,228.9639 534.7092,204.7739" fill="none" id="REQUISITOS_FUNCIONALES_ABIERTO-to-DOCUMENTACION_ABIERTA" style="stroke:#181818;stroke-width:1;"/><polygon fill="#181818" points="530.37,200.63,534.1162,209.7386,533.986,204.0832,539.6413,203.953,530.37,200.63" style="stroke:#181818;stroke-width:1;"/><text fill="#000000" font-family="sans-serif" font-size="13" lengthAdjust="spacing" textLength="125.9248" x="681.5" y="271.6269">completarGestion()</text></g><!--link REQUISITOS_FUNCIONALES_ABIERTO to REQUISITOS_FUNCIONALES_ABIERTO--><g class="link" data-entity-1="REQUISITOS_FUNCIONALES_ABIERTO" data-entity-2="REQUISITOS_FUNCIONALES_ABIERTO" data-source-line="22" data-uid="lnk22" id="link_REQUISITOS_FUNCIONALES_ABIERTO_REQUISITOS_FUNCIONALES_ABIERTO"><path d="M971.33,266.28 C957.8,248.78 972.69,231.56 1016,231.56 C1059.31,231.56 1077.8699,244.0332 1064.3399,261.5332" fill="none" id="REQUISITOS_FUNCIONALES_ABIERTO-to-REQUISITOS_FUNCIONALES_ABIERTO" style="stroke:#181818;stroke-width:1;"/><polygon fill="#181818" points="1060.67,266.28,1069.3394,261.6065,1063.7283,262.3244,1063.0104,256.7133,1060.67,266.28" style="stroke:#181818;stroke-width:1;"/><text fill="#000000" font-family="sans-serif" font-size="13" lengthAdjust="spacing" textLength="179.6958" x="926.5" y="222.6269">leerRequisitosFuncionales()</text></g><!--link REQUISITOS_FUNCIONALES_ABIERTO to REQUISITO_FUNCIONAL_ABIERTO--><g class="link" data-entity-1="REQUISITOS_FUNCIONALES_ABIERTO" data-entity-2="REQUISITO_FUNCIONAL_ABIERTO" data-source-line="24" data-uid="lnk24" id="link_REQUISITOS_FUNCIONALES_ABIERTO_REQUISITO_FUNCIONAL_ABIERTO"><path d="M1143.37,316.58 C1157.74,319.32 1172.18,322.03 1186,324.56 C1269.38,339.79 1291.78,335.98 1374,356.56 C1403.36,363.9 1429.4798,372.1183 1456.6498,381.5183" fill="none" id="REQUISITOS_FUNCIONALES_ABIERTO-to-REQUISITO_FUNCIONAL_ABIERTO" style="stroke:#181818;stroke-width:1;"/><polygon fill="#181818" points="1462.32,383.48,1455.1225,376.7572,1457.5948,381.8452,1452.5068,384.3176,1462.32,383.48" style="stroke:#181818;stroke-width:1;"/><text fill="#000000" font-family="sans-serif" font-size="13" lengthAdjust="spacing" textLength="167.0005" x="1196.5" y="320.6269">crearRequisitoFuncional()</text></g><!--link REQUISITOS_FUNCIONALES_ABIERTO to REQUISITO_FUNCIONAL_ABIERTO--><g class="link" data-entity-1="REQUISITOS_FUNCIONALES_ABIERTO" data-entity-2="REQUISITO_FUNCIONAL_ABIERTO" data-source-line="25" data-uid="lnk25" id="link_REQUISITOS_FUNCIONALES_ABIERTO_REQUISITO_FUNCIONAL_ABIERTO"><path d="M1053.35,316.62 C1086.35,337.95 1137.18,367.31 1186,381.56 C1256.3,402.06 1331.9122,408.9766 1397.9922,410.7766" fill="none" id="REQUISITOS_FUNCIONALES_ABIERTO-to-REQUISITO_FUNCIONAL_ABIERTO-1" style="stroke:#181818;stroke-width:1;"/><polygon fill="#181818" points="1403.99,410.94,1395.1023,406.6964,1398.9919,410.8039,1394.8844,414.6935,1403.99,410.94" style="stroke:#181818;stroke-width:1;"/><text fill="#000000" font-family="sans-serif" font-size="13" lengthAdjust="spacing" textLength="171.4692" x="1194.5" y="377.6269">editarRequisitoFuncional()</text></g><!--link REQUISITOS_FUNCIONALES_ABIERTO to REQUISITO_FUNCIONAL_ABIERTO--><g class="link" data-entity-1="REQUISITOS_FUNCIONALES_ABIERTO" data-entity-2="REQUISITO_FUNCIONAL_ABIERTO" data-source-line="26" data-uid="lnk26" id="link_REQUISITOS_FUNCIONALES_ABIERTO_REQUISITO_FUNCIONAL_ABIERTO"><path d="M1036.62,316.74 C1065.15,351.08 1121.76,411.02 1186,434.56 C1271.2,465.77 1370.209,452.3439 1441.599,435.0339" fill="none" id="REQUISITOS_FUNCIONALES_ABIERTO-to-REQUISITO_FUNCIONAL_ABIERTO-2" style="stroke:#181818;stroke-width:1;"/><polygon fill="#181818" points="1447.43,433.62,1437.7409,431.8534,1442.5708,434.7982,1439.626,439.6281,1447.43,433.62" style="stroke:#181818;stroke-width:1;"/><text fill="#000000" font-family="sans-serif" font-size="13" lengthAdjust="spacing" textLength="186.2466" x="1187" y="430.6269">eliminarRequisitoFuncional()</text></g><!--link REQUISITO_FUNCIONAL_ABIERTO to REQUISITOS_FUNCIONALES_ABIERTO--><g class="link" data-entity-1="REQUISITO_FUNCIONAL_ABIERTO" data-entity-2="REQUISITOS_FUNCIONALES_ABIERTO" data-source-line="27" data-uid="lnk27" id="link_REQUISITO_FUNCIONAL_ABIERTO_REQUISITOS_FUNCIONALES_ABIERTO"><path d="M1486.08,433.62 C1418.84,468.47 1287.52,522.48 1186,477.56 C1110.79,444.27 1057.6882,364.3687 1033.3482,321.7987" fill="none" id="REQUISITO_FUNCIONAL_ABIERTO-to-REQUISITOS_FUNCIONALES_ABIERTO" style="stroke:#181818;stroke-width:1;"/><polygon fill="#181818" points="1030.37,316.59,1031.3648,326.3885,1032.8518,320.9306,1038.3097,322.4176,1030.37,316.59" style="stroke:#181818;stroke-width:1;"/><text fill="#000000" font-family="sans-serif" font-size="13" lengthAdjust="spacing" textLength="125.9248" x="1217.5" y="473.6269">completarGestion()</text></g><!--link CASOS_USO_ABIERTO to ESCENARIOS_ABIERTO--><g class="link" data-entity-1="CASOS_USO_ABIERTO" data-entity-2="ESCENARIOS_ABIERTO" data-source-line="29" data-uid="lnk29" id="link_CASOS_USO_ABIERTO_ESCENARIOS_ABIERTO"><path d="M1973.47,187.56 C1944.96,205.28 1904.39,228.34 1866,242.56 C1785.58,272.34 1695.2515,289.9157 1626.7715,300.3557" fill="none" id="CASOS_USO_ABIERTO-to-ESCENARIOS_ABIERTO" style="stroke:#181818;stroke-width:1;"/><polygon fill="#181818" points="1620.84,301.26,1630.34,303.8579,1625.7829,300.5064,1629.1344,295.9493,1620.84,301.26" style="stroke:#181818;stroke-width:1;"/><text fill="#000000" font-family="sans-serif" font-size="13" lengthAdjust="spacing" textLength="176.9473" x="1689" y="238.6269">generarEscenariosPrueba()</text></g><!--link ESCENARIOS_ABIERTO to CASOS_USO_ABIERTO--><g class="link" data-entity-1="ESCENARIOS_ABIERTO" data-entity-2="CASOS_USO_ABIERTO" data-source-line="31" data-uid="lnk31" id="link_ESCENARIOS_ABIERTO_CASOS_USO_ABIERTO"><path d="M1566.79,287.48 C1597.3,266.69 1643.59,237.98 1688,221.56 C1709.99,213.42 1831.0118,192.4274 1919.1818,177.7174" fill="none" id="ESCENARIOS_ABIERTO-to-CASOS_USO_ABIERTO" style="stroke:#181818;stroke-width:1;"/><polygon fill="#181818" points="1925.1,176.73,1915.5645,174.2656,1920.1682,177.5528,1916.8809,182.1565,1925.1,176.73" style="stroke:#181818;stroke-width:1;"/><text fill="#000000" font-family="sans-serif" font-size="13" lengthAdjust="spacing" textLength="150.7505" x="1702" y="182.6269">completarGeneracion()</text></g><!--link REQUISITOS_FUNCIONALES_ABIERTO to ESCENARIOS_ABIERTO--><g class="link" data-entity-1="REQUISITOS_FUNCIONALES_ABIERTO" data-entity-2="ESCENARIOS_ABIERTO" data-source-line="30" data-uid="lnk30" id="link_REQUISITOS_FUNCIONALES_ABIERTO_ESCENARIOS_ABIERTO"><path d="M1086.74,266.53 C1116.85,256.99 1152.73,247.28 1186,242.56 C1268.73,230.8 1292.3,225.06 1374,242.56 C1414.35,251.19 1451.5864,268.2469 1482.0264,284.6269" fill="none" id="REQUISITOS_FUNCIONALES_ABIERTO-to-ESCENARIOS_ABIERTO" style="stroke:#181818;stroke-width:1;"/><polygon fill="#181818" points="1487.31,287.47,1481.28,279.6829,1482.907,285.1007,1477.4892,286.7277,1487.31,287.47" style="stroke:#181818;stroke-width:1;"/><text fill="#000000" font-family="sans-serif" font-size="13" lengthAdjust="spacing" textLength="176.9473" x="1192" y="226.6269">generarEscenariosPrueba()</text></g><!--link ESCENARIOS_ABIERTO to REQUISITOS_FUNCIONALES_ABIERTO--><g class="link" data-entity-1="ESCENARIOS_ABIERTO" data-entity-2="REQUISITOS_FUNCIONALES_ABIERTO" data-source-line="32" data-uid="lnk32" id="link_ESCENARIOS_ABIERTO_REQUISITOS_FUNCIONALES_ABIERTO"><path d="M1441.38,304.23 C1419.38,302.42 1395.85,300.71 1374,299.56 C1302.19,295.76 1228.1492,293.8554 1162.0992,292.8054" fill="none" id="ESCENARIOS_ABIERTO-to-REQUISITOS_FUNCIONALES_ABIERTO" style="stroke:#181818;stroke-width:1;"/><polygon fill="#181818" points="1156.1,292.71,1165.0353,296.8526,1161.0994,292.7895,1165.1624,288.8536,1156.1,292.71" style="stroke:#181818;stroke-width:1;"/><text fill="#000000" font-family="sans-serif" font-size="13" lengthAdjust="spacing" textLength="150.7505" x="1205" y="288.6269">completarGeneracion()</text></g><!--link ESCENARIOS_ABIERTO to ESCENARIOS_ABIERTO--><g class="link" data-entity-1="ESCENARIOS_ABIERTO" data-entity-2="ESCENARIOS_ABIERTO" data-source-line="33" data-uid="lnk33" id="link_ESCENARIOS_ABIERTO_ESCENARIOS_ABIERTO"><path d="M1489.38,287.28 C1476.77,269.78 1490.64,252.56 1531,252.56 C1571.36,252.56 1588.7377,264.9121 1576.1277,282.4121" fill="none" id="ESCENARIOS_ABIERTO-to-ESCENARIOS_ABIERTO" style="stroke:#181818;stroke-width:1;"/><polygon fill="#181818" points="1572.62,287.28,1581.1267,282.3166,1575.5431,283.2234,1574.6362,277.6397,1572.62,287.28" style="stroke:#181818;stroke-width:1;"/><text fill="#000000" font-family="sans-serif" font-size="13" lengthAdjust="spacing" textLength="150.7568" x="1456" y="243.6269">leerEscenariosPrueba()</text></g><!--link ESCENARIOS_ABIERTO to ESCENARIO_PRUEBA_ABIERTO--><g class="link" data-entity-1="ESCENARIOS_ABIERTO" data-entity-2="ESCENARIO_PRUEBA_ABIERTO" data-source-line="35" data-uid="lnk35" id="link_ESCENARIOS_ABIERTO_ESCENARIO_PRUEBA_ABIERTO"><path d="M1620.63,312.95 C1688.37,314.63 1783.77,319.96 1866,335.56 C1891.9,340.47 1913.9421,346.6303 1938.1921,354.6303" fill="none" id="ESCENARIOS_ABIERTO-to-ESCENARIO_PRUEBA_ABIERTO" style="stroke:#181818;stroke-width:1;"/><polygon fill="#181818" points="1943.89,356.51,1936.5962,349.8918,1939.1417,354.9436,1934.0899,357.489,1943.89,356.51" style="stroke:#181818;stroke-width:1;"/><text fill="#000000" font-family="sans-serif" font-size="13" lengthAdjust="spacing" textLength="157.3013" x="1698.5" y="311.6269">editarEscenarioPrueba()</text></g><!--link ESCENARIOS_ABIERTO to ESCENARIO_PRUEBA_ABIERTO--><g class="link" data-entity-1="ESCENARIOS_ABIERTO" data-entity-2="ESCENARIO_PRUEBA_ABIERTO" data-source-line="36" data-uid="lnk36" id="link_ESCENARIOS_ABIERTO_ESCENARIO_PRUEBA_ABIERTO"><path d="M1601.03,337.6 C1627.83,346.31 1659.02,355.23 1688,360.56 C1756.23,373.09 1827.7436,378.2113 1889.7936,380.3713" fill="none" id="ESCENARIOS_ABIERTO-to-ESCENARIO_PRUEBA_ABIERTO-1" style="stroke:#181818;stroke-width:1;"/><polygon fill="#181818" points="1895.79,380.58,1886.9346,376.2693,1890.793,380.4061,1886.6563,384.2645,1895.79,380.58" style="stroke:#181818;stroke-width:1;"/><text fill="#000000" font-family="sans-serif" font-size="13" lengthAdjust="spacing" textLength="172.0786" x="1691" y="356.6269">eliminarEscenarioPrueba()</text></g><!--link ESCENARIOS_ABIERTO to ESCENARIO_PRUEBA_ABIERTO--><g class="link" data-entity-1="ESCENARIOS_ABIERTO" data-entity-2="ESCENARIO_PRUEBA_ABIERTO" data-source-line="37" data-uid="lnk37" id="link_ESCENARIOS_ABIERTO_ESCENARIO_PRUEBA_ABIERTO"><path d="M1606.91,337.61 C1624.58,345.38 1642.72,355 1658,366.56 C1674.89,379.32 1668.89,394.45 1688,403.56 C1766.89,441.16 1863.279,426.6298 1931.489,408.1398" fill="none" id="ESCENARIOS_ABIERTO-to-ESCENARIO_PRUEBA_ABIERTO-2" style="stroke:#181818;stroke-width:1;"/><polygon fill="#181818" points="1937.28,406.57,1927.547,405.064,1932.4542,407.8782,1929.64,412.7854,1937.28,406.57" style="stroke:#181818;stroke-width:1;"/><text fill="#000000" font-family="sans-serif" font-size="13" lengthAdjust="spacing" textLength="139.9214" x="1707.5" y="399.6269">incorporarFeedback()</text></g><!--link ESCENARIO_PRUEBA_ABIERTO to ESCENARIOS_ABIERTO--><g class="link" data-entity-1="ESCENARIO_PRUEBA_ABIERTO" data-entity-2="ESCENARIOS_ABIERTO" data-source-line="38" data-uid="lnk38" id="link_ESCENARIO_PRUEBA_ABIERTO_ESCENARIOS_ABIERTO"><path d="M1974.09,406.58 C1909.7,446.21 1776.37,512.83 1688,450.56 C1655.6,427.72 1685.15,395.44 1658,366.56 C1646.67,354.5 1637.5915,347.6732 1622.5215,340.2432" fill="none" id="ESCENARIO_PRUEBA_ABIERTO-to-ESCENARIOS_ABIERTO" style="stroke:#181818;stroke-width:1;"/><polygon fill="#181818" points="1617.14,337.59,1623.4434,345.1575,1621.6246,339.801,1626.981,337.9822,1617.14,337.59" style="stroke:#181818;stroke-width:1;"/><text fill="#000000" font-family="sans-serif" font-size="13" lengthAdjust="spacing" textLength="125.9248" x="1714.5" y="446.6269">completarGestion()</text></g><!--link ESCENARIOS_ABIERTO to CASOS_PRUEBA_ABIERTO--><g class="link" data-entity-1="ESCENARIOS_ABIERTO" data-entity-2="CASOS_PRUEBA_ABIERTO" data-source-line="40" data-uid="lnk40" id="link_ESCENARIOS_ABIERTO_CASOS_PRUEBA_ABIERTO"><path d="M1620.61,337.67 C1634.73,345.03 1647.96,354.47 1658,366.56 C1696.99,413.5 1643.55,458.73 1688,500.56 C1747.14,556.2 1834.913,566.1498 1906.313,563.8898" fill="none" id="ESCENARIOS_ABIERTO-to-CASOS_PRUEBA_ABIERTO" style="stroke:#181818;stroke-width:1;"/><polygon fill="#181818" points="1912.31,563.7,1903.188,559.9867,1907.3125,563.8582,1903.4411,567.9827,1912.31,563.7" style="stroke:#181818;stroke-width:1;"/><text fill="#000000" font-family="sans-serif" font-size="13" lengthAdjust="spacing" textLength="145.4692" x="1704.5" y="496.6269">generarCasosPrueba()</text></g><!--link CASOS_PRUEBA_ABIERTO to ESCENARIOS_ABIERTO--><g class="link" data-entity-1="CASOS_PRUEBA_ABIERTO" data-entity-2="ESCENARIOS_ABIERTO" data-source-line="41" data-uid="lnk41" id="link_CASOS_PRUEBA_ABIERTO_ESCENARIOS_ABIERTO"><path d="M1963.14,577.66 C1893.41,609.97 1764.58,654.45 1688,587.56 C1613.34,522.35 1718.02,445.44 1658,366.56 C1648.27,353.77 1640.243,346.7387 1625.843,339.2487" fill="none" id="CASOS_PRUEBA_ABIERTO-to-ESCENARIOS_ABIERTO" style="stroke:#181818;stroke-width:1;"/><polygon fill="#181818" points="1620.52,336.48,1626.6587,344.1817,1624.9558,338.7872,1630.3503,337.0844,1620.52,336.48" style="stroke:#181818;stroke-width:1;"/><text fill="#000000" font-family="sans-serif" font-size="13" lengthAdjust="spacing" textLength="150.7505" x="1702" y="583.6269">completarGeneracion()</text></g><!--link CASOS_PRUEBA_ABIERTO to CASOS_PRUEBA_ABIERTO--><g class="link" data-entity-1="CASOS_PRUEBA_ABIERTO" data-entity-2="CASOS_PRUEBA_ABIERTO" data-source-line="42" data-uid="lnk42" id="link_CASOS_PRUEBA_ABIERTO_CASOS_PRUEBA_ABIERTO"><path d="M1974.94,527.28 C1963.56,509.78 1976.08,492.56 2012.5,492.56 C2048.92,492.56 2064.7109,504.75 2053.3309,522.25" fill="none" id="CASOS_PRUEBA_ABIERTO-to-CASOS_PRUEBA_ABIERTO" style="stroke:#181818;stroke-width:1;"/><polygon fill="#181818" points="2050.06,527.28,2058.3197,521.9156,2052.7858,523.0883,2051.6131,517.5544,2050.06,527.28" style="stroke:#181818;stroke-width:1;"/><text fill="#000000" font-family="sans-serif" font-size="13" lengthAdjust="spacing" textLength="119.2788" x="1953" y="483.6269">leerCasosPrueba()</text></g><!--link CASOS_PRUEBA_ABIERTO to CASO_PRUEBA_ABIERTO--><g class="link" data-entity-1="CASOS_PRUEBA_ABIERTO" data-entity-2="CASO_PRUEBA_ABIERTO" data-source-line="44" data-uid="lnk44" id="link_CASOS_PRUEBA_ABIERTO_CASO_PRUEBA_ABIERTO"><path d="M2031.47,527.46 C2056.04,495.53 2103.48,441.99 2159,420.56 C2217.24,398.07 2281.6443,402.0162 2336.6443,412.4062" fill="none" id="CASOS_PRUEBA_ABIERTO-to-CASO_PRUEBA_ABIERTO" style="stroke:#181818;stroke-width:1;"/><polygon fill="#181818" points="2342.54,413.52,2334.4389,407.9189,2337.6269,412.5919,2332.9539,415.7798,2342.54,413.52" style="stroke:#181818;stroke-width:1;"/><text fill="#000000" font-family="sans-serif" font-size="13" lengthAdjust="spacing" textLength="125.8232" x="2172" y="400.6269">editarCasoPrueba()</text></g><!--link CASOS_PRUEBA_ABIERTO to CASO_PRUEBA_ABIERTO--><g class="link" data-entity-1="CASOS_PRUEBA_ABIERTO" data-entity-2="CASO_PRUEBA_ABIERTO" data-source-line="45" data-uid="lnk45" id="link_CASOS_PRUEBA_ABIERTO_CASO_PRUEBA_ABIERTO"><path d="M2053.31,527.39 C2081.7,510.62 2121.36,489.54 2159,477.56 C2217.57,458.9 2280.0165,449.7232 2334.0065,444.6332" fill="none" id="CASOS_PRUEBA_ABIERTO-to-CASO_PRUEBA_ABIERTO-1" style="stroke:#181818;stroke-width:1;"/><polygon fill="#181818" points="2339.98,444.07,2330.6443,440.9324,2335.0021,444.5393,2331.3952,448.8971,2339.98,444.07" style="stroke:#181818;stroke-width:1;"/><text fill="#000000" font-family="sans-serif" font-size="13" lengthAdjust="spacing" textLength="140.6006" x="2164.5" y="443.6269">eliminarCasoPrueba()</text></g><!--link CASO_PRUEBA_ABIERTO to CASOS_PRUEBA_ABIERTO--><g class="link" data-entity-1="CASO_PRUEBA_ABIERTO" data-entity-2="CASOS_PRUEBA_ABIERTO" data-source-line="46" data-uid="lnk46" id="link_CASO_PRUEBA_ABIERTO_CASOS_PRUEBA_ABIERTO"><path d="M2393.55,463.67 C2369.92,477.12 2339.17,492.86 2310,502.56 C2246.1,523.8 2177.265,535.5968 2118.785,542.7968" fill="none" id="CASO_PRUEBA_ABIERTO-to-CASOS_PRUEBA_ABIERTO" style="stroke:#181818;stroke-width:1;"/><polygon fill="#181818" points="2112.83,543.53,2122.2513,546.4003,2117.7925,542.919,2121.2738,538.4602,2112.83,543.53" style="stroke:#181818;stroke-width:1;"/><text fill="#000000" font-family="sans-serif" font-size="13" lengthAdjust="spacing" textLength="125.9248" x="2172" y="498.6269">completarGestion()</text></g><!--link CASOS_PRUEBA_ABIERTO to KIWI_TCMS_ABIERTO--><g class="link" data-entity-1="CASOS_PRUEBA_ABIERTO" data-entity-2="KIWI_TCMS_ABIERTO" data-source-line="48" data-uid="lnk48" id="link_CASOS_PRUEBA_ABIERTO_KIWI_TCMS_ABIERTO"><path d="M2112.77,559.69 C2170.9,565.33 2245.35,575.09 2310,591.56 C2332.79,597.36 2351.5021,603.8744 2372.5221,612.3144" fill="none" id="CASOS_PRUEBA_ABIERTO-to-KIWI_TCMS_ABIERTO" style="stroke:#181818;stroke-width:1;"/><polygon fill="#181818" points="2378.09,614.55,2371.2285,607.4846,2373.4501,612.687,2368.2477,614.9085,2378.09,614.55" style="stroke:#181818;stroke-width:1;"/><text fill="#000000" font-family="sans-serif" font-size="13" lengthAdjust="spacing" textLength="141.8892" x="2164" y="560.6269">publicarEnKiwiTCMS()</text></g><!--link KIWI_TCMS_ABIERTO to CASOS_PRUEBA_ABIERTO--><g class="link" data-entity-1="KIWI_TCMS_ABIERTO" data-entity-2="CASOS_PRUEBA_ABIERTO" data-source-line="51" data-uid="lnk51" id="link_KIWI_TCMS_ABIERTO_CASOS_PRUEBA_ABIERTO"><path d="M2361.44,664.58 C2304.72,679.98 2224.92,692.77 2159,669.56 C2107.33,651.36 2064.4958,610.6489 2038.6158,582.0489" fill="none" id="KIWI_TCMS_ABIERTO-to-CASOS_PRUEBA_ABIERTO" style="stroke:#181818;stroke-width:1;"/><polygon fill="#181818" points="2034.59,577.6,2037.6628,586.9573,2037.9448,581.3074,2043.5947,581.5895,2034.59,577.6" style="stroke:#181818;stroke-width:1;"/><text fill="#000000" font-family="sans-serif" font-size="13" lengthAdjust="spacing" textLength="149.7983" x="2160" y="665.6269">completarPublicacion()</text></g><!--link CASOS_PRUEBA_ABIERTO to KIWI_TCMS_ABIERTO--><g class="link" data-entity-1="CASOS_PRUEBA_ABIERTO" data-entity-2="KIWI_TCMS_ABIERTO" data-source-line="53" data-uid="lnk52" id="link_CASOS_PRUEBA_ABIERTO_KIWI_TCMS_ABIERTO"><path d="M2059.92,577.71 C2087.82,591.61 2124.5,607.79 2159,616.56 C2222.61,632.72 2290.8824,638.0089 2346.2624,639.5889" fill="none" id="CASOS_PRUEBA_ABIERTO-to-KIWI_TCMS_ABIERTO-1" style="stroke:#181818;stroke-width:1;"/><polygon fill="#181818" points="2352.26,639.76,2343.3777,635.505,2347.262,639.6174,2343.1496,643.5017,2352.26,639.76" style="stroke:#181818;stroke-width:1;"/><text fill="#000000" font-family="sans-serif" font-size="13" lengthAdjust="spacing" textLength="149.8364" x="2160" y="612.6269">consultarEnKiwiTCMS()</text></g><!--link KIWI_TCMS_ABIERTO to CASOS_PRUEBA_ABIERTO--><g class="link" data-entity-1="KIWI_TCMS_ABIERTO" data-entity-2="CASOS_PRUEBA_ABIERTO" data-source-line="54" data-uid="lnk53" id="link_KIWI_TCMS_ABIERTO_CASOS_PRUEBA_ABIERTO"><path d="M2399.15,664.71 C2375.24,680.13 2342.25,698.43 2310,706.56 C2244.92,722.95 2220.63,733.12 2159,706.56 C2097.86,680.21 2053.5957,619.2331 2031.0557,582.7831" fill="none" id="KIWI_TCMS_ABIERTO-to-CASOS_PRUEBA_ABIERTO-1" style="stroke:#181818;stroke-width:1;"/><polygon fill="#181818" points="2027.9,577.68,2029.2314,587.4384,2030.5297,581.9326,2036.0356,583.2309,2027.9,577.68" style="stroke:#181818;stroke-width:1;"/><text fill="#000000" font-family="sans-serif" font-size="13" lengthAdjust="spacing" textLength="133.1357" x="2168" y="702.6269">completarConsulta()</text></g><!--link KIWI_TCMS_ABIERTO to KIWI_TCMS_ABIERTO--><g class="link" data-entity-1="KIWI_TCMS_ABIERTO" data-entity-2="KIWI_TCMS_ABIERTO" data-source-line="49" data-uid="lnk49" id="link_KIWI_TCMS_ABIERTO_KIWI_TCMS_ABIERTO"><path d="M2418.58,614.28 C2413.45,596.78 2419.09,579.56 2435.5,579.56 C2451.91,579.56 2459.2378,591.0223 2454.1078,608.5223" fill="none" id="KIWI_TCMS_ABIERTO-to-KIWI_TCMS_ABIERTO" style="stroke:#181818;stroke-width:1;"/><polygon fill="#181818" points="2452.42,614.28,2458.7902,606.7687,2453.8265,609.4819,2451.1133,604.5182,2452.42,614.28" style="stroke:#181818;stroke-width:1;"/><text fill="#000000" font-family="sans-serif" font-size="13" lengthAdjust="spacing" textLength="135.6367" x="2368" y="570.6269">recibirCasosPrueba()</text></g><!--link KIWI_TCMS_ABIERTO to KIWI_TCMS_ABIERTO--><g class="link" data-entity-1="KIWI_TCMS_ABIERTO" data-entity-2="KIWI_TCMS_ABIERTO" data-source-line="50" data-uid="lnk50" id="link_KIWI_TCMS_ABIERTO_KIWI_TCMS_ABIERTO"><path d="M2409.22,614.26 C2388.07,582.44 2396.83,544.56 2435.5,544.56 C2474.17,544.56 2486.2513,577.4431 2465.1013,609.2631" fill="none" id="KIWI_TCMS_ABIERTO-to-KIWI_TCMS_ABIERTO-1" style="stroke:#181818;stroke-width:1;"/><polygon fill="#181818" points="2461.78,614.26,2470.0932,608.9789,2464.5478,610.0959,2463.4307,604.5505,2461.78,614.26" style="stroke:#181818;stroke-width:1;"/><text fill="#000000" font-family="sans-serif" font-size="13" lengthAdjust="spacing" textLength="163.23" x="2354" y="535.6269">almacenarCasosPrueba()</text></g><!--SRC=[jPRTZfim48NlUGekTolj2_HY9IznAhIRaFAZNbGLSfpfhbM2KzkexTlNJX0XO1jOjRSmv_EPcHES2hwhKF5GiDSt5HwO0AeOhuFWwuTluSF3OvZ5MOutg8nmcg9L4WI31-UYLH8L6xpDKHGdsn8znJZDKVWnP3MZZ8WCf6RUtGVsEiinMaj1Y9xKetMVJhauSKrPSTeSeLQ4JlbmiOZaffCR4De9_aVFY_ljHIXBihB8alQfQGv-Aq50H1eh2sa0uogV7SgFfmeK4Pz0gajFTe3jy0fkJlOe1q8gW9oLFiiM7HoOUf-mOaTM3wMpchHCoBEZ57ykuYpEDMPTRCrhz8ApyS9I-DamoHINwwOs6I0LI8sUq2zSvGpQf66pP9VRHGTSAuP9wF0TVQ5tA_eIbl_4RlFafrkaiqPkYvmzwZYBy1QbSTANlq8D-bk59GLjaN6v4mtioRo-5n8jvJD-I8RMVa4TW2KpcgPPcpB1jdGqoIXtQO6Vq2Xf7MjgE3vIcwj_mRhUMck0mvxG7ttCiDuv9biOlLiV6MdJSxufkdwijNDCzBRjP3YCTFVLTTbUX6lJXZ7TY8FGkubk60lwS7yVB8pd-4jSvj6cFyvJiwyOrJ6hdzalPbvgnBZG9TV_xTYU3KOvNqwg8pd7UmvWQWIxIolqFMEWl9PDfMRDOSf7rBBkxly2]--></g></svg>