<svg xmlns="http://www.w3.org/2000/svg" xmlns:xlink="http://www.w3.org/1999/xlink" contentStyleType="text/css" data-diagram-type="STATE" height="600px" preserveAspectRatio="none" style="width:3506px;height:600px;background:#FFFFFF;" version="1.1" viewBox="0 0 3506 600" width="3506px" zoomAndPan="magnify"><defs/><g><ellipse cx="16" cy="213.5659" fill="#222222" rx="10" ry="10" style="stroke:#222222;stroke-width:1;"/><g id="SISTEMA_CERRADO"><rect fill="#F1F1F1" height="50" rx="12.5" ry="12.5" style="stroke:#181818;stroke-width:0.5;" width="157.4092" x="87" y="188.5659"/><line style="stroke:#181818;stroke-width:0.5;" x1="87" x2="244.4092" y1="214.8628" y2="214.8628"/><text fill="#000000" font-family="sans-serif" font-size="14" lengthAdjust="spacing" textLength="137.4092" x="97" y="206.561">SISTEMA_CERRADO</text></g><g id="DOCUMENTACION_ABIERTA"><rect fill="#F1F1F1" height="50" rx="12.5" ry="12.5" style="stroke:#181818;stroke-width:0.5;" width="213.7578" x="398" y="188.5659"/><line style="stroke:#181818;stroke-width:0.5;" x1="398" x2="611.7578" y1="214.8628" y2="214.8628"/><text fill="#000000" font-family="sans-serif" font-size="14" lengthAdjust="spacing" textLength="193.7578" x="408" y="206.561">DOCUMENTACION_ABIERTA</text></g><g id="CASOS_USO_ABIERTO"><rect fill="#F1F1F1" height="50" rx="12.5" ry="12.5" style="stroke:#181818;stroke-width:0.5;" width="173.7539" x="1918.5" y="149.5659"/><line style="stroke:#181818;stroke-width:0.5;" x1="1918.5" x2="2092.2539" y1="175.8628" y2="175.8628"/><text fill="#000000" font-family="sans-serif" font-size="14" lengthAdjust="spacing" textLength="153.7539" x="1928.5" y="167.561">CASOS_USO_ABIERTO</text></g><g id="CASO_USO_ABIERTO"><rect fill="#F1F1F1" height="50" rx="12.5" ry="12.5" style="stroke:#181818;stroke-width:0.5;" width="164.8672" x="2334.5" y="92.5659"/><line style="stroke:#181818;stroke-width:0.5;" x1="2334.5" x2="2499.3672" y1="118.8628" y2="118.8628"/><text fill="#000000" font-family="sans-serif" font-size="14" lengthAdjust="spacing" textLength="144.8672" x="2344.5" y="110.561">CASO_USO_ABIERTO</text></g><g id="REQUISITOS_FUNCIONALES_ABIERTO"><rect fill="#F1F1F1" height="50" rx="12.5" ry="12.5" style="stroke:#181818;stroke-width:0.5;" width="280.1758" x="876" y="324.5659"/><line style="stroke:#181818;stroke-width:0.5;" x1="876" x2="1156.1758" y1="350.8628" y2="350.8628"/><text fill="#000000" font-family="sans-serif" font-size="14" lengthAdjust="spacing" textLength="260.1758" x="886" y="342.561">REQUISITOS_FUNCIONALES_ABIERTO</text></g><g id="REQUISITO_FUNCIONAL_ABIERTO"><rect fill="#F1F1F1" height="50" rx="12.5" ry="12.5" style="stroke:#181818;stroke-width:0.5;" width="253.5566" x="1414" y="438.5659"/><line style="stroke:#181818;stroke-width:0.5;" x1="1414" x2="1667.5566" y1="464.8628" y2="464.8628"/><text fill="#000000" font-family="sans-serif" font-size="14" lengthAdjust="spacing" textLength="233.5566" x="1424" y="456.561">REQUISITO_FUNCIONAL_ABIERTO</text></g><g id="ESCENARIOS_GHERKIN_ABIERTO"><rect fill="#F1F1F1" height="50" rx="12.5" ry="12.5" style="stroke:#181818;stroke-width:0.5;" width="249.3525" x="1416.5" y="272.5659"/><line style="stroke:#181818;stroke-width:0.5;" x1="1416.5" x2="1665.8525" y1="298.8628" y2="298.8628"/><text fill="#000000" font-family="sans-serif" font-size="14" lengthAdjust="spacing" textLength="229.3525" x="1426.5" y="290.561">ESCENARIOS_GHERKIN_ABIERTO</text></g><g id="BORRADORES_ABIERTO"><rect fill="#F1F1F1" height="50" rx="12.5" ry="12.5" style="stroke:#181818;stroke-width:0.5;" width="187.3711" x="1912" y="376.5659"/><line style="stroke:#181818;stroke-width:0.5;" x1="1912" x2="2099.3711" y1="402.8628" y2="402.8628"/><text fill="#000000" font-family="sans-serif" font-size="14" lengthAdjust="spacing" textLength="167.3711" x="1922" y="394.561">BORRADORES_ABIERTO</text></g><g id="BORRADOR_ABIERTO"><rect fill="#F1F1F1" height="50" rx="12.5" ry="12.5" style="stroke:#181818;stroke-width:0.5;" width="169.6387" x="2332" y="405.5659"/><line style="stroke:#181818;stroke-width:0.5;" x1="2332" x2="2501.6387" y1="431.8628" y2="431.8628"/><text fill="#000000" font-family="sans-serif" font-size="14" lengthAdjust="spacing" textLength="149.6387" x="2342" y="423.561">BORRADOR_ABIERTO</text></g><g id="CASO_PRUEBA_PREPARADO"><rect fill="#F1F1F1" height="50" rx="12.5" ry="12.5" style="stroke:#181818;stroke-width:0.5;" width="215.8428" x="2836" y="405.5659"/><line style="stroke:#181818;stroke-width:0.5;" x1="2836" x2="3051.8428" y1="431.8628" y2="431.8628"/><text fill="#000000" font-family="sans-serif" font-size="14" lengthAdjust="spacing" textLength="195.8428" x="2846" y="423.561">CASO_PRUEBA_PREPARADO</text></g><g id="KIWI_TCMS_ABIERTO"><rect fill="#F1F1F1" height="50" rx="12.5" ry="12.5" style="stroke:#181818;stroke-width:0.5;" width="166.0293" x="3333" y="405.5659"/><line style="stroke:#181818;stroke-width:0.5;" x1="3333" x2="3499.0293" y1="431.8628" y2="431.8628"/><text fill="#000000" font-family="sans-serif" font-size="14" lengthAdjust="spacing" textLength="146.0293" x="3343" y="423.561">KIWI_TCMS_ABIERTO</text></g><!--link *start* to SISTEMA_CERRADO--><g class="link" data-entity-1=".start." data-entity-2="SISTEMA_CERRADO" data-source-line="3" data-uid="lnk4" id="link_.start._SISTEMA_CERRADO"><path d="M26.23,213.5659 C38.78,213.5659 56.46,213.5659 80.73,213.5659" fill="none" id="*start*-to-SISTEMA_CERRADO" style="stroke:#181818;stroke-width:1;"/><polygon fill="#181818" points="86.73,213.5659,77.73,209.5659,81.73,213.5659,77.73,217.5659,86.73,213.5659" style="stroke:#181818;stroke-width:1;"/></g><!--link SISTEMA_CERRADO to DOCUMENTACION_ABIERTA--><g class="link" data-entity-1="SISTEMA_CERRADO" data-entity-2="DOCUMENTACION_ABIERTA" data-source-line="5" data-uid="lnk6" id="link_SISTEMA_CERRADO_DOCUMENTACION_ABIERTA"><path d="M244.35,213.5659 C289.91,213.5659 342.06,213.5659 391.77,213.5659" fill="none" id="SISTEMA_CERRADO-to-DOCUMENTACION_ABIERTA" style="stroke:#181818;stroke-width:1;"/><polygon fill="#181818" points="397.77,213.5659,388.77,209.5659,392.77,213.5659,388.77,217.5659,397.77,213.5659" style="stroke:#181818;stroke-width:1;"/><text fill="#000000" font-family="sans-serif" font-size="13" lengthAdjust="spacing" textLength="92.5044" x="275" y="209.6328">iniciarSesion()</text></g><!--link DOCUMENTACION_ABIERTA to SISTEMA_CERRADO--><g class="link" data-entity-1="DOCUMENTACION_ABIERTA" data-entity-2="SISTEMA_CERRADO" data-source-line="6" data-uid="lnk7" id="link_DOCUMENTACION_ABIERTA_SISTEMA_CERRADO"><path d="M397.72,235.0059 C387.71,236.4559 377.68,237.6859 368,238.5659 C326.39,242.3559 315.51,243.3259 274,238.5659 C264.29,237.4459 260.0682,236.9387 250.1082,234.9887" fill="none" id="DOCUMENTACION_ABIERTA-to-SISTEMA_CERRADO" style="stroke:#181818;stroke-width:1;"/><polygon fill="#181818" points="244.22,233.8359,252.2838,239.4906,249.1268,234.7966,253.8209,231.6397,244.22,233.8359" style="stroke:#181818;stroke-width:1;"/><text fill="#000000" font-family="sans-serif" font-size="13" lengthAdjust="spacing" textLength="92.1172" x="275" y="234.6328">cerrarSesion()</text></g><!--link DOCUMENTACION_ABIERTA to DOCUMENTACION_ABIERTA--><g class="link" data-entity-1="DOCUMENTACION_ABIERTA" data-entity-2="DOCUMENTACION_ABIERTA" data-source-line="8" data-uid="lnk8" id="link_DOCUMENTACION_ABIERTA_DOCUMENTACION_ABIERTA"><path d="M494.62,188.2859 C491.48,170.7859 494.94,153.5659 505,153.5659 C515.06,153.5659 519.5796,164.8802 516.4396,182.3802" fill="none" id="DOCUMENTACION_ABIERTA-to-DOCUMENTACION_ABIERTA" style="stroke:#181818;stroke-width:1;"/><polygon fill="#181818" points="515.38,188.2859,520.9066,180.1338,516.263,183.3645,513.0323,178.721,515.38,188.2859" style="stroke:#181818;stroke-width:1;"/><text fill="#000000" font-family="sans-serif" font-size="13" lengthAdjust="spacing" textLength="237.7388" x="386.5" y="144.6328">introducirDocumentacionFuncional()</text></g><!--link DOCUMENTACION_ABIERTA to DOCUMENTACION_ABIERTA--><g class="link" data-entity-1="DOCUMENTACION_ABIERTA" data-entity-2="DOCUMENTACION_ABIERTA" data-source-line="9" data-uid="lnk9" id="link_DOCUMENTACION_ABIERTA_DOCUMENTACION_ABIERTA"><path d="M488.88,188.2659 C475.91,156.4459 481.28,118.5659 505,118.5659 C528.72,118.5659 536.3547,150.8897 523.3847,182.7097" fill="none" id="DOCUMENTACION_ABIERTA-to-DOCUMENTACION_ABIERTA-1" style="stroke:#181818;stroke-width:1;"/><polygon fill="#181818" points="521.12,188.2659,528.2212,181.4415,523.0073,183.6358,520.813,178.4218,521.12,188.2659" style="stroke:#181818;stroke-width:1;"/><text fill="#000000" font-family="sans-serif" font-size="13" lengthAdjust="spacing" textLength="225.0942" x="392.5" y="109.6328">asociarDocumentacionAProyecto()</text></g><!--link DOCUMENTACION_ABIERTA to DOCUMENTACION_ABIERTA--><g class="link" data-entity-1="DOCUMENTACION_ABIERTA" data-entity-2="DOCUMENTACION_ABIERTA" data-source-line="10" data-uid="lnk10" id="link_DOCUMENTACION_ABIERTA_DOCUMENTACION_ABIERTA"><path d="M485.54,188.3559 C460.33,143.2759 466.82,83.5659 505,83.5659 C543.18,83.5659 552.5985,138.0392 527.3885,183.1192" fill="none" id="DOCUMENTACION_ABIERTA-to-DOCUMENTACION_ABIERTA-2" style="stroke:#181818;stroke-width:1;"/><polygon fill="#181818" points="524.46,188.3559,532.344,182.4531,526.9005,183.992,525.3616,178.5484,524.46,188.3559" style="stroke:#181818;stroke-width:1;"/><text fill="#000000" font-family="sans-serif" font-size="13" lengthAdjust="spacing" textLength="229.8105" x="390.5" y="74.6328">consultarDocumentacionProyecto()</text></g><!--link DOCUMENTACION_ABIERTA to CASOS_USO_ABIERTO--><g class="link" data-entity-1="DOCUMENTACION_ABIERTA" data-entity-2="CASOS_USO_ABIERTO" data-source-line="12" data-uid="lnk12" id="link_DOCUMENTACION_ABIERTA_CASOS_USO_ABIERTO"><path d="M546.22,188.4659 C572.41,173.6359 607.93,156.2859 642,148.5659 C1179.47,26.7259 1333.9,91.0359 1882,148.5659 C1893.78,149.7959 1900.1978,150.607 1912.2878,152.817" fill="none" id="DOCUMENTACION_ABIERTA-to-CASOS_USO_ABIERTO" style="stroke:#181818;stroke-width:1;"/><polygon fill="#181818" points="1918.19,153.8959,1910.056,148.3428,1913.2715,152.9968,1908.6174,156.2124,1918.19,153.8959" style="stroke:#181818;stroke-width:1;"/><text fill="#000000" font-family="sans-serif" font-size="13" lengthAdjust="spacing" textLength="120.3706" x="1225" y="75.6328">extraerCasosUso()</text></g><!--link CASOS_USO_ABIERTO to DOCUMENTACION_ABIERTA--><g class="link" data-entity-1="CASOS_USO_ABIERTO" data-entity-2="DOCUMENTACION_ABIERTA" data-source-line="13" data-uid="lnk13" id="link_CASOS_USO_ABIERTO_DOCUMENTACION_ABIERTA"><path d="M1918.08,176.8159 C1659.88,183.5359 900.678,203.2898 618.268,210.6398" fill="none" id="CASOS_USO_ABIERTO-to-DOCUMENTACION_ABIERTA" style="stroke:#181818;stroke-width:1;"/><polygon fill="#181818" points="612.27,210.7959,621.371,214.5604,617.2683,210.6658,621.1629,206.5631,612.27,210.7959" style="stroke:#181818;stroke-width:1;"/><text fill="#000000" font-family="sans-serif" font-size="13" lengthAdjust="spacing" textLength="125.9248" x="1222.5" y="187.6328">completarGestion()</text></g><!--link CASOS_USO_ABIERTO to CASOS_USO_ABIERTO--><g class="link" data-entity-1="CASOS_USO_ABIERTO" data-entity-2="CASOS_USO_ABIERTO" data-source-line="14" data-uid="lnk14" id="link_CASOS_USO_ABIERTO_CASOS_USO_ABIERTO"><path d="M1969.97,149.2859 C1959.2,131.7859 1971.05,114.5659 2005.5,114.5659 C2039.95,114.5659 2054.9447,126.6761 2044.1747,144.1761" fill="none" id="CASOS_USO_ABIERTO-to-CASOS_USO_ABIERTO" style="stroke:#181818;stroke-width:1;"/><polygon fill="#181818" points="2041.03,149.2859,2049.1537,143.7176,2043.6506,145.0277,2042.3406,139.5246,2041.03,149.2859" style="stroke:#181818;stroke-width:1;"/><text fill="#000000" font-family="sans-serif" font-size="13" lengthAdjust="spacing" textLength="105.333" x="1953" y="105.6328">listarCasosUso()</text></g><!--link CASOS_USO_ABIERTO to CASO_USO_ABIERTO--><g class="link" data-entity-1="CASOS_USO_ABIERTO" data-entity-2="CASO_USO_ABIERTO" data-source-line="16" data-uid="lnk16" id="link_CASOS_USO_ABIERTO_CASO_USO_ABIERTO"><path d="M2020.81,149.3059 C2040.47,117.4759 2079.14,64.3159 2129,42.5659 C2199.47,11.8159 2228.34,20.5059 2302,42.5659 C2334.45,52.2859 2361.5751,70.7479 2383.2951,88.5079" fill="none" id="CASOS_USO_ABIERTO-to-CASO_USO_ABIERTO" style="stroke:#181818;stroke-width:1;"/><polygon fill="#181818" points="2387.94,92.3059,2383.5047,83.5123,2384.0693,89.1409,2378.4407,89.7055,2387.94,92.3059" style="stroke:#181818;stroke-width:1;"/><text fill="#000000" font-family="sans-serif" font-size="13" lengthAdjust="spacing" textLength="126.5278" x="2152.5" y="19.6328">consultarCasoUso()</text></g><!--link CASOS_USO_ABIERTO to CASO_USO_ABIERTO--><g class="link" data-entity-1="CASOS_USO_ABIERTO" data-entity-2="CASO_USO_ABIERTO" data-source-line="17" data-uid="lnk17" id="link_CASOS_USO_ABIERTO_CASO_USO_ABIERTO"><path d="M2036.97,149.2759 C2060.48,131.5059 2094.68,109.2359 2129,99.5659 C2196.39,80.5759 2270.1735,86.7411 2328.4635,97.1511" fill="none" id="CASOS_USO_ABIERTO-to-CASO_USO_ABIERTO-1" style="stroke:#181818;stroke-width:1;"/><polygon fill="#181818" points="2334.37,98.2059,2326.2134,92.6859,2329.4479,97.3269,2324.8069,100.5613,2334.37,98.2059" style="stroke:#181818;stroke-width:1;"/><text fill="#000000" font-family="sans-serif" font-size="13" lengthAdjust="spacing" textLength="99.9565" x="2166" y="84.6328">crearCasoUso()</text></g><!--link CASOS_USO_ABIERTO to CASO_USO_ABIERTO--><g class="link" data-entity-1="CASOS_USO_ABIERTO" data-entity-2="CASO_USO_ABIERTO" data-source-line="18" data-uid="lnk18" id="link_CASOS_USO_ABIERTO_CASO_USO_ABIERTO"><path d="M2092.82,161.7559 C2104.96,159.9959 2117.29,158.2159 2129,156.5659 C2198.21,146.7759 2270.923,136.912 2328.373,129.222" fill="none" id="CASOS_USO_ABIERTO-to-CASO_USO_ABIERTO-2" style="stroke:#181818;stroke-width:1;"/><polygon fill="#181818" points="2334.32,128.4259,2324.8689,125.6553,2329.3642,129.0893,2325.9302,133.5846,2334.32,128.4259" style="stroke:#181818;stroke-width:1;"/><text fill="#000000" font-family="sans-serif" font-size="13" lengthAdjust="spacing" textLength="129.9302" x="2151" y="129.6328">actualizarCasoUso()</text></g><!--link CASOS_USO_ABIERTO to CASO_USO_ABIERTO--><g class="link" data-entity-1="CASOS_USO_ABIERTO" data-entity-2="CASO_USO_ABIERTO" data-source-line="19" data-uid="lnk19" id="link_CASOS_USO_ABIERTO_CASO_USO_ABIERTO"><path d="M2092.65,188.9959 C2152.39,196.0259 2233.24,199.5459 2302,181.5659 C2330.99,173.9859 2355.4005,160.5384 2377.0805,146.0584" fill="none" id="CASOS_USO_ABIERTO-to-CASO_USO_ABIERTO-3" style="stroke:#181818;stroke-width:1;"/><polygon fill="#181818" points="2382.07,142.7259,2372.3642,144.3983,2377.9121,145.503,2376.8074,151.0509,2382.07,142.7259" style="stroke:#181818;stroke-width:1;"/><text fill="#000000" font-family="sans-serif" font-size="13" lengthAdjust="spacing" textLength="119.2026" x="2156" y="177.6328">eliminarCasoUso()</text></g><!--link CASO_USO_ABIERTO to CASOS_USO_ABIERTO--><g class="link" data-entity-1="CASO_USO_ABIERTO" data-entity-2="CASOS_USO_ABIERTO" data-source-line="20" data-uid="lnk20" id="link_CASO_USO_ABIERTO_CASOS_USO_ABIERTO"><path d="M2397.49,142.7459 C2377.27,167.9159 2342.33,205.0459 2302,220.5659 C2222.17,251.2859 2128.2873,225.6027 2067.5273,201.8227" fill="none" id="CASO_USO_ABIERTO-to-CASOS_USO_ABIERTO" style="stroke:#181818;stroke-width:1;"/><polygon fill="#181818" points="2061.94,199.6359,2068.8632,206.6409,2066.5961,201.4582,2071.7788,199.1912,2061.94,199.6359" style="stroke:#181818;stroke-width:1;"/><text fill="#000000" font-family="sans-serif" font-size="13" lengthAdjust="spacing" textLength="125.9248" x="2153" y="216.6328">completarGestion()</text></g><!--link DOCUMENTACION_ABIERTA to REQUISITOS_FUNCIONALES_ABIERTO--><g class="link" data-entity-1="DOCUMENTACION_ABIERTA" data-entity-2="REQUISITOS_FUNCIONALES_ABIERTO" data-source-line="22" data-uid="lnk22" id="link_DOCUMENTACION_ABIERTA_REQUISITOS_FUNCIONALES_ABIERTO"><path d="M599.65,238.5859 C691.1,263.0259 823.7033,298.4572 915.2533,322.9172" fill="none" id="DOCUMENTACION_ABIERTA-to-REQUISITOS_FUNCIONALES_ABIERTO" style="stroke:#181818;stroke-width:1;"/><polygon fill="#181818" points="921.05,324.4659,913.3875,318.2784,916.2194,323.1753,911.3225,326.0073,921.05,324.4659" style="stroke:#181818;stroke-width:1;"/><text fill="#000000" font-family="sans-serif" font-size="13" lengthAdjust="spacing" textLength="202.1855" x="643" y="245.6328">extraerRequisitosFuncionales()</text></g><!--link REQUISITOS_FUNCIONALES_ABIERTO to DOCUMENTACION_ABIERTA--><g class="link" data-entity-1="REQUISITOS_FUNCIONALES_ABIERTO" data-entity-2="DOCUMENTACION_ABIERTA" data-source-line="23" data-uid="lnk23" id="link_REQUISITOS_FUNCIONALES_ABIERTO_DOCUMENTACION_ABIERTA"><path d="M875.88,361.2359 C803.74,362.3259 715.58,355.7359 642,326.5659 C594.63,307.7859 555.5253,270.3043 531.0553,243.1343" fill="none" id="REQUISITOS_FUNCIONALES_ABIERTO-to-DOCUMENTACION_ABIERTA" style="stroke:#181818;stroke-width:1;"/><polygon fill="#181818" points="527.04,238.6759,530.0907,248.0404,530.3861,242.3912,536.0352,242.6866,527.04,238.6759" style="stroke:#181818;stroke-width:1;"/><text fill="#000000" font-family="sans-serif" font-size="13" lengthAdjust="spacing" textLength="125.9248" x="681.5" y="322.6328">completarGestion()</text></g><!--link REQUISITOS_FUNCIONALES_ABIERTO to REQUISITOS_FUNCIONALES_ABIERTO--><g class="link" data-entity-1="REQUISITOS_FUNCIONALES_ABIERTO" data-entity-2="REQUISITOS_FUNCIONALES_ABIERTO" data-source-line="24" data-uid="lnk24" id="link_REQUISITOS_FUNCIONALES_ABIERTO_REQUISITOS_FUNCIONALES_ABIERTO"><path d="M970.66,324.2859 C956.92,306.7859 972.03,289.5659 1016,289.5659 C1059.97,289.5659 1078.7853,302.0667 1065.0453,319.5667" fill="none" id="REQUISITOS_FUNCIONALES_ABIERTO-to-REQUISITOS_FUNCIONALES_ABIERTO" style="stroke:#181818;stroke-width:1;"/><polygon fill="#181818" points="1061.34,324.2859,1070.044,319.6773,1064.4277,320.3532,1063.7517,314.7369,1061.34,324.2859" style="stroke:#181818;stroke-width:1;"/><text fill="#000000" font-family="sans-serif" font-size="13" lengthAdjust="spacing" textLength="187.1479" x="922.5" y="280.6328">listarRequisitosFuncionales()</text></g><!--link REQUISITOS_FUNCIONALES_ABIERTO to REQUISITO_FUNCIONAL_ABIERTO--><g class="link" data-entity-1="REQUISITOS_FUNCIONALES_ABIERTO" data-entity-2="REQUISITO_FUNCIONAL_ABIERTO" data-source-line="26" data-uid="lnk26" id="link_REQUISITOS_FUNCIONALES_ABIERTO_REQUISITO_FUNCIONAL_ABIERTO"><path d="M1156.16,359.4259 C1241.5,366.4259 1342.17,376.6659 1384,388.5659 C1424.47,400.0659 1462.0864,418.5096 1492.6164,435.4896" fill="none" id="REQUISITOS_FUNCIONALES_ABIERTO-to-REQUISITO_FUNCIONAL_ABIERTO" style="stroke:#181818;stroke-width:1;"/><polygon fill="#181818" points="1497.86,438.4059,1491.9389,430.5357,1493.4904,435.9756,1488.0504,437.5271,1497.86,438.4059" style="stroke:#181818;stroke-width:1;"/><text fill="#000000" font-family="sans-serif" font-size="13" lengthAdjust="spacing" textLength="193.5718" x="1188.5" y="357.6328">consultarRequisitoFuncional()</text></g><!--link REQUISITOS_FUNCIONALES_ABIERTO to REQUISITO_FUNCIONAL_ABIERTO--><g class="link" data-entity-1="REQUISITOS_FUNCIONALES_ABIERTO" data-entity-2="REQUISITO_FUNCIONAL_ABIERTO" data-source-line="27" data-uid="lnk27" id="link_REQUISITOS_FUNCIONALES_ABIERTO_REQUISITO_FUNCIONAL_ABIERTO"><path d="M1073.86,374.7159 C1106.17,388.0859 1147.71,403.7359 1186,413.5659 C1228.08,424.3659 1324.0558,437.5656 1407.7858,447.9756" fill="none" id="REQUISITOS_FUNCIONALES_ABIERTO-to-REQUISITO_FUNCIONAL_ABIERTO-1" style="stroke:#181818;stroke-width:1;"/><polygon fill="#181818" points="1413.74,448.7159,1405.3023,443.6361,1408.7782,448.099,1404.3152,451.575,1413.74,448.7159" style="stroke:#181818;stroke-width:1;"/><text fill="#000000" font-family="sans-serif" font-size="13" lengthAdjust="spacing" textLength="167.0005" x="1201.5" y="409.6328">crearRequisitoFuncional()</text></g><!--link REQUISITOS_FUNCIONALES_ABIERTO to REQUISITO_FUNCIONAL_ABIERTO--><g class="link" data-entity-1="REQUISITOS_FUNCIONALES_ABIERTO" data-entity-2="REQUISITO_FUNCIONAL_ABIERTO" data-source-line="28" data-uid="lnk28" id="link_REQUISITOS_FUNCIONALES_ABIERTO_REQUISITO_FUNCIONAL_ABIERTO"><path d="M1041.67,374.7959 C1072.32,404.1559 1127.72,450.9759 1186,469.5659 C1259.06,492.8659 1339.0006,492.6307 1407.9006,485.6507" fill="none" id="REQUISITOS_FUNCIONALES_ABIERTO-to-REQUISITO_FUNCIONAL_ABIERTO-2" style="stroke:#181818;stroke-width:1;"/><polygon fill="#181818" points="1413.87,485.0459,1404.5127,481.9734,1408.8955,485.5499,1405.319,489.9327,1413.87,485.0459" style="stroke:#181818;stroke-width:1;"/><text fill="#000000" font-family="sans-serif" font-size="13" lengthAdjust="spacing" textLength="196.9741" x="1187" y="465.6328">actualizarRequisitoFuncional()</text></g><!--link REQUISITOS_FUNCIONALES_ABIERTO to REQUISITO_FUNCIONAL_ABIERTO--><g class="link" data-entity-1="REQUISITOS_FUNCIONALES_ABIERTO" data-entity-2="REQUISITO_FUNCIONAL_ABIERTO" data-source-line="29" data-uid="lnk29" id="link_REQUISITOS_FUNCIONALES_ABIERTO_REQUISITO_FUNCIONAL_ABIERTO"><path d="M1033.26,374.7959 C1059.79,413.3359 1116.47,485.3759 1186,513.5659 C1285.51,553.9059 1406.6078,519.0956 1478.2978,490.8456" fill="none" id="REQUISITOS_FUNCIONALES_ABIERTO-to-REQUISITO_FUNCIONAL_ABIERTO-3" style="stroke:#181818;stroke-width:1;"/><polygon fill="#181818" points="1483.88,488.6459,1474.0402,488.224,1479.2281,490.479,1476.9731,495.667,1483.88,488.6459" style="stroke:#181818;stroke-width:1;"/><text fill="#000000" font-family="sans-serif" font-size="13" lengthAdjust="spacing" textLength="186.2466" x="1192" y="509.6328">eliminarRequisitoFuncional()</text></g><!--link REQUISITO_FUNCIONAL_ABIERTO to REQUISITOS_FUNCIONALES_ABIERTO--><g class="link" data-entity-1="REQUISITO_FUNCIONAL_ABIERTO" data-entity-2="REQUISITOS_FUNCIONALES_ABIERTO" data-source-line="30" data-uid="lnk30" id="link_REQUISITO_FUNCIONAL_ABIERTO_REQUISITOS_FUNCIONALES_ABIERTO"><path d="M1509.13,488.5859 C1479.2,511.1059 1431.47,542.6059 1384,555.5659 C1299.1,578.7359 1265.55,593.1959 1186,555.5659 C1105.71,517.5859 1053.4174,426.0901 1030.9774,380.0201" fill="none" id="REQUISITO_FUNCIONAL_ABIERTO-to-REQUISITOS_FUNCIONALES_ABIERTO" style="stroke:#181818;stroke-width:1;"/><polygon fill="#181818" points="1028.35,374.6259,1028.695,384.4687,1030.5395,379.121,1035.8872,380.9655,1028.35,374.6259" style="stroke:#181818;stroke-width:1;"/><text fill="#000000" font-family="sans-serif" font-size="13" lengthAdjust="spacing" textLength="125.9248" x="1222.5" y="551.6328">completarGestion()</text></g><!--link CASOS_USO_ABIERTO to ESCENARIOS_GHERKIN_ABIERTO--><g class="link" data-entity-1="CASOS_USO_ABIERTO" data-entity-2="ESCENARIOS_GHERKIN_ABIERTO" data-source-line="32" data-uid="lnk32" id="link_CASOS_USO_ABIERTO_ESCENARIOS_GHERKIN_ABIERTO"><path d="M1983.04,199.6659 C1960.6,223.9359 1923,259.3259 1882,275.5659 C1813.8,302.5659 1737.8993,308.6655 1671.5693,307.6755" fill="none" id="CASOS_USO_ABIERTO-to-ESCENARIOS_GHERKIN_ABIERTO" style="stroke:#181818;stroke-width:1;"/><polygon fill="#181818" points="1665.57,307.5859,1674.5093,311.7198,1670.5694,307.6605,1674.6287,303.7207,1665.57,307.5859" style="stroke:#181818;stroke-width:1;"/><text fill="#000000" font-family="sans-serif" font-size="13" lengthAdjust="spacing" textLength="182.3428" x="1699" y="271.6328">generarEscenariosGherkin()</text></g><!--link ESCENARIOS_GHERKIN_ABIERTO to CASOS_USO_ABIERTO--><g class="link" data-entity-1="ESCENARIOS_GHERKIN_ABIERTO" data-entity-2="CASOS_USO_ABIERTO" data-source-line="34" data-uid="lnk34" id="link_ESCENARIOS_GHERKIN_ABIERTO_CASOS_USO_ABIERTO"><path d="M1628.77,272.4759 C1651.24,266.3059 1675.45,259.9359 1698,254.5659 C1779.15,235.2459 1801.56,239.6559 1882,217.5659 C1900.58,212.4559 1914.7585,207.9527 1932.9385,201.5727" fill="none" id="ESCENARIOS_GHERKIN_ABIERTO-to-CASOS_USO_ABIERTO" style="stroke:#181818;stroke-width:1;"/><polygon fill="#181818" points="1938.6,199.5859,1928.7832,198.7918,1933.8821,201.2416,1931.4323,206.3405,1938.6,199.5859" style="stroke:#181818;stroke-width:1;"/><text fill="#000000" font-family="sans-serif" font-size="13" lengthAdjust="spacing" textLength="150.7505" x="1715" y="213.6328">completarGeneracion()</text></g><!--link REQUISITOS_FUNCIONALES_ABIERTO to ESCENARIOS_GHERKIN_ABIERTO--><g class="link" data-entity-1="REQUISITOS_FUNCIONALES_ABIERTO" data-entity-2="ESCENARIOS_GHERKIN_ABIERTO" data-source-line="33" data-uid="lnk33" id="link_REQUISITOS_FUNCIONALES_ABIERTO_ESCENARIOS_GHERKIN_ABIERTO"><path d="M1059.77,324.5659 C1092.96,306.6759 1140.78,284.1459 1186,274.5659 C1261.46,258.5759 1341.8761,262.9172 1410.4061,272.3572" fill="none" id="REQUISITOS_FUNCIONALES_ABIERTO-to-ESCENARIOS_GHERKIN_ABIERTO" style="stroke:#181818;stroke-width:1;"/><polygon fill="#181818" points="1416.35,273.1759,1407.98,267.9852,1411.3968,272.4936,1406.8883,275.9103,1416.35,273.1759" style="stroke:#181818;stroke-width:1;"/><text fill="#000000" font-family="sans-serif" font-size="13" lengthAdjust="spacing" textLength="182.3428" x="1194" y="259.6328">generarEscenariosGherkin()</text></g><!--link ESCENARIOS_GHERKIN_ABIERTO to REQUISITOS_FUNCIONALES_ABIERTO--><g class="link" data-entity-1="ESCENARIOS_GHERKIN_ABIERTO" data-entity-2="REQUISITOS_FUNCIONALES_ABIERTO" data-source-line="35" data-uid="lnk35" id="link_ESCENARIOS_GHERKIN_ABIERTO_REQUISITOS_FUNCIONALES_ABIERTO"><path d="M1416.28,309.1259 C1348.29,315.5659 1262.48,323.8159 1186,331.5659 C1176.31,332.5459 1172.2782,332.9589 1162.2182,333.9989" fill="none" id="ESCENARIOS_GHERKIN_ABIERTO-to-REQUISITOS_FUNCIONALES_ABIERTO" style="stroke:#181818;stroke-width:1;"/><polygon fill="#181818" points="1156.25,334.6159,1165.6136,337.6692,1161.2235,334.1018,1164.791,329.7116,1156.25,334.6159" style="stroke:#181818;stroke-width:1;"/><text fill="#000000" font-family="sans-serif" font-size="13" lengthAdjust="spacing" textLength="150.7505" x="1210" y="308.6328">completarGeneracion()</text></g><!--link ESCENARIOS_GHERKIN_ABIERTO to ESCENARIOS_GHERKIN_ABIERTO--><g class="link" data-entity-1="ESCENARIOS_GHERKIN_ABIERTO" data-entity-2="ESCENARIOS_GHERKIN_ABIERTO" data-source-line="36" data-uid="lnk36" id="link_ESCENARIOS_GHERKIN_ABIERTO_ESCENARIOS_GHERKIN_ABIERTO"><path d="M1499.04,272.2859 C1486.33,254.7859 1500.31,237.5659 1541,237.5659 C1581.69,237.5659 1599.1959,249.9312 1586.4859,267.4312" fill="none" id="ESCENARIOS_GHERKIN_ABIERTO-to-ESCENARIOS_GHERKIN_ABIERTO" style="stroke:#181818;stroke-width:1;"/><polygon fill="#181818" points="1582.96,272.2859,1591.4853,267.3545,1585.8982,268.2403,1585.0124,262.6533,1582.96,272.2859" style="stroke:#181818;stroke-width:1;"/><text fill="#000000" font-family="sans-serif" font-size="13" lengthAdjust="spacing" textLength="163.6045" x="1459.5" y="228.6328">listarEscenariosGherkin()</text></g><!--link ESCENARIOS_GHERKIN_ABIERTO to BORRADORES_ABIERTO--><g class="link" data-entity-1="ESCENARIOS_GHERKIN_ABIERTO" data-entity-2="BORRADORES_ABIERTO" data-source-line="38" data-uid="lnk38" id="link_ESCENARIOS_GHERKIN_ABIERTO_BORRADORES_ABIERTO"><path d="M1646.41,322.5959 C1663.64,326.6459 1681.31,330.7559 1698,334.5659 C1769.69,350.8959 1845.1448,367.3713 1905.9948,380.4913" fill="none" id="ESCENARIOS_GHERKIN_ABIERTO-to-BORRADORES_ABIERTO" style="stroke:#181818;stroke-width:1;"/><polygon fill="#181818" points="1911.86,381.7559,1903.9053,375.9489,1906.9723,380.7021,1902.2191,383.7691,1911.86,381.7559" style="stroke:#181818;stroke-width:1;"/><text fill="#000000" font-family="sans-serif" font-size="13" lengthAdjust="spacing" textLength="178.4326" x="1701" y="330.6328">crearBorradorCasoPrueba()</text></g><!--link BORRADORES_ABIERTO to ESCENARIOS_GHERKIN_ABIERTO--><g class="link" data-entity-1="BORRADORES_ABIERTO" data-entity-2="ESCENARIOS_GHERKIN_ABIERTO" data-source-line="39" data-uid="lnk39" id="link_BORRADORES_ABIERTO_ESCENARIOS_GHERKIN_ABIERTO"><path d="M1911.95,414.3659 C1850.07,419.7059 1767.54,420.5259 1698,399.5659 C1647.81,384.4359 1603.2356,351.4989 1573.9156,326.4989" fill="none" id="BORRADORES_ABIERTO-to-ESCENARIOS_GHERKIN_ABIERTO" style="stroke:#181818;stroke-width:1;"/><polygon fill="#181818" points="1569.35,322.6059,1573.6032,331.4891,1573.1547,325.85,1578.7937,325.4016,1569.35,322.6059" style="stroke:#181818;stroke-width:1;"/><text fill="#000000" font-family="sans-serif" font-size="13" lengthAdjust="spacing" textLength="150.7505" x="1715" y="395.6328">completarGeneracion()</text></g><!--link BORRADORES_ABIERTO to BORRADORES_ABIERTO--><g class="link" data-entity-1="BORRADORES_ABIERTO" data-entity-2="BORRADORES_ABIERTO" data-source-line="40" data-uid="lnk40" id="link_BORRADORES_ABIERTO_BORRADORES_ABIERTO"><path d="M1969.97,376.2859 C1959.2,358.7859 1971.05,341.5659 2005.5,341.5659 C2039.95,341.5659 2054.9447,353.6761 2044.1747,371.1761" fill="none" id="BORRADORES_ABIERTO-to-BORRADORES_ABIERTO" style="stroke:#181818;stroke-width:1;"/><polygon fill="#181818" points="2041.03,376.2859,2049.1537,370.7176,2043.6506,372.0277,2042.3406,366.5246,2041.03,376.2859" style="stroke:#181818;stroke-width:1;"/><text fill="#000000" font-family="sans-serif" font-size="13" lengthAdjust="spacing" textLength="114.3975" x="1948.5" y="332.6328">listarBorradores()</text></g><!--link BORRADORES_ABIERTO to BORRADOR_ABIERTO--><g class="link" data-entity-1="BORRADORES_ABIERTO" data-entity-2="BORRADOR_ABIERTO" data-source-line="42" data-uid="lnk42" id="link_BORRADORES_ABIERTO_BORRADOR_ABIERTO"><path d="M2037.52,376.2459 C2061.04,358.7659 2095.01,337.0359 2129,327.5659 C2203.07,306.9259 2230.24,299.9459 2302,327.5659 C2342.33,343.0859 2373.5123,375.5283 2393.7323,400.6983" fill="none" id="BORRADORES_ABIERTO-to-BORRADOR_ABIERTO" style="stroke:#181818;stroke-width:1;"/><polygon fill="#181818" points="2397.49,405.3759,2394.9719,395.8544,2394.3586,401.4779,2388.7351,400.8647,2397.49,405.3759" style="stroke:#181818;stroke-width:1;"/><text fill="#000000" font-family="sans-serif" font-size="13" lengthAdjust="spacing" textLength="127.5942" x="2152" y="304.6328">consultarBorrador()</text></g><!--link BORRADORES_ABIERTO to BORRADOR_ABIERTO--><g class="link" data-entity-1="BORRADORES_ABIERTO" data-entity-2="BORRADOR_ABIERTO" data-source-line="43" data-uid="lnk43" id="link_BORRADORES_ABIERTO_BORRADOR_ABIERTO"><path d="M2099.13,384.5359 C2157.77,376.6359 2234.91,371.5359 2302,384.5659 C2323.68,388.7759 2340.9648,394.7099 2360.4148,403.1399" fill="none" id="BORRADORES_ABIERTO-to-BORRADOR_ABIERTO-1" style="stroke:#181818;stroke-width:1;"/><polygon fill="#181818" points="2365.92,405.5259,2359.253,398.2767,2361.3324,403.5375,2356.0716,405.617,2365.92,405.5259" style="stroke:#181818;stroke-width:1;"/><text fill="#000000" font-family="sans-serif" font-size="13" lengthAdjust="spacing" textLength="171.2217" x="2130" y="372.6328">anadirFeedbackBorrador()</text></g><!--link BORRADORES_ABIERTO to BORRADOR_ABIERTO--><g class="link" data-entity-1="BORRADORES_ABIERTO" data-entity-2="BORRADOR_ABIERTO" data-source-line="44" data-uid="lnk44" id="link_BORRADORES_ABIERTO_BORRADOR_ABIERTO"><path d="M2099.17,408.1259 C2169,413.0759 2258.005,419.3716 2325.715,424.1716" fill="none" id="BORRADORES_ABIERTO-to-BORRADOR_ABIERTO-2" style="stroke:#181818;stroke-width:1;"/><polygon fill="#181818" points="2331.7,424.5959,2323.0054,419.9695,2326.7125,424.2424,2322.4397,427.9495,2331.7,424.5959" style="stroke:#181818;stroke-width:1;"/><text fill="#000000" font-family="sans-serif" font-size="13" lengthAdjust="spacing" textLength="131.7075" x="2150" y="406.6328">regenerarBorrador()</text></g><!--link BORRADORES_ABIERTO to BORRADOR_ABIERTO--><g class="link" data-entity-1="BORRADORES_ABIERTO" data-entity-2="BORRADOR_ABIERTO" data-source-line="45" data-uid="lnk45" id="link_BORRADORES_ABIERTO_BORRADOR_ABIERTO"><path d="M2062.06,426.6659 C2082.65,434.7059 2106.47,442.5559 2129,446.5659 C2196.56,458.5759 2268.3928,453.8698 2325.9228,446.1898" fill="none" id="BORRADORES_ABIERTO-to-BORRADOR_ABIERTO-3" style="stroke:#181818;stroke-width:1;"/><polygon fill="#181818" points="2331.87,445.3959,2322.4199,442.622,2326.914,446.0575,2323.4784,450.5516,2331.87,445.3959" style="stroke:#181818;stroke-width:1;"/><text fill="#000000" font-family="sans-serif" font-size="13" lengthAdjust="spacing" textLength="116.9937" x="2157.5" y="442.6328">aceptarBorrador()</text></g><!--link BORRADORES_ABIERTO to BORRADOR_ABIERTO--><g class="link" data-entity-1="BORRADORES_ABIERTO" data-entity-2="BORRADOR_ABIERTO" data-source-line="46" data-uid="lnk46" id="link_BORRADORES_ABIERTO_BORRADOR_ABIERTO"><path d="M2035.88,426.7459 C2059.35,445.1159 2094,468.4759 2129,478.5659 C2202.88,499.8559 2226.63,493.7859 2302,478.5659 C2324.63,473.9959 2342.8956,467.2958 2362.8156,458.1658" fill="none" id="BORRADORES_ABIERTO-to-BORRADOR_ABIERTO-4" style="stroke:#181818;stroke-width:1;"/><polygon fill="#181818" points="2368.27,455.6659,2358.4218,455.7796,2363.7247,457.7492,2361.755,463.0521,2368.27,455.6659" style="stroke:#181818;stroke-width:1;"/><text fill="#000000" font-family="sans-serif" font-size="13" lengthAdjust="spacing" textLength="124.0522" x="2153.5" y="474.6328">rechazarBorrador()</text></g><!--link BORRADOR_ABIERTO to BORRADORES_ABIERTO--><g class="link" data-entity-1="BORRADOR_ABIERTO" data-entity-2="BORRADORES_ABIERTO" data-source-line="47" data-uid="lnk47" id="link_BORRADOR_ABIERTO_BORRADORES_ABIERTO"><path d="M2392.54,455.6859 C2371.22,476.5259 2337.73,504.5959 2302,516.5659 C2229.09,540.9759 2200.49,544.8659 2129,516.5659 C2083.43,498.5259 2048.5277,459.4302 2027.4277,431.3902" fill="none" id="BORRADOR_ABIERTO-to-BORRADORES_ABIERTO" style="stroke:#181818;stroke-width:1;"/><polygon fill="#181818" points="2023.82,426.5959,2026.0353,436.1924,2026.8264,430.5911,2032.4276,431.3822,2023.82,426.5959" style="stroke:#181818;stroke-width:1;"/><text fill="#000000" font-family="sans-serif" font-size="13" lengthAdjust="spacing" textLength="125.9248" x="2153" y="512.6328">completarGestion()</text></g><!--link BORRADOR_ABIERTO to CASO_PRUEBA_PREPARADO--><g class="link" data-entity-1="BORRADOR_ABIERTO" data-entity-2="CASO_PRUEBA_PREPARADO" data-source-line="49" data-uid="lnk49" id="link_BORRADOR_ABIERTO_CASO_PRUEBA_PREPARADO"><path d="M2502.06,430.5659 C2592.58,430.5659 2730.87,430.5659 2829.56,430.5659" fill="none" id="BORRADOR_ABIERTO-to-CASO_PRUEBA_PREPARADO" style="stroke:#181818;stroke-width:1;"/><polygon fill="#181818" points="2835.56,430.5659,2826.56,426.5659,2830.56,430.5659,2826.56,434.5659,2835.56,430.5659" style="stroke:#181818;stroke-width:1;"/><text fill="#000000" font-family="sans-serif" font-size="13" lengthAdjust="spacing" textLength="272.6128" x="2533" y="426.6328">generarCasoPruebaDerivadoDeBorrador()</text></g><!--link CASO_PRUEBA_PREPARADO to BORRADOR_ABIERTO--><g class="link" data-entity-1="CASO_PRUEBA_PREPARADO" data-entity-2="BORRADOR_ABIERTO" data-source-line="50" data-uid="lnk50" id="link_CASO_PRUEBA_PREPARADO_BORRADOR_ABIERTO"><path d="M2835.93,452.0059 C2825.85,453.4559 2815.75,454.6859 2806,455.5659 C2684.72,466.5359 2653.07,468.6859 2532,455.5659 C2522.23,454.5059 2517.974,454.0151 2507.924,452.1951" fill="none" id="CASO_PRUEBA_PREPARADO-to-BORRADOR_ABIERTO" style="stroke:#181818;stroke-width:1;"/><polygon fill="#181818" points="2502.02,451.1259,2510.1632,456.6657,2506.94,452.0169,2511.5887,448.7937,2502.02,451.1259" style="stroke:#181818;stroke-width:1;"/><text fill="#000000" font-family="sans-serif" font-size="13" lengthAdjust="spacing" textLength="150.7505" x="2594" y="451.6328">completarGeneracion()</text></g><!--link CASO_PRUEBA_PREPARADO to KIWI_TCMS_ABIERTO--><g class="link" data-entity-1="CASO_PRUEBA_PREPARADO" data-entity-2="KIWI_TCMS_ABIERTO" data-source-line="52" data-uid="lnk52" id="link_CASO_PRUEBA_PREPARADO_KIWI_TCMS_ABIERTO"><path d="M2967.84,405.5059 C2992.94,380.0059 3035.87,342.0859 3082,326.5659 C3175.09,295.2359 3211.57,290.6659 3303,326.5659 C3343.01,342.2759 3373.5482,375.0084 3393.2882,400.4084" fill="none" id="CASO_PRUEBA_PREPARADO-to-KIWI_TCMS_ABIERTO" style="stroke:#181818;stroke-width:1;"/><polygon fill="#181818" points="3396.97,405.1459,3394.6056,395.5851,3393.9018,401.198,3388.2889,400.4942,3396.97,405.1459" style="stroke:#181818;stroke-width:1;"/><text fill="#000000" font-family="sans-serif" font-size="13" lengthAdjust="spacing" textLength="219.2988" x="3083" y="296.6328">publicarCasoPruebaEnKiwiTCMS()</text></g><!--link KIWI_TCMS_ABIERTO to CASO_PRUEBA_PREPARADO--><g class="link" data-entity-1="KIWI_TCMS_ABIERTO" data-entity-2="CASO_PRUEBA_PREPARADO" data-source-line="54" data-uid="lnk54" id="link_KIWI_TCMS_ABIERTO_CASO_PRUEBA_PREPARADO"><path d="M3334.48,455.6259 C3323.98,458.0759 3313.3,460.1659 3303,461.5659 C3205.67,474.7859 3179.61,472.4659 3082,461.5659 C3069.4,460.1559 3062.1534,459.1617 3049.2234,456.6917" fill="none" id="KIWI_TCMS_ABIERTO-to-CASO_PRUEBA_PREPARADO" style="stroke:#181818;stroke-width:1;"/><polygon fill="#181818" points="3043.33,455.5659,3051.4196,461.1836,3048.2412,456.5041,3052.9207,453.3257,3043.33,455.5659" style="stroke:#181818;stroke-width:1;"/><text fill="#000000" font-family="sans-serif" font-size="13" lengthAdjust="spacing" textLength="149.7983" x="3118" y="457.6328">completarPublicacion()</text></g><!--link CASO_PRUEBA_PREPARADO to KIWI_TCMS_ABIERTO--><g class="link" data-entity-1="CASO_PRUEBA_PREPARADO" data-entity-2="KIWI_TCMS_ABIERTO" data-source-line="56" data-uid="lnk55" id="link_CASO_PRUEBA_PREPARADO_KIWI_TCMS_ABIERTO"><path d="M3004.24,405.4559 C3027.97,396.6759 3055.83,387.9259 3082,383.5659 C3178.88,367.4059 3206.71,364.1759 3303,383.5659 C3324.81,387.9559 3342.1966,394.2257 3361.5366,403.0057" fill="none" id="CASO_PRUEBA_PREPARADO-to-KIWI_TCMS_ABIERTO-1" style="stroke:#181818;stroke-width:1;"/><polygon fill="#181818" points="3367,405.4859,3360.4585,398.1233,3362.4472,403.419,3357.1515,405.4078,3367,405.4859" style="stroke:#181818;stroke-width:1;"/><text fill="#000000" font-family="sans-serif" font-size="13" lengthAdjust="spacing" textLength="217.3691" x="3084" y="365.6328">buscarCasosPruebaEnKiwiTCMS()</text></g><!--link KIWI_TCMS_ABIERTO to CASO_PRUEBA_PREPARADO--><g class="link" data-entity-1="KIWI_TCMS_ABIERTO" data-entity-2="CASO_PRUEBA_PREPARADO" data-source-line="57" data-uid="lnk56" id="link_KIWI_TCMS_ABIERTO_CASO_PRUEBA_PREPARADO"><path d="M3382.28,455.7759 C3360.98,470.5559 3331.87,487.7959 3303,495.5659 C3208.15,521.0959 3177.82,517.1459 3082,495.5659 C3047.71,487.8459 3017.1607,473.4353 2990.7707,458.6053" fill="none" id="KIWI_TCMS_ABIERTO-to-CASO_PRUEBA_PREPARADO-1" style="stroke:#181818;stroke-width:1;"/><polygon fill="#181818" points="2985.54,455.6659,2991.4264,463.5621,2989.8989,458.1154,2995.3456,456.5879,2985.54,455.6659" style="stroke:#181818;stroke-width:1;"/><text fill="#000000" font-family="sans-serif" font-size="13" lengthAdjust="spacing" textLength="133.1357" x="3126" y="491.6328">completarConsulta()</text></g><!--link CASO_PRUEBA_PREPARADO to KIWI_TCMS_ABIERTO--><g class="link" data-entity-1="CASO_PRUEBA_PREPARADO" data-entity-2="KIWI_TCMS_ABIERTO" data-source-line="59" data-uid="lnk57" id="link_CASO_PRUEBA_PREPARADO_KIWI_TCMS_ABIERTO"><path d="M3052.24,430.5659 C3137.45,430.5659 3248.85,430.5659 3326.75,430.5659" fill="none" id="CASO_PRUEBA_PREPARADO-to-KIWI_TCMS_ABIERTO-2" style="stroke:#181818;stroke-width:1;"/><polygon fill="#181818" points="3332.75,430.5659,3323.75,426.5659,3327.75,430.5659,3323.75,434.5659,3332.75,430.5659" style="stroke:#181818;stroke-width:1;"/><text fill="#000000" font-family="sans-serif" font-size="13" lengthAdjust="spacing" textLength="187.9097" x="3099" y="426.6328">verCasoPruebaEnKiwiTCMS()</text></g><!--link KIWI_TCMS_ABIERTO to CASO_PRUEBA_PREPARADO--><g class="link" data-entity-1="KIWI_TCMS_ABIERTO" data-entity-2="CASO_PRUEBA_PREPARADO" data-source-line="60" data-uid="lnk58" id="link_KIWI_TCMS_ABIERTO_CASO_PRUEBA_PREPARADO"><path d="M3397.86,455.7259 C3378.39,481.8559 3343.94,521.1559 3303,537.5659 C3211.83,574.1159 3174.87,569.5359 3082,537.5659 C3035.2,521.4559 2996.2718,486.4266 2971.3618,460.1966" fill="none" id="KIWI_TCMS_ABIERTO-to-CASO_PRUEBA_PREPARADO-2" style="stroke:#181818;stroke-width:1;"/><polygon fill="#181818" points="2967.23,455.8459,2970.5272,465.1265,2970.6731,459.4715,2976.3281,459.6175,2967.23,455.8459" style="stroke:#181818;stroke-width:1;"/><text fill="#000000" font-family="sans-serif" font-size="13" lengthAdjust="spacing" textLength="133.1357" x="3126" y="533.6328">completarConsulta()</text></g><!--link KIWI_TCMS_ABIERTO to KIWI_TCMS_ABIERTO--><g class="link" data-entity-1="KIWI_TCMS_ABIERTO" data-entity-2="KIWI_TCMS_ABIERTO" data-source-line="53" data-uid="lnk53" id="link_KIWI_TCMS_ABIERTO_KIWI_TCMS_ABIERTO"><path d="M3378.44,405.2859 C3367.06,387.7859 3379.58,370.5659 3416,370.5659 C3452.42,370.5659 3468.2109,382.7559 3456.8309,400.2559" fill="none" id="KIWI_TCMS_ABIERTO-to-KIWI_TCMS_ABIERTO" style="stroke:#181818;stroke-width:1;"/><polygon fill="#181818" points="3453.56,405.2859,3461.8197,399.9215,3456.2858,401.0942,3455.1131,395.5603,3453.56,405.2859" style="stroke:#181818;stroke-width:1;"/><text fill="#000000" font-family="sans-serif" font-size="13" lengthAdjust="spacing" textLength="143.2856" x="3344.5" y="361.6328">registrarCasoPrueba()</text></g><!--SRC=[jPRDZjem58NtF4MMRQLvWIugcM2c4ONGXAYBgaB6t0xMX9ZQphITf-yD2H30SNwgMKLAV3wVUttiE8MVnZFIK-9fPxojKC2DaDbezFt33-_XuPCN1_6ApidQfr549k5eTFFYE6WI-icSBbR43yB5cem36gs8zz4JcU22gHWqCj-z7zd7MQP1BGUbQbA7jdbse-Gsvq9D9C_ta1d64JRDi-B1KgUX9YZJiYZfYaYMIlx5nib1H2updQVcXbb3EfW-YSDudSHXzRPe7FmnYe7oqQbET06u7-Nsip-aW7uUGPko-NQ0RV9KQ5JMvdPeRwJdFXHgbt6RLi4W7UCcPwbu7II6LEn5TYljr2PBZnsh7D6lIH07AyHCaqNncNoXyVsIH_0h5reOgSyP1ute5dtFC7IWjHekOzBajzSKbn6sB9sdgE_w_ySNSNiRz2MHRyC_XTPDjqWxhQijr_RzH6EVBaWKuAV7ppIQ1OiQvWaomCEVQWveLKZzk0FrB3gcRoZQeUkmZmiiBqjk0VNfOdUgi-folzcARiEEm-CFEResMEH_BF47lPN7us-fSjWmn5c6jvgpbzj0ilefopiPAi-G5htji3W1scUlRzYCuRLf2h3TCFuy2A6WIkKm0nmEGytZTM_7NgtY3YcmR7Qh-lXRN4O97HDyq2MfhdXLrPS0JK295_GnWPeXkxfnBMrPSZ1cmRTWlVBdzS8E-IOLl6wCPZFnMnJ3a7OlQGBXmc8ohqfir3SrwLpHidGrhAHDhgk2TEUAMXtvrSRfR-S5-ZMtXvL_]--></g></svg>