<svg xmlns="http://www.w3.org/2000/svg" xmlns:xlink="http://www.w3.org/1999/xlink" contentStyleType="text/css" data-diagram-type="STATE" height="711px" preserveAspectRatio="none" style="width:439px;height:711px;background:#FFFFFF;" version="1.1" viewBox="0 0 439 711" width="439px" zoomAndPan="magnify"><defs/><g><path d="M19.5,7 L373.5,7 A12.5,12.5 0 0 1 386,19.5 L386,33.2969 L7,33.2969 L7,19.5 A12.5,12.5 0 0 1 19.5,7" fill="#F1F1F1"/><rect fill="none" height="553.2969" rx="12.5" ry="12.5" style="stroke:#181818;stroke-width:0.5;" width="379" x="7" y="7"/><line style="stroke:#181818;stroke-width:0.5;" x1="7" x2="386" y1="33.2969" y2="33.2969"/><text fill="#000000" font-family="sans-serif" font-size="14" lengthAdjust="spacing" textLength="145.3525" x="123.8237" y="24.9951">verCasoPruebaKiwi()</text><g id="verCasoPruebaKiwi.SeleccionandoCaso"><rect fill="#F1F1F1" height="50" rx="12.5" ry="12.5" style="stroke:#181818;stroke-width:0.5;" width="50" x="19" y="135.2969"/><line style="stroke:#181818;stroke-width:0.5;" x1="19" x2="69" y1="161.5938" y2="161.5938"/><text fill="#000000" font-family="sans-serif" font-size="14" lengthAdjust="spacing" textLength="4.4502" x="41.7749" y="153.292">&#160;</text></g><g id="verCasoPruebaKiwi.RecuperandoDetalle"><rect fill="#F1F1F1" height="50" rx="12.5" ry="12.5" style="stroke:#181818;stroke-width:0.5;" width="50" x="19" y="271.2969"/><line style="stroke:#181818;stroke-width:0.5;" x1="19" x2="69" y1="297.5938" y2="297.5938"/><text fill="#000000" font-family="sans-serif" font-size="14" lengthAdjust="spacing" textLength="4.4502" x="41.7749" y="289.292">&#160;</text></g><g id="verCasoPruebaKiwi.MostrandoDetalle"><rect fill="#F1F1F1" height="50" rx="12.5" ry="12.5" style="stroke:#181818;stroke-width:0.5;" width="50" x="19" y="407.2969"/><line style="stroke:#181818;stroke-width:0.5;" x1="19" x2="69" y1="433.5938" y2="433.5938"/><text fill="#000000" font-family="sans-serif" font-size="14" lengthAdjust="spacing" textLength="4.4502" x="41.7749" y="425.292">&#160;</text></g><ellipse cx="44" cy="54.2969" fill="#222222" rx="10" ry="10" style="stroke:#222222;stroke-width:1;"/><ellipse cx="44" cy="539.2969" fill="none" rx="11" ry="11" style="stroke:#222222;stroke-width:1;"/><ellipse cx="44" cy="539.2969" fill="#222222" rx="6" ry="6" style="stroke:#222222;stroke-width:1;"/><!--link *start*verCasoPruebaKiwi to SeleccionandoCaso--><g class="link" data-entity-1=".start.verCasoPruebaKiwi" data-entity-2="SeleccionandoCaso" data-source-line="9" data-uid="lnk3" id="link_.start.verCasoPruebaKiwi_SeleccionandoCaso"><path d="M44,64.5269 C44,80.2369 44,106.6569 44,129.1669" fill="none" id="*start*verCasoPruebaKiwi-to-SeleccionandoCaso" style="stroke:#008000;stroke-width:1;"/><polygon fill="#008000" points="44,135.1669,48,126.1669,44,130.1669,40,126.1669,44,135.1669" style="stroke:#008000;stroke-width:1;"/><path d="M49,87.2969 L49,112.2969 L377,112.2969 L377,97.2969 L367,87.2969 L49,87.2969" fill="#FEFFDD" style="stroke:#181818;stroke-width:0.5;"/><path d="M367,87.2969 L367,97.2969 L377,97.2969 L367,87.2969" fill="#FEFFDD" style="stroke:#181818;stroke-width:0.5;"/><text fill="#000000" font-family="sans-serif" font-size="13" lengthAdjust="spacing" textLength="307.9756" x="55" y="104.3638">Se solicita ver un caso de prueba en Kiwi TCMS</text></g><!--link SeleccionandoCaso to RecuperandoDetalle--><g class="link" data-entity-1="SeleccionandoCaso" data-entity-2="RecuperandoDetalle" data-source-line="14" data-uid="lnk4" id="link_SeleccionandoCaso_RecuperandoDetalle"><path d="M44,185.5669 C44,209.8469 44,240.9869 44,265.2069" fill="none" id="SeleccionandoCaso-to-RecuperandoDetalle" style="stroke:#008000;stroke-width:1;"/><polygon fill="#008000" points="44,271.2069,48,262.2069,44,266.2069,40,262.2069,44,271.2069" style="stroke:#008000;stroke-width:1;"/><path d="M49,208.2969 L49,248.2969 L278,248.2969 L278,218.2969 L268,208.2969 L49,208.2969" fill="#FEFFDD" style="stroke:#181818;stroke-width:0.5;"/><path d="M268,208.2969 L268,218.2969 L278,218.2969 L268,208.2969" fill="#FEFFDD" style="stroke:#181818;stroke-width:0.5;"/><text fill="#000000" font-family="sans-serif" font-size="13" lengthAdjust="spacing" textLength="192.5625" x="55" y="225.3638">Se toma el caso seleccionado</text><text fill="#000000" font-family="sans-serif" font-size="13" lengthAdjust="spacing" textLength="208.6411" x="55" y="240.4966">y solicita su detalle a Kiwi TCMS</text></g><!--link RecuperandoDetalle to MostrandoDetalle--><g class="link" data-entity-1="RecuperandoDetalle" data-entity-2="MostrandoDetalle" data-source-line="20" data-uid="lnk5" id="link_RecuperandoDetalle_MostrandoDetalle"><path d="M44,321.5669 C44,345.8469 44,376.9869 44,401.2069" fill="none" id="RecuperandoDetalle-to-MostrandoDetalle" style="stroke:#008000;stroke-width:1;"/><polygon fill="#008000" points="44,407.2069,48,398.2069,44,402.2069,40,398.2069,44,407.2069" style="stroke:#008000;stroke-width:1;"/><path d="M49,344.2969 L49,384.2969 L310,384.2969 L310,354.2969 L300,344.2969 L49,344.2969" fill="#FEFFDD" style="stroke:#181818;stroke-width:0.5;"/><path d="M300,344.2969 L300,354.2969 L310,354.2969 L300,344.2969" fill="#FEFFDD" style="stroke:#181818;stroke-width:0.5;"/><text fill="#000000" font-family="sans-serif" font-size="13" lengthAdjust="spacing" textLength="240.646" x="55" y="361.3638">Se recupera la informacion completa</text><text fill="#000000" font-family="sans-serif" font-size="13" lengthAdjust="spacing" textLength="124.4014" x="55" y="376.4966">del caso de prueba</text></g><!--link MostrandoDetalle to *end*verCasoPruebaKiwi--><g class="link" data-entity-1="MostrandoDetalle" data-entity-2=".end.verCasoPruebaKiwi" data-source-line="26" data-uid="lnk7" id="link_MostrandoDetalle_.end.verCasoPruebaKiwi"><path d="M44,457.3869 C44,479.7869 44,506.0669 44,522.2469" fill="none" id="MostrandoDetalle-to-*end*verCasoPruebaKiwi" style="stroke:#008000;stroke-width:1;"/><polygon fill="#008000" points="44,528.2469,48,519.2469,44,523.2469,40,519.2469,44,528.2469" style="stroke:#008000;stroke-width:1;"/><path d="M49,480.2969 L49,505.2969 L266,505.2969 L266,490.2969 L256,480.2969 L49,480.2969" fill="#FEFFDD" style="stroke:#181818;stroke-width:0.5;"/><path d="M256,480.2969 L256,490.2969 L266,490.2969 L256,480.2969" fill="#FEFFDD" style="stroke:#181818;stroke-width:0.5;"/><text fill="#000000" font-family="sans-serif" font-size="13" lengthAdjust="spacing" textLength="196.8408" x="55" y="497.3638">Se muestra el detalle del caso</text></g><g id="KIWI_TCMS_ABIERTO"><rect fill="#F1F1F1" height="50" rx="12.5" ry="12.5" style="stroke:#181818;stroke-width:0.5;" width="166.0293" x="11.5" y="655"/><line style="stroke:#181818;stroke-width:0.5;" x1="11.5" x2="177.5293" y1="681.2969" y2="681.2969"/><text fill="#000000" font-family="sans-serif" font-size="14" lengthAdjust="spacing" textLength="146.0293" x="21.5" y="672.9951">KIWI_TCMS_ABIERTO</text></g><g id="SISTEMA_ABIERTO"><rect fill="#F1F1F1" height="50" rx="12.5" ry="12.5" style="stroke:#181818;stroke-width:0.5;" width="149.4111" x="224" y="655"/><line style="stroke:#181818;stroke-width:0.5;" x1="224" x2="373.4111" y1="681.2969" y2="681.2969"/><text fill="#000000" font-family="sans-serif" font-size="14" lengthAdjust="spacing" textLength="129.4111" x="234" y="672.9951">SISTEMA_ABIERTO</text></g><!--link verCasoPruebaKiwi to KIWI_TCMS_ABIERTO--><g class="link" data-entity-1="verCasoPruebaKiwi" data-entity-2="KIWI_TCMS_ABIERTO" data-source-line="32" data-uid="lnk9" id="link_verCasoPruebaKiwi_KIWI_TCMS_ABIERTO"><path d="M101.76,560.15 C95.43,578.58 91.5,590 91.5,590 C91.5,590 91.5,625 91.5,625 C91.5,625 92.0265,634.4793 92.8265,648.8493" fill="none" id="verCasoPruebaKiwi-to-KIWI_TCMS_ABIERTO" style="stroke:#008000;stroke-width:1;"/><polygon fill="#008000" points="93.16,654.84,96.6535,645.6316,92.8821,649.8477,88.6659,646.0763,93.16,654.84" style="stroke:#008000;stroke-width:1;"/><path d="M96.5,595 L96.5,620 L250.5,620 L250.5,605 L240.5,595 L96.5,595" fill="#FEFFDD" style="stroke:#181818;stroke-width:0.5;"/><path d="M240.5,595 L240.5,605 L250.5,605 L240.5,595" fill="#FEFFDD" style="stroke:#181818;stroke-width:0.5;"/><text fill="#000000" font-family="sans-serif" font-size="13" lengthAdjust="spacing" textLength="133.1357" x="102.5" y="612.0669">completarConsulta()</text></g><!--link verCasoPruebaKiwi to SISTEMA_ABIERTO--><g class="link" data-entity-1="verCasoPruebaKiwi" data-entity-2="SISTEMA_ABIERTO" data-source-line="37" data-uid="lnk11" id="link_verCasoPruebaKiwi_SISTEMA_ABIERTO"><path d="M267.76,560.1 C277.84,599.1 285.1567,627.4114 290.7367,648.9714" fill="none" id="verCasoPruebaKiwi-to-SISTEMA_ABIERTO" style="stroke:#FF0000;stroke-width:1;"/><polygon fill="#FF0000" points="292.24,654.78,293.8574,645.0649,290.9872,649.9395,286.1126,647.0693,292.24,654.78" style="stroke:#FF0000;stroke-width:1;"/><path d="M288.5,595 L288.5,620 L432.5,620 L432.5,605 L422.5,595 L288.5,595" fill="#FEFFDD" style="stroke:#181818;stroke-width:0.5;"/><path d="M422.5,595 L422.5,605 L432.5,605 L422.5,595" fill="#FEFFDD" style="stroke:#181818;stroke-width:0.5;"/><text fill="#000000" font-family="sans-serif" font-size="13" lengthAdjust="spacing" textLength="123.9316" x="294.5" y="612.0669">rechazarConsulta()</text></g><!--SRC=[VP9HJuCm58NV-ojkvijcihzWCd4FP26QGUB3iYnNk6gpqfAsQD3utstBs6I0y4HpxZdVkTGSkQnGOmc2Ix9DHL0fqVWFnen5I_11EaAZddHDBxZXdnpGm6nmEb_Cu9inS4yxDtElKwOaAC-vaYWBvKU6aYtbTKNQ2nx8eX0qr2JAs9uYI7QtUrZkRjuqaTmlxoR2f78-IlgAnt2G4XWbUCuj-dfGIyYT60hNFXG2aX2gPb6IXX6IHV1X9uEhd1x5H9yn3AjA5oRQU7DsBLhmve9fQaSNl03_HHk6zzW6UvmYqoSV40XSlYfTeaU3N9MLSBD1LtJevysD45r7zdZS7vn4A6loatu_NVSki1_pmzZmblvDsSJFyS4lxB2wZzVRx97ryhfEEbBIrCBYVC4k7KQjDHNXmiLfjavMuxPkXU_uDUhw2m00]--></g></svg>