<svg xmlns="http://www.w3.org/2000/svg" xmlns:xlink="http://www.w3.org/1999/xlink" contentStyleType="text/css" data-diagram-type="STATE" height="572px" preserveAspectRatio="none" style="width:442px;height:572px;background:#FFFFFF;" version="1.1" viewBox="0 0 442 572" width="442px" zoomAndPan="magnify"><title>Diagrama de estados - RequisitoFuncional</title><defs/><g><g class="title" data-source-line="1"><text fill="#000000" font-family="sans-serif" font-size="14" font-weight="bold" lengthAdjust="spacing" textLength="333.9697" x="43.9038" y="22.9951">Diagrama de estados - RequisitoFuncional</text></g><path d="M19.5,44.2969 L416.2774,44.2969 A12.5,12.5 0 0 1 428.7774,56.7969 L428.7774,70.5938 L7,70.5938 L7,56.7969 A12.5,12.5 0 0 1 19.5,44.2969" fill="#F1F1F1"/><rect fill="none" height="522.2969" rx="12.5" ry="12.5" style="stroke:#181818;stroke-width:0.5;" width="421.7774" x="7" y="44.2969"/><line style="stroke:#181818;stroke-width:0.5;" x1="7" x2="428.7774" y1="70.5938" y2="70.5938"/><text fill="#000000" font-family="sans-serif" font-size="14" lengthAdjust="spacing" textLength="132.5215" x="151.6279" y="62.292">RequisitoFuncional</text><ellipse cx="274.73" cy="91.5938" fill="#222222" rx="10" ry="10" style="stroke:#222222;stroke-width:1;"/><g id="RequisitoFuncional.Identificado"><rect fill="#F1F1F1" height="50" rx="12.5" ry="12.5" style="stroke:#181818;stroke-width:0.5;" width="102.4277" x="223.73" y="138.5938"/><line style="stroke:#181818;stroke-width:0.5;" x1="223.73" x2="326.1577" y1="164.8906" y2="164.8906"/><text fill="#000000" font-family="sans-serif" font-size="14" lengthAdjust="spacing" textLength="82.4277" x="233.73" y="156.5889">Identificado</text></g><g id="RequisitoFuncional.Revisado"><rect fill="#F1F1F1" height="50" rx="12.5" ry="12.5" style="stroke:#181818;stroke-width:0.5;" width="83.8408" x="120.73" y="241.5938"/><line style="stroke:#181818;stroke-width:0.5;" x1="120.73" x2="204.5708" y1="267.8906" y2="267.8906"/><text fill="#000000" font-family="sans-serif" font-size="14" lengthAdjust="spacing" textLength="63.8408" x="130.73" y="259.5889">Revisado</text></g><g id="RequisitoFuncional.Modificado"><rect fill="#F1F1F1" height="50" rx="12.5" ry="12.5" style="stroke:#181818;stroke-width:0.5;" width="95.9678" x="111.73" y="344.5938"/><line style="stroke:#181818;stroke-width:0.5;" x1="111.73" x2="207.6978" y1="370.8906" y2="370.8906"/><text fill="#000000" font-family="sans-serif" font-size="14" lengthAdjust="spacing" textLength="75.9678" x="121.73" y="362.5889">Modificado</text></g><g id="RequisitoFuncional.Aprobado"><rect fill="#F1F1F1" height="50" rx="12.5" ry="12.5" style="stroke:#181818;stroke-width:0.5;" width="87.7031" x="113.73" y="447.5938"/><line style="stroke:#181818;stroke-width:0.5;" x1="113.73" x2="201.4331" y1="473.8906" y2="473.8906"/><text fill="#000000" font-family="sans-serif" font-size="14" lengthAdjust="spacing" textLength="67.7031" x="123.73" y="465.5889">Aprobado</text></g><g id="RequisitoFuncional.Eliminado"><rect fill="#F1F1F1" height="50" rx="12.5" ry="12.5" style="stroke:#181818;stroke-width:0.5;" width="89.0566" x="239.23" y="447.5938"/><line style="stroke:#181818;stroke-width:0.5;" x1="239.23" x2="328.2866" y1="473.8906" y2="473.8906"/><text fill="#000000" font-family="sans-serif" font-size="14" lengthAdjust="spacing" textLength="69.0566" x="249.23" y="465.5889">Eliminado</text></g><ellipse cx="209.73" cy="545.5938" fill="none" rx="11" ry="11" style="stroke:#222222;stroke-width:1;"/><ellipse cx="209.73" cy="545.5938" fill="#222222" rx="6" ry="6" style="stroke:#222222;stroke-width:1;"/><!--link *start*RequisitoFuncional to Identificado--><g class="link" data-entity-1=".start.RequisitoFuncional" data-entity-2="Identificado" data-source-line="5" data-uid="lnk4" id="link_.start.RequisitoFuncional_Identificado"><path d="M274.73,101.7437 C274.73,111.0138 274.73,119.7337 274.73,132.3737" fill="none" id="*start*RequisitoFuncional-to-Identificado" style="stroke:#181818;stroke-width:1;"/><polygon fill="#181818" points="274.73,138.3737,278.73,129.3737,274.73,133.3737,270.73,129.3737,274.73,138.3737" style="stroke:#181818;stroke-width:1;"/></g><!--link Identificado to Revisado--><g class="link" data-entity-1="Identificado" data-entity-2="Revisado" data-source-line="7" data-uid="lnk6" id="link_Identificado_Revisado"><path d="M247.91,188.7838 C230.3,204.6638 211.8255,221.3252 194.1855,237.2352" fill="none" id="Identificado-to-Revisado" style="stroke:#181818;stroke-width:1;"/><polygon fill="#181818" points="189.73,241.2538,199.0923,238.1963,193.4429,237.905,193.7342,232.2556,189.73,241.2538" style="stroke:#181818;stroke-width:1;"/><text fill="#000000" font-family="sans-serif" font-size="13" lengthAdjust="spacing" textLength="113.0708" x="225.73" y="219.6606">validar contenido</text></g><!--link Revisado to Modificado--><g class="link" data-entity-1="Revisado" data-entity-2="Modificado" data-source-line="8" data-uid="lnk8" id="link_Revisado_Modificado"><path d="M162.02,291.7838 C161.54,307.6638 161.1072,322.3464 160.6372,338.2564" fill="none" id="Revisado-to-Modificado" style="stroke:#181818;stroke-width:1;"/><polygon fill="#181818" points="160.46,344.2537,164.724,335.3758,160.6076,339.2559,156.7275,335.1396,160.46,344.2537" style="stroke:#181818;stroke-width:1;"/><text fill="#000000" font-family="sans-serif" font-size="13" lengthAdjust="spacing" textLength="124.7886" x="161.73" y="322.6606">actualizar requisito</text></g><!--link Modificado to Revisado--><g class="link" data-entity-1="Modificado" data-entity-2="Revisado" data-source-line="9" data-uid="lnk9" id="link_Modificado_Revisado"><path d="M111.6,361.5538 C72.14,353.6138 25.8,337.9338 45.73,309.5938 C62.56,285.6738 88.4351,276.3206 114.6351,271.8606" fill="none" id="Modificado-to-Revisado" style="stroke:#181818;stroke-width:1;"/><polygon fill="#181818" points="120.55,270.8538,111.0064,268.4208,115.6209,271.6928,112.3489,276.3074,120.55,270.8538" style="stroke:#181818;stroke-width:1;"/><text fill="#000000" font-family="sans-serif" font-size="13" lengthAdjust="spacing" textLength="109.8652" x="46.73" y="322.6606">guardar cambios</text></g><!--link Revisado to Aprobado--><g class="link" data-entity-1="Revisado" data-entity-2="Aprobado" data-source-line="10" data-uid="lnk11" id="link_Revisado_Aprobado"><path d="M120.5,269.4738 C91.78,273.2238 55.68,283.3138 36.73,309.5938 C24.34,326.7938 18,345.1038 49.73,394.5938 C65.15,418.6337 85.7751,434.4416 108.3051,447.4616" fill="none" id="Revisado-to-Aprobado" style="stroke:#181818;stroke-width:1;"/><polygon fill="#181818" points="113.5,450.4638,107.709,442.4973,109.1709,447.962,103.7062,449.4238,113.5,450.4638" style="stroke:#181818;stroke-width:1;"/><text fill="#000000" font-family="sans-serif" font-size="13" lengthAdjust="spacing" textLength="51.0796" x="50.73" y="374.1606">aprobar</text></g><!--link Modificado to Aprobado--><g class="link" data-entity-1="Modificado" data-entity-2="Aprobado" data-source-line="11" data-uid="lnk12" id="link_Modificado_Aprobado"><path d="M159.12,395.0238 C158.99,400.7838 158.85,406.9038 158.73,412.5938 C158.5,424.0638 158.3754,430.7945 158.2054,441.4845" fill="none" id="Modificado-to-Aprobado" style="stroke:#181818;stroke-width:1;"/><polygon fill="#181818" points="158.11,447.4838,162.2526,438.5485,158.1895,442.4844,154.2536,438.4213,158.11,447.4838" style="stroke:#181818;stroke-width:1;"/><text fill="#000000" font-family="sans-serif" font-size="13" lengthAdjust="spacing" textLength="51.0796" x="159.73" y="425.6606">aprobar</text></g><!--link Identificado to Eliminado--><g class="link" data-entity-1="Identificado" data-entity-2="Eliminado" data-source-line="13" data-uid="lnk14" id="link_Identificado_Eliminado"><path d="M325.89,188.4638 C332.76,193.5838 339.05,199.6038 343.73,206.5938 C378.34,258.1638 360.83,282.6838 365.73,344.5938 C367.49,366.7438 374.56,374.2038 365.73,394.5938 C356.5,415.9238 342.8677,430.3693 325.8477,443.6693" fill="none" id="Identificado-to-Eliminado" style="stroke:#181818;stroke-width:1;"/><polygon fill="#181818" points="321.12,447.3638,330.6745,444.974,325.0598,444.2851,325.7487,438.6703,321.12,447.3638" style="stroke:#181818;stroke-width:1;"/><text fill="#000000" font-family="sans-serif" font-size="13" lengthAdjust="spacing" textLength="53.0474" x="365.73" y="322.6606">eliminar</text></g><!--link Revisado to Eliminado--><g class="link" data-entity-1="Revisado" data-entity-2="Eliminado" data-source-line="14" data-uid="lnk15" id="link_Revisado_Eliminado"><path d="M204.98,269.3338 C233.98,273.0038 270.56,283.0538 289.73,309.5938 C319.24,350.4238 306.4658,407.6778 294.9558,441.8378" fill="none" id="Revisado-to-Eliminado" style="stroke:#181818;stroke-width:1;"/><polygon fill="#181818" points="293.04,447.5238,299.7044,440.2721,294.6365,442.7855,292.1231,437.7177,293.04,447.5238" style="stroke:#181818;stroke-width:1;"/><text fill="#000000" font-family="sans-serif" font-size="13" lengthAdjust="spacing" textLength="53.0474" x="307.73" y="374.1606">eliminar</text></g><!--link Modificado to Eliminado--><g class="link" data-entity-1="Modificado" data-entity-2="Eliminado" data-source-line="15" data-uid="lnk16" id="link_Modificado_Eliminado"><path d="M189.74,394.7637 C196.95,400.5938 204.62,406.8038 211.73,412.5938 C225.77,424.0137 236.6716,432.9277 249.7116,443.6277" fill="none" id="Modificado-to-Eliminado" style="stroke:#181818;stroke-width:1;"/><polygon fill="#181818" points="254.35,447.4338,249.9298,438.6325,250.4847,444.2621,244.8551,444.817,254.35,447.4338" style="stroke:#181818;stroke-width:1;"/><text fill="#000000" font-family="sans-serif" font-size="13" lengthAdjust="spacing" textLength="53.0474" x="231.73" y="425.6606">eliminar</text></g><!--link Aprobado to *end*RequisitoFuncional--><g class="link" data-entity-1="Aprobado" data-entity-2=".end.RequisitoFuncional" data-source-line="17" data-uid="lnk18" id="link_Aprobado_.end.RequisitoFuncional"><path d="M175.34,497.6338 C185.12,510.9838 193.1352,521.9229 200.0552,531.3729" fill="none" id="Aprobado-to-*end*RequisitoFuncional" style="stroke:#181818;stroke-width:1;"/><polygon fill="#181818" points="203.6,536.2138,201.51,526.5892,200.646,532.1797,195.0555,531.3157,203.6,536.2138" style="stroke:#181818;stroke-width:1;"/></g><!--link Eliminado to *end*RequisitoFuncional--><g class="link" data-entity-1="Eliminado" data-entity-2=".end.RequisitoFuncional" data-source-line="18" data-uid="lnk19" id="link_Eliminado_.end.RequisitoFuncional"><path d="M258.68,497.6338 C244.26,511.4738 231.4489,523.7591 221.7589,533.0591" fill="none" id="Eliminado-to-*end*RequisitoFuncional" style="stroke:#181818;stroke-width:1;"/><polygon fill="#181818" points="217.43,537.2138,226.693,533.8677,221.0374,533.7516,221.1535,528.0959,217.43,537.2138" style="stroke:#181818;stroke-width:1;"/></g><!--SRC=[TP2_3e8m4CRtFiM5qOGNO30nKHC75rRZSD2JN0AjjeL1uxjxW0W1tExFx_k-QmE7ac3FM3Yi43G1-O3QUeWXfKVDdeCzrYPdQx1KIfQ185gk8a2_ee2NKW2NpHNYU0idJIRmZND9QEVJlWDIQjYtJG8DbgpHGMvD8CCYW77TicUh1sa2c8TQ14yHkE484KoOcNrHe-liiShO-hdvxkvizhNkIhTqMs7MtdGekMBJSzJNRXxtXva5hbA2_Gvf8Vbh6OteC5Fl3m00]--></g></svg>