<svg xmlns="http://www.w3.org/2000/svg" xmlns:xlink="http://www.w3.org/1999/xlink" contentStyleType="text/css" data-diagram-type="STATE" height="726px" preserveAspectRatio="none" style="width:576px;height:726px;background:#FFFFFF;" version="1.1" viewBox="0 0 576 726" width="576px" zoomAndPan="magnify"><defs/><g><path d="M110,7 L466,7 A12.5,12.5 0 0 1 478.5,19.5 L478.5,33.2969 L97.5,33.2969 L97.5,19.5 A12.5,12.5 0 0 1 110,7" fill="#F1F1F1"/><rect fill="none" height="568.2969" rx="12.5" ry="12.5" style="stroke:#181818;stroke-width:0.5;" width="381" x="97.5" y="7"/><line style="stroke:#181818;stroke-width:0.5;" x1="97.5" x2="478.5" y1="33.2969" y2="33.2969"/><text fill="#000000" font-family="sans-serif" font-size="14" lengthAdjust="spacing" textLength="217.7383" x="179.1309" y="24.9951">extraerRequisitosFuncionales()</text><g id="extraerRequisitosFuncionales.ProcesandoDocumentacion"><rect fill="#F1F1F1" height="50" rx="12.5" ry="12.5" style="stroke:#181818;stroke-width:0.5;" width="50" x="109.5" y="135.2969"/><line style="stroke:#181818;stroke-width:0.5;" x1="109.5" x2="159.5" y1="161.5938" y2="161.5938"/><text fill="#000000" font-family="sans-serif" font-size="14" lengthAdjust="spacing" textLength="4.4502" x="132.2749" y="153.292">&#160;</text></g><g id="extraerRequisitosFuncionales.IdentificandoRequisitos"><rect fill="#F1F1F1" height="50" rx="12.5" ry="12.5" style="stroke:#181818;stroke-width:0.5;" width="50" x="109.5" y="271.2969"/><line style="stroke:#181818;stroke-width:0.5;" x1="109.5" x2="159.5" y1="297.5938" y2="297.5938"/><text fill="#000000" font-family="sans-serif" font-size="14" lengthAdjust="spacing" textLength="4.4502" x="132.2749" y="289.292">&#160;</text></g><g id="extraerRequisitosFuncionales.RegistrandoRequisitos"><rect fill="#F1F1F1" height="50" rx="12.5" ry="12.5" style="stroke:#181818;stroke-width:0.5;" width="50" x="109.5" y="407.2969"/><line style="stroke:#181818;stroke-width:0.5;" x1="109.5" x2="159.5" y1="433.5938" y2="433.5938"/><text fill="#000000" font-family="sans-serif" font-size="14" lengthAdjust="spacing" textLength="4.4502" x="132.2749" y="425.292">&#160;</text></g><ellipse cx="134.5" cy="54.2969" fill="#222222" rx="10" ry="10" style="stroke:#222222;stroke-width:1;"/><ellipse cx="134.5" cy="554.2969" fill="none" rx="11" ry="11" style="stroke:#222222;stroke-width:1;"/><ellipse cx="134.5" cy="554.2969" fill="#222222" rx="6" ry="6" style="stroke:#222222;stroke-width:1;"/><!--link *start*extraerRequisitosFuncionales to ProcesandoDocumentacion--><g class="link" data-entity-1=".start.extraerRequisitosFuncionales" data-entity-2="ProcesandoDocumentacion" data-source-line="9" data-uid="lnk3" id="link_.start.extraerRequisitosFuncionales_ProcesandoDocumentacion"><path d="M134.5,64.5269 C134.5,80.2369 134.5,106.6569 134.5,129.1669" fill="none" id="*start*extraerRequisitosFuncionales-to-ProcesandoDocumentacion" style="stroke:#008000;stroke-width:1;"/><polygon fill="#008000" points="134.5,135.1669,138.5,126.1669,134.5,130.1669,130.5,126.1669,134.5,135.1669" style="stroke:#008000;stroke-width:1;"/><path d="M139.5,87.2969 L139.5,112.2969 L469.5,112.2969 L469.5,97.2969 L459.5,87.2969 L139.5,87.2969" fill="#FEFFDD" style="stroke:#181818;stroke-width:0.5;"/><path d="M459.5,87.2969 L459.5,97.2969 L469.5,97.2969 L459.5,87.2969" fill="#FEFFDD" style="stroke:#181818;stroke-width:0.5;"/><text fill="#000000" font-family="sans-serif" font-size="13" lengthAdjust="spacing" textLength="309.2705" x="145.5" y="104.3638">Se inicia la extraccion de requisitos funcionales</text></g><!--link ProcesandoDocumentacion to IdentificandoRequisitos--><g class="link" data-entity-1="ProcesandoDocumentacion" data-entity-2="IdentificandoRequisitos" data-source-line="14" data-uid="lnk4" id="link_ProcesandoDocumentacion_IdentificandoRequisitos"><path d="M134.5,185.5669 C134.5,209.8469 134.5,240.9869 134.5,265.2069" fill="none" id="ProcesandoDocumentacion-to-IdentificandoRequisitos" style="stroke:#008000;stroke-width:1;"/><polygon fill="#008000" points="134.5,271.2069,138.5,262.2069,134.5,266.2069,130.5,262.2069,134.5,271.2069" style="stroke:#008000;stroke-width:1;"/><path d="M139.5,208.2969 L139.5,248.2969 L400.5,248.2969 L400.5,218.2969 L390.5,208.2969 L139.5,208.2969" fill="#FEFFDD" style="stroke:#181818;stroke-width:0.5;"/><path d="M390.5,208.2969 L390.5,218.2969 L400.5,218.2969 L390.5,208.2969" fill="#FEFFDD" style="stroke:#181818;stroke-width:0.5;"/><text fill="#000000" font-family="sans-serif" font-size="13" font-weight="bold" lengthAdjust="spacing" textLength="58.9063" x="145.5" y="225.3638">Sistema</text><text fill="#000000" font-family="sans-serif" font-size="13" lengthAdjust="spacing" textLength="171.7866" x="208.5386" y="225.3638">procesa la documentacion</text><text fill="#000000" font-family="sans-serif" font-size="13" lengthAdjust="spacing" textLength="240.9888" x="145.5" y="240.4966">e identifica los requisitos funcionales</text></g><!--link IdentificandoRequisitos to RegistrandoRequisitos--><g class="link" data-entity-1="IdentificandoRequisitos" data-entity-2="RegistrandoRequisitos" data-source-line="20" data-uid="lnk5" id="link_IdentificandoRequisitos_RegistrandoRequisitos"><path d="M134.5,321.5669 C134.5,345.8469 134.5,376.9869 134.5,401.2069" fill="none" id="IdentificandoRequisitos-to-RegistrandoRequisitos" style="stroke:#008000;stroke-width:1;"/><polygon fill="#008000" points="134.5,407.2069,138.5,398.2069,134.5,402.2069,130.5,398.2069,134.5,407.2069" style="stroke:#008000;stroke-width:1;"/><path d="M139.5,344.2969 L139.5,384.2969 L344.5,384.2969 L344.5,354.2969 L334.5,344.2969 L139.5,344.2969" fill="#FEFFDD" style="stroke:#181818;stroke-width:0.5;"/><path d="M334.5,344.2969 L334.5,354.2969 L344.5,354.2969 L334.5,344.2969" fill="#FEFFDD" style="stroke:#181818;stroke-width:0.5;"/><text fill="#000000" font-family="sans-serif" font-size="13" font-weight="bold" lengthAdjust="spacing" textLength="58.9063" x="145.5" y="361.3638">Sistema</text><text fill="#000000" font-family="sans-serif" font-size="13" lengthAdjust="spacing" textLength="121.3735" x="208.5386" y="361.3638">prepara el registro</text><text fill="#000000" font-family="sans-serif" font-size="13" lengthAdjust="spacing" textLength="183.1743" x="145.5" y="376.4966">de los requisitos detectados</text></g><!--link RegistrandoRequisitos to *end*extraerRequisitosFuncionales--><g class="link" data-entity-1="RegistrandoRequisitos" data-entity-2=".end.extraerRequisitosFuncionales" data-source-line="26" data-uid="lnk7" id="link_RegistrandoRequisitos_.end.extraerRequisitosFuncionales"><path d="M134.5,457.5769 C134.5,483.8769 134.5,518.5669 134.5,537.2769" fill="none" id="RegistrandoRequisitos-to-*end*extraerRequisitosFuncionales" style="stroke:#008000;stroke-width:1;"/><polygon fill="#008000" points="134.5,543.2769,138.5,534.2769,134.5,538.2769,130.5,534.2769,134.5,543.2769" style="stroke:#008000;stroke-width:1;"/><path d="M139.5,480.2969 L139.5,520.2969 L437.5,520.2969 L437.5,490.2969 L427.5,480.2969 L139.5,480.2969" fill="#FEFFDD" style="stroke:#181818;stroke-width:0.5;"/><path d="M427.5,480.2969 L427.5,490.2969 L437.5,490.2969 L427.5,480.2969" fill="#FEFFDD" style="stroke:#181818;stroke-width:0.5;"/><text fill="#000000" font-family="sans-serif" font-size="13" font-weight="bold" lengthAdjust="spacing" textLength="58.9063" x="145.5" y="497.3638">Sistema</text><text fill="#000000" font-family="sans-serif" font-size="13" lengthAdjust="spacing" textLength="214.7666" x="208.5386" y="497.3638">guarda los requisitos funcionales</text><text fill="#000000" font-family="sans-serif" font-size="13" lengthAdjust="spacing" textLength="121.418" x="145.5" y="512.4966">en el sistema local</text></g><g id="REQUISITOS_FUNCIONALES_ABIERTO"><rect fill="#F1F1F1" height="50" rx="12.5" ry="12.5" style="stroke:#181818;stroke-width:0.5;" width="280.1758" x="7" y="670"/><line style="stroke:#181818;stroke-width:0.5;" x1="7" x2="287.1758" y1="696.2969" y2="696.2969"/><text fill="#000000" font-family="sans-serif" font-size="14" lengthAdjust="spacing" textLength="260.1758" x="17" y="687.9951">REQUISITOS_FUNCIONALES_ABIERTO</text></g><g id="DOCUMENTACION_ABIERTA"><rect fill="#F1F1F1" height="50" rx="12.5" ry="12.5" style="stroke:#181818;stroke-width:0.5;" width="213.7578" x="322" y="670"/><line style="stroke:#181818;stroke-width:0.5;" x1="322" x2="535.7578" y1="696.2969" y2="696.2969"/><text fill="#000000" font-family="sans-serif" font-size="14" lengthAdjust="spacing" textLength="193.7578" x="332" y="687.9951">DOCUMENTACION_ABIERTA</text></g><!--link extraerRequisitosFuncionales to REQUISITOS_FUNCIONALES_ABIERTO--><g class="link" data-entity-1="extraerRequisitosFuncionales" data-entity-2="REQUISITOS_FUNCIONALES_ABIERTO" data-source-line="33" data-uid="lnk9" id="link_extraerRequisitosFuncionales_REQUISITOS_FUNCIONALES_ABIERTO"><path d="M188.73,575.02 C175.01,614.15 165.0262,642.6083 157.4662,664.1583" fill="none" id="extraerRequisitosFuncionales-to-REQUISITOS_FUNCIONALES_ABIERTO" style="stroke:#008000;stroke-width:1;"/><polygon fill="#008000" points="155.48,669.82,162.2338,662.6516,157.1352,665.1019,154.6848,660.0033,155.48,669.82" style="stroke:#008000;stroke-width:1;"/><path d="M183,610 L183,635 L348,635 L348,620 L338,610 L183,610" fill="#FEFFDD" style="stroke:#181818;stroke-width:0.5;"/><path d="M338,610 L338,620 L348,620 L338,610" fill="#FEFFDD" style="stroke:#181818;stroke-width:0.5;"/><text fill="#000000" font-family="sans-serif" font-size="13" lengthAdjust="spacing" textLength="144.5933" x="189" y="627.0669">completarExtraccion()</text></g><!--link extraerRequisitosFuncionales to DOCUMENTACION_ABIERTA--><g class="link" data-entity-1="extraerRequisitosFuncionales" data-entity-2="DOCUMENTACION_ABIERTA" data-source-line="38" data-uid="lnk11" id="link_extraerRequisitosFuncionales_DOCUMENTACION_ABIERTA"><path d="M387.27,575.02 C400.99,614.15 410.9738,642.6083 418.5338,664.1583" fill="none" id="extraerRequisitosFuncionales-to-DOCUMENTACION_ABIERTA" style="stroke:#FF0000;stroke-width:1;"/><polygon fill="#FF0000" points="420.52,669.82,421.3152,660.0033,418.8648,665.1019,413.7662,662.6516,420.52,669.82" style="stroke:#FF0000;stroke-width:1;"/><path d="M413,610 L413,635 L569,635 L569,620 L559,610 L413,610" fill="#FEFFDD" style="stroke:#181818;stroke-width:0.5;"/><path d="M559,610 L559,620 L569,620 L559,610" fill="#FEFFDD" style="stroke:#181818;stroke-width:0.5;"/><text fill="#000000" font-family="sans-serif" font-size="13" lengthAdjust="spacing" textLength="135.3892" x="419" y="627.0669">rechazarExtraccion()</text></g><!--SRC=[ZPDHRu8m58NV-oiQzw9BpFw0CM6A2Sacc-YJCQQsLzTOMjQMP6xPVryBYwP36V04d7lETmzWZbmMH9CS2ox1dWh0XH8dVu6GiSG2XW-h2UW5l9VSSAlCh9IKAqa464mCxhK9-eCU_a88kwDswxdJ3RreHS4GoTHKqJ87QOaVQGeJvfxnFQTUUube2XTmuCQ1XB9AjxxVuE7wxg01v6OuRWsNobagwUiuLZSom5nooWaMfEw2UZ5cWFKv1-ylArTJ85bbLGFS20oWsXPjG8rsuynj2paPFUp6kAZzFI5hREJupzPOEDREs3UG0kphjNU31l_bOH2Eg39HbSmL-uUIWGLg2LFN8Ay218ZkzNS2EfH4imuLUM9Jppan9IAa-aQezPS9sejVLqcMBDDiErlD9qawZvxYR1iz9l5YcQA0cAgy4629ZiyVON-0BcNy5wg1-SXfEbazn_DbvDD-aw8mIGDz8vytWdu0]--></g></svg>