<svg xmlns="http://www.w3.org/2000/svg" xmlns:xlink="http://www.w3.org/1999/xlink" contentStyleType="text/css" data-diagram-type="STATE" height="726px" preserveAspectRatio="none" style="width:441px;height:726px;background:#FFFFFF;" version="1.1" viewBox="0 0 441 726" width="441px" zoomAndPan="magnify"><defs/><g><path d="M19.5,7 L334.5,7 A12.5,12.5 0 0 1 347,19.5 L347,33.2969 L7,33.2969 L7,19.5 A12.5,12.5 0 0 1 19.5,7" fill="#F1F1F1"/><rect fill="none" height="568.2969" rx="12.5" ry="12.5" style="stroke:#181818;stroke-width:0.5;" width="340" x="7" y="7"/><line style="stroke:#181818;stroke-width:0.5;" x1="7" x2="347" y1="33.2969" y2="33.2969"/><text fill="#000000" font-family="sans-serif" font-size="14" lengthAdjust="spacing" textLength="184.3926" x="84.8037" y="24.9951">anadirFeedbackBorrador()</text><g id="anadirFeedbackBorrador.SeleccionandoBorrador"><rect fill="#F1F1F1" height="50" rx="12.5" ry="12.5" style="stroke:#181818;stroke-width:0.5;" width="50" x="19" y="135.2969"/><line style="stroke:#181818;stroke-width:0.5;" x1="19" x2="69" y1="161.5938" y2="161.5938"/><text fill="#000000" font-family="sans-serif" font-size="14" lengthAdjust="spacing" textLength="4.4502" x="41.7749" y="153.292">&#160;</text></g><g id="anadirFeedbackBorrador.IntroduciendoFeedback"><rect fill="#F1F1F1" height="50" rx="12.5" ry="12.5" style="stroke:#181818;stroke-width:0.5;" width="50" x="19" y="271.2969"/><line style="stroke:#181818;stroke-width:0.5;" x1="19" x2="69" y1="297.5938" y2="297.5938"/><text fill="#000000" font-family="sans-serif" font-size="14" lengthAdjust="spacing" textLength="4.4502" x="41.7749" y="289.292">&#160;</text></g><g id="anadirFeedbackBorrador.RegistrandoFeedback"><rect fill="#F1F1F1" height="50" rx="12.5" ry="12.5" style="stroke:#181818;stroke-width:0.5;" width="50" x="19" y="407.2969"/><line style="stroke:#181818;stroke-width:0.5;" x1="19" x2="69" y1="433.5938" y2="433.5938"/><text fill="#000000" font-family="sans-serif" font-size="14" lengthAdjust="spacing" textLength="4.4502" x="41.7749" y="425.292">&#160;</text></g><ellipse cx="44" cy="54.2969" fill="#222222" rx="10" ry="10" style="stroke:#222222;stroke-width:1;"/><ellipse cx="44" cy="554.2969" fill="none" rx="11" ry="11" style="stroke:#222222;stroke-width:1;"/><ellipse cx="44" cy="554.2969" fill="#222222" rx="6" ry="6" style="stroke:#222222;stroke-width:1;"/><!--link *start*anadirFeedbackBorrador to SeleccionandoBorrador--><g class="link" data-entity-1=".start.anadirFeedbackBorrador" data-entity-2="SeleccionandoBorrador" data-source-line="9" data-uid="lnk3" id="link_.start.anadirFeedbackBorrador_SeleccionandoBorrador"><path d="M44,64.5269 C44,80.2369 44,106.6569 44,129.1669" fill="none" id="*start*anadirFeedbackBorrador-to-SeleccionandoBorrador" style="stroke:#008000;stroke-width:1;"/><polygon fill="#008000" points="44,135.1669,48,126.1669,44,130.1669,40,126.1669,44,135.1669" style="stroke:#008000;stroke-width:1;"/><path d="M49,87.2969 L49,112.2969 L338,112.2969 L338,97.2969 L328,87.2969 L49,87.2969" fill="#FEFFDD" style="stroke:#181818;stroke-width:0.5;"/><path d="M328,87.2969 L328,97.2969 L338,97.2969 L328,87.2969" fill="#FEFFDD" style="stroke:#181818;stroke-width:0.5;"/><text fill="#000000" font-family="sans-serif" font-size="13" lengthAdjust="spacing" textLength="268.7725" x="55" y="104.3638">Se solicita anadir feedback a un borrador</text></g><!--link SeleccionandoBorrador to IntroduciendoFeedback--><g class="link" data-entity-1="SeleccionandoBorrador" data-entity-2="IntroduciendoFeedback" data-source-line="14" data-uid="lnk4" id="link_SeleccionandoBorrador_IntroduciendoFeedback"><path d="M44,185.5669 C44,209.8469 44,240.9869 44,265.2069" fill="none" id="SeleccionandoBorrador-to-IntroduciendoFeedback" style="stroke:#008000;stroke-width:1;"/><polygon fill="#008000" points="44,271.2069,48,262.2069,44,266.2069,40,262.2069,44,271.2069" style="stroke:#008000;stroke-width:1;"/><path d="M49,208.2969 L49,248.2969 L285,248.2969 L285,218.2969 L275,208.2969 L49,208.2969" fill="#FEFFDD" style="stroke:#181818;stroke-width:0.5;"/><path d="M275,208.2969 L275,218.2969 L285,218.2969 L275,208.2969" fill="#FEFFDD" style="stroke:#181818;stroke-width:0.5;"/><text fill="#000000" font-family="sans-serif" font-size="13" font-weight="bold" lengthAdjust="spacing" textLength="58.9063" x="55" y="225.3638">Sistema</text><text fill="#000000" font-family="sans-serif" font-size="13" lengthAdjust="spacing" textLength="130.3682" x="118.0386" y="225.3638">muestra el borrador</text><text fill="#000000" font-family="sans-serif" font-size="13" lengthAdjust="spacing" textLength="215.1221" x="55" y="240.4966">y habilita la entrada de feedback</text></g><!--link IntroduciendoFeedback to RegistrandoFeedback--><g class="link" data-entity-1="IntroduciendoFeedback" data-entity-2="RegistrandoFeedback" data-source-line="20" data-uid="lnk5" id="link_IntroduciendoFeedback_RegistrandoFeedback"><path d="M44,321.5669 C44,345.8469 44,376.9869 44,401.2069" fill="none" id="IntroduciendoFeedback-to-RegistrandoFeedback" style="stroke:#008000;stroke-width:1;"/><polygon fill="#008000" points="44,407.2069,48,398.2069,44,402.2069,40,398.2069,44,407.2069" style="stroke:#008000;stroke-width:1;"/><path d="M49,344.2969 L49,384.2969 L252,384.2969 L252,354.2969 L242,344.2969 L49,344.2969" fill="#FEFFDD" style="stroke:#181818;stroke-width:0.5;"/><path d="M242,344.2969 L242,354.2969 L252,354.2969 L242,344.2969" fill="#FEFFDD" style="stroke:#181818;stroke-width:0.5;"/><text fill="#000000" font-family="sans-serif" font-size="13" font-weight="bold" lengthAdjust="spacing" textLength="58.9063" x="55" y="361.3638">Sistema</text><text fill="#000000" font-family="sans-serif" font-size="13" lengthAdjust="spacing" textLength="119.9453" x="118.0386" y="361.3638">recibe el feedback</text><text fill="#000000" font-family="sans-serif" font-size="13" lengthAdjust="spacing" textLength="138.6963" x="55" y="376.4966">y valida su contenido</text></g><!--link RegistrandoFeedback to *end*anadirFeedbackBorrador--><g class="link" data-entity-1="RegistrandoFeedback" data-entity-2=".end.anadirFeedbackBorrador" data-source-line="26" data-uid="lnk7" id="link_RegistrandoFeedback_.end.anadirFeedbackBorrador"><path d="M44,457.5769 C44,483.8769 44,518.5669 44,537.2769" fill="none" id="RegistrandoFeedback-to-*end*anadirFeedbackBorrador" style="stroke:#008000;stroke-width:1;"/><polygon fill="#008000" points="44,543.2769,48,534.2769,44,538.2769,40,534.2769,44,543.2769" style="stroke:#008000;stroke-width:1;"/><path d="M49,480.2969 L49,520.2969 L263,520.2969 L263,490.2969 L253,480.2969 L49,480.2969" fill="#FEFFDD" style="stroke:#181818;stroke-width:0.5;"/><path d="M253,480.2969 L253,490.2969 L263,490.2969 L253,480.2969" fill="#FEFFDD" style="stroke:#181818;stroke-width:0.5;"/><text fill="#000000" font-family="sans-serif" font-size="13" font-weight="bold" lengthAdjust="spacing" textLength="58.9063" x="55" y="497.3638">Sistema</text><text fill="#000000" font-family="sans-serif" font-size="13" lengthAdjust="spacing" textLength="129.981" x="118.0386" y="497.3638">registra el feedback</text><text fill="#000000" font-family="sans-serif" font-size="13" lengthAdjust="spacing" textLength="112.6074" x="55" y="512.4966">sobre el borrador</text></g><g id="BORRADOR_ABIERTO"><rect fill="#F1F1F1" height="50" rx="12.5" ry="12.5" style="stroke:#181818;stroke-width:0.5;" width="169.6387" x="92" y="670"/><line style="stroke:#181818;stroke-width:0.5;" x1="92" x2="261.6387" y1="696.2969" y2="696.2969"/><text fill="#000000" font-family="sans-serif" font-size="14" lengthAdjust="spacing" textLength="149.6387" x="102" y="687.9951">BORRADOR_ABIERTO</text></g><!--link anadirFeedbackBorrador to BORRADOR_ABIERTO--><g class="link" data-entity-1="anadirFeedbackBorrador" data-entity-2="BORRADOR_ABIERTO" data-source-line="33" data-uid="lnk9" id="link_anadirFeedbackBorrador_BORRADOR_ABIERTO"><path d="M69.3,575.27 C62.32,593.65 58,605 58,605 C58,605 58,640 58,640 C58,640 86.6156,652.9921 118.3056,667.3621" fill="none" id="anadirFeedbackBorrador-to-BORRADOR_ABIERTO" style="stroke:#008000;stroke-width:1;"/><polygon fill="#008000" points="123.77,669.84,117.2253,662.4802,119.2163,667.7751,113.9214,669.7661,123.77,669.84" style="stroke:#008000;stroke-width:1;"/><path d="M63,610 L63,635 L246,635 L246,620 L236,610 L63,610" fill="#FEFFDD" style="stroke:#181818;stroke-width:0.5;"/><path d="M236,610 L236,620 L246,620 L236,610" fill="#FEFFDD" style="stroke:#181818;stroke-width:0.5;"/><text fill="#000000" font-family="sans-serif" font-size="13" lengthAdjust="spacing" textLength="162.4873" x="69" y="627.0669">completarActualizacion()</text></g><!--link anadirFeedbackBorrador to BORRADOR_ABIERTO--><g class="link" data-entity-1="anadirFeedbackBorrador" data-entity-2="BORRADOR_ABIERTO" data-source-line="38" data-uid="lnk10" id="link_anadirFeedbackBorrador_BORRADOR_ABIERTO"><path d="M247.59,575.27 C252.17,593.65 255,605 255,605 C255,605 255,640 255,640 C255,640 237.5942,652.0562 216.8242,666.4262" fill="none" id="anadirFeedbackBorrador-to-BORRADOR_ABIERTO-1" style="stroke:#FF0000;stroke-width:1;"/><polygon fill="#FF0000" points="211.89,669.84,221.5671,668.0088,216.0018,666.9952,217.0154,661.4299,211.89,669.84" style="stroke:#FF0000;stroke-width:1;"/><path d="M260,610 L260,635 L434,635 L434,620 L424,610 L260,610" fill="#FEFFDD" style="stroke:#181818;stroke-width:0.5;"/><path d="M424,610 L424,620 L434,620 L424,610" fill="#FEFFDD" style="stroke:#181818;stroke-width:0.5;"/><text fill="#000000" font-family="sans-serif" font-size="13" lengthAdjust="spacing" textLength="153.2832" x="266" y="627.0669">rechazarActualizacion()</text></g><!--SRC=[ZPBDQiCm48JlUeh5lII5q1S8XeIsa5F0wIs4ifAsYOWi6KakEANlNZb_ZR7SHZu9ZMQ-MSllbQdGOGbQ6GfDHL1PtRGRndp0G806fNAlH9AZsC-jSoYj0_IGfOz6umo-68EuJWvP_A9yHPg4KDQWaVOYxiiM9ZWhQw4eoYxUVLb1M-M3mrlHKRL-tC1a_R1rH6OpoV-8DJRQMTDMFmMi2BpLIgY0vzhmSVO6XDe0lxqU-OuMx7mt4TC16IxM0vdoV1NRKOdJ9vv3MLDR5KXt2HhO8LUwnTNnDFgZH91qfKvm9YawdAd9taFfI2XEBMGdle5Fr2fo-Hg4DO6CaZO1beZjOCN_UYV6oQS7uYrtr9lX5UARiO6dVainNnR5x7bPlC_cYvVYRSawECAMbQQ0RYP27LiVi7qHep7xhJgSuKZ-dn27lCF3SC0F]--></g></svg>