<svg xmlns="http://www.w3.org/2000/svg" xmlns:xlink="http://www.w3.org/1999/xlink" contentStyleType="text/css" data-diagram-type="STATE" height="726px" preserveAspectRatio="none" style="width:507px;height:726px;background:#FFFFFF;" version="1.1" viewBox="0 0 507 726" width="507px" zoomAndPan="magnify"><defs/><g><path d="M78.5,7 L358.5,7 A12.5,12.5 0 0 1 371,19.5 L371,33.2969 L66,33.2969 L66,19.5 A12.5,12.5 0 0 1 78.5,7" fill="#F1F1F1"/><rect fill="none" height="568.2969" rx="12.5" ry="12.5" style="stroke:#181818;stroke-width:0.5;" width="305" x="66" y="7"/><line style="stroke:#181818;stroke-width:0.5;" x1="66" x2="371" y1="33.2969" y2="33.2969"/><text fill="#000000" font-family="sans-serif" font-size="14" lengthAdjust="spacing" textLength="141.8389" x="147.5806" y="24.9951">regenerarBorrador()</text><g id="regenerarBorrador.RecuperandoBorrador"><rect fill="#F1F1F1" height="50" rx="12.5" ry="12.5" style="stroke:#181818;stroke-width:0.5;" width="50" x="78" y="135.2969"/><line style="stroke:#181818;stroke-width:0.5;" x1="78" x2="128" y1="161.5938" y2="161.5938"/><text fill="#000000" font-family="sans-serif" font-size="14" lengthAdjust="spacing" textLength="4.4502" x="100.7749" y="153.292">&#160;</text></g><g id="regenerarBorrador.ProcesandoFeedback"><rect fill="#F1F1F1" height="50" rx="12.5" ry="12.5" style="stroke:#181818;stroke-width:0.5;" width="50" x="78" y="271.2969"/><line style="stroke:#181818;stroke-width:0.5;" x1="78" x2="128" y1="297.5938" y2="297.5938"/><text fill="#000000" font-family="sans-serif" font-size="14" lengthAdjust="spacing" textLength="4.4502" x="100.7749" y="289.292">&#160;</text></g><g id="regenerarBorrador.GenerandoNuevaVersion"><rect fill="#F1F1F1" height="50" rx="12.5" ry="12.5" style="stroke:#181818;stroke-width:0.5;" width="50" x="78" y="407.2969"/><line style="stroke:#181818;stroke-width:0.5;" x1="78" x2="128" y1="433.5938" y2="433.5938"/><text fill="#000000" font-family="sans-serif" font-size="14" lengthAdjust="spacing" textLength="4.4502" x="100.7749" y="425.292">&#160;</text></g><ellipse cx="103" cy="54.2969" fill="#222222" rx="10" ry="10" style="stroke:#222222;stroke-width:1;"/><ellipse cx="103" cy="554.2969" fill="none" rx="11" ry="11" style="stroke:#222222;stroke-width:1;"/><ellipse cx="103" cy="554.2969" fill="#222222" rx="6" ry="6" style="stroke:#222222;stroke-width:1;"/><!--link *start*regenerarBorrador to RecuperandoBorrador--><g class="link" data-entity-1=".start.regenerarBorrador" data-entity-2="RecuperandoBorrador" data-source-line="9" data-uid="lnk3" id="link_.start.regenerarBorrador_RecuperandoBorrador"><path d="M103,64.5269 C103,80.2369 103,106.6569 103,129.1669" fill="none" id="*start*regenerarBorrador-to-RecuperandoBorrador" style="stroke:#008000;stroke-width:1;"/><polygon fill="#008000" points="103,135.1669,107,126.1669,103,130.1669,99,126.1669,103,135.1669" style="stroke:#008000;stroke-width:1;"/><path d="M108,87.2969 L108,112.2969 L344,112.2969 L344,97.2969 L334,87.2969 L108,87.2969" fill="#FEFFDD" style="stroke:#181818;stroke-width:0.5;"/><path d="M334,87.2969 L334,97.2969 L344,97.2969 L334,87.2969" fill="#FEFFDD" style="stroke:#181818;stroke-width:0.5;"/><text fill="#000000" font-family="sans-serif" font-size="13" lengthAdjust="spacing" textLength="215.9282" x="114" y="104.3638">Se solicita regenerar un borrador</text></g><!--link RecuperandoBorrador to ProcesandoFeedback--><g class="link" data-entity-1="RecuperandoBorrador" data-entity-2="ProcesandoFeedback" data-source-line="14" data-uid="lnk4" id="link_RecuperandoBorrador_ProcesandoFeedback"><path d="M103,185.5669 C103,209.8469 103,240.9869 103,265.2069" fill="none" id="RecuperandoBorrador-to-ProcesandoFeedback" style="stroke:#008000;stroke-width:1;"/><polygon fill="#008000" points="103,271.2069,107,262.2069,103,266.2069,99,262.2069,103,271.2069" style="stroke:#008000;stroke-width:1;"/><path d="M108,208.2969 L108,248.2969 L362,248.2969 L362,218.2969 L352,208.2969 L108,208.2969" fill="#FEFFDD" style="stroke:#181818;stroke-width:0.5;"/><path d="M352,208.2969 L352,218.2969 L362,218.2969 L352,208.2969" fill="#FEFFDD" style="stroke:#181818;stroke-width:0.5;"/><text fill="#000000" font-family="sans-serif" font-size="13" font-weight="bold" lengthAdjust="spacing" textLength="58.9063" x="114" y="225.3638">Sistema</text><text fill="#000000" font-family="sans-serif" font-size="13" lengthAdjust="spacing" textLength="146.4023" x="177.0386" y="225.3638">recupera el borrador y</text><text fill="#000000" font-family="sans-serif" font-size="13" lengthAdjust="spacing" textLength="233.1812" x="114" y="240.4966">el feedback previamente registrado</text></g><!--link ProcesandoFeedback to GenerandoNuevaVersion--><g class="link" data-entity-1="ProcesandoFeedback" data-entity-2="GenerandoNuevaVersion" data-source-line="20" data-uid="lnk5" id="link_ProcesandoFeedback_GenerandoNuevaVersion"><path d="M103,321.5669 C103,345.8469 103,376.9869 103,401.2069" fill="none" id="ProcesandoFeedback-to-GenerandoNuevaVersion" style="stroke:#008000;stroke-width:1;"/><polygon fill="#008000" points="103,407.2069,107,398.2069,103,402.2069,99,398.2069,103,407.2069" style="stroke:#008000;stroke-width:1;"/><path d="M108,344.2969 L108,384.2969 L323,384.2969 L323,354.2969 L313,344.2969 L108,344.2969" fill="#FEFFDD" style="stroke:#181818;stroke-width:0.5;"/><path d="M313,344.2969 L313,354.2969 L323,354.2969 L313,344.2969" fill="#FEFFDD" style="stroke:#181818;stroke-width:0.5;"/><text fill="#000000" font-family="sans-serif" font-size="13" font-weight="bold" lengthAdjust="spacing" textLength="58.9063" x="114" y="361.3638">Sistema</text><text fill="#000000" font-family="sans-serif" font-size="13" lengthAdjust="spacing" textLength="131.0283" x="177.0386" y="361.3638">procesa el feedback</text><text fill="#000000" font-family="sans-serif" font-size="13" lengthAdjust="spacing" textLength="174.6748" x="114" y="376.4966">y prepara la nueva version</text></g><!--link GenerandoNuevaVersion to *end*regenerarBorrador--><g class="link" data-entity-1="GenerandoNuevaVersion" data-entity-2=".end.regenerarBorrador" data-source-line="26" data-uid="lnk7" id="link_GenerandoNuevaVersion_.end.regenerarBorrador"><path d="M103,457.5769 C103,483.8769 103,518.5669 103,537.2769" fill="none" id="GenerandoNuevaVersion-to-*end*regenerarBorrador" style="stroke:#008000;stroke-width:1;"/><polygon fill="#008000" points="103,543.2769,107,534.2769,103,538.2769,99,534.2769,103,543.2769" style="stroke:#008000;stroke-width:1;"/><path d="M108,480.2969 L108,520.2969 L349,520.2969 L349,490.2969 L339,480.2969 L108,480.2969" fill="#FEFFDD" style="stroke:#181818;stroke-width:0.5;"/><path d="M339,480.2969 L339,490.2969 L349,490.2969 L339,480.2969" fill="#FEFFDD" style="stroke:#181818;stroke-width:0.5;"/><text fill="#000000" font-family="sans-serif" font-size="13" font-weight="bold" lengthAdjust="spacing" textLength="58.9063" x="114" y="497.3638">Sistema</text><text fill="#000000" font-family="sans-serif" font-size="13" lengthAdjust="spacing" textLength="157.5234" x="177.0386" y="497.3638">genera la nueva version</text><text fill="#000000" font-family="sans-serif" font-size="13" lengthAdjust="spacing" textLength="215.0713" x="114" y="512.4966">y la deja disponible para revision</text></g><g id="BORRADORES_ABIERTO"><rect fill="#F1F1F1" height="50" rx="12.5" ry="12.5" style="stroke:#181818;stroke-width:0.5;" width="187.3711" x="7" y="670"/><line style="stroke:#181818;stroke-width:0.5;" x1="7" x2="194.3711" y1="696.2969" y2="696.2969"/><text fill="#000000" font-family="sans-serif" font-size="14" lengthAdjust="spacing" textLength="167.3711" x="17" y="687.9951">BORRADORES_ABIERTO</text></g><g id="BORRADOR_ABIERTO"><rect fill="#F1F1F1" height="50" rx="12.5" ry="12.5" style="stroke:#181818;stroke-width:0.5;" width="169.6387" x="251.5" y="670"/><line style="stroke:#181818;stroke-width:0.5;" x1="251.5" x2="421.1387" y1="696.2969" y2="696.2969"/><text fill="#000000" font-family="sans-serif" font-size="14" lengthAdjust="spacing" textLength="149.6387" x="261.5" y="687.9951">BORRADOR_ABIERTO</text></g><!--link regenerarBorrador to BORRADORES_ABIERTO--><g class="link" data-entity-1="regenerarBorrador" data-entity-2="BORRADORES_ABIERTO" data-source-line="33" data-uid="lnk9" id="link_regenerarBorrador_BORRADORES_ABIERTO"><path d="M108.99,575.27 C101.89,593.65 97.5,605 97.5,605 C97.5,605 97.5,640 97.5,640 C97.5,640 98.0265,649.4793 98.8265,663.8493" fill="none" id="regenerarBorrador-to-BORRADORES_ABIERTO" style="stroke:#008000;stroke-width:1;"/><polygon fill="#008000" points="99.16,669.84,102.6535,660.6316,98.8821,664.8477,94.6659,661.0763,99.16,669.84" style="stroke:#008000;stroke-width:1;"/><path d="M102.5,610 L102.5,635 L288.5,635 L288.5,620 L278.5,610 L102.5,610" fill="#FEFFDD" style="stroke:#181818;stroke-width:0.5;"/><path d="M278.5,610 L278.5,620 L288.5,620 L278.5,610" fill="#FEFFDD" style="stroke:#181818;stroke-width:0.5;"/><text fill="#000000" font-family="sans-serif" font-size="13" lengthAdjust="spacing" textLength="165.9595" x="108.5" y="627.0669">completarRegeneracion()</text></g><!--link regenerarBorrador to BORRADOR_ABIERTO--><g class="link" data-entity-1="regenerarBorrador" data-entity-2="BORRADOR_ABIERTO" data-source-line="38" data-uid="lnk11" id="link_regenerarBorrador_BORRADOR_ABIERTO"><path d="M301.58,575.02 C313.06,614.15 321.3915,642.5125 327.7115,664.0625" fill="none" id="regenerarBorrador-to-BORRADOR_ABIERTO" style="stroke:#FF0000;stroke-width:1;"/><polygon fill="#FF0000" points="329.4,669.82,330.7056,660.0581,327.9929,665.0221,323.0289,662.3094,329.4,669.82" style="stroke:#FF0000;stroke-width:1;"/><path d="M323.5,610 L323.5,635 L500.5,635 L500.5,620 L490.5,610 L323.5,610" fill="#FEFFDD" style="stroke:#181818;stroke-width:0.5;"/><path d="M490.5,610 L490.5,620 L500.5,620 L490.5,610" fill="#FEFFDD" style="stroke:#181818;stroke-width:0.5;"/><text fill="#000000" font-family="sans-serif" font-size="13" lengthAdjust="spacing" textLength="156.7554" x="329.5" y="627.0669">rechazarRegeneracion()</text></g><!--SRC=[ZPBHQi8m58RlynG7TwC3sGk8e4p7RkQeOpSYuxGzSvbf4f8gT6FlliIusP8KRA7Gy9_l_q_EiNikDHgiG719TQC9j1AD_s7CrbWJ6DgH98Dchep1KXb02uFeT3WQm3TZu9vGDt2lKsPK7BGJobBzIMFHir45MQzP4fKv5ljOyt3oSvAd0ntnbOpbIWR3pUqMnfkRdI6Is_6qrrCgXrFIzneCrWHM2Lxm6Yzzma52tYuZMPvAWra2tZ7lwINodkJJDRSrLJYvowVEFc21nByxDC5VmFiP1ThGaMD5Cap60Rmo4JEEqKcPlirhWke0RgSwoHgVpUyI20JfgN1iORlfalQTW6wcLyK9GqjxDlwuf4_tuLOhoNFXzjj7zBSOH_jXBDxsTgZvAijczwjiiNwRpHyNsSkATV8LgjA2QZJP6LCuZ-68NPfFyWsLRNgQxHRa0xzwqRy0]--></g></svg>