<svg xmlns="http://www.w3.org/2000/svg" xmlns:xlink="http://www.w3.org/1999/xlink" contentStyleType="text/css" data-diagram-type="STATE" height="726px" preserveAspectRatio="none" style="width:446px;height:726px;background:#FFFFFF;" version="1.1" viewBox="0 0 446 726" width="446px" zoomAndPan="magnify"><defs/><g><path d="M45,7 L353,7 A12.5,12.5 0 0 1 365.5,19.5 L365.5,33.2969 L32.5,33.2969 L32.5,19.5 A12.5,12.5 0 0 1 45,7" fill="#F1F1F1"/><rect fill="none" height="568.2969" rx="12.5" ry="12.5" style="stroke:#181818;stroke-width:0.5;" width="333" x="32.5" y="7"/><line style="stroke:#181818;stroke-width:0.5;" x1="32.5" x2="365.5" y1="33.2969" y2="33.2969"/><text fill="#000000" font-family="sans-serif" font-size="14" lengthAdjust="spacing" textLength="137.4092" x="130.2954" y="24.9951">consultarBorrador()</text><g id="consultarBorrador.SeleccionandoBorrador"><rect fill="#F1F1F1" height="50" rx="12.5" ry="12.5" style="stroke:#181818;stroke-width:0.5;" width="50" x="44.5" y="135.2969"/><line style="stroke:#181818;stroke-width:0.5;" x1="44.5" x2="94.5" y1="161.5938" y2="161.5938"/><text fill="#000000" font-family="sans-serif" font-size="14" lengthAdjust="spacing" textLength="4.4502" x="67.2749" y="153.292">&#160;</text></g><g id="consultarBorrador.RecuperandoDetalle"><rect fill="#F1F1F1" height="50" rx="12.5" ry="12.5" style="stroke:#181818;stroke-width:0.5;" width="50" x="44.5" y="271.2969"/><line style="stroke:#181818;stroke-width:0.5;" x1="44.5" x2="94.5" y1="297.5938" y2="297.5938"/><text fill="#000000" font-family="sans-serif" font-size="14" lengthAdjust="spacing" textLength="4.4502" x="67.2749" y="289.292">&#160;</text></g><g id="consultarBorrador.MostrandoDetalle"><rect fill="#F1F1F1" height="50" rx="12.5" ry="12.5" style="stroke:#181818;stroke-width:0.5;" width="50" x="44.5" y="407.2969"/><line style="stroke:#181818;stroke-width:0.5;" x1="44.5" x2="94.5" y1="433.5938" y2="433.5938"/><text fill="#000000" font-family="sans-serif" font-size="14" lengthAdjust="spacing" textLength="4.4502" x="67.2749" y="425.292">&#160;</text></g><ellipse cx="69.5" cy="54.2969" fill="#222222" rx="10" ry="10" style="stroke:#222222;stroke-width:1;"/><ellipse cx="69.5" cy="554.2969" fill="none" rx="11" ry="11" style="stroke:#222222;stroke-width:1;"/><ellipse cx="69.5" cy="554.2969" fill="#222222" rx="6" ry="6" style="stroke:#222222;stroke-width:1;"/><!--link *start*consultarBorrador to SeleccionandoBorrador--><g class="link" data-entity-1=".start.consultarBorrador" data-entity-2="SeleccionandoBorrador" data-source-line="9" data-uid="lnk3" id="link_.start.consultarBorrador_SeleccionandoBorrador"><path d="M69.5,64.5269 C69.5,80.2369 69.5,106.6569 69.5,129.1669" fill="none" id="*start*consultarBorrador-to-SeleccionandoBorrador" style="stroke:#008000;stroke-width:1;"/><polygon fill="#008000" points="69.5,135.1669,73.5,126.1669,69.5,130.1669,65.5,126.1669,69.5,135.1669" style="stroke:#008000;stroke-width:1;"/><path d="M74.5,87.2969 L74.5,112.2969 L306.5,112.2969 L306.5,97.2969 L296.5,87.2969 L74.5,87.2969" fill="#FEFFDD" style="stroke:#181818;stroke-width:0.5;"/><path d="M296.5,87.2969 L296.5,97.2969 L306.5,97.2969 L296.5,87.2969" fill="#FEFFDD" style="stroke:#181818;stroke-width:0.5;"/><text fill="#000000" font-family="sans-serif" font-size="13" lengthAdjust="spacing" textLength="211.8149" x="80.5" y="104.3638">Se solicita consultar un borrador</text></g><!--link SeleccionandoBorrador to RecuperandoDetalle--><g class="link" data-entity-1="SeleccionandoBorrador" data-entity-2="RecuperandoDetalle" data-source-line="14" data-uid="lnk4" id="link_SeleccionandoBorrador_RecuperandoDetalle"><path d="M69.5,185.5669 C69.5,209.8469 69.5,240.9869 69.5,265.2069" fill="none" id="SeleccionandoBorrador-to-RecuperandoDetalle" style="stroke:#008000;stroke-width:1;"/><polygon fill="#008000" points="69.5,271.2069,73.5,262.2069,69.5,266.2069,65.5,262.2069,69.5,271.2069" style="stroke:#008000;stroke-width:1;"/><path d="M74.5,208.2969 L74.5,248.2969 L356.5,248.2969 L356.5,218.2969 L346.5,208.2969 L74.5,208.2969" fill="#FEFFDD" style="stroke:#181818;stroke-width:0.5;"/><path d="M346.5,208.2969 L346.5,218.2969 L356.5,218.2969 L346.5,208.2969" fill="#FEFFDD" style="stroke:#181818;stroke-width:0.5;"/><text fill="#000000" font-family="sans-serif" font-size="13" font-weight="bold" lengthAdjust="spacing" textLength="58.9063" x="80.5" y="225.3638">Sistema</text><text fill="#000000" font-family="sans-serif" font-size="13" lengthAdjust="spacing" textLength="198.7515" x="143.5386" y="225.3638">toma el borrador seleccionado</text><text fill="#000000" font-family="sans-serif" font-size="13" lengthAdjust="spacing" textLength="137.9282" x="80.5" y="240.4966">y recupera su detalle</text></g><!--link RecuperandoDetalle to MostrandoDetalle--><g class="link" data-entity-1="RecuperandoDetalle" data-entity-2="MostrandoDetalle" data-source-line="20" data-uid="lnk5" id="link_RecuperandoDetalle_MostrandoDetalle"><path d="M69.5,321.5669 C69.5,345.8469 69.5,376.9869 69.5,401.2069" fill="none" id="RecuperandoDetalle-to-MostrandoDetalle" style="stroke:#008000;stroke-width:1;"/><polygon fill="#008000" points="69.5,407.2069,73.5,398.2069,69.5,402.2069,65.5,398.2069,69.5,407.2069" style="stroke:#008000;stroke-width:1;"/><path d="M74.5,344.2969 L74.5,384.2969 L306.5,384.2969 L306.5,354.2969 L296.5,344.2969 L74.5,344.2969" fill="#FEFFDD" style="stroke:#181818;stroke-width:0.5;"/><path d="M296.5,344.2969 L296.5,354.2969 L306.5,354.2969 L296.5,344.2969" fill="#FEFFDD" style="stroke:#181818;stroke-width:0.5;"/><text fill="#000000" font-family="sans-serif" font-size="13" font-weight="bold" lengthAdjust="spacing" textLength="58.9063" x="80.5" y="361.3638">Sistema</text><text fill="#000000" font-family="sans-serif" font-size="13" lengthAdjust="spacing" textLength="148.2749" x="143.5386" y="361.3638">prepara la informacion</text><text fill="#000000" font-family="sans-serif" font-size="13" lengthAdjust="spacing" textLength="136.0557" x="80.5" y="376.4966">para su visualizacion</text></g><!--link MostrandoDetalle to *end*consultarBorrador--><g class="link" data-entity-1="MostrandoDetalle" data-entity-2=".end.consultarBorrador" data-source-line="26" data-uid="lnk7" id="link_MostrandoDetalle_.end.consultarBorrador"><path d="M69.5,457.5769 C69.5,483.8769 69.5,518.5669 69.5,537.2769" fill="none" id="MostrandoDetalle-to-*end*consultarBorrador" style="stroke:#008000;stroke-width:1;"/><polygon fill="#008000" points="69.5,543.2769,73.5,534.2769,69.5,538.2769,65.5,534.2769,69.5,543.2769" style="stroke:#008000;stroke-width:1;"/><path d="M74.5,480.2969 L74.5,520.2969 L276.5,520.2969 L276.5,490.2969 L266.5,480.2969 L74.5,480.2969" fill="#FEFFDD" style="stroke:#181818;stroke-width:0.5;"/><path d="M266.5,480.2969 L266.5,490.2969 L276.5,490.2969 L266.5,480.2969" fill="#FEFFDD" style="stroke:#181818;stroke-width:0.5;"/><text fill="#000000" font-family="sans-serif" font-size="13" font-weight="bold" lengthAdjust="spacing" textLength="58.9063" x="80.5" y="497.3638">Sistema</text><text fill="#000000" font-family="sans-serif" font-size="13" lengthAdjust="spacing" textLength="118.4917" x="143.5386" y="497.3638">muestra el detalle</text><text fill="#000000" font-family="sans-serif" font-size="13" lengthAdjust="spacing" textLength="80.4058" x="80.5" y="512.4966">del borrador</text></g><g id="BORRADOR_ABIERTO"><rect fill="#F1F1F1" height="50" rx="12.5" ry="12.5" style="stroke:#181818;stroke-width:0.5;" width="169.6387" x="7" y="670"/><line style="stroke:#181818;stroke-width:0.5;" x1="7" x2="176.6387" y1="696.2969" y2="696.2969"/><text fill="#000000" font-family="sans-serif" font-size="14" lengthAdjust="spacing" textLength="149.6387" x="17" y="687.9951">BORRADOR_ABIERTO</text></g><g id="BORRADORES_ABIERTO"><rect fill="#F1F1F1" height="50" rx="12.5" ry="12.5" style="stroke:#181818;stroke-width:0.5;" width="187.3711" x="212.5" y="670"/><line style="stroke:#181818;stroke-width:0.5;" x1="212.5" x2="399.8711" y1="696.2969" y2="696.2969"/><text fill="#000000" font-family="sans-serif" font-size="14" lengthAdjust="spacing" textLength="167.3711" x="222.5" y="687.9951">BORRADORES_ABIERTO</text></g><!--link consultarBorrador to BORRADOR_ABIERTO--><g class="link" data-entity-1="consultarBorrador" data-entity-2="BORRADOR_ABIERTO" data-source-line="33" data-uid="lnk9" id="link_consultarBorrador_BORRADOR_ABIERTO"><path d="M108.5,575.27 C102.63,593.65 99,605 99,605 C99,605 96.4622,637.3486 94.3822,663.6986" fill="none" id="consultarBorrador-to-BORRADOR_ABIERTO" style="stroke:#008000;stroke-width:1;"/><polygon fill="#008000" points="93.91,669.68,98.6058,661.0227,94.3035,664.6955,90.6306,660.3931,93.91,669.68" style="stroke:#008000;stroke-width:1;"/><path d="M104,610 L104,635 L258,635 L258,620 L248,610 L104,610" fill="#FEFFDD" style="stroke:#181818;stroke-width:0.5;"/><path d="M248,610 L248,620 L258,620 L248,610" fill="#FEFFDD" style="stroke:#181818;stroke-width:0.5;"/><text fill="#000000" font-family="sans-serif" font-size="13" lengthAdjust="spacing" textLength="133.1357" x="110" y="627.0669">completarConsulta()</text></g><!--link consultarBorrador to BORRADORES_ABIERTO--><g class="link" data-entity-1="consultarBorrador" data-entity-2="BORRADORES_ABIERTO" data-source-line="38" data-uid="lnk11" id="link_consultarBorrador_BORRADORES_ABIERTO"><path d="M274.33,575.02 C284.75,614.15 292.2882,642.4715 298.0182,664.0215" fill="none" id="consultarBorrador-to-BORRADORES_ABIERTO" style="stroke:#FF0000;stroke-width:1;"/><polygon fill="#FF0000" points="299.56,669.82,301.113,660.0944,298.2752,664.9879,293.3816,662.1501,299.56,669.82" style="stroke:#FF0000;stroke-width:1;"/><path d="M295,610 L295,635 L439,635 L439,620 L429,610 L295,610" fill="#FEFFDD" style="stroke:#181818;stroke-width:0.5;"/><path d="M429,610 L429,620 L439,620 L429,610" fill="#FEFFDD" style="stroke:#181818;stroke-width:0.5;"/><text fill="#000000" font-family="sans-serif" font-size="13" lengthAdjust="spacing" textLength="123.9316" x="301" y="627.0669">rechazarConsulta()</text></g><!--SRC=[ZPB1JiCm38RlUGfhN3QaYHUO9cri1mweKijjcf3N68YMnbMI8cs8ToSfOsjeGMjFTN___sSdRgzCZHOhqCgGFzG4DUj3_132UVG49HlNQ8zsoTQYP0leODIhZYSZ-102mlFTDmflK1QagImL6pIIVyHzMKvbKvEDeXLvr9hwcaTsFb6qaitj5gQRcrTBPBRJ-J-1XeCNcpZglYqK18wrAfN7ovZG6DXrsyZ8jbMSUWRi4u0_HkcbptRpGZbF5SxkTdFmN26GFcU3EoT9RXiEO4_Mu1gG7UyKiG-GyFNMU0rTRIdU4z08ohomhJ2IjSgs7e3UbMjGg-FbJuhrEpU12gTu5KVLK7I9Y-ekG7OMbqP_2j6_mTtaPPRdYrMMFo-M3-lyAHC9GibLhKEGlJ-PZ2VYCjQWioNPzLqNmyxXBD_mE6Zy1G00]--></g></svg>