<svg xmlns="http://www.w3.org/2000/svg" xmlns:xlink="http://www.w3.org/1999/xlink" contentStyleType="text/css" data-diagram-type="STATE" height="711px" preserveAspectRatio="none" style="width:368px;height:711px;background:#FFFFFF;" version="1.1" viewBox="0 0 368 711" width="368px" zoomAndPan="magnify"><defs/><g><path d="M19.5,7 L276.5,7 A12.5,12.5 0 0 1 289,19.5 L289,33.2969 L7,33.2969 L7,19.5 A12.5,12.5 0 0 1 19.5,7" fill="#F1F1F1"/><rect fill="none" height="553.2969" rx="12.5" ry="12.5" style="stroke:#181818;stroke-width:0.5;" width="282" x="7" y="7"/><line style="stroke:#181818;stroke-width:0.5;" x1="7" x2="289" y1="33.2969" y2="33.2969"/><text fill="#000000" font-family="sans-serif" font-size="14" lengthAdjust="spacing" textLength="107.6455" x="94.1772" y="24.9951">crearCasoUso()</text><g id="crearCasoUso.SolicitandoDatos"><rect fill="#F1F1F1" height="50" rx="12.5" ry="12.5" style="stroke:#181818;stroke-width:0.5;" width="50" x="19" y="135.2969"/><line style="stroke:#181818;stroke-width:0.5;" x1="19" x2="69" y1="161.5938" y2="161.5938"/><text fill="#000000" font-family="sans-serif" font-size="14" lengthAdjust="spacing" textLength="4.4502" x="41.7749" y="153.292">&#160;</text></g><g id="crearCasoUso.ValidandoDatos"><rect fill="#F1F1F1" height="50" rx="12.5" ry="12.5" style="stroke:#181818;stroke-width:0.5;" width="50" x="19" y="271.2969"/><line style="stroke:#181818;stroke-width:0.5;" x1="19" x2="69" y1="297.5938" y2="297.5938"/><text fill="#000000" font-family="sans-serif" font-size="14" lengthAdjust="spacing" textLength="4.4502" x="41.7749" y="289.292">&#160;</text></g><g id="crearCasoUso.RegistrandoCasoUso"><rect fill="#F1F1F1" height="50" rx="12.5" ry="12.5" style="stroke:#181818;stroke-width:0.5;" width="50" x="19" y="407.2969"/><line style="stroke:#181818;stroke-width:0.5;" x1="19" x2="69" y1="433.5938" y2="433.5938"/><text fill="#000000" font-family="sans-serif" font-size="14" lengthAdjust="spacing" textLength="4.4502" x="41.7749" y="425.292">&#160;</text></g><ellipse cx="44" cy="54.2969" fill="#222222" rx="10" ry="10" style="stroke:#222222;stroke-width:1;"/><ellipse cx="44" cy="539.2969" fill="none" rx="11" ry="11" style="stroke:#222222;stroke-width:1;"/><ellipse cx="44" cy="539.2969" fill="#222222" rx="6" ry="6" style="stroke:#222222;stroke-width:1;"/><!--link *start*crearCasoUso to SolicitandoDatos--><g class="link" data-entity-1=".start.crearCasoUso" data-entity-2="SolicitandoDatos" data-source-line="9" data-uid="lnk3" id="link_.start.crearCasoUso_SolicitandoDatos"><path d="M44,64.5269 C44,80.2369 44,106.6569 44,129.1669" fill="none" id="*start*crearCasoUso-to-SolicitandoDatos" style="stroke:#008000;stroke-width:1;"/><polygon fill="#008000" points="44,135.1669,48,126.1669,44,130.1669,40,126.1669,44,135.1669" style="stroke:#008000;stroke-width:1;"/><path d="M49,87.2969 L49,112.2969 L276,112.2969 L276,97.2969 L266,87.2969 L49,87.2969" fill="#FEFFDD" style="stroke:#181818;stroke-width:0.5;"/><path d="M266,87.2969 L266,97.2969 L276,97.2969 L266,87.2969" fill="#FEFFDD" style="stroke:#181818;stroke-width:0.5;"/><text fill="#000000" font-family="sans-serif" font-size="13" lengthAdjust="spacing" textLength="206.1528" x="55" y="104.3638">Se solicita crear un caso de uso</text></g><!--link SolicitandoDatos to ValidandoDatos--><g class="link" data-entity-1="SolicitandoDatos" data-entity-2="ValidandoDatos" data-source-line="14" data-uid="lnk4" id="link_SolicitandoDatos_ValidandoDatos"><path d="M44,185.5669 C44,209.8469 44,240.9869 44,265.2069" fill="none" id="SolicitandoDatos-to-ValidandoDatos" style="stroke:#008000;stroke-width:1;"/><polygon fill="#008000" points="44,271.2069,48,262.2069,44,266.2069,40,262.2069,44,271.2069" style="stroke:#008000;stroke-width:1;"/><path d="M49,208.2969 L49,248.2969 L270,248.2969 L270,218.2969 L260,208.2969 L49,208.2969" fill="#FEFFDD" style="stroke:#181818;stroke-width:0.5;"/><path d="M260,208.2969 L260,218.2969 L270,218.2969 L260,208.2969" fill="#FEFFDD" style="stroke:#181818;stroke-width:0.5;"/><text fill="#000000" font-family="sans-serif" font-size="13" font-weight="bold" lengthAdjust="spacing" textLength="58.9063" x="55" y="225.3638">Sistema</text><text fill="#000000" font-family="sans-serif" font-size="13" lengthAdjust="spacing" textLength="137.5029" x="118.0386" y="225.3638">recibe la informacion</text><text fill="#000000" font-family="sans-serif" font-size="13" lengthAdjust="spacing" textLength="152.7817" x="55" y="240.4966">introducida por el actor</text></g><!--link ValidandoDatos to RegistrandoCasoUso--><g class="link" data-entity-1="ValidandoDatos" data-entity-2="RegistrandoCasoUso" data-source-line="20" data-uid="lnk5" id="link_ValidandoDatos_RegistrandoCasoUso"><path d="M44,321.5669 C44,345.8469 44,376.9869 44,401.2069" fill="none" id="ValidandoDatos-to-RegistrandoCasoUso" style="stroke:#008000;stroke-width:1;"/><polygon fill="#008000" points="44,407.2069,48,398.2069,44,402.2069,40,398.2069,44,407.2069" style="stroke:#008000;stroke-width:1;"/><path d="M49,344.2969 L49,384.2969 L234,384.2969 L234,354.2969 L224,344.2969 L49,344.2969" fill="#FEFFDD" style="stroke:#181818;stroke-width:0.5;"/><path d="M224,344.2969 L224,354.2969 L234,354.2969 L224,344.2969" fill="#FEFFDD" style="stroke:#181818;stroke-width:0.5;"/><text fill="#000000" font-family="sans-serif" font-size="13" font-weight="bold" lengthAdjust="spacing" textLength="58.9063" x="55" y="361.3638">Sistema</text><text fill="#000000" font-family="sans-serif" font-size="13" lengthAdjust="spacing" textLength="101.7466" x="118.0386" y="361.3638">valida los datos</text><text fill="#000000" font-family="sans-serif" font-size="13" lengthAdjust="spacing" textLength="133.1992" x="55" y="376.4966">y prepara el registro</text></g><!--link RegistrandoCasoUso to *end*crearCasoUso--><g class="link" data-entity-1="RegistrandoCasoUso" data-entity-2=".end.crearCasoUso" data-source-line="26" data-uid="lnk7" id="link_RegistrandoCasoUso_.end.crearCasoUso"><path d="M44,457.3869 C44,479.7869 44,506.0669 44,522.2469" fill="none" id="RegistrandoCasoUso-to-*end*crearCasoUso" style="stroke:#008000;stroke-width:1;"/><polygon fill="#008000" points="44,528.2469,48,519.2469,44,523.2469,40,519.2469,44,528.2469" style="stroke:#008000;stroke-width:1;"/><path d="M49,480.2969 L49,505.2969 L280,505.2969 L280,490.2969 L270,480.2969 L49,480.2969" fill="#FEFFDD" style="stroke:#181818;stroke-width:0.5;"/><path d="M270,480.2969 L270,490.2969 L280,490.2969 L270,480.2969" fill="#FEFFDD" style="stroke:#181818;stroke-width:0.5;"/><text fill="#000000" font-family="sans-serif" font-size="13" font-weight="bold" lengthAdjust="spacing" textLength="58.9063" x="55" y="497.3638">Sistema</text><text fill="#000000" font-family="sans-serif" font-size="13" lengthAdjust="spacing" textLength="147.583" x="118.0386" y="497.3638">registra el caso de uso</text></g><g id="CASOS_USO_ABIERTO"><rect fill="#F1F1F1" height="50" rx="12.5" ry="12.5" style="stroke:#181818;stroke-width:0.5;" width="173.7539" x="61" y="655"/><line style="stroke:#181818;stroke-width:0.5;" x1="61" x2="234.7539" y1="681.2969" y2="681.2969"/><text fill="#000000" font-family="sans-serif" font-size="14" lengthAdjust="spacing" textLength="153.7539" x="71" y="672.9951">CASOS_USO_ABIERTO</text></g><!--link crearCasoUso to CASOS_USO_ABIERTO--><g class="link" data-entity-1="crearCasoUso" data-entity-2="CASOS_USO_ABIERTO" data-source-line="32" data-uid="lnk9" id="link_crearCasoUso_CASOS_USO_ABIERTO"><path d="M53.26,560.15 C46.93,578.58 43,590 43,590 C43,590 43,625 43,625 C43,625 67.7335,637.7273 95.6935,652.0973" fill="none" id="crearCasoUso-to-CASOS_USO_ABIERTO" style="stroke:#008000;stroke-width:1;"/><polygon fill="#008000" points="101.03,654.84,94.8538,647.1684,96.583,652.5544,91.1969,654.2836,101.03,654.84" style="stroke:#008000;stroke-width:1;"/><path d="M48,595 L48,620 L202,620 L202,605 L192,595 L48,595" fill="#FEFFDD" style="stroke:#181818;stroke-width:0.5;"/><path d="M192,595 L192,605 L202,605 L192,595" fill="#FEFFDD" style="stroke:#181818;stroke-width:0.5;"/><text fill="#000000" font-family="sans-serif" font-size="13" lengthAdjust="spacing" textLength="133.5166" x="54" y="612.0669">completarCreacion()</text></g><!--link crearCasoUso to CASOS_USO_ABIERTO--><g class="link" data-entity-1="crearCasoUso" data-entity-2="CASOS_USO_ABIERTO" data-source-line="37" data-uid="lnk10" id="link_crearCasoUso_CASOS_USO_ABIERTO"><path d="M204.84,560.15 C208.64,578.58 211,590 211,590 C211,590 211,625 211,625 C211,625 197.5173,636.5673 180.7373,650.9373" fill="none" id="crearCasoUso-to-CASOS_USO_ABIERTO-1" style="stroke:#FF0000;stroke-width:1;"/><polygon fill="#FF0000" points="176.18,654.84,185.6177,652.0241,179.9777,651.5877,180.4141,645.9477,176.18,654.84" style="stroke:#FF0000;stroke-width:1;"/><path d="M216,595 L216,620 L361,620 L361,605 L351,595 L216,595" fill="#FEFFDD" style="stroke:#181818;stroke-width:0.5;"/><path d="M351,595 L351,605 L361,605 L351,595" fill="#FEFFDD" style="stroke:#181818;stroke-width:0.5;"/><text fill="#000000" font-family="sans-serif" font-size="13" lengthAdjust="spacing" textLength="124.3125" x="222" y="612.0669">rechazarCreacion()</text></g><!--SRC=[ZPB1JW8n48RlVOe9Ni24-0A41D639n9Ml112XdR4XcwxcHOJDBwxqrsYBAo6xgdTlz__pqpZpleA6KjmrbCwL0HLS8UyKIecJ0IQ2NcACInY08pGEpte3thmgHJ8QjGz-KHK16UrJUXDUC0KugNY1Pqr__oVqzR6n5bnz6fibhSh62vljapaLyDnjvCF0We-5xMh3mg2U1Gs1S7UWnOk68AziBE8lAblDaRdu9PhH_eBpz5cN4W9LEBeRZC69cqt10x1-jV09MeRV2sqFd4mUor4wJu3EK2T0dU4Qlks8dKqx9fOxpKHdD3CJoq7g9ZokyXPk05tzUZIinL9PdLbQnfCTljpA5zAjPxYgT5qKioAzQAOhIVtJu_pvvbgMUfGLewIt1L0Rdj_e7uBEQSocIkOCiut_EX4VWC0]--></g></svg>