<svg xmlns="http://www.w3.org/2000/svg" xmlns:xlink="http://www.w3.org/1999/xlink" contentStyleType="text/css" data-diagram-type="STATE" height="560px" preserveAspectRatio="none" style="width:394px;height:560px;background:#FFFFFF;" version="1.1" viewBox="0 0 394 560" width="394px" zoomAndPan="magnify"><defs/><g><path d="M49,7 L310,7 A12.5,12.5 0 0 1 322.5,19.5 L322.5,33.2969 L36.5,33.2969 L36.5,19.5 A12.5,12.5 0 0 1 49,7" fill="#F1F1F1"/><rect fill="none" height="402.2969" rx="12.5" ry="12.5" style="stroke:#181818;stroke-width:0.5;" width="286" x="36.5" y="7"/><line style="stroke:#181818;stroke-width:0.5;" x1="36.5" x2="322.5" y1="33.2969" y2="33.2969"/><text fill="#000000" font-family="sans-serif" font-size="14" lengthAdjust="spacing" textLength="99.2031" x="129.8984" y="24.9951">cerrarSesion()</text><g id="cerrarSesion.SolicitandoCierre"><rect fill="#F1F1F1" height="50" rx="12.5" ry="12.5" style="stroke:#181818;stroke-width:0.5;" width="50" x="48.5" y="135.2969"/><line style="stroke:#181818;stroke-width:0.5;" x1="48.5" x2="98.5" y1="161.5938" y2="161.5938"/><text fill="#000000" font-family="sans-serif" font-size="14" lengthAdjust="spacing" textLength="4.4502" x="71.2749" y="153.292">&#160;</text></g><g id="cerrarSesion.CerrandoSesion"><rect fill="#F1F1F1" height="50" rx="12.5" ry="12.5" style="stroke:#181818;stroke-width:0.5;" width="50" x="48.5" y="256.2969"/><line style="stroke:#181818;stroke-width:0.5;" x1="48.5" x2="98.5" y1="282.5938" y2="282.5938"/><text fill="#000000" font-family="sans-serif" font-size="14" lengthAdjust="spacing" textLength="4.4502" x="71.2749" y="274.292">&#160;</text></g><ellipse cx="73.5" cy="54.2969" fill="#222222" rx="10" ry="10" style="stroke:#222222;stroke-width:1;"/><ellipse cx="73.5" cy="388.2969" fill="none" rx="11" ry="11" style="stroke:#222222;stroke-width:1;"/><ellipse cx="73.5" cy="388.2969" fill="#222222" rx="6" ry="6" style="stroke:#222222;stroke-width:1;"/><!--link *start*cerrarSesion to SolicitandoCierre--><g class="link" data-entity-1=".start.cerrarSesion" data-entity-2="SolicitandoCierre" data-source-line="8" data-uid="lnk3" id="link_.start.cerrarSesion_SolicitandoCierre"><path d="M73.5,64.5269 C73.5,80.2369 73.5,106.6569 73.5,129.1669" fill="none" id="*start*cerrarSesion-to-SolicitandoCierre" style="stroke:#008000;stroke-width:1;"/><polygon fill="#008000" points="73.5,135.1669,77.5,126.1669,73.5,130.1669,69.5,126.1669,73.5,135.1669" style="stroke:#008000;stroke-width:1;"/><path d="M78.5,87.2969 L78.5,112.2969 L253.5,112.2969 L253.5,97.2969 L243.5,87.2969 L78.5,87.2969" fill="#FEFFDD" style="stroke:#181818;stroke-width:0.5;"/><path d="M243.5,87.2969 L243.5,97.2969 L253.5,97.2969 L243.5,87.2969" fill="#FEFFDD" style="stroke:#181818;stroke-width:0.5;"/><text fill="#000000" font-family="sans-serif" font-size="13" lengthAdjust="spacing" textLength="154.9146" x="84.5" y="104.3638">Se solicita cerrar sesion</text></g><!--link SolicitandoCierre to CerrandoSesion--><g class="link" data-entity-1="SolicitandoCierre" data-entity-2="CerrandoSesion" data-source-line="13" data-uid="lnk4" id="link_SolicitandoCierre_CerrandoSesion"><path d="M73.5,185.3769 C73.5,206.0269 73.5,229.6169 73.5,250.2469" fill="none" id="SolicitandoCierre-to-CerrandoSesion" style="stroke:#008000;stroke-width:1;"/><polygon fill="#008000" points="73.5,256.2469,77.5,247.2469,73.5,251.2469,69.5,247.2469,73.5,256.2469" style="stroke:#008000;stroke-width:1;"/><path d="M78.5,208.2969 L78.5,233.2969 L313.5,233.2969 L313.5,218.2969 L303.5,208.2969 L78.5,208.2969" fill="#FEFFDD" style="stroke:#181818;stroke-width:0.5;"/><path d="M303.5,208.2969 L303.5,218.2969 L313.5,218.2969 L303.5,208.2969" fill="#FEFFDD" style="stroke:#181818;stroke-width:0.5;"/><text fill="#000000" font-family="sans-serif" font-size="13" font-weight="bold" lengthAdjust="spacing" textLength="58.9063" x="84.5" y="225.3638">Sistema</text><text fill="#000000" font-family="sans-serif" font-size="13" lengthAdjust="spacing" textLength="151.2139" x="147.5386" y="225.3638">finaliza la sesion activa</text></g><!--link CerrandoSesion to *end*cerrarSesion--><g class="link" data-entity-1="CerrandoSesion" data-entity-2=".end.cerrarSesion" data-source-line="18" data-uid="lnk6" id="link_CerrandoSesion_.end.cerrarSesion"><path d="M73.5,306.3869 C73.5,328.7869 73.5,355.0669 73.5,371.2469" fill="none" id="CerrandoSesion-to-*end*cerrarSesion" style="stroke:#008000;stroke-width:1;"/><polygon fill="#008000" points="73.5,377.2469,77.5,368.2469,73.5,372.2469,69.5,368.2469,73.5,377.2469" style="stroke:#008000;stroke-width:1;"/><path d="M78.5,329.2969 L78.5,354.2969 L311.5,354.2969 L311.5,339.2969 L301.5,329.2969 L78.5,329.2969" fill="#FEFFDD" style="stroke:#181818;stroke-width:0.5;"/><path d="M301.5,329.2969 L301.5,339.2969 L311.5,339.2969 L301.5,329.2969" fill="#FEFFDD" style="stroke:#181818;stroke-width:0.5;"/><text fill="#000000" font-family="sans-serif" font-size="13" font-weight="bold" lengthAdjust="spacing" textLength="58.9063" x="84.5" y="346.3638">Sistema</text><text fill="#000000" font-family="sans-serif" font-size="13" lengthAdjust="spacing" textLength="149.0493" x="147.5386" y="346.3638">vuelve al estado inicial</text></g><g id="SISTEMA_CERRADO"><rect fill="#F1F1F1" height="50" rx="12.5" ry="12.5" style="stroke:#181818;stroke-width:0.5;" width="157.4092" x="7" y="504"/><line style="stroke:#181818;stroke-width:0.5;" x1="7" x2="164.4092" y1="530.2969" y2="530.2969"/><text fill="#000000" font-family="sans-serif" font-size="14" lengthAdjust="spacing" textLength="137.4092" x="17" y="521.9951">SISTEMA_CERRADO</text></g><g id="SISTEMA_ABIERTO"><rect fill="#F1F1F1" height="50" rx="12.5" ry="12.5" style="stroke:#181818;stroke-width:0.5;" width="149.4111" x="199" y="504"/><line style="stroke:#181818;stroke-width:0.5;" x1="199" x2="348.4111" y1="530.2969" y2="530.2969"/><text fill="#000000" font-family="sans-serif" font-size="14" lengthAdjust="spacing" textLength="129.4111" x="209" y="521.9951">SISTEMA_ABIERTO</text></g><!--link cerrarSesion to SISTEMA_CERRADO--><g class="link" data-entity-1="cerrarSesion" data-entity-2="SISTEMA_CERRADO" data-source-line="24" data-uid="lnk8" id="link_cerrarSesion_SISTEMA_CERRADO"><path d="M96.73,409.4 C89.29,427.4 84.5,439 84.5,439 C84.5,439 84.5,474 84.5,474 C84.5,474 84.6815,483.471 84.9415,497.841" fill="none" id="cerrarSesion-to-SISTEMA_CERRADO" style="stroke:#008000;stroke-width:1;"/><polygon fill="#008000" points="85.05,503.84,88.8865,494.7691,84.9595,498.8408,80.8878,494.9138,85.05,503.84" style="stroke:#008000;stroke-width:1;"/><path d="M89.5,444 L89.5,469 L225.5,469 L225.5,454 L215.5,444 L89.5,444" fill="#FEFFDD" style="stroke:#181818;stroke-width:0.5;"/><path d="M215.5,444 L215.5,454 L225.5,454 L215.5,444" fill="#FEFFDD" style="stroke:#181818;stroke-width:0.5;"/><text fill="#000000" font-family="sans-serif" font-size="13" lengthAdjust="spacing" textLength="115.5527" x="95.5" y="461.0669">completarCierre()</text></g><!--link cerrarSesion to SISTEMA_ABIERTO--><g class="link" data-entity-1="cerrarSesion" data-entity-2="SISTEMA_ABIERTO" data-source-line="29" data-uid="lnk10" id="link_cerrarSesion_SISTEMA_ABIERTO"><path d="M238.5,409.22 C249.71,447.27 258.2536,476.2548 264.7236,498.2048" fill="none" id="cerrarSesion-to-SISTEMA_ABIERTO" style="stroke:#FF0000;stroke-width:1;"/><polygon fill="#FF0000" points="266.42,503.96,267.7122,494.1963,265.0063,499.164,260.0386,496.4582,266.42,503.96" style="stroke:#FF0000;stroke-width:1;"/><path d="M260.5,444 L260.5,469 L387.5,469 L387.5,454 L377.5,444 L260.5,444" fill="#FEFFDD" style="stroke:#181818;stroke-width:0.5;"/><path d="M377.5,444 L377.5,454 L387.5,454 L377.5,444" fill="#FEFFDD" style="stroke:#181818;stroke-width:0.5;"/><text fill="#000000" font-family="sans-serif" font-size="13" lengthAdjust="spacing" textLength="106.3486" x="266.5" y="461.0669">rechazarCierre()</text></g><!--SRC=[ZP71QiCm38RlVWgHNTf1sGkKG9RbqCCO9BsLCjH4sqmTEzXUe1rxzobrO7MQmU9JxD_V9ydkA7M75bjGKfC_TGITKQVXHmZdqHFKP2tQYfmq6j11ShsnM2Rm9GJm5z89BmvLHibQUjIDoINdwJQI3nW-3w30sDtlORMxUxT4UhzA_y1emnGkXgiyNZOg0ZScntB11UfmIhgvN0cA6sGad1GrQriVqaewJosk7mufl4cDIfuH58vMmDhB7cVaCJuoS-l_qlMVf7e2L40ypiQ0rDmFgjZsBKJqRj5GDzMsUCvUyw8iiwSN4HbhqtQAFDemdCLI_7Om9LfghddPuwOejnEUfVe3ppEu7m00]--></g></svg>