<svg xmlns="http://www.w3.org/2000/svg" xmlns:xlink="http://www.w3.org/1999/xlink" contentStyleType="text/css" data-diagram-type="STATE" height="708px" preserveAspectRatio="none" style="width:654px;height:708px;background:#FFFFFF;" version="1.1" viewBox="0 0 654 708" width="654px" zoomAndPan="magnify"><title>Diagrama de estados - Borrador</title><defs/><g><g class="title" data-source-line="1"><text fill="#000000" font-family="sans-serif" font-size="14" font-weight="bold" lengthAdjust="spacing" textLength="253.1279" x="190.6394" y="22.9951">Diagrama de estados - Borrador</text></g><path d="M19.5,44.2969 L628.9067,44.2969 A12.5,12.5 0 0 1 641.4067,56.7969 L641.4067,70.5938 L7,70.5938 L7,56.7969 A12.5,12.5 0 0 1 19.5,44.2969" fill="#F1F1F1"/><rect fill="none" height="658.2969" rx="12.5" ry="12.5" style="stroke:#181818;stroke-width:0.5;" width="634.4067" x="7" y="44.2969"/><line style="stroke:#181818;stroke-width:0.5;" x1="7" x2="641.4067" y1="70.5938" y2="70.5938"/><text fill="#000000" font-family="sans-serif" font-size="14" lengthAdjust="spacing" textLength="61.4688" x="293.469" y="62.292">Borrador</text><ellipse cx="345" cy="91.5938" fill="#222222" rx="10" ry="10" style="stroke:#222222;stroke-width:1;"/><g id="Borrador.Generado"><rect fill="#F1F1F1" height="50" rx="12.5" ry="12.5" style="stroke:#181818;stroke-width:0.5;" width="88.7354" x="300.5" y="138.5938"/><line style="stroke:#181818;stroke-width:0.5;" x1="300.5" x2="389.2354" y1="164.8906" y2="164.8906"/><text fill="#000000" font-family="sans-serif" font-size="14" lengthAdjust="spacing" textLength="68.7354" x="310.5" y="156.5889">Generado</text></g><g id="Borrador.PendienteRevision"><rect fill="#F1F1F1" height="50" rx="12.5" ry="12.5" style="stroke:#181818;stroke-width:0.5;" width="149.4316" x="270.5" y="241.5938"/><line style="stroke:#181818;stroke-width:0.5;" x1="270.5" x2="419.9316" y1="267.8906" y2="267.8906"/><text fill="#000000" font-family="sans-serif" font-size="14" lengthAdjust="spacing" textLength="129.4316" x="280.5" y="259.5889">PendienteRevision</text></g><g id="Borrador.EnRevision"><rect fill="#F1F1F1" height="50" rx="12.5" ry="12.5" style="stroke:#181818;stroke-width:0.5;" width="96.8564" x="195.5" y="344.5938"/><line style="stroke:#181818;stroke-width:0.5;" x1="195.5" x2="292.3564" y1="370.8906" y2="370.8906"/><text fill="#000000" font-family="sans-serif" font-size="14" lengthAdjust="spacing" textLength="76.8564" x="205.5" y="362.5889">EnRevision</text></g><g id="Borrador.ConFeedback"><rect fill="#F1F1F1" height="50" rx="12.5" ry="12.5" style="stroke:#181818;stroke-width:0.5;" width="114.6504" x="291.5" y="447.5938"/><line style="stroke:#181818;stroke-width:0.5;" x1="291.5" x2="406.1504" y1="473.8906" y2="473.8906"/><text fill="#000000" font-family="sans-serif" font-size="14" lengthAdjust="spacing" textLength="94.6504" x="301.5" y="465.5889">ConFeedback</text></g><g id="Borrador.Regenerado"><rect fill="#F1F1F1" height="50" rx="12.5" ry="12.5" style="stroke:#181818;stroke-width:0.5;" width="105.1143" x="366.5" y="583.5938"/><line style="stroke:#181818;stroke-width:0.5;" x1="366.5" x2="471.6143" y1="609.8906" y2="609.8906"/><text fill="#000000" font-family="sans-serif" font-size="14" lengthAdjust="spacing" textLength="85.1143" x="376.5" y="601.5889">Regenerado</text></g><g id="Borrador.Aprobado"><rect fill="#F1F1F1" height="50" rx="12.5" ry="12.5" style="stroke:#181818;stroke-width:0.5;" width="87.7031" x="19" y="515.5938"/><line style="stroke:#181818;stroke-width:0.5;" x1="19" x2="106.7031" y1="541.8906" y2="541.8906"/><text fill="#000000" font-family="sans-serif" font-size="14" lengthAdjust="spacing" textLength="67.7031" x="29" y="533.5889">Aprobado</text></g><g id="Borrador.Rechazado"><rect fill="#F1F1F1" height="50" rx="12.5" ry="12.5" style="stroke:#181818;stroke-width:0.5;" width="96.8701" x="135.5" y="447.5938"/><line style="stroke:#181818;stroke-width:0.5;" x1="135.5" x2="232.3701" y1="473.8906" y2="473.8906"/><text fill="#000000" font-family="sans-serif" font-size="14" lengthAdjust="spacing" textLength="76.8701" x="145.5" y="465.5889">Rechazado</text></g><g id="Borrador.Eliminado"><rect fill="#F1F1F1" height="50" rx="12.5" ry="12.5" style="stroke:#181818;stroke-width:0.5;" width="89.0566" x="129.5" y="583.5938"/><line style="stroke:#181818;stroke-width:0.5;" x1="129.5" x2="218.5566" y1="609.8906" y2="609.8906"/><text fill="#000000" font-family="sans-serif" font-size="14" lengthAdjust="spacing" textLength="69.0566" x="139.5" y="601.5889">Eliminado</text></g><ellipse cx="109" cy="681.5938" fill="none" rx="11" ry="11" style="stroke:#222222;stroke-width:1;"/><ellipse cx="109" cy="681.5938" fill="#222222" rx="6" ry="6" style="stroke:#222222;stroke-width:1;"/><!--link *start*Borrador to Generado--><g class="link" data-entity-1=".start.Borrador" data-entity-2="Generado" data-source-line="5" data-uid="lnk4" id="link_.start.Borrador_Generado"><path d="M345,101.7437 C345,111.0137 345,119.7337 345,132.3737" fill="none" id="*start*Borrador-to-Generado" style="stroke:#181818;stroke-width:1;"/><polygon fill="#181818" points="345,138.3737,349,129.3737,345,133.3737,341,129.3737,345,138.3737" style="stroke:#181818;stroke-width:1;"/></g><!--link Generado to PendienteRevision--><g class="link" data-entity-1="Generado" data-entity-2="PendienteRevision" data-source-line="6" data-uid="lnk6" id="link_Generado_PendienteRevision"><path d="M345,188.7838 C345,204.6638 345,219.3438 345,235.2538" fill="none" id="Generado-to-PendienteRevision" style="stroke:#181818;stroke-width:1;"/><polygon fill="#181818" points="345,241.2538,349,232.2538,345,236.2538,341,232.2538,345,241.2538" style="stroke:#181818;stroke-width:1;"/><text fill="#000000" font-family="sans-serif" font-size="13" lengthAdjust="spacing" textLength="101.0229" x="346" y="219.6606">crearBorrador()</text></g><!--link PendienteRevision to EnRevision--><g class="link" data-entity-1="PendienteRevision" data-entity-2="EnRevision" data-source-line="7" data-uid="lnk8" id="link_PendienteRevision_EnRevision"><path d="M320.81,291.7838 C304.93,307.6638 288.4926,324.1011 272.5826,340.0111" fill="none" id="PendienteRevision-to-EnRevision" style="stroke:#181818;stroke-width:1;"/><polygon fill="#181818" points="268.34,344.2538,277.5324,340.7182,271.8755,340.7182,271.8755,335.0614,268.34,344.2538" style="stroke:#181818;stroke-width:1;"/><text fill="#000000" font-family="sans-serif" font-size="13" lengthAdjust="spacing" textLength="97.7412" x="301" y="322.6606">abrirBorrador()</text></g><!--link EnRevision to ConFeedback--><g class="link" data-entity-1="EnRevision" data-entity-2="ConFeedback" data-source-line="8" data-uid="lnk10" id="link_EnRevision_ConFeedback"><path d="M292.76,387.2338 C305.59,393.5338 318.49,401.8538 328,412.5938 C336.58,422.2838 340.199,429.9098 343.239,441.5098" fill="none" id="EnRevision-to-ConFeedback" style="stroke:#181818;stroke-width:1;"/><polygon fill="#181818" points="344.76,447.3138,346.3478,437.5937,343.4925,442.4771,338.6091,439.6218,344.76,447.3138" style="stroke:#181818;stroke-width:1;"/><text fill="#000000" font-family="sans-serif" font-size="13" lengthAdjust="spacing" textLength="114.1436" x="339" y="425.6606">anadirFeedback()</text></g><!--link ConFeedback to Regenerado--><g class="link" data-entity-1="ConFeedback" data-entity-2="Regenerado" data-source-line="9" data-uid="lnk12" id="link_ConFeedback_Regenerado"><path d="M343.14,497.9338 C339.8,517.5138 338.31,545.0438 350,565.5938 C354.02,572.6637 355.0544,574.9739 361.5244,580.0639" fill="none" id="ConFeedback-to-Regenerado" style="stroke:#181818;stroke-width:1;"/><polygon fill="#181818" points="366.24,583.7738,361.6398,575.0653,362.3103,580.6822,356.6933,581.3528,366.24,583.7738" style="stroke:#181818;stroke-width:1;"/><text fill="#000000" font-family="sans-serif" font-size="13" lengthAdjust="spacing" textLength="123.4429" x="351" y="545.1606">regenerarVersion()</text></g><!--link Regenerado to PendienteRevision--><g class="link" data-entity-1="Regenerado" data-entity-2="PendienteRevision" data-source-line="10" data-uid="lnk13" id="link_Regenerado_PendienteRevision"><path d="M460.93,583.4038 C466.61,578.2738 471.63,572.3338 475,565.5938 C505.6,504.3938 479.98,477.3837 458,412.5938 C441.33,363.4438 437.11,348.7038 403,309.5938 C397.36,303.1338 395.3012,300.758 388.3512,295.398" fill="none" id="Regenerado-to-PendienteRevision" style="stroke:#181818;stroke-width:1;"/><polygon fill="#181818" points="383.6,291.7338,388.2839,300.3975,387.5593,294.7873,393.1696,294.0626,383.6,291.7338" style="stroke:#181818;stroke-width:1;"/><text fill="#000000" font-family="sans-serif" font-size="13" lengthAdjust="spacing" textLength="167.4067" x="464" y="425.6606">nuevaVersionDisponible()</text></g><!--link EnRevision to Aprobado--><g class="link" data-entity-1="EnRevision" data-entity-2="Aprobado" data-source-line="11" data-uid="lnk15" id="link_EnRevision_Aprobado"><path d="M195.42,376.0738 C150.29,382.2438 87.76,393.9238 72,412.5938 C47.91,441.1438 50.5762,481.4499 55.9362,509.5599" fill="none" id="EnRevision-to-Aprobado" style="stroke:#181818;stroke-width:1;"/><polygon fill="#181818" points="57.06,515.4538,59.3035,505.8638,56.1235,510.5422,51.445,507.3623,57.06,515.4538" style="stroke:#181818;stroke-width:1;"/><text fill="#000000" font-family="sans-serif" font-size="13" lengthAdjust="spacing" textLength="116.9937" x="73" y="425.6606">aceptarBorrador()</text></g><!--link EnRevision to Rechazado--><g class="link" data-entity-1="EnRevision" data-entity-2="Rechazado" data-source-line="12" data-uid="lnk17" id="link_EnRevision_Rechazado"><path d="M216.02,394.6338 C210.82,400.1238 205.82,406.2238 202,412.5938 C195.61,423.2438 192.7652,430.5329 189.9752,441.6929" fill="none" id="EnRevision-to-Rechazado" style="stroke:#181818;stroke-width:1;"/><polygon fill="#181818" points="188.52,447.5137,194.5834,439.7526,189.7327,442.663,186.8223,437.8123,188.52,447.5137" style="stroke:#181818;stroke-width:1;"/><text fill="#000000" font-family="sans-serif" font-size="13" lengthAdjust="spacing" textLength="124.0522" x="203" y="425.6606">rechazarBorrador()</text></g><!--link Rechazado to Eliminado--><g class="link" data-entity-1="Rechazado" data-entity-2="Eliminado" data-source-line="13" data-uid="lnk19" id="link_Rechazado_Eliminado"><path d="M182.19,497.8638 C180.38,522.1438 178.0571,553.3004 176.2471,577.5204" fill="none" id="Rechazado-to-Eliminado" style="stroke:#181818;stroke-width:1;"/><polygon fill="#181818" points="175.8,583.5038,180.4596,574.8269,176.1726,578.5177,172.4818,574.2307,175.8,583.5038" style="stroke:#181818;stroke-width:1;"/><text fill="#000000" font-family="sans-serif" font-size="13" lengthAdjust="spacing" textLength="120.269" x="181" y="545.1606">eliminarBorrador()</text></g><!--link Aprobado to *end*Borrador--><g class="link" data-entity-1="Aprobado" data-entity-2=".end.Borrador" data-source-line="14" data-uid="lnk21" id="link_Aprobado_.end.Borrador"><path d="M71.01,565.8038 C81.31,596.9137 96.8146,643.7777 103.9346,665.2877" fill="none" id="Aprobado-to-*end*Borrador" style="stroke:#181818;stroke-width:1;"/><polygon fill="#181818" points="105.82,670.9838,106.7892,661.1827,104.2488,666.237,99.1945,663.6966,105.82,670.9838" style="stroke:#181818;stroke-width:1;"/></g><!--link Eliminado to *end*Borrador--><g class="link" data-entity-1="Eliminado" data-entity-2=".end.Borrador" data-source-line="15" data-uid="lnk22" id="link_Eliminado_.end.Borrador"><path d="M151.99,633.6338 C139.47,647.3138 128.6716,659.1083 120.1116,668.4583" fill="none" id="Eliminado-to-*end*Borrador" style="stroke:#181818;stroke-width:1;"/><polygon fill="#181818" points="116.06,672.8838,125.0877,668.9466,119.4363,669.1959,119.187,663.5445,116.06,672.8838" style="stroke:#181818;stroke-width:1;"/></g><!--SRC=[VP4nJmCn38Nt_0gh4o3T7-Y011IweXjO48FlxgbON9sJ4pg0-EyaTqqRgOBDUUzxiPr4YIDe8xmptZCD88J8Wm_KqBqtIwKvvv8MGQkYh8Z3oQPlzthpHarpIrieikPACQlFq46W4IqE4iGhhQati9KRhgxT9PEJZrf5k3Ef8vMPsGUlJy3GSV-HOUL1h0Y9hksCjzYL6TTanuEzmFA5YQ_yltRGJnpucDX8cBnAD-9oihl9VBSquXvJv7-sQD6_yrUPQgvh-cpFppFANdI1iTGrVEgRsVH5ximNvUSN]--></g></svg>