<svg xmlns="http://www.w3.org/2000/svg" xmlns:xlink="http://www.w3.org/1999/xlink" contentStyleType="text/css" data-diagram-type="CLASS" height="828px" preserveAspectRatio="none" style="width:663px;height:828px;background:#FFFFFF;" version="1.1" viewBox="0 0 663 828" width="663px" zoomAndPan="magnify"><defs/><g><!--cluster Diagrama de Clases--><g class="cluster" data-entity="Diagrama de Clases" data-source-line="3" data-uid="ent0002" id="cluster_Diagrama de Clases"><rect fill="none" height="815" rx="2.5" ry="2.5" style="stroke:#181818;stroke-width:1;" width="414" x="7" y="7"/><text fill="#000000" font-family="sans-serif" font-size="14" font-weight="bold" lengthAdjust="spacing" textLength="156.2217" x="135.8892" y="21.9951">Diagrama de Clases</text></g><!--class Documentacion--><g class="entity" data-entity="Documentacion" data-source-line="4" data-uid="ent0003" id="entity_Documentacion"><rect fill="#F1F1F1" height="145.7813" rx="2.5" ry="2.5" style="stroke:#181818;stroke-width:0.5;" width="172.5488" x="231.5" y="264"/><ellipse cx="260.1868" cy="280" fill="#ADD1B2" rx="11" ry="11" style="stroke:#181818;stroke-width:1;"/><path d="M263.1555,285.6406 Q262.5774,285.9375 261.9368,286.0781 Q261.2961,286.2344 260.593,286.2344 Q258.093,286.2344 256.7649,284.5938 Q255.4524,282.9375 255.4524,279.8125 Q255.4524,276.6875 256.7649,275.0313 Q258.093,273.375 260.593,273.375 Q261.2961,273.375 261.9368,273.5313 Q262.593,273.6875 263.1555,273.9844 L263.1555,276.7031 Q262.5305,276.125 261.9368,275.8594 Q261.343,275.5781 260.718,275.5781 Q259.3743,275.5781 258.6868,276.6563 Q257.9993,277.7188 257.9993,279.8125 Q257.9993,281.9063 258.6868,282.9844 Q259.3743,284.0469 260.718,284.0469 Q261.343,284.0469 261.9368,283.7813 Q262.5305,283.5 263.1555,282.9219 L263.1555,285.6406 Z " fill="#000000"/><text fill="#000000" font-family="sans-serif" font-size="14" lengthAdjust="spacing" textLength="110.1338" x="277.2283" y="284.8467">Documentacion</text><line style="stroke:#181818;stroke-width:0.5;" x1="232.5" x2="403.0488" y1="296" y2="296"/><ellipse cx="242.5" cy="309.6484" fill="none" rx="3" ry="3" style="stroke:#038048;stroke-width:1;"/><text fill="#000000" font-family="sans-serif" font-size="14" lengthAdjust="spacing" textLength="57.3467" x="251.5" y="312.9951">id: UUID</text><ellipse cx="242.5" cy="325.9453" fill="none" rx="3" ry="3" style="stroke:#038048;stroke-width:1;"/><text fill="#000000" font-family="sans-serif" font-size="14" lengthAdjust="spacing" textLength="87.1445" x="251.5" y="329.292">titulo: String</text><ellipse cx="242.5" cy="342.2422" fill="none" rx="3" ry="3" style="stroke:#038048;stroke-width:1;"/><text fill="#000000" font-family="sans-serif" font-size="14" lengthAdjust="spacing" textLength="77.7793" x="251.5" y="345.5889">tipo: String</text><ellipse cx="242.5" cy="358.5391" fill="none" rx="3" ry="3" style="stroke:#038048;stroke-width:1;"/><text fill="#000000" font-family="sans-serif" font-size="14" lengthAdjust="spacing" textLength="109.5596" x="251.5" y="361.8857">contenido: Text</text><ellipse cx="242.5" cy="374.8359" fill="none" rx="3" ry="3" style="stroke:#038048;stroke-width:1;"/><text fill="#000000" font-family="sans-serif" font-size="14" lengthAdjust="spacing" textLength="102.2246" x="251.5" y="378.1826">version: String</text><ellipse cx="242.5" cy="391.1328" fill="none" rx="3" ry="3" style="stroke:#038048;stroke-width:1;"/><text fill="#000000" font-family="sans-serif" font-size="14" lengthAdjust="spacing" textLength="146.5488" x="251.5" y="394.4795">project_name: String</text><line style="stroke:#181818;stroke-width:0.5;" x1="232.5" x2="403.0488" y1="401.7813" y2="401.7813"/></g><!--class CasoDeUso--><g class="entity" data-entity="CasoDeUso" data-source-line="13" data-uid="ent0004" id="entity_CasoDeUso"><rect fill="#F1F1F1" height="113.1875" rx="2.5" ry="2.5" style="stroke:#181818;stroke-width:0.5;" width="172.5488" x="136.5" y="503"/><ellipse cx="178.8757" cy="519" fill="#ADD1B2" rx="11" ry="11" style="stroke:#181818;stroke-width:1;"/><path d="M181.8445,524.6406 Q181.2664,524.9375 180.6257,525.0781 Q179.9851,525.2344 179.282,525.2344 Q176.782,525.2344 175.4539,523.5938 Q174.1414,521.9375 174.1414,518.8125 Q174.1414,515.6875 175.4539,514.0313 Q176.782,512.375 179.282,512.375 Q179.9851,512.375 180.6257,512.5313 Q181.282,512.6875 181.8445,512.9844 L181.8445,515.7031 Q181.2195,515.125 180.6257,514.8594 Q180.032,514.5781 179.407,514.5781 Q178.0632,514.5781 177.3757,515.6563 Q176.6882,516.7188 176.6882,518.8125 Q176.6882,520.9063 177.3757,521.9844 Q178.0632,523.0469 179.407,523.0469 Q180.032,523.0469 180.6257,522.7813 Q181.2195,522.5 181.8445,521.9219 L181.8445,524.6406 Z " fill="#000000"/><text fill="#000000" font-family="sans-serif" font-size="14" lengthAdjust="spacing" textLength="79.7139" x="198.9592" y="523.8467">CasoDeUso</text><line style="stroke:#181818;stroke-width:0.5;" x1="137.5" x2="308.0488" y1="535" y2="535"/><ellipse cx="147.5" cy="548.6484" fill="none" rx="3" ry="3" style="stroke:#038048;stroke-width:1;"/><text fill="#000000" font-family="sans-serif" font-size="14" lengthAdjust="spacing" textLength="63.7246" x="156.5" y="551.9951">id: String</text><ellipse cx="147.5" cy="564.9453" fill="none" rx="3" ry="3" style="stroke:#038048;stroke-width:1;"/><text fill="#000000" font-family="sans-serif" font-size="14" lengthAdjust="spacing" textLength="105.2803" x="156.5" y="568.292">nombre: String</text><ellipse cx="147.5" cy="581.2422" fill="none" rx="3" ry="3" style="stroke:#038048;stroke-width:1;"/><text fill="#000000" font-family="sans-serif" font-size="14" lengthAdjust="spacing" textLength="120.1553" x="156.5" y="584.5889">descripcion: Text</text><ellipse cx="147.5" cy="597.5391" fill="none" rx="3" ry="3" style="stroke:#038048;stroke-width:1;"/><text fill="#000000" font-family="sans-serif" font-size="14" lengthAdjust="spacing" textLength="146.5488" x="156.5" y="600.8857">project_name: String</text><line style="stroke:#181818;stroke-width:0.5;" x1="137.5" x2="308.0488" y1="608.1875" y2="608.1875"/></g><!--class RequisitoFuncional--><g class="entity" data-entity="RequisitoFuncional" data-source-line="20" data-uid="ent0005" id="entity_RequisitoFuncional"><rect fill="#F1F1F1" height="113.1875" rx="2.5" ry="2.5" style="stroke:#181818;stroke-width:0.5;" width="172.5488" x="136.5" y="693"/><ellipse cx="155.1123" cy="709" fill="#ADD1B2" rx="11" ry="11" style="stroke:#181818;stroke-width:1;"/><path d="M158.0811,714.6406 Q157.5029,714.9375 156.8623,715.0781 Q156.2217,715.2344 155.5186,715.2344 Q153.0186,715.2344 151.6904,713.5938 Q150.3779,711.9375 150.3779,708.8125 Q150.3779,705.6875 151.6904,704.0313 Q153.0186,702.375 155.5186,702.375 Q156.2217,702.375 156.8623,702.5313 Q157.5186,702.6875 158.0811,702.9844 L158.0811,705.7031 Q157.4561,705.125 156.8623,704.8594 Q156.2686,704.5781 155.6436,704.5781 Q154.2998,704.5781 153.6123,705.6563 Q152.9248,706.7188 152.9248,708.8125 Q152.9248,710.9063 153.6123,711.9844 Q154.2998,713.0469 155.6436,713.0469 Q156.2686,713.0469 156.8623,712.7813 Q157.4561,712.5 158.0811,711.9219 L158.0811,714.6406 Z " fill="#000000"/><text fill="#000000" font-family="sans-serif" font-size="14" lengthAdjust="spacing" textLength="132.5215" x="169.915" y="713.8467">RequisitoFuncional</text><line style="stroke:#181818;stroke-width:0.5;" x1="137.5" x2="308.0488" y1="725" y2="725"/><ellipse cx="147.5" cy="738.6484" fill="none" rx="3" ry="3" style="stroke:#038048;stroke-width:1;"/><text fill="#000000" font-family="sans-serif" font-size="14" lengthAdjust="spacing" textLength="63.7246" x="156.5" y="741.9951">id: String</text><ellipse cx="147.5" cy="754.9453" fill="none" rx="3" ry="3" style="stroke:#038048;stroke-width:1;"/><text fill="#000000" font-family="sans-serif" font-size="14" lengthAdjust="spacing" textLength="120.1553" x="156.5" y="758.292">descripcion: Text</text><ellipse cx="147.5" cy="771.2422" fill="none" rx="3" ry="3" style="stroke:#038048;stroke-width:1;"/><text fill="#000000" font-family="sans-serif" font-size="14" lengthAdjust="spacing" textLength="123.6416" x="156.5" y="774.5889">citaOrigen: String</text><ellipse cx="147.5" cy="787.5391" fill="none" rx="3" ry="3" style="stroke:#038048;stroke-width:1;"/><text fill="#000000" font-family="sans-serif" font-size="14" lengthAdjust="spacing" textLength="146.5488" x="156.5" y="790.8857">project_name: String</text><line style="stroke:#181818;stroke-width:0.5;" x1="137.5" x2="308.0488" y1="798.1875" y2="798.1875"/></g><!--class EscenarioPrueba--><g class="entity" data-entity="EscenarioPrueba" data-source-line="27" data-uid="ent0006" id="entity_EscenarioPrueba"><rect fill="#F1F1F1" height="178.375" rx="2.5" ry="2.5" style="stroke:#181818;stroke-width:0.5;" width="172.5488" x="23.5" y="248"/><ellipse cx="48.9783" cy="264" fill="#ADD1B2" rx="11" ry="11" style="stroke:#181818;stroke-width:1;"/><path d="M51.9471,269.6406 Q51.3689,269.9375 50.7283,270.0781 Q50.0877,270.2344 49.3846,270.2344 Q46.8846,270.2344 45.5564,268.5938 Q44.2439,266.9375 44.2439,263.8125 Q44.2439,260.6875 45.5564,259.0313 Q46.8846,257.375 49.3846,257.375 Q50.0877,257.375 50.7283,257.5313 Q51.3846,257.6875 51.9471,257.9844 L51.9471,260.7031 Q51.3221,260.125 50.7283,259.8594 Q50.1346,259.5781 49.5096,259.5781 Q48.1658,259.5781 47.4783,260.6563 Q46.7908,261.7188 46.7908,263.8125 Q46.7908,265.9063 47.4783,266.9844 Q48.1658,268.0469 49.5096,268.0469 Q50.1346,268.0469 50.7283,267.7813 Q51.3221,267.5 51.9471,266.9219 L51.9471,269.6406 Z " fill="#000000"/><text fill="#000000" font-family="sans-serif" font-size="14" lengthAdjust="spacing" textLength="117.2637" x="65.3068" y="268.8467">EscenarioPrueba</text><line style="stroke:#181818;stroke-width:0.5;" x1="24.5" x2="195.0488" y1="280" y2="280"/><ellipse cx="34.5" cy="293.6484" fill="none" rx="3" ry="3" style="stroke:#038048;stroke-width:1;"/><text fill="#000000" font-family="sans-serif" font-size="14" lengthAdjust="spacing" textLength="57.3467" x="43.5" y="296.9951">id: UUID</text><ellipse cx="34.5" cy="309.9453" fill="none" rx="3" ry="3" style="stroke:#038048;stroke-width:1;"/><text fill="#000000" font-family="sans-serif" font-size="14" lengthAdjust="spacing" textLength="105.2803" x="43.5" y="313.292">nombre: String</text><ellipse cx="34.5" cy="326.2422" fill="none" rx="3" ry="3" style="stroke:#038048;stroke-width:1;"/><text fill="#000000" font-family="sans-serif" font-size="14" lengthAdjust="spacing" textLength="120.1553" x="43.5" y="329.5889">descripcion: Text</text><ellipse cx="34.5" cy="342.5391" fill="none" rx="3" ry="3" style="stroke:#038048;stroke-width:1;"/><text fill="#000000" font-family="sans-serif" font-size="14" lengthAdjust="spacing" textLength="93.1055" x="43.5" y="345.8857">gherkin: Text</text><ellipse cx="34.5" cy="358.8359" fill="none" rx="3" ry="3" style="stroke:#038048;stroke-width:1;"/><text fill="#000000" font-family="sans-serif" font-size="14" lengthAdjust="spacing" textLength="98.376" x="43.5" y="362.1826">estado: String</text><ellipse cx="34.5" cy="375.1328" fill="none" rx="3" ry="3" style="stroke:#038048;stroke-width:1;"/><text fill="#000000" font-family="sans-serif" font-size="14" lengthAdjust="spacing" textLength="102.2246" x="43.5" y="378.4795">version: String</text><ellipse cx="34.5" cy="391.4297" fill="none" rx="3" ry="3" style="stroke:#038048;stroke-width:1;"/><text fill="#000000" font-family="sans-serif" font-size="14" lengthAdjust="spacing" textLength="104.4189" x="43.5" y="394.7764">feedback: Text</text><ellipse cx="34.5" cy="407.7266" fill="none" rx="3" ry="3" style="stroke:#038048;stroke-width:1;"/><text fill="#000000" font-family="sans-serif" font-size="14" lengthAdjust="spacing" textLength="146.5488" x="43.5" y="411.0732">project_name: String</text><line style="stroke:#181818;stroke-width:0.5;" x1="24.5" x2="195.0488" y1="418.375" y2="418.375"/></g><!--class CasoPrueba--><g class="entity" data-entity="CasoPrueba" data-source-line="38" data-uid="ent0007" id="entity_CasoPrueba"><rect fill="#F1F1F1" height="129.4844" rx="2.5" ry="2.5" style="stroke:#181818;stroke-width:0.5;" width="172.5488" x="127.5" y="42"/><ellipse cx="168.2331" cy="58" fill="#ADD1B2" rx="11" ry="11" style="stroke:#181818;stroke-width:1;"/><path d="M171.2018,63.6406 Q170.6237,63.9375 169.9831,64.0781 Q169.3424,64.2344 168.6393,64.2344 Q166.1393,64.2344 164.8112,62.5938 Q163.4987,60.9375 163.4987,57.8125 Q163.4987,54.6875 164.8112,53.0313 Q166.1393,51.375 168.6393,51.375 Q169.3424,51.375 169.9831,51.5313 Q170.6393,51.6875 171.2018,51.9844 L171.2018,54.7031 Q170.5768,54.125 169.9831,53.8594 Q169.3893,53.5781 168.7643,53.5781 Q167.4206,53.5781 166.7331,54.6563 Q166.0456,55.7188 166.0456,57.8125 Q166.0456,59.9063 166.7331,60.9844 Q167.4206,62.0469 168.7643,62.0469 Q169.3893,62.0469 169.9831,61.7813 Q170.5768,61.5 171.2018,60.9219 L171.2018,63.6406 Z " fill="#000000"/><text fill="#000000" font-family="sans-serif" font-size="14" lengthAdjust="spacing" textLength="83.3643" x="187.9515" y="62.8467">CasoPrueba</text><line style="stroke:#181818;stroke-width:0.5;" x1="128.5" x2="299.0488" y1="74" y2="74"/><ellipse cx="138.5" cy="87.6484" fill="none" rx="3" ry="3" style="stroke:#038048;stroke-width:1;"/><text fill="#000000" font-family="sans-serif" font-size="14" lengthAdjust="spacing" textLength="57.3467" x="147.5" y="90.9951">id: UUID</text><ellipse cx="138.5" cy="103.9453" fill="none" rx="3" ry="3" style="stroke:#038048;stroke-width:1;"/><text fill="#000000" font-family="sans-serif" font-size="14" lengthAdjust="spacing" textLength="112.6084" x="147.5" y="107.292">resumen: String</text><ellipse cx="138.5" cy="120.2422" fill="none" rx="3" ry="3" style="stroke:#038048;stroke-width:1;"/><text fill="#000000" font-family="sans-serif" font-size="14" lengthAdjust="spacing" textLength="120.1553" x="147.5" y="123.5889">descripcion: Text</text><ellipse cx="138.5" cy="136.5391" fill="none" rx="3" ry="3" style="stroke:#038048;stroke-width:1;"/><text fill="#000000" font-family="sans-serif" font-size="14" lengthAdjust="spacing" textLength="98.376" x="147.5" y="139.8857">estado: String</text><ellipse cx="138.5" cy="152.8359" fill="none" rx="3" ry="3" style="stroke:#038048;stroke-width:1;"/><text fill="#000000" font-family="sans-serif" font-size="14" lengthAdjust="spacing" textLength="146.5488" x="147.5" y="156.1826">project_name: String</text><line style="stroke:#181818;stroke-width:0.5;" x1="128.5" x2="299.0488" y1="163.4844" y2="163.4844"/></g><!--class KiwiTCMS--><g class="entity" data-entity="KiwiTCMS" data-source-line="47" data-uid="ent0008" id="entity_KiwiTCMS"><rect fill="#F1F1F1" height="56.2656" rx="2.5" ry="2.5" style="stroke:#181818;stroke-width:0.5;" width="216.4023" x="440" y="309"/><ellipse cx="455" cy="329.1328" fill="#ADD1B2" rx="11" ry="11" style="stroke:#181818;stroke-width:1;"/><path d="M457.9688,334.7734 Q457.3906,335.0703 456.75,335.2109 Q456.1094,335.3672 455.4063,335.3672 Q452.9063,335.3672 451.5781,333.7266 Q450.2656,332.0703 450.2656,328.9453 Q450.2656,325.8203 451.5781,324.1641 Q452.9063,322.5078 455.4063,322.5078 Q456.1094,322.5078 456.75,322.6641 Q457.4063,322.8203 457.9688,323.1172 L457.9688,325.8359 Q457.3438,325.2578 456.75,324.9922 Q456.1563,324.7109 455.5313,324.7109 Q454.1875,324.7109 453.5,325.7891 Q452.8125,326.8516 452.8125,328.9453 Q452.8125,331.0391 453.5,332.1172 Q454.1875,333.1797 455.5313,333.1797 Q456.1563,333.1797 456.75,332.9141 Q457.3438,332.6328 457.9688,332.0547 L457.9688,334.7734 Z " fill="#000000"/><text fill="#000000" font-family="sans-serif" font-size="12" font-style="italic" lengthAdjust="spacing" textLength="188.4023" x="467" y="325.1387">&#171;sistema externo participante&#187;</text><text fill="#000000" font-family="sans-serif" font-size="14" lengthAdjust="spacing" textLength="67.7031" x="527.3496" y="340.9639">KiwiTCMS</text><line style="stroke:#181818;stroke-width:0.5;" x1="441" x2="655.4023" y1="349.2656" y2="349.2656"/><line style="stroke:#181818;stroke-width:0.5;" x1="441" x2="655.4023" y1="357.2656" y2="357.2656"/></g><!--reverse link Documentacion to CasoDeUso--><g class="link" data-entity-1="Documentacion" data-entity-2="CasoDeUso" data-source-line="49" data-uid="lnk9" id="link_Documentacion_CasoDeUso"><path codeLine="49" d="M282.1436,421.2214 C269.1636,451.3614 259.06,474.81 246.94,502.93" fill="none" id="Documentacion-backto-CasoDeUso" style="stroke:#181818;stroke-width:1;"/><polygon fill="none" points="286.89,410.2,280.843,414.1286,282.1436,421.2214,288.1906,417.2928,286.89,410.2" style="stroke:#181818;stroke-width:1;"/></g><!--reverse link Documentacion to RequisitoFuncional--><g class="link" data-entity-1="Documentacion" data-entity-2="RequisitoFuncional" data-source-line="50" data-uid="lnk10" id="link_Documentacion_RequisitoFuncional"><path codeLine="50" d="M336.1475,421.9143 C345.7875,479.3143 350.15,549.02 327,616 C317.26,644.19 298.77,670.95 280.05,692.95" fill="none" id="Documentacion-backto-RequisitoFuncional" style="stroke:#181818;stroke-width:1;"/><polygon fill="none" points="334.16,410.08,331.209,416.6596,336.1475,421.9143,339.0985,415.3346,334.16,410.08" style="stroke:#181818;stroke-width:1;"/></g><!--link CasoDeUso to RequisitoFuncional--><g class="link" data-entity-1="CasoDeUso" data-entity-2="RequisitoFuncional" data-source-line="51" data-uid="lnk11" id="link_CasoDeUso_RequisitoFuncional"><path codeLine="51" d="M223,616.14 C223,640.4 223,668.76 223,693" fill="none" id="CasoDeUso-RequisitoFuncional" style="stroke:#181818;stroke-width:1;"/><text fill="#000000" font-family="sans-serif" font-size="13" lengthAdjust="spacing" textLength="41.4185" x="224" y="659.0669">asocia</text></g><!--link EscenarioPrueba to CasoDeUso--><g class="link" data-entity-1="EscenarioPrueba" data-entity-2="CasoDeUso" data-source-line="52" data-uid="lnk12" id="link_EscenarioPrueba_CasoDeUso"><path codeLine="52" d="M155.15,426.1 C168.43,452.01 179.8445,474.2799 191.7645,497.5499" fill="none" id="EscenarioPrueba-to-CasoDeUso" style="stroke:#181818;stroke-width:1;"/><polygon fill="#181818" points="194.5,502.89,193.9569,493.0561,192.2204,498.4399,186.8367,496.7034,194.5,502.89" style="stroke:#181818;stroke-width:1;"/><text fill="#000000" font-family="sans-serif" font-size="13" lengthAdjust="spacing" textLength="47.9502" x="177" y="469.0669">verifica</text></g><!--link EscenarioPrueba to RequisitoFuncional--><g class="link" data-entity-1="EscenarioPrueba" data-entity-2="RequisitoFuncional" data-source-line="53" data-uid="lnk13" id="link_EscenarioPrueba_RequisitoFuncional"><path codeLine="53" d="M78.94,426.29 C64.28,482.72 55.03,556.25 81,616 C93.9,645.69 112.5858,667.7875 136.5358,688.7575" fill="none" id="EscenarioPrueba-to-RequisitoFuncional" style="stroke:#181818;stroke-width:1;"/><polygon fill="#181818" points="141.05,692.71,136.9137,683.7718,137.2882,689.4163,131.6437,689.7907,141.05,692.71" style="stroke:#181818;stroke-width:1;"/><text fill="#000000" font-family="sans-serif" font-size="13" lengthAdjust="spacing" textLength="36.9814" x="82" y="564.0669">cubre</text></g><!--reverse link CasoPrueba to EscenarioPrueba--><g class="link" data-entity-1="CasoPrueba" data-entity-2="EscenarioPrueba" data-source-line="54" data-uid="lnk14" id="link_CasoPrueba_EscenarioPrueba"><path codeLine="54" d="M180.0585,182.0717 C169.2385,205.8417 161.73,222.35 150.08,247.93" fill="none" id="CasoPrueba-backto-EscenarioPrueba" style="stroke:#181818;stroke-width:1;"/><polygon fill="none" points="185.03,171.15,178.9037,174.9537,180.0585,182.0717,186.1848,178.268,185.03,171.15" style="stroke:#181818;stroke-width:1;"/></g><!--link CasoPrueba to KiwiTCMS--><g class="link" data-entity-1="CasoPrueba" data-entity-2="KiwiTCMS" data-source-line="55" data-uid="lnk15" id="link_CasoPrueba_KiwiTCMS"><path codeLine="55" d="M300.74,166.1 C337.84,191.24 381.6,220.98 421,248 C450.64,268.33 479.1229,288.066 504.2329,305.516" fill="none" id="CasoPrueba-to-KiwiTCMS" style="stroke:#181818;stroke-width:1;"/><polygon fill="#181818" points="509.16,308.94,504.0521,300.5192,505.0541,306.0866,499.4867,307.0887,509.16,308.94" style="stroke:#181818;stroke-width:1;"/><text fill="#000000" font-family="sans-serif" font-size="13" lengthAdjust="spacing" textLength="156.4951" x="376" y="214.0669">publicar / sincronizar en</text></g><!--SRC=[bPB1JiCm38RlUGfhLpHnhwPTLf0GGY2sdP6RUiMiZKlY0WBnxgIRsBhI0RiblntxY_shrA02cQXA1JbxiihYZ6aFw8gIO9Go5XuhX9nWLcAWC88F0s3ZEK0gjgd8AThuRgC3d76Um79vbMvlojgKai1SFRlYMwjxYXMdv3YFyeBUT2k-a0-nxc5cxUKfuZquhAWJ-JGxg1a6IMaPf0lKBU6aoZmTQZa5wxcsctvxXB-xtTDpmu5LBXlNliRoMDiZBImhtdekwEIFNWHB3ZtBdMyem-7vd_3Puf7ycWya2efvRrU3QraHvHdQzMd3QrVr6xodqFhhN_H3g4S98iEMu9fVUJ6xcSDa4ZWeHQV7YkITG8rUsNADqPhJgJ67PfVnUE-qWTXFNvYzCGVZa41Ci8oclzZnUDfnTG9n0xnYEvmuMDWsqGIcC-uMiVUw6suBxKQJGDraPUpduHm2E-l5yNkyaVi2]--></g></svg>