<svg xmlns="http://www.w3.org/2000/svg" xmlns:xlink="http://www.w3.org/1999/xlink" contentStyleType="text/css" data-diagram-type="CLASS" height="1149px" preserveAspectRatio="none" style="width:624px;height:1149px;background:#FFFFFF;" version="1.1" viewBox="0 0 624 1149" width="624px" zoomAndPan="magnify"><defs/><g><!--cluster Sistema--><g class="cluster" data-entity="Sistema" data-source-line="1" data-uid="ent0002" id="cluster_Sistema"><path d="M8.5,6 L72.9375,6 A3.75,3.75 0 0 1 75.4375,8.5 L82.4375,28.2969 L499.5,28.2969 A2.5,2.5 0 0 1 502,30.7969 L502,1139.5 A2.5,2.5 0 0 1 499.5,1142 L8.5,1142 A2.5,2.5 0 0 1 6,1139.5 L6,8.5 A2.5,2.5 0 0 1 8.5,6" fill="none" style="stroke:#000000;stroke-width:1.5;"/><line style="stroke:#000000;stroke-width:1.5;" x1="6" x2="82.4375" y1="28.2969" y2="28.2969"/><text fill="#000000" font-family="sans-serif" font-size="14" font-weight="bold" lengthAdjust="spacing" textLength="63.4375" x="10" y="20.9951">Sistema</text></g><!--class Documentacion--><g class="entity" data-entity="Documentacion" data-source-line="3" data-uid="ent0003" id="entity_Documentacion"><rect fill="#F1F1F1" height="129.4844" rx="2.5" ry="2.5" style="stroke:#181818;stroke-width:0.5;" width="199.8584" x="286" y="568"/><ellipse cx="326.9761" cy="584" fill="#ADD1B2" rx="11" ry="11" style="stroke:#181818;stroke-width:1;"/><path d="M329.9448,589.6406 Q329.3667,589.9375 328.7261,590.0781 Q328.0854,590.2344 327.3823,590.2344 Q324.8823,590.2344 323.5542,588.5938 Q322.2417,586.9375 322.2417,583.8125 Q322.2417,580.6875 323.5542,579.0313 Q324.8823,577.375 327.3823,577.375 Q328.0854,577.375 328.7261,577.5313 Q329.3823,577.6875 329.9448,577.9844 L329.9448,580.7031 Q329.3198,580.125 328.7261,579.8594 Q328.1323,579.5781 327.5073,579.5781 Q326.1636,579.5781 325.4761,580.6563 Q324.7886,581.7188 324.7886,583.8125 Q324.7886,585.9063 325.4761,586.9844 Q326.1636,588.0469 327.5073,588.0469 Q328.1323,588.0469 328.7261,587.7813 Q329.3198,587.5 329.9448,586.9219 L329.9448,589.6406 Z " fill="#000000"/><text fill="#000000" font-family="sans-serif" font-size="14" lengthAdjust="spacing" textLength="110.1338" x="346.7485" y="588.8467">Documentacion</text><line style="stroke:#181818;stroke-width:0.5;" x1="287" x2="484.8584" y1="600" y2="600"/><ellipse cx="297" cy="613.6484" fill="none" rx="3" ry="3" style="stroke:#038048;stroke-width:1;"/><text fill="#000000" font-family="sans-serif" font-size="14" lengthAdjust="spacing" textLength="173.8584" x="306" y="616.9951">idDocumentacion: String</text><ellipse cx="297" cy="629.9453" fill="none" rx="3" ry="3" style="stroke:#038048;stroke-width:1;"/><text fill="#000000" font-family="sans-serif" font-size="14" lengthAdjust="spacing" textLength="132.7881" x="306" y="633.292">tipoEntrada: String</text><ellipse cx="297" cy="646.2422" fill="none" rx="3" ry="3" style="stroke:#038048;stroke-width:1;"/><text fill="#000000" font-family="sans-serif" font-size="14" lengthAdjust="spacing" textLength="109.5596" x="306" y="649.5889">contenido: Text</text><ellipse cx="297" cy="662.5391" fill="none" rx="3" ry="3" style="stroke:#038048;stroke-width:1;"/><text fill="#000000" font-family="sans-serif" font-size="14" lengthAdjust="spacing" textLength="122.2676" x="306" y="665.8857">referencia: String</text><ellipse cx="297" cy="678.8359" fill="none" rx="3" ry="3" style="stroke:#038048;stroke-width:1;"/><text fill="#000000" font-family="sans-serif" font-size="14" lengthAdjust="spacing" textLength="139.542" x="306" y="682.1826">fechaRegistro: Date</text><line style="stroke:#181818;stroke-width:0.5;" x1="287" x2="484.8584" y1="689.4844" y2="689.4844"/></g><!--class CasoDeUso--><g class="entity" data-entity="CasoDeUso" data-source-line="11" data-uid="ent0004" id="entity_CasoDeUso"><rect fill="#F1F1F1" height="145.7813" rx="2.5" ry="2.5" style="stroke:#181818;stroke-width:0.5;" width="192.7832" x="176.5" y="774"/><ellipse cx="228.7847" cy="790" fill="#ADD1B2" rx="11" ry="11" style="stroke:#181818;stroke-width:1;"/><path d="M231.7534,795.6406 Q231.1753,795.9375 230.5347,796.0781 Q229.894,796.2344 229.1909,796.2344 Q226.6909,796.2344 225.3628,794.5938 Q224.0503,792.9375 224.0503,789.8125 Q224.0503,786.6875 225.3628,785.0313 Q226.6909,783.375 229.1909,783.375 Q229.894,783.375 230.5347,783.5313 Q231.1909,783.6875 231.7534,783.9844 L231.7534,786.7031 Q231.1284,786.125 230.5347,785.8594 Q229.9409,785.5781 229.3159,785.5781 Q227.9722,785.5781 227.2847,786.6563 Q226.5972,787.7188 226.5972,789.8125 Q226.5972,791.9063 227.2847,792.9844 Q227.9722,794.0469 229.3159,794.0469 Q229.9409,794.0469 230.5347,793.7813 Q231.1284,793.5 231.7534,792.9219 L231.7534,795.6406 Z " fill="#000000"/><text fill="#000000" font-family="sans-serif" font-size="14" lengthAdjust="spacing" textLength="79.7139" x="249.2847" y="794.8467">CasoDeUso</text><line style="stroke:#181818;stroke-width:0.5;" x1="177.5" x2="368.2832" y1="806" y2="806"/><ellipse cx="187.5" cy="819.6484" fill="none" rx="3" ry="3" style="stroke:#038048;stroke-width:1;"/><text fill="#000000" font-family="sans-serif" font-size="14" lengthAdjust="spacing" textLength="83.7471" x="196.5" y="822.9951">idUC: String</text><ellipse cx="187.5" cy="835.9453" fill="none" rx="3" ry="3" style="stroke:#038048;stroke-width:1;"/><text fill="#000000" font-family="sans-serif" font-size="14" lengthAdjust="spacing" textLength="105.2803" x="196.5" y="839.292">nombre: String</text><ellipse cx="187.5" cy="852.2422" fill="none" rx="3" ry="3" style="stroke:#038048;stroke-width:1;"/><text fill="#000000" font-family="sans-serif" font-size="14" lengthAdjust="spacing" textLength="120.1553" x="196.5" y="855.5889">descripcion: Text</text><ellipse cx="187.5" cy="868.5391" fill="none" rx="3" ry="3" style="stroke:#038048;stroke-width:1;"/><text fill="#000000" font-family="sans-serif" font-size="14" lengthAdjust="spacing" textLength="166.7832" x="196.5" y="871.8857">trazabilidadLiteral: Text</text><ellipse cx="187.5" cy="884.8359" fill="none" rx="3" ry="3" style="stroke:#038048;stroke-width:1;"/><text fill="#000000" font-family="sans-serif" font-size="14" lengthAdjust="spacing" textLength="98.376" x="196.5" y="888.1826">estado: String</text><ellipse cx="187.5" cy="901.1328" fill="none" rx="3" ry="3" style="stroke:#038048;stroke-width:1;"/><text fill="#000000" font-family="sans-serif" font-size="14" lengthAdjust="spacing" textLength="110.8037" x="196.5" y="904.4795">version: Integer</text><line style="stroke:#181818;stroke-width:0.5;" x1="177.5" x2="368.2832" y1="911.7813" y2="911.7813"/></g><!--class RequisitoFuncional--><g class="entity" data-entity="RequisitoFuncional" data-source-line="20" data-uid="ent0005" id="entity_RequisitoFuncional"><rect fill="#F1F1F1" height="129.4844" rx="2.5" ry="2.5" style="stroke:#181818;stroke-width:0.5;" width="192.7832" x="176.5" y="997"/><ellipse cx="204.2178" cy="1013" fill="#ADD1B2" rx="11" ry="11" style="stroke:#181818;stroke-width:1;"/><path d="M207.1865,1018.6406 Q206.6084,1018.9375 205.9678,1019.0781 Q205.3271,1019.2344 204.624,1019.2344 Q202.124,1019.2344 200.7959,1017.5938 Q199.4834,1015.9375 199.4834,1012.8125 Q199.4834,1009.6875 200.7959,1008.0313 Q202.124,1006.375 204.624,1006.375 Q205.3271,1006.375 205.9678,1006.5313 Q206.624,1006.6875 207.1865,1006.9844 L207.1865,1009.7031 Q206.5615,1009.125 205.9678,1008.8594 Q205.374,1008.5781 204.749,1008.5781 Q203.4053,1008.5781 202.7178,1009.6563 Q202.0303,1010.7188 202.0303,1012.8125 Q202.0303,1014.9063 202.7178,1015.9844 Q203.4053,1017.0469 204.749,1017.0469 Q205.374,1017.0469 205.9678,1016.7813 Q206.5615,1016.5 207.1865,1015.9219 L207.1865,1018.6406 Z " fill="#000000"/><text fill="#000000" font-family="sans-serif" font-size="14" lengthAdjust="spacing" textLength="132.5215" x="221.0439" y="1017.8467">RequisitoFuncional</text><line style="stroke:#181818;stroke-width:0.5;" x1="177.5" x2="368.2832" y1="1029" y2="1029"/><ellipse cx="187.5" cy="1042.6484" fill="none" rx="3" ry="3" style="stroke:#038048;stroke-width:1;"/><text fill="#000000" font-family="sans-serif" font-size="14" lengthAdjust="spacing" textLength="81.5049" x="196.5" y="1045.9951">idRF: String</text><ellipse cx="187.5" cy="1058.9453" fill="none" rx="3" ry="3" style="stroke:#038048;stroke-width:1;"/><text fill="#000000" font-family="sans-serif" font-size="14" lengthAdjust="spacing" textLength="120.1553" x="196.5" y="1062.292">descripcion: Text</text><ellipse cx="187.5" cy="1075.2422" fill="none" rx="3" ry="3" style="stroke:#038048;stroke-width:1;"/><text fill="#000000" font-family="sans-serif" font-size="14" lengthAdjust="spacing" textLength="166.7832" x="196.5" y="1078.5889">trazabilidadLiteral: Text</text><ellipse cx="187.5" cy="1091.5391" fill="none" rx="3" ry="3" style="stroke:#038048;stroke-width:1;"/><text fill="#000000" font-family="sans-serif" font-size="14" lengthAdjust="spacing" textLength="98.376" x="196.5" y="1094.8857">estado: String</text><ellipse cx="187.5" cy="1107.8359" fill="none" rx="3" ry="3" style="stroke:#038048;stroke-width:1;"/><text fill="#000000" font-family="sans-serif" font-size="14" lengthAdjust="spacing" textLength="110.8037" x="196.5" y="1111.1826">version: Integer</text><line style="stroke:#181818;stroke-width:0.5;" x1="177.5" x2="368.2832" y1="1118.4844" y2="1118.4844"/></g><!--class EscenarioGherkin--><g class="entity" data-entity="EscenarioGherkin" data-source-line="28" data-uid="ent0006" id="entity_EscenarioGherkin"><rect fill="#F1F1F1" height="129.4844" rx="2.5" ry="2.5" style="stroke:#181818;stroke-width:0.5;" width="157.8379" x="93" y="568"/><ellipse cx="109.2437" cy="584" fill="#ADD1B2" rx="11" ry="11" style="stroke:#181818;stroke-width:1;"/><path d="M112.2124,589.6406 Q111.6343,589.9375 110.9937,590.0781 Q110.353,590.2344 109.6499,590.2344 Q107.1499,590.2344 105.8218,588.5938 Q104.5093,586.9375 104.5093,583.8125 Q104.5093,580.6875 105.8218,579.0313 Q107.1499,577.375 109.6499,577.375 Q110.353,577.375 110.9937,577.5313 Q111.6499,577.6875 112.2124,577.9844 L112.2124,580.7031 Q111.5874,580.125 110.9937,579.8594 Q110.3999,579.5781 109.7749,579.5781 Q108.4312,579.5781 107.7437,580.6563 Q107.0562,581.7188 107.0562,583.8125 Q107.0562,585.9063 107.7437,586.9844 Q108.4312,588.0469 109.7749,588.0469 Q110.3999,588.0469 110.9937,587.7813 Q111.5874,587.5 112.2124,586.9219 L112.2124,589.6406 Z " fill="#000000"/><text fill="#000000" font-family="sans-serif" font-size="14" lengthAdjust="spacing" textLength="123.0742" x="123.52" y="588.8467">EscenarioGherkin</text><line style="stroke:#181818;stroke-width:0.5;" x1="94" x2="249.8379" y1="600" y2="600"/><ellipse cx="104" cy="613.6484" fill="none" rx="3" ry="3" style="stroke:#038048;stroke-width:1;"/><text fill="#000000" font-family="sans-serif" font-size="14" lengthAdjust="spacing" textLength="131.8379" x="113" y="616.9951">idEscenario: String</text><ellipse cx="104" cy="629.9453" fill="none" rx="3" ry="3" style="stroke:#038048;stroke-width:1;"/><text fill="#000000" font-family="sans-serif" font-size="14" lengthAdjust="spacing" textLength="87.1445" x="113" y="633.292">titulo: String</text><ellipse cx="104" cy="646.2422" fill="none" rx="3" ry="3" style="stroke:#038048;stroke-width:1;"/><text fill="#000000" font-family="sans-serif" font-size="14" lengthAdjust="spacing" textLength="78.6543" x="113" y="649.5889">given: Text</text><ellipse cx="104" cy="662.5391" fill="none" rx="3" ry="3" style="stroke:#038048;stroke-width:1;"/><text fill="#000000" font-family="sans-serif" font-size="14" lengthAdjust="spacing" textLength="77.916" x="113" y="665.8857">when: Text</text><ellipse cx="104" cy="678.8359" fill="none" rx="3" ry="3" style="stroke:#038048;stroke-width:1;"/><text fill="#000000" font-family="sans-serif" font-size="14" lengthAdjust="spacing" textLength="71.9551" x="113" y="682.1826">then: Text</text><line style="stroke:#181818;stroke-width:0.5;" x1="94" x2="249.8379" y1="689.4844" y2="689.4844"/></g><!--class Borrador--><g class="entity" data-entity="Borrador" data-source-line="36" data-uid="ent0007" id="entity_Borrador"><rect fill="#F1F1F1" height="227.2656" rx="2.5" ry="2.5" style="stroke:#181818;stroke-width:0.5;" width="200.2686" x="147" y="264"/><ellipse cx="212.1499" cy="280" fill="#ADD1B2" rx="11" ry="11" style="stroke:#181818;stroke-width:1;"/><path d="M215.1187,285.6406 Q214.5405,285.9375 213.8999,286.0781 Q213.2593,286.2344 212.5562,286.2344 Q210.0562,286.2344 208.728,284.5938 Q207.4155,282.9375 207.4155,279.8125 Q207.4155,276.6875 208.728,275.0313 Q210.0562,273.375 212.5562,273.375 Q213.2593,273.375 213.8999,273.5313 Q214.5562,273.6875 215.1187,273.9844 L215.1187,276.7031 Q214.4937,276.125 213.8999,275.8594 Q213.3062,275.5781 212.6812,275.5781 Q211.3374,275.5781 210.6499,276.6563 Q209.9624,277.7188 209.9624,279.8125 Q209.9624,281.9063 210.6499,282.9844 Q211.3374,284.0469 212.6812,284.0469 Q213.3062,284.0469 213.8999,283.7813 Q214.4937,283.5 215.1187,282.9219 L215.1187,285.6406 Z " fill="#000000"/><text fill="#000000" font-family="sans-serif" font-size="14" lengthAdjust="spacing" textLength="61.4688" x="232.6499" y="284.8467">Borrador</text><line style="stroke:#181818;stroke-width:0.5;" x1="148" x2="346.2686" y1="296" y2="296"/><ellipse cx="158" cy="309.6484" fill="none" rx="3" ry="3" style="stroke:#038048;stroke-width:1;"/><text fill="#000000" font-family="sans-serif" font-size="14" lengthAdjust="spacing" textLength="125.1934" x="167" y="312.9951">idBorrador: String</text><ellipse cx="158" cy="325.9453" fill="none" rx="3" ry="3" style="stroke:#038048;stroke-width:1;"/><text fill="#000000" font-family="sans-serif" font-size="14" lengthAdjust="spacing" textLength="112.6084" x="167" y="329.292">resumen: String</text><ellipse cx="158" cy="342.2422" fill="none" rx="3" ry="3" style="stroke:#038048;stroke-width:1;"/><text fill="#000000" font-family="sans-serif" font-size="14" lengthAdjust="spacing" textLength="117.0039" x="167" y="345.5889">categoria: String</text><ellipse cx="158" cy="358.5391" fill="none" rx="3" ry="3" style="stroke:#038048;stroke-width:1;"/><text fill="#000000" font-family="sans-serif" font-size="14" lengthAdjust="spacing" textLength="124.0449" x="167" y="361.8857">gherkinText: Text</text><ellipse cx="158" cy="374.8359" fill="none" rx="3" ry="3" style="stroke:#038048;stroke-width:1;"/><text fill="#000000" font-family="sans-serif" font-size="14" lengthAdjust="spacing" textLength="98.376" x="167" y="378.1826">estado: String</text><ellipse cx="158" cy="391.1328" fill="none" rx="3" ry="3" style="stroke:#038048;stroke-width:1;"/><text fill="#000000" font-family="sans-serif" font-size="14" lengthAdjust="spacing" textLength="154.9092" x="167" y="394.4795">versionActual: Integer</text><ellipse cx="158" cy="407.4297" fill="none" rx="3" ry="3" style="stroke:#038048;stroke-width:1;"/><text fill="#000000" font-family="sans-serif" font-size="14" lengthAdjust="spacing" textLength="97.9521" x="167" y="410.7764">feedback: List</text><ellipse cx="158" cy="423.7266" fill="none" rx="3" ry="3" style="stroke:#038048;stroke-width:1;"/><text fill="#000000" font-family="sans-serif" font-size="14" lengthAdjust="spacing" textLength="143.0693" x="167" y="427.0732">fechaCreacion: Date</text><ellipse cx="158" cy="440.0234" fill="none" rx="3" ry="3" style="stroke:#038048;stroke-width:1;"/><text fill="#000000" font-family="sans-serif" font-size="14" lengthAdjust="spacing" textLength="174.2686" x="167" y="443.3701">fechaActualizacion: Date</text><ellipse cx="158" cy="456.3203" fill="none" rx="3" ry="3" style="stroke:#038048;stroke-width:1;"/><text fill="#000000" font-family="sans-serif" font-size="14" lengthAdjust="spacing" textLength="141.1484" x="167" y="459.667">projectName: String</text><ellipse cx="158" cy="472.6172" fill="none" rx="3" ry="3" style="stroke:#038048;stroke-width:1;"/><text fill="#000000" font-family="sans-serif" font-size="14" lengthAdjust="spacing" textLength="160.2617" x="167" y="475.9639">sourceDocuments: List</text><line style="stroke:#181818;stroke-width:0.5;" x1="148" x2="346.2686" y1="483.2656" y2="483.2656"/></g><!--class CasoPrueba--><g class="entity" data-entity="CasoPrueba" data-source-line="50" data-uid="ent0008" id="entity_CasoPrueba"><rect fill="#F1F1F1" height="145.7813" rx="2.5" ry="2.5" style="stroke:#181818;stroke-width:0.5;" width="143.0107" x="326.5" y="41"/><ellipse cx="353.9409" cy="57" fill="#ADD1B2" rx="11" ry="11" style="stroke:#181818;stroke-width:1;"/><path d="M356.9097,62.6406 Q356.3315,62.9375 355.6909,63.0781 Q355.0503,63.2344 354.3472,63.2344 Q351.8472,63.2344 350.519,61.5938 Q349.2065,59.9375 349.2065,56.8125 Q349.2065,53.6875 350.519,52.0313 Q351.8472,50.375 354.3472,50.375 Q355.0503,50.375 355.6909,50.5313 Q356.3472,50.6875 356.9097,50.9844 L356.9097,53.7031 Q356.2847,53.125 355.6909,52.8594 Q355.0972,52.5781 354.4722,52.5781 Q353.1284,52.5781 352.4409,53.6563 Q351.7534,54.7188 351.7534,56.8125 Q351.7534,58.9063 352.4409,59.9844 Q353.1284,61.0469 354.4722,61.0469 Q355.0972,61.0469 355.6909,60.7813 Q356.2847,60.5 356.9097,59.9219 L356.9097,62.6406 Z " fill="#000000"/><text fill="#000000" font-family="sans-serif" font-size="14" lengthAdjust="spacing" textLength="83.3643" x="370.7056" y="61.8467">CasoPrueba</text><line style="stroke:#181818;stroke-width:0.5;" x1="327.5" x2="468.5107" y1="73" y2="73"/><ellipse cx="337.5" cy="86.6484" fill="none" rx="3" ry="3" style="stroke:#038048;stroke-width:1;"/><text fill="#000000" font-family="sans-serif" font-size="14" lengthAdjust="spacing" textLength="97.9385" x="346.5" y="89.9951">idCaso: String</text><ellipse cx="337.5" cy="102.9453" fill="none" rx="3" ry="3" style="stroke:#038048;stroke-width:1;"/><text fill="#000000" font-family="sans-serif" font-size="14" lengthAdjust="spacing" textLength="117.0107" x="346.5" y="106.292">summary: String</text><ellipse cx="337.5" cy="119.2422" fill="none" rx="3" ry="3" style="stroke:#038048;stroke-width:1;"/><text fill="#000000" font-family="sans-serif" font-size="14" lengthAdjust="spacing" textLength="76.5488" x="346.5" y="122.5889">texto: Text</text><ellipse cx="337.5" cy="135.5391" fill="none" rx="3" ry="3" style="stroke:#038048;stroke-width:1;"/><text fill="#000000" font-family="sans-serif" font-size="14" lengthAdjust="spacing" textLength="117.0039" x="346.5" y="138.8857">categoria: String</text><ellipse cx="337.5" cy="151.8359" fill="none" rx="3" ry="3" style="stroke:#038048;stroke-width:1;"/><text fill="#000000" font-family="sans-serif" font-size="14" lengthAdjust="spacing" textLength="114.0439" x="346.5" y="155.1826">prioridad: String</text><ellipse cx="337.5" cy="168.1328" fill="none" rx="3" ry="3" style="stroke:#038048;stroke-width:1;"/><text fill="#000000" font-family="sans-serif" font-size="14" lengthAdjust="spacing" textLength="98.376" x="346.5" y="171.4795">estado: String</text><line style="stroke:#181818;stroke-width:0.5;" x1="327.5" x2="468.5107" y1="178.7813" y2="178.7813"/></g><!--class KiwiTCMS--><g class="entity" data-entity="KiwiTCMS" data-source-line="72" data-uid="ent0016" id="entity_KiwiTCMS"><rect fill="#F1F1F1" height="56.2656" rx="2.5" ry="2.5" style="stroke:#181818;stroke-width:0.5;" width="99.7031" x="518" y="349.5"/><ellipse cx="533" cy="369.6328" fill="#ADD1B2" rx="11" ry="11" style="stroke:#181818;stroke-width:1;"/><path d="M535.9688,375.2734 Q535.3906,375.5703 534.75,375.7109 Q534.1094,375.8672 533.4063,375.8672 Q530.9063,375.8672 529.5781,374.2266 Q528.2656,372.5703 528.2656,369.4453 Q528.2656,366.3203 529.5781,364.6641 Q530.9063,363.0078 533.4063,363.0078 Q534.1094,363.0078 534.75,363.1641 Q535.4063,363.3203 535.9688,363.6172 L535.9688,366.3359 Q535.3438,365.7578 534.75,365.4922 Q534.1563,365.2109 533.5313,365.2109 Q532.1875,365.2109 531.5,366.2891 Q530.8125,367.3516 530.8125,369.4453 Q530.8125,371.5391 531.5,372.6172 Q532.1875,373.6797 533.5313,373.6797 Q534.1563,373.6797 534.75,373.4141 Q535.3438,373.1328 535.9688,372.5547 L535.9688,375.2734 Z " fill="#000000"/><text fill="#000000" font-family="sans-serif" font-size="12" font-style="italic" lengthAdjust="spacing" textLength="61.2656" x="550.2188" y="365.6387">&#171;externo&#187;</text><text fill="#000000" font-family="sans-serif" font-size="14" lengthAdjust="spacing" textLength="67.7031" x="547" y="381.4639">KiwiTCMS</text><line style="stroke:#181818;stroke-width:0.5;" x1="519" x2="616.7031" y1="389.7656" y2="389.7656"/><line style="stroke:#181818;stroke-width:0.5;" x1="519" x2="616.7031" y1="397.7656" y2="397.7656"/></g><!--reverse link Documentacion to CasoDeUso--><g class="link" data-entity-1="Documentacion" data-entity-2="CasoDeUso" data-source-line="59" data-uid="lnk9" id="link_Documentacion_CasoDeUso"><path codeLine="59" d="M346.4641,707.8542 C333.6541,731.9342 324.63,748.91 311.44,773.72" fill="none" id="Documentacion-backto-CasoDeUso" style="stroke:#181818;stroke-width:1;"/><polygon fill="none" points="352.1,697.26,345.7507,700.6785,346.4641,707.8542,352.8135,704.4357,352.1,697.26" style="stroke:#181818;stroke-width:1;"/><text fill="#000000" font-family="sans-serif" font-size="13" lengthAdjust="spacing" textLength="44.9795" x="337" y="740.0669">origina</text></g><!--reverse link Documentacion to RequisitoFuncional--><g class="link" data-entity-1="Documentacion" data-entity-2="RequisitoFuncional" data-source-line="60" data-uid="lnk10" id="link_Documentacion_RequisitoFuncional"><path codeLine="60" d="M400.2704,708.9887 C409.1504,768.5187 413.56,847.09 387,920 C376.79,948.04 358.45,974.62 339.43,996.95" fill="none" id="Documentacion-backto-RequisitoFuncional" style="stroke:#181818;stroke-width:1;"/><polygon fill="none" points="398.5,697.12,395.429,703.6445,400.2704,708.9887,403.3414,702.4642,398.5,697.12" style="stroke:#181818;stroke-width:1;"/><text fill="#000000" font-family="sans-serif" font-size="13" lengthAdjust="spacing" textLength="44.9795" x="407" y="851.5669">origina</text></g><!--link CasoDeUso to RequisitoFuncional--><g class="link" data-entity-1="CasoDeUso" data-entity-2="RequisitoFuncional" data-source-line="62" data-uid="lnk11" id="link_CasoDeUso_RequisitoFuncional"><path codeLine="62" d="M273,920.24 C273,945.15 273,972.84 273,997" fill="none" id="CasoDeUso-RequisitoFuncional" style="stroke:#181818;stroke-width:1;"/><text fill="#000000" font-family="sans-serif" font-size="13" lengthAdjust="spacing" textLength="33.1982" x="274" y="963.0669">traza</text></g><!--link EscenarioGherkin to CasoDeUso--><g class="link" data-entity-1="EscenarioGherkin" data-entity-2="CasoDeUso" data-source-line="64" data-uid="lnk12" id="link_EscenarioGherkin_CasoDeUso"><path codeLine="64" d="M202.3,697.26 C213.75,721.34 224.2729,743.4916 236.0729,768.3016" fill="none" id="EscenarioGherkin-to-CasoDeUso" style="stroke:#181818;stroke-width:1;"/><polygon fill="#181818" points="238.65,773.72,238.3967,763.8744,236.5025,769.2047,231.1722,767.3105,238.65,773.72" style="stroke:#181818;stroke-width:1;"/><text fill="#000000" font-family="sans-serif" font-size="13" lengthAdjust="spacing" textLength="82.8242" x="223" y="740.0669">cubre / traza</text></g><!--link EscenarioGherkin to RequisitoFuncional--><g class="link" data-entity-1="EscenarioGherkin" data-entity-2="RequisitoFuncional" data-source-line="65" data-uid="lnk13" id="link_EscenarioGherkin_RequisitoFuncional"><path codeLine="65" d="M116.13,697.01 C99.55,719.73 83.56,746.55 75,774 C55.69,835.95 45.22,862.35 75,920 C96.72,962.04 132.2888,991.1771 171.1888,1014.0671" fill="none" id="EscenarioGherkin-to-RequisitoFuncional" style="stroke:#181818;stroke-width:1;"/><polygon fill="#181818" points="176.36,1017.11,170.6318,1009.0982,172.0507,1014.5743,166.5747,1015.9931,176.36,1017.11" style="stroke:#181818;stroke-width:1;"/><text fill="#000000" font-family="sans-serif" font-size="13" lengthAdjust="spacing" textLength="82.8242" x="76" y="851.5669">cubre / traza</text></g><!--reverse link Borrador to EscenarioGherkin--><g class="link" data-entity-1="Borrador" data-entity-2="EscenarioGherkin" data-source-line="67" data-uid="lnk14" id="link_Borrador_EscenarioGherkin"><path codeLine="67" d="M210.1465,502.8142 C202.3665,529.0342 197.78,544.55 190.89,567.78" fill="none" id="Borrador-backto-EscenarioGherkin" style="stroke:#181818;stroke-width:1;"/><polygon fill="none" points="213.56,491.31,208.0185,495.9243,210.1465,502.8142,215.688,498.2,213.56,491.31" style="stroke:#181818;stroke-width:1;"/><text fill="#000000" font-family="sans-serif" font-size="13" lengthAdjust="spacing" textLength="56.2847" x="203" y="534.0669">contiene</text></g><!--link CasoPrueba to Borrador--><g class="link" data-entity-1="CasoPrueba" data-entity-2="Borrador" data-source-line="69" data-uid="lnk15" id="link_CasoPrueba_Borrador"><path codeLine="69" d="M356.34,187.15 C342.63,210.88 330.0513,232.6746 315.0313,258.6746" fill="none" id="CasoPrueba-to-Borrador" style="stroke:#181818;stroke-width:1;"/><polygon fill="#181818" points="312.03,263.87,319.9956,258.0778,314.5311,259.5405,313.0684,254.076,312.03,263.87" style="stroke:#181818;stroke-width:1;"/><text fill="#000000" font-family="sans-serif" font-size="13" lengthAdjust="spacing" textLength="61.2485" x="337" y="230.0669">deriva de</text></g><!--link CasoPrueba to KiwiTCMS--><g class="link" data-entity-1="CasoPrueba" data-entity-2="KiwiTCMS" data-source-line="74" data-uid="lnk17" id="link_CasoPrueba_KiwiTCMS"><path codeLine="74" d="M450.21,187.35 C467.14,211.46 485.74,238.64 502,264 C520.33,292.6 536.8869,321.087 549.8969,344.097" fill="none" id="CasoPrueba-to-KiwiTCMS" style="stroke:#181818;stroke-width:1;"/><polygon fill="#181818" points="552.85,349.32,551.9023,339.5168,550.3891,344.9675,544.9384,343.4543,552.85,349.32" style="stroke:#181818;stroke-width:1;"/><text fill="#000000" font-family="sans-serif" font-size="13" lengthAdjust="spacing" textLength="55.7324" x="481" y="230.0669">registrar</text></g><!--SRC=[lLJBRjim4BphAuXSYw1t8J3GsaaHD2qAE_c0DRMHDv58TKawROh-UvUMAP6n2_JKay3XFcPtXXf0FqEBwc93pcCF5-fNLUaEd5ChgqEFneCcQmHMwXqr1LYhZMSoRRpoDDXhunaQo65jZKT3ZQtLFVxm4M9yH4QZgGXyHBs3DRP2WoLu1HwhtudA4fnTuOEpYSR3CiyrjjyovaY3JZCD8ydKMCYzmfOwQg2v8uyCtNo9paDaETVO8xj3_gsCq2BFTDRuFP0ZRs-2YIsWIxpMD_-FnRNJQ839VjeXFzCaqOINylZG5KXBUynelUpoavzFKx-FbaLTowbFEkT56LsqH-40KRArNAhTZfHZWtyO_eFs8MufhU1W5sosujrQtObZ9WCj6O_EF1WemMC1UdrpDx1zGks_Gb-Onzd06fFJtR55OSPl770BQHCHAGg4lWV-MUnVPipUmDcb3A8PHrlau9kb28loNIfxUPczZrf9YPOCd0ixPzmvePghgBy67znRLIVUauo5AdZe86zIlJzcd2J4-BCTohngSjqumKaTIP1V3A71SO2ZCYEVARbM3JBjGJwpa9_fXUwNNpRgwafaGJPsiJWjCaNLYiVV4_0V]--></g></svg>