<svg xmlns="http://www.w3.org/2000/svg" xmlns:xlink="http://www.w3.org/1999/xlink" contentStyleType="text/css" data-diagram-type="STATE" height="711px" preserveAspectRatio="none" style="width:389px;height:711px;background:#FFFFFF;" version="1.1" viewBox="0 0 389 711" width="389px" zoomAndPan="magnify"><defs/><g><path d="M19.5,7 L319.5,7 A12.5,12.5 0 0 1 332,19.5 L332,33.2969 L7,33.2969 L7,19.5 A12.5,12.5 0 0 1 19.5,7" fill="#F1F1F1"/><rect fill="none" height="553.2969" rx="12.5" ry="12.5" style="stroke:#181818;stroke-width:0.5;" width="325" x="7" y="7"/><line style="stroke:#181818;stroke-width:0.5;" x1="7" x2="332" y1="33.2969" y2="33.2969"/><text fill="#000000" font-family="sans-serif" font-size="14" lengthAdjust="spacing" textLength="179.8467" x="79.5767" y="24.9951">crearRequisitoFuncional()</text><g id="crearRequisitoFuncional.SolicitandoDatos"><rect fill="#F1F1F1" height="50" rx="12.5" ry="12.5" style="stroke:#181818;stroke-width:0.5;" width="50" x="19" y="135.2969"/><line style="stroke:#181818;stroke-width:0.5;" x1="19" x2="69" y1="161.5938" y2="161.5938"/><text fill="#000000" font-family="sans-serif" font-size="14" lengthAdjust="spacing" textLength="4.4502" x="41.7749" y="153.292">&#160;</text></g><g id="crearRequisitoFuncional.ValidandoDatos"><rect fill="#F1F1F1" height="50" rx="12.5" ry="12.5" style="stroke:#181818;stroke-width:0.5;" width="50" x="19" y="271.2969"/><line style="stroke:#181818;stroke-width:0.5;" x1="19" x2="69" y1="297.5938" y2="297.5938"/><text fill="#000000" font-family="sans-serif" font-size="14" lengthAdjust="spacing" textLength="4.4502" x="41.7749" y="289.292">&#160;</text></g><g id="crearRequisitoFuncional.RegistrandoRequisito"><rect fill="#F1F1F1" height="50" rx="12.5" ry="12.5" style="stroke:#181818;stroke-width:0.5;" width="50" x="19" y="407.2969"/><line style="stroke:#181818;stroke-width:0.5;" x1="19" x2="69" y1="433.5938" y2="433.5938"/><text fill="#000000" font-family="sans-serif" font-size="14" lengthAdjust="spacing" textLength="4.4502" x="41.7749" y="425.292">&#160;</text></g><ellipse cx="44" cy="54.2969" fill="#222222" rx="10" ry="10" style="stroke:#222222;stroke-width:1;"/><ellipse cx="44" cy="539.2969" fill="none" rx="11" ry="11" style="stroke:#222222;stroke-width:1;"/><ellipse cx="44" cy="539.2969" fill="#222222" rx="6" ry="6" style="stroke:#222222;stroke-width:1;"/><!--link *start*crearRequisitoFuncional to SolicitandoDatos--><g class="link" data-entity-1=".start.crearRequisitoFuncional" data-entity-2="SolicitandoDatos" data-source-line="9" data-uid="lnk3" id="link_.start.crearRequisitoFuncional_SolicitandoDatos"><path d="M44,64.5269 C44,80.2369 44,106.6569 44,129.1669" fill="none" id="*start*crearRequisitoFuncional-to-SolicitandoDatos" style="stroke:#008000;stroke-width:1;"/><polygon fill="#008000" points="44,135.1669,48,126.1669,44,130.1669,40,126.1669,44,135.1669" style="stroke:#008000;stroke-width:1;"/><path d="M49,87.2969 L49,112.2969 L319,112.2969 L319,97.2969 L309,87.2969 L49,87.2969" fill="#FEFFDD" style="stroke:#181818;stroke-width:0.5;"/><path d="M309,87.2969 L309,97.2969 L319,97.2969 L309,87.2969" fill="#FEFFDD" style="stroke:#181818;stroke-width:0.5;"/><text fill="#000000" font-family="sans-serif" font-size="13" lengthAdjust="spacing" textLength="249.4312" x="55" y="104.3638">Se solicita crear un requisito funcional</text></g><!--link SolicitandoDatos to ValidandoDatos--><g class="link" data-entity-1="SolicitandoDatos" data-entity-2="ValidandoDatos" data-source-line="14" data-uid="lnk4" id="link_SolicitandoDatos_ValidandoDatos"><path d="M44,185.5669 C44,209.8469 44,240.9869 44,265.2069" fill="none" id="SolicitandoDatos-to-ValidandoDatos" style="stroke:#008000;stroke-width:1;"/><polygon fill="#008000" points="44,271.2069,48,262.2069,44,266.2069,40,262.2069,44,271.2069" style="stroke:#008000;stroke-width:1;"/><path d="M49,208.2969 L49,248.2969 L270,248.2969 L270,218.2969 L260,208.2969 L49,208.2969" fill="#FEFFDD" style="stroke:#181818;stroke-width:0.5;"/><path d="M260,208.2969 L260,218.2969 L270,218.2969 L260,208.2969" fill="#FEFFDD" style="stroke:#181818;stroke-width:0.5;"/><text fill="#000000" font-family="sans-serif" font-size="13" font-weight="bold" lengthAdjust="spacing" textLength="58.9063" x="55" y="225.3638">Sistema</text><text fill="#000000" font-family="sans-serif" font-size="13" lengthAdjust="spacing" textLength="137.5029" x="118.0386" y="225.3638">recibe la informacion</text><text fill="#000000" font-family="sans-serif" font-size="13" lengthAdjust="spacing" textLength="152.7817" x="55" y="240.4966">introducida por el actor</text></g><!--link ValidandoDatos to RegistrandoRequisito--><g class="link" data-entity-1="ValidandoDatos" data-entity-2="RegistrandoRequisito" data-source-line="20" data-uid="lnk5" id="link_ValidandoDatos_RegistrandoRequisito"><path d="M44,321.5669 C44,345.8469 44,376.9869 44,401.2069" fill="none" id="ValidandoDatos-to-RegistrandoRequisito" style="stroke:#008000;stroke-width:1;"/><polygon fill="#008000" points="44,407.2069,48,398.2069,44,402.2069,40,398.2069,44,407.2069" style="stroke:#008000;stroke-width:1;"/><path d="M49,344.2969 L49,384.2969 L234,384.2969 L234,354.2969 L224,344.2969 L49,344.2969" fill="#FEFFDD" style="stroke:#181818;stroke-width:0.5;"/><path d="M224,344.2969 L224,354.2969 L234,354.2969 L224,344.2969" fill="#FEFFDD" style="stroke:#181818;stroke-width:0.5;"/><text fill="#000000" font-family="sans-serif" font-size="13" font-weight="bold" lengthAdjust="spacing" textLength="58.9063" x="55" y="361.3638">Sistema</text><text fill="#000000" font-family="sans-serif" font-size="13" lengthAdjust="spacing" textLength="101.7466" x="118.0386" y="361.3638">valida los datos</text><text fill="#000000" font-family="sans-serif" font-size="13" lengthAdjust="spacing" textLength="133.1992" x="55" y="376.4966">y prepara el registro</text></g><!--link RegistrandoRequisito to *end*crearRequisitoFuncional--><g class="link" data-entity-1="RegistrandoRequisito" data-entity-2=".end.crearRequisitoFuncional" data-source-line="26" data-uid="lnk7" id="link_RegistrandoRequisito_.end.crearRequisitoFuncional"><path d="M44,457.3869 C44,479.7869 44,506.0669 44,522.2469" fill="none" id="RegistrandoRequisito-to-*end*crearRequisitoFuncional" style="stroke:#008000;stroke-width:1;"/><polygon fill="#008000" points="44,528.2469,48,519.2469,44,523.2469,40,519.2469,44,528.2469" style="stroke:#008000;stroke-width:1;"/><path d="M49,480.2969 L49,505.2969 L323,505.2969 L323,490.2969 L313,480.2969 L49,480.2969" fill="#FEFFDD" style="stroke:#181818;stroke-width:0.5;"/><path d="M313,480.2969 L313,490.2969 L323,490.2969 L313,480.2969" fill="#FEFFDD" style="stroke:#181818;stroke-width:0.5;"/><text fill="#000000" font-family="sans-serif" font-size="13" font-weight="bold" lengthAdjust="spacing" textLength="58.9063" x="55" y="497.3638">Sistema</text><text fill="#000000" font-family="sans-serif" font-size="13" lengthAdjust="spacing" textLength="190.8613" x="118.0386" y="497.3638">registra el requisito funcional</text></g><g id="REQUISITOS_FUNCIONALES_ABIERTO"><rect fill="#F1F1F1" height="50" rx="12.5" ry="12.5" style="stroke:#181818;stroke-width:0.5;" width="280.1758" x="29.5" y="655"/><line style="stroke:#181818;stroke-width:0.5;" x1="29.5" x2="309.6758" y1="681.2969" y2="681.2969"/><text fill="#000000" font-family="sans-serif" font-size="14" lengthAdjust="spacing" textLength="260.1758" x="39.5" y="672.9951">REQUISITOS_FUNCIONALES_ABIERTO</text></g><!--link crearRequisitoFuncional to REQUISITOS_FUNCIONALES_ABIERTO--><g class="link" data-entity-1="crearRequisitoFuncional" data-entity-2="REQUISITOS_FUNCIONALES_ABIERTO" data-source-line="32" data-uid="lnk9" id="link_crearRequisitoFuncional_REQUISITOS_FUNCIONALES_ABIERTO"><path d="M74.76,560.15 C68.43,578.58 64.5,590 64.5,590 C64.5,590 64.5,625 64.5,625 C64.5,625 89.2335,637.7273 117.1935,652.0973" fill="none" id="crearRequisitoFuncional-to-REQUISITOS_FUNCIONALES_ABIERTO" style="stroke:#008000;stroke-width:1;"/><polygon fill="#008000" points="122.53,654.84,116.3538,647.1684,118.083,652.5544,112.6969,654.2836,122.53,654.84" style="stroke:#008000;stroke-width:1;"/><path d="M69.5,595 L69.5,620 L223.5,620 L223.5,605 L213.5,595 L69.5,595" fill="#FEFFDD" style="stroke:#181818;stroke-width:0.5;"/><path d="M213.5,595 L213.5,605 L223.5,605 L213.5,595" fill="#FEFFDD" style="stroke:#181818;stroke-width:0.5;"/><text fill="#000000" font-family="sans-serif" font-size="13" lengthAdjust="spacing" textLength="133.5166" x="75.5" y="612.0669">completarCreacion()</text></g><!--link crearRequisitoFuncional to REQUISITOS_FUNCIONALES_ABIERTO--><g class="link" data-entity-1="crearRequisitoFuncional" data-entity-2="REQUISITOS_FUNCIONALES_ABIERTO" data-source-line="37" data-uid="lnk10" id="link_crearRequisitoFuncional_REQUISITOS_FUNCIONALES_ABIERTO"><path d="M226.34,560.15 C230.14,578.58 232.5,590 232.5,590 C232.5,590 232.5,625 232.5,625 C232.5,625 219.0173,636.5673 202.2373,650.9373" fill="none" id="crearRequisitoFuncional-to-REQUISITOS_FUNCIONALES_ABIERTO-1" style="stroke:#FF0000;stroke-width:1;"/><polygon fill="#FF0000" points="197.68,654.84,207.1177,652.0241,201.4777,651.5877,201.9141,645.9477,197.68,654.84" style="stroke:#FF0000;stroke-width:1;"/><path d="M237.5,595 L237.5,620 L382.5,620 L382.5,605 L372.5,595 L237.5,595" fill="#FEFFDD" style="stroke:#181818;stroke-width:0.5;"/><path d="M372.5,595 L372.5,605 L382.5,605 L372.5,595" fill="#FEFFDD" style="stroke:#181818;stroke-width:0.5;"/><text fill="#000000" font-family="sans-serif" font-size="13" lengthAdjust="spacing" textLength="124.3125" x="243.5" y="612.0669">rechazarCreacion()</text></g><!--SRC=[bP9HQy8m58NVyoikxaK7iZyWWdCAXQ7Cwbv494slBfWcNP8EtDX_Nz9CHsTqhdrgSpZVEVV6xBWigQO522xHxak4Kecz_o34M6eHc4QgP_XQSSEj6bUISIMf06gWTUQitMd11o7Wdk3HSg_JfqfmnYsLkNgWLfbJnJCLFBzmFiCjDrPxnH4RGClR5NINDrkDA5VTVfmbbRDIqfVTrJzI1FCj34MXag0Fph0vDAh5AFFQ8G1_0nhqI8yJTY_hfwuC5hHtb_KTbV4CGL3WSgDqGJsv5d9fjSehvXpTTZIW6pwpIaT2DRcDID7HNHFihVO4uVpoOvizb1hzpV5fTB1MaK0nQYEMszkLumb6WVV7WZu9ENTj6oCPFIsID9bFq_LuCHacqydWSPIk1_V9Q3QVaaOafefIeALww8ozLxj3VgfUe6dC_yjoL-65laTHNm00]--></g></svg>