<svg xmlns="http://www.w3.org/2000/svg" xmlns:xlink="http://www.w3.org/1999/xlink" contentStyleType="text/css" data-diagram-type="STATE" height="711px" preserveAspectRatio="none" style="width:601px;height:711px;background:#FFFFFF;" version="1.1" viewBox="0 0 601 711" width="601px" zoomAndPan="magnify"><defs/><g><path d="M140.5,7 L455.5,7 A12.5,12.5 0 0 1 468,19.5 L468,33.2969 L128,33.2969 L128,19.5 A12.5,12.5 0 0 1 140.5,7" fill="#F1F1F1"/><rect fill="none" height="553.2969" rx="12.5" ry="12.5" style="stroke:#181818;stroke-width:0.5;" width="340" x="128" y="7"/><line style="stroke:#181818;stroke-width:0.5;" x1="128" x2="468" y1="33.2969" y2="33.2969"/><text fill="#000000" font-family="sans-serif" font-size="14" lengthAdjust="spacing" textLength="200.5732" x="197.7134" y="24.9951">eliminarRequisitoFuncional()</text><g id="eliminarRequisitoFuncional.SeleccionandoRequisito"><rect fill="#F1F1F1" height="50" rx="12.5" ry="12.5" style="stroke:#181818;stroke-width:0.5;" width="50" x="140" y="135.2969"/><line style="stroke:#181818;stroke-width:0.5;" x1="140" x2="190" y1="161.5938" y2="161.5938"/><text fill="#000000" font-family="sans-serif" font-size="14" lengthAdjust="spacing" textLength="4.4502" x="162.7749" y="153.292">&#160;</text></g><g id="eliminarRequisitoFuncional.ConfirmandoEliminacion"><rect fill="#F1F1F1" height="50" rx="12.5" ry="12.5" style="stroke:#181818;stroke-width:0.5;" width="50" x="140" y="271.2969"/><line style="stroke:#181818;stroke-width:0.5;" x1="140" x2="190" y1="297.5938" y2="297.5938"/><text fill="#000000" font-family="sans-serif" font-size="14" lengthAdjust="spacing" textLength="4.4502" x="162.7749" y="289.292">&#160;</text></g><g id="eliminarRequisitoFuncional.EliminandoRequisito"><rect fill="#F1F1F1" height="50" rx="12.5" ry="12.5" style="stroke:#181818;stroke-width:0.5;" width="50" x="140" y="407.2969"/><line style="stroke:#181818;stroke-width:0.5;" x1="140" x2="190" y1="433.5938" y2="433.5938"/><text fill="#000000" font-family="sans-serif" font-size="14" lengthAdjust="spacing" textLength="4.4502" x="162.7749" y="425.292">&#160;</text></g><ellipse cx="165" cy="54.2969" fill="#222222" rx="10" ry="10" style="stroke:#222222;stroke-width:1;"/><ellipse cx="165" cy="539.2969" fill="none" rx="11" ry="11" style="stroke:#222222;stroke-width:1;"/><ellipse cx="165" cy="539.2969" fill="#222222" rx="6" ry="6" style="stroke:#222222;stroke-width:1;"/><!--link *start*eliminarRequisitoFuncional to SeleccionandoRequisito--><g class="link" data-entity-1=".start.eliminarRequisitoFuncional" data-entity-2="SeleccionandoRequisito" data-source-line="9" data-uid="lnk3" id="link_.start.eliminarRequisitoFuncional_SeleccionandoRequisito"><path d="M165,64.5269 C165,80.2369 165,106.6569 165,129.1669" fill="none" id="*start*eliminarRequisitoFuncional-to-SeleccionandoRequisito" style="stroke:#008000;stroke-width:1;"/><polygon fill="#008000" points="165,135.1669,169,126.1669,165,130.1669,161,126.1669,165,135.1669" style="stroke:#008000;stroke-width:1;"/><path d="M170,87.2969 L170,112.2969 L459,112.2969 L459,97.2969 L449,87.2969 L170,87.2969" fill="#FEFFDD" style="stroke:#181818;stroke-width:0.5;"/><path d="M449,87.2969 L449,97.2969 L459,97.2969 L449,87.2969" fill="#FEFFDD" style="stroke:#181818;stroke-width:0.5;"/><text fill="#000000" font-family="sans-serif" font-size="13" lengthAdjust="spacing" textLength="268.6772" x="176" y="104.3638">Se solicita eliminar un requisito funcional</text></g><!--link SeleccionandoRequisito to ConfirmandoEliminacion--><g class="link" data-entity-1="SeleccionandoRequisito" data-entity-2="ConfirmandoEliminacion" data-source-line="14" data-uid="lnk4" id="link_SeleccionandoRequisito_ConfirmandoEliminacion"><path d="M165,185.5669 C165,209.8469 165,240.9869 165,265.2069" fill="none" id="SeleccionandoRequisito-to-ConfirmandoEliminacion" style="stroke:#008000;stroke-width:1;"/><polygon fill="#008000" points="165,271.2069,169,262.2069,165,266.2069,161,262.2069,165,271.2069" style="stroke:#008000;stroke-width:1;"/><path d="M170,208.2969 L170,248.2969 L388,248.2969 L388,218.2969 L378,208.2969 L170,208.2969" fill="#FEFFDD" style="stroke:#181818;stroke-width:0.5;"/><path d="M378,208.2969 L378,218.2969 L388,218.2969 L378,208.2969" fill="#FEFFDD" style="stroke:#181818;stroke-width:0.5;"/><text fill="#000000" font-family="sans-serif" font-size="13" font-weight="bold" lengthAdjust="spacing" textLength="58.9063" x="176" y="225.3638">Sistema</text><text fill="#000000" font-family="sans-serif" font-size="13" lengthAdjust="spacing" textLength="134.3608" x="239.0386" y="225.3638">solicita confirmacion</text><text fill="#000000" font-family="sans-serif" font-size="13" lengthAdjust="spacing" textLength="100.5596" x="176" y="240.4966">de la operacion</text></g><!--link ConfirmandoEliminacion to EliminandoRequisito--><g class="link" data-entity-1="ConfirmandoEliminacion" data-entity-2="EliminandoRequisito" data-source-line="20" data-uid="lnk5" id="link_ConfirmandoEliminacion_EliminandoRequisito"><path d="M165,321.5669 C165,345.8469 165,376.9869 165,401.2069" fill="none" id="ConfirmandoEliminacion-to-EliminandoRequisito" style="stroke:#008000;stroke-width:1;"/><polygon fill="#008000" points="165,407.2069,169,398.2069,165,402.2069,161,398.2069,165,407.2069" style="stroke:#008000;stroke-width:1;"/><path d="M170,344.2969 L170,384.2969 L397,384.2969 L397,354.2969 L387,344.2969 L170,344.2969" fill="#FEFFDD" style="stroke:#181818;stroke-width:0.5;"/><path d="M387,344.2969 L387,354.2969 L397,354.2969 L387,344.2969" fill="#FEFFDD" style="stroke:#181818;stroke-width:0.5;"/><text fill="#000000" font-family="sans-serif" font-size="13" font-weight="bold" lengthAdjust="spacing" textLength="58.9063" x="176" y="361.3638">Sistema</text><text fill="#000000" font-family="sans-serif" font-size="13" lengthAdjust="spacing" textLength="143.3999" x="239.0386" y="361.3638">valida la confirmacion</text><text fill="#000000" font-family="sans-serif" font-size="13" lengthAdjust="spacing" textLength="157.4473" x="176" y="376.4966">y prepara la eliminacion</text></g><!--link EliminandoRequisito to *end*eliminarRequisitoFuncional--><g class="link" data-entity-1="EliminandoRequisito" data-entity-2=".end.eliminarRequisitoFuncional" data-source-line="26" data-uid="lnk7" id="link_EliminandoRequisito_.end.eliminarRequisitoFuncional"><path d="M165,457.3869 C165,479.7869 165,506.0669 165,522.2469" fill="none" id="EliminandoRequisito-to-*end*eliminarRequisitoFuncional" style="stroke:#008000;stroke-width:1;"/><polygon fill="#008000" points="165,528.2469,169,519.2469,165,523.2469,161,519.2469,165,528.2469" style="stroke:#008000;stroke-width:1;"/><path d="M170,480.2969 L170,505.2969 L442,505.2969 L442,490.2969 L432,480.2969 L170,480.2969" fill="#FEFFDD" style="stroke:#181818;stroke-width:0.5;"/><path d="M432,480.2969 L432,490.2969 L442,490.2969 L432,480.2969" fill="#FEFFDD" style="stroke:#181818;stroke-width:0.5;"/><text fill="#000000" font-family="sans-serif" font-size="13" font-weight="bold" lengthAdjust="spacing" textLength="58.9063" x="176" y="497.3638">Sistema</text><text fill="#000000" font-family="sans-serif" font-size="13" lengthAdjust="spacing" textLength="188.1763" x="239.0386" y="497.3638">elimina el requisito funcional</text></g><g id="REQUISITOS_FUNCIONALES_ABIERTO"><rect fill="#F1F1F1" height="50" rx="12.5" ry="12.5" style="stroke:#181818;stroke-width:0.5;" width="280.1758" x="7" y="655"/><line style="stroke:#181818;stroke-width:0.5;" x1="7" x2="287.1758" y1="681.2969" y2="681.2969"/><text fill="#000000" font-family="sans-serif" font-size="14" lengthAdjust="spacing" textLength="260.1758" x="17" y="672.9951">REQUISITOS_FUNCIONALES_ABIERTO</text></g><g id="REQUISITO_FUNCIONAL_ABIERTO"><rect fill="#F1F1F1" height="50" rx="12.5" ry="12.5" style="stroke:#181818;stroke-width:0.5;" width="253.5566" x="322" y="655"/><line style="stroke:#181818;stroke-width:0.5;" x1="322" x2="575.5566" y1="681.2969" y2="681.2969"/><text fill="#000000" font-family="sans-serif" font-size="14" lengthAdjust="spacing" textLength="233.5566" x="332" y="672.9951">REQUISITO_FUNCIONAL_ABIERTO</text></g><!--link eliminarRequisitoFuncional to REQUISITOS_FUNCIONALES_ABIERTO--><g class="link" data-entity-1="eliminarRequisitoFuncional" data-entity-2="REQUISITOS_FUNCIONALES_ABIERTO" data-source-line="32" data-uid="lnk9" id="link_eliminarRequisitoFuncional_REQUISITOS_FUNCIONALES_ABIERTO"><path d="M192.51,560.1 C177.58,599.1 166.6643,627.6163 158.4143,649.1763" fill="none" id="eliminarRequisitoFuncional-to-REQUISITOS_FUNCIONALES_ABIERTO" style="stroke:#008000;stroke-width:1;"/><polygon fill="#008000" points="156.27,654.78,163.2223,647.8039,158.0569,650.1102,155.7506,644.9448,156.27,654.78" style="stroke:#008000;stroke-width:1;"/><path d="M185,595 L185,620 L357,620 L357,605 L347,595 L185,595" fill="#FEFFDD" style="stroke:#181818;stroke-width:0.5;"/><path d="M347,595 L347,605 L357,605 L347,595" fill="#FEFFDD" style="stroke:#181818;stroke-width:0.5;"/><text fill="#000000" font-family="sans-serif" font-size="13" lengthAdjust="spacing" textLength="151.0488" x="191" y="612.0669">completarEliminacion()</text></g><!--link eliminarRequisitoFuncional to REQUISITO_FUNCIONAL_ABIERTO--><g class="link" data-entity-1="eliminarRequisitoFuncional" data-entity-2="REQUISITO_FUNCIONAL_ABIERTO" data-source-line="37" data-uid="lnk11" id="link_eliminarRequisitoFuncional_REQUISITO_FUNCIONAL_ABIERTO"><path d="M403.49,560.1 C418.42,599.1 429.3357,627.6163 437.5857,649.1763" fill="none" id="eliminarRequisitoFuncional-to-REQUISITO_FUNCIONAL_ABIERTO" style="stroke:#FF0000;stroke-width:1;"/><polygon fill="#FF0000" points="439.73,654.78,440.2494,644.9448,437.9431,650.1102,432.7777,647.8039,439.73,654.78" style="stroke:#FF0000;stroke-width:1;"/><path d="M432,595 L432,620 L594,620 L594,605 L584,595 L432,595" fill="#FEFFDD" style="stroke:#181818;stroke-width:0.5;"/><path d="M584,595 L584,605 L594,605 L584,595" fill="#FEFFDD" style="stroke:#181818;stroke-width:0.5;"/><text fill="#000000" font-family="sans-serif" font-size="13" lengthAdjust="spacing" textLength="141.8447" x="438" y="612.0669">rechazarEliminacion()</text></g><!--SRC=[ZPBHQi8m58RlynG7TwC3sGj8mKc5mb1czKf4Zkrn2wP9bwO3D_RkQsgrPgsTxKLfyl_d_yv9iWENAMfCG719vfWIf4eSxGzZcK53G88dNA9Uq4VECsxKD9SHLn85O0QzszlzGG- -6OFYELNg5MzX2KbGL4fah2wsfcwYv9xhnAhyKuWrDNNLfbEiLAqVDp1SFxnf8haPUbt1KXNrbBHJE9GB8K6c18-umSi489UWppROd_iizIJZiWYht6r93an7TmsOqSuBUMOemT7Jpgl1egh6nHaJ20ILagxNNBBsM8UiRPxtO7sYu35QW0RN4L9DzfxPNVhJhWlOakxG5OTw5qsLKdp_FxCVnZfk-NNwmdzT1M6md8VRwMes2UQpyOiVRiVFWRzOpfa35Qaa5MHGNmswFs1rkzsPcc8diGviZzCKlUFNhRHV]--></g></svg>