<svg xmlns="http://www.w3.org/2000/svg" xmlns:xlink="http://www.w3.org/1999/xlink" contentStyleType="text/css" data-diagram-type="STATE" height="726px" preserveAspectRatio="none" style="width:400px;height:726px;background:#FFFFFF;" version="1.1" viewBox="0 0 400 726" width="400px" zoomAndPan="magnify"><defs/><g><path d="M19.5,7 L305.5,7 A12.5,12.5 0 0 1 318,19.5 L318,33.2969 L7,33.2969 L7,19.5 A12.5,12.5 0 0 1 19.5,7" fill="#F1F1F1"/><rect fill="none" height="568.2969" rx="12.5" ry="12.5" style="stroke:#181818;stroke-width:0.5;" width="311" x="7" y="7"/><line style="stroke:#181818;stroke-width:0.5;" x1="7" x2="318" y1="33.2969" y2="33.2969"/><text fill="#000000" font-family="sans-serif" font-size="14" lengthAdjust="spacing" textLength="242.4092" x="41.2954" y="24.9951">asociarDocumentacionAProyecto()</text><g id="asociarDocumentacionAProyecto.DetectandoAusenciaProyecto"><rect fill="#F1F1F1" height="50" rx="12.5" ry="12.5" style="stroke:#181818;stroke-width:0.5;" width="50" x="19" y="150.2969"/><line style="stroke:#181818;stroke-width:0.5;" x1="19" x2="69" y1="176.5938" y2="176.5938"/><text fill="#000000" font-family="sans-serif" font-size="14" lengthAdjust="spacing" textLength="4.4502" x="41.7749" y="168.292">&#160;</text></g><g id="asociarDocumentacionAProyecto.SolicitandoProyecto"><rect fill="#F1F1F1" height="50" rx="12.5" ry="12.5" style="stroke:#181818;stroke-width:0.5;" width="50" x="19" y="271.2969"/><line style="stroke:#181818;stroke-width:0.5;" x1="19" x2="69" y1="297.5938" y2="297.5938"/><text fill="#000000" font-family="sans-serif" font-size="14" lengthAdjust="spacing" textLength="4.4502" x="41.7749" y="289.292">&#160;</text></g><g id="asociarDocumentacionAProyecto.RegistrandoAsociacion"><rect fill="#F1F1F1" height="50" rx="12.5" ry="12.5" style="stroke:#181818;stroke-width:0.5;" width="50" x="19" y="407.2969"/><line style="stroke:#181818;stroke-width:0.5;" x1="19" x2="69" y1="433.5938" y2="433.5938"/><text fill="#000000" font-family="sans-serif" font-size="14" lengthAdjust="spacing" textLength="4.4502" x="41.7749" y="425.292">&#160;</text></g><ellipse cx="44" cy="54.2969" fill="#222222" rx="10" ry="10" style="stroke:#222222;stroke-width:1;"/><ellipse cx="44" cy="554.2969" fill="none" rx="11" ry="11" style="stroke:#222222;stroke-width:1;"/><ellipse cx="44" cy="554.2969" fill="#222222" rx="6" ry="6" style="stroke:#222222;stroke-width:1;"/><!--link *start*asociarDocumentacionAProyecto to DetectandoAusenciaProyecto--><g class="link" data-entity-1=".start.asociarDocumentacionAProyecto" data-entity-2="DetectandoAusenciaProyecto" data-source-line="9" data-uid="lnk3" id="link_.start.asociarDocumentacionAProyecto_DetectandoAusenciaProyecto"><path d="M44,64.6369 C44,82.8269 44,117.5369 44,143.9069" fill="none" id="*start*asociarDocumentacionAProyecto-to-DetectandoAusenciaProyecto" style="stroke:#008000;stroke-width:1;"/><polygon fill="#008000" points="44,149.9069,48,140.9069,44,144.9069,40,140.9069,44,149.9069" style="stroke:#008000;stroke-width:1;"/><path d="M49,87.2969 L49,127.2969 L288,127.2969 L288,97.2969 L278,87.2969 L49,87.2969" fill="#FEFFDD" style="stroke:#181818;stroke-width:0.5;"/><path d="M278,87.2969 L278,97.2969 L288,97.2969 L278,87.2969" fill="#FEFFDD" style="stroke:#181818;stroke-width:0.5;"/><text fill="#000000" font-family="sans-serif" font-size="13" lengthAdjust="spacing" textLength="218.9116" x="55" y="104.3638">Se detecta que la documentacion</text><text fill="#000000" font-family="sans-serif" font-size="13" lengthAdjust="spacing" textLength="176.5981" x="55" y="119.4966">no tiene proyecto asociado</text></g><!--link DetectandoAusenciaProyecto to SolicitandoProyecto--><g class="link" data-entity-1="DetectandoAusenciaProyecto" data-entity-2="SolicitandoProyecto" data-source-line="15" data-uid="lnk4" id="link_DetectandoAusenciaProyecto_SolicitandoProyecto"><path d="M44,200.3769 C44,221.0269 44,244.6169 44,265.2469" fill="none" id="DetectandoAusenciaProyecto-to-SolicitandoProyecto" style="stroke:#008000;stroke-width:1;"/><polygon fill="#008000" points="44,271.2469,48,262.2469,44,266.2469,40,262.2469,44,271.2469" style="stroke:#008000;stroke-width:1;"/><path d="M49,223.2969 L49,248.2969 L309,248.2969 L309,233.2969 L299,223.2969 L49,223.2969" fill="#FEFFDD" style="stroke:#181818;stroke-width:0.5;"/><path d="M299,223.2969 L299,233.2969 L309,233.2969 L299,223.2969" fill="#FEFFDD" style="stroke:#181818;stroke-width:0.5;"/><text fill="#000000" font-family="sans-serif" font-size="13" font-weight="bold" lengthAdjust="spacing" textLength="58.9063" x="55" y="240.3638">Sistema</text><text fill="#000000" font-family="sans-serif" font-size="13" lengthAdjust="spacing" textLength="176.4395" x="118.0386" y="240.3638">solicita el proyecto al actor</text></g><!--link SolicitandoProyecto to RegistrandoAsociacion--><g class="link" data-entity-1="SolicitandoProyecto" data-entity-2="RegistrandoAsociacion" data-source-line="20" data-uid="lnk5" id="link_SolicitandoProyecto_RegistrandoAsociacion"><path d="M44,321.5669 C44,345.8469 44,376.9869 44,401.2069" fill="none" id="SolicitandoProyecto-to-RegistrandoAsociacion" style="stroke:#008000;stroke-width:1;"/><polygon fill="#008000" points="44,407.2069,48,398.2069,44,402.2069,40,398.2069,44,407.2069" style="stroke:#008000;stroke-width:1;"/><path d="M49,344.2969 L49,384.2969 L262,384.2969 L262,354.2969 L252,344.2969 L49,344.2969" fill="#FEFFDD" style="stroke:#181818;stroke-width:0.5;"/><path d="M252,344.2969 L252,354.2969 L262,354.2969 L252,344.2969" fill="#FEFFDD" style="stroke:#181818;stroke-width:0.5;"/><text fill="#000000" font-family="sans-serif" font-size="13" font-weight="bold" lengthAdjust="spacing" textLength="58.9063" x="55" y="361.3638">Sistema</text><text fill="#000000" font-family="sans-serif" font-size="13" lengthAdjust="spacing" textLength="129.4922" x="118.0386" y="361.3638">recibe el proyecto y</text><text fill="#000000" font-family="sans-serif" font-size="13" lengthAdjust="spacing" textLength="139.3374" x="55" y="376.4966">prepara la asociacion</text></g><!--link RegistrandoAsociacion to *end*asociarDocumentacionAProyecto--><g class="link" data-entity-1="RegistrandoAsociacion" data-entity-2=".end.asociarDocumentacionAProyecto" data-source-line="26" data-uid="lnk7" id="link_RegistrandoAsociacion_.end.asociarDocumentacionAProyecto"><path d="M44,457.5769 C44,483.8769 44,518.5669 44,537.2769" fill="none" id="RegistrandoAsociacion-to-*end*asociarDocumentacionAProyecto" style="stroke:#008000;stroke-width:1;"/><polygon fill="#008000" points="44,543.2769,48,534.2769,44,538.2769,40,534.2769,44,543.2769" style="stroke:#008000;stroke-width:1;"/><path d="M49,480.2969 L49,520.2969 L271,520.2969 L271,490.2969 L261,480.2969 L49,480.2969" fill="#FEFFDD" style="stroke:#181818;stroke-width:0.5;"/><path d="M261,480.2969 L261,490.2969 L271,490.2969 L261,480.2969" fill="#FEFFDD" style="stroke:#181818;stroke-width:0.5;"/><text fill="#000000" font-family="sans-serif" font-size="13" font-weight="bold" lengthAdjust="spacing" textLength="58.9063" x="55" y="497.3638">Sistema</text><text fill="#000000" font-family="sans-serif" font-size="13" lengthAdjust="spacing" textLength="138.6011" x="118.0386" y="497.3638">registra la asociacion</text><text fill="#000000" font-family="sans-serif" font-size="13" lengthAdjust="spacing" textLength="162.6396" x="55" y="512.4966">documentacion-proyecto</text></g><g id="DOCUMENTACION_ABIERTA"><rect fill="#F1F1F1" height="50" rx="12.5" ry="12.5" style="stroke:#181818;stroke-width:0.5;" width="213.7578" x="55.5" y="670"/><line style="stroke:#181818;stroke-width:0.5;" x1="55.5" x2="269.2578" y1="696.2969" y2="696.2969"/><text fill="#000000" font-family="sans-serif" font-size="14" lengthAdjust="spacing" textLength="193.7578" x="65.5" y="687.9951">DOCUMENTACION_ABIERTA</text></g><!--link asociarDocumentacionAProyecto to DOCUMENTACION_ABIERTA--><g class="link" data-entity-1="asociarDocumentacionAProyecto" data-entity-2="DOCUMENTACION_ABIERTA" data-source-line="33" data-uid="lnk9" id="link_asociarDocumentacionAProyecto_DOCUMENTACION_ABIERTA"><path d="M62.04,575.27 C55.53,593.65 51.5,605 51.5,605 C51.5,605 51.5,640 51.5,640 C51.5,640 77.8942,652.846 107.4442,667.216" fill="none" id="asociarDocumentacionAProyecto-to-DOCUMENTACION_ABIERTA" style="stroke:#008000;stroke-width:1;"/><polygon fill="#008000" points="112.84,669.84,106.4956,662.3069,108.3435,667.6534,102.997,669.5013,112.84,669.84" style="stroke:#008000;stroke-width:1;"/><path d="M56.5,610 L56.5,635 L222.5,635 L222.5,620 L212.5,610 L56.5,610" fill="#FEFFDD" style="stroke:#181818;stroke-width:0.5;"/><path d="M212.5,610 L212.5,620 L222.5,620 L212.5,610" fill="#FEFFDD" style="stroke:#181818;stroke-width:0.5;"/><text fill="#000000" font-family="sans-serif" font-size="13" lengthAdjust="spacing" textLength="145.4756" x="62.5" y="627.0669">completarAsociacion()</text></g><!--link asociarDocumentacionAProyecto to DOCUMENTACION_ABIERTA--><g class="link" data-entity-1="asociarDocumentacionAProyecto" data-entity-2="DOCUMENTACION_ABIERTA" data-source-line="38" data-uid="lnk10" id="link_asociarDocumentacionAProyecto_DOCUMENTACION_ABIERTA"><path d="M224.95,575.27 C229,593.65 231.5,605 231.5,605 C231.5,605 231.5,640 231.5,640 C231.5,640 216.4658,651.7732 198.0958,666.1432" fill="none" id="asociarDocumentacionAProyecto-to-DOCUMENTACION_ABIERTA-1" style="stroke:#FF0000;stroke-width:1;"/><polygon fill="#FF0000" points="193.37,669.84,202.9233,667.4453,197.3082,666.7593,197.9942,661.1442,193.37,669.84" style="stroke:#FF0000;stroke-width:1;"/><path d="M236.5,610 L236.5,635 L393.5,635 L393.5,620 L383.5,610 L236.5,610" fill="#FEFFDD" style="stroke:#181818;stroke-width:0.5;"/><path d="M383.5,610 L383.5,620 L393.5,620 L383.5,610" fill="#FEFFDD" style="stroke:#181818;stroke-width:0.5;"/><text fill="#000000" font-family="sans-serif" font-size="13" lengthAdjust="spacing" textLength="136.2715" x="242.5" y="627.0669">rechazarAsociacion()</text></g><!--SRC=[ZPF1Re9048Rl-nGJUj4cfYzWIAXwy51jn9wCQSPbOZSkktHP3hJfktS1Mzm82Xm8xCp_V_Flaf-4oj1W2b8eicL6a6bPLY-CvHOj0UQQ2pHppOkKb4Kkj8fUZIw9M-rM8RXPCHe7yCqOkAlH2zpjkkPatJAgH4T5Jie9_7LSryPQ2YxgulwY3Hr5RasjM0DL68tnxd4Fazt3qH2f_IIyvwsqKzMgYkHKVuW9agO5FWi2YP1Spdfk0Yj8kVpQQ2gAfD4abTIw3L0_WCVPD_SLuFGGncvuId7wT0WXF_S1oGiS2UYUfWEdmyVZw8vs28aXBWxaSPHrNMQeEdTLbkXB-cYTrXwSszo1A8rIXwMtcvFiCkf_cX_6Rly9tW5RpzvU5gjjD5kkL-_HytAnsKRC8-GwpIHPDErOep5hXxzhPYWPQEKsuGE_Ufn-0G00]--></g></svg>