<svg xmlns="http://www.w3.org/2000/svg" xmlns:xlink="http://www.w3.org/1999/xlink" contentStyleType="text/css" data-diagram-type="STATE" height="605px" preserveAspectRatio="none" style="width:516px;height:605px;background:#FFFFFF;" version="1.1" viewBox="0 0 516 605" width="516px" zoomAndPan="magnify"><title>Diagrama de estados - CasoDeUso</title><defs/><g><g class="title" data-source-line="1"><text fill="#000000" font-family="sans-serif" font-size="14" font-weight="bold" lengthAdjust="spacing" textLength="271.1475" x="112.4517" y="22.9951">Diagrama de estados - CasoDeUso</text></g><path d="M19.5,44.2969 L490.5509,44.2969 A12.5,12.5 0 0 1 503.0509,56.7969 L503.0509,70.5938 L7,70.5938 L7,56.7969 A12.5,12.5 0 0 1 19.5,44.2969" fill="#F1F1F1"/><rect fill="none" height="555.2969" rx="12.5" ry="12.5" style="stroke:#181818;stroke-width:0.5;" width="496.0509" x="7" y="44.2969"/><line style="stroke:#181818;stroke-width:0.5;" x1="7" x2="503.0509" y1="70.5938" y2="70.5938"/><text fill="#000000" font-family="sans-serif" font-size="14" lengthAdjust="spacing" textLength="79.7139" x="215.1685" y="62.292">CasoDeUso</text><ellipse cx="347.86" cy="91.5938" fill="#222222" rx="10" ry="10" style="stroke:#222222;stroke-width:1;"/><g id="CasoDeUso.Identificado"><rect fill="#F1F1F1" height="50" rx="12.5" ry="12.5" style="stroke:#181818;stroke-width:0.5;" width="102.4277" x="296.86" y="138.5938"/><line style="stroke:#181818;stroke-width:0.5;" x1="296.86" x2="399.2877" y1="164.8906" y2="164.8906"/><text fill="#000000" font-family="sans-serif" font-size="14" lengthAdjust="spacing" textLength="82.4277" x="306.86" y="156.5889">Identificado</text></g><g id="CasoDeUso.Revisado"><rect fill="#F1F1F1" height="50" rx="12.5" ry="12.5" style="stroke:#181818;stroke-width:0.5;" width="83.8408" x="215.86" y="241.5938"/><line style="stroke:#181818;stroke-width:0.5;" x1="215.86" x2="299.7008" y1="267.8906" y2="267.8906"/><text fill="#000000" font-family="sans-serif" font-size="14" lengthAdjust="spacing" textLength="63.8408" x="225.86" y="259.5889">Revisado</text></g><g id="CasoDeUso.Modificado"><rect fill="#F1F1F1" height="50" rx="12.5" ry="12.5" style="stroke:#181818;stroke-width:0.5;" width="95.9678" x="209.86" y="344.5938"/><line style="stroke:#181818;stroke-width:0.5;" x1="209.86" x2="305.8278" y1="370.8906" y2="370.8906"/><text fill="#000000" font-family="sans-serif" font-size="14" lengthAdjust="spacing" textLength="75.9678" x="219.86" y="362.5889">Modificado</text></g><g id="CasoDeUso.Aprobado"><rect fill="#F1F1F1" height="50" rx="12.5" ry="12.5" style="stroke:#181818;stroke-width:0.5;" width="87.7031" x="117.86" y="412.5938"/><line style="stroke:#181818;stroke-width:0.5;" x1="117.86" x2="205.5631" y1="438.8906" y2="438.8906"/><text fill="#000000" font-family="sans-serif" font-size="14" lengthAdjust="spacing" textLength="67.7031" x="127.86" y="430.5889">Aprobado</text></g><g id="CasoDeUso.Eliminado"><rect fill="#F1F1F1" height="50" rx="12.5" ry="12.5" style="stroke:#181818;stroke-width:0.5;" width="89.0566" x="251.36" y="480.5938"/><line style="stroke:#181818;stroke-width:0.5;" x1="251.36" x2="340.4166" y1="506.8906" y2="506.8906"/><text fill="#000000" font-family="sans-serif" font-size="14" lengthAdjust="spacing" textLength="69.0566" x="261.36" y="498.5889">Eliminado</text></g><ellipse cx="214.86" cy="578.5938" fill="none" rx="11" ry="11" style="stroke:#222222;stroke-width:1;"/><ellipse cx="214.86" cy="578.5938" fill="#222222" rx="6" ry="6" style="stroke:#222222;stroke-width:1;"/><!--link *start*CasoDeUso to Identificado--><g class="link" data-entity-1=".start.CasoDeUso" data-entity-2="Identificado" data-source-line="4" data-uid="lnk4" id="link_.start.CasoDeUso_Identificado"><path d="M347.86,101.7437 C347.86,111.0138 347.86,119.7337 347.86,132.3737" fill="none" id="*start*CasoDeUso-to-Identificado" style="stroke:#181818;stroke-width:1;"/><polygon fill="#181818" points="347.86,138.3737,351.86,129.3737,347.86,133.3737,343.86,129.3737,347.86,138.3737" style="stroke:#181818;stroke-width:1;"/></g><!--link Identificado to Revisado--><g class="link" data-entity-1="Identificado" data-entity-2="Revisado" data-source-line="5" data-uid="lnk6" id="link_Identificado_Revisado"><path d="M326.3,188.7838 C312.16,204.6638 297.7106,220.8632 283.5406,236.7732" fill="none" id="Identificado-to-Revisado" style="stroke:#181818;stroke-width:1;"/><polygon fill="#181818" points="279.55,241.2538,288.5229,237.1933,282.8755,237.5199,282.5488,231.8725,279.55,241.2538" style="stroke:#181818;stroke-width:1;"/><text fill="#000000" font-family="sans-serif" font-size="13" lengthAdjust="spacing" textLength="54.8755" x="308.86" y="219.6606">revisar()</text></g><!--link Revisado to Modificado--><g class="link" data-entity-1="Revisado" data-entity-2="Modificado" data-source-line="6" data-uid="lnk8" id="link_Revisado_Modificado"><path d="M257.86,291.7838 C257.86,307.6638 257.86,322.3438 257.86,338.2537" fill="none" id="Revisado-to-Modificado" style="stroke:#181818;stroke-width:1;"/><polygon fill="#181818" points="257.86,344.2537,261.86,335.2537,257.86,339.2537,253.86,335.2537,257.86,344.2537" style="stroke:#181818;stroke-width:1;"/><text fill="#000000" font-family="sans-serif" font-size="13" lengthAdjust="spacing" textLength="71.2715" x="258.86" y="322.6606">modificar()</text></g><!--link Modificado to Revisado--><g class="link" data-entity-1="Modificado" data-entity-2="Revisado" data-source-line="7" data-uid="lnk9" id="link_Modificado_Revisado"><path d="M209.49,364.6638 C160.49,358.7038 95.3,344.1638 120.86,309.5938 C142.45,280.3838 178.0036,271.3656 209.6936,268.5456" fill="none" id="Modificado-to-Revisado" style="stroke:#181818;stroke-width:1;"/><polygon fill="#181818" points="215.67,268.0138,206.3509,264.8272,210.6897,268.4569,207.06,272.7957,215.67,268.0138" style="stroke:#181818;stroke-width:1;"/><text fill="#000000" font-family="sans-serif" font-size="13" lengthAdjust="spacing" textLength="131.0918" x="121.86" y="322.6606">completarRevision()</text></g><!--link Revisado to Aprobado--><g class="link" data-entity-1="Revisado" data-entity-2="Aprobado" data-source-line="8" data-uid="lnk11" id="link_Revisado_Aprobado"><path d="M215.43,269.9538 C160.54,273.9938 69.49,284.3938 48.86,309.5938 C18,347.2637 68.6549,386.1493 112.2749,411.1593" fill="none" id="Revisado-to-Aprobado" style="stroke:#181818;stroke-width:1;"/><polygon fill="#181818" points="117.48,414.1438,111.6619,406.1971,113.1424,411.6567,107.6827,413.1372,117.48,414.1438" style="stroke:#181818;stroke-width:1;"/><text fill="#000000" font-family="sans-serif" font-size="13" lengthAdjust="spacing" textLength="61.2231" x="49.86" y="322.6606">aprobar()</text></g><!--link Identificado to Eliminado--><g class="link" data-entity-1="Identificado" data-entity-2="Eliminado" data-source-line="9" data-uid="lnk13" id="link_Identificado_Eliminado"><path d="M366.89,188.8938 C397.69,231.3737 452.12,321.5438 421.86,394.5938 C406.3,432.1538 375.1382,458.3066 345.4982,477.2166" fill="none" id="Identificado-to-Eliminado" style="stroke:#181818;stroke-width:1;"/><polygon fill="#181818" points="340.44,480.4438,350.1788,478.9753,344.6552,477.7545,345.876,472.2309,340.44,480.4438" style="stroke:#181818;stroke-width:1;"/><text fill="#000000" font-family="sans-serif" font-size="13" lengthAdjust="spacing" textLength="63.1909" x="429.86" y="322.6606">eliminar()</text></g><!--link Revisado to Eliminado--><g class="link" data-entity-1="Revisado" data-entity-2="Eliminado" data-source-line="10" data-uid="lnk14" id="link_Revisado_Eliminado"><path d="M300.08,281.9438 C312.53,288.3638 324.72,297.3338 331.86,309.5938 C366.07,368.3538 355.45,398.8138 331.86,462.5938 C329.53,468.9038 329.4788,470.1695 325.2588,475.5595" fill="none" id="Revisado-to-Eliminado" style="stroke:#181818;stroke-width:1;"/><polygon fill="#181818" points="321.56,480.2838,330.2577,475.6632,324.6423,476.3468,323.9587,470.7315,321.56,480.2838" style="stroke:#181818;stroke-width:1;"/><text fill="#000000" font-family="sans-serif" font-size="13" lengthAdjust="spacing" textLength="63.1909" x="353.86" y="374.1606">eliminar()</text></g><!--link Modificado to Eliminado--><g class="link" data-entity-1="Modificado" data-entity-2="Eliminado" data-source-line="11" data-uid="lnk15" id="link_Modificado_Eliminado"><path d="M256.95,394.7637 C257.01,413.7637 258.8,440.5938 266.86,462.5938 C269.11,468.7537 269.2055,469.8326 272.8555,475.4126" fill="none" id="Modificado-to-Eliminado" style="stroke:#181818;stroke-width:1;"/><polygon fill="#181818" points="276.14,480.4338,274.5608,470.7123,273.4029,476.2494,267.8658,475.0916,276.14,480.4338" style="stroke:#181818;stroke-width:1;"/><text fill="#000000" font-family="sans-serif" font-size="13" lengthAdjust="spacing" textLength="63.1909" x="267.86" y="442.1606">eliminar()</text></g><!--link Aprobado to *end*CasoDeUso--><g class="link" data-entity-1="Aprobado" data-entity-2=".end.CasoDeUso" data-source-line="12" data-uid="lnk17" id="link_Aprobado_.end.CasoDeUso"><path d="M171.09,462.8038 C182.95,493.9138 200.8527,540.8673 209.0527,562.3773" fill="none" id="Aprobado-to-*end*CasoDeUso" style="stroke:#181818;stroke-width:1;"/><polygon fill="#181818" points="211.19,567.9838,211.7217,558.1493,209.4089,563.3117,204.2465,560.999,211.19,567.9838" style="stroke:#181818;stroke-width:1;"/></g><!--link Eliminado to *end*CasoDeUso--><g class="link" data-entity-1="Eliminado" data-entity-2=".end.CasoDeUso" data-source-line="13" data-uid="lnk18" id="link_Eliminado_.end.CasoDeUso"><path d="M268.44,530.6338 C252.46,544.6338 237.9617,557.3385 227.4217,566.5785" fill="none" id="Eliminado-to-*end*CasoDeUso" style="stroke:#181818;stroke-width:1;"/><polygon fill="#181818" points="222.91,570.5338,232.3145,567.6087,226.6698,567.2377,227.0408,561.593,222.91,570.5338" style="stroke:#181818;stroke-width:1;"/></g><!--SRC=[TP2z2i9048JxUuebbGfvWHI260iBcu2LMAovLHPosN1ts8ZlRkvYVaX8jpFptJ2SPryHv8mlYmP14v3pgCL12aTqajFLYLAjvmcImKa0tPZ3HzrsTqZJFPmrrPwVNBOTQYfYMj2RNH0Ps7ZQpLODPY0keli76PY_2DGac3MLOfgAFDheiTJppaDZvT6n6C_GjzXsgjXmtM7KtOjrAynismerp0XC-rzgv7hd-mC0]--></g></svg>