<svg xmlns="http://www.w3.org/2000/svg" xmlns:xlink="http://www.w3.org/1999/xlink" contentStyleType="text/css" data-diagram-type="STATE" height="726px" preserveAspectRatio="none" style="width:583px;height:726px;background:#FFFFFF;" version="1.1" viewBox="0 0 583 726" width="583px" zoomAndPan="magnify"><defs/><g><path d="M133,7 L430,7 A12.5,12.5 0 0 1 442.5,19.5 L442.5,33.2969 L120.5,33.2969 L120.5,19.5 A12.5,12.5 0 0 1 133,7" fill="#F1F1F1"/><rect fill="none" height="568.2969" rx="12.5" ry="12.5" style="stroke:#181818;stroke-width:0.5;" width="322" x="120.5" y="7"/><line style="stroke:#181818;stroke-width:0.5;" x1="120.5" x2="442.5" y1="33.2969" y2="33.2969"/><text fill="#000000" font-family="sans-serif" font-size="14" lengthAdjust="spacing" textLength="196.3691" x="183.3154" y="24.9951">generarEscenariosGherkin()</text><g id="generarEscenariosGherkin.RecuperandoInformacionFuncional"><rect fill="#F1F1F1" height="50" rx="12.5" ry="12.5" style="stroke:#181818;stroke-width:0.5;" width="50" x="132.5" y="135.2969"/><line style="stroke:#181818;stroke-width:0.5;" x1="132.5" x2="182.5" y1="161.5938" y2="161.5938"/><text fill="#000000" font-family="sans-serif" font-size="14" lengthAdjust="spacing" textLength="4.4502" x="155.2749" y="153.292">&#160;</text></g><g id="generarEscenariosGherkin.GenerandoEscenarios"><rect fill="#F1F1F1" height="50" rx="12.5" ry="12.5" style="stroke:#181818;stroke-width:0.5;" width="50" x="132.5" y="271.2969"/><line style="stroke:#181818;stroke-width:0.5;" x1="132.5" x2="182.5" y1="297.5938" y2="297.5938"/><text fill="#000000" font-family="sans-serif" font-size="14" lengthAdjust="spacing" textLength="4.4502" x="155.2749" y="289.292">&#160;</text></g><g id="generarEscenariosGherkin.RegistrandoEscenarios"><rect fill="#F1F1F1" height="50" rx="12.5" ry="12.5" style="stroke:#181818;stroke-width:0.5;" width="50" x="132.5" y="407.2969"/><line style="stroke:#181818;stroke-width:0.5;" x1="132.5" x2="182.5" y1="433.5938" y2="433.5938"/><text fill="#000000" font-family="sans-serif" font-size="14" lengthAdjust="spacing" textLength="4.4502" x="155.2749" y="425.292">&#160;</text></g><ellipse cx="157.5" cy="54.2969" fill="#222222" rx="10" ry="10" style="stroke:#222222;stroke-width:1;"/><ellipse cx="157.5" cy="554.2969" fill="none" rx="11" ry="11" style="stroke:#222222;stroke-width:1;"/><ellipse cx="157.5" cy="554.2969" fill="#222222" rx="6" ry="6" style="stroke:#222222;stroke-width:1;"/><!--link *start*generarEscenariosGherkin to RecuperandoInformacionFuncional--><g class="link" data-entity-1=".start.generarEscenariosGherkin" data-entity-2="RecuperandoInformacionFuncional" data-source-line="9" data-uid="lnk3" id="link_.start.generarEscenariosGherkin_RecuperandoInformacionFuncional"><path d="M157.5,64.5269 C157.5,80.2369 157.5,106.6569 157.5,129.1669" fill="none" id="*start*generarEscenariosGherkin-to-RecuperandoInformacionFuncional" style="stroke:#008000;stroke-width:1;"/><polygon fill="#008000" points="157.5,135.1669,161.5,126.1669,157.5,130.1669,153.5,126.1669,157.5,135.1669" style="stroke:#008000;stroke-width:1;"/><path d="M162.5,87.2969 L162.5,112.2969 L433.5,112.2969 L433.5,97.2969 L423.5,87.2969 L162.5,87.2969" fill="#FEFFDD" style="stroke:#181818;stroke-width:0.5;"/><path d="M423.5,87.2969 L423.5,97.2969 L433.5,97.2969 L423.5,87.2969" fill="#FEFFDD" style="stroke:#181818;stroke-width:0.5;"/><text fill="#000000" font-family="sans-serif" font-size="13" lengthAdjust="spacing" textLength="250.5356" x="168.5" y="104.3638">Se solicita generar escenarios Gherkin</text></g><!--link RecuperandoInformacionFuncional to GenerandoEscenarios--><g class="link" data-entity-1="RecuperandoInformacionFuncional" data-entity-2="GenerandoEscenarios" data-source-line="14" data-uid="lnk4" id="link_RecuperandoInformacionFuncional_GenerandoEscenarios"><path d="M157.5,185.5669 C157.5,209.8469 157.5,240.9869 157.5,265.2069" fill="none" id="RecuperandoInformacionFuncional-to-GenerandoEscenarios" style="stroke:#008000;stroke-width:1;"/><polygon fill="#008000" points="157.5,271.2069,161.5,262.2069,157.5,266.2069,153.5,262.2069,157.5,271.2069" style="stroke:#008000;stroke-width:1;"/><path d="M162.5,208.2969 L162.5,248.2969 L392.5,248.2969 L392.5,218.2969 L382.5,208.2969 L162.5,208.2969" fill="#FEFFDD" style="stroke:#181818;stroke-width:0.5;"/><path d="M382.5,208.2969 L382.5,218.2969 L392.5,218.2969 L382.5,208.2969" fill="#FEFFDD" style="stroke:#181818;stroke-width:0.5;"/><text fill="#000000" font-family="sans-serif" font-size="13" font-weight="bold" lengthAdjust="spacing" textLength="58.9063" x="168.5" y="225.3638">Sistema</text><text fill="#000000" font-family="sans-serif" font-size="13" lengthAdjust="spacing" textLength="146.5166" x="231.5386" y="225.3638">recupera casos de uso</text><text fill="#000000" font-family="sans-serif" font-size="13" lengthAdjust="spacing" textLength="153.9688" x="168.5" y="240.4966">y requisitos funcionales</text></g><!--link GenerandoEscenarios to RegistrandoEscenarios--><g class="link" data-entity-1="GenerandoEscenarios" data-entity-2="RegistrandoEscenarios" data-source-line="20" data-uid="lnk5" id="link_GenerandoEscenarios_RegistrandoEscenarios"><path d="M157.5,321.5669 C157.5,345.8469 157.5,376.9869 157.5,401.2069" fill="none" id="GenerandoEscenarios-to-RegistrandoEscenarios" style="stroke:#008000;stroke-width:1;"/><polygon fill="#008000" points="157.5,407.2069,161.5,398.2069,157.5,402.2069,153.5,398.2069,157.5,407.2069" style="stroke:#008000;stroke-width:1;"/><path d="M162.5,344.2969 L162.5,384.2969 L394.5,384.2969 L394.5,354.2969 L384.5,344.2969 L162.5,344.2969" fill="#FEFFDD" style="stroke:#181818;stroke-width:0.5;"/><path d="M384.5,344.2969 L384.5,354.2969 L394.5,354.2969 L384.5,344.2969" fill="#FEFFDD" style="stroke:#181818;stroke-width:0.5;"/><text fill="#000000" font-family="sans-serif" font-size="13" font-weight="bold" lengthAdjust="spacing" textLength="58.9063" x="168.5" y="361.3638">Sistema</text><text fill="#000000" font-family="sans-serif" font-size="13" lengthAdjust="spacing" textLength="148.5859" x="231.5386" y="361.3638">procesa la informacion</text><text fill="#000000" font-family="sans-serif" font-size="13" lengthAdjust="spacing" textLength="154.0322" x="168.5" y="376.4966">y genera los escenarios</text></g><!--link RegistrandoEscenarios to *end*generarEscenariosGherkin--><g class="link" data-entity-1="RegistrandoEscenarios" data-entity-2=".end.generarEscenariosGherkin" data-source-line="26" data-uid="lnk7" id="link_RegistrandoEscenarios_.end.generarEscenariosGherkin"><path d="M157.5,457.5769 C157.5,483.8769 157.5,518.5669 157.5,537.2769" fill="none" id="RegistrandoEscenarios-to-*end*generarEscenariosGherkin" style="stroke:#008000;stroke-width:1;"/><polygon fill="#008000" points="157.5,543.2769,161.5,534.2769,157.5,538.2769,153.5,534.2769,157.5,543.2769" style="stroke:#008000;stroke-width:1;"/><path d="M162.5,480.2969 L162.5,520.2969 L392.5,520.2969 L392.5,490.2969 L382.5,480.2969 L162.5,480.2969" fill="#FEFFDD" style="stroke:#181818;stroke-width:0.5;"/><path d="M382.5,480.2969 L382.5,490.2969 L392.5,490.2969 L382.5,480.2969" fill="#FEFFDD" style="stroke:#181818;stroke-width:0.5;"/><text fill="#000000" font-family="sans-serif" font-size="13" font-weight="bold" lengthAdjust="spacing" textLength="58.9063" x="168.5" y="497.3638">Sistema</text><text fill="#000000" font-family="sans-serif" font-size="13" lengthAdjust="spacing" textLength="146.7959" x="231.5386" y="497.3638">registra los escenarios</text><text fill="#000000" font-family="sans-serif" font-size="13" lengthAdjust="spacing" textLength="123.9443" x="168.5" y="512.4966">Gherkin generados</text></g><g id="ESCENARIOS_GHERKIN_ABIERTO"><rect fill="#F1F1F1" height="50" rx="12.5" ry="12.5" style="stroke:#181818;stroke-width:0.5;" width="249.3525" x="7" y="670"/><line style="stroke:#181818;stroke-width:0.5;" x1="7" x2="256.3525" y1="696.2969" y2="696.2969"/><text fill="#000000" font-family="sans-serif" font-size="14" lengthAdjust="spacing" textLength="229.3525" x="17" y="687.9951">ESCENARIOS_GHERKIN_ABIERTO</text></g><g id="REQUISITOS_FUNCIONALES_ABIERTO"><rect fill="#F1F1F1" height="50" rx="12.5" ry="12.5" style="stroke:#181818;stroke-width:0.5;" width="280.1758" x="291.5" y="670"/><line style="stroke:#181818;stroke-width:0.5;" x1="291.5" x2="571.6758" y1="696.2969" y2="696.2969"/><text fill="#000000" font-family="sans-serif" font-size="14" lengthAdjust="spacing" textLength="260.1758" x="301.5" y="687.9951">REQUISITOS_FUNCIONALES_ABIERTO</text></g><!--link generarEscenariosGherkin to ESCENARIOS_GHERKIN_ABIERTO--><g class="link" data-entity-1="generarEscenariosGherkin" data-entity-2="ESCENARIOS_GHERKIN_ABIERTO" data-source-line="33" data-uid="lnk9" id="link_generarEscenariosGherkin_ESCENARIOS_GHERKIN_ABIERTO"><path d="M175.9,575.02 C161.3,614.15 150.6573,642.6485 142.6173,664.1985" fill="none" id="generarEscenariosGherkin-to-ESCENARIOS_GHERKIN_ABIERTO" style="stroke:#008000;stroke-width:1;"/><polygon fill="#008000" points="140.52,669.82,147.4136,662.7859,142.2678,665.1354,139.9183,659.9895,140.52,669.82" style="stroke:#008000;stroke-width:1;"/><path d="M169.5,610 L169.5,635 L340.5,635 L340.5,620 L330.5,610 L169.5,610" fill="#FEFFDD" style="stroke:#181818;stroke-width:0.5;"/><path d="M330.5,610 L330.5,620 L340.5,620 L330.5,610" fill="#FEFFDD" style="stroke:#181818;stroke-width:0.5;"/><text fill="#000000" font-family="sans-serif" font-size="13" lengthAdjust="spacing" textLength="150.7505" x="175.5" y="627.0669">completarGeneracion()</text></g><!--link generarEscenariosGherkin to REQUISITOS_FUNCIONALES_ABIERTO--><g class="link" data-entity-1="generarEscenariosGherkin" data-entity-2="REQUISITOS_FUNCIONALES_ABIERTO" data-source-line="38" data-uid="lnk11" id="link_generarEscenariosGherkin_REQUISITOS_FUNCIONALES_ABIERTO"><path d="M387.1,575.02 C401.7,614.15 412.3427,642.6485 420.3827,664.1985" fill="none" id="generarEscenariosGherkin-to-REQUISITOS_FUNCIONALES_ABIERTO" style="stroke:#FF0000;stroke-width:1;"/><polygon fill="#FF0000" points="422.48,669.82,423.0817,659.9895,420.7322,665.1354,415.5864,662.7859,422.48,669.82" style="stroke:#FF0000;stroke-width:1;"/><path d="M414.5,610 L414.5,635 L576.5,635 L576.5,620 L566.5,610 L414.5,610" fill="#FEFFDD" style="stroke:#181818;stroke-width:0.5;"/><path d="M566.5,610 L566.5,620 L576.5,620 L566.5,610" fill="#FEFFDD" style="stroke:#181818;stroke-width:0.5;"/><text fill="#000000" font-family="sans-serif" font-size="13" lengthAdjust="spacing" textLength="141.5464" x="420.5" y="627.0669">rechazarGeneracion()</text></g><!--SRC=[ZPDHRu8m4CVV-oakxaMNc7q1O-8CEh85Cz0dOvOJJcs4bhNmu9PzznsWSo1kbeU6zkv-__ktjNkfKZIOG2mLPOUK8DNneVWHmcQO4Mn9aK7Zs90K6gdjT4U6qm0jTAvjTdiT-1G2U5HLElnnWazXddA6YhIhDjea64gj9hag9eml4wObWCFFYBQgMscpPbWPjxnVGNzvjpL4QjKVtYH0QIwjLM79lbm82AoEPIWpFDa1z0E2OyzbAAcepA_e_z1gogvrUg5ci1u6t2ubE7XO3y4S6H2YPJ4HGMvr6NZWlVTSMfdn-kO49TiYj0NUiAtDuLlafKQ7P15Y17csuAYlCXDYfb6zRDF75dnD89_pZMvLbTgOfujTgOgQIhw4kFeMVajnWh7ZZNnt5hnDdnp_sVNUHe-kuyzdegOkr4aQKuQcCh-mfTiJvyR_WXcAocDnNXTkuCuPDLbuOtVcZLwSe1t7zsI77rTetm00]--></g></svg>