<svg xmlns="http://www.w3.org/2000/svg" xmlns:xlink="http://www.w3.org/1999/xlink" contentStyleType="text/css" data-diagram-type="DESCRIPTION" height="316px" preserveAspectRatio="none" style="width:361px;height:316px;background:#FFFFFF;" version="1.1" viewBox="0 0 361 316" width="361px" zoomAndPan="magnify"><?plantuml 1.2026.3beta4?><defs/><g><!--entity Camarero--><g class="entity" data-qualified-name="Camarero" data-source-line="3" id="ent0002"><ellipse cx="96.6209" cy="236" fill="#F1F1F1" rx="8" ry="8" style="stroke:#181818;stroke-width:0.5;"/><path d="M96.6209,244 L96.6209,271 M83.6209,252 L109.6209,252 M96.6209,271 L83.6209,286 M96.6209,271 L109.6209,286" fill="none" style="stroke:#181818;stroke-width:0.5;"/><text fill="#000000" font-family="sans-serif" font-size="14" lengthAdjust="spacing" textLength="69.2617" x="61.99" y="300.4951">Camarero</text></g><!--entity Administrador--><g class="entity" data-qualified-name="Administrador" data-source-line="4" id="ent0003"><ellipse cx="296.77" cy="236" fill="#F1F1F1" rx="8" ry="8" style="stroke:#181818;stroke-width:0.5;"/><path d="M296.77,244 L296.77,271 M283.77,252 L309.77,252 M296.77,271 L283.77,286 M296.77,271 L309.77,286" fill="none" style="stroke:#181818;stroke-width:0.5;"/><text fill="#000000" font-family="sans-serif" font-size="14" lengthAdjust="spacing" textLength="99.0801" x="247.23" y="300.4951">Administrador</text></g><!--entity Cocinero--><g class="entity" data-qualified-name="Cocinero" data-source-line="5" id="ent0004"><ellipse cx="96.6177" cy="125" fill="#F1F1F1" rx="8" ry="8" style="stroke:#181818;stroke-width:0.5;"/><path d="M96.6177,133 L96.6177,160 M83.6177,141 L109.6177,141 M96.6177,160 L83.6177,175 M96.6177,160 L109.6177,175" fill="none" style="stroke:#181818;stroke-width:0.5;"/><text fill="#000000" font-family="sans-serif" font-size="14" lengthAdjust="spacing" textLength="61.7354" x="65.75" y="189.4951">Cocinero</text></g><!--entity SIS--><g class="entity" data-qualified-name="SIS" data-source-line="6" id="ent0005"><ellipse cx="96.6172" cy="14" fill="#F1F1F1" rx="8" ry="8" style="stroke:#181818;stroke-width:0.5;"/><path d="M96.6172,22 L96.6172,49 M83.6172,30 L109.6172,30 M96.6172,49 L83.6172,64 M96.6172,49 L109.6172,64" fill="none" style="stroke:#181818;stroke-width:0.5;"/><text fill="#000000" font-family="sans-serif" font-size="14" lengthAdjust="spacing" textLength="181.2344" x="6" y="78.4951">Sistema de Notificaciones</text></g><!--reverse link Camarero to Administrador--><g class="link" data-entity-1="ent0002" data-entity-2="ent0003" data-link-type="extension" data-source-line="8" id="lnk6"><path d="M149.68,265.65 C181.44,265.65 211.15,265.65 246.96,265.65" fill="none" id="Camarero-backto-Administrador" style="stroke:#181818;stroke-width:1;"/><polygon fill="none" points="131.68,265.65,149.68,271.65,149.68,259.65,131.68,265.65" style="stroke:#181818;stroke-width:1;"/></g><?plantuml-src LSmn2iCm38NXtQTuPCyDifHENRBu14AMKq5iWQmnXw-7XjBnyNw-KseW3Ax7Er3KXKEjfqGSvdXI8nUtxtoKfbr7E1NpEp7M_akMF7zfX2BOBRGg4qzHnW8QoA-SqgrYkzRr7_q0?></g></svg>