<svg xmlns="http://www.w3.org/2000/svg" xmlns:xlink="http://www.w3.org/1999/xlink" contentStyleType="text/css" data-diagram-type="DESCRIPTION" height="1856px" preserveAspectRatio="none" style="width:667px;height:1856px;background:#FFFFFF;" version="1.1" viewBox="0 0 667 1856" width="667px" zoomAndPan="magnify"><?plantuml 1.2026.3beta6?><defs/><g><!--cluster Autenticaci?n--><g class="cluster" data-qualified-name="Autenticaci.n" data-source-line="7" id="ent0005"><rect fill="none" height="449" rx="2.5" ry="2.5" style="stroke:#181818;stroke-width:1;" width="431.32" x="218.15" y="1393"/><text fill="#000000" font-family="sans-serif" font-size="14" font-weight="700" lengthAdjust="spacing" textLength="108.876" x="379.372" y="1407.9951">Autenticaci&#243;n</text></g><!--cluster Comandas--><g class="cluster" data-qualified-name="Comandas" data-source-line="13" id="ent0010"><rect fill="none" height="543" rx="2.5" ry="2.5" style="stroke:#181818;stroke-width:1;" width="439.46" x="214.08" y="7"/><text fill="#000000" font-family="sans-serif" font-size="14" font-weight="700" lengthAdjust="spacing" textLength="81.6963" x="392.9619" y="21.9951">Comandas</text></g><!--cluster Tickets--><g class="cluster" data-qualified-name="Tickets" data-source-line="20" id="ent0016"><rect fill="none" height="437" rx="2.5" ry="2.5" style="stroke:#181818;stroke-width:1;" width="409.28" x="229.17" y="574"/><text fill="#000000" font-family="sans-serif" font-size="14" font-weight="700" lengthAdjust="spacing" textLength="56.4785" x="405.5707" y="588.9951">Tickets</text></g><!--cluster Reservas--><g class="cluster" data-qualified-name="Reservas" data-source-line="26" id="ent0021"><rect fill="none" height="334" rx="2.5" ry="2.5" style="stroke:#181818;stroke-width:1;" width="407.24" x="230.19" y="1035"/><text fill="#000000" font-family="sans-serif" font-size="14" font-weight="700" lengthAdjust="spacing" textLength="71.9141" x="397.853" y="1049.9951">Reservas</text></g><!--entity CU01--><g class="entity" data-qualified-name="Autenticaci.n.CU01" data-source-line="8" id="ent0006"><ellipse cx="433.8085" cy="1447.0037" fill="#F1F1F1" rx="83.6185" ry="19.1237" style="stroke:#181818;stroke-width:0.5;"/><text fill="#000000" font-family="sans-serif" font-size="14" lengthAdjust="spacing" textLength="139.1318" x="364.2426" y="1451.6521">CU-01 Iniciar sesi&#243;n</text></g><!--entity CUN01--><g class="entity" data-qualified-name="Autenticaci.n.CUN01" data-source-line="9" id="ent0007"><ellipse cx="433.8073" cy="1560.0015" fill="#F1F1F1" rx="199.6573" ry="42.3315" style="stroke:#181818;stroke-width:0.5;"/><text fill="#000000" font-family="sans-serif" font-size="14" lengthAdjust="spacing" textLength="384.7813" x="241.4166" y="1564.6499">CU-N01 Acceso denegado por credenciales incorrectas</text></g><!--entity CUN02--><g class="entity" data-qualified-name="Autenticaci.n.CUN02" data-source-line="10" id="ent0008"><ellipse cx="433.8123" cy="1788.0025" fill="#F1F1F1" rx="179.5623" ry="38.3125" style="stroke:#181818;stroke-width:0.5;"/><text fill="#000000" font-family="sans-serif" font-size="14" lengthAdjust="spacing" textLength="343.5947" x="262.015" y="1792.6509">CU-N02 Operaci&#243;n bloqueada por rol insuficiente</text></g><!--entity CUN10--><g class="entity" data-qualified-name="Autenticaci.n.CUN10" data-source-line="11" id="ent0009"><ellipse cx="433.8134" cy="1676.0047" fill="#F1F1F1" rx="179.1234" ry="38.2247" style="stroke:#181818;stroke-width:0.5;"/><text fill="#000000" font-family="sans-serif" font-size="14" lengthAdjust="spacing" textLength="342.6924" x="262.4672" y="1680.6531">CU-N10 Desbloquear cuenta por intentos fallidos</text></g><!--entity CU06--><g class="entity" data-qualified-name="Comandas.CU06" data-source-line="14" id="ent0011"><ellipse cx="433.8141" cy="62.9968" fill="#F1F1F1" rx="93.5341" ry="21.1068" style="stroke:#181818;stroke-width:0.5;"/><text fill="#000000" font-family="sans-serif" font-size="14" lengthAdjust="spacing" textLength="161.6973" x="352.9655" y="67.6453">CU-06 Tomar comanda</text></g><!--entity CU08--><g class="entity" data-qualified-name="Comandas.CU08" data-source-line="15" id="ent0012"><ellipse cx="433.811" cy="382.0022" fill="#F1F1F1" rx="91.911" ry="20.7822" style="stroke:#181818;stroke-width:0.5;"/><text fill="#000000" font-family="sans-serif" font-size="14" lengthAdjust="spacing" textLength="158.0537" x="354.7842" y="386.6506">CU-08 Editar comanda</text></g><!--entity CUN03--><g class="entity" data-qualified-name="Comandas.CUN03" data-source-line="16" id="ent0013"><ellipse cx="433.8085" cy="178.9957" fill="#F1F1F1" rx="203.7285" ry="43.1457" style="stroke:#181818;stroke-width:0.5;"/><text fill="#000000" font-family="sans-serif" font-size="14" lengthAdjust="spacing" textLength="393.1006" x="237.2582" y="183.6441">CU-N03 Comanda rechazada por al&#233;rgenos incompletos</text></g><!--entity CUN05--><g class="entity" data-qualified-name="Comandas.CUN05" data-source-line="17" id="ent0014"><ellipse cx="433.8072" cy="493.9954" fill="#F1F1F1" rx="186.2772" ry="39.6554" style="stroke:#181818;stroke-width:0.5;"/><text fill="#000000" font-family="sans-serif" font-size="14" lengthAdjust="spacing" textLength="357.3828" x="255.1158" y="498.6439">CU-N05 Edici&#243;n bloqueada de l&#237;nea en preparaci&#243;n</text></g><!--entity CUN07--><g class="entity" data-qualified-name="Comandas.CUN07" data-source-line="18" id="ent0015"><ellipse cx="433.8101" cy="291.998" fill="#F1F1F1" rx="160.9901" ry="34.598" style="stroke:#181818;stroke-width:0.5;"/><text fill="#000000" font-family="sans-serif" font-size="14" lengthAdjust="spacing" textLength="305.293" x="281.1636" y="296.6465">CU-N07 Restringir pedido por falta de stock</text></g><!--entity CU14--><g class="entity" data-qualified-name="Tickets.CU14" data-source-line="21" id="ent0017"><ellipse cx="433.809" cy="631.9978" fill="#F1F1F1" rx="102.489" ry="22.8978" style="stroke:#181818;stroke-width:0.5;"/><text fill="#000000" font-family="sans-serif" font-size="14" lengthAdjust="spacing" textLength="181.5283" x="343.0448" y="636.6462">CU-14 Enviar ticket a caja</text></g><!--entity CU17--><g class="entity" data-qualified-name="Tickets.CU17" data-source-line="22" id="ent0018"><ellipse cx="433.8102" cy="838.998" fill="#F1F1F1" rx="107.9902" ry="23.998" style="stroke:#181818;stroke-width:0.5;"/><text fill="#000000" font-family="sans-serif" font-size="14" lengthAdjust="spacing" textLength="193.5254" x="337.0475" y="843.6465">CU-17 Cobrar ticket en caja</text></g><!--entity CUN06--><g class="entity" data-qualified-name="Tickets.CUN06" data-source-line="23" id="ent0019"><ellipse cx="433.807" cy="742.9954" fill="#F1F1F1" rx="173.177" ry="37.0354" style="stroke:#181818;stroke-width:0.5;"/><text fill="#000000" font-family="sans-serif" font-size="14" lengthAdjust="spacing" textLength="330.4561" x="268.579" y="747.6438">CU-N06 Ticket rechazado por mesa ya cobrada</text></g><!--entity CUN08--><g class="entity" data-qualified-name="Tickets.CUN08" data-source-line="24" id="ent0020"><ellipse cx="433.8074" cy="954.9975" fill="#F1F1F1" rx="188.6374" ry="40.1275" style="stroke:#181818;stroke-width:0.5;"/><text fill="#000000" font-family="sans-serif" font-size="14" lengthAdjust="spacing" textLength="362.2227" x="252.6961" y="959.6459">CU-N08 Anular ticket ya cobrado por error de cobro</text></g><!--entity CU19--><g class="entity" data-qualified-name="Reservas.CU19" data-source-line="27" id="ent0022"><ellipse cx="433.8112" cy="1092.9982" fill="#F1F1F1" rx="101.7412" ry="22.7482" style="stroke:#181818;stroke-width:0.5;"/><text fill="#000000" font-family="sans-serif" font-size="14" lengthAdjust="spacing" textLength="179.8877" x="343.8673" y="1097.6467">CU-19 Gestionar reservas</text></g><!--entity CUN04--><g class="entity" data-qualified-name="Reservas.CUN04" data-source-line="28" id="ent0023"><ellipse cx="433.8071" cy="1313.0034" fill="#F1F1F1" rx="187.6171" ry="39.9234" style="stroke:#181818;stroke-width:0.5;"/><text fill="#000000" font-family="sans-serif" font-size="14" lengthAdjust="spacing" textLength="360.1309" x="253.7417" y="1317.6519">CU-N04 Reserva rechazada por conflicto de horario</text></g><!--entity CUN09--><g class="entity" data-qualified-name="Reservas.CUN09" data-source-line="29" id="ent0024"><ellipse cx="433.8138" cy="1202.9968" fill="#F1F1F1" rx="164.4338" ry="35.2868" style="stroke:#181818;stroke-width:0.5;"/><text fill="#000000" font-family="sans-serif" font-size="14" lengthAdjust="spacing" textLength="312.416" x="277.6058" y="1207.6452">CU-N09 Marcar reserva como no presentado</text></g><!--entity Camarero--><g class="entity" data-qualified-name="Camarero" data-source-line="3" id="ent0002"><ellipse cx="55.5409" cy="126.35" fill="#F1F1F1" rx="8" ry="8" style="stroke:#181818;stroke-width:0.5;"/><path d="M55.5409,134.35 L55.5409,161.35 M42.5409,142.35 L68.5409,142.35 M55.5409,161.35 L42.5409,176.35 M55.5409,161.35 L68.5409,176.35" fill="none" style="stroke:#181818;stroke-width:0.5;"/><text fill="#000000" font-family="sans-serif" font-size="14" lengthAdjust="spacing" textLength="69.2617" x="20.91" y="190.8451">Camarero</text></g><!--entity Administrador--><g class="entity" data-qualified-name="Administrador" data-source-line="4" id="ent0003"><ellipse cx="55.54" cy="1167.35" fill="#F1F1F1" rx="8" ry="8" style="stroke:#181818;stroke-width:0.5;"/><path d="M55.54,1175.35 L55.54,1202.35 M42.54,1183.35 L68.54,1183.35 M55.54,1202.35 L42.54,1217.35 M55.54,1202.35 L68.54,1217.35" fill="none" style="stroke:#181818;stroke-width:0.5;"/><text fill="#000000" font-family="sans-serif" font-size="14" lengthAdjust="spacing" textLength="99.0801" x="6" y="1231.8451">Administrador</text></g><!--entity Cocinero--><g class="entity" data-qualified-name="Cocinero" data-source-line="5" id="ent0004"><ellipse cx="55.5377" cy="1539.35" fill="#F1F1F1" rx="8" ry="8" style="stroke:#181818;stroke-width:0.5;"/><path d="M55.5377,1547.35 L55.5377,1574.35 M42.5377,1555.35 L68.5377,1555.35 M55.5377,1574.35 L42.5377,1589.35 M55.5377,1574.35 L68.5377,1589.35" fill="none" style="stroke:#181818;stroke-width:0.5;"/><text fill="#000000" font-family="sans-serif" font-size="14" lengthAdjust="spacing" textLength="61.7354" x="24.67" y="1603.8451">Cocinero</text></g><!--link Camarero to CU01--><g class="link" data-entity-1="ent0002" data-entity-2="ent0006" data-link-type="dependency" data-source-line="32" id="lnk25"><path d="M90.63,173.7 C130.53,194.77 191.97,228.42 198.08,239 C213.78,266.18 187.76,1343.51 206.08,1369 C239.31,1415.22 295.7984,1433.4166 346.7484,1441.1766" fill="none" id="Camarero-to-CU01" style="stroke:#181818;stroke-width:1;"/><polygon fill="#181818" points="352.68,1442.08,344.3849,1436.7705,347.737,1441.3272,343.1803,1444.6793,352.68,1442.08" style="stroke:#181818;stroke-width:1;"/></g><!--link Camarero to CU06--><g class="link" data-entity-1="ent0002" data-entity-2="ent0011" data-link-type="dependency" data-source-line="33" id="lnk26"><path d="M90.28,131.9 C103.66,123.42 119.53,114.61 135.08,109 C202.11,84.81 276.1544,73.8801 336.3444,68.4401" fill="none" id="Camarero-to-CU06" style="stroke:#181818;stroke-width:1;"/><polygon fill="#181818" points="342.32,67.9,332.9965,64.7264,337.3403,68.3501,333.7166,72.6939,342.32,67.9" style="stroke:#181818;stroke-width:1;"/></g><!--link Camarero to CU08--><g class="link" data-entity-1="ent0002" data-entity-2="ent0012" data-link-type="dependency" data-source-line="34" id="lnk27"><path d="M90.6,144.47 C122.77,135.98 170.14,130.04 198.08,157 C213.05,171.44 192.31,328.42 206.08,344 C241.5,384.08 295.9611,392.7274 345.5411,391.7574" fill="none" id="Camarero-to-CU08" style="stroke:#181818;stroke-width:1;"/><polygon fill="#181818" points="351.54,391.64,342.4635,387.8168,346.541,391.7378,342.62,395.8153,351.54,391.64" style="stroke:#181818;stroke-width:1;"/></g><!--link Camarero to CU14--><g class="link" data-entity-1="ent0002" data-entity-2="ent0017" data-link-type="dependency" data-source-line="35" id="lnk28"><path d="M90.51,155.53 C123.81,157.1 173.1,165.31 198.08,198 C209.96,213.54 194.66,534.12 206.08,550 C236.56,592.4 285.2942,611.7354 333.2842,621.6554" fill="none" id="Camarero-to-CU14" style="stroke:#181818;stroke-width:1;"/><polygon fill="#181818" points="339.16,622.87,331.1561,617.1309,334.2635,621.8578,329.5366,624.9653,339.16,622.87" style="stroke:#181818;stroke-width:1;"/></g><!--link Administrador to CU01--><g class="link" data-entity-1="ent0003" data-entity-2="ent0006" data-link-type="dependency" data-source-line="36" id="lnk29"><path d="M60.54,1235.63 C69.21,1310.93 92.48,1472.87 135.08,1506 C157.18,1523.19 171.52,1514.85 198.08,1506 C202.3,1504.59 202.05,1501.88 206.08,1500 C254.8,1477.27 308.1722,1464.8398 353.9122,1457.1898" fill="none" id="Administrador-to-CU01" style="stroke:#181818;stroke-width:1;"/><polygon fill="#181818" points="359.83,1456.2,350.2935,1453.7394,354.8985,1457.0248,351.6131,1461.6298,359.83,1456.2" style="stroke:#181818;stroke-width:1;"/></g><!--link Administrador to CU17--><g class="link" data-entity-1="ent0003" data-entity-2="ent0018" data-link-type="dependency" data-source-line="37" id="lnk30"><path d="M105.29,1181.51 C141.7,1168.86 187,1150.45 198.08,1134 C212.8,1112.15 189.57,917.54 206.08,897 C234.65,861.45 275.8195,846.7732 319.7095,840.5432" fill="none" id="Administrador-to-CU17" style="stroke:#181818;stroke-width:1;"/><polygon fill="#181818" points="325.65,839.7,316.1772,837.0045,320.6996,840.4027,317.3015,844.9251,325.65,839.7" style="stroke:#181818;stroke-width:1;"/></g><!--link Administrador to CU19--><g class="link" data-entity-1="ent0003" data-entity-2="ent0022" data-link-type="dependency" data-source-line="38" id="lnk31"><path d="M105.42,1201.53 C135.45,1201.64 172.85,1196.58 198.08,1175 C206.95,1167.42 197.57,1157.98 206.08,1150 C240.11,1118.06 283.3857,1104.1956 327.2757,1097.6456" fill="none" id="Administrador-to-CU19" style="stroke:#181818;stroke-width:1;"/><polygon fill="#181818" points="333.21,1096.76,323.7182,1094.1322,328.2648,1097.498,324.899,1102.0446,333.21,1096.76" style="stroke:#181818;stroke-width:1;"/></g><!--link Cocinero to CU01--><g class="link" data-entity-1="ent0004" data-entity-2="ent0006" data-link-type="dependency" data-source-line="39" id="lnk32"><path d="M86.69,1573.58 C118.81,1576.61 168.95,1575.72 198.08,1547 C213.17,1532.13 191.56,1515.43 206.08,1500 C242.57,1461.21 295.5745,1448.7271 344.2245,1445.3371" fill="none" id="Cocinero-to-CU01" style="stroke:#181818;stroke-width:1;"/><polygon fill="#181818" points="350.21,1444.92,340.9537,1441.5553,345.2221,1445.2676,341.5098,1449.5359,350.21,1444.92" style="stroke:#181818;stroke-width:1;"/></g><!--link CUN01 to CU01--><g class="link" data-entity-1="ent0007" data-entity-2="ent0006" data-link-type="dependency" data-source-line="41" id="lnk33"><path d="M433.81,1517.28 C433.81,1499.78 433.81,1486.4 433.81,1472.43" fill="none" id="CUN01-to-CU01" style="stroke:#181818;stroke-width:1;stroke-dasharray:7,7;"/><polygon fill="#181818" points="433.81,1466.43,429.81,1475.43,433.81,1471.43,437.81,1475.43,433.81,1466.43" style="stroke:#181818;stroke-width:1;"/><text fill="#000000" font-family="sans-serif" font-size="13" lengthAdjust="spacing" textLength="61.1851" x="391.81" y="1496.4669">&#171;extend&#187;</text></g><!--link CUN02 to CU01--><g class="link" data-entity-1="ent0008" data-entity-2="ent0006" data-link-type="dependency" data-source-line="42" id="lnk34"><path d="M268.45,1772.88 C244.74,1763.98 222.78,1750.93 206.08,1732 C133.78,1650.02 108.67,1570.65 179.62,1487.5 C223.78,1435.74 299.3401,1430.7391 358.1801,1435.5691" fill="none" id="CUN02-to-CU01" style="stroke:#181818;stroke-width:1;stroke-dasharray:7,7;"/><polygon fill="#181818" points="364.16,1436.06,355.5174,1431.3371,359.1768,1435.6509,354.8629,1439.3103,364.16,1436.06" style="stroke:#181818;stroke-width:1;"/><text fill="#000000" font-family="sans-serif" font-size="13" lengthAdjust="spacing" textLength="61.1851" x="136.08" y="1500.5669">&#171;extend&#187;</text></g><!--link CUN10 to CU01--><g class="link" data-entity-1="ent0009" data-entity-2="ent0006" data-link-type="dependency" data-source-line="43" id="lnk35"><path d="M270.51,1660.11 C246.33,1651.33 223.68,1638.52 206.08,1620 C158.09,1569.5 132.18,1516.52 179.62,1465.5 C229.41,1411.95 314.9683,1418.5957 373.5283,1430.9057" fill="none" id="CUN10-to-CU01" style="stroke:#181818;stroke-width:1;stroke-dasharray:7,7;"/><polygon fill="#181818" points="379.4,1432.14,371.4154,1426.3741,374.5069,1431.1114,369.7696,1434.203,379.4,1432.14" style="stroke:#181818;stroke-width:1;"/><text fill="#000000" font-family="sans-serif" font-size="13" lengthAdjust="spacing" textLength="61.1851" x="136.08" y="1478.5669">&#171;extend&#187;</text></g><!--link CUN03 to CU06--><g class="link" data-entity-1="ent0013" data-entity-2="ent0011" data-link-type="dependency" data-source-line="44" id="lnk36"><path d="M433.81,135.48 C433.81,117.99 433.81,104.63 433.81,90.32" fill="none" id="CUN03-to-CU06" style="stroke:#181818;stroke-width:1;stroke-dasharray:7,7;"/><polygon fill="#181818" points="433.81,84.32,429.81,93.32,433.81,89.32,437.81,93.32,433.81,84.32" style="stroke:#181818;stroke-width:1;"/><text fill="#000000" font-family="sans-serif" font-size="13" lengthAdjust="spacing" textLength="61.1851" x="391.81" y="114.5469">&#171;extend&#187;</text></g><!--link CUN07 to CU06--><g class="link" data-entity-1="ent0015" data-entity-2="ent0011" data-link-type="dependency" data-source-line="45" id="lnk37"><path d="M284.38,305.3 C244.79,300.77 205.84,287.52 179.62,257.5 C165.71,241.58 122.01,204.14 206.08,118 C240.6,82.64 287.6868,69.1133 333.8968,63.9733" fill="none" id="CUN07-to-CU06" style="stroke:#181818;stroke-width:1;stroke-dasharray:7,7;"/><polygon fill="#181818" points="339.86,63.31,330.473,60.3295,334.8906,63.8627,331.3574,68.2804,339.86,63.31" style="stroke:#181818;stroke-width:1;"/><text fill="#000000" font-family="sans-serif" font-size="13" lengthAdjust="spacing" textLength="61.1851" x="136.08" y="253.5669">&#171;extend&#187;</text></g><!--link CUN05 to CU08--><g class="link" data-entity-1="ent0014" data-entity-2="ent0012" data-link-type="dependency" data-source-line="46" id="lnk38"><path d="M433.81,453.88 C433.81,436.68 433.81,423.31 433.81,409.01" fill="none" id="CUN05-to-CU08" style="stroke:#181818;stroke-width:1;stroke-dasharray:7,7;"/><polygon fill="#181818" points="433.81,403.01,429.81,412.01,433.81,408.01,437.81,412.01,433.81,403.01" style="stroke:#181818;stroke-width:1;"/><text fill="#000000" font-family="sans-serif" font-size="13" lengthAdjust="spacing" textLength="61.1851" x="391.81" y="433.1269">&#171;extend&#187;</text></g><!--link CUN06 to CU14--><g class="link" data-entity-1="ent0019" data-entity-2="ent0017" data-link-type="dependency" data-source-line="47" id="lnk39"><path d="M433.81,705.73 C433.81,688.98 433.81,675.73 433.81,661.1" fill="none" id="CUN06-to-CU14" style="stroke:#181818;stroke-width:1;stroke-dasharray:7,7;"/><polygon fill="#181818" points="433.81,655.1,429.81,664.1,433.81,660.1,437.81,664.1,433.81,655.1" style="stroke:#181818;stroke-width:1;"/><text fill="#000000" font-family="sans-serif" font-size="13" lengthAdjust="spacing" textLength="61.1851" x="391.81" y="684.9969">&#171;extend&#187;</text></g><!--link CUN08 to CU17--><g class="link" data-entity-1="ent0020" data-entity-2="ent0018" data-link-type="dependency" data-source-line="48" id="lnk40"><path d="M433.81,914.43 C433.81,897.44 433.81,884.26 433.81,869.49" fill="none" id="CUN08-to-CU17" style="stroke:#181818;stroke-width:1;stroke-dasharray:7,7;"/><polygon fill="#181818" points="433.81,863.49,429.81,872.49,433.81,868.49,437.81,872.49,433.81,863.49" style="stroke:#181818;stroke-width:1;"/><text fill="#000000" font-family="sans-serif" font-size="13" lengthAdjust="spacing" textLength="61.1851" x="391.81" y="893.5069">&#171;extend&#187;</text></g><!--link CUN04 to CU19--><g class="link" data-entity-1="ent0023" data-entity-2="ent0022" data-link-type="dependency" data-source-line="49" id="lnk41"><path d="M266.77,1294.52 C244.07,1285.74 222.86,1273.36 206.08,1256 C161.92,1210.31 136.71,1162.37 179.62,1115.5 C224.71,1066.24 298.912,1066.2632 357.182,1075.3732" fill="none" id="CUN04-to-CU19" style="stroke:#181818;stroke-width:1;stroke-dasharray:7,7;"/><polygon fill="#181818" points="363.11,1076.3,354.8359,1070.9578,358.17,1075.5277,353.6002,1078.8618,363.11,1076.3" style="stroke:#181818;stroke-width:1;"/><text fill="#000000" font-family="sans-serif" font-size="13" lengthAdjust="spacing" textLength="61.1851" x="136.08" y="1128.5669">&#171;extend&#187;</text></g><!--link CUN09 to CU19--><g class="link" data-entity-1="ent0024" data-entity-2="ent0022" data-link-type="dependency" data-source-line="50" id="lnk42"><path d="M433.81,1167.29 C433.81,1150.47 433.81,1136.91 433.81,1122.08" fill="none" id="CUN09-to-CU19" style="stroke:#181818;stroke-width:1;stroke-dasharray:7,7;"/><polygon fill="#181818" points="433.81,1116.08,429.81,1125.08,433.81,1121.08,437.81,1125.08,433.81,1116.08" style="stroke:#181818;stroke-width:1;"/><text fill="#000000" font-family="sans-serif" font-size="13" lengthAdjust="spacing" textLength="61.1851" x="391.81" y="1146.2969">&#171;extend&#187;</text></g><?plantuml-src TLHBRjim4Dth58FiNLZ-oGe20uOR55tK1Oha00mvjjdGf4fIGJ_eWRhegaV8nJhKDnRbZG3nlNapysP8XGSFte2LnvC78IroBurE4iQziR1ZPsRHckPtAyvII-Sj4yQs5CEb3fGan39zL0WtszAZzf8pBb__wHlubG2K3Zbp1EuU9zCKFch99RFWqDKSvc3tE4q7p3rHjvoZCo1Guv4oGq5fkKNw9mM53gJcnbRfNQEp7n6QmUS2RLqIF2dphKGcMALcZI8HLnwe9YeSEvNPK2MTmdjqJJILKHAzrf0wz6mS79XIKfYkb7IQ_7vhpiwScHQXrCYM5JmGIB8rfJLbDUIjuLv87nFNKTDpQD81LN1YFzkEcNhzOu-eJUtUkL3e-vAdyqXe6L8ElHC8wlMlHWQeeR1OCDkEl15QHa8PV45Q8QcFqaA1GZOJ9TjyfUYyuS-TG7PfteFap-X7l4iNSAzVmaRvYW8CEFlQEfCkXlICZ7coFPqQUClFehffDZMpDR8k-uoEmGzA5jIwIUoZcUrfQ5jTgZvZ5rGBeRNqfVx3eUbqrfVzatTeNyQM9ytX0nbBjvTIs8vMjvD7rIoWaHei1ZVwe2HTxL3AoP13iYzc4Sday8bPtcSC6sb0cx0DBjmDqKVdr4hIFYamcMpg2pyyMKKdw-49ZVFYBUh5nevfcAF7UT8-NdryKhqTyAx-XLkukyFlTB75PbD1iwiGlGnNe-ODj8gXx3gqRA1r3ArgY9O-WjODbCNGee7o6Cf7eVy0?></g></svg>