<svg xmlns="http://www.w3.org/2000/svg" xmlns:xlink="http://www.w3.org/1999/xlink" contentStyleType="text/css" data-diagram-type="DESCRIPTION" height="712px" preserveAspectRatio="none" style="width:499px;height:712px;background:#FFFFFF;" version="1.1" viewBox="0 0 499 712" width="499px" zoomAndPan="magnify"><?plantuml 1.2026.3beta6?><defs/><g><!--cluster Autenticaci?n--><g class="cluster" data-qualified-name="Autenticaci.n" data-source-line="5" id="ent0003"><rect fill="none" height="162" rx="2.5" ry="2.5" style="stroke:#181818;stroke-width:1;" width="200.46" x="198.45" y="7"/><text fill="#000000" font-family="sans-serif" font-size="14" font-weight="700" lengthAdjust="spacing" textLength="108.876" x="244.242" y="21.9951">Autenticaci&#243;n</text></g><!--cluster Cocina (KDS)--><g class="cluster" data-qualified-name="Cocina .KDS." data-source-line="9" id="ent0006"><rect fill="none" height="505" rx="2.5" ry="2.5" style="stroke:#181818;stroke-width:1;" width="373.88" x="111.74" y="193"/><text fill="#000000" font-family="sans-serif" font-size="14" font-weight="700" lengthAdjust="spacing" textLength="102.6279" x="247.366" y="207.9951">Cocina (KDS)</text></g><!--entity CU01--><g class="entity" data-qualified-name="Autenticaci.n.CU01" data-source-line="6" id="ent0004"><ellipse cx="298.6785" cy="134.0037" fill="#F1F1F1" rx="83.6185" ry="19.1237" style="stroke:#181818;stroke-width:0.5;"/><text fill="#000000" font-family="sans-serif" font-size="14" lengthAdjust="spacing" textLength="139.1318" x="229.1126" y="138.6521">CU-01 Iniciar sesi&#243;n</text></g><!--entity CU02--><g class="entity" data-qualified-name="Autenticaci.n.CU02" data-source-line="7" id="ent0005"><ellipse cx="298.6828" cy="60.9966" fill="#F1F1F1" rx="84.2328" ry="19.2466" style="stroke:#181818;stroke-width:0.5;"/><text fill="#000000" font-family="sans-serif" font-size="14" lengthAdjust="spacing" textLength="140.5537" x="228.4059" y="65.645">CU-02 Cerrar sesi&#243;n</text></g><!--entity CU10--><g class="entity" data-qualified-name="Cocina .KDS..CU10" data-source-line="10" id="ent0007"><ellipse cx="298.6813" cy="648.9963" fill="#F1F1F1" rx="151.4813" ry="32.6963" style="stroke:#181818;stroke-width:0.5;"/><text fill="#000000" font-family="sans-serif" font-size="14" lengthAdjust="spacing" textLength="285.5645" x="155.8991" y="653.6447">CU-10 Ver comandas pendientes en KDS</text></g><!--entity CU11--><g class="entity" data-qualified-name="Cocina .KDS..CU11" data-source-line="11" id="ent0008"><ellipse cx="298.6796" cy="550.0019" fill="#F1F1F1" rx="146.6596" ry="31.7319" style="stroke:#181818;stroke-width:0.5;"/><text fill="#000000" font-family="sans-serif" font-size="14" lengthAdjust="spacing" textLength="275.5225" x="160.9184" y="554.6504">CU-11 Marcar comanda en preparaci&#243;n</text></g><!--entity CU12--><g class="entity" data-qualified-name="Cocina .KDS..CU12" data-source-line="12" id="ent0009"><ellipse cx="298.6754" cy="457.9951" fill="#F1F1F1" rx="116.6254" ry="25.7251" style="stroke:#181818;stroke-width:0.5;"/><text fill="#000000" font-family="sans-serif" font-size="14" lengthAdjust="spacing" textLength="212.1396" x="192.6056" y="462.6435">CU-12 Marcar plato como listo</text></g><!--entity CU13--><g class="entity" data-qualified-name="Cocina .KDS..CU13" data-source-line="13" id="ent0010"><ellipse cx="298.6807" cy="367.0041" fill="#F1F1F1" rx="140.6207" ry="30.5241" style="stroke:#181818;stroke-width:0.5;"/><text fill="#000000" font-family="sans-serif" font-size="14" lengthAdjust="spacing" textLength="262.9033" x="167.2291" y="371.6526">CU-13 Ver al&#233;rgenos y observaciones</text></g><!--entity CU28--><g class="entity" data-qualified-name="Cocina .KDS..CU28" data-source-line="14" id="ent0011"><ellipse cx="298.6846" cy="264.9989" fill="#F1F1F1" rx="170.9446" ry="36.5889" style="stroke:#181818;stroke-width:0.5;"/><text fill="#000000" font-family="sans-serif" font-size="14" lengthAdjust="spacing" textLength="325.8555" x="135.7568" y="269.6473">CU-28 Marcar plato como agotado / disponible</text></g><!--entity Cocinero--><g class="entity" data-qualified-name="Cocinero" data-source-line="3" id="ent0002"><ellipse cx="36.8677" cy="337.35" fill="#F1F1F1" rx="8" ry="8" style="stroke:#181818;stroke-width:0.5;"/><path d="M36.8677,345.35 L36.8677,372.35 M23.8677,353.35 L49.8677,353.35 M36.8677,372.35 L23.8677,387.35 M36.8677,372.35 L49.8677,387.35" fill="none" style="stroke:#181818;stroke-width:0.5;"/><text fill="#000000" font-family="sans-serif" font-size="14" lengthAdjust="spacing" textLength="61.7354" x="6" y="401.8451">Cocinero</text></g><!--link Cocinero to CU01--><g class="link" data-entity-1="ent0002" data-entity-2="ent0004" data-link-type="dependency" data-source-line="17" id="lnk12"><path d="M45.43,328.48 C54.06,293.86 71.38,243.73 103.74,212 C139.23,177.19 186.4779,158.8282 228.1279,147.8582" fill="none" id="Cocinero-to-CU01" style="stroke:#181818;stroke-width:1;"/><polygon fill="#181818" points="233.93,146.33,224.208,144.7542,229.0949,147.6035,226.2456,152.4904,233.93,146.33" style="stroke:#181818;stroke-width:1;"/></g><!--link Cocinero to CU02--><g class="link" data-entity-1="ent0002" data-entity-2="ent0005" data-link-type="dependency" data-source-line="18" id="lnk13"><path d="M42.14,328.43 C50.33,261.62 70.48,128.45 103.74,97 C133.34,69 171.3417,59.6238 209.9517,57.2138" fill="none" id="Cocinero-to-CU02" style="stroke:#181818;stroke-width:1;"/><polygon fill="#181818" points="215.94,56.84,206.7083,53.4084,210.9497,57.1515,207.2067,61.3929,215.94,56.84" style="stroke:#181818;stroke-width:1;"/></g><!--link Cocinero to CU10--><g class="link" data-entity-1="ent0002" data-entity-2="ent0007" data-link-type="dependency" data-source-line="19" id="lnk14"><path d="M37.68,405.29 C39.58,456.66 50.85,547.38 103.74,599 C120.28,615.15 135.6498,624.318 157.7298,631.958" fill="none" id="Cocinero-to-CU10" style="stroke:#181818;stroke-width:1;"/><polygon fill="#181818" points="163.4,633.92,156.2027,627.197,158.6749,632.285,153.5868,634.7572,163.4,633.92" style="stroke:#181818;stroke-width:1;"/></g><!--link Cocinero to CU11--><g class="link" data-entity-1="ent0002" data-entity-2="ent0008" data-link-type="dependency" data-source-line="20" id="lnk15"><path d="M47.23,405.53 C56.56,435.84 73.92,476.86 103.74,501 C122.83,516.46 140.4458,525.354 164.2458,532.684" fill="none" id="Cocinero-to-CU11" style="stroke:#181818;stroke-width:1;"/><polygon fill="#181818" points="169.98,534.45,162.5561,527.9781,165.2015,532.9783,160.2013,535.6237,169.98,534.45" style="stroke:#181818;stroke-width:1;"/></g><!--link Cocinero to CU12--><g class="link" data-entity-1="ent0002" data-entity-2="ent0009" data-link-type="dependency" data-source-line="21" id="lnk16"><path d="M68.05,393.01 C78.74,401.09 91.23,409.35 103.74,415 C133.44,428.41 161.7643,436.5651 193.1043,443.0451" fill="none" id="Cocinero-to-CU12" style="stroke:#181818;stroke-width:1;"/><polygon fill="#181818" points="198.98,444.26,190.9764,438.5205,194.0836,443.2476,189.3565,446.3548,198.98,444.26" style="stroke:#181818;stroke-width:1;"/></g><!--link Cocinero to CU13--><g class="link" data-entity-1="ent0002" data-entity-2="ent0010" data-link-type="dependency" data-source-line="22" id="lnk17"><path d="M68.18,367 C90.94,367 117.88,367 151.74,367" fill="none" id="Cocinero-to-CU13" style="stroke:#181818;stroke-width:1;"/><polygon fill="#181818" points="157.74,367,148.74,363,152.74,367,148.74,371,157.74,367" style="stroke:#181818;stroke-width:1;"/></g><!--link Cocinero to CU28--><g class="link" data-entity-1="ent0002" data-entity-2="ent0011" data-link-type="dependency" data-source-line="23" id="lnk18"><path d="M68.23,341.37 C78.93,333.32 91.38,324.98 103.74,319 C126.78,307.85 146.7693,300.3714 171.7693,292.9314" fill="none" id="Cocinero-to-CU28" style="stroke:#181818;stroke-width:1;"/><polygon fill="#181818" points="177.52,291.22,167.7529,289.9533,172.7277,292.6462,170.0348,297.621,177.52,291.22" style="stroke:#181818;stroke-width:1;"/></g><?plantuml-src RP4nJiGm44LxdsAq5HGHiTEaGaAXGOWABVsiCmHBOIOQUv4Gua3K764lXdUpGSYX_JFF__lFICy9ae26uIL17vHy2iB6e4-Yq8aFJ2h670V8mqYmkTaduXGy-d3uvWry681z98yn3xjjLLkuu-03AaIAymv6wBQrBJSTTAIwNdJcyw_ZAGR2nVtju-NQpzRmH0fUNf7xp4_4VSW9AG8nPERyggrBqC83giTVzhW_AKseozzciCnjtG9E8-RsCYumXfXa8Ln9DAUCE1w-T22M2EyWkqZwbfs4AIvWKu2k_SSA1qdO2rpbYyL9EEn6EZ_WsboTMUu6LNKz5ryghbHoEwMoekoQQah5jJy0?></g></svg>