<svg xmlns="http://www.w3.org/2000/svg" xmlns:xlink="http://www.w3.org/1999/xlink" contentStyleType="text/css" data-diagram-type="DESCRIPTION" height="325px" preserveAspectRatio="none" style="width:648px;height:325px;background:#FFFFFF;" version="1.1" viewBox="0 0 648 325" width="648px" zoomAndPan="magnify"><?plantuml 1.2026.3beta6?><defs/><g><!--cluster Notificaciones Autom?ticas--><g class="cluster" data-qualified-name="Notificaciones Autom.ticas" data-source-line="7" id="ent0005"><rect fill="none" height="304" rx="2.5" ry="2.5" style="stroke:#181818;stroke-width:1;" width="337.68" x="119.26" y="7"/><text fill="#000000" font-family="sans-serif" font-size="14" font-weight="700" lengthAdjust="spacing" textLength="215.5645" x="180.3178" y="21.9951">Notificaciones Autom&#225;ticas</text></g><!--entity CU27--><g class="entity" data-qualified-name="Notificaciones Autom.ticas.CU27" data-source-line="8" id="ent0006"><ellipse cx="288.1022" cy="262.0044" fill="#F1F1F1" rx="150.7222" ry="32.5444" style="stroke:#181818;stroke-width:0.5;"/><text fill="#000000" font-family="sans-serif" font-size="14" lengthAdjust="spacing" textLength="283.9854" x="146.1095" y="266.6529">CU-27 Enviar notificaciones autom&#225;ticas</text></g><!--entity CU09--><g class="entity" data-qualified-name="Notificaciones Autom.ticas.CU09" data-source-line="9" id="ent0007"><ellipse cx="288.0992" cy="74.9978" fill="#F1F1F1" rx="152.8392" ry="32.9678" style="stroke:#181818;stroke-width:0.5;"/><text fill="#000000" font-family="sans-serif" font-size="14" lengthAdjust="spacing" textLength="288.3877" x="143.9054" y="79.6463">CU-09 Solicitar segundos platos / postres</text></g><!--entity CU12--><g class="entity" data-qualified-name="Notificaciones Autom.ticas.CU12" data-source-line="10" id="ent0008"><ellipse cx="288.0954" cy="168.9951" fill="#F1F1F1" rx="116.6254" ry="25.7251" style="stroke:#181818;stroke-width:0.5;"/><text fill="#000000" font-family="sans-serif" font-size="14" lengthAdjust="spacing" textLength="212.1396" x="182.0256" y="173.6435">CU-12 Marcar plato como listo</text></g><!--entity Camarero--><g class="entity" data-qualified-name="Camarero" data-source-line="3" id="ent0002"><ellipse cx="40.6309" cy="37.35" fill="#F1F1F1" rx="8" ry="8" style="stroke:#181818;stroke-width:0.5;"/><path d="M40.6309,45.35 L40.6309,72.35 M27.6309,53.35 L53.6309,53.35 M40.6309,72.35 L27.6309,87.35 M40.6309,72.35 L53.6309,87.35" fill="none" style="stroke:#181818;stroke-width:0.5;"/><text fill="#000000" font-family="sans-serif" font-size="14" lengthAdjust="spacing" textLength="69.2617" x="6" y="101.8451">Camarero</text></g><!--entity Cocinero--><g class="entity" data-qualified-name="Cocinero" data-source-line="4" id="ent0003"><ellipse cx="40.6277" cy="148.35" fill="#F1F1F1" rx="8" ry="8" style="stroke:#181818;stroke-width:0.5;"/><path d="M40.6277,156.35 L40.6277,183.35 M27.6277,164.35 L53.6277,164.35 M40.6277,183.35 L27.6277,198.35 M40.6277,183.35 L53.6277,198.35" fill="none" style="stroke:#181818;stroke-width:0.5;"/><text fill="#000000" font-family="sans-serif" font-size="14" lengthAdjust="spacing" textLength="61.7354" x="9.76" y="212.8451">Cocinero</text></g><!--entity SN--><g class="entity" data-qualified-name="SN" data-source-line="5" id="ent0004"><ellipse cx="567.3921" cy="139.35" fill="#F1F1F1" rx="8" ry="8" style="stroke:#181818;stroke-width:0.5;"/><path d="M567.3921,147.35 L567.3921,174.35 M554.3921,155.35 L580.3921,155.35 M567.3921,174.35 L554.3921,189.35 M567.3921,174.35 L580.3921,189.35" fill="none" style="stroke:#181818;stroke-width:0.5;"/><text fill="#000000" font-family="sans-serif" font-size="14" lengthAdjust="spacing" textLength="132.9043" x="500.94" y="203.8451">Sist. Notificaciones</text></g><!--link Camarero to CU09--><g class="link" data-entity-1="ent0002" data-entity-2="ent0007" data-link-type="dependency" data-source-line="13" id="lnk9"><path d="M75.5,68.1 C92.21,68.65 107.6432,69.1554 130.4432,69.8954" fill="none" id="Camarero-to-CU09" style="stroke:#181818;stroke-width:1;"/><polygon fill="#181818" points="136.44,70.09,127.5745,65.8002,131.4426,69.9278,127.315,73.7959,136.44,70.09" style="stroke:#181818;stroke-width:1;"/></g><!--link Cocinero to CU12--><g class="link" data-entity-1="ent0003" data-entity-2="ent0008" data-link-type="dependency" data-source-line="14" id="lnk10"><path d="M71.73,176.9 C97.21,175.96 129.414,174.7792 166.614,173.4192" fill="none" id="Cocinero-to-CU12" style="stroke:#181818;stroke-width:1;"/><polygon fill="#181818" points="172.61,173.2,163.4699,169.5315,167.6133,173.3827,163.7621,177.5261,172.61,173.2" style="stroke:#181818;stroke-width:1;"/></g><!--link CU09 to SN--><g class="link" data-entity-1="ent0007" data-entity-2="ent0004" data-link-type="dependency" data-source-line="15" id="lnk11"><path d="M385.58,100.75 C411.55,108.29 439.48,116.95 464.94,126 C476.57,130.13 483.2215,132.6265 494.9815,137.4665" fill="none" id="CU09-to-SN" style="stroke:#181818;stroke-width:1;"/><polygon fill="#181818" points="500.53,139.75,493.7297,132.6257,495.9063,137.847,490.6849,140.0236,500.53,139.75" style="stroke:#181818;stroke-width:1;"/></g><!--link CU12 to SN--><g class="link" data-entity-1="ent0008" data-entity-2="ent0004" data-link-type="dependency" data-source-line="16" id="lnk12"><path d="M405.09,169 C437.74,169 466.11,169 494.7,169" fill="none" id="CU12-to-SN" style="stroke:#181818;stroke-width:1;"/><polygon fill="#181818" points="500.7,169,491.7,165,495.7,169,491.7,173,500.7,169" style="stroke:#181818;stroke-width:1;"/></g><!--link SN to CU27--><g class="link" data-entity-1="ent0004" data-entity-2="ent0006" data-link-type="dependency" data-source-line="17" id="lnk13"><path d="M500.55,198.3 C488.79,203.13 476.58,207.9 464.94,212 C439.5,220.97 417.3415,227.8599 391.3715,235.2399" fill="none" id="SN-to-CU27" style="stroke:#181818;stroke-width:1;"/><polygon fill="#181818" points="385.6,236.88,395.3506,238.2675,390.4096,235.5132,393.1638,230.5722,385.6,236.88" style="stroke:#181818;stroke-width:1;"/></g><?plantuml-src NP11QiCm44NtEiN7UxU9DYQRGZ5TnXkJ0moAuWfiJP36tPGS9cVfnJfEBOgpqlpFVpFeZ_uY44OAmwVW799t4ZWQGquueQM9aazS9BiG_sNLXomlw5Z29JXo2lfSWJBwpfXb5SLXzAYs2RpFmjFFNTJH-BS1vknrrcHxgcs3Z_WLA25kCTfWUgKzsUO9tXtGynXS4EMp7-PuvephIABFAwwS9Vb2xmvFzDxYICaf-Y3WU6AC-abUYRqrDsDAAwZhjxyrfPZLqTXYFvHMiHXbxhirOvjV?></g></svg>