<svg xmlns="http://www.w3.org/2000/svg" xmlns:xlink="http://www.w3.org/1999/xlink" contentStyleType="text/css" data-diagram-type="DESCRIPTION" height="1043px" preserveAspectRatio="none" style="width:444px;height:1043px;background:#FFFFFF;" version="1.1" viewBox="0 0 444 1043" width="444px" zoomAndPan="magnify"><?plantuml 1.2026.3beta6?><defs/><g><!--cluster Autenticaci?n--><g class="cluster" data-qualified-name="Autenticaci.n" data-source-line="5" id="ent0003"><rect fill="none" height="162" rx="2.5" ry="2.5" style="stroke:#181818;stroke-width:1;" width="200.47" x="174.48" y="7"/><text fill="#000000" font-family="sans-serif" font-size="14" font-weight="700" lengthAdjust="spacing" textLength="108.876" x="220.277" y="21.9951">Autenticaci&#243;n</text></g><!--cluster Gesti?n de Mesas--><g class="cluster" data-qualified-name="Gesti.n de Mesas" data-source-line="9" id="ent0006"><rect fill="none" height="182" rx="2.5" ry="2.5" style="stroke:#181818;stroke-width:1;" width="310.91" x="119.26" y="193"/><text fill="#000000" font-family="sans-serif" font-size="14" font-weight="700" lengthAdjust="spacing" textLength="139.2002" x="205.1149" y="207.9951">Gesti&#243;n de Mesas</text></g><!--cluster Comandas--><g class="cluster" data-qualified-name="Comandas" data-source-line="13" id="ent0009"><rect fill="none" height="350" rx="2.5" ry="2.5" style="stroke:#181818;stroke-width:1;" width="287.53" x="130.95" y="399"/><text fill="#000000" font-family="sans-serif" font-size="14" font-weight="700" lengthAdjust="spacing" textLength="81.6963" x="233.8669" y="413.9951">Comandas</text></g><!--cluster Tickets--><g class="cluster" data-qualified-name="Tickets" data-source-line="19" id="ent0014"><rect fill="none" height="256" rx="2.5" ry="2.5" style="stroke:#181818;stroke-width:1;" width="270.45" x="139.49" y="773"/><text fill="#000000" font-family="sans-serif" font-size="14" font-weight="700" lengthAdjust="spacing" textLength="56.4785" x="246.4757" y="787.9951">Tickets</text></g><!--entity CU01--><g class="entity" data-qualified-name="Autenticaci.n.CU01" data-source-line="6" id="ent0004"><ellipse cx="274.7085" cy="134.0037" fill="#F1F1F1" rx="83.6185" ry="19.1237" style="stroke:#181818;stroke-width:0.5;"/><text fill="#000000" font-family="sans-serif" font-size="14" lengthAdjust="spacing" textLength="139.1318" x="205.1426" y="138.6521">CU-01 Iniciar sesi&#243;n</text></g><!--entity CU02--><g class="entity" data-qualified-name="Autenticaci.n.CU02" data-source-line="7" id="ent0005"><ellipse cx="274.7128" cy="60.9966" fill="#F1F1F1" rx="84.2328" ry="19.2466" style="stroke:#181818;stroke-width:0.5;"/><text fill="#000000" font-family="sans-serif" font-size="14" lengthAdjust="spacing" textLength="140.5537" x="204.4359" y="65.645">CU-02 Cerrar sesi&#243;n</text></g><!--entity CU03--><g class="entity" data-qualified-name="Gesti.n de Mesas.CU03" data-source-line="10" id="ent0007"><ellipse cx="274.7124" cy="329.0005" fill="#F1F1F1" rx="139.4524" ry="30.2905" style="stroke:#181818;stroke-width:0.5;"/><text fill="#000000" font-family="sans-serif" font-size="14" lengthAdjust="spacing" textLength="260.4561" x="144.4844" y="333.6489">CU-03 Ver estado de mesas por zona</text></g><!--entity CU04--><g class="entity" data-qualified-name="Gesti.n de Mesas.CU04" data-source-line="11" id="ent0008"><ellipse cx="274.7058" cy="245.9992" fill="#F1F1F1" rx="77.0958" ry="17.8192" style="stroke:#181818;stroke-width:0.5;"/><text fill="#000000" font-family="sans-serif" font-size="14" lengthAdjust="spacing" textLength="123.7783" x="212.8167" y="250.6476">CU-04 Abrir mesa</text></g><!--entity CU06--><g class="entity" data-qualified-name="Comandas.CU06" data-source-line="14" id="ent0010"><ellipse cx="274.7141" cy="711.9968" fill="#F1F1F1" rx="93.5341" ry="21.1068" style="stroke:#181818;stroke-width:0.5;"/><text fill="#000000" font-family="sans-serif" font-size="14" lengthAdjust="spacing" textLength="161.6973" x="193.8655" y="716.6453">CU-06 Tomar comanda</text></g><!--entity CU07--><g class="entity" data-qualified-name="Comandas.CU07" data-source-line="15" id="ent0011"><ellipse cx="274.7064" cy="628.0033" fill="#F1F1F1" rx="127.7664" ry="27.9533" style="stroke:#181818;stroke-width:0.5;"/><text fill="#000000" font-family="sans-serif" font-size="14" lengthAdjust="spacing" textLength="235.8535" x="156.7796" y="632.6517">CU-07 Ver comanda de una mesa</text></g><!--entity CU08--><g class="entity" data-qualified-name="Comandas.CU08" data-source-line="16" id="ent0012"><ellipse cx="274.711" cy="544.0022" fill="#F1F1F1" rx="91.911" ry="20.7822" style="stroke:#181818;stroke-width:0.5;"/><text fill="#000000" font-family="sans-serif" font-size="14" lengthAdjust="spacing" textLength="158.0537" x="195.6842" y="548.6506">CU-08 Editar comanda</text></g><!--entity CU09--><g class="entity" data-qualified-name="Comandas.CU09" data-source-line="17" id="ent0013"><ellipse cx="274.7104" cy="461.0001" fill="#F1F1F1" rx="121.6504" ry="26.7301" style="stroke:#181818;stroke-width:0.5;"/><text fill="#000000" font-family="sans-serif" font-size="14" lengthAdjust="spacing" textLength="222.8721" x="163.2744" y="465.6485">CU-09 Solicitar segundos platos</text></g><!--entity CU14--><g class="entity" data-qualified-name="Tickets.CU14" data-source-line="20" id="ent0015"><ellipse cx="274.709" cy="989.9978" fill="#F1F1F1" rx="102.489" ry="22.8978" style="stroke:#181818;stroke-width:0.5;"/><text fill="#000000" font-family="sans-serif" font-size="14" lengthAdjust="spacing" textLength="181.5283" x="183.9448" y="994.6462">CU-14 Enviar ticket a caja</text></g><!--entity CU15--><g class="entity" data-qualified-name="Tickets.CU15" data-source-line="21" id="ent0016"><ellipse cx="274.7144" cy="913.9969" fill="#F1F1F1" rx="80.7844" ry="18.5569" style="stroke:#181818;stroke-width:0.5;"/><text fill="#000000" font-family="sans-serif" font-size="14" lengthAdjust="spacing" textLength="132.5215" x="208.4537" y="918.6453">CU-15 Editar ticket</text></g><!--entity CU16--><g class="entity" data-qualified-name="Tickets.CU16" data-source-line="22" id="ent0017"><ellipse cx="274.7137" cy="834.0047" fill="#F1F1F1" rx="119.2237" ry="26.2447" style="stroke:#181818;stroke-width:0.5;"/><text fill="#000000" font-family="sans-serif" font-size="14" lengthAdjust="spacing" textLength="217.6973" x="165.8651" y="838.6532">CU-16 Reclamar ticket enviado</text></g><!--entity Camarero--><g class="entity" data-qualified-name="Camarero" data-source-line="3" id="ent0002"><ellipse cx="40.6309" cy="514.35" fill="#F1F1F1" rx="8" ry="8" style="stroke:#181818;stroke-width:0.5;"/><path d="M40.6309,522.35 L40.6309,549.35 M27.6309,530.35 L53.6309,530.35 M40.6309,549.35 L27.6309,564.35 M40.6309,549.35 L53.6309,564.35" fill="none" style="stroke:#181818;stroke-width:0.5;"/><text fill="#000000" font-family="sans-serif" font-size="14" lengthAdjust="spacing" textLength="69.2617" x="6" y="578.8451">Camarero</text></g><!--link Camarero to CU01--><g class="link" data-entity-1="ent0002" data-entity-2="ent0004" data-link-type="dependency" data-source-line="25" id="lnk18"><path d="M45.41,505.62 C53.7,428.34 75.6,257.48 111.26,212 C137.03,179.13 174.391,161.1759 209.711,149.7559" fill="none" id="Camarero-to-CU01" style="stroke:#181818;stroke-width:1;"/><polygon fill="#181818" points="215.42,147.91,205.6259,146.8728,210.6625,149.4482,208.0871,154.4848,215.42,147.91" style="stroke:#181818;stroke-width:1;"/></g><!--link Camarero to CU02--><g class="link" data-entity-1="ent0002" data-entity-2="ent0005" data-link-type="dependency" data-source-line="26" id="lnk19"><path d="M42.24,505.55 C44.61,408.26 56.04,155.85 111.26,97 C131.52,75.41 155.6664,66.2303 184.4564,61.9103" fill="none" id="Camarero-to-CU02" style="stroke:#181818;stroke-width:1;"/><polygon fill="#181818" points="190.39,61.02,180.8961,58.3998,185.4454,61.762,182.0832,66.3112,190.39,61.02" style="stroke:#181818;stroke-width:1;"/></g><!--link Camarero to CU03--><g class="link" data-entity-1="ent0002" data-entity-2="ent0007" data-link-type="dependency" data-source-line="27" id="lnk20"><path d="M56.05,505.62 C67.71,478.57 86.3,442.87 111.26,418 C137.92,391.44 168.7128,373.1284 200.1928,358.2884" fill="none" id="Camarero-to-CU03" style="stroke:#181818;stroke-width:1;"/><polygon fill="#181818" points="205.62,355.73,195.7736,355.9495,201.0973,357.862,199.1848,363.1858,205.62,355.73" style="stroke:#181818;stroke-width:1;"/></g><!--link Camarero to CU04--><g class="link" data-entity-1="ent0002" data-entity-2="ent0008" data-link-type="dependency" data-source-line="28" id="lnk21"><path d="M46.85,505.46 C56.47,440.14 79.02,311.78 111.26,281 C134.11,259.19 161.1864,250.3745 191.4964,246.5845" fill="none" id="Camarero-to-CU04" style="stroke:#181818;stroke-width:1;"/><polygon fill="#181818" points="197.45,245.84,188.0232,242.9876,192.4886,246.4604,189.0158,250.9258,197.45,245.84" style="stroke:#181818;stroke-width:1;"/></g><!--link Camarero to CU06--><g class="link" data-entity-1="ent0002" data-entity-2="ent0010" data-link-type="dependency" data-source-line="29" id="lnk22"><path d="M52.84,582.44 C63.3,611.57 81.81,650.34 111.26,673 C132.76,689.54 154.3524,697.9463 180.5624,703.5463" fill="none" id="Camarero-to-CU06" style="stroke:#181818;stroke-width:1;"/><polygon fill="#181818" points="186.43,704.8,178.4644,699.0078,181.5404,703.7553,176.7929,706.8312,186.43,704.8" style="stroke:#181818;stroke-width:1;"/></g><!--link Camarero to CU07--><g class="link" data-entity-1="ent0002" data-entity-2="ent0011" data-link-type="dependency" data-source-line="30" id="lnk23"><path d="M75.59,564.51 C86.71,570.68 99.28,577.11 111.26,582 C135.28,591.81 156.3227,598.7106 181.1527,605.6706" fill="none" id="Camarero-to-CU07" style="stroke:#181818;stroke-width:1;"/><polygon fill="#181818" points="186.93,607.29,179.3436,601.0093,182.1156,605.9405,177.1844,608.7124,186.93,607.29" style="stroke:#181818;stroke-width:1;"/></g><!--link Camarero to CU08--><g class="link" data-entity-1="ent0002" data-entity-2="ent0012" data-link-type="dependency" data-source-line="31" id="lnk24"><path d="M75.38,544 C103.48,544 138.84,544 176.53,544" fill="none" id="Camarero-to-CU08" style="stroke:#181818;stroke-width:1;"/><polygon fill="#181818" points="182.53,544,173.53,540,177.53,544,173.53,548,182.53,544" style="stroke:#181818;stroke-width:1;"/></g><!--link Camarero to CU09--><g class="link" data-entity-1="ent0002" data-entity-2="ent0013" data-link-type="dependency" data-source-line="32" id="lnk25"><path d="M75.58,523.45 C86.69,517.27 99.26,510.86 111.26,506 C136.08,495.95 158.1191,488.9003 183.6391,481.9803" fill="none" id="Camarero-to-CU09" style="stroke:#181818;stroke-width:1;"/><polygon fill="#181818" points="189.43,480.41,179.6968,478.9048,184.6043,481.7185,181.7905,486.626,189.43,480.41" style="stroke:#181818;stroke-width:1;"/></g><!--link Camarero to CU14--><g class="link" data-entity-1="ent0002" data-entity-2="ent0015" data-link-type="dependency" data-source-line="33" id="lnk26"><path d="M43,582.5 C47.04,673.26 61.86,896.93 111.26,950 C127.98,967.96 145.5489,976.9759 169.3689,982.9259" fill="none" id="Camarero-to-CU14" style="stroke:#181818;stroke-width:1;"/><polygon fill="#181818" points="175.19,984.38,167.4277,978.3181,170.339,983.1683,165.4889,986.0797,175.19,984.38" style="stroke:#181818;stroke-width:1;"/></g><!--link Camarero to CU15--><g class="link" data-entity-1="ent0002" data-entity-2="ent0016" data-link-type="dependency" data-source-line="34" id="lnk27"><path d="M44.49,582.43 C51.13,661.08 70.27,836.49 111.26,878 C132.68,899.68 158.0895,908.7674 187.5595,912.9474" fill="none" id="Camarero-to-CU15" style="stroke:#181818;stroke-width:1;"/><polygon fill="#181818" points="193.5,913.79,185.1509,908.5657,188.5495,913.0878,184.0275,916.4865,193.5,913.79" style="stroke:#181818;stroke-width:1;"/></g><!--link Camarero to CU16--><g class="link" data-entity-1="ent0002" data-entity-2="ent0017" data-link-type="dependency" data-source-line="35" id="lnk28"><path d="M46.04,582.61 C52.94,627.3 70.07,700.89 111.26,749 C136.21,778.14 168.1198,796.3764 200.7798,809.9564" fill="none" id="Camarero-to-CU16" style="stroke:#181818;stroke-width:1;"/><polygon fill="#181818" points="206.32,812.26,199.5455,805.1112,201.7032,810.3403,196.474,812.498,206.32,812.26" style="stroke:#181818;stroke-width:1;"/></g><?plantuml-src RP91JWCn34NtEONLVQLEEvss6wHgL24MRA1bRn9J0jC49HuM84x54RWOoGoHQDBjzxE_V-AEdXZOWjF7PmQb7KdMrWY1ags35a_eo5aXOW7DiIEOR7icmrgYr3_VPWAV0g3t9D67OdkOpYguCLfgTE39ZmnwQ0-pAYVdq99p9JWNN_yThybpB8CYk2MF_eBf0Xx8GG1HsSYT8WTl8SI7DPW6B_As6hQFJhi1Jr1zxjxQ4nfrqRI1VIWwa2EI1ZGvjngM-wFYTht1CyjLth66dT9SZbxdu0RkRHTUcuTNFFP6sH2xGxO-zMpEy-orV2M-4AUgOMVUux_nW022n9TaNTKvlamxZdZYbZdNm1t9BfvI6apHHjdKqOG5HRerc4wlncF9bNcXB0gbBfIcK5Q5iYwKJQvKnUGGD5UQNm00?></g></svg>