<svg xmlns="http://www.w3.org/2000/svg" xmlns:xlink="http://www.w3.org/1999/xlink" contentStyleType="text/css" data-diagram-type="DESCRIPTION" height="1842px" preserveAspectRatio="none" style="width:657px;height:1842px;background:#FFFFFF;" version="1.1" viewBox="0 0 657 1842" width="657px" zoomAndPan="magnify"><?plantuml 1.2026.3beta6?><defs/><g><!--cluster Comandas--><g class="cluster" data-qualified-name="Comandas" data-source-line="7" id="ent0005"><rect fill="none" height="539" rx="2.5" ry="2.5" style="stroke:#181818;stroke-width:1;" width="429.85" x="214.08" y="466"/><text fill="#000000" font-family="sans-serif" font-size="14" font-weight="700" lengthAdjust="spacing" textLength="81.6963" x="388.1569" y="480.9951">Comandas</text></g><!--cluster Tickets--><g class="cluster" data-qualified-name="Tickets" data-source-line="19" id="ent0014"><rect fill="none" height="435" rx="2.5" ry="2.5" style="stroke:#181818;stroke-width:1;" width="409.27" x="224.37" y="7"/><text fill="#000000" font-family="sans-serif" font-size="14" font-weight="700" lengthAdjust="spacing" textLength="56.4785" x="400.7657" y="21.9951">Tickets</text></g><!--cluster Reservas--><g class="cluster" data-qualified-name="Reservas" data-source-line="29" id="ent0021"><rect fill="none" height="331" rx="2.5" ry="2.5" style="stroke:#181818;stroke-width:1;" width="395.83" x="231.09" y="1497"/><text fill="#000000" font-family="sans-serif" font-size="14" font-weight="700" lengthAdjust="spacing" textLength="71.9141" x="393.048" y="1511.9951">Reservas</text></g><!--cluster Autenticaci?n--><g class="cluster" data-qualified-name="Autenticaci.n" data-source-line="38" id="ent0027"><rect fill="none" height="444" rx="2.5" ry="2.5" style="stroke:#181818;stroke-width:1;" width="420.75" x="218.63" y="1029"/><text fill="#000000" font-family="sans-serif" font-size="14" font-weight="700" lengthAdjust="spacing" textLength="108.876" x="374.567" y="1043.9951">Autenticaci&#243;n</text></g><!--entity CU06--><g class="entity" data-qualified-name="Comandas.CU06" data-source-line="8" id="ent0006"><ellipse cx="429.0141" cy="521.9968" fill="#F1F1F1" rx="93.5341" ry="21.1068" style="stroke:#181818;stroke-width:0.5;"/><text fill="#000000" font-family="sans-serif" font-size="14" lengthAdjust="spacing" textLength="161.6973" x="348.1655" y="526.6453">CU-06 Tomar comanda</text></g><!--entity CUN03--><g class="entity" data-qualified-name="Comandas.CUN03" data-source-line="9" id="ent0007"><ellipse cx="429.005" cy="636.995" fill="#F1F1F1" rx="198.925" ry="42.185" style="stroke:#181818;stroke-width:0.5;"/><text fill="#000000" font-family="sans-serif" font-size="14" lengthAdjust="spacing" textLength="383.2842" x="237.3629" y="641.6434">CU-N03 Rechazar comanda por al&#233;rgenos incompletos</text></g><!--entity CUN07--><g class="entity" data-qualified-name="Comandas.CUN07" data-source-line="10" id="ent0008"><ellipse cx="429.0101" cy="748.998" fill="#F1F1F1" rx="160.9901" ry="34.598" style="stroke:#181818;stroke-width:0.5;"/><text fill="#000000" font-family="sans-serif" font-size="14" lengthAdjust="spacing" textLength="305.293" x="276.3636" y="753.6465">CU-N07 Restringir pedido por falta de stock</text></g><!--entity CU08--><g class="entity" data-qualified-name="Comandas.CU08" data-source-line="11" id="ent0009"><ellipse cx="429.011" cy="839.0022" fill="#F1F1F1" rx="91.911" ry="20.7822" style="stroke:#181818;stroke-width:0.5;"/><text fill="#000000" font-family="sans-serif" font-size="14" lengthAdjust="spacing" textLength="158.0537" x="349.9842" y="843.6506">CU-08 Editar comanda</text></g><!--entity CUN05--><g class="entity" data-qualified-name="Comandas.CUN05" data-source-line="12" id="ent0010"><ellipse cx="429.0097" cy="950.0019" fill="#F1F1F1" rx="180.8097" ry="38.5619" style="stroke:#181818;stroke-width:0.5;"/><text fill="#000000" font-family="sans-serif" font-size="14" lengthAdjust="spacing" textLength="346.1582" x="255.9306" y="954.6504">CU-N05 Bloquear edici&#243;n de l&#237;nea en preparaci&#243;n</text></g><!--entity CU14--><g class="entity" data-qualified-name="Tickets.CU14" data-source-line="20" id="ent0015"><ellipse cx="429.009" cy="64.9978" fill="#F1F1F1" rx="102.489" ry="22.8978" style="stroke:#181818;stroke-width:0.5;"/><text fill="#000000" font-family="sans-serif" font-size="14" lengthAdjust="spacing" textLength="181.5283" x="338.2448" y="69.6462">CU-14 Enviar ticket a caja</text></g><!--entity CUN06--><g class="entity" data-qualified-name="Tickets.CUN06" data-source-line="21" id="ent0016"><ellipse cx="429.0054" cy="174.9991" fill="#F1F1F1" rx="167.9454" ry="35.9891" style="stroke:#181818;stroke-width:0.5;"/><text fill="#000000" font-family="sans-serif" font-size="14" lengthAdjust="spacing" textLength="319.6689" x="269.1709" y="179.6475">CU-N06 Rechazar ticket por mesa ya cobrada</text></g><!--entity CU17--><g class="entity" data-qualified-name="Tickets.CU17" data-source-line="22" id="ent0017"><ellipse cx="429.0102" cy="269.998" fill="#F1F1F1" rx="107.9902" ry="23.998" style="stroke:#181818;stroke-width:0.5;"/><text fill="#000000" font-family="sans-serif" font-size="14" lengthAdjust="spacing" textLength="193.5254" x="332.2475" y="274.6465">CU-17 Cobrar ticket en caja</text></g><!--entity CUN08--><g class="entity" data-qualified-name="Tickets.CUN08" data-source-line="23" id="ent0018"><ellipse cx="429.0074" cy="385.9975" fill="#F1F1F1" rx="188.6374" ry="40.1275" style="stroke:#181818;stroke-width:0.5;"/><text fill="#000000" font-family="sans-serif" font-size="14" lengthAdjust="spacing" textLength="362.2227" x="247.8961" y="390.6459">CU-N08 Anular ticket ya cobrado por error de cobro</text></g><!--entity CU19--><g class="entity" data-qualified-name="Reservas.CU19" data-source-line="30" id="ent0022"><ellipse cx="429.0112" cy="1554.9982" fill="#F1F1F1" rx="101.7412" ry="22.7482" style="stroke:#181818;stroke-width:0.5;"/><text fill="#000000" font-family="sans-serif" font-size="14" lengthAdjust="spacing" textLength="179.8877" x="339.0673" y="1559.6467">CU-19 Gestionar reservas</text></g><!--entity CUN09--><g class="entity" data-qualified-name="Reservas.CUN09" data-source-line="31" id="ent0023"><ellipse cx="429.0138" cy="1776.9968" fill="#F1F1F1" rx="164.4338" ry="35.2868" style="stroke:#181818;stroke-width:0.5;"/><text fill="#000000" font-family="sans-serif" font-size="14" lengthAdjust="spacing" textLength="312.416" x="272.8058" y="1781.6452">CU-N09 Marcar reserva como no presentado</text></g><!--entity CUN04--><g class="entity" data-qualified-name="Reservas.CUN04" data-source-line="32" id="ent0024"><ellipse cx="429.0112" cy="1668.0022" fill="#F1F1F1" rx="181.9112" ry="38.7822" style="stroke:#181818;stroke-width:0.5;"/><text fill="#000000" font-family="sans-serif" font-size="14" lengthAdjust="spacing" textLength="348.4209" x="254.8007" y="1672.6507">CU-N04 Rechazar reserva por conflicto de horario</text></g><!--entity CU01--><g class="entity" data-qualified-name="Autenticaci.n.CU01" data-source-line="39" id="ent0028"><ellipse cx="429.0085" cy="1083.0037" fill="#F1F1F1" rx="83.6185" ry="19.1237" style="stroke:#181818;stroke-width:0.5;"/><text fill="#000000" font-family="sans-serif" font-size="14" lengthAdjust="spacing" textLength="139.1318" x="359.4426" y="1087.6521">CU-01 Iniciar sesi&#243;n</text></g><!--entity CUN01--><g class="entity" data-qualified-name="Autenticaci.n.CUN01" data-source-line="40" id="ent0029"><ellipse cx="429.0073" cy="1415.9955" fill="#F1F1F1" rx="194.3773" ry="41.2755" style="stroke:#181818;stroke-width:0.5;"/><text fill="#000000" font-family="sans-serif" font-size="14" lengthAdjust="spacing" textLength="373.9805" x="242.0171" y="1420.6439">CU-N01 Denegar acceso por credenciales incorrectas</text></g><!--entity CUN10--><g class="entity" data-qualified-name="Autenticaci.n.CUN10" data-source-line="41" id="ent0030"><ellipse cx="429.0134" cy="1301.0047" fill="#F1F1F1" rx="179.1234" ry="38.2247" style="stroke:#181818;stroke-width:0.5;"/><text fill="#000000" font-family="sans-serif" font-size="14" lengthAdjust="spacing" textLength="342.6924" x="257.6672" y="1305.6531">CU-N10 Desbloquear cuenta por intentos fallidos</text></g><!--entity CUN02--><g class="entity" data-qualified-name="Autenticaci.n.CUN02" data-source-line="42" id="ent0031"><ellipse cx="429.0077" cy="1190.9955" fill="#F1F1F1" rx="173.0277" ry="37.0055" style="stroke:#181818;stroke-width:0.5;"/><text fill="#000000" font-family="sans-serif" font-size="14" lengthAdjust="spacing" textLength="330.1484" x="263.9335" y="1195.644">CU-N02 Bloquear operaci&#243;n por rol insuficiente</text></g><!--entity Camarero--><g class="entity" data-qualified-name="Camarero" data-source-line="3" id="ent0002"><ellipse cx="55.5409" cy="492.35" fill="#F1F1F1" rx="8" ry="8" style="stroke:#181818;stroke-width:0.5;"/><path d="M55.5409,500.35 L55.5409,527.35 M42.5409,508.35 L68.5409,508.35 M55.5409,527.35 L42.5409,542.35 M55.5409,527.35 L68.5409,542.35" fill="none" style="stroke:#181818;stroke-width:0.5;"/><text fill="#000000" font-family="sans-serif" font-size="14" lengthAdjust="spacing" textLength="69.2617" x="20.91" y="556.8451">Camarero</text></g><!--entity Administrador--><g class="entity" data-qualified-name="Administrador" data-source-line="4" id="ent0003"><ellipse cx="55.54" cy="1608.35" fill="#F1F1F1" rx="8" ry="8" style="stroke:#181818;stroke-width:0.5;"/><path d="M55.54,1616.35 L55.54,1643.35 M42.54,1624.35 L68.54,1624.35 M55.54,1643.35 L42.54,1658.35 M55.54,1643.35 L68.54,1658.35" fill="none" style="stroke:#181818;stroke-width:0.5;"/><text fill="#000000" font-family="sans-serif" font-size="14" lengthAdjust="spacing" textLength="99.0801" x="6" y="1672.8451">Administrador</text></g><!--entity Cocinero--><g class="entity" data-qualified-name="Cocinero" data-source-line="5" id="ent0004"><ellipse cx="55.5377" cy="1053.35" fill="#F1F1F1" rx="8" ry="8" style="stroke:#181818;stroke-width:0.5;"/><path d="M55.5377,1061.35 L55.5377,1088.35 M42.5377,1069.35 L68.5377,1069.35 M55.5377,1088.35 L42.5377,1103.35 M55.5377,1088.35 L68.5377,1103.35" fill="none" style="stroke:#181818;stroke-width:0.5;"/><text fill="#000000" font-family="sans-serif" font-size="14" lengthAdjust="spacing" textLength="61.7354" x="24.67" y="1117.8451">Cocinero</text></g><!--link CUN03 to CU06--><g class="link" data-entity-1="ent0007" data-entity-2="ent0006" data-link-type="dependency" data-source-line="14" id="lnk11"><path d="M429.01,594.5 C429.01,577.1 429.01,563.73 429.01,549.39" fill="none" id="CUN03-to-CU06" style="stroke:#181818;stroke-width:1;stroke-dasharray:7,7;"/><polygon fill="#181818" points="429.01,543.39,425.01,552.39,429.01,548.39,433.01,552.39,429.01,543.39" style="stroke:#181818;stroke-width:1;"/><text fill="#000000" font-family="sans-serif" font-size="13" lengthAdjust="spacing" textLength="61.1851" x="387.01" y="573.5269">&#171;extend&#187;</text></g><!--link CUN07 to CU06--><g class="link" data-entity-1="ent0008" data-entity-2="ent0006" data-link-type="dependency" data-source-line="15" id="lnk12"><path d="M269.47,743.92 C233.54,734.48 199.85,717.14 178.82,686.5 C158.51,656.92 129.39,650.34 206.08,577 C240.44,544.15 285.2102,530.7449 329.5902,524.9649" fill="none" id="CUN07-to-CU06" style="stroke:#181818;stroke-width:1;stroke-dasharray:7,7;"/><polygon fill="#181818" points="335.54,524.19,326.0988,521.3858,330.5819,524.8357,327.132,529.3188,335.54,524.19" style="stroke:#181818;stroke-width:1;"/><text fill="#000000" font-family="sans-serif" font-size="13" lengthAdjust="spacing" textLength="61.1851" x="136.08" y="682.5669">&#171;extend&#187;</text></g><!--link CUN05 to CU08--><g class="link" data-entity-1="ent0010" data-entity-2="ent0009" data-link-type="dependency" data-source-line="16" id="lnk13"><path d="M429.01,911.18 C429.01,894.05 429.01,880.58 429.01,866.18" fill="none" id="CUN05-to-CU08" style="stroke:#181818;stroke-width:1;stroke-dasharray:7,7;"/><polygon fill="#181818" points="429.01,860.18,425.01,869.18,429.01,865.18,433.01,869.18,429.01,860.18" style="stroke:#181818;stroke-width:1;"/><text fill="#000000" font-family="sans-serif" font-size="13" lengthAdjust="spacing" textLength="61.1851" x="387.01" y="890.1769">&#171;extend&#187;</text></g><!--link CUN06 to CU14--><g class="link" data-entity-1="ent0016" data-entity-2="ent0015" data-link-type="dependency" data-source-line="25" id="lnk19"><path d="M429.01,138.68 C429.01,122.03 429.01,108.79 429.01,94.15" fill="none" id="CUN06-to-CU14" style="stroke:#181818;stroke-width:1;stroke-dasharray:7,7;"/><polygon fill="#181818" points="429.01,88.15,425.01,97.15,429.01,93.15,433.01,97.15,429.01,88.15" style="stroke:#181818;stroke-width:1;"/><text fill="#000000" font-family="sans-serif" font-size="13" lengthAdjust="spacing" textLength="61.1851" x="387.01" y="118.0169">&#171;extend&#187;</text></g><!--link CUN08 to CU17--><g class="link" data-entity-1="ent0018" data-entity-2="ent0017" data-link-type="dependency" data-source-line="26" id="lnk20"><path d="M429.01,345.43 C429.01,328.44 429.01,315.26 429.01,300.49" fill="none" id="CUN08-to-CU17" style="stroke:#181818;stroke-width:1;stroke-dasharray:7,7;"/><polygon fill="#181818" points="429.01,294.49,425.01,303.49,429.01,299.49,433.01,303.49,429.01,294.49" style="stroke:#181818;stroke-width:1;"/><text fill="#000000" font-family="sans-serif" font-size="13" lengthAdjust="spacing" textLength="61.1851" x="387.01" y="324.5069">&#171;extend&#187;</text></g><!--link CUN09 to CU19--><g class="link" data-entity-1="ent0023" data-entity-2="ent0022" data-link-type="dependency" data-source-line="34" id="lnk25"><path d="M274.88,1764.39 C249.18,1756.01 224.82,1743.23 206.08,1724 C159.86,1676.57 134.13,1626.38 178.82,1577.5 C222.73,1529.46 294.547,1528.8959 351.747,1537.5159" fill="none" id="CUN09-to-CU19" style="stroke:#181818;stroke-width:1;stroke-dasharray:7,7;"/><polygon fill="#181818" points="357.68,1538.41,349.3766,1533.1135,352.7358,1537.6649,348.1844,1541.0242,357.68,1538.41" style="stroke:#181818;stroke-width:1;"/><text fill="#000000" font-family="sans-serif" font-size="13" lengthAdjust="spacing" textLength="61.1851" x="136.08" y="1590.5669">&#171;extend&#187;</text></g><!--link CUN04 to CU19--><g class="link" data-entity-1="ent0024" data-entity-2="ent0022" data-link-type="dependency" data-source-line="35" id="lnk26"><path d="M429.01,1628.8 C429.01,1611.84 429.01,1598.58 429.01,1583.99" fill="none" id="CUN04-to-CU19" style="stroke:#181818;stroke-width:1;stroke-dasharray:7,7;"/><polygon fill="#181818" points="429.01,1577.99,425.01,1586.99,429.01,1582.99,433.01,1586.99,429.01,1577.99" style="stroke:#181818;stroke-width:1;"/><text fill="#000000" font-family="sans-serif" font-size="13" lengthAdjust="spacing" textLength="61.1851" x="387.01" y="1608.0469">&#171;extend&#187;</text></g><!--link CUN01 to CU01--><g class="link" data-entity-1="ent0029" data-entity-2="ent0028" data-link-type="dependency" data-source-line="44" id="lnk32"><path d="M254.87,1397.43 C221.61,1384.43 192.8,1363.59 178.82,1330.5 C166.76,1301.97 97.46,1253.79 206.08,1136 C241.07,1098.05 291.878,1085.4247 339.378,1081.7347" fill="none" id="CUN01-to-CU01" style="stroke:#181818;stroke-width:1;stroke-dasharray:7,7;"/><polygon fill="#181818" points="345.36,1081.27,336.0772,1077.9791,340.375,1081.6573,336.6968,1085.955,345.36,1081.27" style="stroke:#181818;stroke-width:1;"/><text fill="#000000" font-family="sans-serif" font-size="13" lengthAdjust="spacing" textLength="61.1851" x="136.08" y="1326.5669">&#171;extend&#187;</text></g><!--link CUN10 to CU01--><g class="link" data-entity-1="ent0030" data-entity-2="ent0028" data-link-type="dependency" data-source-line="45" id="lnk33"><path d="M278.2,1280.17 C215.96,1263.15 161.79,1232.3 178.82,1176.5 C198.99,1110.42 274.4546,1090.1333 339.0146,1084.2633" fill="none" id="CUN10-to-CU01" style="stroke:#181818;stroke-width:1;stroke-dasharray:7,7;"/><polygon fill="#181818" points="344.99,1083.72,335.6648,1080.5514,340.0105,1084.1727,336.3892,1088.5185,344.99,1083.72" style="stroke:#181818;stroke-width:1;"/><text fill="#000000" font-family="sans-serif" font-size="13" lengthAdjust="spacing" textLength="61.1851" x="136.08" y="1189.5669">&#171;extend&#187;</text></g><!--link CUN02 to CU01--><g class="link" data-entity-1="ent0031" data-entity-2="ent0028" data-link-type="dependency" data-source-line="46" id="lnk34"><path d="M429.01,1153.53 C429.01,1136.35 429.01,1122.7 429.01,1108.51" fill="none" id="CUN02-to-CU01" style="stroke:#181818;stroke-width:1;stroke-dasharray:7,7;"/><polygon fill="#181818" points="429.01,1102.51,425.01,1111.51,429.01,1107.51,433.01,1111.51,429.01,1102.51" style="stroke:#181818;stroke-width:1;"/><text fill="#000000" font-family="sans-serif" font-size="13" lengthAdjust="spacing" textLength="61.1851" x="387.01" y="1132.6269">&#171;extend&#187;</text></g><!--link Camarero to CU06--><g class="link" data-entity-1="ent0002" data-entity-2="ent0006" data-link-type="dependency" data-source-line="49" id="lnk35"><path d="M90.49,522 C145.38,522 249.51,522 329.06,522" fill="none" id="Camarero-to-CU06" style="stroke:#181818;stroke-width:1;"/><polygon fill="#181818" points="335.06,522,326.06,518,330.06,522,326.06,526,335.06,522" style="stroke:#181818;stroke-width:1;"/></g><!--link Camarero to CU08--><g class="link" data-entity-1="ent0002" data-entity-2="ent0009" data-link-type="dependency" data-source-line="50" id="lnk36"><path d="M90.45,543.91 C124.48,568.02 175.04,610.19 198.08,661 C204.52,675.19 195.7,789.38 206.08,801 C240.2,839.19 291.5101,848.2726 339.3401,848.0126" fill="none" id="Camarero-to-CU08" style="stroke:#181818;stroke-width:1;"/><polygon fill="#181818" points="345.34,847.98,336.3184,844.029,340.3401,848.0072,336.3619,852.0289,345.34,847.98" style="stroke:#181818;stroke-width:1;"/></g><!--link Camarero to CU14--><g class="link" data-entity-1="ent0002" data-entity-2="ent0015" data-link-type="dependency" data-source-line="51" id="lnk37"><path d="M59.4,483.61 C67.46,403.88 97.46,219.64 206.08,122 C239.51,91.95 280.7498,78.2953 322.9998,71.3353" fill="none" id="Camarero-to-CU14" style="stroke:#181818;stroke-width:1;"/><polygon fill="#181818" points="328.92,70.36,319.3895,67.8761,323.9865,71.1727,320.6899,75.7697,328.92,70.36" style="stroke:#181818;stroke-width:1;"/></g><!--link Camarero to CU17--><g class="link" data-entity-1="ent0002" data-entity-2="ent0017" data-link-type="dependency" data-source-line="52" id="lnk38"><path d="M76.07,483.37 C100.45,439.09 146.34,367.56 206.08,328 C243.43,303.27 284.9328,290.2281 326.3128,282.0881" fill="none" id="Camarero-to-CU17" style="stroke:#181818;stroke-width:1;"/><polygon fill="#181818" points="332.2,280.93,322.5972,278.7423,327.294,281.8951,324.1413,286.5919,332.2,280.93" style="stroke:#181818;stroke-width:1;"/></g><!--link Camarero to CU01--><g class="link" data-entity-1="ent0002" data-entity-2="ent0028" data-link-type="dependency" data-source-line="53" id="lnk39"><path d="M57.28,560.36 C61.09,650.39 83.09,877.27 206.08,1005 C244.89,1045.3 299.8316,1063.6582 347.9916,1073.0782" fill="none" id="Camarero-to-CU01" style="stroke:#181818;stroke-width:1;"/><polygon fill="#181818" points="353.88,1074.23,345.8152,1068.5767,348.973,1073.2702,344.2795,1076.428,353.88,1074.23" style="stroke:#181818;stroke-width:1;"/></g><!--link Administrador to CU19--><g class="link" data-entity-1="ent0003" data-entity-2="ent0022" data-link-type="dependency" data-source-line="55" id="lnk40"><path d="M105.27,1650.99 C134.85,1655.88 171.85,1656.29 198.08,1637 C207.48,1630.09 197.59,1620.01 206.08,1612 C238.92,1581.02 280.3448,1567.2446 322.8748,1560.4646" fill="none" id="Administrador-to-CU19" style="stroke:#181818;stroke-width:1;"/><polygon fill="#181818" points="328.8,1559.52,319.2825,1556.9867,323.8623,1560.3071,320.5419,1564.887,328.8,1559.52" style="stroke:#181818;stroke-width:1;"/></g><!--link Administrador to CU01--><g class="link" data-entity-1="ent0003" data-entity-2="ent0028" data-link-type="dependency" data-source-line="56" id="lnk41"><path d="M105.39,1637.41 C137.22,1634.17 176.68,1624.16 198.08,1596 C213.55,1575.65 190.07,1155.92 206.08,1136 C239.08,1094.93 291.6993,1082.5646 340.3993,1079.8446" fill="none" id="Administrador-to-CU01" style="stroke:#181818;stroke-width:1;"/><polygon fill="#181818" points="346.39,1079.51,337.1809,1076.0181,341.3978,1079.7888,337.6271,1084.0057,346.39,1079.51" style="stroke:#181818;stroke-width:1;"/></g><!--link Cocinero to CU01--><g class="link" data-entity-1="ent0004" data-entity-2="ent0028" data-link-type="dependency" data-source-line="58" id="lnk42"><path d="M86.62,1083 C142.33,1083 257.3,1083 339.22,1083" fill="none" id="Cocinero-to-CU01" style="stroke:#181818;stroke-width:1;"/><polygon fill="#181818" points="345.22,1083,336.22,1079,340.22,1083,336.22,1087,345.22,1083" style="stroke:#181818;stroke-width:1;"/></g><?plantuml-src VLLBRjim4Dth58FiNOYfRKb1OC1rWwABTb4a1s2eiSr69bMI2lf13zH5Lps2BzQXFbGK4TP2WERpPkRDHnNk7JWDHXwE3affK3YfLP9muRI17JznWqRtdzlo99Mqpl1Icy542wcyIU9zkJfK25SxVUAgvFOAVYL0JsDHSEiL3ujq3VUaDY0weolW5dOFwNfc-Jbz2rzG7FdFqHfgYichynzpGAKjI4MAkaAdRGz4NX6aZ90eSQaEqa2DfInr2xNdbUDG8bYdnLE0oEPfvt1NIZVFEuz4My6xIdzhaAmfb93dVyh7gCv_5N901RN1cXlUQaBGLOlKljeouCsc9GPkuFOMlpjKvMOJrDbbzQfNvrFrxqcVxgLuGXTj4rl2dNgML85hZO23u5-7gjaoKlLwx5Rluna-eUNmWxpr8yqD3zNE-yqocYOo2kv4rCkOMIHc3blLLADB2DIr5usXDr7lXJh4pgTChpkkgEGebNclpYvHIUE5vZa-ygo03pHzj5YKg0c6NLL5fAe2Fd4ZHcC_SngKzdDZKJagBzGIyr-EdHWGF1j2gtqbQMqz8qTDJCiHPpdbfEYBBkASBEFgAIVRXiJKc67E8yU0mKT52qA9MhGljY5baR8Ol4U51pBcGg3jMYmCbgW8eiBk79WsW_4SH91OIaZsSTXHqNXEMpIfVCfqMEWmL7Ga0WnB8mbTZtkkQ-ptkSKnkY8is-ofE0B4aCtrb6RMhocBqanvNb9J_AYQkZ1SRbWikYina-Il9RJJhoNPp8iboUGlC5WMKR4t7tuGGVGV?></g></svg>