<svg xmlns="http://www.w3.org/2000/svg" xmlns:xlink="http://www.w3.org/1999/xlink" contentStyleType="text/css" data-diagram-type="CLASS" height="495px" preserveAspectRatio="none" style="width:604px;height:495px;background:#FFFFFF;" version="1.1" viewBox="0 0 604 495" width="604px" zoomAndPan="magnify"><?plantuml 1.2026.3beta6?><defs/><g><!--cluster Restaurante La Uni?n--><g class="cluster" data-qualified-name="Restaurante La Uni.n" data-source-line="1" id="ent0002"><path d="M8.5,6 L180.5557,6 A3.75,3.75 0 0 1 183.0557,8.5 L190.0557,28.2969 L586.5,28.2969 A2.5,2.5 0 0 1 589,30.7969 L589,477.5 A2.5,2.5 0 0 1 586.5,480 L8.5,480 A2.5,2.5 0 0 1 6,477.5 L6,8.5 A2.5,2.5 0 0 1 8.5,6" fill="none" style="stroke:#000000;stroke-width:1.5;"/><line style="stroke:#000000;stroke-width:1.5;" x1="6" x2="190.0557" y1="28.2969" y2="28.2969"/><text fill="#000000" font-family="sans-serif" font-size="14" font-weight="700" lengthAdjust="spacing" textLength="171.0557" x="10" y="20.9951">Restaurante La Uni&#243;n</text></g><!--class Usuario--><g class="entity" data-qualified-name="Restaurante La Uni.n.Usuario" data-source-line="3" id="ent0003"><rect fill="#F1F1F1" height="48" rx="2.5" ry="2.5" style="stroke:#181818;stroke-width:0.5;" width="85.2041" x="286.4" y="41"/><ellipse cx="301.4" cy="57" fill="#ADD1B2" rx="11" ry="11" style="stroke:#181818;stroke-width:1;"/><path d="M304.3688,62.6406 Q303.7906,62.9375 303.15,63.0781 Q302.5094,63.2344 301.8063,63.2344 Q299.3063,63.2344 297.9781,61.5938 Q296.6656,59.9375 296.6656,56.8125 Q296.6656,53.6875 297.9781,52.0313 Q299.3063,50.375 301.8063,50.375 Q302.5094,50.375 303.15,50.5313 Q303.8063,50.6875 304.3688,50.9844 L304.3688,53.7031 Q303.7438,53.125 303.15,52.8594 Q302.5563,52.5781 301.9313,52.5781 Q300.5875,52.5781 299.9,53.6563 Q299.2125,54.7188 299.2125,56.8125 Q299.2125,58.9063 299.9,59.9844 Q300.5875,61.0469 301.9313,61.0469 Q302.5563,61.0469 303.15,60.7813 Q303.7438,60.5 304.3688,59.9219 L304.3688,62.6406 Z " fill="#000000"/><text fill="#000000" font-family="sans-serif" font-size="14" lengthAdjust="spacing" textLength="53.2041" x="315.4" y="61.8467">Usuario</text><line style="stroke:#181818;stroke-width:0.5;" x1="287.4" x2="370.6041" y1="73" y2="73"/><line style="stroke:#181818;stroke-width:0.5;" x1="287.4" x2="370.6041" y1="81" y2="81"/></g><!--class Zona--><g class="entity" data-qualified-name="Restaurante La Uni.n.Zona" data-source-line="4" id="ent0004"><rect fill="#F1F1F1" height="48" rx="2.5" ry="2.5" style="stroke:#181818;stroke-width:0.5;" width="67.6084" x="22.2" y="41"/><ellipse cx="37.2" cy="57" fill="#ADD1B2" rx="11" ry="11" style="stroke:#181818;stroke-width:1;"/><path d="M40.1688,62.6406 Q39.5906,62.9375 38.95,63.0781 Q38.3094,63.2344 37.6063,63.2344 Q35.1063,63.2344 33.7781,61.5938 Q32.4656,59.9375 32.4656,56.8125 Q32.4656,53.6875 33.7781,52.0313 Q35.1063,50.375 37.6063,50.375 Q38.3094,50.375 38.95,50.5313 Q39.6063,50.6875 40.1688,50.9844 L40.1688,53.7031 Q39.5438,53.125 38.95,52.8594 Q38.3563,52.5781 37.7313,52.5781 Q36.3875,52.5781 35.7,53.6563 Q35.0125,54.7188 35.0125,56.8125 Q35.0125,58.9063 35.7,59.9844 Q36.3875,61.0469 37.7313,61.0469 Q38.3563,61.0469 38.95,60.7813 Q39.5438,60.5 40.1688,59.9219 L40.1688,62.6406 Z " fill="#000000"/><text fill="#000000" font-family="sans-serif" font-size="14" lengthAdjust="spacing" textLength="35.6084" x="51.2" y="61.8467">Zona</text><line style="stroke:#181818;stroke-width:0.5;" x1="23.2" x2="88.8084" y1="73" y2="73"/><line style="stroke:#181818;stroke-width:0.5;" x1="23.2" x2="88.8084" y1="81" y2="81"/></g><!--class Mesa--><g class="entity" data-qualified-name="Restaurante La Uni.n.Mesa" data-source-line="5" id="ent0005"><rect fill="#F1F1F1" height="48" rx="2.5" ry="2.5" style="stroke:#181818;stroke-width:0.5;" width="68.5654" x="182.72" y="41"/><ellipse cx="197.72" cy="57" fill="#ADD1B2" rx="11" ry="11" style="stroke:#181818;stroke-width:1;"/><path d="M200.6888,62.6406 Q200.1106,62.9375 199.47,63.0781 Q198.8294,63.2344 198.1263,63.2344 Q195.6263,63.2344 194.2981,61.5938 Q192.9856,59.9375 192.9856,56.8125 Q192.9856,53.6875 194.2981,52.0313 Q195.6263,50.375 198.1263,50.375 Q198.8294,50.375 199.47,50.5313 Q200.1263,50.6875 200.6888,50.9844 L200.6888,53.7031 Q200.0638,53.125 199.47,52.8594 Q198.8763,52.5781 198.2513,52.5781 Q196.9075,52.5781 196.22,53.6563 Q195.5325,54.7188 195.5325,56.8125 Q195.5325,58.9063 196.22,59.9844 Q196.9075,61.0469 198.2513,61.0469 Q198.8763,61.0469 199.47,60.7813 Q200.0638,60.5 200.6888,59.9219 L200.6888,62.6406 Z " fill="#000000"/><text fill="#000000" font-family="sans-serif" font-size="14" lengthAdjust="spacing" textLength="36.5654" x="211.72" y="61.8467">Mesa</text><line style="stroke:#181818;stroke-width:0.5;" x1="183.72" x2="250.2854" y1="73" y2="73"/><line style="stroke:#181818;stroke-width:0.5;" x1="183.72" x2="250.2854" y1="81" y2="81"/></g><!--class Reserva--><g class="entity" data-qualified-name="Restaurante La Uni.n.Reserva" data-source-line="6" id="ent0006"><rect fill="#F1F1F1" height="48" rx="2.5" ry="2.5" style="stroke:#181818;stroke-width:0.5;" width="88.8682" x="297.57" y="166"/><ellipse cx="312.57" cy="182" fill="#ADD1B2" rx="11" ry="11" style="stroke:#181818;stroke-width:1;"/><path d="M315.5388,187.6406 Q314.9606,187.9375 314.32,188.0781 Q313.6794,188.2344 312.9763,188.2344 Q310.4763,188.2344 309.1481,186.5938 Q307.8356,184.9375 307.8356,181.8125 Q307.8356,178.6875 309.1481,177.0313 Q310.4763,175.375 312.9763,175.375 Q313.6794,175.375 314.32,175.5313 Q314.9763,175.6875 315.5388,175.9844 L315.5388,178.7031 Q314.9138,178.125 314.32,177.8594 Q313.7263,177.5781 313.1013,177.5781 Q311.7575,177.5781 311.07,178.6563 Q310.3825,179.7188 310.3825,181.8125 Q310.3825,183.9063 311.07,184.9844 Q311.7575,186.0469 313.1013,186.0469 Q313.7263,186.0469 314.32,185.7813 Q314.9138,185.5 315.5388,184.9219 L315.5388,187.6406 Z " fill="#000000"/><text fill="#000000" font-family="sans-serif" font-size="14" lengthAdjust="spacing" textLength="56.8682" x="326.57" y="186.8467">Reserva</text><line style="stroke:#181818;stroke-width:0.5;" x1="298.57" x2="385.4382" y1="198" y2="198"/><line style="stroke:#181818;stroke-width:0.5;" x1="298.57" x2="385.4382" y1="206" y2="206"/></g><!--class Comanda--><g class="entity" data-qualified-name="Restaurante La Uni.n.Comanda" data-source-line="7" id="ent0007"><rect fill="#F1F1F1" height="48" rx="2.5" ry="2.5" style="stroke:#181818;stroke-width:0.5;" width="98.8965" x="163.55" y="166"/><ellipse cx="178.55" cy="182" fill="#ADD1B2" rx="11" ry="11" style="stroke:#181818;stroke-width:1;"/><path d="M181.5188,187.6406 Q180.9406,187.9375 180.3,188.0781 Q179.6594,188.2344 178.9563,188.2344 Q176.4563,188.2344 175.1281,186.5938 Q173.8156,184.9375 173.8156,181.8125 Q173.8156,178.6875 175.1281,177.0313 Q176.4563,175.375 178.9563,175.375 Q179.6594,175.375 180.3,175.5313 Q180.9563,175.6875 181.5188,175.9844 L181.5188,178.7031 Q180.8938,178.125 180.3,177.8594 Q179.7063,177.5781 179.0813,177.5781 Q177.7375,177.5781 177.05,178.6563 Q176.3625,179.7188 176.3625,181.8125 Q176.3625,183.9063 177.05,184.9844 Q177.7375,186.0469 179.0813,186.0469 Q179.7063,186.0469 180.3,185.7813 Q180.8938,185.5 181.5188,184.9219 L181.5188,187.6406 Z " fill="#000000"/><text fill="#000000" font-family="sans-serif" font-size="14" lengthAdjust="spacing" textLength="66.8965" x="192.55" y="186.8467">Comanda</text><line style="stroke:#181818;stroke-width:0.5;" x1="164.55" x2="261.4465" y1="198" y2="198"/><line style="stroke:#181818;stroke-width:0.5;" x1="164.55" x2="261.4465" y1="206" y2="206"/></g><!--class LineaComanda--><g class="entity" data-qualified-name="Restaurante La Uni.n.LineaComanda" data-source-line="8" id="ent0008"><rect fill="#F1F1F1" height="48" rx="2.5" ry="2.5" style="stroke:#181818;stroke-width:0.5;" width="136.6514" x="162.67" y="291"/><ellipse cx="177.67" cy="307" fill="#ADD1B2" rx="11" ry="11" style="stroke:#181818;stroke-width:1;"/><path d="M180.6388,312.6406 Q180.0606,312.9375 179.42,313.0781 Q178.7794,313.2344 178.0763,313.2344 Q175.5763,313.2344 174.2481,311.5938 Q172.9356,309.9375 172.9356,306.8125 Q172.9356,303.6875 174.2481,302.0313 Q175.5763,300.375 178.0763,300.375 Q178.7794,300.375 179.42,300.5313 Q180.0763,300.6875 180.6388,300.9844 L180.6388,303.7031 Q180.0138,303.125 179.42,302.8594 Q178.8263,302.5781 178.2013,302.5781 Q176.8575,302.5781 176.17,303.6563 Q175.4825,304.7188 175.4825,306.8125 Q175.4825,308.9063 176.17,309.9844 Q176.8575,311.0469 178.2013,311.0469 Q178.8263,311.0469 179.42,310.7813 Q180.0138,310.5 180.6388,309.9219 L180.6388,312.6406 Z " fill="#000000"/><text fill="#000000" font-family="sans-serif" font-size="14" lengthAdjust="spacing" textLength="104.6514" x="191.67" y="311.8467">LineaComanda</text><line style="stroke:#181818;stroke-width:0.5;" x1="163.67" x2="298.3214" y1="323" y2="323"/><line style="stroke:#181818;stroke-width:0.5;" x1="163.67" x2="298.3214" y1="331" y2="331"/></g><!--class Plato--><g class="entity" data-qualified-name="Restaurante La Uni.n.Plato" data-source-line="9" id="ent0009"><rect fill="#F1F1F1" height="48" rx="2.5" ry="2.5" style="stroke:#181818;stroke-width:0.5;" width="66.9658" x="206.52" y="416"/><ellipse cx="221.52" cy="432" fill="#ADD1B2" rx="11" ry="11" style="stroke:#181818;stroke-width:1;"/><path d="M224.4888,437.6406 Q223.9106,437.9375 223.27,438.0781 Q222.6294,438.2344 221.9263,438.2344 Q219.4263,438.2344 218.0981,436.5938 Q216.7856,434.9375 216.7856,431.8125 Q216.7856,428.6875 218.0981,427.0313 Q219.4263,425.375 221.9263,425.375 Q222.6294,425.375 223.27,425.5313 Q223.9263,425.6875 224.4888,425.9844 L224.4888,428.7031 Q223.8638,428.125 223.27,427.8594 Q222.6763,427.5781 222.0513,427.5781 Q220.7075,427.5781 220.02,428.6563 Q219.3325,429.7188 219.3325,431.8125 Q219.3325,433.9063 220.02,434.9844 Q220.7075,436.0469 222.0513,436.0469 Q222.6763,436.0469 223.27,435.7813 Q223.8638,435.5 224.4888,434.9219 L224.4888,437.6406 Z " fill="#000000"/><text fill="#000000" font-family="sans-serif" font-size="14" lengthAdjust="spacing" textLength="34.9658" x="235.52" y="436.8467">Plato</text><line style="stroke:#181818;stroke-width:0.5;" x1="207.52" x2="272.4858" y1="448" y2="448"/><line style="stroke:#181818;stroke-width:0.5;" x1="207.52" x2="272.4858" y1="456" y2="456"/></g><!--class TarifaMenu--><g class="entity" data-qualified-name="Restaurante La Uni.n.TarifaMenu" data-source-line="10" id="ent0010"><rect fill="#F1F1F1" height="48" rx="2.5" ry="2.5" style="stroke:#181818;stroke-width:0.5;" width="110.7227" x="21.64" y="416"/><ellipse cx="36.64" cy="432" fill="#ADD1B2" rx="11" ry="11" style="stroke:#181818;stroke-width:1;"/><path d="M39.6088,437.6406 Q39.0306,437.9375 38.39,438.0781 Q37.7494,438.2344 37.0463,438.2344 Q34.5463,438.2344 33.2181,436.5938 Q31.9056,434.9375 31.9056,431.8125 Q31.9056,428.6875 33.2181,427.0313 Q34.5463,425.375 37.0463,425.375 Q37.7494,425.375 38.39,425.5313 Q39.0463,425.6875 39.6088,425.9844 L39.6088,428.7031 Q38.9838,428.125 38.39,427.8594 Q37.7963,427.5781 37.1713,427.5781 Q35.8275,427.5781 35.14,428.6563 Q34.4525,429.7188 34.4525,431.8125 Q34.4525,433.9063 35.14,434.9844 Q35.8275,436.0469 37.1713,436.0469 Q37.7963,436.0469 38.39,435.7813 Q38.9838,435.5 39.6088,434.9219 L39.6088,437.6406 Z " fill="#000000"/><text fill="#000000" font-family="sans-serif" font-size="14" lengthAdjust="spacing" textLength="78.7227" x="50.64" y="436.8467">TarifaMenu</text><line style="stroke:#181818;stroke-width:0.5;" x1="22.64" x2="131.3627" y1="448" y2="448"/><line style="stroke:#181818;stroke-width:0.5;" x1="22.64" x2="131.3627" y1="456" y2="456"/></g><!--class Ticket--><g class="entity" data-qualified-name="Restaurante La Uni.n.Ticket" data-source-line="11" id="ent0011"><rect fill="#F1F1F1" height="48" rx="2.5" ry="2.5" style="stroke:#181818;stroke-width:0.5;" width="74.3486" x="374.83" y="291"/><ellipse cx="389.83" cy="307" fill="#ADD1B2" rx="11" ry="11" style="stroke:#181818;stroke-width:1;"/><path d="M392.7988,312.6406 Q392.2206,312.9375 391.58,313.0781 Q390.9394,313.2344 390.2363,313.2344 Q387.7363,313.2344 386.4081,311.5938 Q385.0956,309.9375 385.0956,306.8125 Q385.0956,303.6875 386.4081,302.0313 Q387.7363,300.375 390.2363,300.375 Q390.9394,300.375 391.58,300.5313 Q392.2363,300.6875 392.7988,300.9844 L392.7988,303.7031 Q392.1738,303.125 391.58,302.8594 Q390.9863,302.5781 390.3613,302.5781 Q389.0175,302.5781 388.33,303.6563 Q387.6425,304.7188 387.6425,306.8125 Q387.6425,308.9063 388.33,309.9844 Q389.0175,311.0469 390.3613,311.0469 Q390.9863,311.0469 391.58,310.7813 Q392.1738,310.5 392.7988,309.9219 L392.7988,312.6406 Z " fill="#000000"/><text fill="#000000" font-family="sans-serif" font-size="14" lengthAdjust="spacing" textLength="42.3486" x="403.83" y="311.8467">Ticket</text><line style="stroke:#181818;stroke-width:0.5;" x1="375.83" x2="448.1786" y1="323" y2="323"/><line style="stroke:#181818;stroke-width:0.5;" x1="375.83" x2="448.1786" y1="331" y2="331"/></g><!--class LogAuditoria--><g class="entity" data-qualified-name="Restaurante La Uni.n.LogAuditoria" data-source-line="12" id="ent0012"><rect fill="#F1F1F1" height="48" rx="2.5" ry="2.5" style="stroke:#181818;stroke-width:0.5;" width="120.7578" x="452.62" y="41"/><ellipse cx="467.62" cy="57" fill="#ADD1B2" rx="11" ry="11" style="stroke:#181818;stroke-width:1;"/><path d="M470.5888,62.6406 Q470.0106,62.9375 469.37,63.0781 Q468.7294,63.2344 468.0263,63.2344 Q465.5263,63.2344 464.1981,61.5938 Q462.8856,59.9375 462.8856,56.8125 Q462.8856,53.6875 464.1981,52.0313 Q465.5263,50.375 468.0263,50.375 Q468.7294,50.375 469.37,50.5313 Q470.0263,50.6875 470.5888,50.9844 L470.5888,53.7031 Q469.9638,53.125 469.37,52.8594 Q468.7763,52.5781 468.1513,52.5781 Q466.8075,52.5781 466.12,53.6563 Q465.4325,54.7188 465.4325,56.8125 Q465.4325,58.9063 466.12,59.9844 Q466.8075,61.0469 468.1513,61.0469 Q468.7763,61.0469 469.37,60.7813 Q469.9638,60.5 470.5888,59.9219 L470.5888,62.6406 Z " fill="#000000"/><text fill="#000000" font-family="sans-serif" font-size="14" lengthAdjust="spacing" textLength="88.7578" x="481.62" y="61.8467">LogAuditoria</text><line style="stroke:#181818;stroke-width:0.5;" x1="453.62" x2="572.3778" y1="73" y2="73"/><line style="stroke:#181818;stroke-width:0.5;" x1="453.62" x2="572.3778" y1="81" y2="81"/></g><!--link Usuario to LogAuditoria--><g class="link" data-entity-1="ent0003" data-entity-2="ent0012" data-link-type="dependency" data-source-line="15" id="lnk13"><path codeLine="15" d="M371.68,65 C395.67,65 420.02,65 446.43,65" fill="none" id="Usuario-to-LogAuditoria" style="stroke:#181818;stroke-width:1;"/><polygon fill="#181818" points="452.43,65,443.43,61,447.43,65,443.43,69,452.43,65" style="stroke:#181818;stroke-width:1;"/><text fill="#000000" font-family="sans-serif" font-size="13" lengthAdjust="spacing" textLength="45.7983" x="389.61" y="58.0669">genera</text></g><!--link Zona to Mesa--><g class="link" data-entity-1="ent0004" data-entity-2="ent0005" data-link-type="dependency" data-source-line="16" id="lnk14"><path codeLine="16" d="M90.14,65 C117.28,65 149.08,65 176.35,65" fill="none" id="Zona-to-Mesa" style="stroke:#181818;stroke-width:1;"/><polygon fill="#181818" points="182.35,65,173.35,61,177.35,65,173.35,69,182.35,65" style="stroke:#181818;stroke-width:1;"/><text fill="#000000" font-family="sans-serif" font-size="13" lengthAdjust="spacing" textLength="56.2847" x="108.26" y="58.0669">contiene</text></g><!--link Usuario to Reserva--><g class="link" data-entity-1="ent0003" data-entity-2="ent0006" data-link-type="dependency" data-source-line="17" id="lnk15"><path codeLine="17" d="M331.48,89.42 C333.79,111.31 336.5895,137.8332 338.8995,159.6932" fill="none" id="Usuario-to-Reserva" style="stroke:#181818;stroke-width:1;"/><polygon fill="#181818" points="339.53,165.66,342.5621,156.2895,339.0046,160.6877,334.6064,157.1302,339.53,165.66" style="stroke:#181818;stroke-width:1;"/><text fill="#000000" font-family="sans-serif" font-size="13" lengthAdjust="spacing" textLength="55.8911" x="337" y="132.0669">gestiona</text></g><!--link Mesa to Reserva--><g class="link" data-entity-1="ent0005" data-entity-2="ent0006" data-link-type="dependency" data-source-line="18" id="lnk16"><path codeLine="18" d="M213.33,89.47 C212.32,104.13 213.52,122.68 223,136 C227.77,142.7 259.992,156.6744 291.722,169.4144" fill="none" id="Mesa-to-Reserva" style="stroke:#181818;stroke-width:1;"/><polygon fill="#181818" points="297.29,171.65,290.4285,164.5846,292.65,169.787,287.4477,172.0086,297.29,171.65" style="stroke:#181818;stroke-width:1;"/><text fill="#000000" font-family="sans-serif" font-size="13" lengthAdjust="spacing" textLength="32.9443" x="224" y="132.0669">tiene</text></g><!--link Usuario to Comanda--><g class="link" data-entity-1="ent0003" data-entity-2="ent0007" data-link-type="dependency" data-source-line="19" id="lnk17"><path codeLine="19" d="M306.91,89.42 C286.27,111.31 259.736,139.4344 239.126,161.2944" fill="none" id="Usuario-to-Comanda" style="stroke:#181818;stroke-width:1;"/><polygon fill="#181818" points="235.01,165.66,244.0944,161.8556,238.44,162.022,238.2736,156.3676,235.01,165.66" style="stroke:#181818;stroke-width:1;"/><text fill="#000000" font-family="sans-serif" font-size="13" lengthAdjust="spacing" textLength="33.6807" x="279" y="132.0669">toma</text></g><!--link Mesa to Comanda--><g class="link" data-entity-1="ent0005" data-entity-2="ent0007" data-link-type="dependency" data-source-line="20" id="lnk18"><path codeLine="20" d="M182.52,78.81 C164.92,87.32 145.13,100.39 135,119 C124.26,138.74 136.8353,152.7174 158.1153,165.0174" fill="none" id="Mesa-to-Comanda" style="stroke:#181818;stroke-width:1;"/><polygon fill="#181818" points="163.31,168.02,157.5197,160.053,158.9811,165.5179,153.5163,166.9793,163.31,168.02" style="stroke:#181818;stroke-width:1;"/><text fill="#000000" font-family="sans-serif" font-size="13" lengthAdjust="spacing" textLength="39.4824" x="136" y="132.0669">activa</text></g><!--link Usuario to Ticket--><g class="link" data-entity-1="ent0003" data-entity-2="ent0011" data-link-type="dependency" data-source-line="21" id="lnk19"><path codeLine="21" d="M371.74,88.22 C383.17,96.32 394.23,106.6 401,119 C431.24,174.35 424.3523,246.296 417.7723,284.736" fill="none" id="Usuario-to-Ticket" style="stroke:#181818;stroke-width:1;"/><polygon fill="#181818" points="416.76,290.65,422.2212,282.4539,417.6036,285.7217,414.3358,281.1041,416.76,290.65" style="stroke:#181818;stroke-width:1;"/><text fill="#000000" font-family="sans-serif" font-size="13" lengthAdjust="spacing" textLength="36.6641" x="423" y="194.5669">cobra</text></g><!--link Comanda to Ticket--><g class="link" data-entity-1="ent0007" data-entity-2="ent0011" data-link-type="dependency" data-source-line="22" id="lnk20"><path codeLine="22" d="M250.9,214.42 C286.42,236.38 334.1061,265.8556 369.4761,287.7156" fill="none" id="Comanda-to-Ticket" style="stroke:#181818;stroke-width:1;"/><polygon fill="#181818" points="374.58,290.87,369.0271,282.7358,370.3268,288.2413,364.8212,289.541,374.58,290.87" style="stroke:#181818;stroke-width:1;"/><text fill="#000000" font-family="sans-serif" font-size="13" lengthAdjust="spacing" textLength="45.7983" x="326" y="257.0669">genera</text></g><!--link Comanda to LineaComanda--><g class="link" data-entity-1="ent0007" data-entity-2="ent0008" data-link-type="dependency" data-source-line="23" id="lnk21"><path codeLine="23" d="M216.43,214.42 C219.63,236.31 223.5236,262.8629 226.7136,284.7229" fill="none" id="Comanda-to-LineaComanda" style="stroke:#181818;stroke-width:1;"/><polygon fill="#181818" points="227.58,290.66,230.2385,281.1767,226.858,285.7124,222.3223,282.3319,227.58,290.66" style="stroke:#181818;stroke-width:1;"/><text fill="#000000" font-family="sans-serif" font-size="13" lengthAdjust="spacing" textLength="56.2847" x="225" y="257.0669">contiene</text></g><!--link LineaComanda to Plato--><g class="link" data-entity-1="ent0008" data-entity-2="ent0009" data-link-type="dependency" data-source-line="24" id="lnk22"><path codeLine="24" d="M232.71,339.42 C234.32,361.31 236.252,387.816 237.852,409.676" fill="none" id="LineaComanda-to-Plato" style="stroke:#181818;stroke-width:1;"/><polygon fill="#181818" points="238.29,415.66,241.6223,406.392,237.925,410.6733,233.6437,406.976,238.29,415.66" style="stroke:#181818;stroke-width:1;"/><text fill="#000000" font-family="sans-serif" font-size="13" lengthAdjust="spacing" textLength="66.2251" x="238" y="382.0669">referencia</text></g><!--link TarifaMenu to Plato--><g class="link" data-entity-1="ent0010" data-entity-2="ent0009" data-link-type="dependency" data-source-line="25" id="lnk23"><path codeLine="25" d="M132.64,440 C157.17,440 179.19,440 200.45,440" fill="none" id="TarifaMenu-to-Plato" style="stroke:#181818;stroke-width:1;"/><polygon fill="#181818" points="206.45,440,197.45,436,201.45,440,197.45,444,206.45,440" style="stroke:#181818;stroke-width:1;"/><text fill="#000000" font-family="sans-serif" font-size="13" lengthAdjust="spacing" textLength="38.5557" x="150.44" y="433.0669">aplica</text></g><?plantuml-src RL11Zi8m3Bpp2elxVc0FI6Yl8ArMSE7c3MvbKHoKf5mGh-89V0mxxJOfMgc7ZiVZpCm5tGbRWkKFnOHzG4a46uIzyFCXIxWj5W2kmnXX7tiCx2Tyy88Js58iG6zHk1RyvSyenu8tB8Jlm-yEKpc-qwSQt9BqPSJkHAaSyUswFtBoWT5CwZSwX8_LZ8LFQ4aes5jcsdZpgtFd9R5ojLZPCK0MniH3q2oPi_zfnrp6wb-jAmownBcVIZZ4ovv-izM_TPDEv1IaPki-vw5cZAtcbdKdK4E1nB7TAcL3jOANZfrMUty1?></g></svg>