<svg xmlns="http://www.w3.org/2000/svg" xmlns:xlink="http://www.w3.org/1999/xlink" contentStyleType="text/css" data-diagram-type="CLASS" height="969px" preserveAspectRatio="none" style="width:1302px;height:969px;background:#FFFFFF;" version="1.1" viewBox="0 0 1302 969" width="1302px" zoomAndPan="magnify"><?plantuml 1.2026.3beta6?><defs/><g><!--cluster Restaurante La Uni?n--><g class="cluster" data-qualified-name="Restaurante La Uni.n" data-source-line="1" id="ent0002"><path d="M8.5,6 L180.5557,6 A3.75,3.75 0 0 1 183.0557,8.5 L190.0557,28.2969 L1284.5,28.2969 A2.5,2.5 0 0 1 1287,30.7969 L1287,951.52 A2.5,2.5 0 0 1 1284.5,954.02 L8.5,954.02 A2.5,2.5 0 0 1 6,951.52 L6,8.5 A2.5,2.5 0 0 1 8.5,6" fill="none" style="stroke:#000000;stroke-width:1.5;"/><line style="stroke:#000000;stroke-width:1.5;" x1="6" x2="190.0557" y1="28.2969" y2="28.2969"/><text fill="#000000" font-family="sans-serif" font-size="14" font-weight="700" lengthAdjust="spacing" textLength="171.0557" x="10" y="20.9951">Restaurante La Uni&#243;n</text></g><g class="entity" data-qualified-name="Restaurante La Uni.n.carlos" data-source-line="3" id="ent0003"><rect fill="#F1F1F1" height="60.8906" rx="2.5" ry="2.5" style="stroke:#181818;stroke-width:0.5;" width="197.165" x="175.42" y="162.6"/><text fill="#000000" font-family="sans-serif" font-size="14" lengthAdjust="spacing" textLength="108.6025" x="219.7013" y="177.5951">carlos : Usuario</text><line style="stroke:#181818;stroke-width:0.5;" x1="176.42" x2="371.585" y1="182.8969" y2="182.8969"/><text fill="#000000" font-family="sans-serif" font-size="14" lengthAdjust="spacing" textLength="185.165" x="181.42" y="199.892">nombre = "Carlos G&#243;mez"</text><text fill="#000000" font-family="sans-serif" font-size="14" lengthAdjust="spacing" textLength="119.1709" x="181.42" y="216.1889">rol = CAMARERO</text></g><g class="entity" data-qualified-name="Restaurante La Uni.n.luis" data-source-line="8" id="ent0004"><rect fill="#F1F1F1" height="60.8906" rx="2.5" ry="2.5" style="stroke:#181818;stroke-width:0.5;" width="205.7441" x="831.13" y="162.6"/><text fill="#000000" font-family="sans-serif" font-size="14" lengthAdjust="spacing" textLength="90.7676" x="888.6183" y="177.5951">luis : Usuario</text><line style="stroke:#181818;stroke-width:0.5;" x1="832.13" x2="1035.8741" y1="182.8969" y2="182.8969"/><text fill="#000000" font-family="sans-serif" font-size="14" lengthAdjust="spacing" textLength="193.7441" x="837.13" y="199.892">nombre = "Luis Fern&#225;ndez"</text><text fill="#000000" font-family="sans-serif" font-size="14" lengthAdjust="spacing" textLength="158.2793" x="837.13" y="216.1889">rol = ADMINISTRADOR</text></g><g class="entity" data-qualified-name="Restaurante La Uni.n.comedor" data-source-line="13" id="ent0005"><rect fill="#F1F1F1" height="44.5938" rx="2.5" ry="2.5" style="stroke:#181818;stroke-width:0.5;" width="163.6416" x="505.18" y="41"/><text fill="#000000" font-family="sans-serif" font-size="14" lengthAdjust="spacing" textLength="110.9473" x="531.5272" y="55.9951">comedor : Zona</text><line style="stroke:#181818;stroke-width:0.5;" x1="506.18" x2="667.8216" y1="61.2969" y2="61.2969"/><text fill="#000000" font-family="sans-serif" font-size="14" lengthAdjust="spacing" textLength="151.6416" x="511.18" y="78.292">nombre = "Comedor"</text></g><g class="entity" data-qualified-name="Restaurante La Uni.n.mesa3" data-source-line="17" id="ent0006"><rect fill="#F1F1F1" height="60.8906" rx="2.5" ry="2.5" style="stroke:#181818;stroke-width:0.5;" width="149.4775" x="512.26" y="162.6"/><text fill="#000000" font-family="sans-serif" font-size="14" lengthAdjust="spacing" textLength="97.2139" x="538.3918" y="177.5951">mesa3 : Mesa</text><line style="stroke:#181818;stroke-width:0.5;" x1="513.26" x2="660.7375" y1="182.8969" y2="182.8969"/><text fill="#000000" font-family="sans-serif" font-size="14" lengthAdjust="spacing" textLength="83.8564" x="518.26" y="199.892">numero = 3</text><text fill="#000000" font-family="sans-serif" font-size="14" lengthAdjust="spacing" textLength="137.4775" x="518.26" y="216.1889">estado = OCUPADA</text></g><g class="entity" data-qualified-name="Restaurante La Uni.n.reserva1" data-source-line="22" id="ent0007"><rect fill="#F1F1F1" height="109.7813" rx="2.5" ry="2.5" style="stroke:#181818;stroke-width:0.5;" width="249.3027" x="614.35" y="300.49"/><text fill="#000000" font-family="sans-serif" font-size="14" lengthAdjust="spacing" textLength="132.2891" x="672.8568" y="315.4851">reserva1 : Reserva</text><line style="stroke:#181818;stroke-width:0.5;" x1="615.35" x2="862.6527" y1="320.7869" y2="320.7869"/><text fill="#000000" font-family="sans-serif" font-size="14" lengthAdjust="spacing" textLength="237.3027" x="620.35" y="337.782">nombreCliente = "Familia Garc&#237;a"</text><text fill="#000000" font-family="sans-serif" font-size="14" lengthAdjust="spacing" textLength="153.5625" x="620.35" y="354.0789">fecha = "2026-04-07"</text><text fill="#000000" font-family="sans-serif" font-size="14" lengthAdjust="spacing" textLength="105.6289" x="620.35" y="370.3757">hora = "13:00"</text><text fill="#000000" font-family="sans-serif" font-size="14" lengthAdjust="spacing" textLength="146.0566" x="620.35" y="386.6726">numComensales = 2</text><text fill="#000000" font-family="sans-serif" font-size="14" lengthAdjust="spacing" textLength="163.249" x="620.35" y="402.9695">estado = CONFIRMADA</text></g><g class="entity" data-qualified-name="Restaurante La Uni.n.comanda1" data-source-line="30" id="ent0008"><rect fill="#F1F1F1" height="60.8906" rx="2.5" ry="2.5" style="stroke:#181818;stroke-width:0.5;" width="243.7861" x="335.11" y="324.93"/><text fill="#000000" font-family="sans-serif" font-size="14" lengthAdjust="spacing" textLength="154.2393" x="379.8834" y="339.9251">comanda1 : Comanda</text><line style="stroke:#181818;stroke-width:0.5;" x1="336.11" x2="577.8961" y1="345.2269" y2="345.2269"/><text fill="#000000" font-family="sans-serif" font-size="14" lengthAdjust="spacing" textLength="231.7861" x="341.11" y="362.222">fechaHora = "2026-04-07 13:05"</text><text fill="#000000" font-family="sans-serif" font-size="14" lengthAdjust="spacing" textLength="128.0713" x="341.11" y="378.5189">estado = ABIERTA</text></g><g class="entity" data-qualified-name="Restaurante La Uni.n.linea1" data-source-line="35" id="ent0009"><rect fill="#F1F1F1" height="93.4844" rx="2.5" ry="2.5" style="stroke:#181818;stroke-width:0.5;" width="175.0205" x="610.49" y="495.42"/><text fill="#000000" font-family="sans-serif" font-size="14" lengthAdjust="spacing" textLength="161.0205" x="617.49" y="510.4151">linea1 : LineaComanda</text><line style="stroke:#181818;stroke-width:0.5;" x1="611.49" x2="784.5105" y1="515.7169" y2="515.7169"/><text fill="#000000" font-family="sans-serif" font-size="14" lengthAdjust="spacing" textLength="90.4189" x="616.49" y="532.712">cantidad = 1</text><text fill="#000000" font-family="sans-serif" font-size="14" lengthAdjust="spacing" textLength="147.2051" x="616.49" y="549.0089">alergenos = "gluten"</text><text fill="#000000" font-family="sans-serif" font-size="14" lengthAdjust="spacing" textLength="147.4443" x="616.49" y="565.3057">estado = PENDIENTE</text><text fill="#000000" font-family="sans-serif" font-size="14" lengthAdjust="spacing" textLength="108.2813" x="616.49" y="581.6026">esMenu = false</text></g><g class="entity" data-qualified-name="Restaurante La Uni.n.linea2" data-source-line="42" id="ent0010"><rect fill="#F1F1F1" height="109.7813" rx="2.5" ry="2.5" style="stroke:#181818;stroke-width:0.5;" width="236.834" x="66.58" y="487.27"/><text fill="#000000" font-family="sans-serif" font-size="14" lengthAdjust="spacing" textLength="161.0205" x="104.4867" y="502.2651">linea2 : LineaComanda</text><line style="stroke:#181818;stroke-width:0.5;" x1="67.58" x2="302.414" y1="507.5669" y2="507.5669"/><text fill="#000000" font-family="sans-serif" font-size="14" lengthAdjust="spacing" textLength="90.4189" x="72.58" y="524.562">cantidad = 1</text><text fill="#000000" font-family="sans-serif" font-size="14" lengthAdjust="spacing" textLength="159.4141" x="72.58" y="540.8589">alergenos = "ninguno"</text><text fill="#000000" font-family="sans-serif" font-size="14" lengthAdjust="spacing" textLength="147.4443" x="72.58" y="557.1557">estado = PENDIENTE</text><text fill="#000000" font-family="sans-serif" font-size="14" lengthAdjust="spacing" textLength="103.708" x="72.58" y="573.4526">esMenu = true</text><text fill="#000000" font-family="sans-serif" font-size="14" lengthAdjust="spacing" textLength="224.834" x="72.58" y="589.7495">modalidadMenu = DOS_PLATOS</text></g><g class="entity" data-qualified-name="Restaurante La Uni.n.linea3" data-source-line="50" id="ent0011"><rect fill="#F1F1F1" height="109.7813" rx="2.5" ry="2.5" style="stroke:#181818;stroke-width:0.5;" width="236.834" x="338.58" y="487.27"/><text fill="#000000" font-family="sans-serif" font-size="14" lengthAdjust="spacing" textLength="161.0205" x="376.4867" y="502.2651">linea3 : LineaComanda</text><line style="stroke:#181818;stroke-width:0.5;" x1="339.58" x2="574.414" y1="507.5669" y2="507.5669"/><text fill="#000000" font-family="sans-serif" font-size="14" lengthAdjust="spacing" textLength="90.4189" x="344.58" y="524.562">cantidad = 1</text><text fill="#000000" font-family="sans-serif" font-size="14" lengthAdjust="spacing" textLength="152.6738" x="344.58" y="540.8589">alergenos = "lactosa"</text><text fill="#000000" font-family="sans-serif" font-size="14" lengthAdjust="spacing" textLength="147.4443" x="344.58" y="557.1557">estado = PENDIENTE</text><text fill="#000000" font-family="sans-serif" font-size="14" lengthAdjust="spacing" textLength="103.708" x="344.58" y="573.4526">esMenu = true</text><text fill="#000000" font-family="sans-serif" font-size="14" lengthAdjust="spacing" textLength="224.834" x="344.58" y="589.7495">modalidadMenu = DOS_PLATOS</text></g><g class="entity" data-qualified-name="Restaurante La Uni.n.ensalada" data-source-line="58" id="ent0012"><rect fill="#F1F1F1" height="93.4844" rx="2.5" ry="2.5" style="stroke:#181818;stroke-width:0.5;" width="207.6992" x="594.15" y="674.05"/><text fill="#000000" font-family="sans-serif" font-size="14" lengthAdjust="spacing" textLength="111.877" x="642.0611" y="689.0451">ensalada : Plato</text><line style="stroke:#181818;stroke-width:0.5;" x1="595.15" x2="800.8492" y1="694.3469" y2="694.3469"/><text fill="#000000" font-family="sans-serif" font-size="14" lengthAdjust="spacing" textLength="195.6992" x="600.15" y="711.342">nombre = "Ensalada mixta"</text><text fill="#000000" font-family="sans-serif" font-size="14" lengthAdjust="spacing" textLength="95.2109" x="600.15" y="727.6389">precio = 8.00</text><text fill="#000000" font-family="sans-serif" font-size="14" lengthAdjust="spacing" textLength="150.6572" x="600.15" y="743.9357">categoria = PRIMERO</text><text fill="#000000" font-family="sans-serif" font-size="14" lengthAdjust="spacing" textLength="181.7676" x="600.15" y="760.2326">disponibleEnMenu = false</text></g><g class="entity" data-qualified-name="Restaurante La Uni.n.sopa" data-source-line="65" id="ent0013"><rect fill="#F1F1F1" height="93.4844" rx="2.5" ry="2.5" style="stroke:#181818;stroke-width:0.5;" width="210.6934" x="68.65" y="844.54"/><text fill="#000000" font-family="sans-serif" font-size="14" lengthAdjust="spacing" textLength="81.9082" x="133.0426" y="859.5351">sopa : Plato</text><line style="stroke:#181818;stroke-width:0.5;" x1="69.65" x2="278.3434" y1="864.8369" y2="864.8369"/><text fill="#000000" font-family="sans-serif" font-size="14" lengthAdjust="spacing" textLength="198.6934" x="74.65" y="881.832">nombre = "Sopa castellana"</text><text fill="#000000" font-family="sans-serif" font-size="14" lengthAdjust="spacing" textLength="95.2109" x="74.65" y="898.1289">precio = 7.00</text><text fill="#000000" font-family="sans-serif" font-size="14" lengthAdjust="spacing" textLength="150.6572" x="74.65" y="914.4257">categoria = PRIMERO</text><text fill="#000000" font-family="sans-serif" font-size="14" lengthAdjust="spacing" textLength="177.1943" x="74.65" y="930.7226">disponibleEnMenu = true</text></g><g class="entity" data-qualified-name="Restaurante La Uni.n.merluza" data-source-line="72" id="ent0014"><rect fill="#F1F1F1" height="93.4844" rx="2.5" ry="2.5" style="stroke:#181818;stroke-width:0.5;" width="216.9824" x="340.51" y="844.54"/><text fill="#000000" font-family="sans-serif" font-size="14" lengthAdjust="spacing" textLength="105.2803" x="396.3611" y="859.5351">merluza : Plato</text><line style="stroke:#181818;stroke-width:0.5;" x1="341.51" x2="556.4924" y1="864.8369" y2="864.8369"/><text fill="#000000" font-family="sans-serif" font-size="14" lengthAdjust="spacing" textLength="204.9824" x="346.51" y="881.832">nombre = "Merluza al horno"</text><text fill="#000000" font-family="sans-serif" font-size="14" lengthAdjust="spacing" textLength="104.1182" x="346.51" y="898.1289">precio = 13.00</text><text fill="#000000" font-family="sans-serif" font-size="14" lengthAdjust="spacing" textLength="157.7871" x="346.51" y="914.4257">categoria = SEGUNDO</text><text fill="#000000" font-family="sans-serif" font-size="14" lengthAdjust="spacing" textLength="177.1943" x="346.51" y="930.7226">disponibleEnMenu = true</text></g><g class="entity" data-qualified-name="Restaurante La Uni.n.tarifa" data-source-line="79" id="ent0015"><rect fill="#F1F1F1" height="77.1875" rx="2.5" ry="2.5" style="stroke:#181818;stroke-width:0.5;" width="236.7148" x="172.64" y="682.2"/><text fill="#000000" font-family="sans-serif" font-size="14" lengthAdjust="spacing" textLength="222.7148" x="179.64" y="697.1951">tarifaEntresemana : TarifaMenu</text><line style="stroke:#181818;stroke-width:0.5;" x1="173.64" x2="408.3548" y1="702.4969" y2="702.4969"/><text fill="#000000" font-family="sans-serif" font-size="14" lengthAdjust="spacing" textLength="213.7119" x="178.64" y="719.492">tipoJornada = ENTRE_SEMANA</text><text fill="#000000" font-family="sans-serif" font-size="14" lengthAdjust="spacing" textLength="158.2041" x="178.64" y="735.7889">precioUnPlato = 13.00</text><text fill="#000000" font-family="sans-serif" font-size="14" lengthAdjust="spacing" textLength="173.0176" x="178.64" y="752.0857">precioDosPlatos = 17.00</text></g><g class="entity" data-qualified-name="Restaurante La Uni.n.ticket1" data-source-line="85" id="ent0016"><rect fill="#F1F1F1" height="60.8906" rx="2.5" ry="2.5" style="stroke:#181818;stroke-width:0.5;" width="159.4443" x="837.28" y="511.72"/><text fill="#000000" font-family="sans-serif" font-size="14" lengthAdjust="spacing" textLength="104.1592" x="864.9226" y="526.7151">ticket1 : Ticket</text><line style="stroke:#181818;stroke-width:0.5;" x1="838.28" x2="995.7243" y1="532.0169" y2="532.0169"/><text fill="#000000" font-family="sans-serif" font-size="14" lengthAdjust="spacing" textLength="92.7227" x="843.28" y="549.012">total = 25.00</text><text fill="#000000" font-family="sans-serif" font-size="14" lengthAdjust="spacing" textLength="147.4443" x="843.28" y="565.3089">estado = PENDIENTE</text></g><g class="entity" data-qualified-name="Restaurante La Uni.n.log1" data-source-line="90" id="ent0017"><rect fill="#F1F1F1" height="77.1875" rx="2.5" ry="2.5" style="stroke:#181818;stroke-width:0.5;" width="277.7539" x="22.12" y="316.79"/><text fill="#000000" font-family="sans-serif" font-size="14" lengthAdjust="spacing" textLength="132.624" x="94.6849" y="331.7851">log1 : LogAuditoria</text><line style="stroke:#181818;stroke-width:0.5;" x1="23.12" x2="298.8739" y1="337.0869" y2="337.0869"/><text fill="#000000" font-family="sans-serif" font-size="14" lengthAdjust="spacing" textLength="187.4141" x="28.12" y="354.082">accion = "Toma comanda"</text><text fill="#000000" font-family="sans-serif" font-size="14" lengthAdjust="spacing" textLength="231.7861" x="28.12" y="370.3789">fechaHora = "2026-04-07 13:05"</text><text fill="#000000" font-family="sans-serif" font-size="14" lengthAdjust="spacing" textLength="265.7539" x="28.12" y="386.6757">detalle = "Mesa 3 &#183; Comedor &#183; Carlos"</text></g><g class="entity" data-qualified-name="Restaurante La Uni.n.log2" data-source-line="96" id="ent0018"><rect fill="#F1F1F1" height="77.1875" rx="2.5" ry="2.5" style="stroke:#181818;stroke-width:0.5;" width="264.1982" x="1006.9" y="316.79"/><text fill="#000000" font-family="sans-serif" font-size="14" lengthAdjust="spacing" textLength="132.624" x="1072.6871" y="331.7851">log2 : LogAuditoria</text><line style="stroke:#181818;stroke-width:0.5;" x1="1007.9" x2="1270.0982" y1="337.0869" y2="337.0869"/><text fill="#000000" font-family="sans-serif" font-size="14" lengthAdjust="spacing" textLength="164.1104" x="1012.9" y="354.082">accion = "Cobra ticket"</text><text fill="#000000" font-family="sans-serif" font-size="14" lengthAdjust="spacing" textLength="231.7861" x="1012.9" y="370.3789">fechaHora = "2026-04-07 14:30"</text><text fill="#000000" font-family="sans-serif" font-size="14" lengthAdjust="spacing" textLength="252.1982" x="1012.9" y="386.6757">detalle = "Mesa 3 &#183; Total 25&#8364; &#183; Luis"</text></g><!--link carlos to comanda1--><g class="link" data-entity-1="ent0003" data-entity-2="ent0008" data-link-type="dependency" data-source-line="102" id="lnk19"><path codeLine="102" d="M307.99,223.83 C340.76,252.53 385.5574,291.7858 418.3674,320.5358" fill="none" id="carlos-to-comanda1" style="stroke:#181818;stroke-width:1;"/><polygon fill="#181818" points="422.88,324.49,418.7472,315.5502,419.1195,321.1948,413.4749,321.5671,422.88,324.49" style="stroke:#181818;stroke-width:1;"/><text fill="#000000" font-family="sans-serif" font-size="13" lengthAdjust="spacing" textLength="33.6807" x="361" y="266.5569">toma</text></g><!--link carlos to log1--><g class="link" data-entity-1="ent0003" data-entity-2="ent0017" data-link-type="dependency" data-source-line="103" id="lnk20"><path codeLine="103" d="M253.01,223.83 C234.56,250 211.0869,283.3159 191.1169,311.6459" fill="none" id="carlos-to-log1" style="stroke:#181818;stroke-width:1;"/><polygon fill="#181818" points="187.66,316.55,196.1147,311.4985,190.5408,312.4633,189.576,306.8893,187.66,316.55" style="stroke:#181818;stroke-width:1;"/><text fill="#000000" font-family="sans-serif" font-size="13" lengthAdjust="spacing" textLength="45.7983" x="231" y="266.5569">genera</text></g><!--link luis to ticket1--><g class="link" data-entity-1="ent0004" data-entity-2="ent0016" data-link-type="dependency" data-source-line="104" id="lnk21"><path codeLine="104" d="M932.54,223.94 C929.31,289.72 921.9333,440.3372 918.7333,505.7172" fill="none" id="luis-to-ticket1" style="stroke:#181818;stroke-width:1;"/><polygon fill="#181818" points="918.44,511.71,922.8752,502.9163,918.6844,506.716,914.8848,502.5252,918.44,511.71" style="stroke:#181818;stroke-width:1;"/><text fill="#000000" font-family="sans-serif" font-size="13" lengthAdjust="spacing" textLength="36.6641" x="929" y="359.9469">cobra</text></g><!--link luis to log2--><g class="link" data-entity-1="ent0004" data-entity-2="ent0018" data-link-type="dependency" data-source-line="105" id="lnk22"><path codeLine="105" d="M972.08,223.83 C1005.54,250 1049.684,284.5235 1085.904,312.8535" fill="none" id="luis-to-log2" style="stroke:#181818;stroke-width:1;"/><polygon fill="#181818" points="1090.63,316.55,1086.0053,307.8545,1086.6916,313.4695,1081.0766,314.1559,1090.63,316.55" style="stroke:#181818;stroke-width:1;"/><text fill="#000000" font-family="sans-serif" font-size="13" lengthAdjust="spacing" textLength="45.7983" x="1031" y="266.5569">genera</text></g><!--link luis to reserva1--><g class="link" data-entity-1="ent0004" data-entity-2="ent0007" data-link-type="dependency" data-source-line="106" id="lnk23"><path codeLine="106" d="M897.78,223.83 C871.79,245.2 840.6551,270.8 809.6451,296.29" fill="none" id="luis-to-reserva1" style="stroke:#181818;stroke-width:1;"/><polygon fill="#181818" points="805.01,300.1,814.5026,297.4751,808.8726,296.925,809.4226,291.295,805.01,300.1" style="stroke:#181818;stroke-width:1;"/><text fill="#000000" font-family="sans-serif" font-size="13" lengthAdjust="spacing" textLength="55.8911" x="860" y="266.5569">gestiona</text></g><!--link comedor to mesa3--><g class="link" data-entity-1="ent0005" data-entity-2="ent0006" data-link-type="dependency" data-source-line="107" id="lnk24"><path codeLine="107" d="M587,85.97 C587,106.9 587,132.77 587,156.11" fill="none" id="comedor-to-mesa3" style="stroke:#181818;stroke-width:1;"/><polygon fill="#181818" points="587,162.11,591,153.11,587,157.11,583,153.11,587,162.11" style="stroke:#181818;stroke-width:1;"/><text fill="#000000" font-family="sans-serif" font-size="13" lengthAdjust="spacing" textLength="56.2847" x="588" y="128.6669">contiene</text></g><!--link mesa3 to reserva1--><g class="link" data-entity-1="ent0006" data-entity-2="ent0007" data-link-type="dependency" data-source-line="108" id="lnk25"><path codeLine="108" d="M615.23,223.83 C635.5,245.2 659.2416,270.2561 683.4116,295.7461" fill="none" id="mesa3-to-reserva1" style="stroke:#181818;stroke-width:1;"/><polygon fill="#181818" points="687.54,300.1,684.25,290.8169,684.0997,296.4718,678.4448,296.3215,687.54,300.1" style="stroke:#181818;stroke-width:1;"/><text fill="#000000" font-family="sans-serif" font-size="13" lengthAdjust="spacing" textLength="32.9443" x="659" y="266.5569">tiene</text></g><!--link mesa3 to comanda1--><g class="link" data-entity-1="ent0006" data-entity-2="ent0008" data-link-type="dependency" data-source-line="109" id="lnk26"><path codeLine="109" d="M562.85,223.83 C539.58,252.53 508.3287,291.0794 485.0187,319.8294" fill="none" id="mesa3-to-comanda1" style="stroke:#181818;stroke-width:1;"/><polygon fill="#181818" points="481.24,324.49,490.0152,320.0183,484.3889,320.6062,483.801,314.9799,481.24,324.49" style="stroke:#181818;stroke-width:1;"/><text fill="#000000" font-family="sans-serif" font-size="13" lengthAdjust="spacing" textLength="39.4824" x="538" y="266.5569">activa</text></g><!--link comanda1 to linea1--><g class="link" data-entity-1="ent0008" data-entity-2="ent0009" data-link-type="dependency" data-source-line="110" id="lnk27"><path codeLine="110" d="M495.99,386.27 C534.36,415.69 588.7182,457.3696 633.1082,491.3996" fill="none" id="comanda1-to-linea1" style="stroke:#181818;stroke-width:1;"/><polygon fill="#181818" points="637.87,495.05,633.161,486.3998,633.9019,492.008,628.2937,492.7489,637.87,495.05" style="stroke:#181818;stroke-width:1;"/><text fill="#000000" font-family="sans-serif" font-size="13" lengthAdjust="spacing" textLength="56.2847" x="585" y="453.3369">contiene</text></g><!--link comanda1 to linea2--><g class="link" data-entity-1="ent0008" data-entity-2="ent0010" data-link-type="dependency" data-source-line="111" id="lnk28"><path codeLine="111" d="M413,386.27 C373.08,413.39 318.2129,450.6581 269.8629,483.5081" fill="none" id="comanda1-to-linea2" style="stroke:#181818;stroke-width:1;"/><polygon fill="#181818" points="264.9,486.88,274.5923,485.1308,269.0357,484.0701,270.0964,478.5136,264.9,486.88" style="stroke:#181818;stroke-width:1;"/><text fill="#000000" font-family="sans-serif" font-size="13" lengthAdjust="spacing" textLength="56.2847" x="330" y="453.3369">contiene</text></g><!--link comanda1 to linea3--><g class="link" data-entity-1="ent0008" data-entity-2="ent0011" data-link-type="dependency" data-source-line="112" id="lnk29"><path codeLine="112" d="M457,386.07 C457,413.2 457,448.01 457,480.95" fill="none" id="comanda1-to-linea3" style="stroke:#181818;stroke-width:1;"/><polygon fill="#181818" points="457,486.95,461,477.95,457,481.95,453,477.95,457,486.95" style="stroke:#181818;stroke-width:1;"/><text fill="#000000" font-family="sans-serif" font-size="13" lengthAdjust="spacing" textLength="56.2847" x="458" y="453.3369">contiene</text></g><!--link comanda1 to ticket1--><g class="link" data-entity-1="ent0008" data-entity-2="ent0016" data-link-type="dependency" data-source-line="113" id="lnk30"><path codeLine="113" d="M534.34,386.3 C554.7,394.14 576.67,402.56 597,410.27 C688.39,444.94 712.96,449.24 803,487.27 C820.44,494.64 833.6969,500.613 850.7669,508.693" fill="none" id="comanda1-to-ticket1" style="stroke:#181818;stroke-width:1;"/><polygon fill="#181818" points="856.19,511.26,849.7666,503.7941,851.6707,509.1208,846.3439,511.0249,856.19,511.26" style="stroke:#181818;stroke-width:1;"/><text fill="#000000" font-family="sans-serif" font-size="13" lengthAdjust="spacing" textLength="45.7983" x="726" y="453.3369">genera</text></g><!--link linea1 to ensalada--><g class="link" data-entity-1="ent0009" data-entity-2="ent0012" data-link-type="dependency" data-source-line="114" id="lnk31"><path codeLine="114" d="M698,589.11 C698,615.17 698,641.69 698,667.77" fill="none" id="linea1-to-ensalada" style="stroke:#181818;stroke-width:1;"/><polygon fill="#181818" points="698,673.77,702,664.77,698,668.77,694,664.77,698,673.77" style="stroke:#181818;stroke-width:1;"/><text fill="#000000" font-family="sans-serif" font-size="13" lengthAdjust="spacing" textLength="66.2251" x="699" y="640.1169">referencia</text></g><!--link linea2 to sopa--><g class="link" data-entity-1="ent0010" data-entity-2="ent0013" data-link-type="dependency" data-source-line="115" id="lnk32"><path codeLine="115" d="M131.98,597.49 C114.07,619.44 96.28,646.17 87,674.05 C73.88,713.47 74.39,727.95 87,767.54 C95.92,795.53 110.055,817.9422 127.295,839.5222" fill="none" id="linea2-to-sopa" style="stroke:#181818;stroke-width:1;"/><polygon fill="#181818" points="131.04,844.21,128.5477,834.6817,127.9192,840.3035,122.2973,839.675,131.04,844.21" style="stroke:#181818;stroke-width:1;"/><text fill="#000000" font-family="sans-serif" font-size="13" lengthAdjust="spacing" textLength="66.2251" x="88" y="725.3569">referencia</text></g><!--link linea3 to merluza--><g class="link" data-entity-1="ent0011" data-entity-2="ent0014" data-link-type="dependency" data-source-line="116" id="lnk33"><path codeLine="116" d="M455.75,597.4 C454.19,665.28 451.6682,774.3616 450.1982,838.1816" fill="none" id="linea3-to-merluza" style="stroke:#181818;stroke-width:1;"/><polygon fill="#181818" points="450.06,844.18,454.2662,835.2745,450.1751,839.1813,446.2683,835.0903,450.06,844.18" style="stroke:#181818;stroke-width:1;"/><text fill="#000000" font-family="sans-serif" font-size="13" lengthAdjust="spacing" textLength="66.2251" x="454" y="725.3569">referencia</text></g><!--link linea2 to tarifa--><g class="link" data-entity-1="ent0010" data-entity-2="ent0015" data-link-type="dependency" data-source-line="117" id="lnk34"><path codeLine="117" d="M217.38,597.12 C233.82,624.51 250.3024,651.9854 265.1324,676.6954" fill="none" id="linea2-to-tarifa" style="stroke:#181818;stroke-width:1;"/><polygon fill="#181818" points="268.22,681.84,267.0183,672.0647,265.647,677.5528,260.1589,676.1815,268.22,681.84" style="stroke:#181818;stroke-width:1;"/><text fill="#000000" font-family="sans-serif" font-size="13" lengthAdjust="spacing" textLength="38.5557" x="245" y="640.1169">aplica</text></g><!--link linea3 to tarifa--><g class="link" data-entity-1="ent0011" data-entity-2="ent0015" data-link-type="dependency" data-source-line="118" id="lnk35"><path codeLine="118" d="M406.29,597.12 C380.55,624.51 353.9988,652.7576 330.7788,677.4676" fill="none" id="linea3-to-tarifa" style="stroke:#181818;stroke-width:1;"/><polygon fill="#181818" points="326.67,681.84,335.7481,678.0205,330.094,678.1963,329.9182,672.5422,326.67,681.84" style="stroke:#181818;stroke-width:1;"/><text fill="#000000" font-family="sans-serif" font-size="13" lengthAdjust="spacing" textLength="38.5557" x="375" y="640.1169">aplica</text></g><!--link tarifa to sopa--><g class="link" data-entity-1="ent0015" data-entity-2="ent0013" data-link-type="dependency" data-source-line="119" id="lnk36"><path codeLine="119" d="M261.76,759.55 C252.68,771.56 242.76,784.99 234,797.54 C223.57,812.47 215.8662,824.044 206.2162,839.044" fill="none" id="tarifa-to-sopa" style="stroke:#181818;stroke-width:1;"/><polygon fill="#181818" points="202.97,844.09,211.2034,838.6852,205.6752,839.885,204.4754,834.3569,202.97,844.09" style="stroke:#181818;stroke-width:1;"/><text fill="#000000" font-family="sans-serif" font-size="13" lengthAdjust="spacing" textLength="38.5557" x="235" y="810.6069">aplica</text></g><!--link tarifa to merluza--><g class="link" data-entity-1="ent0015" data-entity-2="ent0014" data-link-type="dependency" data-source-line="120" id="lnk37"><path codeLine="120" d="M326.46,759.6 C349.93,784.64 376.7554,813.2437 401.6754,839.8137" fill="none" id="tarifa-to-merluza" style="stroke:#181818;stroke-width:1;"/><polygon fill="#181818" points="405.78,844.19,402.5407,834.8891,402.3595,840.543,396.7056,840.3619,405.78,844.19" style="stroke:#181818;stroke-width:1;"/><text fill="#000000" font-family="sans-serif" font-size="13" lengthAdjust="spacing" textLength="38.5557" x="375" y="810.6069">aplica</text></g><?plantuml-src jPNDRXCn4CVlF8Mrzw9abr9KgKXBiYr1pOSsoOLBDTrrWy6n8w-tGgrwuKsumwa7xkHDU1B67vliRj9Ia3Z5-V_jcPzdxV4Aia-me2H8QQ6XL20q9UT0veAjxqL0Rfyz8qHUVgIP9a46Yik279DvKO9YCY1G42_UuZn2X5nUAafEID1pyjdwVabl0cigoT7fnSCuJT8nIdVruBnaxT1MQWS-D-8fLMBzLUJDq75_E1WDfhCqxe_JTlnCBcak5QPuBmKuT2_ji3izQ8TOqW8Y3334Nnl02NvvkQHAulB8_ZNbpCtVSMy-YVjnEvQY1LNNqCLmgHlQY1kvpjJZZ9hlWcYdi6IS0Ja3bQs_Wzlz5Sq-W773JlZoeFFYe7FaZ0zIMRqR7NSwGOLfjYSAuBH0BspIziQZqq4wt0ECnGAHM-2U6rOrTFBj5kMjJxl58ORWC6ZcYjyCadIsauWpGMsQSpEev_AEovJXKMKvv1YeQmNSa5fG8SskWWKlDHMjX9Dar1yaerdYvI4L9SfNm0kwbo9ya29y4eLWOb4A-JGChKfgbQNCWPkWtkYFfnUJytWsdkw5Z1w4Z9u4oI7Jie3_1cdF6kI0c1CEsbtjZTY-UqbbBDbdxQ5MYcRCGBrwtkdu7Mcwa8gPOpP91qFNJmZ9MR6IWbroceZ7lcuXLqqUAxHPfaRCeD2KSn1jcAD_WF7bQtKLnSkR9awbjOc6NWTkxdPriZP8tMWVqpGvcu_wVyMaiGTVGIAqwKTugWpTp6fcaKLqKpoXPYlv3e7CXpiXU6pIv6AQ3EDHN0ES2xl11gTp-hAmbZcFNL_N9W_BFb5jciBCZXo15ps2r60UWV2mYhttB3VlZrpOHYCNSPapRUhbRe_HNLZ8a4-Osi_mUbNjBdXgiyifKd7_xGeW4VdvW_ZtnGxjCndi0GiV00jtm7ho4X5SDVu0zk8uwZm2DhCr30z_VVbc_fgdTeFct_c3WzUazXHe73PDNrDiBrGPopxYnjX-mym0ros_tTqrjLToWPyJDsop-VgP6TMRd4diSRWURIUrbk-QjLrW1sJNFhBJB5Nr4DLYxqu8_pGXUcJ2jYRRlRkingrrJaMlgA8YOvifePtY6zck7VdgLBtbeG3-6cCDLfnbhUMxfbTggVTPsxJUlViD?></g></svg>