<svg xmlns="http://www.w3.org/2000/svg" xmlns:xlink="http://www.w3.org/1999/xlink" contentStyleType="text/css" data-diagram-type="STATE" height="529px" preserveAspectRatio="none" style="width:1141px;height:529px;background:#FFFFFF;" version="1.1" viewBox="0 0 1141 529" width="1141px" zoomAndPan="magnify"><?plantuml 1.2026.3beta6?><defs/><g><g class="title" data-source-line="8"><text fill="#000000" font-family="sans-serif" font-size="14" font-weight="700" lengthAdjust="spacing" textLength="219.2285" x="457.8159" y="22.9951">Diagrama de Estados: Mesa</text></g><rect fill="#E0FFFF" height="40" rx="12.5" ry="12.5" style="stroke:#4682B4;stroke-width:0.5;" width="50" x="340.5" y="124.2969"/><text fill="#000000" font-family="sans-serif" font-size="14" lengthAdjust="spacing" textLength="34.9453" x="348.0273" y="149.1436">Libre</text><rect fill="#E0FFFF" height="40" rx="12.5" ry="12.5" style="stroke:#4682B4;stroke-width:0.5;" width="84.334" x="33.33" y="241.2969"/><text fill="#000000" font-family="sans-serif" font-size="14" lengthAdjust="spacing" textLength="74.334" x="38.33" y="266.1436">Reservada</text><rect fill="#E0FFFF" height="40" rx="12.5" ry="12.5" style="stroke:#4682B4;stroke-width:0.5;" width="72.5215" x="434.24" y="358.2969"/><text fill="#000000" font-family="sans-serif" font-size="14" lengthAdjust="spacing" textLength="62.5215" x="439.24" y="383.1436">Ocupada</text><rect fill="#E0FFFF" height="40" rx="12.5" ry="12.5" style="stroke:#4682B4;stroke-width:0.5;" width="148.2432" x="607.38" y="475.2969"/><text fill="#000000" font-family="sans-serif" font-size="14" lengthAdjust="spacing" textLength="138.2432" x="612.38" y="500.1436">Pendiente de Cobro</text><g class="start_entity" data-qualified-name=".start." data-source-line="15" id="ent0002"><ellipse cx="365.5" cy="53.2969" fill="#222222" rx="10" ry="10" style="stroke:#222222;stroke-width:1;"/></g><!--link *start* to Libre--><g class="link" data-entity-1="ent0002" data-entity-2="ent0002" data-link-type="dependency" data-source-line="15" id="lnk3"><path d="M365.5,63.4869 C365.5,77.6969 365.5,99.3169 365.5,118.0369" fill="none" id="*start*-to-Libre" style="stroke:#2F4F4F;stroke-width:1;"/><polygon fill="#2F4F4F" points="365.5,124.0369,369.5,115.0369,365.5,119.0369,361.5,115.0369,365.5,124.0369" style="stroke:#2F4F4F;stroke-width:1;"/></g><!--link Libre to Reservada--><g class="link" data-entity-1="ent0002" data-entity-2="ent0003" data-link-type="dependency" data-source-line="18" id="lnk4"><path d="M340.05,144.8169 C267.34,144.0369 61.27,146.1969 19.5,194.2969 C6,209.8369 18.0873,224.188 36.7973,237.388" fill="none" id="Libre-to-Reservada" style="stroke:#2F4F4F;stroke-width:1;"/><polygon fill="#2F4F4F" points="41.7,240.8469,36.6519,232.3901,37.6144,237.9645,32.0401,238.927,41.7,240.8469" style="stroke:#2F4F4F;stroke-width:1;"/><text fill="#000000" font-family="sans-serif" font-size="13" lengthAdjust="spacing" textLength="127.499" x="20.5" y="207.3638">Admin crea reserva</text></g><!--link Reservada to Libre--><g class="link" data-entity-1="ent0003" data-entity-2="ent0002" data-link-type="dependency" data-source-line="25" id="lnk9"><path d="M103.69,241.0569 C125.93,226.5769 158.15,207.1069 188.5,194.2969 C240.5,172.3569 299.3225,158.533 334.3125,151.353" fill="none" id="Reservada-to-Libre" style="stroke:#2F4F4F;stroke-width:1;"/><polygon fill="#2F4F4F" points="340.19,150.1469,330.5697,148.0376,335.2921,151.1519,332.1778,155.8743,340.19,150.1469" style="stroke:#2F4F4F;stroke-width:1;"/><text fill="#000000" font-family="sans-serif" font-size="13" lengthAdjust="spacing" textLength="149.1191" x="189.5" y="207.3638">Admin cancela reserva</text></g><!--link Reservada to Ocupada--><g class="link" data-entity-1="ent0003" data-entity-2="ent0004" data-link-type="dependency" data-source-line="19" id="lnk5"><path d="M68.08,281.7369 C63.91,296.3169 61.48,315.8369 72.5,328.2969 C96.28,355.1869 334.0883,370.2409 427.9483,375.1909" fill="none" id="Reservada-to-Ocupada" style="stroke:#2F4F4F;stroke-width:1;"/><polygon fill="#2F4F4F" points="433.94,375.5069,425.1631,371.0384,428.9469,375.2436,424.7418,379.0273,433.94,375.5069" style="stroke:#2F4F4F;stroke-width:1;"/><text fill="#000000" font-family="sans-serif" font-size="13" lengthAdjust="spacing" textLength="265.1797" x="73.5" y="324.3638">Camarero abre mesa en hora de reserva</text></g><!--link Libre to Ocupada--><g class="link" data-entity-1="ent0002" data-entity-2="ent0004" data-link-type="dependency" data-source-line="20" id="lnk6"><path d="M366.42,164.6769 C368.35,191.9169 374.28,242.5169 392.5,281.2969 C406.56,311.2269 427.6991,335.6325 445.6891,353.7225" fill="none" id="Libre-to-Ocupada" style="stroke:#2F4F4F;stroke-width:1;"/><polygon fill="#2F4F4F" points="449.92,357.9769,446.41,348.7747,446.3943,354.4316,440.7374,354.4159,449.92,357.9769" style="stroke:#2F4F4F;stroke-width:1;"/><text fill="#000000" font-family="sans-serif" font-size="13" lengthAdjust="spacing" textLength="213.5479" x="393.5" y="265.8638">Camarero abre mesa sin reserva</text></g><!--link Ocupada to Libre--><g class="link" data-entity-1="ent0004" data-entity-2="ent0002" data-link-type="dependency" data-source-line="26" id="lnk10"><path d="M506.92,362.9669 C559.47,340.0969 646.61,292.6869 611.5,241.2969 C560.68,166.9169 448.9243,150.5908 396.9343,146.8208" fill="none" id="Ocupada-to-Libre" style="stroke:#2F4F4F;stroke-width:1;"/><polygon fill="#2F4F4F" points="390.95,146.3869,399.6371,151.0273,395.9369,146.7485,400.2157,143.0483,390.95,146.3869" style="stroke:#2F4F4F;stroke-width:1;"/><text fill="#000000" font-family="sans-serif" font-size="13" lengthAdjust="spacing" textLength="292.4238" x="620.5" y="265.8638">Admin cancela mesa (cliente se va sin pedir)</text></g><!--link Ocupada to Cobrando--><g class="link" data-entity-1="ent0004" data-entity-2="ent0005" data-link-type="dependency" data-source-line="21" id="lnk7"><path d="M505.82,398.5469 C544.77,419.7769 601.8013,450.8661 640.8013,472.1161" fill="none" id="Ocupada-to-Cobrando" style="stroke:#2F4F4F;stroke-width:1;"/><polygon fill="#2F4F4F" points="646.07,474.9869,640.0808,467.1683,641.6794,472.5946,636.2532,474.1932,646.07,474.9869" style="stroke:#2F4F4F;stroke-width:1;"/><text fill="#000000" font-family="sans-serif" font-size="13" lengthAdjust="spacing" textLength="187.4907" x="589.5" y="441.3638">Camarero env&#237;a ticket a caja</text></g><!--link Cobrando to Libre--><g class="link" data-entity-1="ent0005" data-entity-2="ent0002" data-link-type="dependency" data-source-line="22" id="lnk8"><path d="M734.05,474.9169 C751.37,467.1669 770.12,457.2169 785.5,445.2969 C952.26,316.0369 988.98,321.4269 921.5,241.2969 C852.01,158.7869 496.5392,147.2845 396.9392,145.6645" fill="none" id="Cobrando-to-Libre" style="stroke:#2F4F4F;stroke-width:1;"/><polygon fill="#2F4F4F" points="390.94,145.5669,399.8738,149.7127,395.9393,145.6482,400.0039,141.7138,390.94,145.5669" style="stroke:#2F4F4F;stroke-width:1;"/><text fill="#000000" font-family="sans-serif" font-size="13" lengthAdjust="spacing" textLength="175.3604" x="950.5" y="324.3638">Admin cobra y cierra mesa</text></g><?plantuml-src XP91JiCm44NtFiKecm9IBz05KfiMDaKWkaGiflQeTUFOqTWfH8WZSGekXkCqgLA1oChwVd_cppXxhGYeh483YhnaNGNjhF25jXKobk031e8F0R10MUpOrLRbpZY6jTxjGzwWRUySA-9EtmGYip0rHNtExDuwUObSR4miTi_OY4yXWWw6OAbn5_jWR0-hs4mvFuC7yYX4rpfRworJ1gCFFIIvPvx94nzHOJPY1hdd7cLTZQd4dUIUUYAhDDbuZA5ojsMNjLHxGgkS42ythp2TtfuoY0dScVhWm3ekqOYaThLRQ0W1CvYhKbkGJ0ZSoI3Ezma_POdc6UHnCKpi0DkAPTmAa8MzuxIkeS95mtyg-9XWi9xPPEr775d97h-_48AM1GL0a7Y8pZDwNaMAC4pP0j20rCJnKAOtdS3gNL8buqz6_dBqNsgWbMI6PLt6_TkG9hsIfdj6Jt3i1gz8QRx-0G00?></g></svg>