<svg xmlns="http://www.w3.org/2000/svg" xmlns:xlink="http://www.w3.org/1999/xlink" contentStyleType="text/css" data-diagram-type="STATE" height="862px" preserveAspectRatio="none" style="width:935px;height:862px;background:#FFFFFF;" version="1.1" viewBox="0 0 935 862" width="935px" zoomAndPan="magnify"><?plantuml 1.2026.3beta5?><defs/><g><g class="title" data-source-line="8"><text fill="#000000" font-family="sans-serif" font-size="14" font-weight="700" lengthAdjust="spacing" textLength="156.3037" x="386.3381" y="22.9951">Estado de Comanda</text></g><rect fill="#FFFFE0" height="40" rx="12.5" ry="12.5" style="stroke:#FF8C00;stroke-width:0.5;" width="71.4688" x="576.47" y="140.2969"/><text fill="#000000" font-family="sans-serif" font-size="14" lengthAdjust="spacing" textLength="61.4688" x="581.47" y="165.1436">Borrador</text><rect fill="#FFFFE0" height="40" rx="12.5" ry="12.5" style="stroke:#FF8C00;stroke-width:0.5;" width="154.0605" x="440.18" y="257.2969"/><text fill="#000000" font-family="sans-serif" font-size="14" lengthAdjust="spacing" textLength="144.0605" x="445.18" y="282.1436">Pendiente en Cocina</text><rect fill="#FFFFE0" height="40" rx="12.5" ry="12.5" style="stroke:#FF8C00;stroke-width:0.5;" width="115.8066" x="459.31" y="374.2969"/><text fill="#000000" font-family="sans-serif" font-size="14" lengthAdjust="spacing" textLength="105.8066" x="464.31" y="399.1436">En Preparaci&#243;n</text><rect fill="#FFFFE0" height="40" rx="12.5" ry="12.5" style="stroke:#FF8C00;stroke-width:0.5;" width="124.9395" x="311.74" y="491.2969"/><text fill="#000000" font-family="sans-serif" font-size="14" lengthAdjust="spacing" textLength="114.9395" x="316.74" y="516.1436">Lista para Servir</text><rect fill="#FFFFE0" height="40" rx="12.5" ry="12.5" style="stroke:#FF8C00;stroke-width:0.5;" width="62.8965" x="342.76" y="608.2969"/><text fill="#000000" font-family="sans-serif" font-size="14" lengthAdjust="spacing" textLength="52.8965" x="347.76" y="633.1436">Servida</text><rect fill="#FFFFE0" height="40" rx="12.5" ry="12.5" style="stroke:#FF8C00;stroke-width:0.5;" width="65.9453" x="513.24" y="725.2969"/><text fill="#000000" font-family="sans-serif" font-size="14" lengthAdjust="spacing" textLength="55.9453" x="518.24" y="750.1436">Cerrada</text><rect fill="#FFFFE0" height="40" rx="12.5" ry="12.5" style="stroke:#FF8C00;stroke-width:0.5;" width="83.4727" x="632.47" y="491.2969"/><text fill="#000000" font-family="sans-serif" font-size="14" lengthAdjust="spacing" textLength="73.4727" x="637.47" y="516.1436">Cancelada</text><g class="start_entity" data-qualified-name=".start." data-source-line="18" id="ent0002"><ellipse cx="612.21" cy="53.2969" fill="#222222" rx="10" ry="10" style="stroke:#222222;stroke-width:1;"/></g><g class="end_entity" data-qualified-name=".end." data-source-line="37" id="ent0014"><ellipse cx="599.21" cy="837.2969" fill="none" rx="11" ry="11" style="stroke:#222222;stroke-width:1;"/><ellipse cx="599.21" cy="837.2969" fill="#222222" rx="6" ry="6" style="stroke:#222222;stroke-width:1;"/></g><!--link *start* to Borrador--><g class="link" data-entity-1="ent0002" data-entity-2="ent0002" data-link-type="dependency" data-source-line="18" id="lnk3"><path d="M612.21,63.6169 C612.21,80.6769 612.21,111.2769 612.21,133.9369" fill="none" id="*start*-to-Borrador" style="stroke:#2F4F4F;stroke-width:1;"/><polygon fill="#2F4F4F" points="612.21,139.9369,616.21,130.9369,612.21,134.9369,608.21,130.9369,612.21,139.9369" style="stroke:#2F4F4F;stroke-width:1;"/><text fill="#000000" font-family="sans-serif" font-size="13" lengthAdjust="spacing" textLength="162.3286" x="613.21" y="106.3638">Camarero abre comanda</text></g><!--link Borrador to Pendiente--><g class="link" data-entity-1="ent0002" data-entity-2="ent0003" data-link-type="dependency" data-source-line="20" id="lnk4"><path d="M576.17,164.0969 C545.76,168.5869 503.96,180.2269 483.21,210.2969 C472.96,225.1469 480.082,239.0319 492.272,252.6119" fill="none" id="Borrador-to-Pendiente" style="stroke:#2F4F4F;stroke-width:1;"/><polygon fill="#2F4F4F" points="496.28,257.0769,493.2447,247.7074,492.94,253.356,487.2914,253.0514,496.28,257.0769" style="stroke:#2F4F4F;stroke-width:1;"/><text fill="#000000" font-family="sans-serif" font-size="13" lengthAdjust="spacing" textLength="84.0874" x="484.21" y="223.3638">Enviar a KDS</text></g><!--link Pendiente to Borrador--><g class="link" data-entity-1="ent0003" data-entity-2="ent0002" data-link-type="dependency" data-source-line="21" id="lnk5"><path d="M542.78,256.8669 C552.94,248.4269 564.3,238.0369 573.21,227.2969 C585.2,212.8569 593.0526,199.6357 600.1726,185.8757" fill="none" id="Pendiente-to-Borrador" style="stroke:#2F4F4F;stroke-width:1;"/><polygon fill="#2F4F4F" points="602.93,180.5469,595.2413,186.7019,600.6322,184.9876,602.3465,190.3784,602.93,180.5469" style="stroke:#2F4F4F;stroke-width:1;"/><text fill="#000000" font-family="sans-serif" font-size="13" lengthAdjust="spacing" textLength="215.8647" x="587.21" y="223.3638">Camarero edita antes de aceptar</text></g><!--link Pendiente to Preparando--><g class="link" data-entity-1="ent0003" data-entity-2="ent0004" data-link-type="dependency" data-source-line="22" id="lnk6"><path d="M517.21,297.5469 C517.21,318.7769 517.21,346.7369 517.21,367.9869" fill="none" id="Pendiente-to-Preparando" style="stroke:#2F4F4F;stroke-width:1;"/><polygon fill="#2F4F4F" points="517.21,373.9869,521.21,364.9869,517.21,368.9869,513.21,364.9869,517.21,373.9869" style="stroke:#2F4F4F;stroke-width:1;"/><text fill="#000000" font-family="sans-serif" font-size="13" lengthAdjust="spacing" textLength="105.8853" x="518.21" y="340.3638">Cocinero acepta</text></g><!--link Preparando to Lista--><g class="link" data-entity-1="ent0004" data-entity-2="ent0005" data-link-type="dependency" data-source-line="23" id="lnk7"><path d="M458.83,399.0169 C427.41,404.3569 391.11,416.6169 371.21,444.2969 C361.63,457.6169 362.1858,470.8385 365.8658,485.0485" fill="none" id="Preparando-to-Lista" style="stroke:#2F4F4F;stroke-width:1;"/><polygon fill="#2F4F4F" points="367.37,490.8569,368.9859,481.1415,366.1165,486.0166,361.2414,483.1471,367.37,490.8569" style="stroke:#2F4F4F;stroke-width:1;"/><text fill="#000000" font-family="sans-serif" font-size="13" lengthAdjust="spacing" textLength="133.7261" x="372.21" y="457.3638">Cocinero marca listo</text></g><!--link Lista to Servida--><g class="link" data-entity-1="ent0005" data-entity-2="ent0006" data-link-type="dependency" data-source-line="24" id="lnk8"><path d="M374.21,531.5469 C374.21,552.7769 374.21,580.7369 374.21,601.9869" fill="none" id="Lista-to-Servida" style="stroke:#2F4F4F;stroke-width:1;"/><polygon fill="#2F4F4F" points="374.21,607.9869,378.21,598.9869,374.21,602.9869,370.21,598.9869,374.21,607.9869" style="stroke:#2F4F4F;stroke-width:1;"/><text fill="#000000" font-family="sans-serif" font-size="13" lengthAdjust="spacing" textLength="179.2451" x="375.21" y="574.3638">Camarero entrega en mesa</text></g><!--link Servida to Pendiente--><g class="link" data-entity-1="ent0006" data-entity-2="ent0003" data-link-type="dependency" data-source-line="27" id="lnk9"><path d="M342.31,621.8669 C252.06,605.0869 6,548.8069 78.21,444.2969 C159.85,326.1469 331.1873,292.5682 433.7373,282.7582" fill="none" id="Servida-to-Pendiente" style="stroke:#2F4F4F;stroke-width:1;"/><polygon fill="#2F4F4F" points="439.71,282.1869,430.37,279.0621,434.7327,282.663,431.1318,287.0257,439.71,282.1869" style="stroke:#2F4F4F;stroke-width:1;"/><text fill="#000000" font-family="sans-serif" font-size="13" lengthAdjust="spacing" textLength="277.6846" x="79.21" y="457.3638">Camarero a&#241;ade platos / solicita segundos</text></g><!--link Servida to Cerrada--><g class="link" data-entity-1="ent0006" data-entity-2="ent0007" data-link-type="dependency" data-source-line="30" id="lnk10"><path d="M403,648.5469 C434.75,669.7769 480.5518,700.4025 512.3418,721.6525" fill="none" id="Servida-to-Cerrada" style="stroke:#2F4F4F;stroke-width:1;"/><polygon fill="#2F4F4F" points="517.33,724.9869,512.0706,716.6599,513.1732,722.2082,507.6248,723.3108,517.33,724.9869" style="stroke:#2F4F4F;stroke-width:1;"/><text fill="#000000" font-family="sans-serif" font-size="13" lengthAdjust="spacing" textLength="82.2021" x="472.21" y="691.3638">Cliente paga</text></g><!--link Borrador to Cancelada--><g class="link" data-entity-1="ent0002" data-entity-2="ent0008" data-link-type="dependency" data-source-line="33" id="lnk11"><path d="M648.33,164.9269 C700.09,170.9469 791.35,184.9469 811.21,210.2969 C825.88,229.0169 920.98,154.6669 779.21,414.2969 C761.57,446.5969 733.7912,470.3559 709.5612,487.4659" fill="none" id="Borrador-to-Cancelada" style="stroke:#2F4F4F;stroke-width:1;"/><polygon fill="#2F4F4F" points="704.66,490.9269,714.3191,489.0029,708.7443,488.0427,709.7045,482.468,704.66,490.9269" style="stroke:#2F4F4F;stroke-width:1;"/><text fill="#000000" font-family="sans-serif" font-size="13" lengthAdjust="spacing" textLength="84.3286" x="825.21" y="340.3638">Cliente se va</text></g><!--link Pendiente to Cancelada--><g class="link" data-entity-1="ent0003" data-entity-2="ent0008" data-link-type="dependency" data-source-line="34" id="lnk12"><path d="M585.9,297.7369 C602.57,304.9469 619.3,314.5869 632.21,327.2969 C672.76,367.2269 672.4,388.6269 684.21,444.2969 C687.51,459.8269 685.9846,471.8472 682.3946,485.0472" fill="none" id="Pendiente-to-Cancelada" style="stroke:#2F4F4F;stroke-width:1;"/><polygon fill="#2F4F4F" points="680.82,490.8369,687.0417,483.2021,682.1322,486.0121,679.3221,481.1026,680.82,490.8369" style="stroke:#2F4F4F;stroke-width:1;"/><text fill="#000000" font-family="sans-serif" font-size="13" lengthAdjust="spacing" textLength="91.1333" x="679.21" y="398.8638">Falta de stock</text></g><!--link Preparando to Cancelada--><g class="link" data-entity-1="ent0004" data-entity-2="ent0008" data-link-type="dependency" data-source-line="35" id="lnk13"><path d="M521.43,414.6969 C525.51,429.2669 533.07,448.7769 546.21,461.2969 C569.81,483.7869 598.9822,494.8097 626.4222,501.5297" fill="none" id="Preparando-to-Cancelada" style="stroke:#2F4F4F;stroke-width:1;"/><polygon fill="#2F4F4F" points="632.25,502.9569,624.4598,496.9309,627.3935,501.7675,622.5568,504.7012,632.25,502.9569" style="stroke:#2F4F4F;stroke-width:1;"/><text fill="#000000" font-family="sans-serif" font-size="13" lengthAdjust="spacing" textLength="132.6152" x="547.21" y="457.3638">Incidencia en cocina</text></g><!--link Cerrada to *end*--><g class="link" data-entity-1="ent0007" data-entity-2="ent0014" data-link-type="dependency" data-source-line="37" id="lnk15"><path d="M557.45,765.3869 C568.75,784.5769 582.6352,808.1469 591.0452,822.4269" fill="none" id="Cerrada-to-*end*" style="stroke:#2F4F4F;stroke-width:1;"/><polygon fill="#2F4F4F" points="594.09,827.5969,592.9695,817.812,591.5527,823.2885,586.0761,821.8717,594.09,827.5969" style="stroke:#2F4F4F;stroke-width:1;"/></g><!--link Cancelada to *end*--><g class="link" data-entity-1="ent0008" data-entity-2="ent0014" data-link-type="dependency" data-source-line="38" id="lnk16"><path d="M669.74,531.5969 C655.61,592.6269 613.5629,774.2914 602.9329,820.2214" fill="none" id="Cancelada-to-*end*" style="stroke:#2F4F4F;stroke-width:1;"/><polygon fill="#2F4F4F" points="601.58,826.0669,607.5063,818.2006,602.7074,821.1956,599.7123,816.3967,601.58,826.0669" style="stroke:#2F4F4F;stroke-width:1;"/></g><?plantuml-src PPFDIYGn4CVlUOfYBe8WtZq8EiwAEA0mfqNsK9iKRPXqqbHwnXNnePPz15ziA-bETwRjGnEgVlNrh-JL6W9gk_uT34NDjkjjy2hkhU-GiONOOq_meG1kKUyR3WTlri45XgrjNlkVv5nuIzx0XdZmt27ldnXzG-AuOGvlittd9DyzuxlwLAgtlIFOI0qJf3wiGulUe593rPKaPN7n2geF8nHxuPx96qjUZkGbYROULucRx0NSU7XcIfDf-_NFhwQCezMRKD2jbGCa8-o8ZpOt8MIs5oXx39xqbw3HNh0rfNw_OwDzmj1hSWimOSMkrClvBxYuk9uKICIL02qoSG3ypGIwg5X1AMPMIK8s_cYH0U7nRgSgpo9vbPkC5K5Gg9XsXPgw7daPEmkPOjCgSbyPLfKpiOF4CCvGM2cd4PpuWgg8533AkXXQYZCrc7RVKfIvp-3seELYHMhajeO8bz39jPE3Fz0nH5NodAfIw_Zr5sN6CUeIOd1Mf_5BobHaRMLzT99iNEZGdnlITjZadZP_H0GjhulYSZFJWgkmI734fRer-0ETD2HTYb1wlzIs9X-ybcSklwoHpkz3gRdN720tIyr1nVGV?></g></svg>