<svg xmlns="http://www.w3.org/2000/svg" xmlns:xlink="http://www.w3.org/1999/xlink" contentStyleType="text/css" data-diagram-type="SEQUENCE" height="670px" preserveAspectRatio="none" style="width:447px;height:670px;background:#FFFFFF;" version="1.1" viewBox="0 0 447 670" width="447px" zoomAndPan="magnify"><?plantuml 1.2026.3beta6?><defs/><g><g class="title" data-source-line="1"><text fill="#000000" font-family="sans-serif" font-size="14" font-weight="700" lengthAdjust="spacing" textLength="130.1768" x="155.3108" y="27.9951">Ciclo de Servicio</text></g><g class="participant-lifeline" data-entity-uid="part1" data-qualified-name="Camarero" data-source-line="3" id="part1-lifeline"><g><title>Camarero</title><rect fill="#000000" fill-opacity="0.00000" height="469.8594" width="8" x="38.6309" y="118.5938"/><line style="stroke:#181818;stroke-width:0.5;stroke-dasharray:5,5;" x1="42" x2="42" y1="118.5938" y2="588.4531"/></g></g><g class="participant-lifeline" data-entity-uid="part2" data-qualified-name="Cocinero" data-source-line="4" id="part2-lifeline"><g><title>Cocinero</title><rect fill="#000000" fill-opacity="0.00000" height="469.8594" width="8" x="120.1294" y="118.5938"/><line style="stroke:#181818;stroke-width:0.5;stroke-dasharray:5,5;" x1="123.2617" x2="123.2617" y1="118.5938" y2="588.4531"/></g></g><g class="participant-lifeline" data-entity-uid="part3" data-qualified-name="Administrador" data-source-line="5" id="part3-lifeline"><g><title>Administrador</title><rect fill="#000000" fill-opacity="0.00000" height="469.8594" width="8" x="216.5371" y="118.5938"/><line style="stroke:#181818;stroke-width:0.5;stroke-dasharray:5,5;" x1="219.9971" x2="219.9971" y1="118.5938" y2="588.4531"/></g></g><g class="participant-lifeline" data-entity-uid="part4" data-qualified-name="Sistema" data-source-line="6" id="part4-lifeline"><g><title>Sistema</title><rect fill="#000000" fill-opacity="0.00000" height="469.8594" width="8" x="397.6035" y="118.5938"/><line style="stroke:#181818;stroke-width:0.5;stroke-dasharray:5,5;" x1="401.4087" x2="401.4087" y1="118.5938" y2="588.4531"/></g></g><g class="participant participant-head" data-entity-uid="part1" data-qualified-name="Camarero" data-source-line="3" id="part1-head"><text fill="#000000" font-family="sans-serif" font-size="14" lengthAdjust="spacing" textLength="69.2617" x="5" y="115.292">Camarero</text><ellipse cx="42.6309" cy="50.7969" fill="#E2E2F0" rx="8" ry="8" style="stroke:#181818;stroke-width:0.5;"/><path d="M42.6309,58.7969 L42.6309,85.7969 M29.6309,66.7969 L55.6309,66.7969 M42.6309,85.7969 L29.6309,100.7969 M42.6309,85.7969 L55.6309,100.7969" fill="none" style="stroke:#181818;stroke-width:0.5;"/></g><g class="participant participant-tail" data-entity-uid="part1" data-qualified-name="Camarero" data-source-line="3" id="part1-tail"><text fill="#000000" font-family="sans-serif" font-size="14" lengthAdjust="spacing" textLength="69.2617" x="5" y="600.4482">Camarero</text><ellipse cx="42.6309" cy="612.25" fill="#E2E2F0" rx="8" ry="8" style="stroke:#181818;stroke-width:0.5;"/><path d="M42.6309,620.25 L42.6309,647.25 M29.6309,628.25 L55.6309,628.25 M42.6309,647.25 L29.6309,662.25 M42.6309,647.25 L55.6309,662.25" fill="none" style="stroke:#181818;stroke-width:0.5;"/></g><g class="participant participant-head" data-entity-uid="part2" data-qualified-name="Cocinero" data-source-line="4" id="part2-head"><text fill="#000000" font-family="sans-serif" font-size="14" lengthAdjust="spacing" textLength="61.7354" x="90.2617" y="115.292">Cocinero</text><ellipse cx="124.1294" cy="50.7969" fill="#E2E2F0" rx="8" ry="8" style="stroke:#181818;stroke-width:0.5;"/><path d="M124.1294,58.7969 L124.1294,85.7969 M111.1294,66.7969 L137.1294,66.7969 M124.1294,85.7969 L111.1294,100.7969 M124.1294,85.7969 L137.1294,100.7969" fill="none" style="stroke:#181818;stroke-width:0.5;"/></g><g class="participant participant-tail" data-entity-uid="part2" data-qualified-name="Cocinero" data-source-line="4" id="part2-tail"><text fill="#000000" font-family="sans-serif" font-size="14" lengthAdjust="spacing" textLength="61.7354" x="90.2617" y="600.4482">Cocinero</text><ellipse cx="124.1294" cy="612.25" fill="#E2E2F0" rx="8" ry="8" style="stroke:#181818;stroke-width:0.5;"/><path d="M124.1294,620.25 L124.1294,647.25 M111.1294,628.25 L137.1294,628.25 M124.1294,647.25 L111.1294,662.25 M124.1294,647.25 L137.1294,662.25" fill="none" style="stroke:#181818;stroke-width:0.5;"/></g><g class="participant participant-head" data-entity-uid="part3" data-qualified-name="Administrador" data-source-line="5" id="part3-head"><text fill="#000000" font-family="sans-serif" font-size="14" lengthAdjust="spacing" textLength="99.0801" x="167.9971" y="115.292">Administrador</text><ellipse cx="220.5371" cy="50.7969" fill="#E2E2F0" rx="8" ry="8" style="stroke:#181818;stroke-width:0.5;"/><path d="M220.5371,58.7969 L220.5371,85.7969 M207.5371,66.7969 L233.5371,66.7969 M220.5371,85.7969 L207.5371,100.7969 M220.5371,85.7969 L233.5371,100.7969" fill="none" style="stroke:#181818;stroke-width:0.5;"/></g><g class="participant participant-tail" data-entity-uid="part3" data-qualified-name="Administrador" data-source-line="5" id="part3-tail"><text fill="#000000" font-family="sans-serif" font-size="14" lengthAdjust="spacing" textLength="99.0801" x="167.9971" y="600.4482">Administrador</text><ellipse cx="220.5371" cy="612.25" fill="#E2E2F0" rx="8" ry="8" style="stroke:#181818;stroke-width:0.5;"/><path d="M220.5371,620.25 L220.5371,647.25 M207.5371,628.25 L233.5371,628.25 M220.5371,647.25 L207.5371,662.25 M220.5371,647.25 L233.5371,662.25" fill="none" style="stroke:#181818;stroke-width:0.5;"/></g><g class="participant participant-head" data-entity-uid="part4" data-qualified-name="Sistema" data-source-line="6" id="part4-head"><rect fill="#E2E2F0" height="30.2969" rx="2.5" ry="2.5" style="stroke:#181818;stroke-width:0.5;" width="70.3896" x="366.4087" y="87.2969"/><text fill="#000000" font-family="sans-serif" font-size="14" lengthAdjust="spacing" textLength="56.3896" x="373.4087" y="107.292">Sistema</text></g><g class="participant participant-tail" data-entity-uid="part4" data-qualified-name="Sistema" data-source-line="6" id="part4-tail"><rect fill="#E2E2F0" height="30.2969" rx="2.5" ry="2.5" style="stroke:#181818;stroke-width:0.5;" width="70.3896" x="366.4087" y="587.4531"/><text fill="#000000" font-family="sans-serif" font-size="14" lengthAdjust="spacing" textLength="56.3896" x="373.4087" y="607.4482">Sistema</text></g><rect fill="#EEEEEE" height="3" style="stroke:#EEEEEE;stroke-width:1;" width="441.7983" x="0" y="149.1602"/><line style="stroke:#000000;stroke-width:1;" x1="0" x2="441.7983" y1="149.1602" y2="149.1602"/><line style="stroke:#000000;stroke-width:1;" x1="0" x2="441.7983" y1="152.1602" y2="152.1602"/><rect fill="#EEEEEE" height="23.1328" style="stroke:#000000;stroke-width:2;" width="149.8208" x="145.9888" y="138.5938"/><text fill="#000000" font-family="sans-serif" font-size="13" font-weight="700" lengthAdjust="spacing" textLength="131.2949" x="151.9888" y="154.6606">Apertura de mesa</text><g class="message" data-entity-1="part1" data-entity-2="part4" data-source-line="9" id="msg1"><polygon fill="#181818" points="389.6035,188.8594,399.6035,192.8594,389.6035,196.8594,393.6035,192.8594" style="stroke:#181818;stroke-width:1;"/><line style="stroke:#181818;stroke-width:1;" x1="42.6309" x2="395.6035" y1="192.8594" y2="192.8594"/><text fill="#000000" font-family="sans-serif" font-size="13" lengthAdjust="spacing" textLength="70.9795" x="49.6309" y="187.7935">Abrir mesa</text></g><g class="message" data-entity-1="part4" data-entity-2="part1" data-source-line="10" id="msg2"><polygon fill="#181818" points="53.6309,217.9922,43.6309,221.9922,53.6309,225.9922,49.6309,221.9922" style="stroke:#181818;stroke-width:1;"/><line style="stroke:#181818;stroke-width:1;stroke-dasharray:2,2;" x1="47.6309" x2="400.6035" y1="221.9922" y2="221.9922"/><text fill="#000000" font-family="sans-serif" font-size="13" lengthAdjust="spacing" textLength="93.8628" x="59.6309" y="216.9263">Mesa ocupada</text></g><rect fill="#EEEEEE" height="3" style="stroke:#EEEEEE;stroke-width:1;" width="441.7983" x="0" y="250.5586"/><line style="stroke:#000000;stroke-width:1;" x1="0" x2="441.7983" y1="250.5586" y2="250.5586"/><line style="stroke:#000000;stroke-width:1;" x1="0" x2="441.7983" y1="253.5586" y2="253.5586"/><rect fill="#EEEEEE" height="23.1328" style="stroke:#000000;stroke-width:2;" width="152.106" x="144.8462" y="239.9922"/><text fill="#000000" font-family="sans-serif" font-size="13" font-weight="700" lengthAdjust="spacing" textLength="133.5801" x="150.8462" y="256.0591">Toma de comanda</text><g class="message" data-entity-1="part1" data-entity-2="part4" data-source-line="13" id="msg3"><polygon fill="#181818" points="389.6035,290.2578,399.6035,294.2578,389.6035,298.2578,393.6035,294.2578" style="stroke:#181818;stroke-width:1;"/><line style="stroke:#181818;stroke-width:1;" x1="42.6309" x2="395.6035" y1="294.2578" y2="294.2578"/><text fill="#000000" font-family="sans-serif" font-size="13" lengthAdjust="spacing" textLength="275.0947" x="49.6309" y="289.1919">Registrar comanda con platos y al&#233;rgenos</text></g><g class="message" data-entity-1="part4" data-entity-2="part2" data-source-line="14" id="msg4"><polygon fill="#181818" points="135.1294,319.3906,125.1294,323.3906,135.1294,327.3906,131.1294,323.3906" style="stroke:#181818;stroke-width:1;"/><line style="stroke:#181818;stroke-width:1;stroke-dasharray:2,2;" x1="129.1294" x2="400.6035" y1="323.3906" y2="323.3906"/><text fill="#000000" font-family="sans-serif" font-size="13" lengthAdjust="spacing" textLength="157.2314" x="141.1294" y="318.3247">Nueva comanda en KDS</text></g><rect fill="#EEEEEE" height="3" style="stroke:#EEEEEE;stroke-width:1;" width="441.7983" x="0" y="351.957"/><line style="stroke:#000000;stroke-width:1;" x1="0" x2="441.7983" y1="351.957" y2="351.957"/><line style="stroke:#000000;stroke-width:1;" x1="0" x2="441.7983" y1="354.957" y2="354.957"/><rect fill="#EEEEEE" height="23.1328" style="stroke:#000000;stroke-width:2;" width="148.5576" x="146.6204" y="341.3906"/><text fill="#000000" font-family="sans-serif" font-size="13" font-weight="700" lengthAdjust="spacing" textLength="130.0317" x="152.6204" y="357.4575">Gesti&#243;n en cocina</text><g class="message" data-entity-1="part2" data-entity-2="part4" data-source-line="17" id="msg5"><polygon fill="#181818" points="389.6035,391.6563,399.6035,395.6563,389.6035,399.6563,393.6035,395.6563" style="stroke:#181818;stroke-width:1;"/><line style="stroke:#181818;stroke-width:1;" x1="124.1294" x2="395.6035" y1="395.6563" y2="395.6563"/><text fill="#000000" font-family="sans-serif" font-size="13" lengthAdjust="spacing" textLength="153.0293" x="131.1294" y="390.5903">Marcar plato como listo</text></g><g class="message" data-entity-1="part4" data-entity-2="part1" data-source-line="18" id="msg6"><polygon fill="#181818" points="53.6309,435.9219,43.6309,439.9219,53.6309,443.9219,49.6309,439.9219" style="stroke:#181818;stroke-width:1;"/><line style="stroke:#181818;stroke-width:1;stroke-dasharray:2,2;" x1="47.6309" x2="400.6035" y1="439.9219" y2="439.9219"/><text fill="#000000" font-family="sans-serif" font-size="13" lengthAdjust="spacing" textLength="175.7729" x="59.6309" y="419.7231">Notificaci&#243;n en tiempo real</text><text fill="#000000" font-family="sans-serif" font-size="13" lengthAdjust="spacing" textLength="83.2241" x="59.6309" y="434.856">(WebSocket)</text></g><rect fill="#EEEEEE" height="3" style="stroke:#EEEEEE;stroke-width:1;" width="441.7983" x="0" y="468.4883"/><line style="stroke:#000000;stroke-width:1;" x1="0" x2="441.7983" y1="468.4883" y2="468.4883"/><line style="stroke:#000000;stroke-width:1;" x1="0" x2="441.7983" y1="471.4883" y2="471.4883"/><rect fill="#EEEEEE" height="23.1328" style="stroke:#000000;stroke-width:2;" width="122.0435" x="159.8774" y="457.9219"/><text fill="#000000" font-family="sans-serif" font-size="13" font-weight="700" lengthAdjust="spacing" textLength="103.5176" x="165.8774" y="473.9888">Ticket y cobro</text><g class="message" data-entity-1="part1" data-entity-2="part4" data-source-line="21" id="msg7"><polygon fill="#181818" points="389.6035,508.1875,399.6035,512.1875,389.6035,516.1875,393.6035,512.1875" style="stroke:#181818;stroke-width:1;"/><line style="stroke:#181818;stroke-width:1;" x1="42.6309" x2="395.6035" y1="512.1875" y2="512.1875"/><text fill="#000000" font-family="sans-serif" font-size="13" lengthAdjust="spacing" textLength="124.6045" x="49.6309" y="507.1216">Enviar ticket a caja</text></g><g class="message" data-entity-1="part3" data-entity-2="part4" data-source-line="22" id="msg8"><polygon fill="#181818" points="389.6035,537.3203,399.6035,541.3203,389.6035,545.3203,393.6035,541.3203" style="stroke:#181818;stroke-width:1;"/><line style="stroke:#181818;stroke-width:1;" x1="220.5371" x2="395.6035" y1="541.3203" y2="541.3203"/><text fill="#000000" font-family="sans-serif" font-size="13" lengthAdjust="spacing" textLength="84.5508" x="227.5371" y="536.2544">Cobrar ticket</text></g><g class="message" data-entity-1="part4" data-entity-2="part3" data-source-line="23" id="msg9"><polygon fill="#181818" points="231.5371,566.4531,221.5371,570.4531,231.5371,574.4531,227.5371,570.4531" style="stroke:#181818;stroke-width:1;"/><line style="stroke:#181818;stroke-width:1;stroke-dasharray:2,2;" x1="225.5371" x2="400.6035" y1="570.4531" y2="570.4531"/><text fill="#000000" font-family="sans-serif" font-size="13" lengthAdjust="spacing" textLength="157.0664" x="237.5371" y="565.3872">Mesa cerrada y liberada</text></g><?plantuml-src VP6nJiD038RtUmgFCFG5AWMfAeW1jGD1Oc5n75CPadFaN2lnICmyGbyCNz84PIXJpixt__vzboGr35kXHg5cADbEGg8G0b9IWossQ6mwbKeI_yfDtKgKFXdMQg53IoxkC2OelSijXb0KiEdOqj4m3sYvHoYACFd2wcvYOGsRoiG69apDbGCpl8PTrYiTEwn7ynTj1sFoRwp_yNxcmv3KPfGqGjTWqXw-09lpjnquQhySVLdO3VP7Fk4ivWXFz-KGuP7x9EUVc7kK-J75f5oasA6HHnZ6PY-5nl_fjNNtckHT26doJy9jfs2CpLkyUUMgLFhaT3lUXUIpBqDQkVpgLJp4atY8DEA-4tvWMBpbaj-wtSmleYv5b-SXDg_HSpHISJx-0W00?></g></svg>