<svg xmlns="http://www.w3.org/2000/svg" xmlns:xlink="http://www.w3.org/1999/xlink" contentStyleType="text/css" data-diagram-type="STATE" height="590px" preserveAspectRatio="none" style="width:364px;height:590px;background:#FFFFFF;" version="1.1" viewBox="0 0 364 590" width="364px" zoomAndPan="magnify"><defs/><g><path d="M19.5,7 L270.5,7 A12.5,12.5 0 0 1 283,19.5 L283,33.2969 L7,33.2969 L7,19.5 A12.5,12.5 0 0 1 19.5,7" fill="#F1F1F1"/><rect fill="none" height="432.2969" rx="12.5" ry="12.5" style="stroke:#181818;stroke-width:0.5;" width="276" x="7" y="7"/><line style="stroke:#181818;stroke-width:0.5;" x1="7" x2="283" y1="33.2969" y2="33.2969"/><text fill="#000000" font-family="sans-serif" font-size="14" lengthAdjust="spacing" textLength="107.29" x="91.355" y="24.9951">listarBorrador()</text><g id="listarBorradores.RecuperandoBorradores"><rect fill="#F1F1F1" height="50" rx="12.5" ry="12.5" style="stroke:#181818;stroke-width:0.5;" width="50" x="19" y="135.2969"/><line style="stroke:#181818;stroke-width:0.5;" x1="19" x2="69" y1="161.5938" y2="161.5938"/><text fill="#000000" font-family="sans-serif" font-size="14" lengthAdjust="spacing" textLength="4.4502" x="41.7749" y="153.292">&#160;</text></g><g id="listarBorradores.MostrandoBorradores"><rect fill="#F1F1F1" height="50" rx="12.5" ry="12.5" style="stroke:#181818;stroke-width:0.5;" width="50" x="19" y="271.2969"/><line style="stroke:#181818;stroke-width:0.5;" x1="19" x2="69" y1="297.5938" y2="297.5938"/><text fill="#000000" font-family="sans-serif" font-size="14" lengthAdjust="spacing" textLength="4.4502" x="41.7749" y="289.292">&#160;</text></g><ellipse cx="44" cy="54.2969" fill="#222222" rx="10" ry="10" style="stroke:#222222;stroke-width:1;"/><ellipse cx="44" cy="418.2969" fill="none" rx="11" ry="11" style="stroke:#222222;stroke-width:1;"/><ellipse cx="44" cy="418.2969" fill="#222222" rx="6" ry="6" style="stroke:#222222;stroke-width:1;"/><!--link *start*listarBorradores to RecuperandoBorradores--><g class="link" data-entity-1=".start.listarBorradores" data-entity-2="RecuperandoBorradores" data-source-line="8" data-uid="lnk3" id="link_.start.listarBorradores_RecuperandoBorradores"><path d="M44,64.5269 C44,80.2369 44,106.6569 44,129.1669" fill="none" id="*start*listarBorradores-to-RecuperandoBorradores" style="stroke:#008000;stroke-width:1;"/><polygon fill="#008000" points="44,135.1669,48,126.1669,44,130.1669,40,126.1669,44,135.1669" style="stroke:#008000;stroke-width:1;"/><path d="M49,87.2969 L49,112.2969 L237,112.2969 L237,97.2969 L227,87.2969 L49,87.2969" fill="#FEFFDD" style="stroke:#181818;stroke-width:0.5;"/><path d="M227,87.2969 L227,97.2969 L237,97.2969 L227,87.2969" fill="#FEFFDD" style="stroke:#181818;stroke-width:0.5;"/><text fill="#000000" font-family="sans-serif" font-size="13" lengthAdjust="spacing" textLength="163.2363" x="55" y="104.3638">Se solicita listar borrador</text></g><!--link RecuperandoBorradores to MostrandoBorradores--><g class="link" data-entity-1="RecuperandoBorradores" data-entity-2="MostrandoBorradores" data-source-line="13" data-uid="lnk4" id="link_RecuperandoBorradores_MostrandoBorradores"><path d="M44,185.5669 C44,209.8469 44,240.9869 44,265.2069" fill="none" id="RecuperandoBorradores-to-MostrandoBorradores" style="stroke:#008000;stroke-width:1;"/><polygon fill="#008000" points="44,271.2069,48,262.2069,44,266.2069,40,262.2069,44,271.2069" style="stroke:#008000;stroke-width:1;"/><path d="M49,208.2969 L49,248.2969 L274,248.2969 L274,218.2969 L264,208.2969 L49,208.2969" fill="#FEFFDD" style="stroke:#181818;stroke-width:0.5;"/><path d="M264,208.2969 L264,218.2969 L274,218.2969 L264,208.2969" fill="#FEFFDD" style="stroke:#181818;stroke-width:0.5;"/><text fill="#000000" font-family="sans-serif" font-size="13" font-weight="bold" lengthAdjust="spacing" textLength="58.9063" x="55" y="225.3638">Sistema</text><text fill="#000000" font-family="sans-serif" font-size="13" lengthAdjust="spacing" textLength="141.3052" x="118.0386" y="225.3638">recupera los borrador</text><text fill="#000000" font-family="sans-serif" font-size="13" lengthAdjust="spacing" textLength="148.459" x="55" y="240.4966">pendiente o disponible</text></g><!--link MostrandoBorradores to *end*listarBorradores--><g class="link" data-entity-1="MostrandoBorradores" data-entity-2=".end.listarBorradores" data-source-line="19" data-uid="lnk6" id="link_MostrandoBorradores_.end.listarBorradores"><path d="M44,321.5769 C44,347.8769 44,382.5669 44,401.2769" fill="none" id="MostrandoBorradores-to-*end*listarBorradores" style="stroke:#008000;stroke-width:1;"/><polygon fill="#008000" points="44,407.2769,48,398.2769,44,402.2769,40,398.2769,44,407.2769" style="stroke:#008000;stroke-width:1;"/><path d="M49,344.2969 L49,384.2969 L234,384.2969 L234,354.2969 L224,344.2969 L49,344.2969" fill="#FEFFDD" style="stroke:#181818;stroke-width:0.5;"/><path d="M224,344.2969 L224,354.2969 L234,354.2969 L224,344.2969" fill="#FEFFDD" style="stroke:#181818;stroke-width:0.5;"/><text fill="#000000" font-family="sans-serif" font-size="13" font-weight="bold" lengthAdjust="spacing" textLength="58.9063" x="55" y="361.3638">Sistema</text><text fill="#000000" font-family="sans-serif" font-size="13" lengthAdjust="spacing" textLength="100.9849" x="118.0386" y="361.3638">muestra la lista</text><text fill="#000000" font-family="sans-serif" font-size="13" lengthAdjust="spacing" textLength="4.1323" x="55" y="376.4966">&#160;</text></g><g id="BORRADORES_ABIERTO"><rect fill="#F1F1F1" height="50" rx="12.5" ry="12.5" style="stroke:#181818;stroke-width:0.5;" width="187.3711" x="51.5" y="534"/><line style="stroke:#181818;stroke-width:0.5;" x1="51.5" x2="238.8711" y1="560.2969" y2="560.2969"/><text fill="#000000" font-family="sans-serif" font-size="14" lengthAdjust="spacing" textLength="167.3711" x="61.5" y="551.9951">BORRADORES_ABIERTO</text></g><!--link listarBorradores to BORRADORES_ABIERTO--><g class="link" data-entity-1="listarBorradores" data-entity-2="BORRADORES_ABIERTO" data-source-line="26" data-uid="lnk8" id="link_listarBorradores_BORRADORES_ABIERTO"><path d="M52.67,439.45 C44.94,457.48 40,469 40,469 C40,469 40,504 40,504 C40,504 64.7335,516.7273 92.6935,531.0973" fill="none" id="listarBorradores-to-BORRADORES_ABIERTO" style="stroke:#008000;stroke-width:1;"/><polygon fill="#008000" points="98.03,533.84,91.8538,526.1684,93.583,531.5544,88.1969,533.2836,98.03,533.84" style="stroke:#008000;stroke-width:1;"/><path d="M45,474 L45,499 L199,499 L199,484 L189,474 L45,474" fill="#FEFFDD" style="stroke:#181818;stroke-width:0.5;"/><path d="M189,474 L189,484 L199,484 L189,474" fill="#FEFFDD" style="stroke:#181818;stroke-width:0.5;"/><text fill="#000000" font-family="sans-serif" font-size="13" lengthAdjust="spacing" textLength="133.1357" x="51" y="491.0669">completarConsulta()</text></g><!--link listarBorradores to BORRADORES_ABIERTO--><g class="link" data-entity-1="listarBorradores" data-entity-2="BORRADORES_ABIERTO" data-source-line="31" data-uid="lnk9" id="link_listarBorradores_BORRADORES_ABIERTO"><path d="M200.4,439.45 C205.04,457.48 208,469 208,469 C208,469 208,504 208,504 C208,504 194.5173,515.5673 177.7373,529.9373" fill="none" id="listarBorradores-to-BORRADORES_ABIERTO-1" style="stroke:#FF0000;stroke-width:1;"/><polygon fill="#FF0000" points="173.18,533.84,182.6177,531.0241,176.9777,530.5877,177.4141,524.9477,173.18,533.84" style="stroke:#FF0000;stroke-width:1;"/><path d="M213,474 L213,499 L357,499 L357,484 L347,474 L213,474" fill="#FEFFDD" style="stroke:#181818;stroke-width:0.5;"/><path d="M347,474 L347,484 L357,484 L347,474" fill="#FEFFDD" style="stroke:#181818;stroke-width:0.5;"/><text fill="#000000" font-family="sans-serif" font-size="13" lengthAdjust="spacing" textLength="123.9316" x="219" y="491.0669">rechazarConsulta()</text></g><!--SRC=[ZL6zQiCm4Dxr58Ux98NG5mY6kCtGeHZiRY4KsJuQ4Lad97b8Iz-zPySqLIDAf47ezFtToH-LiTB97hGo64uMmP8-ZHSXV901-O5FLv1piYE77gI7B2ukbXby2W6ypfoCDyCgR0UBJfgEBlnhs0lvy1SqeNRtUrZjxjuTejclyd_q3B4ScR6BurIe4JnfrQeWvmwWcIam0T1q4-lib5IEl5CXayxh9g_P47kvVcXoSBCoQF8_4IQWvGWApKY7JdbBHZKQ4-4Irb4q7jDDKVe1Ho7GyqWO4xjz2N7rsx-DYhAgDazbjQtVDiNpjdejHUJPKcyrCl-HZ1zqa8kbkBIIadROtIBCGpp8ZwJkDm00]--></g></svg>