<svg xmlns="http://www.w3.org/2000/svg" xmlns:xlink="http://www.w3.org/1999/xlink" contentStyleType="text/css" data-diagram-type="STATE" height="675px" preserveAspectRatio="none" style="width:639px;height:675px;background:#FFFFFF;" version="1.1" viewBox="0 0 639 675" width="639px" zoomAndPan="magnify"><title>Diagrama de estados - EscenarioPrueba</title><defs/><g><g class="title" data-source-line="1"><text fill="#000000" font-family="sans-serif" font-size="14" font-weight="bold" lengthAdjust="spacing" textLength="315.5605" x="151.6654" y="22.9951">Diagrama de estados - EscenarioPrueba</text></g><path d="M19.5,44.2969 L613.3913,44.2969 A12.5,12.5 0 0 1 625.8913,56.7969 L625.8913,70.5938 L7,70.5938 L7,56.7969 A12.5,12.5 0 0 1 19.5,44.2969" fill="#F1F1F1"/><rect fill="none" height="625.2969" rx="12.5" ry="12.5" style="stroke:#181818;stroke-width:0.5;" width="618.8913" x="7" y="44.2969"/><line style="stroke:#181818;stroke-width:0.5;" x1="7" x2="625.8913" y1="70.5938" y2="70.5938"/><text fill="#000000" font-family="sans-serif" font-size="14" lengthAdjust="spacing" textLength="117.2637" x="257.8138" y="62.292">EscenarioPrueba</text><ellipse cx="352.3" cy="91.5938" fill="#222222" rx="10" ry="10" style="stroke:#222222;stroke-width:1;"/><g id="EscenarioPrueba.Generado"><rect fill="#F1F1F1" height="50" rx="12.5" ry="12.5" style="stroke:#181818;stroke-width:0.5;" width="88.7354" x="307.8" y="138.5938"/><line style="stroke:#181818;stroke-width:0.5;" x1="307.8" x2="396.5354" y1="164.8906" y2="164.8906"/><text fill="#000000" font-family="sans-serif" font-size="14" lengthAdjust="spacing" textLength="68.7354" x="317.8" y="156.5889">Generado</text></g><g id="EscenarioPrueba.PendienteRevision"><rect fill="#F1F1F1" height="50" rx="12.5" ry="12.5" style="stroke:#181818;stroke-width:0.5;" width="149.4316" x="119.8" y="241.5938"/><line style="stroke:#181818;stroke-width:0.5;" x1="119.8" x2="269.2316" y1="267.8906" y2="267.8906"/><text fill="#000000" font-family="sans-serif" font-size="14" lengthAdjust="spacing" textLength="129.4316" x="129.8" y="259.5889">PendienteRevision</text></g><g id="EscenarioPrueba.Modificado"><rect fill="#F1F1F1" height="50" rx="12.5" ry="12.5" style="stroke:#181818;stroke-width:0.5;" width="95.9678" x="156.3" y="344.5938"/><line style="stroke:#181818;stroke-width:0.5;" x1="156.3" x2="252.2678" y1="370.8906" y2="370.8906"/><text fill="#000000" font-family="sans-serif" font-size="14" lengthAdjust="spacing" textLength="75.9678" x="166.3" y="362.5889">Modificado</text></g><g id="EscenarioPrueba.Aprobado"><rect fill="#F1F1F1" height="50" rx="12.5" ry="12.5" style="stroke:#181818;stroke-width:0.5;" width="87.7031" x="50.3" y="447.5938"/><line style="stroke:#181818;stroke-width:0.5;" x1="50.3" x2="138.0031" y1="473.8906" y2="473.8906"/><text fill="#000000" font-family="sans-serif" font-size="14" lengthAdjust="spacing" textLength="67.7031" x="60.3" y="465.5889">Aprobado</text></g><g id="EscenarioPrueba.Publicado"><rect fill="#F1F1F1" height="50" rx="12.5" ry="12.5" style="stroke:#181818;stroke-width:0.5;" width="87.71" x="156.3" y="550.5938"/><line style="stroke:#181818;stroke-width:0.5;" x1="156.3" x2="244.01" y1="576.8906" y2="576.8906"/><text fill="#000000" font-family="sans-serif" font-size="14" lengthAdjust="spacing" textLength="67.71" x="166.3" y="568.5889">Publicado</text></g><g id="EscenarioPrueba.Eliminado"><rect fill="#F1F1F1" height="50" rx="12.5" ry="12.5" style="stroke:#181818;stroke-width:0.5;" width="89.0566" x="257.8" y="447.5938"/><line style="stroke:#181818;stroke-width:0.5;" x1="257.8" x2="346.8566" y1="473.8906" y2="473.8906"/><text fill="#000000" font-family="sans-serif" font-size="14" lengthAdjust="spacing" textLength="69.0566" x="267.8" y="465.5889">Eliminado</text></g><ellipse cx="260.3" cy="648.5938" fill="none" rx="11" ry="11" style="stroke:#222222;stroke-width:1;"/><ellipse cx="260.3" cy="648.5938" fill="#222222" rx="6" ry="6" style="stroke:#222222;stroke-width:1;"/><!--link *start*EscenarioPrueba to Generado--><g class="link" data-entity-1=".start.EscenarioPrueba" data-entity-2="Generado" data-source-line="5" data-uid="lnk4" id="link_.start.EscenarioPrueba_Generado"><path d="M352.3,101.7437 C352.3,111.0137 352.3,119.7337 352.3,132.3737" fill="none" id="*start*EscenarioPrueba-to-Generado" style="stroke:#181818;stroke-width:1;"/><polygon fill="#181818" points="352.3,138.3737,356.3,129.3737,352.3,133.3737,348.3,129.3737,352.3,138.3737" style="stroke:#181818;stroke-width:1;"/></g><!--link Generado to PendienteRevision--><g class="link" data-entity-1="Generado" data-entity-2="PendienteRevision" data-source-line="7" data-uid="lnk6" id="link_Generado_PendienteRevision"><path d="M314.46,188.7838 C289.54,204.7138 262.0854,222.2621 237.1654,238.1921" fill="none" id="Generado-to-PendienteRevision" style="stroke:#181818;stroke-width:1;"/><polygon fill="#181818" points="232.11,241.4237,241.8474,239.9466,236.3228,238.7307,237.5386,233.2061,232.11,241.4237" style="stroke:#181818;stroke-width:1;"/><text fill="#000000" font-family="sans-serif" font-size="13" lengthAdjust="spacing" textLength="111.9092" x="283.3" y="219.6606">guardar borrador</text></g><!--link PendienteRevision to Modificado--><g class="link" data-entity-1="PendienteRevision" data-entity-2="Modificado" data-source-line="8" data-uid="lnk8" id="link_PendienteRevision_Modificado"><path d="M193.66,291.7738 C193.64,302.4738 194,315.1938 195.3,326.5938 C195.97,332.3738 195.8363,332.6599 197.0363,338.4199" fill="none" id="PendienteRevision-to-Modificado" style="stroke:#181818;stroke-width:1;"/><polygon fill="#181818" points="198.26,344.2938,200.3403,334.6671,197.2402,339.3988,192.5085,336.2987,198.26,344.2938" style="stroke:#181818;stroke-width:1;"/><text fill="#000000" font-family="sans-serif" font-size="13" lengthAdjust="spacing" textLength="156.146" x="196.3" y="322.6606">a&#241;adir feedback / editar</text></g><!--link Modificado to PendienteRevision--><g class="link" data-entity-1="Modificado" data-entity-2="PendienteRevision" data-source-line="9" data-uid="lnk9" id="link_Modificado_PendienteRevision"><path d="M156.07,349.4138 C151.44,347.7238 146.79,346.0938 142.3,344.5938 C114.27,335.2538 96.15,350.1438 78.3,326.5938 C61.46,304.3538 82.0889,291.4754 113.9389,282.4154" fill="none" id="Modificado-to-PendienteRevision" style="stroke:#181818;stroke-width:1;"/><polygon fill="#181818" points="119.71,280.7738,109.959,279.3888,114.9008,282.1418,112.1478,287.0836,119.71,280.7738" style="stroke:#181818;stroke-width:1;"/><text fill="#000000" font-family="sans-serif" font-size="13" lengthAdjust="spacing" textLength="109.8652" x="79.3" y="322.6606">guardar cambios</text></g><!--link PendienteRevision to Aprobado--><g class="link" data-entity-1="PendienteRevision" data-entity-2="Aprobado" data-source-line="10" data-uid="lnk11" id="link_PendienteRevision_Aprobado"><path d="M119.67,279.3438 C83.26,289.6138 43.82,308.7838 27.3,344.5938 C18,364.7738 19.52,373.7838 27.3,394.5938 C34.94,415.0037 46.3881,429.4218 60.7081,443.2118" fill="none" id="PendienteRevision-to-Aprobado" style="stroke:#181818;stroke-width:1;"/><polygon fill="#181818" points="65.03,447.3738,61.3218,438.2496,61.4284,443.9055,55.7726,444.0121,65.03,447.3738" style="stroke:#181818;stroke-width:1;"/><text fill="#000000" font-family="sans-serif" font-size="13" lengthAdjust="spacing" textLength="118.2441" x="28.3" y="374.1606">aprobar escenario</text></g><!--link Modificado to Aprobado--><g class="link" data-entity-1="Modificado" data-entity-2="Aprobado" data-source-line="11" data-uid="lnk12" id="link_Modificado_Aprobado"><path d="M156.2,389.5938 C129.83,400.1138 102.27,411.3238 101.3,412.5938 C93.87,422.3638 91.8559,429.7938 91.8059,441.3738" fill="none" id="Modificado-to-Aprobado" style="stroke:#181818;stroke-width:1;"/><polygon fill="#181818" points="91.78,447.3738,95.8188,438.3911,91.8016,442.3738,87.8189,438.3566,91.78,447.3738" style="stroke:#181818;stroke-width:1;"/><text fill="#000000" font-family="sans-serif" font-size="13" lengthAdjust="spacing" textLength="118.2441" x="102.3" y="425.6606">aprobar escenario</text></g><!--link Aprobado to Publicado--><g class="link" data-entity-1="Aprobado" data-entity-2="Publicado" data-source-line="12" data-uid="lnk14" id="link_Aprobado_Publicado"><path d="M119.69,497.7838 C136.35,513.6637 153.7159,530.2051 170.4159,546.1151" fill="none" id="Aprobado-to-Publicado" style="stroke:#181818;stroke-width:1;"/><polygon fill="#181818" points="174.76,550.2538,171.0029,541.1497,171.1399,546.8049,165.4847,546.9419,174.76,550.2538" style="stroke:#181818;stroke-width:1;"/><text fill="#000000" font-family="sans-serif" font-size="13" lengthAdjust="spacing" textLength="103.3081" x="154.3" y="528.6606">publicar en Kiwi</text></g><!--link Generado to Eliminado--><g class="link" data-entity-1="Generado" data-entity-2="Eliminado" data-source-line="14" data-uid="lnk16" id="link_Generado_Eliminado"><path d="M386.64,188.8938 C442.36,231.3538 541.54,321.5138 492.3,394.5938 C459.99,442.5638 398.073,459.7595 352.823,466.5795" fill="none" id="Generado-to-Eliminado" style="stroke:#181818;stroke-width:1;"/><polygon fill="#181818" points="346.89,467.4738,356.3856,470.0878,351.8342,466.7286,355.1933,462.1771,346.89,467.4738" style="stroke:#181818;stroke-width:1;"/><text fill="#000000" font-family="sans-serif" font-size="13" lengthAdjust="spacing" textLength="113.5913" x="502.3" y="322.6606">eliminar borrador</text></g><!--link PendienteRevision to Eliminado--><g class="link" data-entity-1="PendienteRevision" data-entity-2="Eliminado" data-source-line="15" data-uid="lnk17" id="link_PendienteRevision_Eliminado"><path d="M268.92,278.3938 C304.86,285.2738 342.5,295.5738 353.3,309.5938 C385.85,351.8438 376.07,381.3638 353.3,429.5938 C350.17,436.2338 349.7343,438.004 344.3643,443.194" fill="none" id="PendienteRevision-to-Eliminado" style="stroke:#181818;stroke-width:1;"/><polygon fill="#181818" points="340.05,447.3638,349.3013,443.9854,343.6453,443.889,343.7417,438.233,340.05,447.3638" style="stroke:#181818;stroke-width:1;"/><text fill="#000000" font-family="sans-serif" font-size="13" lengthAdjust="spacing" textLength="113.5913" x="374.3" y="374.1606">eliminar borrador</text></g><!--link Modificado to Eliminado--><g class="link" data-entity-1="Modificado" data-entity-2="Eliminado" data-source-line="16" data-uid="lnk18" id="link_Modificado_Eliminado"><path d="M214.95,394.7038 C220.76,406.1238 228.73,419.4438 238.3,429.5938 C244.51,436.1638 247.0262,438.7565 254.5862,444.0865" fill="none" id="Modificado-to-Eliminado" style="stroke:#181818;stroke-width:1;"/><polygon fill="#181818" points="259.49,447.5438,254.4392,439.0886,255.4035,444.6627,249.8295,445.627,259.49,447.5438" style="stroke:#181818;stroke-width:1;"/><text fill="#000000" font-family="sans-serif" font-size="13" lengthAdjust="spacing" textLength="113.5913" x="239.3" y="425.6606">eliminar borrador</text></g><!--link Publicado to *end*EscenarioPrueba--><g class="link" data-entity-1="Publicado" data-entity-2=".end.EscenarioPrueba" data-source-line="18" data-uid="lnk20" id="link_Publicado_.end.EscenarioPrueba"><path d="M220.62,600.6338 C232.04,614.1438 241.6854,625.5725 249.6354,634.9725" fill="none" id="Publicado-to-*end*EscenarioPrueba" style="stroke:#181818;stroke-width:1;"/><polygon fill="#181818" points="253.51,639.5538,250.7523,630.0988,250.2812,635.736,244.644,635.2649,253.51,639.5538" style="stroke:#181818;stroke-width:1;"/></g><!--link Eliminado to *end*EscenarioPrueba--><g class="link" data-entity-1="Eliminado" data-entity-2=".end.EscenarioPrueba" data-source-line="19" data-uid="lnk21" id="link_Eliminado_.end.EscenarioPrueba"><path d="M296.47,497.7838 C287.13,536.4438 270.6573,604.7011 264.1573,631.6411" fill="none" id="Eliminado-to-*end*EscenarioPrueba" style="stroke:#181818;stroke-width:1;"/><polygon fill="#181818" points="262.75,637.4738,268.7493,629.663,263.9227,632.6132,260.9725,627.7866,262.75,637.4738" style="stroke:#181818;stroke-width:1;"/></g><!--SRC=[ZP71IiGm48RlUOgVFGh5-nu4mSM328jNsSEacLq6ssIPfEv1V2YVmHSpQRUhj6Yz_SnyV_wPIPBKCEw43aejmJ4u9d8Xei8crkn99MorOql6v4vYh2Rr5IXEMRmP0pnVxL1LDxXdpveVBRLHzuqjUoVi4p_ngqG97ciSEb972XkqS9ezSwoO7uEJlTJbhJNeyuESAFRCpbBzWckmaqJ5_WDS2gsfjHBYhvctHmtsdDXBpVSwRpvFMg0lxNwgpZRZCiT1PzhZGKuokzkcaLRy0FEW_t6m9TTa-h_nad8PkU3vitFjspJMpFiN]--></g></svg>