<svg xmlns="http://www.w3.org/2000/svg" xmlns:xlink="http://www.w3.org/1999/xlink" contentStyleType="text/css" data-diagram-type="STATE" height="726px" preserveAspectRatio="none" style="width:469px;height:726px;background:#FFFFFF;" version="1.1" viewBox="0 0 469 726" width="469px" zoomAndPan="magnify"><defs/><g><path d="M48,7 L396,7 A12.5,12.5 0 0 1 408.5,19.5 L408.5,33.2969 L35.5,33.2969 L35.5,19.5 A12.5,12.5 0 0 1 48,7" fill="#F1F1F1"/><rect fill="none" height="568.2969" rx="12.5" ry="12.5" style="stroke:#181818;stroke-width:0.5;" width="373" x="35.5" y="7"/><line style="stroke:#181818;stroke-width:0.5;" x1="35.5" x2="408.5" y1="33.2969" y2="33.2969"/><text fill="#000000" font-family="sans-serif" font-size="14" lengthAdjust="spacing" textLength="256.0264" x="93.9868" y="24.9951">introducirDocumentacionFuncional()</text><g id="introducirDocumentacionFuncional.RecibiendoDocumentacion"><rect fill="#F1F1F1" height="50" rx="12.5" ry="12.5" style="stroke:#181818;stroke-width:0.5;" width="50" x="47.5" y="135.2969"/><line style="stroke:#181818;stroke-width:0.5;" x1="47.5" x2="97.5" y1="161.5938" y2="161.5938"/><text fill="#000000" font-family="sans-serif" font-size="14" lengthAdjust="spacing" textLength="4.4502" x="70.2749" y="153.292">&#160;</text></g><g id="introducirDocumentacionFuncional.ValidandoDocumentacion"><rect fill="#F1F1F1" height="50" rx="12.5" ry="12.5" style="stroke:#181818;stroke-width:0.5;" width="50" x="47.5" y="271.2969"/><line style="stroke:#181818;stroke-width:0.5;" x1="47.5" x2="97.5" y1="297.5938" y2="297.5938"/><text fill="#000000" font-family="sans-serif" font-size="14" lengthAdjust="spacing" textLength="4.4502" x="70.2749" y="289.292">&#160;</text></g><g id="introducirDocumentacionFuncional.RegistrandoDocumentacion"><rect fill="#F1F1F1" height="50" rx="12.5" ry="12.5" style="stroke:#181818;stroke-width:0.5;" width="50" x="47.5" y="407.2969"/><line style="stroke:#181818;stroke-width:0.5;" x1="47.5" x2="97.5" y1="433.5938" y2="433.5938"/><text fill="#000000" font-family="sans-serif" font-size="14" lengthAdjust="spacing" textLength="4.4502" x="70.2749" y="425.292">&#160;</text></g><ellipse cx="72.5" cy="54.2969" fill="#222222" rx="10" ry="10" style="stroke:#222222;stroke-width:1;"/><ellipse cx="72.5" cy="554.2969" fill="none" rx="11" ry="11" style="stroke:#222222;stroke-width:1;"/><ellipse cx="72.5" cy="554.2969" fill="#222222" rx="6" ry="6" style="stroke:#222222;stroke-width:1;"/><!--link *start*introducirDocumentacionFuncional to RecibiendoDocumentacion--><g class="link" data-entity-1=".start.introducirDocumentacionFuncional" data-entity-2="RecibiendoDocumentacion" data-source-line="9" data-uid="lnk3" id="link_.start.introducirDocumentacionFuncional_RecibiendoDocumentacion"><path d="M72.5,64.5269 C72.5,80.2369 72.5,106.6569 72.5,129.1669" fill="none" id="*start*introducirDocumentacionFuncional-to-RecibiendoDocumentacion" style="stroke:#008000;stroke-width:1;"/><polygon fill="#008000" points="72.5,135.1669,76.5,126.1669,72.5,130.1669,68.5,126.1669,72.5,135.1669" style="stroke:#008000;stroke-width:1;"/><path d="M77.5,87.2969 L77.5,112.2969 L399.5,112.2969 L399.5,97.2969 L389.5,87.2969 L77.5,87.2969" fill="#FEFFDD" style="stroke:#181818;stroke-width:0.5;"/><path d="M389.5,87.2969 L389.5,97.2969 L399.5,97.2969 L389.5,87.2969" fill="#FEFFDD" style="stroke:#181818;stroke-width:0.5;"/><text fill="#000000" font-family="sans-serif" font-size="13" lengthAdjust="spacing" textLength="301.4883" x="83.5" y="104.3638">Se solicita introducir documentacion funcional</text></g><!--link RecibiendoDocumentacion to ValidandoDocumentacion--><g class="link" data-entity-1="RecibiendoDocumentacion" data-entity-2="ValidandoDocumentacion" data-source-line="14" data-uid="lnk4" id="link_RecibiendoDocumentacion_ValidandoDocumentacion"><path d="M72.5,185.5669 C72.5,209.8469 72.5,240.9869 72.5,265.2069" fill="none" id="RecibiendoDocumentacion-to-ValidandoDocumentacion" style="stroke:#008000;stroke-width:1;"/><polygon fill="#008000" points="72.5,271.2069,76.5,262.2069,72.5,266.2069,68.5,262.2069,72.5,271.2069" style="stroke:#008000;stroke-width:1;"/><path d="M77.5,208.2969 L77.5,248.2969 L321.5,248.2969 L321.5,218.2969 L311.5,208.2969 L77.5,208.2969" fill="#FEFFDD" style="stroke:#181818;stroke-width:0.5;"/><path d="M311.5,208.2969 L311.5,218.2969 L321.5,218.2969 L311.5,208.2969" fill="#FEFFDD" style="stroke:#181818;stroke-width:0.5;"/><text fill="#000000" font-family="sans-serif" font-size="13" font-weight="bold" lengthAdjust="spacing" textLength="58.9063" x="83.5" y="225.3638">Sistema</text><text fill="#000000" font-family="sans-serif" font-size="13" lengthAdjust="spacing" textLength="160.7036" x="146.5386" y="225.3638">recibe la documentacion</text><text fill="#000000" font-family="sans-serif" font-size="13" lengthAdjust="spacing" textLength="138.6963" x="83.5" y="240.4966">y valida su contenido</text></g><!--link ValidandoDocumentacion to RegistrandoDocumentacion--><g class="link" data-entity-1="ValidandoDocumentacion" data-entity-2="RegistrandoDocumentacion" data-source-line="20" data-uid="lnk5" id="link_ValidandoDocumentacion_RegistrandoDocumentacion"><path d="M72.5,321.5669 C72.5,345.8469 72.5,376.9869 72.5,401.2069" fill="none" id="ValidandoDocumentacion-to-RegistrandoDocumentacion" style="stroke:#008000;stroke-width:1;"/><polygon fill="#008000" points="72.5,407.2069,76.5,398.2069,72.5,402.2069,68.5,398.2069,72.5,407.2069" style="stroke:#008000;stroke-width:1;"/><path d="M77.5,344.2969 L77.5,384.2969 L282.5,384.2969 L282.5,354.2969 L272.5,344.2969 L77.5,344.2969" fill="#FEFFDD" style="stroke:#181818;stroke-width:0.5;"/><path d="M272.5,344.2969 L272.5,354.2969 L282.5,354.2969 L272.5,344.2969" fill="#FEFFDD" style="stroke:#181818;stroke-width:0.5;"/><text fill="#000000" font-family="sans-serif" font-size="13" font-weight="bold" lengthAdjust="spacing" textLength="58.9063" x="83.5" y="361.3638">Sistema</text><text fill="#000000" font-family="sans-serif" font-size="13" lengthAdjust="spacing" textLength="121.3735" x="146.5386" y="361.3638">prepara el registro</text><text fill="#000000" font-family="sans-serif" font-size="13" lengthAdjust="spacing" textLength="136.6016" x="83.5" y="376.4966">de la documentacion</text></g><!--link RegistrandoDocumentacion to *end*introducirDocumentacionFuncional--><g class="link" data-entity-1="RegistrandoDocumentacion" data-entity-2=".end.introducirDocumentacionFuncional" data-source-line="26" data-uid="lnk7" id="link_RegistrandoDocumentacion_.end.introducirDocumentacionFuncional"><path d="M72.5,457.5769 C72.5,483.8769 72.5,518.5669 72.5,537.2769" fill="none" id="RegistrandoDocumentacion-to-*end*introducirDocumentacionFuncional" style="stroke:#008000;stroke-width:1;"/><polygon fill="#008000" points="72.5,543.2769,76.5,534.2769,72.5,538.2769,68.5,534.2769,72.5,543.2769" style="stroke:#008000;stroke-width:1;"/><path d="M77.5,480.2969 L77.5,520.2969 L358.5,520.2969 L358.5,490.2969 L348.5,480.2969 L77.5,480.2969" fill="#FEFFDD" style="stroke:#181818;stroke-width:0.5;"/><path d="M348.5,480.2969 L348.5,490.2969 L358.5,490.2969 L348.5,480.2969" fill="#FEFFDD" style="stroke:#181818;stroke-width:0.5;"/><text fill="#000000" font-family="sans-serif" font-size="13" font-weight="bold" lengthAdjust="spacing" textLength="58.9063" x="83.5" y="497.3638">Sistema</text><text fill="#000000" font-family="sans-serif" font-size="13" lengthAdjust="spacing" textLength="170.7393" x="146.5386" y="497.3638">registra la documentacion</text><text fill="#000000" font-family="sans-serif" font-size="13" lengthAdjust="spacing" textLength="260.8442" x="83.5" y="512.4966">y la deja disponible para procesamiento</text></g><g id="DOCUMENTACION_ABIERTA"><rect fill="#F1F1F1" height="50" rx="12.5" ry="12.5" style="stroke:#181818;stroke-width:0.5;" width="213.7578" x="7" y="670"/><line style="stroke:#181818;stroke-width:0.5;" x1="7" x2="220.7578" y1="696.2969" y2="696.2969"/><text fill="#000000" font-family="sans-serif" font-size="14" lengthAdjust="spacing" textLength="193.7578" x="17" y="687.9951">DOCUMENTACION_ABIERTA</text></g><g id="SISTEMA_ABIERTO"><rect fill="#F1F1F1" height="50" rx="12.5" ry="12.5" style="stroke:#181818;stroke-width:0.5;" width="149.4111" x="256.5" y="670"/><line style="stroke:#181818;stroke-width:0.5;" x1="256.5" x2="405.9111" y1="696.2969" y2="696.2969"/><text fill="#000000" font-family="sans-serif" font-size="14" lengthAdjust="spacing" textLength="129.4111" x="266.5" y="687.9951">SISTEMA_ABIERTO</text></g><!--link introducirDocumentacionFuncional to DOCUMENTACION_ABIERTA--><g class="link" data-entity-1="introducirDocumentacionFuncional" data-entity-2="DOCUMENTACION_ABIERTA" data-source-line="33" data-uid="lnk9" id="link_introducirDocumentacionFuncional_DOCUMENTACION_ABIERTA"><path d="M136.02,575.27 C130.45,593.65 127,605 127,605 C127,605 122.2675,637.393 118.4175,663.743" fill="none" id="introducirDocumentacionFuncional-to-DOCUMENTACION_ABIERTA" style="stroke:#008000;stroke-width:1;"/><polygon fill="#008000" points="117.55,669.68,122.8092,661.3529,118.2729,664.7325,114.8932,660.1963,117.55,669.68" style="stroke:#008000;stroke-width:1;"/><path d="M132,610 L132,635 L283,635 L283,620 L273,610 L132,610" fill="#FEFFDD" style="stroke:#181818;stroke-width:0.5;"/><path d="M273,610 L273,620 L283,620 L273,610" fill="#FEFFDD" style="stroke:#181818;stroke-width:0.5;"/><text fill="#000000" font-family="sans-serif" font-size="13" lengthAdjust="spacing" textLength="130.2412" x="138" y="627.0669">completarRegistro()</text></g><!--link introducirDocumentacionFuncional to SISTEMA_ABIERTO--><g class="link" data-entity-1="introducirDocumentacionFuncional" data-entity-2="SISTEMA_ABIERTO" data-source-line="38" data-uid="lnk11" id="link_introducirDocumentacionFuncional_SISTEMA_ABIERTO"><path d="M298.74,575.02 C309.35,614.15 317.0306,642.4789 322.8706,664.0289" fill="none" id="introducirDocumentacionFuncional-to-SISTEMA_ABIERTO" style="stroke:#FF0000;stroke-width:1;"/><polygon fill="#FF0000" points="324.44,669.82,325.9467,660.0871,323.1322,664.9941,318.2252,662.1796,324.44,669.82" style="stroke:#FF0000;stroke-width:1;"/><path d="M320,610 L320,635 L462,635 L462,620 L452,610 L320,610" fill="#FEFFDD" style="stroke:#181818;stroke-width:0.5;"/><path d="M452,610 L452,620 L462,620 L452,610" fill="#FEFFDD" style="stroke:#181818;stroke-width:0.5;"/><text fill="#000000" font-family="sans-serif" font-size="13" lengthAdjust="spacing" textLength="121.0371" x="326" y="627.0669">rechazarRegistro()</text></g><!--SRC=[ZPFHQi8m58RlynG7TwC3sGk8qAa3BrImRZSY8qtFN6QQX2GTkB5tNv8wPhLLMsXfEEV_l_EdiJikDJMq0C4bkhr6q4himmSXrb67mAKpAYyPDsF5oWAbeumh-LJAyA82g8NEjQ9khmFVX82_AjMElttZ4XdFECfSrVhE2r-eu3czNhV4BRVEd5V6qlNz1lhhkwr1b9l-yAAzL5vLoH3CBYwa25O9phYZHw50Vjm9RtyJnnQl77KgznQt6j65ES-01jamzSDYGGSFsH1Ca4SGj8uKI_Vm6ON1bi2KT2XvhXeGc-rFCcj9-1P6RJ3yRe32uqQTYY9luJuDiDcwnkVt-CQuAh6smC8oVlW7jrf9dWb_D0AwDegXfONVI7SIuGyXLq_BCUfuCNgUJUQhP3HTp5-Jn-bakKf83PofGWjqr1ncLzqU-G_b5ZU3UV1Af-bgCaiEBekwY_zrtkbNeyal]--></g></svg>