<svg xmlns="http://www.w3.org/2000/svg" xmlns:xlink="http://www.w3.org/1999/xlink" contentStyleType="text/css" data-diagram-type="STATE" height="590px" preserveAspectRatio="none" style="width:378px;height:590px;background:#FFFFFF;" version="1.1" viewBox="0 0 378 590" width="378px" zoomAndPan="magnify"><defs/><g><path d="M19.5,7 L298.5,7 A12.5,12.5 0 0 1 311,19.5 L311,33.2969 L7,33.2969 L7,19.5 A12.5,12.5 0 0 1 19.5,7" fill="#F1F1F1"/><rect fill="none" height="432.2969" rx="12.5" ry="12.5" style="stroke:#181818;stroke-width:0.5;" width="304" x="7" y="7"/><line style="stroke:#181818;stroke-width:0.5;" x1="7" x2="311" y1="33.2969" y2="33.2969"/><text fill="#000000" font-family="sans-serif" font-size="14" lengthAdjust="spacing" textLength="113.4355" x="102.2822" y="24.9951">listarCasosUso()</text><g id="listarCasosUso.RecuperandoCasosUso"><rect fill="#F1F1F1" height="50" rx="12.5" ry="12.5" style="stroke:#181818;stroke-width:0.5;" width="50" x="19" y="135.2969"/><line style="stroke:#181818;stroke-width:0.5;" x1="19" x2="69" y1="161.5938" y2="161.5938"/><text fill="#000000" font-family="sans-serif" font-size="14" lengthAdjust="spacing" textLength="4.4502" x="41.7749" y="153.292">&#160;</text></g><g id="listarCasosUso.MostrandoCasosUso"><rect fill="#F1F1F1" height="50" rx="12.5" ry="12.5" style="stroke:#181818;stroke-width:0.5;" width="50" x="19" y="271.2969"/><line style="stroke:#181818;stroke-width:0.5;" x1="19" x2="69" y1="297.5938" y2="297.5938"/><text fill="#000000" font-family="sans-serif" font-size="14" lengthAdjust="spacing" textLength="4.4502" x="41.7749" y="289.292">&#160;</text></g><ellipse cx="44" cy="54.2969" fill="#222222" rx="10" ry="10" style="stroke:#222222;stroke-width:1;"/><ellipse cx="44" cy="418.2969" fill="none" rx="11" ry="11" style="stroke:#222222;stroke-width:1;"/><ellipse cx="44" cy="418.2969" fill="#222222" rx="6" ry="6" style="stroke:#222222;stroke-width:1;"/><!--link *start*listarCasosUso to RecuperandoCasosUso--><g class="link" data-entity-1=".start.listarCasosUso" data-entity-2="RecuperandoCasosUso" data-source-line="8" data-uid="lnk3" id="link_.start.listarCasosUso_RecuperandoCasosUso"><path d="M44,64.5269 C44,80.2369 44,106.6569 44,129.1669" fill="none" id="*start*listarCasosUso-to-RecuperandoCasosUso" style="stroke:#008000;stroke-width:1;"/><polygon fill="#008000" points="44,135.1669,48,126.1669,44,130.1669,40,126.1669,44,135.1669" style="stroke:#008000;stroke-width:1;"/><path d="M49,87.2969 L49,112.2969 L260,112.2969 L260,97.2969 L250,87.2969 L49,87.2969" fill="#FEFFDD" style="stroke:#181818;stroke-width:0.5;"/><path d="M250,87.2969 L250,97.2969 L260,97.2969 L250,87.2969" fill="#FEFFDD" style="stroke:#181818;stroke-width:0.5;"/><text fill="#000000" font-family="sans-serif" font-size="13" lengthAdjust="spacing" textLength="190.9185" x="55" y="104.3638">Se solicita listar casos de uso</text></g><!--link RecuperandoCasosUso to MostrandoCasosUso--><g class="link" data-entity-1="RecuperandoCasosUso" data-entity-2="MostrandoCasosUso" data-source-line="13" data-uid="lnk4" id="link_RecuperandoCasosUso_MostrandoCasosUso"><path d="M44,185.5669 C44,209.8469 44,240.9869 44,265.2069" fill="none" id="RecuperandoCasosUso-to-MostrandoCasosUso" style="stroke:#008000;stroke-width:1;"/><polygon fill="#008000" points="44,271.2069,48,262.2069,44,266.2069,40,262.2069,44,271.2069" style="stroke:#008000;stroke-width:1;"/><path d="M49,208.2969 L49,248.2969 L302,248.2969 L302,218.2969 L292,208.2969 L49,208.2969" fill="#FEFFDD" style="stroke:#181818;stroke-width:0.5;"/><path d="M292,208.2969 L292,218.2969 L302,218.2969 L292,208.2969" fill="#FEFFDD" style="stroke:#181818;stroke-width:0.5;"/><text fill="#000000" font-family="sans-serif" font-size="13" font-weight="bold" lengthAdjust="spacing" textLength="58.9063" x="55" y="225.3638">Sistema</text><text fill="#000000" font-family="sans-serif" font-size="13" lengthAdjust="spacing" textLength="168.9873" x="118.0386" y="225.3638">recupera los casos de uso</text><text fill="#000000" font-family="sans-serif" font-size="13" lengthAdjust="spacing" textLength="73.3662" x="55" y="240.4966">registrados</text></g><!--link MostrandoCasosUso to *end*listarCasosUso--><g class="link" data-entity-1="MostrandoCasosUso" data-entity-2=".end.listarCasosUso" data-source-line="19" data-uid="lnk6" id="link_MostrandoCasosUso_.end.listarCasosUso"><path d="M44,321.5769 C44,347.8769 44,382.5669 44,401.2769" fill="none" id="MostrandoCasosUso-to-*end*listarCasosUso" style="stroke:#008000;stroke-width:1;"/><polygon fill="#008000" points="44,407.2769,48,398.2769,44,402.2769,40,398.2769,44,407.2769" style="stroke:#008000;stroke-width:1;"/><path d="M49,344.2969 L49,384.2969 L234,384.2969 L234,354.2969 L224,344.2969 L49,344.2969" fill="#FEFFDD" style="stroke:#181818;stroke-width:0.5;"/><path d="M224,344.2969 L224,354.2969 L234,354.2969 L224,344.2969" fill="#FEFFDD" style="stroke:#181818;stroke-width:0.5;"/><text fill="#000000" font-family="sans-serif" font-size="13" font-weight="bold" lengthAdjust="spacing" textLength="58.9063" x="55" y="361.3638">Sistema</text><text fill="#000000" font-family="sans-serif" font-size="13" lengthAdjust="spacing" textLength="100.9849" x="118.0386" y="361.3638">muestra la lista</text><text fill="#000000" font-family="sans-serif" font-size="13" lengthAdjust="spacing" textLength="104.4761" x="55" y="376.4966">de casos de uso</text></g><g id="CASOS_USO_ABIERTO"><rect fill="#F1F1F1" height="50" rx="12.5" ry="12.5" style="stroke:#181818;stroke-width:0.5;" width="173.7539" x="72" y="534"/><line style="stroke:#181818;stroke-width:0.5;" x1="72" x2="245.7539" y1="560.2969" y2="560.2969"/><text fill="#000000" font-family="sans-serif" font-size="14" lengthAdjust="spacing" textLength="153.7539" x="82" y="551.9951">CASOS_USO_ABIERTO</text></g><!--link listarCasosUso to CASOS_USO_ABIERTO--><g class="link" data-entity-1="listarCasosUso" data-entity-2="CASOS_USO_ABIERTO" data-source-line="26" data-uid="lnk8" id="link_listarCasosUso_CASOS_USO_ABIERTO"><path d="M66.67,439.45 C58.94,457.48 54,469 54,469 C54,469 54,504 54,504 C54,504 78.7335,516.7273 106.6935,531.0973" fill="none" id="listarCasosUso-to-CASOS_USO_ABIERTO" style="stroke:#008000;stroke-width:1;"/><polygon fill="#008000" points="112.03,533.84,105.8538,526.1684,107.583,531.5544,102.1969,533.2836,112.03,533.84" style="stroke:#008000;stroke-width:1;"/><path d="M59,474 L59,499 L213,499 L213,484 L203,474 L59,474" fill="#FEFFDD" style="stroke:#181818;stroke-width:0.5;"/><path d="M203,474 L203,484 L213,484 L203,474" fill="#FEFFDD" style="stroke:#181818;stroke-width:0.5;"/><text fill="#000000" font-family="sans-serif" font-size="13" lengthAdjust="spacing" textLength="133.1357" x="65" y="491.0669">completarConsulta()</text></g><!--link listarCasosUso to CASOS_USO_ABIERTO--><g class="link" data-entity-1="listarCasosUso" data-entity-2="CASOS_USO_ABIERTO" data-source-line="31" data-uid="lnk9" id="link_listarCasosUso_CASOS_USO_ABIERTO"><path d="M214.4,439.45 C219.04,457.48 222,469 222,469 C222,469 222,504 222,504 C222,504 208.5173,515.5673 191.7373,529.9373" fill="none" id="listarCasosUso-to-CASOS_USO_ABIERTO-1" style="stroke:#FF0000;stroke-width:1;"/><polygon fill="#FF0000" points="187.18,533.84,196.6177,531.0241,190.9777,530.5877,191.4141,524.9477,187.18,533.84" style="stroke:#FF0000;stroke-width:1;"/><path d="M227,474 L227,499 L371,499 L371,484 L361,474 L227,474" fill="#FEFFDD" style="stroke:#181818;stroke-width:0.5;"/><path d="M361,474 L361,484 L371,484 L361,474" fill="#FEFFDD" style="stroke:#181818;stroke-width:0.5;"/><text fill="#000000" font-family="sans-serif" font-size="13" lengthAdjust="spacing" textLength="123.9316" x="233" y="491.0669">rechazarConsulta()</text></g><!--SRC=[ZP5HQy8m58NVyoiktOiEP7z02axsi8THCFea8h6vQ33DBKdwe6F_VJUrO-jQmUQX93tdEoUtuMnShRogm1g7yL8Zr6GlQID4Y2eYV-2tNwf0OHC8L82iVpIPPl0f1F1pSsIyMBR2igdHAwVfHpeKVL28VKchsJxlOBPzEdf4jvlbTrcE64KkjJ-t1n8Xa3MbYQfh3cKoW4PeEXCwtHflKIFeNlImuMZm_91BpiDApLyEEVYE2fQp1mqy7asYQWeZZGQ9lJuyceSQL0qc3DXk4As6EzmVnvSG_txstzpbGXPolv75Vl7w_hPQ5wBNeAIgjfZCv49ZevfCnU-rXboF-W4gZ_6ahgFGRm00]--></g></svg>